<?xml version="1.0" encoding="utf-8"?>
<!-- Generator: Adobe Illustrator 29.1.0, SVG Export Plug-In . SVG Version: 9.03 Build 55587)  -->
<svg version="1.1" xmlns="http://www.w3.org/2000/svg" xmlns:xlink="http://www.w3.org/1999/xlink" x="0px" y="0px"
	 viewBox="0 0 595.3 841.9" style="enable-background:new 0 0 595.3 841.9;" xml:space="preserve">
<style type="text/css">
	.st0{fill:none;stroke:#EC008C;stroke-miterlimit:10;}
	.st1{fill:#F6871F;}
	.st2{fill:#FBE725;}
	.st3{fill:#010101;}
	.st4{fill:#FFFFFF;}
</style>
<g id="Layer_1">
</g>
<g id="Cut">
	<path class="st0" d="M278.2,80c-6.4-27.9-36.6-46.1-65.1-57.3C165.7,3.6,22-21.3,4,43.5c-4.1,21.6,12,43,28.3,57.2
		c33.9,28.9,78.1,43.2,122.3,47.4c26.2,2.3,53.9,0.5,78.4-8.9c24.8-9,51.2-31,45.3-59.1L278.2,80z"/>
</g>
<g id="F.SilkS">
	<g>
		<path class="st1" d="M73.4,16.7l0.6-0.1c0.2,0.4,0.4,0.6,0.7,0.6l12.6-1.9c0.3-0.1,0.5-0.3,0.4-0.7l0.7-0.1l0.8,5.5l-1,0.2
			c-0.5-2.7-2.1-3.9-5-3.5l-0.8,0.1l2.3,14.7c0.2,1.5,1.1,2.1,2.5,1.9l0.1,0.7l-7,1.1l-0.1-0.7c0.9-0.1,1.4-0.4,1.7-0.8
			c0.2-0.4,0.3-1,0.2-1.8l-2.3-14.7l-1,0.2c-2.7,0.4-3.8,2-3.5,4.8l-1,0.2L73.4,16.7z"/>
		<path class="st1" d="M92.2,18.5l7.1,0.5l0,0.7c-0.9,0-1.5,0.1-1.8,0.4c-0.3,0.3-0.5,0.9-0.6,1.8l-0.3,5l8.9,0.6l0.3-5
			c0.1-0.9-0.1-1.6-0.4-1.9c-0.3-0.3-0.9-0.5-1.7-0.6l0-0.7l7.1,0.5l0,0.7c-0.9,0-1.5,0.1-1.8,0.4c-0.3,0.3-0.5,0.9-0.6,1.8
			l-0.8,12.6c-0.1,0.9,0.1,1.6,0.4,1.9c0.3,0.3,0.9,0.5,1.7,0.6l0,0.7l-7.1-0.5l0-0.7c0.9,0,1.4-0.1,1.8-0.4
			c0.3-0.3,0.5-0.9,0.6-1.8l0.4-6.7l-8.9-0.6l-0.4,6.7c-0.1,1.5,0.6,2.3,2.1,2.4l0,0.7L91,37.1l0-0.7c0.9,0,1.5-0.1,1.8-0.4
			c0.3-0.3,0.5-0.9,0.6-1.8l0.8-12.6c0.1-0.9-0.1-1.6-0.4-1.9c-0.3-0.3-0.9-0.5-1.7-0.6L92.2,18.5z"/>
		<path class="st1" d="M123.2,23.3l0.7,0.1l-0.5,5.5l-1.1-0.1c0.1-1.5-0.2-2.5-0.9-3.3c-0.7-0.7-2-1.2-3.6-1.3l-1.1-0.1
			c-0.2,1-0.4,2-0.4,2.8c-0.2,1.7,0,2.9,0.6,3.7c0.6,0.8,1.6,1.3,3,1.5l1.4,0.1l-0.1,1l-5.3-0.4l-0.8,8.3l1.5,0.1
			c3.2,0.3,5.3-1.1,6-4.1l1,0.1l-1.8,5.9l-0.7-0.1c0-0.4-0.1-0.7-0.5-0.7l-10.6-1l0.1-0.7c0.9,0.1,1.5,0,1.8-0.3
			c0.3-0.3,0.5-0.9,0.6-1.8l1.2-12.5c0.1-0.9,0-1.6-0.3-1.9s-0.9-0.5-1.7-0.6l0.1-0.7l10.3,1C122.8,24,123.2,23.8,123.2,23.3z"/>
		<path class="st1" d="M139,59.5c-2.8,2.9-5.5,4.5-8,4.7c-2.1,0.2-4-0.5-5.7-1.9c-1.8-1.4-2.8-3.5-3-6.3c-0.2-1.9,0.1-3.7,0.8-5.3
			s1.8-3,3.3-4.1c1.5-1.2,3.3-1.8,5.5-2c1.9-0.2,3.7,0,5.5,0.4l0.4,4.4l-1,0.1c-0.2-1.4-0.9-2.4-2.1-3.1s-2.5-0.9-4-0.8
			c-2.1,0.2-3.7,1.1-4.7,2.7c-1.1,1.6-1.5,3.6-1.3,5.8c0.2,2.4,1.1,4.4,2.6,5.8c1.5,1.5,3.3,2.1,5.5,1.9c2.1-0.2,4.3-1.3,6.4-3.3
			L139,59.5z"/>
		<path class="st1" d="M141.9,48.1l6.9,1.6l-0.2,0.7c-0.9-0.2-1.5-0.1-1.8,0.1c-0.4,0.2-0.6,0.8-0.8,1.7l-3.3,14.5l1.8,0.4
			c2.9,0.7,4.9-0.5,6.2-3.3l1,0.2l-2.6,5.6l-0.7-0.1c0.1-0.4-0.1-0.7-0.5-0.8l-10.3-2.4l0.2-0.7c0.8,0.2,1.5,0.2,1.8-0.1
			c0.4-0.2,0.7-0.8,0.8-1.7l2.8-12.3c0.2-0.9,0.2-1.5-0.1-1.9c-0.3-0.4-0.8-0.6-1.6-0.8L141.9,48.1z"/>
		<path class="st1" d="M160.1,46.5c-0.9,0-1.5,0.2-1.8,0.5c-0.3,0.3-0.5,0.9-0.5,1.8v12.6c0,1.5,0.7,2.3,2.2,2.3v0.7H153v-0.7
			c0.9,0,1.5-0.2,1.8-0.5s0.5-0.9,0.5-1.8V48.8c0-0.9-0.2-1.6-0.5-1.8s-0.9-0.4-1.7-0.5v-0.7h7.1V46.5z"/>
		<path class="st1" d="M162.3,46.2l9.2-0.7c1.6-0.1,2.8,0.1,3.6,0.7c0.8,0.6,1.2,1.3,1.3,2.3c0.1,1.6-0.5,3.1-1.9,4.6
			s-2.8,2.3-4.4,2.4c-0.3,0-0.7,0-1.1-0.1s-0.8-0.2-1.2-0.3l0.4,6.2c0.1,1.5,0.9,2.2,2.4,2.1l0.1,0.7l-7.1,0.5l-0.1-0.7
			c0.9-0.1,1.4-0.3,1.7-0.6s0.4-1,0.3-1.8L164.7,49c-0.1-0.9-0.3-1.5-0.6-1.8c-0.3-0.3-0.9-0.4-1.7-0.3L162.3,46.2z M167.3,47.5
			l0.4,5.8c0.7,0.4,1.3,0.7,1.8,0.9c0.6,0.2,1.1,0.3,1.6,0.2c0.9-0.1,1.6-0.4,2-1.1c0.4-0.6,0.6-1.6,0.5-2.8
			c-0.1-1.3-0.5-2.3-1.1-3.1c-0.6-0.8-1.5-1.2-2.6-1.1C168.9,46.4,168.1,46.8,167.3,47.5z"/>
		<path class="st1" d="M179.8,56.6c-0.5-0.4-0.8-0.8-1.1-1.3c-0.3-0.5-0.4-1-0.4-1.5c-0.1-1.4,0.5-2.7,1.7-3.8
			c1.2-1.1,2.7-1.8,4.4-1.9c0.9-0.1,2,0.1,3.5,0.5l0.3,4.5l-1.1,0.1c-0.2-1.3-0.6-2.3-1.4-3c-0.8-0.8-1.6-1.1-2.6-1
			c-0.8,0.1-1.5,0.4-2,0.9c-0.5,0.5-0.7,1.2-0.7,2c0,0.7,0.4,1.4,0.9,2c0.6,0.6,1.9,1.5,4,2.7c1.6,0.9,2.7,1.7,3.2,2.3
			c0.6,0.6,0.9,1.4,0.9,2.3c0.1,1.5-0.5,2.9-1.8,4.2c-1.3,1.3-2.9,2-4.6,2.1c-1.3,0.1-2.7-0.1-4.3-0.6l-0.3-5.2l1-0.1
			c0.1,1.5,0.6,2.7,1.5,3.6c0.9,0.9,2,1.4,3.1,1.3c1.1-0.1,1.9-0.4,2.5-1.1c0.6-0.7,0.8-1.5,0.8-2.5c-0.1-0.8-0.4-1.6-0.9-2.2
			c-0.6-0.6-1.8-1.4-3.7-2.5C181.7,57.8,180.7,57.2,179.8,56.6z"/>
	</g>
</g>
<g id="F.Cu">
	<g>
		<path id="sparkle_00000094620413317945553940000013653982232516652955_" class="st2" d="M234.1,54.4c0,5-2.4,9.1-5.4,9.1
			c2.9,0,5.4,4.1,5.4,9.1c0-5,2.4-9.1,5.4-9.1C236.4,63.5,234.1,59.4,234.1,54.4z"/>
		<path id="sparkle_00000016792752226841287610000015896931371732710575_" class="st2" d="M242.2,61.7c0,3.4-1.9,6.3-4.4,6.3
			c2.4,0,4.4,2.8,4.4,6.3c0-3.4,1.9-6.3,4.4-6.3C244.2,68,242.2,65.2,242.2,61.7z"/>
		<path id="sparkle_00000074416348754522713770000011424244871922890147_" class="st2" d="M228,65.6c0,1.9-1.2,3.5-2.6,3.5
			c1.5,0,2.6,1.5,2.6,3.5c0-1.9,1.2-3.5,2.6-3.5C229.2,69.1,228,67.5,228,65.6z"/>
		<path id="sparkle_00000074407089255064613140000015229098018463071658_" class="st2" d="M42.8,23.6c0,5-2.4,9.1-5.4,9.1
			c2.9,0,5.4,4.1,5.4,9.1c0-5,2.4-9.1,5.4-9.1C45.1,32.7,42.8,28.6,42.8,23.6z"/>
		<path id="sparkle_00000055666637513547420570000012902965338539643565_" class="st2" d="M38.5,35.8c0,3.4-1.9,6.3-4.4,6.3
			c2.4,0,4.4,2.8,4.4,6.3c0-3.4,1.9-6.3,4.4-6.3C40.5,42.1,38.5,39.3,38.5,35.8z"/>
		<path id="sparkle_00000183954794287525759520000017358901324574573245_" class="st2" d="M34.1,32.7c0,1.9-1.2,3.5-2.6,3.5
			c1.5,0,2.6,1.5,2.6,3.5c0-1.9,1.2-3.5,2.6-3.5C35.3,36.2,34.1,34.6,34.1,32.7z"/>
		<path id="sparkle_00000114033819982892734090000007843146746563227796_" class="st2" d="M145.8,103.7c0,5-2.4,9.1-5.4,9.1
			c2.9,0,5.4,4.1,5.4,9.1c0-5,2.4-9.1,5.4-9.1C148.1,112.8,145.8,108.7,145.8,103.7z"/>
		<path id="sparkle_00000137105126019696312440000000425707676783927449_" class="st2" d="M152.3,112.8c0,2.1-1.2,3.9-2.7,3.9
			c1.5,0,2.7,1.7,2.7,3.9c0-2.1,1.2-3.9,2.7-3.9C153.6,116.7,152.3,115,152.3,112.8z"/>
		<path id="sparkle_00000065048991051615148130000012681469672928668333_" class="st2" d="M140.2,114.9c0,1.9-1.2,3.5-2.6,3.5
			c1.5,0,2.6,1.5,2.6,3.5c0-1.9,1.2-3.5,2.6-3.5C141.4,118.4,140.2,116.8,140.2,114.9z"/>
		<path id="sparkle_00000018214292654284255020000016770760607951060129_" class="st2" d="M111.8,40.8c0,5-2.4,9.1-5.4,9.1
			c2.9,0,5.4,4.1,5.4,9.1c0-5,2.4-9.1,5.4-9.1C114.1,49.9,111.8,45.8,111.8,40.8z"/>
		<path id="sparkle_00000101811118281655740870000009291371209136461990_" class="st2" d="M192.2,50.8c0,2.1-1.2,3.9-2.7,3.9
			c1.5,0,2.7,1.7,2.7,3.9c0-2.1,1.2-3.9,2.7-3.9C193.5,54.7,192.2,52.9,192.2,50.8z"/>
		<path id="sparkle_00000057123294098204907480000000059596148534962567_" class="st2" d="M156.5,38.3c0,1.9-1.2,3.5-2.6,3.5
			c1.5,0,2.6,1.5,2.6,3.5c0-1.9,1.2-3.5,2.6-3.5C157.7,41.8,156.5,40.2,156.5,38.3z"/>
	</g>
	<g id="left">
		<path class="st3" d="M31,21.8c-1.4,1.2-2.6,2.5-3.6,3.9c-1,1.4-1.9,2.8-2.5,4.2c-0.7,1.4-1.2,2.9-1.6,4.6
			c-0.4,1.7-0.6,3.3-0.6,4.7c0,1.4,0.2,2.8,0.5,4.2c0.3,1.4,0.8,2.9,1.5,4.4c0.7,1.5,1.5,2.8,2.4,4S42.4,64.4,70.4,86
			c28,21.6,42.7,32.6,44.2,33.1c1.5,0.5,3.2,0.7,5.1,0.6c1.9-0.1,3.7-0.5,5.3-1.2s3-1.5,4.3-2.5c1.3-1,2.6-2.3,4-4.1
			c1.4-1.8,2.5-3.8,3.3-6.1c0.8-2.3,1.2-4.4,1.2-6.1c0-1.8-0.5-3.6-1.3-5.6c-0.9-2-1.8-3.4-2.8-4.4c-1-1-11.4-9.1-31.2-24.3
			C82.7,50.3,72,42.3,70.4,41.7c-1.6-0.7-2.9-1-4.1-1c-1.1,0-2.2,0-3.1,0.3c-0.9,0.2-2.3,0.9-4.2,2.1c-1.9,1.2-3.4,2.6-4.4,4.1
			c-1.1,1.5-1.8,2.9-2.2,4.3s-0.6,2.8-0.5,4.3c0.1,1.5,0.4,2.8,0.8,3.9c0.5,1.1,1.2,2.1,2.1,3.1c0.9,1,9.6,7.8,26,20.4
			c16.4,12.6,25,19.1,25.9,19.4c0.8,0.3,1.5,0.3,2.2,0.1c0.6-0.2,1.1-0.8,1.6-1.5c0.4-0.8,0.4-1.6,0-2.5c-0.4-0.9-9-7.8-25.8-20.7
			C67.8,65,59.2,58.2,58.8,57.4c-0.4-0.8-0.7-1.5-0.7-2c0-0.6,0.3-1.6,0.9-3c0.6-1.5,1.6-2.7,2.8-3.6c1.3-1,2.4-1.5,3.3-1.6
			c1-0.1,1.7-0.1,2.3,0C68,47.3,78.3,55,98.3,70.4s30.4,23.4,31,24s1.2,1.6,1.6,2.7c0.4,1.1,0.5,2.3,0.4,3.7
			c-0.1,1.4-0.4,2.6-0.8,3.7c-0.4,1.1-1.1,2.2-2.1,3.5c-0.9,1.2-1.7,2.1-2.4,2.7c-0.6,0.5-1.6,1.1-2.7,1.7c-1.2,0.6-2.3,1-3.5,1.2
			c-1.1,0.1-2.2,0.1-3-0.2c-0.9-0.3-1.9-0.8-2.9-1.5c-1.1-0.7-14.3-10.9-39.9-30.5c-25.5-19.6-39-30.2-40.4-31.6
			c-1.4-1.5-2.6-3.2-3.4-5c-0.8-1.9-1.3-3.4-1.4-4.6c-0.1-1.2,0.1-2.5,0.4-4c0.3-1.5,0.7-2.7,1.2-3.7c0.5-1,1.2-2.1,2.1-3.2
			c0.9-1.1,1.9-2.2,3.1-3.1s2.3-1.6,3.5-2.2s2.4-0.9,3.7-1.2c1.4-0.3,2.7-0.3,4-0.2c1.3,0.1,3,0.7,5,1.7c2,1,13.1,9.3,33.3,24.9
			c20.2,15.6,30.7,23.5,31.4,23.7c0.7,0.2,1.4,0.1,2.1-0.3c0.7-0.4,1.1-1,1.4-1.9c0.3-0.9,0.2-1.7-0.1-2.3
			c-0.4-0.7-11.1-9.1-32.2-25.2C66.6,26.9,55,18.4,53,17.6c-2-0.8-4.2-1.2-6.6-1.4c-2.4-0.1-4.5,0.1-6.2,0.5
			c-1.7,0.5-3.3,1.1-4.9,1.9C33.8,19.5,32.4,20.6,31,21.8z"/>
		<path class="st4" d="M27.1,30.6c0.4-0.1,0.7,0,0.9,0.4s0,1.3-0.6,2.8c-0.6,1.5-0.9,2.7-1,3.6c-0.1,0.9-0.2,1.4-0.5,1.5
			c-0.2,0.1-0.5,0-0.8-0.3c-0.3-0.3-0.5-0.7-0.5-1.1s0.3-1.7,0.9-3.7C26.2,31.8,26.7,30.7,27.1,30.6z"/>
		<path class="st4" d="M25.7,42.1c0.4,0,0.8,0.5,1.1,1.5c0.3,1.1,0.8,2.2,1.4,3.4c0.7,1.2,1.5,2.4,2.4,3.5c1,1.1,2,2,3,2.7
			c1.1,0.7,1.6,1.3,1.7,1.8c0,0.2,0,0.4,0.1,0.7c-0.2,0-0.4,0-0.7,0.1c-0.4,0-0.9-0.1-1.3-0.4c-0.5-0.3-1.5-1.3-3.2-3.1
			c-1.7-1.7-2.9-3.4-3.7-5.1c-0.8-1.7-1.3-3-1.3-3.8C25.1,42.6,25.3,42.2,25.7,42.1z"/>
		<path class="st4" d="M55.5,50c0.4-0.2,0.7-0.1,0.9,0.2c0.3,0.3,0.2,0.9-0.1,1.6c-0.3,0.7-0.5,1.4-0.5,2c0,0.6-0.1,1-0.5,1.2
			c-0.3,0.3-0.6,0.3-0.9,0.1c-0.3-0.2-0.5-0.5-0.5-0.9c0-0.4,0.2-1.1,0.5-2.2C54.8,50.8,55.2,50.2,55.5,50z"/>
		<path class="st4" d="M54.9,56.2c0.4,0,1,0.6,1.6,1.9c0.6,1.3,1.5,2.4,2.6,3.2c1.1,0.8,1.7,1.5,1.9,1.9c0.1,0.2,0.2,0.5,0.2,0.7
			c-0.3,0-0.5,0.1-0.8,0.1c-0.5,0.1-1.4-0.4-2.6-1.4c-1.2-1-2.1-2.1-2.7-3.2c-0.6-1.1-0.9-1.9-0.9-2.5
			C54.3,56.6,54.5,56.3,54.9,56.2z"/>
		<path class="st4" d="M127.1,88.9c0.3-0.1,1.3,0.5,2.8,1.7c1.5,1.2,2.6,2.5,3.4,3.7c0.7,1.2,1.1,2.1,1.1,2.6c0,0.6-0.2,0.9-0.6,0.9
			c-0.4,0-0.9-0.5-1.5-1.7c-0.6-1.2-1.6-2.4-3.1-3.7s-2.3-2.1-2.4-2.6C126.7,89.3,126.8,89,127.1,88.9z"/>
		<path class="st4" d="M133.9,99.1c0.4,0,0.7,0.1,0.9,0.4c0.2,0.3,0.1,1.1-0.2,2.5c-0.3,1.4-0.6,2.2-1,2.4c-0.4,0.2-0.7,0.1-0.9-0.2
			c-0.3-0.3-0.2-0.9,0.1-1.7c0.3-0.8,0.5-1.6,0.5-2.2C133.2,99.5,133.5,99.2,133.9,99.1z"/>
	</g>
	<g id="right">
		<path class="st3" d="M118.5,108.3c0,1.9,0.2,3.6,0.6,5.3c0.4,1.7,0.9,3.2,1.5,4.6c0.6,1.4,1.4,2.8,2.5,4.2c1,1.4,2.1,2.6,3.1,3.5
			c1.1,0.9,2.2,1.7,3.5,2.4c1.3,0.7,2.7,1.3,4.3,1.7c1.6,0.4,3.1,0.7,4.6,0.8c1.5,0.1,19.6-3.4,54.2-10.4c34.6-7,52.6-10.9,54-11.7
			c1.4-0.8,2.6-1.9,3.8-3.4c1.2-1.5,2-3.1,2.6-4.7s0.9-3.3,1-4.9c0.1-1.6-0.1-3.5-0.5-5.7c-0.4-2.2-1.3-4.4-2.5-6.5
			c-1.2-2.1-2.5-3.8-3.8-4.9c-1.3-1.1-3-2-5.1-2.7c-2.1-0.6-3.8-0.9-5.1-0.8c-1.4,0.1-14.3,2.7-38.7,7.6c-24.4,5-37.4,7.8-39,8.6
			c-1.5,0.8-2.7,1.6-3.5,2.4c-0.8,0.8-1.4,1.7-1.8,2.5c-0.4,0.8-0.8,2.3-1.2,4.6c-0.3,2.2-0.3,4.2,0.2,6c0.4,1.8,1,3.3,1.8,4.5
			s1.7,2.3,3,3.2c1.2,1,2.4,1.6,3.5,1.9c1.1,0.3,2.3,0.5,3.7,0.5c1.4,0,12.2-2.1,32.5-6.2c20.3-4.1,30.8-6.4,31.6-6.8
			c0.8-0.4,1.3-0.9,1.5-1.6c0.2-0.6,0.2-1.4-0.1-2.2c-0.3-0.8-1-1.4-1.9-1.7c-0.9-0.3-11.8,1.7-32.5,6c-20.7,4.3-31.6,6.3-32.4,6.1
			c-0.9-0.2-1.5-0.5-2-0.8c-0.4-0.4-1-1.2-1.7-2.7c-0.7-1.4-1-2.9-0.9-4.5c0.1-1.6,0.4-2.8,0.9-3.6c0.5-0.8,1-1.4,1.5-1.7
			c0.5-0.3,13.1-3,37.8-8.1c24.7-5.1,37.6-7.6,38.5-7.7c0.9,0,2,0.1,3,0.6c1.1,0.4,2.1,1.1,3.1,2.1c1,1,1.7,2,2.2,3
			c0.5,1,1,2.3,1.3,3.8c0.3,1.5,0.5,2.7,0.5,3.5c0,0.8-0.2,1.9-0.5,3.2c-0.3,1.3-0.8,2.4-1.4,3.4c-0.6,1-1.4,1.7-2.1,2.2
			c-0.8,0.5-1.8,0.9-3.1,1.2c-1.3,0.3-17.6,3.7-49.2,10.1c-31.5,6.4-48.3,9.7-50.4,9.8c-2.1,0.1-4.1-0.1-6-0.7c-2-0.6-3.4-1.3-4.4-2
			s-1.9-1.7-2.8-2.9c-0.9-1.2-1.6-2.3-2-3.4c-0.4-1-0.8-2.3-1.1-3.7c-0.3-1.4-0.4-2.9-0.3-4.4c0.1-1.5,0.3-2.8,0.7-4
			s0.9-2.4,1.6-3.6c0.7-1.2,1.5-2.2,2.5-3.1c1-0.9,2.5-1.8,4.5-2.7c2.1-0.9,15.6-3.8,40.7-8.8c25-5,37.9-7.7,38.5-8.2
			c0.6-0.5,1-1,1.2-1.8c0.2-0.7,0-1.5-0.5-2.3c-0.5-0.8-1.1-1.3-1.8-1.4c-0.7-0.2-14.1,2.4-40.2,7.8c-26.1,5.4-40,8.6-42,9.6
			c-1.9,1-3.7,2.4-5.4,4.1c-1.7,1.7-2.9,3.4-3.7,5s-1.4,3.2-1.7,4.9C118.7,104.6,118.5,106.4,118.5,108.3z"/>
		<path class="st4" d="M155.6,101.4c0.2,0.4,0.5,0.5,0.8,0.4c0.3-0.1,0.5-0.6,0.5-1.3c0-0.8,0.1-1.4,0.4-1.8
			c0.2-0.4,0.3-0.8,0.1-1.2c-0.2-0.4-0.4-0.6-0.7-0.6c-0.3,0-0.6,0.2-0.7,0.4c-0.2,0.3-0.3,1-0.5,2
			C155.4,100.3,155.4,101,155.6,101.4z"/>
		<path class="st4" d="M157.6,96.1c0.3,0.3,1,0.1,2.1-0.7c1-0.7,2.2-1.1,3.4-1.2c1.2-0.1,2-0.2,2.3-0.5c0.2-0.1,0.3-0.3,0.5-0.4
			c-0.2-0.2-0.4-0.3-0.6-0.5c-0.4-0.3-1.3-0.4-2.6-0.3c-1.4,0.2-2.5,0.5-3.4,1.1c-0.9,0.6-1.5,1-1.7,1.5
			C157.2,95.5,157.3,95.8,157.6,96.1z"/>
		<path class="st4" d="M232.2,79.6c0.2-0.3,1.2-0.6,3.1-0.9c1.9-0.3,3.6-0.4,5-0.1c1.4,0.2,2.3,0.5,2.7,0.9c0.4,0.4,0.5,0.7,0.3,1.1
			c-0.3,0.4-1,0.4-2.3,0c-1.3-0.4-2.9-0.4-4.8-0.1c-1.9,0.3-3.1,0.4-3.6,0.1C232.2,80.2,232.1,79.9,232.2,79.6z"/>
		<path class="st4" d="M244.4,81.2c0.3-0.4,0.5-0.5,0.9-0.4s0.9,0.7,1.8,1.8c0.8,1.1,1.2,1.9,1.1,2.3c-0.1,0.4-0.3,0.6-0.8,0.6
			c-0.4,0-0.8-0.4-1.3-1.2c-0.4-0.8-0.9-1.4-1.4-1.8C244.3,82,244.1,81.6,244.4,81.2z"/>
	</g>
</g>
<g id="B.Silks">
	<g id="Hey_there_x2C__looks_like_you_x2019_re_trying_to_install_your_shiny._You_should_try_pointing_this_the_other_w">
		<g>
			<path d="M201.7,47c-0.1-0.1-0.1-0.1-0.1-0.2c0-0.2,0.1-0.3,0.3-0.3c0.8,0,1.4-0.1,1.9,0c0.6,0,1,0.1,1.2,0.1
				c0.2,0,0.4,0.2,0.4,0.4c0,0.1,0,0.2-0.1,0.2c-0.1,0.1-0.2,0.1-0.3,0.1c-0.2,0-0.3,0-0.5-0.1c-0.2,0-0.3,0-0.5-0.1
				c0.1,0.8,0.2,1.4,0.2,1.9c0,0.1,0,0.3,0,0.5c0,0.2,0,0.4,0,0.6c0,0.2,0,0.4,0.1,0.6c0.4,0.1,0.7,0.2,0.8,0.3
				c0.1,0,0.2,0.1,0.3,0.2c0.1,0.1,0.1,0.2,0.1,0.3c0,0.1,0,0.2-0.1,0.2c-0.1,0-0.2,0.1-0.3,0c-0.2,0-0.4-0.1-0.8-0.2
				c-0.3-0.1-0.6-0.2-0.8-0.2c-0.1,0-0.4-0.1-0.6-0.2c-0.3-0.1-0.5-0.1-0.6-0.1c-0.1,0-0.2-0.1-0.3-0.1c-0.1-0.1-0.1-0.2-0.1-0.3
				c0-0.1,0-0.2,0.1-0.2c0.1,0,0.2-0.1,0.3,0c0.4,0.1,0.8,0.2,1.2,0.3c0-0.2,0-0.4-0.1-0.6c0-0.2,0-0.3,0-0.6c0-0.2,0-0.4,0-0.6
				c0-0.6-0.1-1.2-0.2-1.8c-0.2,0-0.4,0-0.6,0c-0.2,0-0.5,0-0.6,0C201.8,47.1,201.8,47,201.7,47z"/>
			<path d="M198,47.7c-0.1-0.1-0.1-0.1-0.1-0.2c0-0.1,0.1-0.2,0.2-0.2c0.1,0,0.3,0,0.5,0c0,0,0.2,0,0.5,0.1c0-0.1,0-0.1,0-0.2
				c0-0.1,0-0.1,0-0.2c0-0.1,0-0.2,0-0.2c0-0.3,0.1-0.4,0.4-0.4c0.1,0,0.2,0,0.3,0.1c0.1,0.1,0.1,0.1,0.1,0.2c0,0.1,0,0.2,0,0.3
				c0,0.2,0,0.3,0,0.4c0.3,0,0.5,0,0.8,0c0.1,0,0.2,0,0.3,0.1c0.1,0.1,0.1,0.1,0.1,0.2c0,0.2-0.1,0.3-0.3,0.3c-0.4,0-0.7,0-0.8-0.1
				c0,0.6,0,1.1,0,1.7c0,0.1,0,0.2,0,0.3c0,0.2,0,0.3,0,0.3c0,0.1,0,0.1-0.1,0.2c-0.1,0-0.2,0-0.3,0c-0.3-0.1-0.4-0.3-0.4-0.7
				c0,0,0-0.1,0-0.1c0,0,0-0.1,0-0.1c0-0.6,0-1.1,0-1.7c-0.3-0.1-0.5-0.1-0.5-0.1c-0.1,0-0.1,0-0.2,0c-0.1,0-0.1,0-0.2,0
				C198.2,47.8,198.1,47.8,198,47.7z"/>
			<path d="M193.8,46.7c0-0.3-0.1-0.6-0.1-0.8c0-0.1,0.1-0.2,0.4-0.2c0.2,0,0.4,0.1,0.4,0.2c0,0.2,0,0.5,0.1,0.8
				c0,0.3,0.1,0.6,0.1,0.9c0,0.2,0,0.5,0.1,0.9c0.1,0.4,0.1,0.7,0.1,1c0,0.2-0.1,0.3-0.4,0.2c-0.2,0-0.4-0.1-0.4-0.3
				c0-0.3-0.1-0.5-0.1-0.6c0-0.4-0.1-0.9-0.1-1.3C193.8,47.3,193.8,47,193.8,46.7z"/>
			<path d="M190.1,48.9c-0.3-0.3-0.5-0.6-0.5-1c0-0.3,0.1-0.6,0.2-0.8c0.2-0.3,0.6-0.4,1.1-0.4c0.6,0,1.1,0.2,1.5,0.6
				c0.3,0.3,0.5,0.6,0.5,1c0,0.4-0.2,0.7-0.5,0.9c-0.3,0.2-0.7,0.3-1.1,0.2C190.8,49.5,190.4,49.3,190.1,48.9z M190.3,48.1
				c0,0.2,0.2,0.4,0.4,0.6c0.2,0.1,0.4,0.2,0.7,0.2c0.2,0,0.4,0,0.6-0.1c0.2-0.1,0.3-0.3,0.3-0.5c0-0.2-0.1-0.5-0.3-0.6
				c-0.2-0.2-0.5-0.4-0.9-0.4C190.4,47.2,190.2,47.5,190.3,48.1z"/>
			<path d="M185.9,48.7c-0.3-0.3-0.5-0.6-0.5-0.9c0-0.3,0.1-0.6,0.3-0.8c0.2-0.3,0.6-0.4,1.1-0.4c0.6,0,1.1,0.2,1.5,0.5
				c0.3,0.3,0.5,0.6,0.5,1c0,0.4-0.2,0.7-0.5,0.9c-0.3,0.2-0.7,0.3-1.1,0.3C186.7,49.2,186.3,49,185.9,48.7z M186.1,47.9
				c0,0.2,0.2,0.4,0.4,0.6c0.2,0.1,0.4,0.2,0.7,0.2c0.2,0,0.4,0,0.6-0.1c0.2-0.1,0.3-0.3,0.3-0.5c0-0.2-0.1-0.4-0.3-0.6
				c-0.2-0.2-0.5-0.3-0.9-0.4C186.3,47,186.1,47.3,186.1,47.9z"/>
			<path d="M181,49c-0.1-0.1-0.1-0.1-0.1-0.2c0-0.1,0.2-0.3,0.6-0.7c0.3-0.2,0.5-0.5,0.8-0.7c-0.5-0.3-0.9-0.5-1.2-0.7
				c-0.1-0.1-0.1-0.1-0.1-0.2c0-0.1,0-0.1,0.1-0.2c0.1,0,0.2-0.1,0.3-0.1c0.1,0,0.2,0,0.3,0.1c0.3,0.2,0.6,0.4,0.9,0.5
				c0.3,0.2,0.7,0.4,1,0.6c0-0.3,0-0.5-0.1-0.8c0-0.2,0-0.5-0.1-0.7c0-0.1,0-0.1,0-0.2c0-0.1,0-0.2,0-0.2c0-0.1,0-0.1,0.1-0.1
				c0.1,0,0.2-0.1,0.3,0c0.1,0,0.2,0,0.3,0.1c0.1,0,0.1,0.1,0.1,0.2c0,0.1,0,0.1,0,0.2c0,0.1,0,0.2,0,0.2c0,0.2,0,0.5,0.1,0.8
				c0,0.3,0,0.6,0.1,0.8c0,0.1,0,0.3,0.1,0.6c0,0.3,0.1,0.5,0.1,0.6c0,0.2-0.1,0.3-0.4,0.3c-0.1,0-0.2,0-0.3-0.1
				c-0.1,0-0.1-0.1-0.1-0.2c0-0.2,0-0.5-0.1-0.8c-0.3-0.1-0.6-0.3-0.7-0.3c-0.2,0.2-0.4,0.4-0.7,0.6c-0.3,0.2-0.5,0.4-0.6,0.6
				c-0.1,0.1-0.2,0.2-0.3,0.2C181.2,49,181.1,49,181,49z"/>
			<path d="M177.3,46.9c-0.1,0-0.1-0.1-0.1-0.2c0,0,0-0.1,0-0.2c0-0.1,0-0.2,0-0.2c0-0.1,0-0.1,0.1-0.2c0.1,0,0.2-0.1,0.3-0.1
				c0.1,0,0.2,0,0.3,0c0.1,0,0.4,0.1,0.7,0.2c0.3,0.1,0.6,0.1,0.7,0.2c0.5,0.1,0.8,0.4,0.8,0.7c0,0.2-0.1,0.3-0.3,0.4
				c-0.1,0.1-0.4,0.1-0.7,0.2c-0.1,0-0.3,0-0.4,0.1c-0.5,0.1-0.7,0.2-0.7,0.5c0,0.1,0.1,0.2,0.4,0.2c0.2,0,0.4,0,0.6,0
				c0.1,0,0.3,0,0.4,0c0.2,0,0.4-0.1,0.4-0.1c0.1-0.1,0.2-0.1,0.3-0.1c0.1,0,0.2,0,0.3,0.1c0.1,0.1,0.1,0.1,0.1,0.2
				c0,0.2-0.2,0.3-0.6,0.4c-0.3,0.1-0.6,0.1-1,0.1c-0.5,0-0.8,0-1.1-0.2c-0.4-0.1-0.6-0.4-0.6-0.6c0-0.3,0.2-0.6,0.6-0.8
				c0.3-0.1,0.7-0.2,1.3-0.3c0.1,0,0.1,0,0.2,0c0-0.2-0.2-0.3-0.6-0.4c-0.4-0.1-0.7-0.1-0.9-0.2c0,0.1-0.1,0.2-0.1,0.3
				c-0.1,0.1-0.2,0.1-0.3,0.1C177.5,47,177.4,47,177.3,46.9z"/>
			<path d="M173,46c0-0.3,0-0.7,0-0.9c0-0.2,0.1-0.2,0.4-0.2c0.2,0,0.4,0.1,0.4,0.3c0,0.3,0,0.6,0,0.9c0,0.3,0,0.7,0,0.9
				c0,0.2,0,0.5,0.1,1c0,0.4,0.1,0.8,0.1,1c0,0.2-0.1,0.3-0.4,0.3c-0.2,0-0.4-0.1-0.4-0.3c0-0.3,0-0.5,0-0.7c0-0.5-0.1-0.9-0.1-1.4
				C173,46.7,173,46.4,173,46z"/>
			<path d="M170.8,45.6c-0.1-0.1-0.1-0.1-0.1-0.2c0-0.1,0-0.2,0.1-0.2c0.1-0.1,0.2-0.1,0.3-0.1c0.1,0,0.2,0,0.3,0.1
				c0.1,0.1,0.1,0.1,0.1,0.2c0,0.1,0,0.2-0.1,0.2c-0.1,0.1-0.2,0.1-0.3,0.1C171,45.7,170.9,45.6,170.8,45.6z M170.9,47.3
				c0-0.3-0.1-0.5-0.1-0.7c0-0.1,0-0.2,0.1-0.2c0.1-0.1,0.2-0.1,0.3-0.1c0.1,0,0.2,0,0.3,0.1c0.1,0.1,0.1,0.1,0.1,0.2
				c0,0.2,0,0.4,0.1,0.6c0,0.3,0.1,0.5,0.1,0.7c0,0.1,0,0.3,0,0.5c0,0.2,0,0.4,0,0.5c0,0.1,0,0.2-0.1,0.2c-0.1,0.1-0.2,0.1-0.3,0.1
				c-0.1,0-0.2,0-0.3-0.1c-0.1-0.1-0.1-0.1-0.1-0.2c0-0.1,0-0.3,0-0.5c0-0.2,0-0.4,0-0.5C171,47.8,171,47.5,170.9,47.3z"/>
			<path d="M166.2,49.6c-0.1-0.1-0.1-0.1-0.1-0.2c0-0.1,0.2-0.4,0.6-0.9c0.3-0.3,0.5-0.6,0.8-1c-0.5-0.3-0.9-0.6-1.2-0.9
				c-0.1-0.1-0.1-0.1-0.1-0.2c0-0.1,0-0.2,0.1-0.2c0.1-0.1,0.2-0.1,0.3-0.1c0.1,0,0.2,0,0.3,0.1c0.3,0.2,0.6,0.5,0.9,0.7
				c0.3,0.2,0.7,0.5,1,0.7c0-0.3,0-0.7,0-1c0-0.3,0-0.6,0-0.9c0-0.1,0-0.2,0-0.3c0-0.1,0-0.2,0-0.3c0-0.1,0-0.1,0.1-0.2
				c0.1,0,0.2-0.1,0.3-0.1c0.1,0,0.2,0,0.3,0.1c0.1,0.1,0.1,0.1,0.1,0.2c0,0.1,0,0.2,0,0.3c0,0.1,0,0.2,0,0.3c0,0.3,0,0.6,0,1
				c0,0.4,0,0.7,0,1c0,0.2,0,0.4,0.1,0.7c0,0.3,0.1,0.6,0.1,0.7c0,0.3-0.1,0.4-0.4,0.4c-0.1,0-0.2,0-0.3-0.1
				c-0.1-0.1-0.1-0.1-0.1-0.2c0-0.3,0-0.6-0.1-0.9c-0.3-0.2-0.5-0.3-0.7-0.4c-0.2,0.3-0.4,0.5-0.7,0.8c-0.3,0.3-0.5,0.6-0.6,0.8
				c-0.1,0.1-0.2,0.2-0.3,0.2C166.4,49.7,166.3,49.7,166.2,49.6z"/>
			<path d="M162.5,49.8c-0.5-0.1-0.7-0.4-0.7-0.6c0-0.1,0-0.2,0.1-0.2c0.1-0.1,0.1-0.1,0.2-0.1c0.1,0,0.2,0,0.3,0.2
				c0.1,0.1,0.3,0.2,0.6,0.3c0.2,0,0.4,0.1,0.6,0c0.3,0,0.5-0.1,0.7-0.2c0.2-0.1,0.4-0.3,0.5-0.4c-0.5-0.2-1-0.3-1.5-0.5
				c-0.4-0.1-0.7-0.3-0.8-0.3c-0.3-0.2-0.4-0.4-0.4-0.6c0-0.3,0.2-0.6,0.5-0.7c0.3-0.1,0.6-0.2,1-0.2c0.6,0,1.1,0.2,1.4,0.6
				c0.3,0.4,0.5,0.8,0.5,1.4c0,0.5-0.2,0.9-0.6,1.2c-0.4,0.3-0.8,0.4-1.4,0.5C163.3,50,162.9,49.9,162.5,49.8z M162.8,47.2
				c0.2,0.1,0.5,0.3,1,0.5c0.4,0.1,0.8,0.3,1.2,0.4c-0.1-0.4-0.3-0.7-0.5-0.9c-0.2-0.2-0.5-0.3-0.8-0.3
				C163.3,46.9,163,47,162.8,47.2z"/>
			<path d="M155.4,46.8c0-0.1,0-0.2,0.1-0.3c0.1-0.1,0.2-0.1,0.3-0.1c0.1,0,0.2,0.1,0.3,0.2c0.2,0.3,0.4,0.7,0.6,1.2
				c0.2,0.4,0.4,0.9,0.6,1.3c0.5-1.1,1-2,1.4-2.6c0.1-0.1,0.2-0.1,0.3-0.1c0.1,0,0.2,0,0.3,0.1c0.1,0.1,0.1,0.2,0.1,0.3
				c0,0.1,0,0.2-0.1,0.3c-0.1,0.1-0.1,0.2-0.2,0.3c-0.5,0.9-0.9,1.7-1.4,2.7c0.6,1.2,0.8,1.8,0.8,2.1c0,0.1,0,0.2-0.1,0.3
				c-0.1,0.1-0.2,0.1-0.3,0.1c-0.2,0-0.3-0.1-0.3-0.2c-0.1-0.2-0.2-0.5-0.3-0.7c-0.2-0.4-0.4-1-0.8-1.7c-0.4-0.9-0.9-1.9-1.3-2.8
				C155.4,46.9,155.4,46.9,155.4,46.8z"/>
			<path d="M152,50.4c-0.3-0.4-0.4-0.9-0.4-1.6c0-0.6,0.1-1.1,0.3-1.5c0.3-0.5,0.7-0.8,1.2-0.8c0.6,0,1.1,0.3,1.5,0.8
				c0.3,0.5,0.5,1,0.4,1.6c0,0.6-0.2,1.1-0.5,1.5c-0.3,0.4-0.7,0.6-1.1,0.6C152.7,51,152.3,50.8,152,50.4z M152.2,49
				c0,0.4,0.1,0.7,0.3,0.9c0.2,0.2,0.4,0.3,0.7,0.3c0.2,0,0.4-0.1,0.6-0.3c0.2-0.2,0.3-0.5,0.3-0.9c0-0.4-0.1-0.7-0.2-1
				c-0.2-0.4-0.5-0.6-0.9-0.5C152.5,47.3,152.2,47.9,152.2,49z"/>
			<path d="M147.4,46.9c0-0.1,0-0.2,0.1-0.3c0.1-0.1,0.2-0.1,0.3-0.1c0.2,0,0.3,0.1,0.4,0.4c0,0.5,0.1,1.1,0.1,1.7
				c0,0.3,0,0.6,0,0.9c0,0.3,0,0.6,0,0.9c0.4,0.1,0.7,0.1,1.1,0.1c0.1,0,0.2,0,0.2-0.1c0.1,0,0.2-0.1,0.3-0.1
				c0.1-0.2,0.1-0.5,0.1-0.8c0-0.3,0-0.8,0-1.3c0-0.2,0-0.4-0.1-0.7c0-0.3-0.1-0.5-0.1-0.6c0-0.1,0-0.2,0.1-0.3
				c0.1-0.1,0.2-0.1,0.3-0.1c0.2,0,0.3,0.1,0.4,0.4c0.1,0.5,0.1,1,0.1,1.4c0,0.6-0.1,1.3-0.2,2c0,0.4-0.2,0.6-0.4,0.8
				c-0.2,0.2-0.5,0.3-0.8,0.3c-0.4,0-0.8,0-1.1-0.2c-0.1,0.3-0.2,0.4-0.4,0.5c-0.1,0-0.2,0-0.3-0.1c-0.1-0.1-0.1-0.2-0.1-0.3
				c0-0.1,0-0.2,0-0.3c0-0.1,0-0.2,0-0.3c0-0.2,0-0.5,0-1c0-0.4,0-0.8,0-1C147.4,48,147.4,47.5,147.4,46.9z"/>
			<path d="M146.2,45.8c-0.1-0.7-0.2-1.2-0.2-1.5c0-0.1,0-0.2,0.1-0.3c0.1-0.1,0.1-0.1,0.2-0.1c0.2,0,0.3,0.1,0.3,0.4
				c0,0.3,0.1,0.6,0.1,0.8c0.1,0.3,0.1,0.6,0.1,0.7c0,0.3-0.1,0.4-0.3,0.4C146.3,46.3,146.2,46.1,146.2,45.8z"/>
			<path d="M142.1,47.7c0-0.4,0.1-0.7,0.2-0.9c0.1-0.2,0.3-0.3,0.5-0.3c0.6,0,1.1,0.3,1.6,0.9c0-0.5,0.1-0.8,0.4-0.8
				c0.2,0,0.3,0.2,0.3,0.5c0,0.1,0,0.3,0,0.5c0,0.2,0,0.4,0,0.5c0,1.1,0,2.2,0,3.3c0,0.3-0.1,0.5-0.3,0.5c-0.3,0-0.4-0.1-0.4-0.4
				c0-0.9,0-1.7,0-2.6c-0.1-0.4-0.3-0.7-0.6-0.9c-0.2-0.2-0.6-0.4-1-0.4c0,0.1,0,0.3,0,0.4c0,0.2,0,0.3,0,0.3c0,0.3-0.1,0.5-0.3,0.5
				c-0.2,0-0.4-0.2-0.4-0.6C142.1,48,142.1,47.9,142.1,47.7z"/>
			<path d="M138.3,51.8c-0.5-0.2-0.7-0.6-0.7-0.9c0-0.1,0-0.2,0.1-0.3c0.1-0.1,0.2-0.1,0.2-0.1c0.1,0,0.2,0.1,0.3,0.3
				c0.1,0.2,0.3,0.3,0.6,0.4c0.2,0.1,0.4,0.1,0.6,0.1c0.3,0,0.5-0.1,0.8-0.2c0.2-0.2,0.4-0.4,0.5-0.6c-0.5-0.3-1-0.6-1.5-0.8
				c-0.4-0.2-0.7-0.4-0.8-0.6c-0.3-0.3-0.4-0.6-0.4-0.9c0-0.5,0.2-0.9,0.5-1.1c0.3-0.2,0.6-0.3,1-0.3c0.6,0,1,0.3,1.4,1
				c0.3,0.6,0.5,1.3,0.5,2.2c0,0.7-0.2,1.3-0.6,1.7c-0.4,0.4-0.8,0.6-1.4,0.6C139.1,52.1,138.7,52,138.3,51.8z M138.7,47.9
				c0.2,0.2,0.5,0.5,1,0.8c0.4,0.2,0.8,0.5,1.2,0.7c-0.1-0.6-0.2-1.1-0.4-1.4c-0.2-0.3-0.5-0.5-0.8-0.5
				C139.2,47.5,138.9,47.6,138.7,47.9z"/>
			<path d="M131.8,47.4c-0.1-0.1-0.1-0.2-0.1-0.4c0-0.3,0.1-0.5,0.2-0.5c0.1,0,0.3-0.1,0.5,0c0,0,0.2,0,0.5,0.1c0-0.1,0-0.2,0-0.3
				c0-0.1,0-0.2,0-0.3c0-0.2,0-0.4,0-0.5c0-0.6,0.2-0.8,0.4-0.8c0.1,0,0.2,0.1,0.3,0.2c0.1,0.1,0.1,0.2,0.1,0.4c0,0.1,0,0.4,0,0.7
				c0,0.3,0,0.6,0,0.8c0.3,0,0.5-0.1,0.8-0.1c0.1,0,0.2,0.1,0.3,0.2c0.1,0.1,0.1,0.2,0.1,0.4c0,0.3-0.1,0.5-0.3,0.5
				c-0.4,0.1-0.7,0.1-0.9,0.1c0,1.1-0.1,2.1-0.1,3.1c0,0.1,0,0.3,0,0.6c0,0.3,0,0.5,0,0.6c0,0.1,0,0.2-0.1,0.3
				c-0.1,0.1-0.2,0.1-0.3,0.1c-0.3,0-0.4-0.4-0.4-1.1c0-0.1,0-0.2,0-0.3c0-0.1,0-0.2,0-0.2c0-1,0.1-2.1,0.1-3.2
				c-0.3-0.1-0.5-0.1-0.5-0.1c-0.1,0-0.1,0-0.2,0c-0.1,0-0.1,0-0.2,0C132,47.6,131.9,47.5,131.8,47.4z"/>
			<path d="M128,47.7c0-0.5,0.1-0.8,0.2-1c0.1-0.2,0.3-0.3,0.5-0.3c0.6,0,1.1,0.4,1.6,1.1c0-0.6,0.1-0.9,0.4-0.9
				c0.2,0,0.3,0.2,0.3,0.6c0,0.1,0,0.3,0,0.6c0,0.2,0,0.4,0,0.6c0,1.3,0,2.6-0.1,3.8c0,0.4-0.1,0.5-0.3,0.5c-0.3,0-0.4-0.2-0.4-0.5
				c0-1,0-2,0.1-3c-0.1-0.5-0.3-0.8-0.5-1.1c-0.2-0.3-0.6-0.4-1-0.5c0,0.2,0,0.3,0,0.5c0,0.2,0,0.3,0,0.4c0,0.4-0.1,0.6-0.3,0.5
				c-0.2,0-0.4-0.2-0.4-0.7C128,48.1,128,47.9,128,47.7z"/>
			<path d="M123.8,46.8c0-0.2,0-0.3,0.1-0.4c0.1-0.1,0.2-0.2,0.3-0.2c0.1,0,0.2,0.1,0.3,0.3c0.2,0.5,0.4,1.1,0.6,1.8
				c0.2,0.7,0.4,1.3,0.5,1.9c0.5-1.6,1-2.9,1.5-3.7c0.1-0.1,0.2-0.2,0.3-0.2c0.1,0,0.2,0.1,0.3,0.2c0.1,0.1,0.1,0.3,0.1,0.4
				c0,0.1,0,0.3-0.1,0.4c-0.1,0.1-0.1,0.3-0.2,0.4c-0.5,1.3-1,2.6-1.5,3.8c0.5,1.7,0.8,2.7,0.8,3.1c0,0.1,0,0.3-0.1,0.4
				c-0.1,0.1-0.2,0.1-0.3,0.1c-0.2,0-0.3-0.1-0.3-0.4c-0.1-0.3-0.2-0.7-0.2-1c-0.2-0.6-0.4-1.5-0.7-2.5c-0.4-1.4-0.8-2.8-1.2-4.2
				C123.8,47,123.8,46.9,123.8,46.8z"/>
			<path d="M122.1,44.7c-0.1-0.1-0.1-0.3-0.1-0.5c0-0.2,0.1-0.3,0.1-0.5c0.1-0.1,0.2-0.2,0.3-0.2c0.1,0,0.2,0.1,0.3,0.2
				c0.1,0.1,0.1,0.3,0.1,0.5c0,0.2-0.1,0.3-0.1,0.5c-0.1,0.1-0.2,0.2-0.3,0.2C122.3,44.9,122.2,44.8,122.1,44.7z M122.1,48.2
				c0-0.5,0-1,0-1.3c0-0.2,0-0.3,0.1-0.4c0.1-0.1,0.2-0.2,0.3-0.1c0.1,0,0.2,0.1,0.3,0.2c0.1,0.1,0.1,0.3,0.1,0.4c0,0.4,0,0.8,0,1.3
				c0,0.5,0,1,0,1.3c0,0.2,0,0.6,0,1c0,0.4,0,0.8,0,1c0,0.2,0,0.3-0.1,0.4c-0.1,0.1-0.2,0.1-0.3,0.1c-0.1,0-0.2-0.1-0.3-0.2
				c-0.1-0.1-0.1-0.2-0.1-0.4c0-0.2,0-0.5,0-1c0-0.4,0-0.8,0-1C122.1,49.2,122.1,48.7,122.1,48.2z"/>
			<path d="M117.5,51.9c-0.1-0.1-0.1-0.2-0.1-0.4c0-0.3,0-0.7,0.1-1.1c0.1-0.5,0.1-0.9,0.1-1.2c0-0.2,0-0.3,0-0.5c0-0.2,0-0.4,0-0.6
				c0-0.7,0.1-1.2,0.2-1.5c0.2-0.5,0.5-0.8,0.9-0.7c0.5,0,0.9,0.5,1.3,1.4c0-0.2,0-0.4,0-0.7c0-0.5,0.2-0.7,0.4-0.7
				c0.1,0,0.2,0.1,0.3,0.2c0.1,0.1,0.1,0.2,0.1,0.4c0,0.1,0,0.3,0,0.5c0,0.2,0,0.4,0,0.5c0,0.4,0,0.9,0,1.6c0,0.7,0,1.2,0,1.6
				c0,0.1,0,0.3,0,0.5c0,0.2,0,0.4,0,0.5c0,0.2,0,0.3-0.1,0.4c-0.1,0.1-0.2,0.1-0.3,0.1c-0.1,0-0.2-0.1-0.3-0.2
				c-0.1-0.1-0.1-0.2-0.1-0.4c0-0.1,0-0.3,0-0.5c0-0.2,0-0.4,0-0.5c0-0.2,0-0.3,0-0.5c0-0.2,0-0.4,0-0.5c-0.1-0.7-0.3-1.3-0.5-1.7
				c-0.2-0.5-0.5-0.8-0.8-0.8c-0.2,0-0.3,0.4-0.3,1.2c0,0.1,0,0.3,0,0.5c0,0.2,0,0.4,0,0.5c0,0.4,0,0.8-0.1,1.2
				c0,0.4-0.1,0.8-0.1,1.2c0,0.3-0.2,0.5-0.4,0.5C117.7,52.1,117.6,52,117.5,51.9z"/>
			<path d="M113.5,47.9c0-0.4-0.1-0.8,0-1c0-0.4,0.2-0.6,0.4-0.6c0.1-0.2,0.2-0.3,0.4-0.4c0.2-0.1,0.4-0.1,0.6-0.1
				c0.7,0.1,1.3,0.4,1.6,1.1c0.4,0.6,0.6,1.5,0.5,2.4c0,0.7-0.2,1.3-0.5,1.7c-0.3,0.4-0.7,0.6-1.2,0.5c-0.2,0-0.5-0.1-0.6-0.3
				c-0.2-0.2-0.3-0.5-0.5-0.8c0,0.9,0,1.5,0.1,2c0.2,0.7,0.5,1,1,1.1c0.3,0,0.5,0,0.7,0c0.2,0,0.4,0,0.5,0c0.2,0,0.3,0.2,0.3,0.5
				c0,0.3-0.2,0.4-0.5,0.5c-0.2,0-0.5,0-0.9,0c-0.6-0.1-1-0.3-1.3-0.7c-0.2-0.3-0.4-0.7-0.5-1.3c-0.1-0.4-0.1-1-0.1-1.7
				c0-0.6,0-1.2,0-1.8C113.6,48.8,113.5,48.4,113.5,47.9z M114.5,46.8c-0.1,0-0.2,0.1-0.3,0.2c0,0.8,0.1,1.4,0.1,1.8
				c0,0.4,0.1,0.7,0.3,1.1c0.2,0.4,0.5,0.7,0.7,0.7c0.3,0,0.5-0.1,0.6-0.3c0.1-0.2,0.2-0.6,0.2-1.1c0-0.7-0.1-1.2-0.3-1.7
				c-0.3-0.5-0.6-0.8-1.1-0.8C114.8,46.7,114.6,46.7,114.5,46.8z"/>
			<path d="M107.4,45.8c-0.1-0.1-0.1-0.2-0.1-0.4c0-0.2,0.1-0.4,0.3-0.4c0.1,0,0.3,0,0.5,0c0,0,0.2,0.1,0.5,0.1c0-0.1,0-0.2,0-0.3
				c0-0.1,0-0.2,0-0.3c0-0.2,0-0.3,0-0.4c0.1-0.5,0.2-0.7,0.4-0.7c0.1,0,0.2,0.1,0.3,0.2c0.1,0.1,0.1,0.2,0.1,0.4c0,0.1,0,0.3,0,0.6
				c0,0.3,0,0.5,0,0.7c0.3,0,0.5,0,0.8,0c0.1,0,0.2,0.1,0.3,0.2c0.1,0.1,0.1,0.2,0.1,0.4c0,0.3-0.1,0.5-0.4,0.5c-0.4,0-0.7,0-0.9,0
				c-0.1,1-0.1,1.9-0.2,2.9c0,0.1,0,0.3,0,0.6c0,0.3,0,0.4,0,0.6c0,0.1,0,0.2-0.1,0.3c-0.1,0.1-0.2,0.1-0.3,0.1
				c-0.3-0.1-0.4-0.4-0.4-1.1c0-0.1,0-0.2,0-0.2c0-0.1,0-0.1,0-0.2c0.1-1,0.1-1.9,0.2-2.9c-0.3-0.1-0.5-0.1-0.5-0.1
				c-0.1,0-0.1,0-0.2,0c-0.1,0-0.1,0-0.2,0C107.6,46,107.5,45.9,107.4,45.8z"/>
			<path d="M103.7,48.7c-0.3-0.5-0.4-1.1-0.4-1.8c0-0.6,0.1-1.1,0.4-1.5c0.3-0.5,0.7-0.7,1.2-0.6c0.6,0.1,1.1,0.5,1.5,1.1
				c0.3,0.6,0.4,1.2,0.4,2c0,0.7-0.3,1.3-0.6,1.6c-0.3,0.3-0.7,0.4-1.1,0.3C104.4,49.7,104,49.3,103.7,48.7z M104,47.3
				c0,0.4,0.1,0.8,0.3,1.1c0.2,0.3,0.4,0.4,0.7,0.5c0.2,0.1,0.4,0,0.6-0.2c0.2-0.2,0.3-0.5,0.4-1c0-0.4,0-0.9-0.2-1.2
				c-0.2-0.5-0.5-0.7-0.8-0.8C104.3,45.6,104,46.2,104,47.3z"/>
			<path d="M204.5,55.3c-0.1-0.1-0.1-0.2-0.2-0.3c0-0.1,0-0.2,0.1-0.2c0.1,0,0.2-0.1,0.3,0c0.1,0,0.2,0.1,0.3,0.2
				c0.1,0.1,0.1,0.2,0.2,0.3c0,0.1,0,0.2-0.1,0.2c-0.1,0-0.2,0.1-0.3,0C204.7,55.4,204.6,55.4,204.5,55.3z M204.8,57.4
				c0-0.3-0.1-0.6-0.1-0.8c0-0.1,0-0.2,0.1-0.2c0.1,0,0.2,0,0.3,0c0.1,0,0.2,0.1,0.3,0.2c0.1,0.1,0.1,0.2,0.1,0.3
				c0,0.2,0,0.5,0.1,0.8c0,0.3,0.1,0.6,0.1,0.8c0,0.1,0,0.3,0,0.6c0,0.3,0,0.5,0,0.6c0,0.1,0,0.2-0.1,0.2c-0.1,0-0.2,0-0.3,0
				c-0.1,0-0.2-0.1-0.3-0.2c-0.1-0.1-0.1-0.2-0.1-0.3c0-0.1,0-0.3,0-0.6c0-0.3,0-0.5,0-0.6C204.8,58,204.8,57.7,204.8,57.4z"/>
			<path d="M200.4,58.4c-0.1-0.1-0.1-0.2-0.1-0.3c0-0.2,0-0.4,0-0.7c0-0.3,0.1-0.5,0-0.7c0-0.1,0-0.2,0-0.3c0-0.1,0-0.2,0-0.3
				c0-0.4,0-0.7,0.1-0.9c0.1-0.3,0.4-0.3,0.8-0.2c0.5,0.1,0.9,0.5,1.4,1.1c0-0.1,0-0.3,0-0.4c0-0.3,0.1-0.4,0.4-0.3
				c0.1,0,0.2,0.1,0.3,0.2c0.1,0.1,0.1,0.2,0.1,0.3c0,0.1,0,0.2,0,0.3c0,0.1,0,0.2,0,0.3c0,0.2,0.1,0.6,0.1,1c0.1,0.4,0.1,0.8,0.1,1
				c0,0.1,0,0.2,0,0.3c0,0.1,0,0.2,0,0.3c0,0.1,0,0.2-0.1,0.2c-0.1,0-0.2,0-0.3,0c-0.1,0-0.2-0.1-0.3-0.2c-0.1-0.1-0.1-0.2-0.1-0.3
				c0-0.1,0-0.2,0-0.3c0-0.1,0-0.2,0-0.3c0-0.1,0-0.2,0-0.3c0-0.1,0-0.3-0.1-0.3c-0.2-0.5-0.4-0.9-0.6-1.2c-0.3-0.4-0.6-0.6-0.9-0.7
				c-0.2-0.1-0.3,0.2-0.3,0.6c0,0.1,0,0.2,0,0.3c0,0.2,0,0.3,0,0.3c0,0.2,0,0.5,0,0.7c0,0.2,0,0.5-0.1,0.7c0,0.2-0.1,0.3-0.4,0.2
				C200.6,58.6,200.5,58.5,200.4,58.4z"/>
			<path d="M196.4,54.8c-0.1-0.1-0.1-0.2-0.1-0.3c0-0.1,0-0.1,0-0.3c0-0.1,0-0.2,0-0.3c0-0.1,0-0.2,0.1-0.2c0.1,0,0.2-0.1,0.3,0
				c0.1,0,0.2,0.1,0.3,0.1c0.2,0.1,0.4,0.2,0.7,0.3c0.3,0.1,0.6,0.3,0.8,0.4c0.5,0.3,0.8,0.7,0.8,1.1c0,0.2-0.1,0.4-0.3,0.5
				c-0.1,0.1-0.4,0.1-0.7,0.1c-0.1,0-0.3,0-0.4,0c-0.5,0-0.7,0.1-0.7,0.4c0,0.1,0.1,0.3,0.4,0.4c0.2,0.1,0.4,0.1,0.6,0.2
				c0.1,0,0.3,0,0.4,0.1c0.2,0,0.4,0,0.4,0c0.1-0.1,0.2-0.1,0.3-0.1c0.1,0,0.2,0.1,0.3,0.2c0.1,0.1,0.1,0.2,0.1,0.3
				c0,0.2-0.2,0.3-0.6,0.4c-0.3,0-0.6,0-1-0.1c-0.5-0.1-0.9-0.3-1.2-0.5c-0.4-0.3-0.6-0.6-0.6-0.9c0-0.4,0.2-0.7,0.6-0.9
				c0.3-0.1,0.7-0.1,1.3-0.1c0.1,0,0.1,0,0.2,0c0-0.2-0.2-0.4-0.7-0.6c-0.4-0.2-0.7-0.3-0.9-0.4c0,0.2,0,0.3-0.1,0.3
				c-0.1,0.1-0.1,0.1-0.3,0.1C196.6,54.9,196.5,54.9,196.4,54.8z"/>
			<path d="M192.6,53.9c-0.1-0.1-0.1-0.1-0.1-0.2c0-0.2,0.1-0.2,0.2-0.3c0.1,0,0.3,0,0.5,0c0,0,0.2,0,0.6,0.1c0-0.1,0-0.1,0-0.2
				c0-0.1,0-0.1,0-0.2c0-0.1,0-0.2,0-0.3c0-0.3,0.1-0.4,0.4-0.4c0.1,0,0.2,0.1,0.3,0.1c0.1,0.1,0.1,0.1,0.1,0.2c0,0.1,0,0.2,0,0.4
				c0,0.2,0,0.3,0,0.4c0.3,0,0.5,0,0.8,0.1c0.1,0,0.2,0.1,0.3,0.1c0.1,0.1,0.1,0.2,0.1,0.2c0,0.2-0.1,0.3-0.3,0.3
				c-0.4,0-0.7-0.1-0.9-0.1c0,0.6,0,1.2,0,1.9c0,0.1,0,0.2,0,0.4c0,0.2,0,0.3,0,0.4c0,0.1,0,0.2-0.1,0.2c-0.1,0-0.2,0.1-0.3,0
				c-0.3,0-0.4-0.3-0.4-0.8c0-0.1,0-0.1,0-0.2c0,0,0-0.1,0-0.1c0-0.6,0-1.3,0-1.9c-0.3-0.1-0.5-0.1-0.5-0.1c-0.1,0-0.1,0-0.2,0
				c-0.1,0-0.1,0-0.2,0C192.8,54,192.7,54,192.6,53.9z"/>
			<path d="M188.6,56.5c-0.1-0.1-0.1-0.1-0.1-0.2c0,0,0,0,0-0.1c0-0.1,0.1-0.1,0.1-0.2c0.1-0.3,0.2-0.5,0.2-0.6c0-0.2,0.1-0.4,0-0.6
				c0-0.3,0-0.5-0.1-0.7c0-0.2,0-0.3-0.1-0.4c-0.1,0-0.1-0.1-0.1-0.2c0-0.2,0.2-0.3,0.5-0.4c0.3-0.1,0.5-0.1,0.7-0.1
				c0.6,0,1.1,0.3,1.6,0.7c0.4,0.4,0.7,0.9,0.7,1.4c0,0.6-0.1,1-0.3,1.2c-0.3,0.3-0.7,0.4-1.3,0.3c-0.1,0-0.3-0.1-0.5-0.1
				c-0.2-0.1-0.4-0.2-0.7-0.3c-0.1,0.1-0.1,0.1-0.2,0.2c-0.1,0.1-0.2,0.1-0.3,0.1C188.7,56.6,188.6,56.6,188.6,56.5z M189.5,55.7
				c0.2,0.1,0.3,0.2,0.4,0.3c0.2,0.1,0.4,0.1,0.6,0.2c0.3,0,0.5,0,0.7-0.2c0.1-0.2,0.2-0.4,0.2-0.8c0-0.4-0.2-0.7-0.5-1
				c-0.3-0.3-0.7-0.5-1.1-0.5c0,0-0.1,0-0.2,0c-0.1,0-0.1,0-0.2,0.1c0,0.1,0.1,0.2,0.1,0.3c0,0.1,0,0.2,0,0.3
				C189.5,54.7,189.5,55.1,189.5,55.7z"/>
			<path d="M186.6,52.7c0-0.4-0.1-0.8-0.1-1.1c0-0.2,0.1-0.3,0.4-0.3c0.3,0,0.4,0.1,0.4,0.3c0,0.3,0,0.7,0.1,1.1
				c0,0.4,0.1,0.8,0.1,1.1c0,0.3,0,0.6,0.1,1.2c0.1,0.5,0.1,0.9,0.1,1.2c0,0.2-0.1,0.3-0.4,0.3c-0.2,0-0.4-0.1-0.4-0.4
				c0-0.3-0.1-0.6-0.1-0.8c0-0.5-0.1-1.1-0.1-1.6C186.7,53.4,186.6,53.1,186.6,52.7z"/>
			<path d="M184.4,52.6c0-0.4-0.1-0.8-0.1-1.1c0-0.2,0.1-0.3,0.4-0.3c0.3,0,0.4,0.1,0.4,0.3c0,0.3,0,0.7,0.1,1.1
				c0,0.4,0.1,0.8,0.1,1.1c0,0.3,0,0.6,0.1,1.2c0,0.5,0.1,0.9,0.1,1.2c0,0.2-0.1,0.3-0.4,0.3c-0.2,0-0.4-0.1-0.4-0.3
				c0-0.3-0.1-0.6-0.1-0.8c0-0.5-0.1-1.1-0.1-1.6C184.5,53.4,184.5,53,184.4,52.6z"/>
			<path d="M177.5,53.5c0-0.1,0-0.2,0.1-0.2c0.1-0.1,0.2-0.1,0.3-0.1c0.1,0,0.2,0,0.3,0.2c0.2,0.3,0.4,0.6,0.6,1
				c0.2,0.4,0.4,0.7,0.6,1.1c0.5-1,0.9-1.7,1.3-2.2c0.1-0.1,0.2-0.1,0.3-0.1c0.1,0,0.2,0,0.3,0.1c0.1,0.1,0.1,0.1,0.1,0.2
				c0,0.1,0,0.1-0.1,0.2c-0.1,0.1-0.1,0.2-0.2,0.2c-0.4,0.7-0.9,1.5-1.3,2.3c0.6,1.1,0.9,1.7,0.9,2c0,0.1,0,0.2-0.1,0.3
				c-0.1,0.1-0.2,0.1-0.3,0.1c-0.2,0-0.3-0.1-0.4-0.2c-0.1-0.2-0.2-0.5-0.3-0.7c-0.2-0.4-0.5-0.9-0.8-1.5c-0.5-0.8-0.9-1.6-1.4-2.4
				C177.5,53.6,177.5,53.5,177.5,53.5z"/>
			<path d="M174.1,56.5c-0.3-0.3-0.5-0.8-0.5-1.3c0-0.5,0.1-0.9,0.3-1.2c0.3-0.4,0.6-0.7,1.2-0.7c0.6-0.1,1.2,0.1,1.5,0.5
				c0.3,0.3,0.5,0.8,0.5,1.3c0,0.5-0.2,1-0.5,1.3c-0.3,0.3-0.7,0.5-1.1,0.5C174.9,57.1,174.5,56.9,174.1,56.5z M174.4,55.4
				c0,0.3,0.1,0.6,0.4,0.7c0.2,0.2,0.4,0.2,0.7,0.2c0.2,0,0.4-0.1,0.6-0.3c0.2-0.2,0.3-0.5,0.3-0.8c0-0.3-0.1-0.6-0.3-0.8
				c-0.2-0.3-0.5-0.4-0.9-0.4C174.6,54.1,174.3,54.5,174.4,55.4z"/>
			<path d="M169.4,54.2c0-0.1,0-0.2,0.1-0.3c0.1-0.1,0.2-0.1,0.3-0.1c0.2,0,0.3,0.1,0.4,0.3c0.1,0.4,0.1,0.8,0.1,1.3
				c0,0.2,0,0.4,0,0.7c0,0.2,0,0.5,0,0.7c0.4,0,0.8,0,1.1,0c0.1,0,0.2,0,0.2-0.1c0.1,0,0.2-0.1,0.3-0.1c0.1-0.2,0.1-0.4,0.1-0.7
				c0-0.3,0-0.6,0-1c0-0.1,0-0.3-0.1-0.5c0-0.2-0.1-0.4-0.1-0.5c0-0.1,0-0.2,0.1-0.2c0.1-0.1,0.2-0.1,0.3-0.1c0.2,0,0.3,0.1,0.4,0.2
				c0.1,0.4,0.1,0.7,0.1,1c0,0.5,0,1-0.1,1.6c0,0.3-0.2,0.5-0.4,0.7c-0.2,0.2-0.5,0.3-0.8,0.3c-0.4,0.1-0.8,0-1.1-0.1
				c0,0.2-0.2,0.4-0.4,0.4c-0.1,0-0.2,0-0.3-0.1c-0.1-0.1-0.1-0.1-0.1-0.2c0-0.1,0-0.1,0-0.2c0-0.1,0-0.2,0-0.2c0-0.2,0-0.4,0-0.8
				c0-0.3,0-0.6,0-0.8C169.5,55.1,169.4,54.6,169.4,54.2z"/>
			<path d="M165.5,55.3c0-0.3,0-0.5,0.1-0.7c0.1-0.2,0.3-0.3,0.5-0.3c0.6-0.1,1.2,0.1,1.7,0.4c0-0.4,0.1-0.6,0.4-0.6
				c0.2,0,0.3,0.1,0.3,0.3c0,0.1,0,0.2,0,0.3c0,0.2,0,0.3,0,0.3c0,0.8,0,1.6,0,2.5c0,0.2-0.1,0.4-0.3,0.4c-0.3,0-0.4-0.1-0.4-0.3
				c0-0.7,0-1.3,0-2c-0.2-0.3-0.4-0.5-0.6-0.6c-0.2-0.1-0.6-0.2-1-0.2c0,0.1,0,0.2,0,0.3c0,0.1,0,0.2,0,0.3c0,0.2-0.1,0.4-0.3,0.4
				c-0.2,0-0.4-0.1-0.4-0.4C165.5,55.5,165.5,55.4,165.5,55.3z"/>
			<path d="M159.5,56.4c-0.1-0.1-0.1-0.1-0.1-0.3c0-0.1,0-0.2,0-0.3c0-0.1,0-0.3,0-0.3c0-0.1,0-0.2,0.1-0.3c0.1-0.1,0.2-0.1,0.3-0.1
				c0.1,0,0.2,0,0.3,0c0.1,0,0.4,0.1,0.7,0.1c0.3,0,0.6,0.1,0.7,0.1c0.5,0.1,0.8,0.5,0.8,1c0,0.3-0.1,0.5-0.3,0.7
				c-0.1,0.1-0.4,0.2-0.7,0.4c-0.1,0.1-0.3,0.1-0.4,0.2c-0.5,0.2-0.7,0.5-0.7,0.8c0,0.2,0.1,0.3,0.4,0.3c0.2,0,0.4,0,0.6,0
				c0.1,0,0.3-0.1,0.4-0.1c0.2-0.1,0.4-0.2,0.4-0.2c0.1-0.1,0.2-0.2,0.3-0.2c0.1,0,0.2,0,0.3,0.1c0.1,0.1,0.1,0.1,0.1,0.2
				c0,0.2-0.2,0.5-0.6,0.7c-0.3,0.2-0.6,0.3-1,0.4c-0.5,0.1-0.8,0.1-1.2,0c-0.4-0.1-0.6-0.4-0.6-0.8c0-0.5,0.2-0.9,0.6-1.3
				c0.3-0.2,0.7-0.5,1.3-0.7c0.1,0,0.2-0.1,0.2-0.1c0-0.2-0.2-0.4-0.6-0.5c-0.4-0.1-0.7-0.1-0.9-0.1c0,0.2-0.1,0.4-0.1,0.4
				c-0.1,0.1-0.2,0.2-0.3,0.2C159.6,56.4,159.5,56.4,159.5,56.4z"/>
			<path d="M155,60.4c-0.1-0.1-0.1-0.1-0.1-0.2c0,0,0-0.1,0-0.1c0.1-0.2,0.1-0.5,0.1-0.8c0-0.3,0.1-0.6,0.1-0.8c0-0.3,0-0.5,0-0.8
				c0-0.5,0.1-0.8,0.2-1c0.2-0.3,0.5-0.5,0.9-0.6c0.3,0,0.5,0,0.8,0.1c0.2,0.1,0.5,0.3,0.7,0.5c0-0.1,0-0.2,0-0.3c0-0.3,0-0.6,0-0.8
				c0-0.3,0-0.6,0-0.8c0-0.2,0-0.4,0.1-0.7c0-0.2,0.2-0.4,0.4-0.4c0.1,0,0.2,0,0.3,0.1c0.1,0.1,0.1,0.1,0.1,0.2c0,0.1,0,0.2,0,0.4
				c0,0.1,0,0.2,0,0.4c0,0.1,0,0.3,0,0.6c0,0.9,0,1.9,0,2.8c0,0.2,0,0.4,0,0.6c0,0.3,0,0.5,0,0.6c0,0.1,0,0.1,0,0.2
				c0,0.1,0,0.2-0.1,0.3c-0.1,0.1-0.2,0.1-0.3,0.2c-0.2,0-0.3,0-0.3-0.2c-0.1-0.2-0.1-0.7-0.1-1.7c-0.2-0.4-0.4-0.6-0.5-0.8
				c-0.3-0.2-0.6-0.3-0.9-0.3c-0.2,0-0.4,0.3-0.4,0.8c0,0.1,0,0.2,0,0.3c0,0.1,0,0.2,0,0.3c0,0.2,0,0.6-0.1,0.9
				c0,0.4-0.1,0.7-0.2,0.9c-0.1,0.2-0.2,0.3-0.4,0.4C155.1,60.5,155,60.5,155,60.4z"/>
			<path d="M152.8,55.5c-0.1-0.1-0.1-0.2-0.1-0.3c0-0.1,0-0.2,0.1-0.4c0.1-0.1,0.2-0.2,0.3-0.2c0.1,0,0.2,0,0.3,0.1
				c0.1,0.1,0.1,0.2,0.1,0.3c0,0.1,0,0.2-0.1,0.3c-0.1,0.1-0.2,0.2-0.3,0.2C153,55.6,152.9,55.6,152.8,55.5z M152.9,57.9
				c0-0.4,0-0.7,0-0.9c0-0.1,0-0.2,0.1-0.3c0.1-0.1,0.2-0.1,0.3-0.2c0.1,0,0.2,0,0.3,0.1c0.1,0.1,0.1,0.2,0.1,0.3c0,0.2,0,0.6,0,0.9
				c0,0.4,0,0.7,0,0.9c0,0.2,0,0.4,0,0.7c0,0.3,0,0.6,0,0.7c0,0.1,0,0.2-0.1,0.3c-0.1,0.1-0.2,0.1-0.3,0.2c-0.1,0-0.2,0-0.3-0.1
				c-0.1-0.1-0.1-0.1-0.1-0.3c0-0.2,0-0.4,0-0.7c0-0.3,0-0.6,0-0.7C153,58.6,153,58.3,152.9,57.9z"/>
			<path d="M148.4,61.7c-0.1-0.1-0.1-0.1-0.1-0.3c0-0.2,0-0.5,0.1-0.9c0.1-0.4,0.1-0.7,0.1-0.9c0-0.1,0-0.3,0-0.4c0-0.1,0-0.3,0-0.4
				c0-0.5,0.1-0.9,0.2-1.2c0.2-0.4,0.5-0.7,0.9-0.7c0.5-0.1,0.9,0.2,1.3,0.7c0-0.2,0-0.3,0-0.5c0-0.4,0.2-0.6,0.4-0.6
				c0.1,0,0.2,0,0.3,0.1c0.1,0.1,0.1,0.2,0.1,0.3c0,0.1,0,0.2,0,0.4c0,0.2,0,0.3,0,0.4c0,0.3,0,0.7,0.1,1.1c0,0.5,0.1,0.9,0.1,1.1
				c0,0.1,0,0.2,0,0.4c0,0.2,0,0.3,0,0.4c0,0.1,0,0.2-0.1,0.3c-0.1,0.1-0.2,0.1-0.3,0.2c-0.1,0-0.2,0-0.3-0.1
				c-0.1-0.1-0.1-0.2-0.1-0.3c0-0.1,0-0.2,0-0.4c0-0.2,0-0.3,0-0.4c0-0.1,0-0.3,0-0.4c0-0.2,0-0.3,0-0.4c-0.1-0.5-0.3-0.9-0.6-1.1
				c-0.3-0.3-0.5-0.5-0.8-0.4c-0.2,0-0.3,0.4-0.3,0.9c0,0.1,0,0.2,0,0.4c0,0.2,0,0.3,0,0.4c0,0.3,0,0.6-0.1,0.9
				c0,0.3-0.1,0.6-0.1,0.9c0,0.3-0.2,0.4-0.4,0.5C148.6,61.8,148.5,61.8,148.4,61.7z"/>
			<path d="M144.1,58.4c0-0.1,0-0.2,0.1-0.3c0.1-0.1,0.2-0.2,0.3-0.2c0.1,0,0.2,0,0.3,0.2c0.2,0.3,0.4,0.8,0.6,1.2
				c0.2,0.5,0.4,0.9,0.6,1.4c0.5-1.3,1-2.3,1.4-3.1c0.1-0.1,0.2-0.2,0.3-0.2c0.1,0,0.2,0,0.3,0.1c0.1,0.1,0.1,0.2,0.1,0.3
				c0,0.1,0,0.2-0.1,0.3c-0.1,0.1-0.1,0.2-0.2,0.3c-0.5,1-0.9,2.1-1.4,3.1c0.5,1.2,0.8,1.9,0.8,2.2c0,0.1,0,0.2-0.1,0.3
				c-0.1,0.1-0.2,0.1-0.3,0.2c-0.2,0-0.3,0-0.3-0.2c-0.1-0.2-0.2-0.5-0.3-0.7c-0.2-0.5-0.4-1-0.7-1.7c-0.4-1-0.9-1.9-1.3-2.9
				C144.1,58.5,144.1,58.4,144.1,58.4z"/>
			<path d="M138.2,62.8c-0.3-0.4-0.4-0.9-0.4-1.6c0-0.6,0.1-1.2,0.3-1.6c0.3-0.6,0.7-0.9,1.2-1c0.6-0.1,1.1,0.2,1.5,0.7
				c0.3,0.5,0.4,1,0.4,1.7c0,0.7-0.2,1.2-0.6,1.7c-0.3,0.4-0.7,0.6-1.1,0.7C139,63.4,138.5,63.2,138.2,62.8z M138.5,61.3
				c0,0.4,0.1,0.7,0.3,0.9c0.2,0.2,0.4,0.3,0.7,0.2c0.2,0,0.4-0.2,0.6-0.4c0.2-0.3,0.3-0.6,0.3-1c0-0.4-0.1-0.8-0.2-1.1
				c-0.2-0.4-0.5-0.6-0.9-0.5C138.8,59.6,138.5,60.2,138.5,61.3z"/>
			<path d="M133.6,63.3c-0.4-0.4-0.5-1-0.5-1.7c0-0.7,0.2-1.3,0.5-1.8c0.4-0.5,0.8-0.8,1.4-0.9c0.2,0,0.4,0,0.6,0.1
				c0.2,0.1,0.4,0.2,0.6,0.3c0-0.4,0-0.8,0-1.2c0-0.3,0-0.7,0-1c0,0,0-0.1,0-0.2c0-0.1,0-0.1,0-0.2c0-0.3,0.1-0.4,0.3-0.4
				c0.1,0,0.3,0.1,0.3,0.3c0.1,0.1,0.1,0.3,0.1,0.5c0,0.2,0,0.7,0,1.3c0,0.6,0,1,0,1.3c0,0.3,0,0.8,0,1.4c0,0.6,0,1.1,0,1.4
				c0,0.1,0,0.2,0,0.3c0,0.1,0,0.3,0,0.3c0,0.1,0,0.2-0.1,0.3c-0.1,0.1-0.2,0.1-0.3,0.1c-0.1,0-0.2,0-0.3-0.2
				c-0.3,0.2-0.7,0.3-1.1,0.4C134.4,63.9,133.9,63.7,133.6,63.3z M134,60.4c-0.2,0.3-0.3,0.7-0.3,1.2c0,0.5,0.1,0.8,0.3,1.1
				c0.2,0.3,0.5,0.4,0.9,0.4c0.2,0,0.4-0.1,0.5-0.1c0.2-0.1,0.4-0.2,0.5-0.3c0-0.2,0-0.5,0-0.7c0-0.2,0-0.5,0-0.7c0-0.3,0-0.5,0-0.8
				c-0.3-0.2-0.4-0.3-0.5-0.4c-0.2-0.1-0.4-0.2-0.6-0.2C134.5,59.9,134.3,60.1,134,60.4z"/>
			<path d="M130.9,65.4c0.1,0.2,0.2,0.3,0.3,0.3c0.1,0,0.3-0.1,0.4-0.2c0.1-0.2,0.2-0.3,0.2-0.4c0.2-0.4,0.3-0.6,0.5-0.6
				c0.1,0,0.2,0,0.3,0.1c0.1,0.1,0.1,0.2,0.1,0.3c0,0.1,0,0.1-0.1,0.2c-0.4,1-0.9,1.5-1.4,1.5c-0.3,0-0.6-0.1-0.8-0.5
				c-0.2-0.3-0.3-0.7-0.3-1c0.1-0.9,0.1-1.8,0.2-2.7c0.1-0.9,0.1-1.8,0.2-2.7c0-0.1,0.1-0.2,0.1-0.2c0.1-0.1,0.2-0.1,0.3-0.1
				c0.1,0,0.2,0.1,0.3,0.2c0.1,0.1,0.1,0.3,0.1,0.4c-0.1,0.9-0.1,1.7-0.2,2.5c-0.1,1.4-0.2,2.3-0.2,2.6
				C130.8,65.2,130.8,65.3,130.9,65.4z M130.6,58.1c-0.1-0.1-0.1-0.2-0.1-0.4c0-0.2,0.1-0.3,0.1-0.4c0.1-0.1,0.2-0.2,0.3-0.2
				c0.1,0,0.2,0,0.3,0.2c0.1,0.1,0.1,0.2,0.1,0.4c0,0.2-0.1,0.3-0.1,0.4c-0.1,0.1-0.2,0.2-0.3,0.2C130.8,58.2,130.7,58.2,130.6,58.1
				z"/>
			<path d="M125.9,64.1c-0.5-0.2-0.7-0.5-0.7-0.9c0-0.1,0-0.2,0.1-0.3c0.1-0.1,0.2-0.1,0.2-0.1c0.1,0,0.2,0.1,0.3,0.2
				c0.1,0.2,0.3,0.3,0.6,0.4c0.2,0.1,0.4,0.1,0.6,0.1c0.3,0,0.5-0.1,0.8-0.2c0.2-0.1,0.4-0.3,0.6-0.6c-0.5-0.3-1-0.5-1.5-0.8
				c-0.4-0.2-0.7-0.4-0.8-0.5c-0.3-0.3-0.4-0.5-0.4-0.9c0-0.4,0.2-0.8,0.5-1c0.3-0.2,0.6-0.3,1.1-0.3c0.6,0,1.1,0.3,1.4,0.9
				c0.3,0.5,0.5,1.2,0.4,2c0,0.7-0.2,1.2-0.6,1.6c-0.4,0.3-0.8,0.5-1.4,0.5C126.7,64.4,126.3,64.3,125.9,64.1z M126.3,60.6
				c0.2,0.2,0.5,0.4,1,0.7c0.4,0.2,0.8,0.4,1.2,0.6c-0.1-0.6-0.2-1-0.4-1.3c-0.2-0.3-0.5-0.4-0.8-0.4
				C126.8,60.2,126.5,60.4,126.3,60.6z"/>
			<path d="M121.9,64.1c-0.4-0.2-0.6-0.4-0.6-0.7c0-0.1,0-0.2,0.1-0.3c0.1-0.1,0.2-0.1,0.3-0.1c0,0,0.1,0,0.2,0.1
				c0.1,0.1,0.3,0.2,0.4,0.3c0.2,0.1,0.3,0.2,0.5,0.2c0.3,0,0.6-0.1,0.8-0.3c0.2-0.2,0.4-0.5,0.4-0.9c0-0.4-0.1-0.8-0.3-1.4
				c-0.2-0.6-0.5-0.9-0.8-0.9c-0.3,0-0.6,0-0.8,0.2c-0.1,0.1-0.1,0.1-0.2,0.2c-0.1,0.1-0.1,0.1-0.2,0.1c-0.1,0-0.2-0.1-0.2-0.2
				c-0.1-0.1-0.1-0.2-0.1-0.3c0-0.3,0.2-0.5,0.6-0.7c0.3-0.1,0.6-0.2,0.9-0.2c0.5,0,0.9,0.4,1.3,1.2c0.3,0.7,0.5,1.3,0.5,2
				c0,0.6-0.2,1.2-0.6,1.5c-0.4,0.4-0.8,0.5-1.3,0.5C122.5,64.4,122.2,64.3,121.9,64.1z"/>
			<path d="M117.7,59.6c-0.1-0.1-0.1-0.2-0.1-0.4c0-0.2,0.1-0.4,0.3-0.4c0.1,0,0.3,0,0.5,0c0,0,0.2,0.1,0.5,0.1c0-0.1,0-0.2,0-0.3
				c0-0.1,0-0.2,0-0.3c0-0.2,0-0.3,0-0.4c0.1-0.5,0.2-0.7,0.4-0.7c0.1,0,0.2,0.1,0.3,0.2c0.1,0.1,0.1,0.2,0.1,0.4c0,0.1,0,0.3,0,0.6
				c0,0.3,0,0.5,0,0.7c0.3,0,0.5,0,0.8,0c0.1,0,0.2,0.1,0.3,0.2c0.1,0.1,0.1,0.2,0.1,0.4c0,0.3-0.1,0.4-0.4,0.4c-0.4,0-0.7,0-0.9,0
				c-0.1,0.9-0.1,1.8-0.2,2.7c0,0.1,0,0.3,0,0.5c0,0.2,0,0.4,0,0.5c0,0.1,0,0.2-0.1,0.3c-0.1,0.1-0.2,0.1-0.3,0.1
				c-0.3,0-0.4-0.4-0.4-1c0-0.1,0-0.2,0-0.2c0-0.1,0-0.1,0-0.2c0.1-0.9,0.1-1.8,0.2-2.7c-0.3-0.1-0.5-0.1-0.5-0.1
				c-0.1,0-0.1,0-0.2,0c-0.1,0-0.1,0-0.2,0C117.8,59.8,117.7,59.7,117.7,59.6z"/>
			<path d="M113.9,59.5c-0.1-0.1-0.1-0.2-0.1-0.4c0-0.1,0-0.2,0.1-0.4c0-0.2,0.1-0.3,0.1-0.4c0-0.1,0-0.3,0.1-0.3
				c0.1-0.1,0.2-0.1,0.3-0.1c0.1,0,0.2,0.1,0.3,0.1c0.1,0.1,0.4,0.3,0.7,0.4c0.3,0.2,0.6,0.3,0.7,0.4c0.5,0.4,0.7,0.9,0.7,1.5
				c0,0.4-0.1,0.6-0.3,0.7c-0.1,0.1-0.4,0.2-0.7,0.2c-0.1,0-0.3,0-0.4,0c-0.5,0.1-0.8,0.3-0.8,0.7c0,0.2,0.1,0.4,0.3,0.5
				c0.2,0.1,0.4,0.2,0.6,0.2c0.1,0,0.3,0,0.4,0c0.2,0,0.4,0,0.4-0.1c0.1-0.1,0.2-0.2,0.3-0.2c0.1,0,0.2,0.1,0.3,0.2
				c0.1,0.1,0.1,0.2,0.1,0.3c0,0.3-0.2,0.5-0.6,0.6c-0.3,0.1-0.6,0.1-1,0c-0.5-0.1-0.8-0.2-1.1-0.5c-0.4-0.3-0.5-0.7-0.5-1.2
				c0-0.6,0.3-1,0.7-1.3c0.3-0.2,0.7-0.3,1.3-0.3c0.1,0,0.2,0,0.2,0c0-0.3-0.2-0.6-0.6-0.8c-0.4-0.2-0.7-0.4-0.9-0.5
				c0,0.3-0.1,0.4-0.1,0.5c-0.1,0.1-0.2,0.1-0.3,0.1C114.1,59.6,114,59.6,113.9,59.5z"/>
			<path d="M111.9,63c-0.1-0.1-0.1-0.3-0.1-0.4c0-0.2,0.1-0.3,0.2-0.4c0.1-0.1,0.2-0.1,0.3-0.1c0.1,0,0.2,0.1,0.3,0.2
				c0.1,0.1,0.1,0.3,0.1,0.4c0,0.2-0.1,0.3-0.2,0.4c-0.1,0.1-0.2,0.1-0.3,0.1C112.1,63.2,112,63.1,111.9,63z"/>
			<path d="M201.9,62.3c0-0.1,0-0.2,0.1-0.2c0.1,0,0.2,0,0.3,0c0.2,0.1,0.3,0.2,0.4,0.4c0.2,0.4,0.4,0.7,0.5,0.9
				c0.3,0.8,0.7,1.5,1,2.3c0.3-0.3,0.4-0.5,0.5-0.6c0.1-0.2,0.2-0.4,0.4-0.6c0.1-0.1,0.2-0.3,0.5-0.6c0.1-0.1,0.2-0.2,0.3-0.3
				c0.1-0.1,0.2-0.1,0.3,0c0.1,0,0.2,0.1,0.3,0.2c0.1,0.1,0.1,0.2,0.1,0.3c0,0.1,0,0.1,0,0.2c-0.1,0.1-0.3,0.3-0.6,0.7
				c-0.3,0.3-0.4,0.5-0.5,0.7c-0.1,0.3-0.4,0.6-0.8,1c0.2,0.3,0.4,0.6,0.5,1c0.3,0.5,0.4,0.8,0.4,0.9c0,0.1,0,0.2-0.1,0.2
				c-0.1,0-0.2,0.1-0.3,0c-0.1,0-0.3-0.1-0.4-0.3c-0.1-0.1-0.2-0.3-0.2-0.5c-0.2-0.3-0.4-0.6-0.5-1c-0.3-0.5-0.5-1.1-0.8-1.7
				c-0.3-0.6-0.5-1.2-0.8-1.7c-0.1-0.2-0.2-0.4-0.3-0.5C201.9,62.6,201.9,62.4,201.9,62.3z"/>
			<path d="M198.5,66.2c-0.3-0.5-0.5-1-0.5-1.5c0-0.5,0-1,0.2-1.3c0.2-0.4,0.6-0.5,1.2-0.4c0.7,0.2,1.2,0.5,1.6,1.1
				c0.3,0.5,0.5,1,0.5,1.6c0,0.6-0.1,1-0.5,1.3c-0.3,0.2-0.7,0.3-1.1,0.2C199.3,67.1,198.8,66.7,198.5,66.2z M198.7,65
				c0,0.4,0.2,0.7,0.4,0.9c0.2,0.2,0.4,0.4,0.7,0.4c0.2,0,0.4,0,0.6-0.1c0.2-0.2,0.3-0.4,0.3-0.8c0-0.4-0.1-0.7-0.3-1
				c-0.2-0.4-0.5-0.6-0.9-0.7C198.8,63.6,198.6,64,198.7,65z"/>
			<path d="M193.6,62.2c0-0.1,0-0.2,0.1-0.3c0.1-0.1,0.2-0.1,0.3-0.1c0.2,0,0.4,0.2,0.4,0.4c0.1,0.4,0.1,0.9,0.1,1.5
				c0,0.3,0,0.5,0,0.8c0,0.3,0,0.5,0,0.8c0.4,0.2,0.8,0.3,1.1,0.3c0.1,0,0.2,0,0.2,0c0.1,0,0.2,0,0.3-0.1c0-0.2,0.1-0.4,0.1-0.7
				c0-0.3,0-0.7,0-1.1c0-0.1,0-0.3-0.1-0.6c0-0.3-0.1-0.4-0.1-0.6c0-0.1,0-0.2,0.1-0.2c0.1-0.1,0.2-0.1,0.3-0.1
				c0.2,0,0.3,0.2,0.4,0.4c0.1,0.5,0.2,0.9,0.2,1.2c0,0.5,0,1.1-0.1,1.8c0,0.3-0.2,0.5-0.4,0.7c-0.2,0.1-0.5,0.2-0.8,0.1
				c-0.4-0.1-0.8-0.2-1.1-0.4c0,0.3-0.2,0.4-0.4,0.3c-0.1,0-0.2-0.1-0.3-0.1c-0.1-0.1-0.1-0.2-0.1-0.3c0-0.1,0-0.2,0-0.3
				c0-0.1,0-0.2,0-0.3c0-0.2,0-0.5,0-0.9c0-0.4,0-0.7,0-0.9C193.7,63.2,193.7,62.7,193.6,62.2z"/>
			<path d="M187.4,62.4c-0.1-0.1-0.1-0.2-0.1-0.3c0-0.1,0-0.2,0-0.3c0-0.1,0-0.3,0-0.3c0-0.1,0-0.2,0.1-0.3c0.1-0.1,0.2-0.1,0.3-0.1
				c0.1,0,0.2,0,0.4,0.1c0.2,0.1,0.4,0.2,0.7,0.3c0.3,0.1,0.6,0.2,0.8,0.3c0.5,0.3,0.8,0.7,0.8,1.2c0,0.3-0.1,0.5-0.3,0.7
				c-0.1,0.1-0.4,0.2-0.7,0.2c-0.1,0-0.3,0-0.4,0.1c-0.5,0.1-0.7,0.4-0.7,0.7c0,0.2,0.1,0.3,0.4,0.4c0.2,0.1,0.4,0.1,0.6,0.1
				c0.1,0,0.3,0,0.4,0c0.2,0,0.4-0.1,0.4-0.1c0.1-0.1,0.2-0.2,0.3-0.2c0.1,0,0.2,0.1,0.3,0.1c0.1,0.1,0.1,0.2,0.1,0.3
				c0,0.3-0.2,0.5-0.6,0.6c-0.3,0.1-0.6,0.2-1,0.1c-0.5,0-0.9-0.1-1.2-0.3c-0.4-0.2-0.6-0.6-0.6-1c0-0.5,0.2-1,0.6-1.2
				c0.3-0.2,0.7-0.3,1.3-0.4c0.1,0,0.2,0,0.2-0.1c0-0.2-0.2-0.5-0.7-0.7c-0.4-0.2-0.7-0.3-0.9-0.3c0,0.2,0,0.4-0.1,0.4
				c-0.1,0.1-0.2,0.1-0.3,0.1C187.6,62.5,187.5,62.5,187.4,62.4z"/>
			<path d="M183,65.9c-0.1-0.1-0.1-0.2-0.1-0.3c0,0,0-0.1,0-0.1c0-0.3,0.1-0.5,0.1-0.9c0-0.3,0-0.6,0.1-0.9c0-0.3,0-0.5,0-0.8
				c0-0.5,0.1-0.8,0.2-1c0.2-0.3,0.4-0.4,0.9-0.4c0.3,0,0.5,0.1,0.8,0.2c0.2,0.1,0.5,0.4,0.7,0.6c0-0.1,0-0.2,0-0.3
				c0-0.3,0-0.6,0-0.9c0-0.3,0-0.6-0.1-0.8c0-0.2,0-0.4,0-0.7c0-0.2,0.1-0.3,0.4-0.3c0.1,0,0.2,0,0.3,0.1c0.1,0.1,0.1,0.2,0.1,0.3
				c0,0.1,0,0.2,0,0.4c0,0.1,0,0.2,0,0.4c0,0.1,0,0.3,0,0.6c0,0.9,0.1,1.9,0.1,2.9c0,0.2,0,0.4,0,0.6c0,0.3,0,0.5,0.1,0.6
				c0,0.1,0,0.1,0,0.2c0,0.1,0,0.2-0.1,0.3c-0.1,0.1-0.2,0.1-0.3,0.1c-0.2,0-0.3-0.1-0.3-0.3c-0.1-0.2-0.2-0.8-0.2-1.9
				c-0.2-0.4-0.4-0.7-0.6-0.9c-0.3-0.3-0.6-0.5-0.9-0.4c-0.2,0-0.4,0.3-0.3,0.8c0,0.1,0,0.2,0,0.3c0,0.1,0,0.3,0,0.3
				c0,0.3,0,0.6,0,1c0,0.4-0.1,0.8-0.1,1c-0.1,0.2-0.2,0.3-0.4,0.3C183.2,66,183.1,66,183,65.9z"/>
			<path d="M179.1,65.5c-0.3-0.4-0.5-0.9-0.5-1.5c0-0.6,0.1-1.1,0.3-1.5c0.3-0.5,0.6-0.8,1.2-0.8c0.7,0,1.2,0.2,1.5,0.7
				c0.3,0.4,0.5,1,0.5,1.6c0,0.6-0.2,1.2-0.5,1.6c-0.3,0.4-0.7,0.6-1.1,0.6C179.9,66.2,179.5,66,179.1,65.5z M179.3,64.1
				c0,0.4,0.1,0.7,0.4,0.9c0.2,0.2,0.4,0.3,0.7,0.3c0.2,0,0.4-0.1,0.6-0.3c0.2-0.2,0.3-0.6,0.3-1c0-0.4-0.1-0.7-0.3-1
				c-0.2-0.4-0.5-0.5-0.9-0.5C179.5,62.5,179.3,63.1,179.3,64.1z"/>
			<path d="M174.3,62.6c0-0.1,0-0.2,0.1-0.3c0.1-0.1,0.2-0.1,0.3-0.1c0.2,0,0.4,0.1,0.4,0.3c0.1,0.4,0.1,0.9,0.1,1.5
				c0,0.3,0,0.5,0,0.8c0,0.3,0,0.6,0,0.8c0.4,0.1,0.8,0.1,1.1,0.1c0.1,0,0.2,0,0.2-0.1c0.1,0,0.2-0.1,0.3-0.1
				c0.1-0.2,0.1-0.5,0.1-0.8c0-0.3,0-0.7,0-1.2c0-0.1,0-0.3-0.1-0.6c0-0.3-0.1-0.5-0.1-0.6c0-0.1,0-0.2,0.1-0.3
				c0.1-0.1,0.2-0.1,0.3-0.1c0.2,0,0.3,0.1,0.4,0.3c0.1,0.5,0.1,0.9,0.1,1.2c0,0.6,0,1.2-0.1,2c0,0.3-0.2,0.6-0.4,0.8
				c-0.2,0.2-0.5,0.3-0.8,0.3c-0.4,0-0.8,0-1.1-0.2c0,0.3-0.2,0.4-0.4,0.4c-0.1,0-0.2,0-0.3-0.1c-0.1-0.1-0.1-0.2-0.1-0.3
				c0-0.1,0-0.2,0-0.3c0-0.1,0-0.2,0-0.3c0-0.2,0-0.5,0-0.9c0-0.4,0-0.7,0-0.9C174.4,63.6,174.4,63,174.3,62.6z"/>
			<path d="M172.4,62.1c0-0.5,0-1,0-1.4c0-0.3,0.1-0.4,0.4-0.4c0.3,0,0.4,0.1,0.4,0.3c0,0.4,0,0.9,0,1.4c0,0.5,0,1,0,1.4
				c0,0.3,0,0.8,0.1,1.5c0,0.7,0.1,1.2,0.1,1.5c0,0.3-0.1,0.4-0.4,0.5c-0.2,0-0.4-0.1-0.4-0.4c0-0.4,0-0.7,0-1c0-0.7-0.1-1.4-0.1-2
				C172.4,63.1,172.4,62.6,172.4,62.1z"/>
			<path d="M167.5,61.5c0-0.2,0.1-0.4,0.3-0.4c0.2,0,0.3,0.1,0.4,0.3c0.1,0.4,0.1,1.1,0.2,2.2c0.1-0.1,0.2-0.2,0.4-0.3
				c0.2-0.1,0.4-0.2,0.7-0.3c0.6-0.1,1.1,0,1.4,0.4c0.4,0.4,0.6,0.9,0.6,1.6c0,0.6-0.2,1.1-0.5,1.6c-0.3,0.4-0.8,0.7-1.3,0.8
				c-0.2,0-0.4,0-0.6,0c-0.2,0-0.4-0.1-0.6-0.2c-0.1,0.3-0.2,0.4-0.4,0.4c-0.1,0-0.2,0-0.3-0.1c-0.1-0.1-0.1-0.1-0.1-0.3
				c0,0,0-0.1,0-0.1c0.1-0.5,0.1-1.2,0.1-2.1c0-0.4,0-0.8-0.1-1.2C167.5,62.7,167.5,61.9,167.5,61.5z M168.8,64
				c-0.2,0.1-0.3,0.3-0.4,0.6c0,0.2,0,0.3,0,0.5c0,0.2,0,0.3,0,0.5c0,0.2,0,0.5,0,0.7c0,0,0.1,0.1,0.1,0.1c0.2,0.1,0.4,0.2,0.4,0.3
				c0.2,0.1,0.3,0.1,0.6,0c0.3-0.1,0.6-0.2,0.8-0.5c0.2-0.3,0.4-0.6,0.3-1c0-0.5-0.1-0.9-0.3-1.2c-0.2-0.2-0.6-0.3-1-0.2
				C169.2,63.7,169,63.8,168.8,64z"/>
			<path d="M161.2,65.1c-0.1-0.1-0.1-0.1-0.1-0.3c0-0.2,0.1-0.3,0.2-0.4c0.1,0,0.3-0.1,0.5-0.1c0,0,0.2,0,0.6,0c0-0.1,0-0.2,0-0.2
				c0-0.1,0-0.1,0-0.2c0-0.1,0-0.3,0-0.3c0-0.4,0.2-0.6,0.4-0.7c0.1,0,0.2,0,0.3,0.1c0.1,0.1,0.1,0.1,0.1,0.2c0,0.1,0,0.3,0,0.5
				c0,0.2,0,0.4,0,0.5c0.3-0.1,0.5-0.2,0.8-0.2c0.1,0,0.2,0,0.3,0.1c0.1,0.1,0.1,0.2,0.1,0.3c0,0.2-0.1,0.4-0.3,0.5
				c-0.4,0.1-0.7,0.2-0.9,0.2c0,0.8,0,1.5-0.1,2.3c0,0.1,0,0.3,0,0.5c0,0.2,0,0.4,0,0.5c0,0.1,0,0.2-0.1,0.3
				c-0.1,0.1-0.2,0.1-0.3,0.2c-0.3,0.1-0.4-0.2-0.4-0.8c0-0.1,0-0.1,0-0.2c0-0.1,0-0.1,0-0.2c0-0.8,0-1.6,0.1-2.4
				c-0.3,0-0.5,0-0.5,0c-0.1,0-0.1,0-0.2,0c-0.1,0-0.1,0-0.2,0C161.4,65.2,161.3,65.2,161.2,65.1z"/>
			<path d="M157.3,66.2c0-0.3,0.1-0.6,0.2-0.7c0.1-0.2,0.3-0.3,0.5-0.3c0.6-0.1,1.2,0,1.7,0.4c0-0.4,0.1-0.7,0.4-0.7
				c0.2,0,0.3,0.1,0.3,0.3c0,0.1,0,0.2,0,0.4c0,0.2,0,0.3,0,0.4c0,0.9,0,1.8,0,2.8c0,0.3-0.1,0.4-0.3,0.5c-0.3,0-0.4-0.1-0.4-0.3
				c0-0.7,0-1.4,0-2.2c-0.2-0.3-0.4-0.5-0.6-0.6c-0.2-0.1-0.6-0.2-1-0.1c0,0.1,0,0.2,0,0.3c0,0.1,0,0.2,0,0.3c0,0.3-0.1,0.4-0.3,0.5
				c-0.2,0-0.4-0.1-0.4-0.4C157.3,66.4,157.3,66.3,157.3,66.2z"/>
			<path d="M153.1,66.6c0-0.1,0-0.2,0.1-0.3c0.1-0.1,0.2-0.1,0.3-0.2c0.1,0,0.2,0,0.3,0.1c0.2,0.3,0.4,0.6,0.6,1.1
				c0.2,0.4,0.4,0.8,0.6,1.2c0.5-1.2,1-2.2,1.4-2.9c0.1-0.1,0.2-0.2,0.3-0.2c0.1,0,0.2,0,0.3,0.1c0.1,0.1,0.1,0.1,0.1,0.3
				c0,0.1,0,0.2-0.1,0.3c-0.1,0.1-0.1,0.2-0.2,0.3c-0.5,1-0.9,2-1.4,3c0.6,1.1,0.9,1.8,0.9,2.1c0,0.1,0,0.2-0.1,0.3
				c-0.1,0.1-0.2,0.1-0.3,0.2c-0.2,0-0.3,0-0.4-0.2c-0.1-0.2-0.2-0.5-0.3-0.7c-0.2-0.4-0.4-1-0.8-1.6c-0.5-0.9-0.9-1.7-1.4-2.6
				C153.1,66.7,153.1,66.6,153.1,66.6z"/>
			<path d="M147,70.9c-0.3-0.3-0.4-0.7-0.4-1.2c0-0.6,0.1-1.1,0.3-1.5c0.3-0.5,0.6-0.8,1.2-0.9c0.2,0,0.4,0,0.6,0
				c0.2,0,0.4,0.1,0.6,0.2c0-0.1,0-0.1,0-0.2c0-0.1,0-0.1,0-0.1c0-0.1,0-0.2,0.1-0.3c0.1-0.1,0.2-0.1,0.3-0.2c0.1,0,0.3,0,0.3,0.2
				c0.1,0.1,0.1,0.3,0.1,0.4c0,0.3,0,0.5-0.1,0.8c0,0.5-0.1,1-0.1,1.5c0,0.5,0,1,0,1.5c0,0.5,0,1,0,1.5c0,0.1,0,0.2-0.1,0.3
				c-0.1,0.1-0.2,0.1-0.3,0.2c-0.1,0-0.2,0-0.3-0.1c-0.1-0.1-0.1-0.1-0.1-0.2c0-0.6,0-1.2,0-1.8c-0.3,0.1-0.6,0.2-0.9,0.3
				C147.7,71.3,147.3,71.2,147,70.9z M147.5,68.5c-0.1,0.3-0.2,0.6-0.2,1.1c0,0.3,0.1,0.6,0.2,0.7c0.2,0.2,0.4,0.3,0.7,0.2
				c0.3-0.1,0.6-0.2,0.9-0.3c0-0.6,0-1.2,0.1-1.8c-0.2-0.2-0.4-0.3-0.5-0.3c-0.2-0.1-0.4-0.1-0.6,0
				C147.8,68.1,147.6,68.2,147.5,68.5z"/>
			<path d="M142.8,71.6c-0.3-0.3-0.4-0.8-0.4-1.3c0-0.5,0.1-1,0.3-1.4c0.3-0.5,0.7-0.8,1.2-0.9c0.7-0.1,1.2,0,1.5,0.5
				c0.3,0.4,0.5,0.8,0.4,1.4c0,0.6-0.2,1.1-0.6,1.5c-0.3,0.4-0.7,0.6-1.1,0.6C143.6,72.1,143.2,72,142.8,71.6z M143.1,70.4
				c0,0.3,0.1,0.6,0.3,0.8c0.2,0.2,0.4,0.2,0.7,0.2c0.2,0,0.4-0.2,0.6-0.4c0.2-0.2,0.3-0.5,0.3-0.9c0-0.4-0.1-0.7-0.2-0.9
				c-0.2-0.3-0.5-0.4-0.9-0.4C143.4,68.9,143.1,69.4,143.1,70.4z"/>
			<path d="M140.4,67.6c-0.1-0.1-0.1-0.2-0.1-0.3c0-0.1,0-0.2,0.1-0.3c0.1-0.1,0.2-0.2,0.3-0.2c0.1,0,0.2,0,0.3,0.1
				c0.1,0.1,0.1,0.2,0.1,0.3c0,0.1,0,0.2-0.1,0.3c-0.1,0.1-0.2,0.2-0.3,0.2C140.6,67.7,140.5,67.7,140.4,67.6z M140.5,69.9
				c0-0.3,0-0.6,0-0.9c0-0.1,0-0.2,0.1-0.3c0.1-0.1,0.2-0.1,0.3-0.2c0.1,0,0.2,0,0.3,0.1c0.1,0.1,0.1,0.1,0.1,0.3c0,0.2,0,0.5,0,0.9
				c0,0.3,0,0.6,0,0.9c0,0.1,0,0.4,0,0.7c0,0.3,0,0.5,0,0.6c0,0.1,0,0.2-0.1,0.3c-0.1,0.1-0.2,0.1-0.3,0.1c-0.1,0-0.2,0-0.3-0.1
				c-0.1-0.1-0.1-0.1-0.1-0.2c0-0.1,0-0.4,0-0.6c0-0.3,0-0.5,0-0.7C140.5,70.6,140.5,70.3,140.5,69.9z"/>
			<path d="M135.9,73.2c-0.1-0.1-0.1-0.1-0.1-0.2c0-0.2,0-0.4,0.1-0.8c0.1-0.3,0.1-0.6,0.1-0.8c0-0.1,0-0.2,0-0.3c0-0.1,0-0.2,0-0.4
				c0-0.5,0.1-0.8,0.2-1.1c0.2-0.4,0.5-0.6,0.9-0.7c0.5-0.1,0.9,0.2,1.3,0.7c0-0.1,0-0.3,0-0.4c0-0.3,0.2-0.5,0.4-0.6
				c0.1,0,0.2,0,0.3,0.1c0.1,0.1,0.1,0.1,0.1,0.3c0,0.1,0,0.2,0,0.4c0,0.2,0,0.3,0,0.4c0,0.3,0,0.6,0,1.1c0,0.4,0,0.8,0,1
				c0,0.1,0,0.2,0,0.3c0,0.1,0,0.3,0,0.3c0,0.1,0,0.2-0.1,0.3c-0.1,0.1-0.2,0.1-0.3,0.1c-0.1,0-0.2,0-0.3-0.1
				c-0.1-0.1-0.1-0.1-0.1-0.2c0-0.1,0-0.2,0-0.3c0-0.1,0-0.3,0-0.3c0-0.1,0-0.2,0-0.3c0-0.1,0-0.3,0-0.3c-0.1-0.4-0.3-0.8-0.5-1
				c-0.3-0.3-0.5-0.4-0.8-0.4c-0.2,0-0.3,0.3-0.3,0.8c0,0.1,0,0.2,0,0.3c0,0.2,0,0.3,0,0.3c0,0.2,0,0.5-0.1,0.8
				c0,0.3-0.1,0.5-0.1,0.8c0,0.2-0.2,0.3-0.4,0.4C136,73.3,135.9,73.3,135.9,73.2z"/>
			<path d="M132.1,70.3c-0.1-0.1-0.1-0.2-0.1-0.3c0-0.2,0.1-0.3,0.2-0.4c0.1,0,0.3-0.1,0.5-0.1c0,0,0.2,0,0.6,0c0-0.1,0-0.2,0-0.2
				c0-0.1,0-0.1,0-0.2c0-0.1,0-0.3,0-0.3c0-0.4,0.2-0.6,0.4-0.6c0.1,0,0.2,0,0.3,0.1c0.1,0.1,0.1,0.2,0.1,0.3c0,0.1,0,0.3,0,0.5
				c0,0.2,0,0.4,0,0.5c0.3-0.1,0.5-0.1,0.8-0.2c0.1,0,0.2,0,0.3,0.1c0.1,0.1,0.1,0.2,0.1,0.3c0,0.2-0.1,0.4-0.4,0.4
				c-0.4,0.1-0.7,0.1-0.9,0.2c0,0.7-0.1,1.4-0.1,2.1c0,0.1,0,0.2,0,0.4c0,0.2,0,0.3,0,0.4c0,0.1,0,0.2-0.1,0.2
				c-0.1,0.1-0.2,0.1-0.3,0.1c-0.3,0-0.4-0.2-0.4-0.7c0-0.1,0-0.1,0-0.2c0-0.1,0-0.1,0-0.2c0-0.7,0.1-1.4,0.1-2.2
				c-0.3,0-0.5,0-0.5,0c-0.1,0-0.1,0-0.2,0c-0.1,0-0.1,0-0.2,0C132.3,70.4,132.2,70.4,132.1,70.3z"/>
			<path d="M130.2,68.8c-0.1-0.1-0.1-0.2-0.1-0.3c0-0.1,0.1-0.2,0.1-0.3c0.1-0.1,0.2-0.1,0.3-0.2c0.1,0,0.2,0,0.3,0.1
				c0.1,0.1,0.1,0.2,0.1,0.3c0,0.1-0.1,0.2-0.1,0.3c-0.1,0.1-0.2,0.1-0.3,0.2C130.4,69,130.3,68.9,130.2,68.8z M130.3,71.2
				c0-0.3,0-0.6,0-0.9c0-0.1,0-0.2,0.1-0.3c0.1-0.1,0.2-0.1,0.3-0.1c0.1,0,0.2,0,0.3,0.1c0.1,0.1,0.1,0.2,0.1,0.3c0,0.2,0,0.5,0,0.9
				c0,0.3,0,0.6,0,0.9c0,0.1,0,0.4,0,0.6c0,0.3,0,0.5,0,0.6c0,0.1,0,0.2-0.1,0.3c-0.1,0.1-0.2,0.1-0.3,0.1c-0.1,0-0.2,0-0.3-0.1
				c-0.1-0.1-0.1-0.1-0.1-0.2c0-0.1,0-0.3,0-0.6c0-0.3,0-0.5,0-0.6C130.3,71.8,130.3,71.5,130.3,71.2z"/>
			<path d="M125.6,74c-0.1-0.1-0.1-0.1-0.1-0.2c0-0.2,0-0.4,0.1-0.8c0.1-0.3,0.1-0.6,0.1-0.8c0-0.1,0-0.2,0-0.3c0-0.1,0-0.2,0-0.4
				c0-0.5,0.1-0.8,0.2-1c0.2-0.4,0.5-0.6,0.9-0.6c0.5,0,0.9,0.3,1.3,0.8c0-0.1,0-0.3,0-0.4c0-0.3,0.2-0.5,0.4-0.5
				c0.1,0,0.2,0,0.3,0.1c0.1,0.1,0.1,0.2,0.1,0.3c0,0.1,0,0.2,0,0.4c0,0.2,0,0.3,0,0.4c0,0.3,0,0.6,0,1.1c0,0.4,0,0.8,0,1
				c0,0.1,0,0.2,0,0.3c0,0.1,0,0.2,0,0.3c0,0.1,0,0.2-0.1,0.3c-0.1,0.1-0.2,0.1-0.3,0.1c-0.1,0-0.2,0-0.3-0.1
				c-0.1-0.1-0.1-0.1-0.1-0.2c0-0.1,0-0.2,0-0.3c0-0.1,0-0.2,0-0.3c0-0.1,0-0.2,0-0.3c0-0.1,0-0.3,0-0.3c-0.1-0.4-0.3-0.8-0.5-1.1
				c-0.3-0.3-0.5-0.5-0.8-0.5c-0.2,0-0.3,0.3-0.3,0.8c0,0.1,0,0.2,0,0.3c0,0.2,0,0.3,0,0.3c0,0.2,0,0.5-0.1,0.8
				c0,0.3-0.1,0.5-0.1,0.8c0,0.2-0.2,0.3-0.4,0.3C125.8,74.1,125.7,74.1,125.6,74z"/>
			<path d="M121.4,71.6c0-0.3-0.1-0.5-0.1-0.7c0-0.3,0.2-0.4,0.4-0.4c0.1-0.1,0.2-0.2,0.4-0.3c0.2-0.1,0.4-0.1,0.6-0.1
				c0.7,0,1.3,0.2,1.7,0.7c0.4,0.4,0.6,1,0.6,1.6c0,0.5-0.2,0.9-0.5,1.1c-0.3,0.3-0.7,0.4-1.2,0.4c-0.3,0-0.5-0.1-0.7-0.2
				c-0.2-0.1-0.4-0.3-0.5-0.5c0,0.6,0,1,0.2,1.3c0.2,0.4,0.5,0.6,1,0.6c0.3,0,0.5,0,0.7-0.1c0.2,0,0.4-0.1,0.5-0.1
				c0.2,0,0.3,0.1,0.3,0.3c0,0.2-0.2,0.3-0.5,0.3c-0.2,0-0.5,0.1-0.9,0.1c-0.6,0-1-0.1-1.4-0.3c-0.3-0.2-0.4-0.4-0.5-0.8
				c-0.1-0.3-0.1-0.7-0.1-1.1c0-0.4,0-0.8,0-1.2C121.5,72.2,121.5,71.9,121.4,71.6z M122.5,70.8c-0.1,0-0.2,0.1-0.3,0.2
				c0,0.6,0.1,1,0.1,1.3c0,0.3,0.1,0.5,0.4,0.8c0.2,0.3,0.5,0.4,0.8,0.4c0.3,0,0.5-0.1,0.7-0.3c0.2-0.2,0.2-0.4,0.2-0.8
				c0-0.4-0.1-0.8-0.3-1.1c-0.3-0.3-0.6-0.5-1.1-0.5C122.7,70.7,122.6,70.7,122.5,70.8z"/>
			<path d="M115.3,70c-0.1-0.1-0.1-0.2-0.1-0.3c0-0.2,0.1-0.3,0.3-0.3c0.1,0,0.3,0,0.5,0c0,0,0.2,0.1,0.6,0.1c0-0.1,0-0.2,0-0.2
				c0-0.1,0-0.2,0-0.2c0-0.1,0-0.3,0-0.4c0.1-0.4,0.2-0.6,0.4-0.5c0.1,0,0.2,0.1,0.3,0.1c0.1,0.1,0.1,0.2,0.1,0.3c0,0.1,0,0.3,0,0.5
				c0,0.2,0,0.4,0,0.5c0.3,0,0.5,0,0.8,0c0.1,0,0.2,0.1,0.3,0.1c0.1,0.1,0.1,0.2,0.1,0.3c0,0.2-0.1,0.3-0.4,0.4c-0.4,0-0.7,0-0.9,0
				c-0.1,0.8-0.1,1.5-0.2,2.2c0,0.1,0,0.2,0,0.4c0,0.2,0,0.3,0,0.4c0,0.1,0,0.2-0.1,0.2c-0.1,0.1-0.2,0.1-0.3,0.1
				c-0.3,0-0.4-0.3-0.4-0.8c0-0.1,0-0.1,0-0.2c0-0.1,0-0.1,0-0.2c0.1-0.7,0.1-1.5,0.2-2.2c-0.3-0.1-0.5-0.1-0.5-0.1
				c-0.1,0-0.1,0-0.2,0c-0.1,0-0.1,0-0.2,0C115.4,70.2,115.3,70.1,115.3,70z"/>
			<path d="M110.7,72.8c-0.1-0.1-0.1-0.2-0.1-0.3c0,0,0-0.1,0-0.1c0.1-0.2,0.1-0.5,0.2-0.8c0-0.3,0.1-0.5,0.1-0.8
				c0-0.2,0-0.5,0.1-0.8c0-0.5,0.1-0.8,0.2-1c0.2-0.3,0.5-0.3,0.9-0.2c0.3,0.1,0.5,0.2,0.8,0.4c0.2,0.2,0.5,0.5,0.7,0.8
				c0-0.1,0-0.2,0-0.3c0-0.3,0-0.6,0-0.9c0-0.3,0-0.6,0-0.9c0-0.2,0-0.5,0.1-0.7c0-0.2,0.2-0.3,0.4-0.3c0.1,0,0.2,0.1,0.3,0.2
				c0.1,0.1,0.1,0.2,0.1,0.3c0,0.1,0,0.3-0.1,0.4c0,0.1,0,0.3-0.1,0.4c0,0.1,0,0.3,0,0.7c0,1-0.1,2-0.1,2.9c0,0.2,0,0.4,0,0.6
				c0,0.3,0,0.5,0,0.6c0,0.1,0,0.1,0,0.2c0,0.1,0,0.2-0.1,0.2c-0.1,0.1-0.2,0.1-0.3,0.1c-0.2,0-0.3-0.1-0.3-0.3
				c-0.1-0.2-0.1-0.8,0-1.7c-0.2-0.5-0.4-0.8-0.5-1c-0.2-0.4-0.5-0.6-0.9-0.6c-0.2-0.1-0.4,0.2-0.4,0.7c0,0.1,0,0.2,0,0.3
				c0,0.1,0,0.2,0,0.3c0,0.2,0,0.5-0.1,0.9c-0.1,0.4-0.1,0.7-0.2,0.9c-0.1,0.2-0.2,0.3-0.4,0.2C110.8,72.9,110.7,72.9,110.7,72.8z"
				/>
			<path d="M108.8,66.9c-0.1-0.1-0.1-0.2-0.1-0.4c0-0.1,0.1-0.2,0.2-0.3c0.1-0.1,0.2-0.1,0.3-0.1c0.1,0,0.2,0.1,0.3,0.2
				c0.1,0.1,0.1,0.2,0.1,0.4c0,0.1-0.1,0.2-0.2,0.3c-0.1,0.1-0.2,0.1-0.3,0.1C109,67.1,108.8,67.1,108.8,66.9z M108.8,69.5
				c0-0.4,0-0.7,0-1c0-0.1,0-0.2,0.1-0.3c0.1-0.1,0.2-0.1,0.3,0c0.1,0,0.2,0.1,0.3,0.2c0.1,0.1,0.1,0.2,0.1,0.3c0,0.3,0,0.6,0,1
				c0,0.4,0,0.7,0,0.9c0,0.2,0,0.4,0,0.7c0,0.3,0,0.5,0,0.7c0,0.1,0,0.2-0.1,0.3c-0.1,0.1-0.2,0.1-0.3,0c-0.1,0-0.2-0.1-0.3-0.2
				c-0.1-0.1-0.1-0.2-0.1-0.3c0-0.2,0-0.4,0-0.7c0-0.3,0-0.6,0-0.7C108.8,70.2,108.8,69.9,108.8,69.5z"/>
			<path d="M104.6,67.7c-0.1-0.1-0.1-0.2-0.1-0.3c0-0.1,0-0.2,0.1-0.3c0-0.1,0.1-0.3,0.1-0.3c0-0.1,0-0.2,0.1-0.3
				c0.1-0.1,0.2-0.1,0.3,0c0.1,0,0.2,0.1,0.3,0.2c0.1,0.1,0.4,0.3,0.7,0.5c0.3,0.2,0.6,0.4,0.7,0.5c0.5,0.4,0.7,0.9,0.7,1.5
				c0,0.3-0.1,0.5-0.4,0.6c-0.2,0.1-0.4,0.1-0.8,0.1c-0.1,0-0.3,0-0.4,0c-0.5,0-0.8,0.2-0.8,0.5c0,0.2,0.1,0.3,0.3,0.5
				c0.2,0.1,0.4,0.2,0.6,0.3c0.1,0,0.3,0.1,0.4,0.1c0.2,0,0.4,0,0.4,0c0.1-0.1,0.2-0.1,0.3-0.1c0.1,0,0.2,0.1,0.3,0.2
				c0.1,0.1,0.1,0.2,0.1,0.3c0,0.3-0.2,0.4-0.6,0.5c-0.3,0-0.6,0-1-0.1c-0.5-0.1-0.9-0.3-1.1-0.6c-0.4-0.3-0.5-0.7-0.5-1.2
				c0-0.6,0.3-0.9,0.7-1.1c0.3-0.1,0.8-0.1,1.4,0c0.1,0,0.2,0,0.2,0c0-0.3-0.2-0.5-0.6-0.9c-0.4-0.3-0.7-0.5-0.9-0.6
				c0,0.2-0.1,0.4-0.1,0.4c-0.1,0.1-0.2,0.1-0.3,0.1C104.7,67.9,104.6,67.8,104.6,67.7z"/>
			<path d="M203.8,73.7c-0.1-0.1-0.1-0.2-0.1-0.3c0-0.2,0.1-0.3,0.2-0.3c0.1,0,0.3,0,0.5,0c0,0,0.2,0.1,0.6,0.2c0-0.1,0-0.2,0-0.2
				c0-0.1,0-0.1,0-0.2c0-0.1,0-0.2,0-0.3c0-0.4,0.1-0.5,0.4-0.5c0.1,0,0.2,0.1,0.3,0.2c0.1,0.1,0.1,0.2,0.1,0.3c0,0.1,0,0.2,0,0.4
				c0,0.2,0,0.4,0,0.5c0.3,0,0.6,0.1,0.8,0.1c0.1,0,0.2,0.1,0.3,0.2c0.1,0.1,0.1,0.2,0.1,0.3c0,0.2-0.1,0.3-0.3,0.3
				c-0.4,0-0.7-0.1-0.9-0.1c0,0.7,0,1.4,0,2.1c0,0.1,0,0.2,0,0.4c0,0.2,0,0.3,0,0.4c0,0.1,0,0.2-0.1,0.2c-0.1,0.1-0.2,0.1-0.3,0.1
				c-0.3,0-0.4-0.3-0.5-0.8c0-0.1,0-0.1,0-0.2c0-0.1,0-0.1,0-0.2c0-0.7,0-1.5,0-2.2c-0.3-0.1-0.5-0.1-0.5-0.1c-0.1,0-0.1,0-0.2,0
				c-0.1,0-0.1,0-0.2,0C204,73.9,203.9,73.8,203.8,73.7z"/>
			<path d="M199.5,77.2c-0.1-0.1-0.1-0.2-0.1-0.3c0,0,0-0.1,0-0.1c0-0.3,0.1-0.6,0.1-0.9c0-0.3,0-0.6,0-0.9c0-0.3,0-0.5,0-0.8
				c0-0.5,0-0.9,0.2-1.1c0.1-0.3,0.4-0.4,0.9-0.4c0.3,0,0.5,0.1,0.8,0.3c0.3,0.2,0.5,0.4,0.7,0.7c0-0.1,0-0.2,0-0.4
				c0-0.3,0-0.6-0.1-0.9c0-0.3-0.1-0.6-0.1-0.9c0-0.2,0-0.4,0-0.7c0-0.2,0.1-0.3,0.4-0.3c0.1,0,0.2,0.1,0.3,0.2
				c0.1,0.1,0.1,0.2,0.1,0.3c0,0.1,0,0.2,0,0.4c0,0.1,0,0.2,0,0.4c0,0.1,0,0.3,0.1,0.7c0.1,1,0.1,1.9,0.2,2.9c0,0.2,0,0.4,0,0.6
				c0,0.3,0,0.5,0.1,0.6c0,0.1,0,0.1,0,0.2c0,0.1,0,0.2-0.1,0.3c-0.1,0.1-0.2,0.1-0.3,0.1c-0.2,0-0.3-0.1-0.4-0.3
				c-0.1-0.2-0.2-0.8-0.2-1.9c-0.3-0.5-0.5-0.8-0.6-1c-0.3-0.3-0.6-0.5-0.9-0.6c-0.2,0-0.4,0.2-0.3,0.8c0,0.1,0,0.2,0,0.3
				c0,0.2,0,0.3,0,0.3c0,0.3,0,0.6,0,1c0,0.4-0.1,0.8-0.1,1c0,0.2-0.2,0.3-0.4,0.3C199.7,77.3,199.6,77.3,199.5,77.2z"/>
			<path d="M195.4,76.9c-0.5-0.3-0.7-0.6-0.7-0.9c0-0.1,0-0.2,0.1-0.3c0.1-0.1,0.2-0.1,0.2-0.1c0.1,0,0.2,0.1,0.3,0.3
				c0.1,0.2,0.3,0.3,0.6,0.4c0.2,0.1,0.5,0.1,0.6,0.1c0.3,0,0.5-0.1,0.8-0.2c0.2-0.1,0.4-0.3,0.5-0.6c-0.5-0.3-1-0.6-1.5-0.9
				c-0.4-0.2-0.7-0.4-0.9-0.5c-0.3-0.3-0.5-0.5-0.5-0.8c0-0.4,0.1-0.7,0.5-0.9c0.3-0.2,0.6-0.2,1.1-0.2c0.6,0,1.1,0.4,1.5,0.9
				c0.4,0.5,0.5,1.2,0.6,1.9c0,0.7-0.2,1.2-0.5,1.5c-0.4,0.3-0.8,0.5-1.4,0.5C196.2,77.2,195.8,77.1,195.4,76.9z M195.6,73.4
				c0.2,0.2,0.6,0.5,1,0.7c0.4,0.2,0.8,0.5,1.2,0.7c-0.1-0.6-0.3-1-0.5-1.3c-0.2-0.3-0.5-0.4-0.8-0.5
				C196.1,73,195.8,73.1,195.6,73.4z"/>
			<path d="M188.7,76.5c-0.3-0.5-0.5-1.1-0.5-1.9c0-0.7,0.1-1.2,0.3-1.7c0.3-0.6,0.6-0.9,1.2-0.9c0.7,0,1.2,0.3,1.6,1
				c0.3,0.5,0.5,1.2,0.5,1.9c0,0.7-0.2,1.4-0.5,1.8c-0.3,0.4-0.7,0.6-1.1,0.6C189.5,77.3,189,77.1,188.7,76.5z M188.9,74.9
				c0,0.5,0.2,0.8,0.4,1.1c0.2,0.2,0.4,0.4,0.7,0.4c0.2,0,0.4-0.1,0.6-0.3c0.2-0.3,0.3-0.6,0.3-1.1c0-0.5-0.1-0.9-0.3-1.2
				c-0.2-0.4-0.5-0.7-0.9-0.7C189.1,73,188.8,73.6,188.9,74.9z"/>
			<path d="M184.2,72.9c-0.1-0.1-0.1-0.2-0.1-0.3c0-0.2,0.1-0.4,0.2-0.5c0.1,0,0.3-0.1,0.5-0.1c0,0,0.2,0,0.6,0.1c0-0.1,0-0.2,0-0.3
				c0-0.1,0-0.2,0-0.3c0-0.2,0-0.3,0-0.4c0-0.5,0.2-0.7,0.4-0.7c0.1,0,0.2,0,0.3,0.1c0.1,0.1,0.1,0.2,0.1,0.3c0,0.1,0,0.3,0,0.6
				c0,0.3,0,0.5,0,0.6c0.3,0,0.6-0.1,0.8-0.1c0.1,0,0.2,0,0.3,0.1c0.1,0.1,0.1,0.2,0.1,0.3c0,0.3-0.1,0.4-0.3,0.5
				c-0.4,0.1-0.7,0.1-0.9,0.1c0,0.9,0,1.9,0,2.9c0,0.1,0,0.3,0,0.6c0,0.3,0,0.4,0,0.6c0,0.1,0,0.2-0.1,0.3c-0.1,0.1-0.2,0.1-0.3,0.1
				c-0.3,0-0.4-0.4-0.4-1.1c0-0.1,0-0.2,0-0.3c0-0.1,0-0.1,0-0.2c0-1,0-2,0-2.9c-0.3,0-0.5-0.1-0.5-0.1c-0.1,0-0.1,0-0.2,0
				c-0.1,0-0.1,0-0.2,0C184.4,73,184.3,72.9,184.2,72.9z"/>
			<path d="M179.8,77.6c-0.1-0.1-0.1-0.2-0.1-0.3c0,0,0-0.1,0-0.1c0-0.3,0.1-0.6,0.1-1c0-0.3,0-0.7,0.1-1c0-0.3,0-0.6,0-0.9
				c0-0.6,0.1-1,0.2-1.2c0.2-0.4,0.5-0.5,0.9-0.6c0.3,0,0.5,0.1,0.8,0.2c0.3,0.2,0.5,0.4,0.7,0.8c0-0.1,0-0.3,0-0.4c0-0.4,0-0.7,0-1
				c0-0.4,0-0.7-0.1-1c0-0.2,0-0.5,0-0.8c0-0.3,0.2-0.4,0.4-0.4c0.1,0,0.2,0,0.3,0.1c0.1,0.1,0.1,0.2,0.1,0.3c0,0.1,0,0.3,0,0.4
				c0,0.1,0,0.3,0,0.4c0,0.1,0,0.4,0,0.8c0,1.2,0.1,2.3,0.1,3.5c0,0.2,0,0.5,0,0.7c0,0.4,0,0.6,0.1,0.7c0,0.1,0,0.2,0,0.2
				c0,0.1,0,0.3-0.1,0.4c-0.1,0.1-0.2,0.2-0.3,0.2c-0.2,0-0.3-0.1-0.4-0.3c-0.1-0.2-0.1-1-0.2-2.2c-0.2-0.5-0.4-0.9-0.6-1.1
				c-0.3-0.4-0.6-0.5-0.9-0.5c-0.2,0-0.4,0.3-0.4,0.9c0,0.1,0,0.2,0,0.4c0,0.2,0,0.3,0,0.4c0,0.3,0,0.7,0,1.2c0,0.5-0.1,0.9-0.1,1.2
				c-0.1,0.3-0.2,0.4-0.4,0.4C180,77.7,179.9,77.7,179.8,77.6z"/>
			<path d="M175.7,77.5c-0.5-0.2-0.7-0.5-0.7-0.9c0-0.1,0-0.2,0.1-0.3c0.1-0.1,0.2-0.1,0.2-0.1c0.1,0,0.2,0.1,0.3,0.2
				c0.1,0.2,0.3,0.3,0.6,0.4c0.2,0.1,0.5,0.1,0.6,0.1c0.3,0,0.5-0.1,0.8-0.3c0.2-0.2,0.4-0.4,0.5-0.7c-0.5-0.3-1-0.5-1.5-0.8
				c-0.4-0.2-0.7-0.4-0.8-0.5c-0.3-0.2-0.5-0.5-0.5-0.8c0-0.4,0.2-0.8,0.5-1c0.3-0.2,0.6-0.3,1.1-0.4c0.6,0,1.1,0.2,1.5,0.8
				c0.3,0.5,0.5,1.2,0.5,2.1c0,0.7-0.2,1.3-0.6,1.8c-0.4,0.4-0.8,0.6-1.4,0.6C176.5,77.8,176.1,77.7,175.7,77.5z M176,73.8
				c0.2,0.2,0.6,0.4,1,0.6c0.4,0.2,0.8,0.4,1.2,0.6c-0.1-0.6-0.3-1.1-0.5-1.3c-0.2-0.3-0.5-0.4-0.8-0.4
				C176.5,73.4,176.2,73.6,176,73.8z"/>
			<path d="M171.1,74.2c0-0.4,0-0.7,0.1-0.9c0.1-0.2,0.3-0.3,0.5-0.3c0.6-0.1,1.2,0.2,1.7,0.7c0-0.5,0.1-0.8,0.4-0.8
				c0.2,0,0.3,0.1,0.4,0.4c0,0.1,0,0.3,0,0.5c0,0.2,0,0.4,0,0.5c0,1.1,0,2.2,0.1,3.4c0,0.3-0.1,0.5-0.3,0.5c-0.3,0-0.4-0.1-0.4-0.5
				c0-0.9,0-1.8,0-2.6c-0.2-0.4-0.4-0.7-0.6-0.9c-0.3-0.2-0.6-0.3-1-0.3c0,0.1,0,0.3,0,0.4c0,0.2,0,0.3,0,0.3c0,0.3-0.1,0.5-0.3,0.5
				c-0.2,0-0.4-0.2-0.4-0.5C171.1,74.4,171.1,74.3,171.1,74.2z"/>
			<path d="M163.1,74.5c0-0.1,0-0.2,0.1-0.3c0.1-0.1,0.2-0.1,0.3-0.2c0.2,0,0.3,0,0.3,0.2c0.2,0.7,0.4,1.5,0.5,2.3
				c0.1,0.4,0.2,0.8,0.3,1.2c0.1-0.4,0.2-1,0.3-1.7c0.1-0.7,0.2-1.2,0.2-1.6c0.1-0.4,0.2-0.6,0.4-0.6c0.2,0,0.4,0.1,0.5,0.4
				c0.3,1.1,0.6,2.1,0.9,3.1c0.1-0.7,0.1-1.4,0.2-2c0-0.2,0-0.4,0.1-0.7c0-0.3,0-0.5,0.1-0.7c0-0.2,0.2-0.4,0.4-0.4
				c0.1,0,0.2,0,0.3,0.1c0.1,0.1,0.1,0.2,0.1,0.3c0,0.2,0,0.4,0,0.7c0,0.2-0.1,0.5-0.1,0.7c-0.1,0.8-0.2,1.4-0.3,1.9
				c-0.2,0.9-0.4,1.4-0.6,1.4c-0.2,0-0.3-0.1-0.4-0.2c-0.1-0.1-0.1-0.1-0.2-0.3c-0.2-0.6-0.4-1.2-0.6-1.8c-0.1-0.3-0.2-0.5-0.3-0.8
				c0,0.3-0.1,0.7-0.1,1c-0.1,0.4-0.1,0.8-0.2,1c-0.2,0.8-0.4,1.2-0.7,1.3c-0.2,0-0.3-0.1-0.4-0.2c-0.2-0.3-0.3-0.5-0.4-0.8
				c-0.3-1.2-0.6-2.2-0.8-3.1C163.2,74.6,163.1,74.5,163.1,74.5z"/>
			<path d="M159,79c-0.1-0.1-0.1-0.2-0.1-0.3c0,0,0,0,0-0.1c0-0.1,0.1-0.2,0.1-0.2c0.1-0.4,0.2-0.6,0.2-0.7c0-0.2,0.1-0.5,0.1-0.8
				c0-0.4,0-0.7,0-0.9c0-0.2,0-0.4-0.1-0.5c-0.1,0-0.1-0.1-0.1-0.2c0-0.2,0.2-0.4,0.5-0.6c0.3-0.2,0.5-0.3,0.8-0.3
				c0.6-0.1,1.1,0.1,1.6,0.5c0.4,0.4,0.7,1,0.7,1.7c0,0.7-0.1,1.3-0.4,1.7c-0.3,0.4-0.7,0.6-1.3,0.7c-0.1,0-0.3,0-0.5-0.1
				c-0.2-0.1-0.4-0.1-0.7-0.3c-0.1,0.1-0.1,0.2-0.3,0.3c-0.1,0.1-0.2,0.2-0.3,0.2C159.2,79.1,159.1,79.1,159,79z M160,77.8
				c0.2,0.1,0.3,0.2,0.4,0.3c0.2,0.1,0.4,0.1,0.6,0.1c0.3,0,0.5-0.2,0.7-0.4c0.2-0.2,0.2-0.6,0.2-1.1c0-0.5-0.2-0.9-0.5-1.2
				c-0.3-0.3-0.7-0.4-1.1-0.4c0,0-0.1,0-0.2,0.1c-0.1,0-0.2,0.1-0.3,0.1c0,0.2,0.1,0.3,0.1,0.4c0,0.1,0,0.3,0,0.4
				C160.1,76.5,160.1,77.1,160,77.8z"/>
			<path d="M154.7,75.6c0-0.1,0-0.2,0.1-0.3c0.1-0.1,0.2-0.1,0.3-0.2c0.1,0,0.2,0,0.3,0.2c0.2,0.3,0.4,0.7,0.6,1.1
				c0.2,0.4,0.4,0.8,0.6,1.3c0.5-1.2,1-2.1,1.4-2.8c0.1-0.1,0.2-0.2,0.3-0.2c0.1,0,0.2,0,0.3,0.1c0.1,0.1,0.1,0.2,0.1,0.3
				c0,0.1,0,0.2-0.1,0.3c-0.1,0.1-0.1,0.2-0.2,0.3c-0.5,1-0.9,1.9-1.4,2.9c0.6,1.2,0.9,2,0.9,2.2c0,0.1,0,0.2-0.1,0.3
				c-0.1,0.1-0.2,0.1-0.3,0.1c-0.2,0-0.3-0.1-0.4-0.3c-0.1-0.3-0.2-0.5-0.3-0.7c-0.2-0.5-0.4-1-0.8-1.7c-0.5-0.9-0.9-1.8-1.4-2.7
				C154.7,75.8,154.7,75.7,154.7,75.6z"/>
			<path d="M153.2,79.5c-0.1-0.1-0.1-0.2-0.1-0.3c0-0.1,0-0.2,0.1-0.3c0.1-0.1,0.2-0.2,0.3-0.2c0.1,0,0.3,0,0.3,0.1
				c0.1,0.1,0.1,0.2,0.1,0.3c0,0.1,0,0.2-0.1,0.3c-0.1,0.1-0.2,0.1-0.3,0.2C153.4,79.7,153.3,79.6,153.2,79.5z"/>
		</g>
	</g>
	<g>
	</g>
	<g>
	</g>
	<g>
	</g>
	<g>
	</g>
	<g>
	</g>
	<g>
	</g>
</g>
</svg>
