<?xml version="1.0" encoding="UTF-8" standalone="no"?>
<svg
   xmlns:dc="http://purl.org/dc/elements/1.1/"
   xmlns:cc="http://creativecommons.org/ns#"
   xmlns:rdf="http://www.w3.org/1999/02/22-rdf-syntax-ns#"
   xmlns:svg="http://www.w3.org/2000/svg"
   xmlns="http://www.w3.org/2000/svg"
   xmlns:sodipodi="http://sodipodi.sourceforge.net/DTD/sodipodi-0.dtd"
   xmlns:inkscape="http://www.inkscape.org/namespaces/inkscape"
   inkscape:version="1.0 (4035a4fb49, 2020-05-01)"
   sodipodi:docname="paperclips svg inkscape.svg"
   id="svg254"
   xml:space="preserve"
   style="enable-background:new 0 0 595.3 841.9;"
   viewBox="0 0 595.3 841.9"
   y="0px"
   x="0px"
   version="1.1"><metadata
   id="metadata260"><rdf:RDF><cc:Work
       rdf:about=""><dc:format>image/svg+xml</dc:format><dc:type
         rdf:resource="http://purl.org/dc/dcmitype/StillImage" /></cc:Work></rdf:RDF></metadata><defs
   id="defs258" /><sodipodi:namedview
   inkscape:current-layer="g1279"
   inkscape:window-maximized="1"
   inkscape:window-y="-6"
   inkscape:window-x="3833"
   inkscape:cy="48.318631"
   inkscape:cx="138.07276"
   inkscape:zoom="4.0859958"
   showgrid="false"
   id="namedview256"
   inkscape:window-height="1388"
   inkscape:window-width="3440"
   inkscape:pageshadow="2"
   inkscape:pageopacity="0"
   guidetolerance="10"
   gridtolerance="10"
   objecttolerance="10"
   borderopacity="1"
   bordercolor="#666666"
   pagecolor="#ffffff" />
<style
   id="style2"
   type="text/css">
	.st0{fill:none;stroke:#EC008C;stroke-miterlimit:10;}
	.st1{fill:#F6871F;}
	.st2{fill:#FBE725;}
	.st3{fill:#010101;}
	.st4{fill:#FFFFFF;}
</style>





<g
   style="display:inline"
   inkscape:label="Edge.Cuts"
   id="layer1"
   inkscape:groupmode="layer"><g
     id="Cut">
	<path
   id="path5"
   d="M 278.2,80 C 271.8,52.1 241.6,33.9 213.1,22.7 165.7,3.6 22,-21.3 4,43.5 c -4.1,21.6 12,43 28.3,57.2 33.9,28.9 78.1,43.2 122.3,47.4 26.2,2.3 53.9,0.5 78.4,-8.9 24.8,-9 51.2,-31 45.3,-59.1 z"
   class="st0" />
</g></g><g
   style="display:inline"
   inkscape:label="F.SilkS"
   id="layer2"
   inkscape:groupmode="layer"><g
     id="F.SilkS">
	<g
   id="g24">
		<path
   id="path8"
   d="M 73.4,16.7 74,16.6 c 0.2,0.4 0.4,0.6 0.7,0.6 l 12.6,-1.9 c 0.3,-0.1 0.5,-0.3 0.4,-0.7 l 0.7,-0.1 0.8,5.5 -1,0.2 c -0.5,-2.7 -2.1,-3.9 -5,-3.5 l -0.8,0.1 2.3,14.7 c 0.2,1.5 1.1,2.1 2.5,1.9 l 0.1,0.7 -7,1.1 -0.1,-0.7 c 0.9,-0.1 1.4,-0.4 1.7,-0.8 0.2,-0.4 0.3,-1 0.2,-1.8 l -2.3,-14.7 -1,0.2 c -2.7,0.4 -3.8,2 -3.5,4.8 l -1,0.2 z"
   class="st1" />
		<path
   id="path10"
   d="m 92.2,18.5 7.1,0.5 v 0.7 c -0.9,0 -1.5,0.1 -1.8,0.4 -0.3,0.3 -0.5,0.9 -0.6,1.8 l -0.3,5 8.9,0.6 0.3,-5 c 0.1,-0.9 -0.1,-1.6 -0.4,-1.9 -0.3,-0.3 -0.9,-0.5 -1.7,-0.6 v -0.7 l 7.1,0.5 v 0.7 c -0.9,0 -1.5,0.1 -1.8,0.4 -0.3,0.3 -0.5,0.9 -0.6,1.8 l -0.8,12.6 c -0.1,0.9 0.1,1.6 0.4,1.9 0.3,0.3 0.9,0.5 1.7,0.6 v 0.7 L 102.6,38 v -0.7 c 0.9,0 1.4,-0.1 1.8,-0.4 0.3,-0.3 0.5,-0.9 0.6,-1.8 l 0.4,-6.7 -8.9,-0.6 -0.4,6.7 c -0.1,1.5 0.6,2.3 2.1,2.4 v 0.7 L 91,37.1 v -0.7 c 0.9,0 1.5,-0.1 1.8,-0.4 0.3,-0.3 0.5,-0.9 0.6,-1.8 L 94.2,21.6 C 94.3,20.7 94.1,20 93.8,19.7 93.5,19.4 92.9,19.2 92.1,19.1 Z"
   class="st1" />
		<path
   id="path12"
   d="m 123.2,23.3 0.7,0.1 -0.5,5.5 -1.1,-0.1 c 0.1,-1.5 -0.2,-2.5 -0.9,-3.3 -0.7,-0.7 -2,-1.2 -3.6,-1.3 l -1.1,-0.1 c -0.2,1 -0.4,2 -0.4,2.8 -0.2,1.7 0,2.9 0.6,3.7 0.6,0.8 1.6,1.3 3,1.5 l 1.4,0.1 -0.1,1 -5.3,-0.4 -0.8,8.3 1.5,0.1 c 3.2,0.3 5.3,-1.1 6,-4.1 l 1,0.1 -1.8,5.9 -0.7,-0.1 c 0,-0.4 -0.1,-0.7 -0.5,-0.7 l -10.6,-1 0.1,-0.7 c 0.9,0.1 1.5,0 1.8,-0.3 0.3,-0.3 0.5,-0.9 0.6,-1.8 L 113.7,26 c 0.1,-0.9 0,-1.6 -0.3,-1.9 -0.3,-0.3 -0.9,-0.5 -1.7,-0.6 l 0.1,-0.7 10.3,1 c 0.7,0.2 1.1,0 1.1,-0.5 z"
   class="st1" />
		<path
   id="path14"
   d="m 139,59.5 c -2.8,2.9 -5.5,4.5 -8,4.7 -2.1,0.2 -4,-0.5 -5.7,-1.9 -1.8,-1.4 -2.8,-3.5 -3,-6.3 -0.2,-1.9 0.1,-3.7 0.8,-5.3 0.7,-1.6 1.8,-3 3.3,-4.1 1.5,-1.2 3.3,-1.8 5.5,-2 1.9,-0.2 3.7,0 5.5,0.4 l 0.4,4.4 -1,0.1 c -0.2,-1.4 -0.9,-2.4 -2.1,-3.1 -1.2,-0.7 -2.5,-0.9 -4,-0.8 -2.1,0.2 -3.7,1.1 -4.7,2.7 -1.1,1.6 -1.5,3.6 -1.3,5.8 0.2,2.4 1.1,4.4 2.6,5.8 1.5,1.5 3.3,2.1 5.5,1.9 2.1,-0.2 4.3,-1.3 6.4,-3.3 z"
   class="st1" />
		<path
   id="path16"
   d="m 141.9,48.1 6.9,1.6 -0.2,0.7 c -0.9,-0.2 -1.5,-0.1 -1.8,0.1 -0.4,0.2 -0.6,0.8 -0.8,1.7 l -3.3,14.5 1.8,0.4 c 2.9,0.7 4.9,-0.5 6.2,-3.3 l 1,0.2 -2.6,5.6 -0.7,-0.1 c 0.1,-0.4 -0.1,-0.7 -0.5,-0.8 l -10.3,-2.4 0.2,-0.7 c 0.8,0.2 1.5,0.2 1.8,-0.1 0.4,-0.2 0.7,-0.8 0.8,-1.7 l 2.8,-12.3 c 0.2,-0.9 0.2,-1.5 -0.1,-1.9 -0.3,-0.4 -0.8,-0.6 -1.6,-0.8 z"
   class="st1" />
		<path
   id="path18"
   d="m 160.1,46.5 c -0.9,0 -1.5,0.2 -1.8,0.5 -0.3,0.3 -0.5,0.9 -0.5,1.8 v 12.6 c 0,1.5 0.7,2.3 2.2,2.3 v 0.7 h -7 v -0.7 c 0.9,0 1.5,-0.2 1.8,-0.5 0.3,-0.3 0.5,-0.9 0.5,-1.8 V 48.8 c 0,-0.9 -0.2,-1.6 -0.5,-1.8 -0.3,-0.2 -0.9,-0.4 -1.7,-0.5 v -0.7 h 7.1 v 0.7 z"
   class="st1" />
		<path
   id="path20"
   d="m 162.3,46.2 9.2,-0.7 c 1.6,-0.1 2.8,0.1 3.6,0.7 0.8,0.6 1.2,1.3 1.3,2.3 0.1,1.6 -0.5,3.1 -1.9,4.6 -1.4,1.5 -2.8,2.3 -4.4,2.4 -0.3,0 -0.7,0 -1.1,-0.1 -0.4,-0.1 -0.8,-0.2 -1.2,-0.3 l 0.4,6.2 c 0.1,1.5 0.9,2.2 2.4,2.1 l 0.1,0.7 -7.1,0.5 -0.1,-0.7 c 0.9,-0.1 1.4,-0.3 1.7,-0.6 0.3,-0.3 0.4,-1 0.3,-1.8 L 164.7,49 c -0.1,-0.9 -0.3,-1.5 -0.6,-1.8 -0.3,-0.3 -0.9,-0.4 -1.7,-0.3 z m 5,1.3 0.4,5.8 c 0.7,0.4 1.3,0.7 1.8,0.9 0.6,0.2 1.1,0.3 1.6,0.2 0.9,-0.1 1.6,-0.4 2,-1.1 0.4,-0.6 0.6,-1.6 0.5,-2.8 -0.1,-1.3 -0.5,-2.3 -1.1,-3.1 -0.6,-0.8 -1.5,-1.2 -2.6,-1.1 -1,0.1 -1.8,0.5 -2.6,1.2 z"
   class="st1" />
		<path
   id="path22"
   d="m 179.8,56.6 c -0.5,-0.4 -0.8,-0.8 -1.1,-1.3 -0.3,-0.5 -0.4,-1 -0.4,-1.5 -0.1,-1.4 0.5,-2.7 1.7,-3.8 1.2,-1.1 2.7,-1.8 4.4,-1.9 0.9,-0.1 2,0.1 3.5,0.5 l 0.3,4.5 -1.1,0.1 c -0.2,-1.3 -0.6,-2.3 -1.4,-3 -0.8,-0.8 -1.6,-1.1 -2.6,-1 -0.8,0.1 -1.5,0.4 -2,0.9 -0.5,0.5 -0.7,1.2 -0.7,2 0,0.7 0.4,1.4 0.9,2 0.6,0.6 1.9,1.5 4,2.7 1.6,0.9 2.7,1.7 3.2,2.3 0.6,0.6 0.9,1.4 0.9,2.3 0.1,1.5 -0.5,2.9 -1.8,4.2 -1.3,1.3 -2.9,2 -4.6,2.1 -1.3,0.1 -2.7,-0.1 -4.3,-0.6 l -0.3,-5.2 1,-0.1 c 0.1,1.5 0.6,2.7 1.5,3.6 0.9,0.9 2,1.4 3.1,1.3 1.1,-0.1 1.9,-0.4 2.5,-1.1 0.6,-0.7 0.8,-1.5 0.8,-2.5 -0.1,-0.8 -0.4,-1.6 -0.9,-2.2 -0.6,-0.6 -1.8,-1.4 -3.7,-2.5 -1,-0.6 -2,-1.2 -2.9,-1.8 z"
   class="st1" />
	</g>
</g></g><g
   style="display:inline"
   inkscape:label="B.SilkS"
   id="layer3"
   inkscape:groupmode="layer"><g
     id="B.Silks">
	<g
   id="Hey_there_x2C__looks_like_you_x2019_re_trying_to_install_your_shiny._You_should_try_pointing_this_the_other_w">
		<g
   id="g238">
			<path
   id="path68"
   d="m 201.7,47 c -0.1,-0.1 -0.1,-0.1 -0.1,-0.2 0,-0.2 0.1,-0.3 0.3,-0.3 0.8,0 1.4,-0.1 1.9,0 0.6,0 1,0.1 1.2,0.1 0.2,0 0.4,0.2 0.4,0.4 0,0.1 0,0.2 -0.1,0.2 -0.1,0.1 -0.2,0.1 -0.3,0.1 -0.2,0 -0.3,0 -0.5,-0.1 -0.2,0 -0.3,0 -0.5,-0.1 0.1,0.8 0.2,1.4 0.2,1.9 0,0.1 0,0.3 0,0.5 0,0.2 0,0.4 0,0.6 0,0.2 0,0.4 0.1,0.6 0.4,0.1 0.7,0.2 0.8,0.3 0.1,0 0.2,0.1 0.3,0.2 0.1,0.1 0.1,0.2 0.1,0.3 0,0.1 0,0.2 -0.1,0.2 -0.1,0 -0.2,0.1 -0.3,0 -0.2,0 -0.4,-0.1 -0.8,-0.2 -0.3,-0.1 -0.6,-0.2 -0.8,-0.2 -0.1,0 -0.4,-0.1 -0.6,-0.2 -0.3,-0.1 -0.5,-0.1 -0.6,-0.1 -0.1,0 -0.2,-0.1 -0.3,-0.1 -0.1,-0.1 -0.1,-0.2 -0.1,-0.3 0,-0.1 0,-0.2 0.1,-0.2 0.1,0 0.2,-0.1 0.3,0 0.4,0.1 0.8,0.2 1.2,0.3 0,-0.2 0,-0.4 -0.1,-0.6 0,-0.2 0,-0.3 0,-0.6 0,-0.2 0,-0.4 0,-0.6 0,-0.6 -0.1,-1.2 -0.2,-1.8 -0.2,0 -0.4,0 -0.6,0 -0.2,0 -0.5,0 -0.6,0 -0.2,0 -0.2,-0.1 -0.3,-0.1 z" />
			<path
   id="path70"
   d="m 198,47.7 c -0.1,-0.1 -0.1,-0.1 -0.1,-0.2 0,-0.1 0.1,-0.2 0.2,-0.2 0.1,0 0.3,0 0.5,0 0,0 0.2,0 0.5,0.1 0,-0.1 0,-0.1 0,-0.2 0,-0.1 0,-0.1 0,-0.2 0,-0.1 0,-0.2 0,-0.2 0,-0.3 0.1,-0.4 0.4,-0.4 0.1,0 0.2,0 0.3,0.1 0.1,0.1 0.1,0.1 0.1,0.2 0,0.1 0,0.2 0,0.3 0,0.2 0,0.3 0,0.4 0.3,0 0.5,0 0.8,0 0.1,0 0.2,0 0.3,0.1 0.1,0.1 0.1,0.1 0.1,0.2 0,0.2 -0.1,0.3 -0.3,0.3 -0.4,0 -0.7,0 -0.8,-0.1 0,0.6 0,1.1 0,1.7 0,0.1 0,0.2 0,0.3 0,0.2 0,0.3 0,0.3 0,0.1 0,0.1 -0.1,0.2 -0.1,0 -0.2,0 -0.3,0 -0.3,-0.1 -0.4,-0.3 -0.4,-0.7 0,0 0,-0.1 0,-0.1 0,0 0,-0.1 0,-0.1 0,-0.6 0,-1.1 0,-1.7 -0.3,-0.1 -0.5,-0.1 -0.5,-0.1 -0.1,0 -0.1,0 -0.2,0 -0.1,0 -0.1,0 -0.2,0 -0.1,0.1 -0.2,0.1 -0.3,0 z" />
			<path
   id="path72"
   d="m 193.8,46.7 c 0,-0.3 -0.1,-0.6 -0.1,-0.8 0,-0.1 0.1,-0.2 0.4,-0.2 0.2,0 0.4,0.1 0.4,0.2 0,0.2 0,0.5 0.1,0.8 0,0.3 0.1,0.6 0.1,0.9 0,0.2 0,0.5 0.1,0.9 0.1,0.4 0.1,0.7 0.1,1 0,0.2 -0.1,0.3 -0.4,0.2 -0.2,0 -0.4,-0.1 -0.4,-0.3 0,-0.3 -0.1,-0.5 -0.1,-0.6 0,-0.4 -0.1,-0.9 -0.1,-1.3 -0.1,-0.2 -0.1,-0.5 -0.1,-0.8 z" />
			<path
   id="path74"
   d="m 190.1,48.9 c -0.3,-0.3 -0.5,-0.6 -0.5,-1 0,-0.3 0.1,-0.6 0.2,-0.8 0.2,-0.3 0.6,-0.4 1.1,-0.4 0.6,0 1.1,0.2 1.5,0.6 0.3,0.3 0.5,0.6 0.5,1 0,0.4 -0.2,0.7 -0.5,0.9 -0.3,0.2 -0.7,0.3 -1.1,0.2 -0.5,0.1 -0.9,-0.1 -1.2,-0.5 z m 0.2,-0.8 c 0,0.2 0.2,0.4 0.4,0.6 0.2,0.1 0.4,0.2 0.7,0.2 0.2,0 0.4,0 0.6,-0.1 0.2,-0.1 0.3,-0.3 0.3,-0.5 0,-0.2 -0.1,-0.5 -0.3,-0.6 -0.2,-0.2 -0.5,-0.4 -0.9,-0.4 -0.7,-0.1 -0.9,0.2 -0.8,0.8 z" />
			<path
   id="path76"
   d="m 185.9,48.7 c -0.3,-0.3 -0.5,-0.6 -0.5,-0.9 0,-0.3 0.1,-0.6 0.3,-0.8 0.2,-0.3 0.6,-0.4 1.1,-0.4 0.6,0 1.1,0.2 1.5,0.5 0.3,0.3 0.5,0.6 0.5,1 0,0.4 -0.2,0.7 -0.5,0.9 -0.3,0.2 -0.7,0.3 -1.1,0.3 -0.5,-0.1 -0.9,-0.3 -1.3,-0.6 z m 0.2,-0.8 c 0,0.2 0.2,0.4 0.4,0.6 0.2,0.1 0.4,0.2 0.7,0.2 0.2,0 0.4,0 0.6,-0.1 0.2,-0.1 0.3,-0.3 0.3,-0.5 0,-0.2 -0.1,-0.4 -0.3,-0.6 -0.2,-0.2 -0.5,-0.3 -0.9,-0.4 -0.6,-0.1 -0.8,0.2 -0.8,0.8 z" />
			<path
   id="path78"
   d="m 181,49 c -0.1,-0.1 -0.1,-0.1 -0.1,-0.2 0,-0.1 0.2,-0.3 0.6,-0.7 0.3,-0.2 0.5,-0.5 0.8,-0.7 -0.5,-0.3 -0.9,-0.5 -1.2,-0.7 -0.1,-0.1 -0.1,-0.1 -0.1,-0.2 0,-0.1 0,-0.1 0.1,-0.2 0.1,0 0.2,-0.1 0.3,-0.1 0.1,0 0.2,0 0.3,0.1 0.3,0.2 0.6,0.4 0.9,0.5 0.3,0.2 0.7,0.4 1,0.6 0,-0.3 0,-0.5 -0.1,-0.8 0,-0.2 0,-0.5 -0.1,-0.7 0,-0.1 0,-0.1 0,-0.2 0,-0.1 0,-0.2 0,-0.2 0,-0.1 0,-0.1 0.1,-0.1 0.1,0 0.2,-0.1 0.3,0 0.1,0 0.2,0 0.3,0.1 0.1,0 0.1,0.1 0.1,0.2 0,0.1 0,0.1 0,0.2 0,0.1 0,0.2 0,0.2 0,0.2 0,0.5 0.1,0.8 0,0.3 0,0.6 0.1,0.8 0,0.1 0,0.3 0.1,0.6 0,0.3 0.1,0.5 0.1,0.6 0,0.2 -0.1,0.3 -0.4,0.3 -0.1,0 -0.2,0 -0.3,-0.1 -0.1,0 -0.1,-0.1 -0.1,-0.2 0,-0.2 0,-0.5 -0.1,-0.8 -0.3,-0.1 -0.6,-0.3 -0.7,-0.3 -0.2,0.2 -0.4,0.4 -0.7,0.6 -0.3,0.2 -0.5,0.4 -0.6,0.6 -0.1,0.1 -0.2,0.2 -0.3,0.2 C 181.2,49 181.1,49 181,49 Z" />
			<path
   id="path80"
   d="m 177.3,46.9 c -0.1,0 -0.1,-0.1 -0.1,-0.2 0,0 0,-0.1 0,-0.2 0,-0.1 0,-0.2 0,-0.2 0,-0.1 0,-0.1 0.1,-0.2 0.1,0 0.2,-0.1 0.3,-0.1 0.1,0 0.2,0 0.3,0 0.1,0 0.4,0.1 0.7,0.2 0.3,0.1 0.6,0.1 0.7,0.2 0.5,0.1 0.8,0.4 0.8,0.7 0,0.2 -0.1,0.3 -0.3,0.4 -0.1,0.1 -0.4,0.1 -0.7,0.2 -0.1,0 -0.3,0 -0.4,0.1 -0.5,0.1 -0.7,0.2 -0.7,0.5 0,0.1 0.1,0.2 0.4,0.2 0.2,0 0.4,0 0.6,0 0.1,0 0.3,0 0.4,0 0.2,0 0.4,-0.1 0.4,-0.1 0.1,-0.1 0.2,-0.1 0.3,-0.1 0.1,0 0.2,0 0.3,0.1 0.1,0.1 0.1,0.1 0.1,0.2 0,0.2 -0.2,0.3 -0.6,0.4 -0.3,0.1 -0.6,0.1 -1,0.1 -0.5,0 -0.8,0 -1.1,-0.2 -0.4,-0.1 -0.6,-0.4 -0.6,-0.6 0,-0.3 0.2,-0.6 0.6,-0.8 0.3,-0.1 0.7,-0.2 1.3,-0.3 0.1,0 0.1,0 0.2,0 0,-0.2 -0.2,-0.3 -0.6,-0.4 -0.4,-0.1 -0.7,-0.1 -0.9,-0.2 0,0.1 -0.1,0.2 -0.1,0.3 -0.1,0.1 -0.2,0.1 -0.3,0.1 0.1,0 0,0 -0.1,-0.1 z" />
			<path
   id="path82"
   d="m 173,46 c 0,-0.3 0,-0.7 0,-0.9 0,-0.2 0.1,-0.2 0.4,-0.2 0.2,0 0.4,0.1 0.4,0.3 0,0.3 0,0.6 0,0.9 0,0.3 0,0.7 0,0.9 0,0.2 0,0.5 0.1,1 0,0.4 0.1,0.8 0.1,1 0,0.2 -0.1,0.3 -0.4,0.3 -0.2,0 -0.4,-0.1 -0.4,-0.3 0,-0.3 0,-0.5 0,-0.7 0,-0.5 -0.1,-0.9 -0.1,-1.4 C 173,46.7 173,46.4 173,46 Z" />
			<path
   id="path84"
   d="m 170.8,45.6 c -0.1,-0.1 -0.1,-0.1 -0.1,-0.2 0,-0.1 0,-0.2 0.1,-0.2 0.1,-0.1 0.2,-0.1 0.3,-0.1 0.1,0 0.2,0 0.3,0.1 0.1,0.1 0.1,0.1 0.1,0.2 0,0.1 0,0.2 -0.1,0.2 -0.1,0.1 -0.2,0.1 -0.3,0.1 -0.1,0 -0.2,-0.1 -0.3,-0.1 z m 0.1,1.7 c 0,-0.3 -0.1,-0.5 -0.1,-0.7 0,-0.1 0,-0.2 0.1,-0.2 0.1,-0.1 0.2,-0.1 0.3,-0.1 0.1,0 0.2,0 0.3,0.1 0.1,0.1 0.1,0.1 0.1,0.2 0,0.2 0,0.4 0.1,0.6 0,0.3 0.1,0.5 0.1,0.7 0,0.1 0,0.3 0,0.5 0,0.2 0,0.4 0,0.5 0,0.1 0,0.2 -0.1,0.2 -0.1,0.1 -0.2,0.1 -0.3,0.1 -0.1,0 -0.2,0 -0.3,-0.1 C 171,49 171,49 171,48.9 c 0,-0.1 0,-0.3 0,-0.5 0,-0.2 0,-0.4 0,-0.5 0,-0.1 0,-0.4 -0.1,-0.6 z" />
			<path
   id="path86"
   d="m 166.2,49.6 c -0.1,-0.1 -0.1,-0.1 -0.1,-0.2 0,-0.1 0.2,-0.4 0.6,-0.9 0.3,-0.3 0.5,-0.6 0.8,-1 -0.5,-0.3 -0.9,-0.6 -1.2,-0.9 -0.1,-0.1 -0.1,-0.1 -0.1,-0.2 0,-0.1 0,-0.2 0.1,-0.2 0.1,-0.1 0.2,-0.1 0.3,-0.1 0.1,0 0.2,0 0.3,0.1 0.3,0.2 0.6,0.5 0.9,0.7 0.3,0.2 0.7,0.5 1,0.7 0,-0.3 0,-0.7 0,-1 0,-0.3 0,-0.6 0,-0.9 0,-0.1 0,-0.2 0,-0.3 0,-0.1 0,-0.2 0,-0.3 0,-0.1 0,-0.1 0.1,-0.2 0.1,0 0.2,-0.1 0.3,-0.1 0.1,0 0.2,0 0.3,0.1 0.1,0.1 0.1,0.1 0.1,0.2 0,0.1 0,0.2 0,0.3 0,0.1 0,0.2 0,0.3 0,0.3 0,0.6 0,1 0,0.4 0,0.7 0,1 0,0.2 0,0.4 0.1,0.7 0,0.3 0.1,0.6 0.1,0.7 0,0.3 -0.1,0.4 -0.4,0.4 -0.1,0 -0.2,0 -0.3,-0.1 -0.1,-0.1 -0.1,-0.1 -0.1,-0.2 0,-0.3 0,-0.6 -0.1,-0.9 -0.3,-0.2 -0.5,-0.3 -0.7,-0.4 -0.2,0.3 -0.4,0.5 -0.7,0.8 -0.3,0.3 -0.5,0.6 -0.6,0.8 -0.1,0.1 -0.2,0.2 -0.3,0.2 -0.2,0 -0.3,0 -0.4,-0.1 z" />
			<path
   id="path88"
   d="m 162.5,49.8 c -0.5,-0.1 -0.7,-0.4 -0.7,-0.6 0,-0.1 0,-0.2 0.1,-0.2 0.1,-0.1 0.1,-0.1 0.2,-0.1 0.1,0 0.2,0 0.3,0.2 0.1,0.1 0.3,0.2 0.6,0.3 0.2,0 0.4,0.1 0.6,0 0.3,0 0.5,-0.1 0.7,-0.2 0.2,-0.1 0.4,-0.3 0.5,-0.4 -0.5,-0.2 -1,-0.3 -1.5,-0.5 -0.4,-0.1 -0.7,-0.3 -0.8,-0.3 -0.3,-0.2 -0.4,-0.4 -0.4,-0.6 0,-0.3 0.2,-0.6 0.5,-0.7 0.3,-0.1 0.6,-0.2 1,-0.2 0.6,0 1.1,0.2 1.4,0.6 0.3,0.4 0.5,0.8 0.5,1.4 0,0.5 -0.2,0.9 -0.6,1.2 -0.4,0.3 -0.8,0.4 -1.4,0.5 -0.2,-0.2 -0.6,-0.3 -1,-0.4 z m 0.3,-2.6 c 0.2,0.1 0.5,0.3 1,0.5 0.4,0.1 0.8,0.3 1.2,0.4 -0.1,-0.4 -0.3,-0.7 -0.5,-0.9 -0.2,-0.2 -0.5,-0.3 -0.8,-0.3 -0.4,0 -0.7,0.1 -0.9,0.3 z" />
			<path
   id="path90"
   d="m 155.4,46.8 c 0,-0.1 0,-0.2 0.1,-0.3 0.1,-0.1 0.2,-0.1 0.3,-0.1 0.1,0 0.2,0.1 0.3,0.2 0.2,0.3 0.4,0.7 0.6,1.2 0.2,0.4 0.4,0.9 0.6,1.3 0.5,-1.1 1,-2 1.4,-2.6 0.1,-0.1 0.2,-0.1 0.3,-0.1 0.1,0 0.2,0 0.3,0.1 0.1,0.1 0.1,0.2 0.1,0.3 0,0.1 0,0.2 -0.1,0.3 -0.1,0.1 -0.1,0.2 -0.2,0.3 -0.5,0.9 -0.9,1.7 -1.4,2.7 0.6,1.2 0.8,1.8 0.8,2.1 0,0.1 0,0.2 -0.1,0.3 -0.1,0.1 -0.2,0.1 -0.3,0.1 -0.2,0 -0.3,-0.1 -0.3,-0.2 -0.1,-0.2 -0.2,-0.5 -0.3,-0.7 -0.2,-0.4 -0.4,-1 -0.8,-1.7 -0.4,-0.9 -0.9,-1.9 -1.3,-2.8 0,-0.3 0,-0.3 0,-0.4 z" />
			<path
   id="path92"
   d="m 152,50.4 c -0.3,-0.4 -0.4,-0.9 -0.4,-1.6 0,-0.6 0.1,-1.1 0.3,-1.5 0.3,-0.5 0.7,-0.8 1.2,-0.8 0.6,0 1.1,0.3 1.5,0.8 0.3,0.5 0.5,1 0.4,1.6 0,0.6 -0.2,1.1 -0.5,1.5 -0.3,0.4 -0.7,0.6 -1.1,0.6 -0.7,0 -1.1,-0.2 -1.4,-0.6 z m 0.2,-1.4 c 0,0.4 0.1,0.7 0.3,0.9 0.2,0.2 0.4,0.3 0.7,0.3 0.2,0 0.4,-0.1 0.6,-0.3 0.2,-0.2 0.3,-0.5 0.3,-0.9 0,-0.4 -0.1,-0.7 -0.2,-1 -0.2,-0.4 -0.5,-0.6 -0.9,-0.5 -0.5,-0.2 -0.8,0.4 -0.8,1.5 z" />
			<path
   id="path94"
   d="m 147.4,46.9 c 0,-0.1 0,-0.2 0.1,-0.3 0.1,-0.1 0.2,-0.1 0.3,-0.1 0.2,0 0.3,0.1 0.4,0.4 0,0.5 0.1,1.1 0.1,1.7 0,0.3 0,0.6 0,0.9 0,0.3 0,0.6 0,0.9 0.4,0.1 0.7,0.1 1.1,0.1 0.1,0 0.2,0 0.2,-0.1 0.1,0 0.2,-0.1 0.3,-0.1 0.1,-0.2 0.1,-0.5 0.1,-0.8 0,-0.3 0,-0.8 0,-1.3 0,-0.2 0,-0.4 -0.1,-0.7 0,-0.3 -0.1,-0.5 -0.1,-0.6 0,-0.1 0,-0.2 0.1,-0.3 0.1,-0.1 0.2,-0.1 0.3,-0.1 0.2,0 0.3,0.1 0.4,0.4 0.1,0.5 0.1,1 0.1,1.4 0,0.6 -0.1,1.3 -0.2,2 0,0.4 -0.2,0.6 -0.4,0.8 -0.2,0.2 -0.5,0.3 -0.8,0.3 -0.4,0 -0.8,0 -1.1,-0.2 -0.1,0.3 -0.2,0.4 -0.4,0.5 -0.1,0 -0.2,0 -0.3,-0.1 -0.1,-0.1 -0.1,-0.2 -0.1,-0.3 0,-0.1 0,-0.2 0,-0.3 0,-0.1 0,-0.2 0,-0.3 0,-0.2 0,-0.5 0,-1 0,-0.4 0,-0.8 0,-1 0,-0.7 0,-1.2 0,-1.8 z" />
			<path
   id="path96"
   d="m 146.2,45.8 c -0.1,-0.7 -0.2,-1.2 -0.2,-1.5 0,-0.1 0,-0.2 0.1,-0.3 0.1,-0.1 0.1,-0.1 0.2,-0.1 0.2,0 0.3,0.1 0.3,0.4 0,0.3 0.1,0.6 0.1,0.8 0.1,0.3 0.1,0.6 0.1,0.7 0,0.3 -0.1,0.4 -0.3,0.4 -0.2,0.1 -0.3,-0.1 -0.3,-0.4 z" />
			<path
   id="path98"
   d="m 142.1,47.7 c 0,-0.4 0.1,-0.7 0.2,-0.9 0.1,-0.2 0.3,-0.3 0.5,-0.3 0.6,0 1.1,0.3 1.6,0.9 0,-0.5 0.1,-0.8 0.4,-0.8 0.2,0 0.3,0.2 0.3,0.5 0,0.1 0,0.3 0,0.5 0,0.2 0,0.4 0,0.5 0,1.1 0,2.2 0,3.3 0,0.3 -0.1,0.5 -0.3,0.5 -0.3,0 -0.4,-0.1 -0.4,-0.4 0,-0.9 0,-1.7 0,-2.6 -0.1,-0.4 -0.3,-0.7 -0.6,-0.9 -0.2,-0.2 -0.6,-0.4 -1,-0.4 0,0.1 0,0.3 0,0.4 0,0.2 0,0.3 0,0.3 0,0.3 -0.1,0.5 -0.3,0.5 -0.2,0 -0.4,-0.2 -0.4,-0.6 0,-0.2 0,-0.3 0,-0.5 z" />
			<path
   id="path100"
   d="m 138.3,51.8 c -0.5,-0.2 -0.7,-0.6 -0.7,-0.9 0,-0.1 0,-0.2 0.1,-0.3 0.1,-0.1 0.2,-0.1 0.2,-0.1 0.1,0 0.2,0.1 0.3,0.3 0.1,0.2 0.3,0.3 0.6,0.4 0.2,0.1 0.4,0.1 0.6,0.1 0.3,0 0.5,-0.1 0.8,-0.2 0.2,-0.2 0.4,-0.4 0.5,-0.6 -0.5,-0.3 -1,-0.6 -1.5,-0.8 -0.4,-0.2 -0.7,-0.4 -0.8,-0.6 -0.3,-0.3 -0.4,-0.6 -0.4,-0.9 0,-0.5 0.2,-0.9 0.5,-1.1 0.3,-0.2 0.6,-0.3 1,-0.3 0.6,0 1,0.3 1.4,1 0.3,0.6 0.5,1.3 0.5,2.2 0,0.7 -0.2,1.3 -0.6,1.7 -0.4,0.4 -0.8,0.6 -1.4,0.6 -0.3,-0.2 -0.7,-0.3 -1.1,-0.5 z m 0.4,-3.9 c 0.2,0.2 0.5,0.5 1,0.8 0.4,0.2 0.8,0.5 1.2,0.7 -0.1,-0.6 -0.2,-1.1 -0.4,-1.4 -0.2,-0.3 -0.5,-0.5 -0.8,-0.5 -0.5,0 -0.8,0.1 -1,0.4 z" />
			<path
   id="path102"
   d="m 131.8,47.4 c -0.1,-0.1 -0.1,-0.2 -0.1,-0.4 0,-0.3 0.1,-0.5 0.2,-0.5 0.1,0 0.3,-0.1 0.5,0 0,0 0.2,0 0.5,0.1 0,-0.1 0,-0.2 0,-0.3 0,-0.1 0,-0.2 0,-0.3 0,-0.2 0,-0.4 0,-0.5 0,-0.6 0.2,-0.8 0.4,-0.8 0.1,0 0.2,0.1 0.3,0.2 0.1,0.1 0.1,0.2 0.1,0.4 0,0.1 0,0.4 0,0.7 0,0.3 0,0.6 0,0.8 0.3,0 0.5,-0.1 0.8,-0.1 0.1,0 0.2,0.1 0.3,0.2 0.1,0.1 0.1,0.2 0.1,0.4 0,0.3 -0.1,0.5 -0.3,0.5 -0.4,0.1 -0.7,0.1 -0.9,0.1 0,1.1 -0.1,2.1 -0.1,3.1 0,0.1 0,0.3 0,0.6 0,0.3 0,0.5 0,0.6 0,0.1 0,0.2 -0.1,0.3 -0.1,0.1 -0.2,0.1 -0.3,0.1 -0.3,0 -0.4,-0.4 -0.4,-1.1 0,-0.1 0,-0.2 0,-0.3 0,-0.1 0,-0.2 0,-0.2 0,-1 0.1,-2.1 0.1,-3.2 -0.3,-0.1 -0.5,-0.1 -0.5,-0.1 -0.1,0 -0.1,0 -0.2,0 -0.1,0 -0.1,0 -0.2,0 0,-0.1 -0.1,-0.2 -0.2,-0.3 z" />
			<path
   id="path104"
   d="m 128,47.7 c 0,-0.5 0.1,-0.8 0.2,-1 0.1,-0.2 0.3,-0.3 0.5,-0.3 0.6,0 1.1,0.4 1.6,1.1 0,-0.6 0.1,-0.9 0.4,-0.9 0.2,0 0.3,0.2 0.3,0.6 0,0.1 0,0.3 0,0.6 0,0.2 0,0.4 0,0.6 0,1.3 0,2.6 -0.1,3.8 0,0.4 -0.1,0.5 -0.3,0.5 -0.3,0 -0.4,-0.2 -0.4,-0.5 0,-1 0,-2 0.1,-3 -0.1,-0.5 -0.3,-0.8 -0.5,-1.1 -0.2,-0.3 -0.6,-0.4 -1,-0.5 0,0.2 0,0.3 0,0.5 0,0.2 0,0.3 0,0.4 0,0.4 -0.1,0.6 -0.3,0.5 -0.2,0 -0.4,-0.2 -0.4,-0.7 C 128,48.1 128,47.9 128,47.7 Z" />
			<path
   id="path106"
   d="m 123.8,46.8 c 0,-0.2 0,-0.3 0.1,-0.4 0.1,-0.1 0.2,-0.2 0.3,-0.2 0.1,0 0.2,0.1 0.3,0.3 0.2,0.5 0.4,1.1 0.6,1.8 0.2,0.7 0.4,1.3 0.5,1.9 0.5,-1.6 1,-2.9 1.5,-3.7 0.1,-0.1 0.2,-0.2 0.3,-0.2 0.1,0 0.2,0.1 0.3,0.2 0.1,0.1 0.1,0.3 0.1,0.4 0,0.1 0,0.3 -0.1,0.4 -0.1,0.1 -0.1,0.3 -0.2,0.4 -0.5,1.3 -1,2.6 -1.5,3.8 0.5,1.7 0.8,2.7 0.8,3.1 0,0.1 0,0.3 -0.1,0.4 -0.1,0.1 -0.2,0.1 -0.3,0.1 -0.2,0 -0.3,-0.1 -0.3,-0.4 -0.1,-0.3 -0.2,-0.7 -0.2,-1 -0.2,-0.6 -0.4,-1.5 -0.7,-2.5 -0.4,-1.4 -0.8,-2.8 -1.2,-4.2 -0.2,0 -0.2,-0.1 -0.2,-0.2 z" />
			<path
   id="path108"
   d="M 122.1,44.7 C 122,44.6 122,44.4 122,44.2 c 0,-0.2 0.1,-0.3 0.1,-0.5 0.1,-0.1 0.2,-0.2 0.3,-0.2 0.1,0 0.2,0.1 0.3,0.2 0.1,0.1 0.1,0.3 0.1,0.5 0,0.2 -0.1,0.3 -0.1,0.5 -0.1,0.1 -0.2,0.2 -0.3,0.2 -0.1,0 -0.2,-0.1 -0.3,-0.2 z m 0,3.5 c 0,-0.5 0,-1 0,-1.3 0,-0.2 0,-0.3 0.1,-0.4 0.1,-0.1 0.2,-0.2 0.3,-0.1 0.1,0 0.2,0.1 0.3,0.2 0.1,0.1 0.1,0.3 0.1,0.4 0,0.4 0,0.8 0,1.3 0,0.5 0,1 0,1.3 0,0.2 0,0.6 0,1 0,0.4 0,0.8 0,1 0,0.2 0,0.3 -0.1,0.4 -0.1,0.1 -0.2,0.1 -0.3,0.1 -0.1,0 -0.2,-0.1 -0.3,-0.2 -0.1,-0.1 -0.1,-0.2 -0.1,-0.4 0,-0.2 0,-0.5 0,-1 0,-0.4 0,-0.8 0,-1 0,-0.3 0,-0.8 0,-1.3 z" />
			<path
   id="path110"
   d="m 117.5,51.9 c -0.1,-0.1 -0.1,-0.2 -0.1,-0.4 0,-0.3 0,-0.7 0.1,-1.1 0.1,-0.5 0.1,-0.9 0.1,-1.2 0,-0.2 0,-0.3 0,-0.5 0,-0.2 0,-0.4 0,-0.6 0,-0.7 0.1,-1.2 0.2,-1.5 0.2,-0.5 0.5,-0.8 0.9,-0.7 0.5,0 0.9,0.5 1.3,1.4 0,-0.2 0,-0.4 0,-0.7 0,-0.5 0.2,-0.7 0.4,-0.7 0.1,0 0.2,0.1 0.3,0.2 0.1,0.1 0.1,0.2 0.1,0.4 0,0.1 0,0.3 0,0.5 0,0.2 0,0.4 0,0.5 0,0.4 0,0.9 0,1.6 0,0.7 0,1.2 0,1.6 0,0.1 0,0.3 0,0.5 0,0.2 0,0.4 0,0.5 0,0.2 0,0.3 -0.1,0.4 -0.1,0.1 -0.2,0.1 -0.3,0.1 -0.1,0 -0.2,-0.1 -0.3,-0.2 -0.1,-0.1 -0.1,-0.2 -0.1,-0.4 0,-0.1 0,-0.3 0,-0.5 0,-0.2 0,-0.4 0,-0.5 0,-0.2 0,-0.3 0,-0.5 0,-0.2 0,-0.4 0,-0.5 -0.1,-0.7 -0.3,-1.3 -0.5,-1.7 -0.2,-0.5 -0.5,-0.8 -0.8,-0.8 -0.2,0 -0.3,0.4 -0.3,1.2 0,0.1 0,0.3 0,0.5 0,0.2 0,0.4 0,0.5 0,0.4 0,0.8 -0.1,1.2 0,0.4 -0.1,0.8 -0.1,1.2 0,0.3 -0.2,0.5 -0.4,0.5 -0.1,-0.1 -0.2,-0.2 -0.3,-0.3 z" />
			<path
   id="path112"
   d="m 113.5,47.9 c 0,-0.4 -0.1,-0.8 0,-1 0,-0.4 0.2,-0.6 0.4,-0.6 0.1,-0.2 0.2,-0.3 0.4,-0.4 0.2,-0.1 0.4,-0.1 0.6,-0.1 0.7,0.1 1.3,0.4 1.6,1.1 0.4,0.6 0.6,1.5 0.5,2.4 0,0.7 -0.2,1.3 -0.5,1.7 -0.3,0.4 -0.7,0.6 -1.2,0.5 -0.2,0 -0.5,-0.1 -0.6,-0.3 -0.2,-0.2 -0.3,-0.5 -0.5,-0.8 0,0.9 0,1.5 0.1,2 0.2,0.7 0.5,1 1,1.1 0.3,0 0.5,0 0.7,0 0.2,0 0.4,0 0.5,0 0.2,0 0.3,0.2 0.3,0.5 0,0.3 -0.2,0.4 -0.5,0.5 -0.2,0 -0.5,0 -0.9,0 -0.6,-0.1 -1,-0.3 -1.3,-0.7 -0.2,-0.3 -0.4,-0.7 -0.5,-1.3 -0.1,-0.4 -0.1,-1 -0.1,-1.7 0,-0.6 0,-1.2 0,-1.8 0.1,-0.2 0,-0.6 0,-1.1 z m 1,-1.1 c -0.1,0 -0.2,0.1 -0.3,0.2 0,0.8 0.1,1.4 0.1,1.8 0,0.4 0.1,0.7 0.3,1.1 0.2,0.4 0.5,0.7 0.7,0.7 0.3,0 0.5,-0.1 0.6,-0.3 0.1,-0.2 0.2,-0.6 0.2,-1.1 0,-0.7 -0.1,-1.2 -0.3,-1.7 -0.3,-0.5 -0.6,-0.8 -1.1,-0.8 0.1,0 -0.1,0 -0.2,0.1 z" />
			<path
   id="path114"
   d="m 107.4,45.8 c -0.1,-0.1 -0.1,-0.2 -0.1,-0.4 0,-0.2 0.1,-0.4 0.3,-0.4 0.1,0 0.3,0 0.5,0 0,0 0.2,0.1 0.5,0.1 0,-0.1 0,-0.2 0,-0.3 0,-0.1 0,-0.2 0,-0.3 0,-0.2 0,-0.3 0,-0.4 0.1,-0.5 0.2,-0.7 0.4,-0.7 0.1,0 0.2,0.1 0.3,0.2 0.1,0.1 0.1,0.2 0.1,0.4 0,0.1 0,0.3 0,0.6 0,0.3 0,0.5 0,0.7 0.3,0 0.5,0 0.8,0 0.1,0 0.2,0.1 0.3,0.2 0.1,0.1 0.1,0.2 0.1,0.4 0,0.3 -0.1,0.5 -0.4,0.5 -0.4,0 -0.7,0 -0.9,0 -0.1,1 -0.1,1.9 -0.2,2.9 0,0.1 0,0.3 0,0.6 0,0.3 0,0.4 0,0.6 0,0.1 0,0.2 -0.1,0.3 -0.1,0.1 -0.2,0.1 -0.3,0.1 -0.3,-0.1 -0.4,-0.4 -0.4,-1.1 0,-0.1 0,-0.2 0,-0.2 0,-0.1 0,-0.1 0,-0.2 0.1,-1 0.1,-1.9 0.2,-2.9 -0.3,-0.1 -0.5,-0.1 -0.5,-0.1 -0.1,0 -0.1,0 -0.2,0 -0.1,0 -0.1,0 -0.2,0 0,-0.4 -0.1,-0.5 -0.2,-0.6 z" />
			<path
   id="path116"
   d="m 103.7,48.7 c -0.3,-0.5 -0.4,-1.1 -0.4,-1.8 0,-0.6 0.1,-1.1 0.4,-1.5 0.3,-0.5 0.7,-0.7 1.2,-0.6 0.6,0.1 1.1,0.5 1.5,1.1 0.3,0.6 0.4,1.2 0.4,2 0,0.7 -0.3,1.3 -0.6,1.6 -0.3,0.3 -0.7,0.4 -1.1,0.3 -0.7,-0.1 -1.1,-0.5 -1.4,-1.1 z m 0.3,-1.4 c 0,0.4 0.1,0.8 0.3,1.1 0.2,0.3 0.4,0.4 0.7,0.5 0.2,0.1 0.4,0 0.6,-0.2 0.2,-0.2 0.3,-0.5 0.4,-1 0,-0.4 0,-0.9 -0.2,-1.2 -0.2,-0.5 -0.5,-0.7 -0.8,-0.8 -0.7,-0.1 -1,0.5 -1,1.6 z" />
			<path
   id="path118"
   d="m 204.5,55.3 c -0.1,-0.1 -0.1,-0.2 -0.2,-0.3 0,-0.1 0,-0.2 0.1,-0.2 0.1,0 0.2,-0.1 0.3,0 0.1,0 0.2,0.1 0.3,0.2 0.1,0.1 0.1,0.2 0.2,0.3 0,0.1 0,0.2 -0.1,0.2 -0.1,0 -0.2,0.1 -0.3,0 -0.1,-0.1 -0.2,-0.1 -0.3,-0.2 z m 0.3,2.1 c 0,-0.3 -0.1,-0.6 -0.1,-0.8 0,-0.1 0,-0.2 0.1,-0.2 0.1,0 0.2,0 0.3,0 0.1,0 0.2,0.1 0.3,0.2 0.1,0.1 0.1,0.2 0.1,0.3 0,0.2 0,0.5 0.1,0.8 0,0.3 0.1,0.6 0.1,0.8 0,0.1 0,0.3 0,0.6 0,0.3 0,0.5 0,0.6 0,0.1 0,0.2 -0.1,0.2 -0.1,0 -0.2,0 -0.3,0 -0.1,0 -0.2,-0.1 -0.3,-0.2 -0.1,-0.1 -0.1,-0.2 -0.1,-0.3 0,-0.1 0,-0.3 0,-0.6 0,-0.3 0,-0.5 0,-0.6 -0.1,-0.2 -0.1,-0.5 -0.1,-0.8 z" />
			<path
   id="path120"
   d="m 200.4,58.4 c -0.1,-0.1 -0.1,-0.2 -0.1,-0.3 0,-0.2 0,-0.4 0,-0.7 0,-0.3 0.1,-0.5 0,-0.7 0,-0.1 0,-0.2 0,-0.3 0,-0.1 0,-0.2 0,-0.3 0,-0.4 0,-0.7 0.1,-0.9 0.1,-0.3 0.4,-0.3 0.8,-0.2 0.5,0.1 0.9,0.5 1.4,1.1 0,-0.1 0,-0.3 0,-0.4 0,-0.3 0.1,-0.4 0.4,-0.3 0.1,0 0.2,0.1 0.3,0.2 0.1,0.1 0.1,0.2 0.1,0.3 0,0.1 0,0.2 0,0.3 0,0.1 0,0.2 0,0.3 0,0.2 0.1,0.6 0.1,1 0.1,0.4 0.1,0.8 0.1,1 0,0.1 0,0.2 0,0.3 0,0.1 0,0.2 0,0.3 0,0.1 0,0.2 -0.1,0.2 -0.1,0 -0.2,0 -0.3,0 -0.1,0 -0.2,-0.1 -0.3,-0.2 -0.1,-0.1 -0.1,-0.2 -0.1,-0.3 0,-0.1 0,-0.2 0,-0.3 0,-0.1 0,-0.2 0,-0.3 0,-0.1 0,-0.2 0,-0.3 0,-0.1 0,-0.3 -0.1,-0.3 -0.2,-0.5 -0.4,-0.9 -0.6,-1.2 -0.3,-0.4 -0.6,-0.6 -0.9,-0.7 -0.2,-0.1 -0.3,0.2 -0.3,0.6 0,0.1 0,0.2 0,0.3 0,0.2 0,0.3 0,0.3 0,0.2 0,0.5 0,0.7 0,0.2 0,0.5 -0.1,0.7 0,0.2 -0.1,0.3 -0.4,0.2 0.2,0.1 0.1,0 0,-0.1 z" />
			<path
   id="path122"
   d="m 196.4,54.8 c -0.1,-0.1 -0.1,-0.2 -0.1,-0.3 0,-0.1 0,-0.1 0,-0.3 0,-0.1 0,-0.2 0,-0.3 0,-0.1 0,-0.2 0.1,-0.2 0.1,0 0.2,-0.1 0.3,0 0.1,0 0.2,0.1 0.3,0.1 0.2,0.1 0.4,0.2 0.7,0.3 0.3,0.1 0.6,0.3 0.8,0.4 0.5,0.3 0.8,0.7 0.8,1.1 0,0.2 -0.1,0.4 -0.3,0.5 -0.1,0.1 -0.4,0.1 -0.7,0.1 -0.1,0 -0.3,0 -0.4,0 -0.5,0 -0.7,0.1 -0.7,0.4 0,0.1 0.1,0.3 0.4,0.4 0.2,0.1 0.4,0.1 0.6,0.2 0.1,0 0.3,0 0.4,0.1 0.2,0 0.4,0 0.4,0 0.1,-0.1 0.2,-0.1 0.3,-0.1 0.1,0 0.2,0.1 0.3,0.2 0.1,0.1 0.1,0.2 0.1,0.3 0,0.2 -0.2,0.3 -0.6,0.4 -0.3,0 -0.6,0 -1,-0.1 -0.5,-0.1 -0.9,-0.3 -1.2,-0.5 -0.4,-0.3 -0.6,-0.6 -0.6,-0.9 0,-0.4 0.2,-0.7 0.6,-0.9 0.3,-0.1 0.7,-0.1 1.3,-0.1 0.1,0 0.1,0 0.2,0 0,-0.2 -0.2,-0.4 -0.7,-0.6 -0.4,-0.2 -0.7,-0.3 -0.9,-0.4 0,0.2 0,0.3 -0.1,0.3 -0.1,0.1 -0.1,0.1 -0.3,0.1 0.2,-0.1 0.1,-0.1 0,-0.2 z" />
			<path
   id="path124"
   d="m 192.6,53.9 c -0.1,-0.1 -0.1,-0.1 -0.1,-0.2 0,-0.2 0.1,-0.2 0.2,-0.3 0.1,0 0.3,0 0.5,0 0,0 0.2,0 0.6,0.1 0,-0.1 0,-0.1 0,-0.2 0,-0.1 0,-0.1 0,-0.2 0,-0.1 0,-0.2 0,-0.3 0,-0.3 0.1,-0.4 0.4,-0.4 0.1,0 0.2,0.1 0.3,0.1 0.1,0.1 0.1,0.1 0.1,0.2 0,0.1 0,0.2 0,0.4 0,0.2 0,0.3 0,0.4 0.3,0 0.5,0 0.8,0.1 0.1,0 0.2,0.1 0.3,0.1 0.1,0.1 0.1,0.2 0.1,0.2 0,0.2 -0.1,0.3 -0.3,0.3 -0.4,0 -0.7,-0.1 -0.9,-0.1 0,0.6 0,1.2 0,1.9 0,0.1 0,0.2 0,0.4 0,0.2 0,0.3 0,0.4 0,0.1 0,0.2 -0.1,0.2 -0.1,0 -0.2,0.1 -0.3,0 -0.3,0 -0.4,-0.3 -0.4,-0.8 0,-0.1 0,-0.1 0,-0.2 0,0 0,-0.1 0,-0.1 0,-0.6 0,-1.3 0,-1.9 -0.3,-0.1 -0.5,-0.1 -0.5,-0.1 -0.1,0 -0.1,0 -0.2,0 -0.1,0 -0.1,0 -0.2,0 -0.1,0.1 -0.2,0.1 -0.3,0 z" />
			<path
   id="path126"
   d="m 188.6,56.5 c -0.1,-0.1 -0.1,-0.1 -0.1,-0.2 0,0 0,0 0,-0.1 0,-0.1 0.1,-0.1 0.1,-0.2 0.1,-0.3 0.2,-0.5 0.2,-0.6 0,-0.2 0.1,-0.4 0,-0.6 0,-0.3 0,-0.5 -0.1,-0.7 0,-0.2 0,-0.3 -0.1,-0.4 -0.1,0 -0.1,-0.1 -0.1,-0.2 0,-0.2 0.2,-0.3 0.5,-0.4 0.3,-0.1 0.5,-0.1 0.7,-0.1 0.6,0 1.1,0.3 1.6,0.7 0.4,0.4 0.7,0.9 0.7,1.4 0,0.6 -0.1,1 -0.3,1.2 -0.3,0.3 -0.7,0.4 -1.3,0.3 -0.1,0 -0.3,-0.1 -0.5,-0.1 -0.2,-0.1 -0.4,-0.2 -0.7,-0.3 -0.1,0.1 -0.1,0.1 -0.2,0.2 -0.1,0.1 -0.2,0.1 -0.3,0.1 0,0.1 -0.1,0.1 -0.1,0 z m 0.9,-0.8 c 0.2,0.1 0.3,0.2 0.4,0.3 0.2,0.1 0.4,0.1 0.6,0.2 0.3,0 0.5,0 0.7,-0.2 0.1,-0.2 0.2,-0.4 0.2,-0.8 0,-0.4 -0.2,-0.7 -0.5,-1 -0.3,-0.3 -0.7,-0.5 -1.1,-0.5 0,0 -0.1,0 -0.2,0 -0.1,0 -0.1,0 -0.2,0.1 0,0.1 0.1,0.2 0.1,0.3 0,0.1 0,0.2 0,0.3 0,0.3 0,0.7 0,1.3 z" />
			<path
   id="path128"
   d="m 186.6,52.7 c 0,-0.4 -0.1,-0.8 -0.1,-1.1 0,-0.2 0.1,-0.3 0.4,-0.3 0.3,0 0.4,0.1 0.4,0.3 0,0.3 0,0.7 0.1,1.1 0,0.4 0.1,0.8 0.1,1.1 0,0.3 0,0.6 0.1,1.2 0.1,0.5 0.1,0.9 0.1,1.2 0,0.2 -0.1,0.3 -0.4,0.3 -0.2,0 -0.4,-0.1 -0.4,-0.4 0,-0.3 -0.1,-0.6 -0.1,-0.8 0,-0.5 -0.1,-1.1 -0.1,-1.6 0,-0.3 -0.1,-0.6 -0.1,-1 z" />
			<path
   id="path130"
   d="m 184.4,52.6 c 0,-0.4 -0.1,-0.8 -0.1,-1.1 0,-0.2 0.1,-0.3 0.4,-0.3 0.3,0 0.4,0.1 0.4,0.3 0,0.3 0,0.7 0.1,1.1 0,0.4 0.1,0.8 0.1,1.1 0,0.3 0,0.6 0.1,1.2 0,0.5 0.1,0.9 0.1,1.2 0,0.2 -0.1,0.3 -0.4,0.3 -0.2,0 -0.4,-0.1 -0.4,-0.3 0,-0.3 -0.1,-0.6 -0.1,-0.8 0,-0.5 -0.1,-1.1 -0.1,-1.6 0,-0.3 0,-0.7 -0.1,-1.1 z" />
			<path
   id="path132"
   d="m 177.5,53.5 c 0,-0.1 0,-0.2 0.1,-0.2 0.1,-0.1 0.2,-0.1 0.3,-0.1 0.1,0 0.2,0 0.3,0.2 0.2,0.3 0.4,0.6 0.6,1 0.2,0.4 0.4,0.7 0.6,1.1 0.5,-1 0.9,-1.7 1.3,-2.2 0.1,-0.1 0.2,-0.1 0.3,-0.1 0.1,0 0.2,0 0.3,0.1 0.1,0.1 0.1,0.1 0.1,0.2 0,0.1 0,0.1 -0.1,0.2 -0.1,0.1 -0.1,0.2 -0.2,0.2 -0.4,0.7 -0.9,1.5 -1.3,2.3 0.6,1.1 0.9,1.7 0.9,2 0,0.1 0,0.2 -0.1,0.3 -0.1,0.1 -0.2,0.1 -0.3,0.1 -0.2,0 -0.3,-0.1 -0.4,-0.2 -0.1,-0.2 -0.2,-0.5 -0.3,-0.7 -0.2,-0.4 -0.5,-0.9 -0.8,-1.5 -0.5,-0.8 -0.9,-1.6 -1.4,-2.4 0.1,-0.2 0.1,-0.3 0.1,-0.3 z" />
			<path
   id="path134"
   d="m 174.1,56.5 c -0.3,-0.3 -0.5,-0.8 -0.5,-1.3 0,-0.5 0.1,-0.9 0.3,-1.2 0.3,-0.4 0.6,-0.7 1.2,-0.7 0.6,-0.1 1.2,0.1 1.5,0.5 0.3,0.3 0.5,0.8 0.5,1.3 0,0.5 -0.2,1 -0.5,1.3 -0.3,0.3 -0.7,0.5 -1.1,0.5 -0.6,0.2 -1,0 -1.4,-0.4 z m 0.3,-1.1 c 0,0.3 0.1,0.6 0.4,0.7 0.2,0.2 0.4,0.2 0.7,0.2 0.2,0 0.4,-0.1 0.6,-0.3 0.2,-0.2 0.3,-0.5 0.3,-0.8 0,-0.3 -0.1,-0.6 -0.3,-0.8 -0.2,-0.3 -0.5,-0.4 -0.9,-0.4 -0.6,0.1 -0.9,0.5 -0.8,1.4 z" />
			<path
   id="path136"
   d="m 169.4,54.2 c 0,-0.1 0,-0.2 0.1,-0.3 0.1,-0.1 0.2,-0.1 0.3,-0.1 0.2,0 0.3,0.1 0.4,0.3 0.1,0.4 0.1,0.8 0.1,1.3 0,0.2 0,0.4 0,0.7 0,0.2 0,0.5 0,0.7 0.4,0 0.8,0 1.1,0 0.1,0 0.2,0 0.2,-0.1 0.1,0 0.2,-0.1 0.3,-0.1 0.1,-0.2 0.1,-0.4 0.1,-0.7 0,-0.3 0,-0.6 0,-1 0,-0.1 0,-0.3 -0.1,-0.5 0,-0.2 -0.1,-0.4 -0.1,-0.5 0,-0.1 0,-0.2 0.1,-0.2 0.1,-0.1 0.2,-0.1 0.3,-0.1 0.2,0 0.3,0.1 0.4,0.2 0.1,0.4 0.1,0.7 0.1,1 0,0.5 0,1 -0.1,1.6 0,0.3 -0.2,0.5 -0.4,0.7 -0.2,0.2 -0.5,0.3 -0.8,0.3 -0.4,0.1 -0.8,0 -1.1,-0.1 0,0.2 -0.2,0.4 -0.4,0.4 -0.1,0 -0.2,0 -0.3,-0.1 -0.1,-0.1 -0.1,-0.1 -0.1,-0.2 0,-0.1 0,-0.1 0,-0.2 0,-0.1 0,-0.2 0,-0.2 0,-0.2 0,-0.4 0,-0.8 0,-0.3 0,-0.6 0,-0.8 0,-0.3 -0.1,-0.8 -0.1,-1.2 z" />
			<path
   id="path138"
   d="m 165.5,55.3 c 0,-0.3 0,-0.5 0.1,-0.7 0.1,-0.2 0.3,-0.3 0.5,-0.3 0.6,-0.1 1.2,0.1 1.7,0.4 0,-0.4 0.1,-0.6 0.4,-0.6 0.2,0 0.3,0.1 0.3,0.3 0,0.1 0,0.2 0,0.3 0,0.2 0,0.3 0,0.3 0,0.8 0,1.6 0,2.5 0,0.2 -0.1,0.4 -0.3,0.4 -0.3,0 -0.4,-0.1 -0.4,-0.3 0,-0.7 0,-1.3 0,-2 -0.2,-0.3 -0.4,-0.5 -0.6,-0.6 -0.2,-0.1 -0.6,-0.2 -1,-0.2 0,0.1 0,0.2 0,0.3 0,0.1 0,0.2 0,0.3 0,0.2 -0.1,0.4 -0.3,0.4 -0.2,0 -0.4,-0.1 -0.4,-0.4 0,0.1 0,0 0,-0.1 z" />
			<path
   id="path140"
   d="m 159.5,56.4 c -0.1,-0.1 -0.1,-0.1 -0.1,-0.3 0,-0.1 0,-0.2 0,-0.3 0,-0.1 0,-0.3 0,-0.3 0,-0.1 0,-0.2 0.1,-0.3 0.1,-0.1 0.2,-0.1 0.3,-0.1 0.1,0 0.2,0 0.3,0 0.1,0 0.4,0.1 0.7,0.1 0.3,0 0.6,0.1 0.7,0.1 0.5,0.1 0.8,0.5 0.8,1 0,0.3 -0.1,0.5 -0.3,0.7 -0.1,0.1 -0.4,0.2 -0.7,0.4 -0.1,0.1 -0.3,0.1 -0.4,0.2 -0.5,0.2 -0.7,0.5 -0.7,0.8 0,0.2 0.1,0.3 0.4,0.3 0.2,0 0.4,0 0.6,0 0.1,0 0.3,-0.1 0.4,-0.1 0.2,-0.1 0.4,-0.2 0.4,-0.2 0.1,-0.1 0.2,-0.2 0.3,-0.2 0.1,0 0.2,0 0.3,0.1 0.1,0.1 0.1,0.1 0.1,0.2 0,0.2 -0.2,0.5 -0.6,0.7 -0.3,0.2 -0.6,0.3 -1,0.4 -0.5,0.1 -0.8,0.1 -1.2,0 -0.4,-0.1 -0.6,-0.4 -0.6,-0.8 0,-0.5 0.2,-0.9 0.6,-1.3 0.3,-0.2 0.7,-0.5 1.3,-0.7 0.1,0 0.2,-0.1 0.2,-0.1 0,-0.2 -0.2,-0.4 -0.6,-0.5 -0.4,-0.1 -0.7,-0.1 -0.9,-0.1 0,0.2 -0.1,0.4 -0.1,0.4 -0.1,0.1 -0.2,0.2 -0.3,0.2 0.1,-0.3 0,-0.3 0,-0.3 z" />
			<path
   id="path142"
   d="m 155,60.4 c -0.1,-0.1 -0.1,-0.1 -0.1,-0.2 0,0 0,-0.1 0,-0.1 0.1,-0.2 0.1,-0.5 0.1,-0.8 0,-0.3 0.1,-0.6 0.1,-0.8 0,-0.3 0,-0.5 0,-0.8 0,-0.5 0.1,-0.8 0.2,-1 0.2,-0.3 0.5,-0.5 0.9,-0.6 0.3,0 0.5,0 0.8,0.1 0.2,0.1 0.5,0.3 0.7,0.5 0,-0.1 0,-0.2 0,-0.3 0,-0.3 0,-0.6 0,-0.8 0,-0.3 0,-0.6 0,-0.8 0,-0.2 0,-0.4 0.1,-0.7 0,-0.2 0.2,-0.4 0.4,-0.4 0.1,0 0.2,0 0.3,0.1 0.1,0.1 0.1,0.1 0.1,0.2 0,0.1 0,0.2 0,0.4 0,0.1 0,0.2 0,0.4 0,0.1 0,0.3 0,0.6 0,0.9 0,1.9 0,2.8 0,0.2 0,0.4 0,0.6 0,0.3 0,0.5 0,0.6 0,0.1 0,0.1 0,0.2 0,0.1 0,0.2 -0.1,0.3 -0.1,0.1 -0.2,0.1 -0.3,0.2 -0.2,0 -0.3,0 -0.3,-0.2 -0.1,-0.2 -0.1,-0.7 -0.1,-1.7 -0.2,-0.4 -0.4,-0.6 -0.5,-0.8 -0.3,-0.2 -0.6,-0.3 -0.9,-0.3 -0.2,0 -0.4,0.3 -0.4,0.8 0,0.1 0,0.2 0,0.3 0,0.1 0,0.2 0,0.3 0,0.2 0,0.6 -0.1,0.9 0,0.4 -0.1,0.7 -0.2,0.9 -0.1,0.2 -0.2,0.3 -0.4,0.4 -0.2,-0.2 -0.3,-0.2 -0.3,-0.3 z" />
			<path
   id="path144"
   d="m 152.8,55.5 c -0.1,-0.1 -0.1,-0.2 -0.1,-0.3 0,-0.1 0,-0.2 0.1,-0.4 0.1,-0.1 0.2,-0.2 0.3,-0.2 0.1,0 0.2,0 0.3,0.1 0.1,0.1 0.1,0.2 0.1,0.3 0,0.1 0,0.2 -0.1,0.3 -0.1,0.1 -0.2,0.2 -0.3,0.2 -0.1,0.1 -0.2,0.1 -0.3,0 z m 0.1,2.4 c 0,-0.4 0,-0.7 0,-0.9 0,-0.1 0,-0.2 0.1,-0.3 0.1,-0.1 0.2,-0.1 0.3,-0.2 0.1,0 0.2,0 0.3,0.1 0.1,0.1 0.1,0.2 0.1,0.3 0,0.2 0,0.6 0,0.9 0,0.4 0,0.7 0,0.9 0,0.2 0,0.4 0,0.7 0,0.3 0,0.6 0,0.7 0,0.1 0,0.2 -0.1,0.3 -0.1,0.1 -0.2,0.1 -0.3,0.2 -0.1,0 -0.2,0 -0.3,-0.1 -0.1,-0.1 -0.1,-0.1 -0.1,-0.3 0,-0.2 0,-0.4 0,-0.7 0,-0.3 0,-0.6 0,-0.7 0.1,-0.2 0.1,-0.5 0,-0.9 z" />
			<path
   id="path146"
   d="m 148.4,61.7 c -0.1,-0.1 -0.1,-0.1 -0.1,-0.3 0,-0.2 0,-0.5 0.1,-0.9 0.1,-0.4 0.1,-0.7 0.1,-0.9 0,-0.1 0,-0.3 0,-0.4 0,-0.1 0,-0.3 0,-0.4 0,-0.5 0.1,-0.9 0.2,-1.2 0.2,-0.4 0.5,-0.7 0.9,-0.7 0.5,-0.1 0.9,0.2 1.3,0.7 0,-0.2 0,-0.3 0,-0.5 0,-0.4 0.2,-0.6 0.4,-0.6 0.1,0 0.2,0 0.3,0.1 0.1,0.1 0.1,0.2 0.1,0.3 0,0.1 0,0.2 0,0.4 0,0.2 0,0.3 0,0.4 0,0.3 0,0.7 0.1,1.1 0,0.5 0.1,0.9 0.1,1.1 0,0.1 0,0.2 0,0.4 0,0.2 0,0.3 0,0.4 0,0.1 0,0.2 -0.1,0.3 -0.1,0.1 -0.2,0.1 -0.3,0.2 -0.1,0 -0.2,0 -0.3,-0.1 -0.1,-0.1 -0.1,-0.2 -0.1,-0.3 0,-0.1 0,-0.2 0,-0.4 0,-0.2 0,-0.3 0,-0.4 0,-0.1 0,-0.3 0,-0.4 0,-0.2 0,-0.3 0,-0.4 -0.1,-0.5 -0.3,-0.9 -0.6,-1.1 -0.3,-0.3 -0.5,-0.5 -0.8,-0.4 -0.2,0 -0.3,0.4 -0.3,0.9 0,0.1 0,0.2 0,0.4 0,0.2 0,0.3 0,0.4 0,0.3 0,0.6 -0.1,0.9 0,0.3 -0.1,0.6 -0.1,0.9 0,0.3 -0.2,0.4 -0.4,0.5 -0.2,0.1 -0.3,0.1 -0.4,0 z" />
			<path
   id="path148"
   d="m 144.1,58.4 c 0,-0.1 0,-0.2 0.1,-0.3 0.1,-0.1 0.2,-0.2 0.3,-0.2 0.1,0 0.2,0 0.3,0.2 0.2,0.3 0.4,0.8 0.6,1.2 0.2,0.5 0.4,0.9 0.6,1.4 0.5,-1.3 1,-2.3 1.4,-3.1 0.1,-0.1 0.2,-0.2 0.3,-0.2 0.1,0 0.2,0 0.3,0.1 0.1,0.1 0.1,0.2 0.1,0.3 0,0.1 0,0.2 -0.1,0.3 -0.1,0.1 -0.1,0.2 -0.2,0.3 -0.5,1 -0.9,2.1 -1.4,3.1 0.5,1.2 0.8,1.9 0.8,2.2 0,0.1 0,0.2 -0.1,0.3 -0.1,0.1 -0.2,0.1 -0.3,0.2 -0.2,0 -0.3,0 -0.3,-0.2 -0.1,-0.2 -0.2,-0.5 -0.3,-0.7 -0.2,-0.5 -0.4,-1 -0.7,-1.7 -0.4,-1 -0.9,-1.9 -1.3,-2.9 -0.1,-0.2 -0.1,-0.3 -0.1,-0.3 z" />
			<path
   id="path150"
   d="m 138.2,62.8 c -0.3,-0.4 -0.4,-0.9 -0.4,-1.6 0,-0.6 0.1,-1.2 0.3,-1.6 0.3,-0.6 0.7,-0.9 1.2,-1 0.6,-0.1 1.1,0.2 1.5,0.7 0.3,0.5 0.4,1 0.4,1.7 0,0.7 -0.2,1.2 -0.6,1.7 -0.3,0.4 -0.7,0.6 -1.1,0.7 -0.5,0 -1,-0.2 -1.3,-0.6 z m 0.3,-1.5 c 0,0.4 0.1,0.7 0.3,0.9 0.2,0.2 0.4,0.3 0.7,0.2 0.2,0 0.4,-0.2 0.6,-0.4 0.2,-0.3 0.3,-0.6 0.3,-1 0,-0.4 -0.1,-0.8 -0.2,-1.1 -0.2,-0.4 -0.5,-0.6 -0.9,-0.5 -0.5,0.2 -0.8,0.8 -0.8,1.9 z" />
			<path
   id="path152"
   d="m 133.6,63.3 c -0.4,-0.4 -0.5,-1 -0.5,-1.7 0,-0.7 0.2,-1.3 0.5,-1.8 0.4,-0.5 0.8,-0.8 1.4,-0.9 0.2,0 0.4,0 0.6,0.1 0.2,0.1 0.4,0.2 0.6,0.3 0,-0.4 0,-0.8 0,-1.2 0,-0.3 0,-0.7 0,-1 0,0 0,-0.1 0,-0.2 0,-0.1 0,-0.1 0,-0.2 0,-0.3 0.1,-0.4 0.3,-0.4 0.1,0 0.3,0.1 0.3,0.3 0.1,0.1 0.1,0.3 0.1,0.5 0,0.2 0,0.7 0,1.3 0,0.6 0,1 0,1.3 0,0.3 0,0.8 0,1.4 0,0.6 0,1.1 0,1.4 0,0.1 0,0.2 0,0.3 0,0.1 0,0.3 0,0.3 0,0.1 0,0.2 -0.1,0.3 -0.1,0.1 -0.2,0.1 -0.3,0.1 -0.1,0 -0.2,0 -0.3,-0.2 -0.3,0.2 -0.7,0.3 -1.1,0.4 -0.7,0.2 -1.2,0 -1.5,-0.4 z m 0.4,-2.9 c -0.2,0.3 -0.3,0.7 -0.3,1.2 0,0.5 0.1,0.8 0.3,1.1 0.2,0.3 0.5,0.4 0.9,0.4 0.2,0 0.4,-0.1 0.5,-0.1 0.2,-0.1 0.4,-0.2 0.5,-0.3 0,-0.2 0,-0.5 0,-0.7 0,-0.2 0,-0.5 0,-0.7 0,-0.3 0,-0.5 0,-0.8 -0.3,-0.2 -0.4,-0.3 -0.5,-0.4 -0.2,-0.1 -0.4,-0.2 -0.6,-0.2 -0.3,0 -0.5,0.2 -0.8,0.5 z" />
			<path
   id="path154"
   d="m 130.9,65.4 c 0.1,0.2 0.2,0.3 0.3,0.3 0.1,0 0.3,-0.1 0.4,-0.2 0.1,-0.2 0.2,-0.3 0.2,-0.4 0.2,-0.4 0.3,-0.6 0.5,-0.6 0.1,0 0.2,0 0.3,0.1 0.1,0.1 0.1,0.2 0.1,0.3 0,0.1 0,0.1 -0.1,0.2 -0.4,1 -0.9,1.5 -1.4,1.5 -0.3,0 -0.6,-0.1 -0.8,-0.5 -0.2,-0.3 -0.3,-0.7 -0.3,-1 0.1,-0.9 0.1,-1.8 0.2,-2.7 0.1,-0.9 0.1,-1.8 0.2,-2.7 0,-0.1 0.1,-0.2 0.1,-0.2 0.1,-0.1 0.2,-0.1 0.3,-0.1 0.1,0 0.2,0.1 0.3,0.2 0.1,0.1 0.1,0.3 0.1,0.4 -0.1,0.9 -0.1,1.7 -0.2,2.5 -0.1,1.4 -0.2,2.3 -0.2,2.6 -0.1,0.1 -0.1,0.2 0,0.3 z m -0.3,-7.3 c -0.1,-0.1 -0.1,-0.2 -0.1,-0.4 0,-0.2 0.1,-0.3 0.1,-0.4 0.1,-0.1 0.2,-0.2 0.3,-0.2 0.1,0 0.2,0 0.3,0.2 0.1,0.1 0.1,0.2 0.1,0.4 0,0.2 -0.1,0.3 -0.1,0.4 -0.1,0.1 -0.2,0.2 -0.3,0.2 -0.1,-0.1 -0.2,-0.1 -0.3,-0.2 z" />
			<path
   id="path156"
   d="m 125.9,64.1 c -0.5,-0.2 -0.7,-0.5 -0.7,-0.9 0,-0.1 0,-0.2 0.1,-0.3 0.1,-0.1 0.2,-0.1 0.2,-0.1 0.1,0 0.2,0.1 0.3,0.2 0.1,0.2 0.3,0.3 0.6,0.4 0.2,0.1 0.4,0.1 0.6,0.1 0.3,0 0.5,-0.1 0.8,-0.2 0.2,-0.1 0.4,-0.3 0.6,-0.6 -0.5,-0.3 -1,-0.5 -1.5,-0.8 -0.4,-0.2 -0.7,-0.4 -0.8,-0.5 -0.3,-0.3 -0.4,-0.5 -0.4,-0.9 0,-0.4 0.2,-0.8 0.5,-1 0.3,-0.2 0.6,-0.3 1.1,-0.3 0.6,0 1.1,0.3 1.4,0.9 0.3,0.5 0.5,1.2 0.4,2 0,0.7 -0.2,1.2 -0.6,1.6 -0.4,0.3 -0.8,0.5 -1.4,0.5 -0.4,0.2 -0.8,0.1 -1.2,-0.1 z m 0.4,-3.5 c 0.2,0.2 0.5,0.4 1,0.7 0.4,0.2 0.8,0.4 1.2,0.6 -0.1,-0.6 -0.2,-1 -0.4,-1.3 -0.2,-0.3 -0.5,-0.4 -0.8,-0.4 -0.5,0 -0.8,0.2 -1,0.4 z" />
			<path
   id="path158"
   d="m 121.9,64.1 c -0.4,-0.2 -0.6,-0.4 -0.6,-0.7 0,-0.1 0,-0.2 0.1,-0.3 0.1,-0.1 0.2,-0.1 0.3,-0.1 0,0 0.1,0 0.2,0.1 0.1,0.1 0.3,0.2 0.4,0.3 0.2,0.1 0.3,0.2 0.5,0.2 0.3,0 0.6,-0.1 0.8,-0.3 0.2,-0.2 0.4,-0.5 0.4,-0.9 0,-0.4 -0.1,-0.8 -0.3,-1.4 -0.2,-0.6 -0.5,-0.9 -0.8,-0.9 -0.3,0 -0.6,0 -0.8,0.2 -0.1,0.1 -0.1,0.1 -0.2,0.2 -0.1,0.1 -0.1,0.1 -0.2,0.1 -0.1,0 -0.2,-0.1 -0.2,-0.2 -0.1,-0.1 -0.1,-0.2 -0.1,-0.3 0,-0.3 0.2,-0.5 0.6,-0.7 0.3,-0.1 0.6,-0.2 0.9,-0.2 0.5,0 0.9,0.4 1.3,1.2 0.3,0.7 0.5,1.3 0.5,2 0,0.6 -0.2,1.2 -0.6,1.5 -0.4,0.4 -0.8,0.5 -1.3,0.5 -0.3,0 -0.6,-0.1 -0.9,-0.3 z" />
			<path
   id="path160"
   d="m 117.7,59.6 c -0.1,-0.1 -0.1,-0.2 -0.1,-0.4 0,-0.2 0.1,-0.4 0.3,-0.4 0.1,0 0.3,0 0.5,0 0,0 0.2,0.1 0.5,0.1 0,-0.1 0,-0.2 0,-0.3 0,-0.1 0,-0.2 0,-0.3 0,-0.2 0,-0.3 0,-0.4 0.1,-0.5 0.2,-0.7 0.4,-0.7 0.1,0 0.2,0.1 0.3,0.2 0.1,0.1 0.1,0.2 0.1,0.4 0,0.1 0,0.3 0,0.6 0,0.3 0,0.5 0,0.7 0.3,0 0.5,0 0.8,0 0.1,0 0.2,0.1 0.3,0.2 0.1,0.1 0.1,0.2 0.1,0.4 0,0.3 -0.1,0.4 -0.4,0.4 -0.4,0 -0.7,0 -0.9,0 -0.1,0.9 -0.1,1.8 -0.2,2.7 0,0.1 0,0.3 0,0.5 0,0.2 0,0.4 0,0.5 0,0.1 0,0.2 -0.1,0.3 -0.1,0.1 -0.2,0.1 -0.3,0.1 -0.3,0 -0.4,-0.4 -0.4,-1 0,-0.1 0,-0.2 0,-0.2 0,-0.1 0,-0.1 0,-0.2 0.1,-0.9 0.1,-1.8 0.2,-2.7 -0.3,-0.1 -0.5,-0.1 -0.5,-0.1 -0.1,0 -0.1,0 -0.2,0 -0.1,0 -0.1,0 -0.2,0 -0.1,-0.2 -0.2,-0.3 -0.2,-0.4 z" />
			<path
   id="path162"
   d="m 113.9,59.5 c -0.1,-0.1 -0.1,-0.2 -0.1,-0.4 0,-0.1 0,-0.2 0.1,-0.4 0,-0.2 0.1,-0.3 0.1,-0.4 0,-0.1 0,-0.3 0.1,-0.3 0.1,-0.1 0.2,-0.1 0.3,-0.1 0.1,0 0.2,0.1 0.3,0.1 0.1,0.1 0.4,0.3 0.7,0.4 0.3,0.2 0.6,0.3 0.7,0.4 0.5,0.4 0.7,0.9 0.7,1.5 0,0.4 -0.1,0.6 -0.3,0.7 -0.1,0.1 -0.4,0.2 -0.7,0.2 -0.1,0 -0.3,0 -0.4,0 -0.5,0.1 -0.8,0.3 -0.8,0.7 0,0.2 0.1,0.4 0.3,0.5 0.2,0.1 0.4,0.2 0.6,0.2 0.1,0 0.3,0 0.4,0 0.2,0 0.4,0 0.4,-0.1 0.1,-0.1 0.2,-0.2 0.3,-0.2 0.1,0 0.2,0.1 0.3,0.2 0.1,0.1 0.1,0.2 0.1,0.3 0,0.3 -0.2,0.5 -0.6,0.6 -0.3,0.1 -0.6,0.1 -1,0 -0.5,-0.1 -0.8,-0.2 -1.1,-0.5 -0.4,-0.3 -0.5,-0.7 -0.5,-1.2 0,-0.6 0.3,-1 0.7,-1.3 0.3,-0.2 0.7,-0.3 1.3,-0.3 0.1,0 0.2,0 0.2,0 0,-0.3 -0.2,-0.6 -0.6,-0.8 -0.4,-0.2 -0.7,-0.4 -0.9,-0.5 0,0.3 -0.1,0.4 -0.1,0.5 -0.1,0.1 -0.2,0.1 -0.3,0.1 0,0.2 -0.1,0.2 -0.2,0.1 z" />
			<path
   id="path164"
   d="m 111.9,63 c -0.1,-0.1 -0.1,-0.3 -0.1,-0.4 0,-0.2 0.1,-0.3 0.2,-0.4 0.1,-0.1 0.2,-0.1 0.3,-0.1 0.1,0 0.2,0.1 0.3,0.2 0.1,0.1 0.1,0.3 0.1,0.4 0,0.2 -0.1,0.3 -0.2,0.4 -0.1,0.1 -0.2,0.1 -0.3,0.1 -0.1,0 -0.2,-0.1 -0.3,-0.2 z" />
			<path
   id="path166"
   d="m 201.9,62.3 c 0,-0.1 0,-0.2 0.1,-0.2 0.1,0 0.2,0 0.3,0 0.2,0.1 0.3,0.2 0.4,0.4 0.2,0.4 0.4,0.7 0.5,0.9 0.3,0.8 0.7,1.5 1,2.3 0.3,-0.3 0.4,-0.5 0.5,-0.6 0.1,-0.2 0.2,-0.4 0.4,-0.6 0.1,-0.1 0.2,-0.3 0.5,-0.6 0.1,-0.1 0.2,-0.2 0.3,-0.3 0.1,-0.1 0.2,-0.1 0.3,0 0.1,0 0.2,0.1 0.3,0.2 0.1,0.1 0.1,0.2 0.1,0.3 0,0.1 0,0.1 0,0.2 -0.1,0.1 -0.3,0.3 -0.6,0.7 -0.3,0.3 -0.4,0.5 -0.5,0.7 -0.1,0.3 -0.4,0.6 -0.8,1 0.2,0.3 0.4,0.6 0.5,1 0.3,0.5 0.4,0.8 0.4,0.9 0,0.1 0,0.2 -0.1,0.2 -0.1,0 -0.2,0.1 -0.3,0 -0.1,0 -0.3,-0.1 -0.4,-0.3 -0.1,-0.1 -0.2,-0.3 -0.2,-0.5 -0.2,-0.3 -0.4,-0.6 -0.5,-1 -0.3,-0.5 -0.5,-1.1 -0.8,-1.7 -0.3,-0.6 -0.5,-1.2 -0.8,-1.7 -0.1,-0.2 -0.2,-0.4 -0.3,-0.5 -0.3,-0.5 -0.3,-0.7 -0.3,-0.8 z" />
			<path
   id="path168"
   d="m 198.5,66.2 c -0.3,-0.5 -0.5,-1 -0.5,-1.5 0,-0.5 0,-1 0.2,-1.3 0.2,-0.4 0.6,-0.5 1.2,-0.4 0.7,0.2 1.2,0.5 1.6,1.1 0.3,0.5 0.5,1 0.5,1.6 0,0.6 -0.1,1 -0.5,1.3 -0.3,0.2 -0.7,0.3 -1.1,0.2 -0.6,-0.1 -1.1,-0.5 -1.4,-1 z m 0.2,-1.2 c 0,0.4 0.2,0.7 0.4,0.9 0.2,0.2 0.4,0.4 0.7,0.4 0.2,0 0.4,0 0.6,-0.1 0.2,-0.2 0.3,-0.4 0.3,-0.8 0,-0.4 -0.1,-0.7 -0.3,-1 -0.2,-0.4 -0.5,-0.6 -0.9,-0.7 -0.7,-0.1 -0.9,0.3 -0.8,1.3 z" />
			<path
   id="path170"
   d="m 193.6,62.2 c 0,-0.1 0,-0.2 0.1,-0.3 0.1,-0.1 0.2,-0.1 0.3,-0.1 0.2,0 0.4,0.2 0.4,0.4 0.1,0.4 0.1,0.9 0.1,1.5 0,0.3 0,0.5 0,0.8 0,0.3 0,0.5 0,0.8 0.4,0.2 0.8,0.3 1.1,0.3 0.1,0 0.2,0 0.2,0 0.1,0 0.2,0 0.3,-0.1 0,-0.2 0.1,-0.4 0.1,-0.7 0,-0.3 0,-0.7 0,-1.1 0,-0.1 0,-0.3 -0.1,-0.6 0,-0.3 -0.1,-0.4 -0.1,-0.6 0,-0.1 0,-0.2 0.1,-0.2 0.1,-0.1 0.2,-0.1 0.3,-0.1 0.2,0 0.3,0.2 0.4,0.4 0.1,0.5 0.2,0.9 0.2,1.2 0,0.5 0,1.1 -0.1,1.8 0,0.3 -0.2,0.5 -0.4,0.7 -0.2,0.1 -0.5,0.2 -0.8,0.1 -0.4,-0.1 -0.8,-0.2 -1.1,-0.4 0,0.3 -0.2,0.4 -0.4,0.3 -0.1,0 -0.2,-0.1 -0.3,-0.1 -0.1,-0.1 -0.1,-0.2 -0.1,-0.3 0,-0.1 0,-0.2 0,-0.3 0,-0.1 0,-0.2 0,-0.3 0,-0.2 0,-0.5 0,-0.9 0,-0.4 0,-0.7 0,-0.9 -0.1,-0.3 -0.1,-0.8 -0.2,-1.3 z" />
			<path
   id="path172"
   d="m 187.4,62.4 c -0.1,-0.1 -0.1,-0.2 -0.1,-0.3 0,-0.1 0,-0.2 0,-0.3 0,-0.1 0,-0.3 0,-0.3 0,-0.1 0,-0.2 0.1,-0.3 0.1,-0.1 0.2,-0.1 0.3,-0.1 0.1,0 0.2,0 0.4,0.1 0.2,0.1 0.4,0.2 0.7,0.3 0.3,0.1 0.6,0.2 0.8,0.3 0.5,0.3 0.8,0.7 0.8,1.2 0,0.3 -0.1,0.5 -0.3,0.7 -0.1,0.1 -0.4,0.2 -0.7,0.2 -0.1,0 -0.3,0 -0.4,0.1 -0.5,0.1 -0.7,0.4 -0.7,0.7 0,0.2 0.1,0.3 0.4,0.4 0.2,0.1 0.4,0.1 0.6,0.1 0.1,0 0.3,0 0.4,0 0.2,0 0.4,-0.1 0.4,-0.1 0.1,-0.1 0.2,-0.2 0.3,-0.2 0.1,0 0.2,0.1 0.3,0.1 0.1,0.1 0.1,0.2 0.1,0.3 0,0.3 -0.2,0.5 -0.6,0.6 -0.3,0.1 -0.6,0.2 -1,0.1 -0.5,0 -0.9,-0.1 -1.2,-0.3 -0.4,-0.2 -0.6,-0.6 -0.6,-1 0,-0.5 0.2,-1 0.6,-1.2 0.3,-0.2 0.7,-0.3 1.3,-0.4 0.1,0 0.2,0 0.2,-0.1 0,-0.2 -0.2,-0.5 -0.7,-0.7 -0.4,-0.2 -0.7,-0.3 -0.9,-0.3 0,0.2 0,0.4 -0.1,0.4 -0.1,0.1 -0.2,0.1 -0.3,0.1 0.1,0 0,0 -0.1,-0.1 z" />
			<path
   id="path174"
   d="m 183,65.9 c -0.1,-0.1 -0.1,-0.2 -0.1,-0.3 0,0 0,-0.1 0,-0.1 0,-0.3 0.1,-0.5 0.1,-0.9 0,-0.3 0,-0.6 0.1,-0.9 0,-0.3 0,-0.5 0,-0.8 0,-0.5 0.1,-0.8 0.2,-1 0.2,-0.3 0.4,-0.4 0.9,-0.4 0.3,0 0.5,0.1 0.8,0.2 0.2,0.1 0.5,0.4 0.7,0.6 0,-0.1 0,-0.2 0,-0.3 0,-0.3 0,-0.6 0,-0.9 0,-0.3 0,-0.6 -0.1,-0.8 0,-0.2 0,-0.4 0,-0.7 0,-0.2 0.1,-0.3 0.4,-0.3 0.1,0 0.2,0 0.3,0.1 0.1,0.1 0.1,0.2 0.1,0.3 0,0.1 0,0.2 0,0.4 0,0.1 0,0.2 0,0.4 0,0.1 0,0.3 0,0.6 0,0.9 0.1,1.9 0.1,2.9 0,0.2 0,0.4 0,0.6 0,0.3 0,0.5 0.1,0.6 0,0.1 0,0.1 0,0.2 0,0.1 0,0.2 -0.1,0.3 -0.1,0.1 -0.2,0.1 -0.3,0.1 -0.2,0 -0.3,-0.1 -0.3,-0.3 -0.1,-0.2 -0.2,-0.8 -0.2,-1.9 -0.2,-0.4 -0.4,-0.7 -0.6,-0.9 -0.3,-0.3 -0.6,-0.5 -0.9,-0.4 -0.2,0 -0.4,0.3 -0.3,0.8 0,0.1 0,0.2 0,0.3 0,0.1 0,0.3 0,0.3 0,0.3 0,0.6 0,1 0,0.4 -0.1,0.8 -0.1,1 -0.1,0.2 -0.2,0.3 -0.4,0.3 -0.2,0 -0.3,0 -0.4,-0.1 z" />
			<path
   id="path176"
   d="m 179.1,65.5 c -0.3,-0.4 -0.5,-0.9 -0.5,-1.5 0,-0.6 0.1,-1.1 0.3,-1.5 0.3,-0.5 0.6,-0.8 1.2,-0.8 0.7,0 1.2,0.2 1.5,0.7 0.3,0.4 0.5,1 0.5,1.6 0,0.6 -0.2,1.2 -0.5,1.6 -0.3,0.4 -0.7,0.6 -1.1,0.6 -0.6,0 -1,-0.2 -1.4,-0.7 z m 0.2,-1.4 c 0,0.4 0.1,0.7 0.4,0.9 0.2,0.2 0.4,0.3 0.7,0.3 0.2,0 0.4,-0.1 0.6,-0.3 0.2,-0.2 0.3,-0.6 0.3,-1 0,-0.4 -0.1,-0.7 -0.3,-1 -0.2,-0.4 -0.5,-0.5 -0.9,-0.5 -0.6,0 -0.8,0.6 -0.8,1.6 z" />
			<path
   id="path178"
   d="m 174.3,62.6 c 0,-0.1 0,-0.2 0.1,-0.3 0.1,-0.1 0.2,-0.1 0.3,-0.1 0.2,0 0.4,0.1 0.4,0.3 0.1,0.4 0.1,0.9 0.1,1.5 0,0.3 0,0.5 0,0.8 0,0.3 0,0.6 0,0.8 0.4,0.1 0.8,0.1 1.1,0.1 0.1,0 0.2,0 0.2,-0.1 0.1,0 0.2,-0.1 0.3,-0.1 0.1,-0.2 0.1,-0.5 0.1,-0.8 0,-0.3 0,-0.7 0,-1.2 0,-0.1 0,-0.3 -0.1,-0.6 0,-0.3 -0.1,-0.5 -0.1,-0.6 0,-0.1 0,-0.2 0.1,-0.3 0.1,-0.1 0.2,-0.1 0.3,-0.1 0.2,0 0.3,0.1 0.4,0.3 0.1,0.5 0.1,0.9 0.1,1.2 0,0.6 0,1.2 -0.1,2 0,0.3 -0.2,0.6 -0.4,0.8 -0.2,0.2 -0.5,0.3 -0.8,0.3 -0.4,0 -0.8,0 -1.1,-0.2 0,0.3 -0.2,0.4 -0.4,0.4 -0.1,0 -0.2,0 -0.3,-0.1 -0.1,-0.1 -0.1,-0.2 -0.1,-0.3 0,-0.1 0,-0.2 0,-0.3 0,-0.1 0,-0.2 0,-0.3 0,-0.2 0,-0.5 0,-0.9 0,-0.4 0,-0.7 0,-0.9 0,-0.3 0,-0.9 -0.1,-1.3 z" />
			<path
   id="path180"
   d="m 172.4,62.1 c 0,-0.5 0,-1 0,-1.4 0,-0.3 0.1,-0.4 0.4,-0.4 0.3,0 0.4,0.1 0.4,0.3 0,0.4 0,0.9 0,1.4 0,0.5 0,1 0,1.4 0,0.3 0,0.8 0.1,1.5 0,0.7 0.1,1.2 0.1,1.5 0,0.3 -0.1,0.4 -0.4,0.5 -0.2,0 -0.4,-0.1 -0.4,-0.4 0,-0.4 0,-0.7 0,-1 0,-0.7 -0.1,-1.4 -0.1,-2 -0.1,-0.4 -0.1,-0.9 -0.1,-1.4 z" />
			<path
   id="path182"
   d="m 167.5,61.5 c 0,-0.2 0.1,-0.4 0.3,-0.4 0.2,0 0.3,0.1 0.4,0.3 0.1,0.4 0.1,1.1 0.2,2.2 0.1,-0.1 0.2,-0.2 0.4,-0.3 0.2,-0.1 0.4,-0.2 0.7,-0.3 0.6,-0.1 1.1,0 1.4,0.4 0.4,0.4 0.6,0.9 0.6,1.6 0,0.6 -0.2,1.1 -0.5,1.6 -0.3,0.4 -0.8,0.7 -1.3,0.8 -0.2,0 -0.4,0 -0.6,0 -0.2,0 -0.4,-0.1 -0.6,-0.2 -0.1,0.3 -0.2,0.4 -0.4,0.4 -0.1,0 -0.2,0 -0.3,-0.1 -0.1,-0.1 -0.1,-0.1 -0.1,-0.3 0,0 0,-0.1 0,-0.1 0.1,-0.5 0.1,-1.2 0.1,-2.1 0,-0.4 0,-0.8 -0.1,-1.2 -0.2,-1.1 -0.2,-1.9 -0.2,-2.3 z m 1.3,2.5 c -0.2,0.1 -0.3,0.3 -0.4,0.6 0,0.2 0,0.3 0,0.5 0,0.2 0,0.3 0,0.5 0,0.2 0,0.5 0,0.7 0,0 0.1,0.1 0.1,0.1 0.2,0.1 0.4,0.2 0.4,0.3 0.2,0.1 0.3,0.1 0.6,0 0.3,-0.1 0.6,-0.2 0.8,-0.5 0.2,-0.3 0.4,-0.6 0.3,-1 0,-0.5 -0.1,-0.9 -0.3,-1.2 -0.2,-0.2 -0.6,-0.3 -1,-0.2 -0.1,-0.1 -0.3,0 -0.5,0.2 z" />
			<path
   id="path184"
   d="m 161.2,65.1 c -0.1,-0.1 -0.1,-0.1 -0.1,-0.3 0,-0.2 0.1,-0.3 0.2,-0.4 0.1,0 0.3,-0.1 0.5,-0.1 0,0 0.2,0 0.6,0 0,-0.1 0,-0.2 0,-0.2 0,-0.1 0,-0.1 0,-0.2 0,-0.1 0,-0.3 0,-0.3 0,-0.4 0.2,-0.6 0.4,-0.7 0.1,0 0.2,0 0.3,0.1 0.1,0.1 0.1,0.1 0.1,0.2 0,0.1 0,0.3 0,0.5 0,0.2 0,0.4 0,0.5 0.3,-0.1 0.5,-0.2 0.8,-0.2 0.1,0 0.2,0 0.3,0.1 0.1,0.1 0.1,0.2 0.1,0.3 0,0.2 -0.1,0.4 -0.3,0.5 -0.4,0.1 -0.7,0.2 -0.9,0.2 0,0.8 0,1.5 -0.1,2.3 0,0.1 0,0.3 0,0.5 0,0.2 0,0.4 0,0.5 0,0.1 0,0.2 -0.1,0.3 -0.1,0.1 -0.2,0.1 -0.3,0.2 -0.3,0.1 -0.4,-0.2 -0.4,-0.8 0,-0.1 0,-0.1 0,-0.2 0,-0.1 0,-0.1 0,-0.2 0,-0.8 0,-1.6 0.1,-2.4 -0.3,0 -0.5,0 -0.5,0 -0.1,0 -0.1,0 -0.2,0 -0.1,0 -0.1,0 -0.2,0 -0.1,-0.1 -0.2,-0.1 -0.3,-0.2 z" />
			<path
   id="path186"
   d="m 157.3,66.2 c 0,-0.3 0.1,-0.6 0.2,-0.7 0.1,-0.2 0.3,-0.3 0.5,-0.3 0.6,-0.1 1.2,0 1.7,0.4 0,-0.4 0.1,-0.7 0.4,-0.7 0.2,0 0.3,0.1 0.3,0.3 0,0.1 0,0.2 0,0.4 0,0.2 0,0.3 0,0.4 0,0.9 0,1.8 0,2.8 0,0.3 -0.1,0.4 -0.3,0.5 -0.3,0 -0.4,-0.1 -0.4,-0.3 0,-0.7 0,-1.4 0,-2.2 -0.2,-0.3 -0.4,-0.5 -0.6,-0.6 -0.2,-0.1 -0.6,-0.2 -1,-0.1 0,0.1 0,0.2 0,0.3 0,0.1 0,0.2 0,0.3 0,0.3 -0.1,0.4 -0.3,0.5 -0.2,0 -0.4,-0.1 -0.4,-0.4 -0.1,-0.4 -0.1,-0.5 -0.1,-0.6 z" />
			<path
   id="path188"
   d="m 153.1,66.6 c 0,-0.1 0,-0.2 0.1,-0.3 0.1,-0.1 0.2,-0.1 0.3,-0.2 0.1,0 0.2,0 0.3,0.1 0.2,0.3 0.4,0.6 0.6,1.1 0.2,0.4 0.4,0.8 0.6,1.2 0.5,-1.2 1,-2.2 1.4,-2.9 0.1,-0.1 0.2,-0.2 0.3,-0.2 0.1,0 0.2,0 0.3,0.1 0.1,0.1 0.1,0.1 0.1,0.3 0,0.1 0,0.2 -0.1,0.3 -0.1,0.1 -0.1,0.2 -0.2,0.3 -0.5,1 -0.9,2 -1.4,3 0.6,1.1 0.9,1.8 0.9,2.1 0,0.1 0,0.2 -0.1,0.3 -0.1,0.1 -0.2,0.1 -0.3,0.2 -0.2,0 -0.3,0 -0.4,-0.2 -0.1,-0.2 -0.2,-0.5 -0.3,-0.7 -0.2,-0.4 -0.4,-1 -0.8,-1.6 -0.5,-0.9 -0.9,-1.7 -1.4,-2.6 0.1,-0.2 0.1,-0.3 0.1,-0.3 z" />
			<path
   id="path190"
   d="m 147,70.9 c -0.3,-0.3 -0.4,-0.7 -0.4,-1.2 0,-0.6 0.1,-1.1 0.3,-1.5 0.3,-0.5 0.6,-0.8 1.2,-0.9 0.2,0 0.4,0 0.6,0 0.2,0 0.4,0.1 0.6,0.2 0,-0.1 0,-0.1 0,-0.2 0,-0.1 0,-0.1 0,-0.1 0,-0.1 0,-0.2 0.1,-0.3 0.1,-0.1 0.2,-0.1 0.3,-0.2 0.1,0 0.3,0 0.3,0.2 0.1,0.1 0.1,0.3 0.1,0.4 0,0.3 0,0.5 -0.1,0.8 0,0.5 -0.1,1 -0.1,1.5 0,0.5 0,1 0,1.5 0,0.5 0,1 0,1.5 0,0.1 0,0.2 -0.1,0.3 -0.1,0.1 -0.2,0.1 -0.3,0.2 -0.1,0 -0.2,0 -0.3,-0.1 -0.1,-0.1 -0.1,-0.1 -0.1,-0.2 0,-0.6 0,-1.2 0,-1.8 -0.3,0.1 -0.6,0.2 -0.9,0.3 -0.5,0 -0.9,-0.1 -1.2,-0.4 z m 0.5,-2.4 c -0.1,0.3 -0.2,0.6 -0.2,1.1 0,0.3 0.1,0.6 0.2,0.7 0.2,0.2 0.4,0.3 0.7,0.2 0.3,-0.1 0.6,-0.2 0.9,-0.3 0,-0.6 0,-1.2 0.1,-1.8 -0.2,-0.2 -0.4,-0.3 -0.5,-0.3 -0.2,-0.1 -0.4,-0.1 -0.6,0 -0.3,0 -0.5,0.1 -0.6,0.4 z" />
			<path
   id="path192"
   d="m 142.8,71.6 c -0.3,-0.3 -0.4,-0.8 -0.4,-1.3 0,-0.5 0.1,-1 0.3,-1.4 0.3,-0.5 0.7,-0.8 1.2,-0.9 0.7,-0.1 1.2,0 1.5,0.5 0.3,0.4 0.5,0.8 0.4,1.4 0,0.6 -0.2,1.1 -0.6,1.5 -0.3,0.4 -0.7,0.6 -1.1,0.6 -0.5,0.1 -0.9,0 -1.3,-0.4 z m 0.3,-1.2 c 0,0.3 0.1,0.6 0.3,0.8 0.2,0.2 0.4,0.2 0.7,0.2 0.2,0 0.4,-0.2 0.6,-0.4 0.2,-0.2 0.3,-0.5 0.3,-0.9 0,-0.4 -0.1,-0.7 -0.2,-0.9 -0.2,-0.3 -0.5,-0.4 -0.9,-0.4 -0.5,0.1 -0.8,0.6 -0.8,1.6 z" />
			<path
   id="path194"
   d="m 140.4,67.6 c -0.1,-0.1 -0.1,-0.2 -0.1,-0.3 0,-0.1 0,-0.2 0.1,-0.3 0.1,-0.1 0.2,-0.2 0.3,-0.2 0.1,0 0.2,0 0.3,0.1 0.1,0.1 0.1,0.2 0.1,0.3 0,0.1 0,0.2 -0.1,0.3 -0.1,0.1 -0.2,0.2 -0.3,0.2 -0.1,0 -0.2,0 -0.3,-0.1 z m 0.1,2.3 c 0,-0.3 0,-0.6 0,-0.9 0,-0.1 0,-0.2 0.1,-0.3 0.1,-0.1 0.2,-0.1 0.3,-0.2 0.1,0 0.2,0 0.3,0.1 0.1,0.1 0.1,0.1 0.1,0.3 0,0.2 0,0.5 0,0.9 0,0.3 0,0.6 0,0.9 0,0.1 0,0.4 0,0.7 0,0.3 0,0.5 0,0.6 0,0.1 0,0.2 -0.1,0.3 -0.1,0.1 -0.2,0.1 -0.3,0.1 -0.1,0 -0.2,0 -0.3,-0.1 -0.1,-0.1 -0.1,-0.1 -0.1,-0.2 0,-0.1 0,-0.4 0,-0.6 0,-0.3 0,-0.5 0,-0.7 0,-0.2 0,-0.5 0,-0.9 z" />
			<path
   id="path196"
   d="m 135.9,73.2 c -0.1,-0.1 -0.1,-0.1 -0.1,-0.2 0,-0.2 0,-0.4 0.1,-0.8 0.1,-0.3 0.1,-0.6 0.1,-0.8 0,-0.1 0,-0.2 0,-0.3 0,-0.1 0,-0.2 0,-0.4 0,-0.5 0.1,-0.8 0.2,-1.1 0.2,-0.4 0.5,-0.6 0.9,-0.7 0.5,-0.1 0.9,0.2 1.3,0.7 0,-0.1 0,-0.3 0,-0.4 0,-0.3 0.2,-0.5 0.4,-0.6 0.1,0 0.2,0 0.3,0.1 0.1,0.1 0.1,0.1 0.1,0.3 0,0.1 0,0.2 0,0.4 0,0.2 0,0.3 0,0.4 0,0.3 0,0.6 0,1.1 0,0.4 0,0.8 0,1 0,0.1 0,0.2 0,0.3 0,0.1 0,0.3 0,0.3 0,0.1 0,0.2 -0.1,0.3 -0.1,0.1 -0.2,0.1 -0.3,0.1 -0.1,0 -0.2,0 -0.3,-0.1 -0.1,-0.1 -0.1,-0.1 -0.1,-0.2 0,-0.1 0,-0.2 0,-0.3 0,-0.1 0,-0.3 0,-0.3 0,-0.1 0,-0.2 0,-0.3 0,-0.1 0,-0.3 0,-0.3 -0.1,-0.4 -0.3,-0.8 -0.5,-1 -0.3,-0.3 -0.5,-0.4 -0.8,-0.4 -0.2,0 -0.3,0.3 -0.3,0.8 0,0.1 0,0.2 0,0.3 0,0.2 0,0.3 0,0.3 0,0.2 0,0.5 -0.1,0.8 0,0.3 -0.1,0.5 -0.1,0.8 0,0.2 -0.2,0.3 -0.4,0.4 -0.2,-0.1 -0.3,-0.1 -0.3,-0.2 z" />
			<path
   id="path198"
   d="M 132.1,70.3 C 132,70.2 132,70.1 132,70 c 0,-0.2 0.1,-0.3 0.2,-0.4 0.1,0 0.3,-0.1 0.5,-0.1 0,0 0.2,0 0.6,0 0,-0.1 0,-0.2 0,-0.2 0,-0.1 0,-0.1 0,-0.2 0,-0.1 0,-0.3 0,-0.3 0,-0.4 0.2,-0.6 0.4,-0.6 0.1,0 0.2,0 0.3,0.1 0.1,0.1 0.1,0.2 0.1,0.3 0,0.1 0,0.3 0,0.5 0,0.2 0,0.4 0,0.5 0.3,-0.1 0.5,-0.1 0.8,-0.2 0.1,0 0.2,0 0.3,0.1 0.1,0.1 0.1,0.2 0.1,0.3 0,0.2 -0.1,0.4 -0.4,0.4 -0.4,0.1 -0.7,0.1 -0.9,0.2 0,0.7 -0.1,1.4 -0.1,2.1 0,0.1 0,0.2 0,0.4 0,0.2 0,0.3 0,0.4 0,0.1 0,0.2 -0.1,0.2 -0.1,0.1 -0.2,0.1 -0.3,0.1 -0.3,0 -0.4,-0.2 -0.4,-0.7 0,-0.1 0,-0.1 0,-0.2 0,-0.1 0,-0.1 0,-0.2 0,-0.7 0.1,-1.4 0.1,-2.2 -0.3,0 -0.5,0 -0.5,0 -0.1,0 -0.1,0 -0.2,0 -0.1,0 -0.1,0 -0.2,0 0,0.1 -0.1,0.1 -0.2,0 z" />
			<path
   id="path200"
   d="m 130.2,68.8 c -0.1,-0.1 -0.1,-0.2 -0.1,-0.3 0,-0.1 0.1,-0.2 0.1,-0.3 0.1,-0.1 0.2,-0.1 0.3,-0.2 0.1,0 0.2,0 0.3,0.1 0.1,0.1 0.1,0.2 0.1,0.3 0,0.1 -0.1,0.2 -0.1,0.3 -0.1,0.1 -0.2,0.1 -0.3,0.2 -0.1,0.1 -0.2,0 -0.3,-0.1 z m 0.1,2.4 c 0,-0.3 0,-0.6 0,-0.9 0,-0.1 0,-0.2 0.1,-0.3 0.1,-0.1 0.2,-0.1 0.3,-0.1 0.1,0 0.2,0 0.3,0.1 0.1,0.1 0.1,0.2 0.1,0.3 0,0.2 0,0.5 0,0.9 0,0.3 0,0.6 0,0.9 0,0.1 0,0.4 0,0.6 0,0.3 0,0.5 0,0.6 0,0.1 0,0.2 -0.1,0.3 -0.1,0.1 -0.2,0.1 -0.3,0.1 -0.1,0 -0.2,0 -0.3,-0.1 -0.1,-0.1 -0.1,-0.1 -0.1,-0.2 0,-0.1 0,-0.3 0,-0.6 0,-0.3 0,-0.5 0,-0.6 0,-0.4 0,-0.7 0,-1 z" />
			<path
   id="path202"
   d="m 125.6,74 c -0.1,-0.1 -0.1,-0.1 -0.1,-0.2 0,-0.2 0,-0.4 0.1,-0.8 0.1,-0.3 0.1,-0.6 0.1,-0.8 0,-0.1 0,-0.2 0,-0.3 0,-0.1 0,-0.2 0,-0.4 0,-0.5 0.1,-0.8 0.2,-1 0.2,-0.4 0.5,-0.6 0.9,-0.6 0.5,0 0.9,0.3 1.3,0.8 0,-0.1 0,-0.3 0,-0.4 0,-0.3 0.2,-0.5 0.4,-0.5 0.1,0 0.2,0 0.3,0.1 0.1,0.1 0.1,0.2 0.1,0.3 0,0.1 0,0.2 0,0.4 0,0.2 0,0.3 0,0.4 0,0.3 0,0.6 0,1.1 0,0.4 0,0.8 0,1 0,0.1 0,0.2 0,0.3 0,0.1 0,0.2 0,0.3 0,0.1 0,0.2 -0.1,0.3 -0.1,0.1 -0.2,0.1 -0.3,0.1 -0.1,0 -0.2,0 -0.3,-0.1 -0.1,-0.1 -0.1,-0.1 -0.1,-0.2 0,-0.1 0,-0.2 0,-0.3 0,-0.1 0,-0.2 0,-0.3 0,-0.1 0,-0.2 0,-0.3 0,-0.1 0,-0.3 0,-0.3 -0.1,-0.4 -0.3,-0.8 -0.5,-1.1 -0.3,-0.3 -0.5,-0.5 -0.8,-0.5 -0.2,0 -0.3,0.3 -0.3,0.8 0,0.1 0,0.2 0,0.3 0,0.2 0,0.3 0,0.3 0,0.2 0,0.5 -0.1,0.8 0,0.3 -0.1,0.5 -0.1,0.8 0,0.2 -0.2,0.3 -0.4,0.3 -0.1,-0.2 -0.2,-0.2 -0.3,-0.3 z" />
			<path
   id="path204"
   d="m 121.4,71.6 c 0,-0.3 -0.1,-0.5 -0.1,-0.7 0,-0.3 0.2,-0.4 0.4,-0.4 0.1,-0.1 0.2,-0.2 0.4,-0.3 0.2,-0.1 0.4,-0.1 0.6,-0.1 0.7,0 1.3,0.2 1.7,0.7 0.4,0.4 0.6,1 0.6,1.6 0,0.5 -0.2,0.9 -0.5,1.1 -0.3,0.3 -0.7,0.4 -1.2,0.4 -0.3,0 -0.5,-0.1 -0.7,-0.2 -0.2,-0.1 -0.4,-0.3 -0.5,-0.5 0,0.6 0,1 0.2,1.3 0.2,0.4 0.5,0.6 1,0.6 0.3,0 0.5,0 0.7,-0.1 0.2,0 0.4,-0.1 0.5,-0.1 0.2,0 0.3,0.1 0.3,0.3 0,0.2 -0.2,0.3 -0.5,0.3 -0.2,0 -0.5,0.1 -0.9,0.1 -0.6,0 -1,-0.1 -1.4,-0.3 -0.3,-0.2 -0.4,-0.4 -0.5,-0.8 -0.1,-0.3 -0.1,-0.7 -0.1,-1.1 0,-0.4 0,-0.8 0,-1.2 0.1,0 0.1,-0.3 0,-0.6 z m 1.1,-0.8 c -0.1,0 -0.2,0.1 -0.3,0.2 0,0.6 0.1,1 0.1,1.3 0,0.3 0.1,0.5 0.4,0.8 0.2,0.3 0.5,0.4 0.8,0.4 0.3,0 0.5,-0.1 0.7,-0.3 0.2,-0.2 0.2,-0.4 0.2,-0.8 0,-0.4 -0.1,-0.8 -0.3,-1.1 -0.3,-0.3 -0.6,-0.5 -1.1,-0.5 -0.3,-0.1 -0.4,-0.1 -0.5,0 z" />
			<path
   id="path206"
   d="m 115.3,70 c -0.1,-0.1 -0.1,-0.2 -0.1,-0.3 0,-0.2 0.1,-0.3 0.3,-0.3 0.1,0 0.3,0 0.5,0 0,0 0.2,0.1 0.6,0.1 0,-0.1 0,-0.2 0,-0.2 0,-0.1 0,-0.2 0,-0.2 0,-0.1 0,-0.3 0,-0.4 0.1,-0.4 0.2,-0.6 0.4,-0.5 0.1,0 0.2,0.1 0.3,0.1 0.1,0.1 0.1,0.2 0.1,0.3 0,0.1 0,0.3 0,0.5 0,0.2 0,0.4 0,0.5 0.3,0 0.5,0 0.8,0 0.1,0 0.2,0.1 0.3,0.1 0.1,0.1 0.1,0.2 0.1,0.3 0,0.2 -0.1,0.3 -0.4,0.4 -0.4,0 -0.7,0 -0.9,0 -0.1,0.8 -0.1,1.5 -0.2,2.2 0,0.1 0,0.2 0,0.4 0,0.2 0,0.3 0,0.4 0,0.1 0,0.2 -0.1,0.2 -0.1,0.1 -0.2,0.1 -0.3,0.1 -0.3,0 -0.4,-0.3 -0.4,-0.8 0,-0.1 0,-0.1 0,-0.2 0,-0.1 0,-0.1 0,-0.2 0.1,-0.7 0.1,-1.5 0.2,-2.2 -0.3,-0.1 -0.5,-0.1 -0.5,-0.1 -0.1,0 -0.1,0 -0.2,0 -0.1,0 -0.1,0 -0.2,0 -0.2,0 -0.3,-0.1 -0.3,-0.2 z" />
			<path
   id="path208"
   d="m 110.7,72.8 c -0.1,-0.1 -0.1,-0.2 -0.1,-0.3 0,0 0,-0.1 0,-0.1 0.1,-0.2 0.1,-0.5 0.2,-0.8 0,-0.3 0.1,-0.5 0.1,-0.8 0,-0.2 0,-0.5 0.1,-0.8 0,-0.5 0.1,-0.8 0.2,-1 0.2,-0.3 0.5,-0.3 0.9,-0.2 0.3,0.1 0.5,0.2 0.8,0.4 0.2,0.2 0.5,0.5 0.7,0.8 0,-0.1 0,-0.2 0,-0.3 0,-0.3 0,-0.6 0,-0.9 0,-0.3 0,-0.6 0,-0.9 0,-0.2 0,-0.5 0.1,-0.7 0,-0.2 0.2,-0.3 0.4,-0.3 0.1,0 0.2,0.1 0.3,0.2 0.1,0.1 0.1,0.2 0.1,0.3 0,0.1 0,0.3 -0.1,0.4 0,0.1 0,0.3 -0.1,0.4 0,0.1 0,0.3 0,0.7 0,1 -0.1,2 -0.1,2.9 0,0.2 0,0.4 0,0.6 0,0.3 0,0.5 0,0.6 0,0.1 0,0.1 0,0.2 0,0.1 0,0.2 -0.1,0.2 -0.1,0.1 -0.2,0.1 -0.3,0.1 -0.2,0 -0.3,-0.1 -0.3,-0.3 -0.1,-0.2 -0.1,-0.8 0,-1.7 -0.2,-0.5 -0.4,-0.8 -0.5,-1 -0.2,-0.4 -0.5,-0.6 -0.9,-0.6 -0.2,-0.1 -0.4,0.2 -0.4,0.7 0,0.1 0,0.2 0,0.3 0,0.1 0,0.2 0,0.3 0,0.2 0,0.5 -0.1,0.9 -0.1,0.4 -0.1,0.7 -0.2,0.9 -0.1,0.2 -0.2,0.3 -0.4,0.2 -0.2,-0.3 -0.3,-0.3 -0.3,-0.4 z" />
			<path
   id="path210"
   d="m 108.8,66.9 c -0.1,-0.1 -0.1,-0.2 -0.1,-0.4 0,-0.1 0.1,-0.2 0.2,-0.3 0.1,-0.1 0.2,-0.1 0.3,-0.1 0.1,0 0.2,0.1 0.3,0.2 0.1,0.1 0.1,0.2 0.1,0.4 0,0.1 -0.1,0.2 -0.2,0.3 -0.1,0.1 -0.2,0.1 -0.3,0.1 -0.1,0 -0.3,0 -0.3,-0.2 z m 0,2.6 c 0,-0.4 0,-0.7 0,-1 0,-0.1 0,-0.2 0.1,-0.3 0.1,-0.1 0.2,-0.1 0.3,0 0.1,0 0.2,0.1 0.3,0.2 0.1,0.1 0.1,0.2 0.1,0.3 0,0.3 0,0.6 0,1 0,0.4 0,0.7 0,0.9 0,0.2 0,0.4 0,0.7 0,0.3 0,0.5 0,0.7 0,0.1 0,0.2 -0.1,0.3 -0.1,0.1 -0.2,0.1 -0.3,0 -0.1,0 -0.2,-0.1 -0.3,-0.2 -0.1,-0.1 -0.1,-0.2 -0.1,-0.3 0,-0.2 0,-0.4 0,-0.7 0,-0.3 0,-0.6 0,-0.7 0,-0.2 0,-0.5 0,-0.9 z" />
			<path
   id="path212"
   d="m 104.6,67.7 c -0.1,-0.1 -0.1,-0.2 -0.1,-0.3 0,-0.1 0,-0.2 0.1,-0.3 0,-0.1 0.1,-0.3 0.1,-0.3 0,-0.1 0,-0.2 0.1,-0.3 0.1,-0.1 0.2,-0.1 0.3,0 0.1,0 0.2,0.1 0.3,0.2 0.1,0.1 0.4,0.3 0.7,0.5 0.3,0.2 0.6,0.4 0.7,0.5 0.5,0.4 0.7,0.9 0.7,1.5 0,0.3 -0.1,0.5 -0.4,0.6 -0.2,0.1 -0.4,0.1 -0.8,0.1 -0.1,0 -0.3,0 -0.4,0 -0.5,0 -0.8,0.2 -0.8,0.5 0,0.2 0.1,0.3 0.3,0.5 0.2,0.1 0.4,0.2 0.6,0.3 0.1,0 0.3,0.1 0.4,0.1 0.2,0 0.4,0 0.4,0 0.1,-0.1 0.2,-0.1 0.3,-0.1 0.1,0 0.2,0.1 0.3,0.2 0.1,0.1 0.1,0.2 0.1,0.3 0,0.3 -0.2,0.4 -0.6,0.5 -0.3,0 -0.6,0 -1,-0.1 -0.5,-0.1 -0.9,-0.3 -1.1,-0.6 -0.4,-0.3 -0.5,-0.7 -0.5,-1.2 0,-0.6 0.3,-0.9 0.7,-1.1 0.3,-0.1 0.8,-0.1 1.4,0 0.1,0 0.2,0 0.2,0 0,-0.3 -0.2,-0.5 -0.6,-0.9 -0.4,-0.3 -0.7,-0.5 -0.9,-0.6 0,0.2 -0.1,0.4 -0.1,0.4 -0.1,0.1 -0.2,0.1 -0.3,0.1 0,-0.3 -0.1,-0.4 -0.1,-0.5 z" />
			<path
   id="path214"
   d="m 203.8,73.7 c -0.1,-0.1 -0.1,-0.2 -0.1,-0.3 0,-0.2 0.1,-0.3 0.2,-0.3 0.1,0 0.3,0 0.5,0 0,0 0.2,0.1 0.6,0.2 0,-0.1 0,-0.2 0,-0.2 0,-0.1 0,-0.1 0,-0.2 0,-0.1 0,-0.2 0,-0.3 0,-0.4 0.1,-0.5 0.4,-0.5 0.1,0 0.2,0.1 0.3,0.2 0.1,0.1 0.1,0.2 0.1,0.3 0,0.1 0,0.2 0,0.4 0,0.2 0,0.4 0,0.5 0.3,0 0.6,0.1 0.8,0.1 0.1,0 0.2,0.1 0.3,0.2 0.1,0.1 0.1,0.2 0.1,0.3 0,0.2 -0.1,0.3 -0.3,0.3 -0.4,0 -0.7,-0.1 -0.9,-0.1 0,0.7 0,1.4 0,2.1 0,0.1 0,0.2 0,0.4 0,0.2 0,0.3 0,0.4 0,0.1 0,0.2 -0.1,0.2 -0.1,0.1 -0.2,0.1 -0.3,0.1 -0.3,0 -0.4,-0.3 -0.5,-0.8 0,-0.1 0,-0.1 0,-0.2 0,-0.1 0,-0.1 0,-0.2 0,-0.7 0,-1.5 0,-2.2 -0.3,-0.1 -0.5,-0.1 -0.5,-0.1 -0.1,0 -0.1,0 -0.2,0 -0.1,0 -0.1,0 -0.2,0 0,-0.1 -0.1,-0.2 -0.2,-0.3 z" />
			<path
   id="path216"
   d="m 199.5,77.2 c -0.1,-0.1 -0.1,-0.2 -0.1,-0.3 0,0 0,-0.1 0,-0.1 0,-0.3 0.1,-0.6 0.1,-0.9 0,-0.3 0,-0.6 0,-0.9 0,-0.3 0,-0.5 0,-0.8 0,-0.5 0,-0.9 0.2,-1.1 0.1,-0.3 0.4,-0.4 0.9,-0.4 0.3,0 0.5,0.1 0.8,0.3 0.3,0.2 0.5,0.4 0.7,0.7 0,-0.1 0,-0.2 0,-0.4 0,-0.3 0,-0.6 -0.1,-0.9 0,-0.3 -0.1,-0.6 -0.1,-0.9 0,-0.2 0,-0.4 0,-0.7 0,-0.2 0.1,-0.3 0.4,-0.3 0.1,0 0.2,0.1 0.3,0.2 0.1,0.1 0.1,0.2 0.1,0.3 0,0.1 0,0.2 0,0.4 0,0.1 0,0.2 0,0.4 0,0.1 0,0.3 0.1,0.7 0.1,1 0.1,1.9 0.2,2.9 0,0.2 0,0.4 0,0.6 0,0.3 0,0.5 0.1,0.6 0,0.1 0,0.1 0,0.2 0,0.1 0,0.2 -0.1,0.3 -0.1,0.1 -0.2,0.1 -0.3,0.1 -0.2,0 -0.3,-0.1 -0.4,-0.3 -0.1,-0.2 -0.2,-0.8 -0.2,-1.9 -0.3,-0.5 -0.5,-0.8 -0.6,-1 -0.3,-0.3 -0.6,-0.5 -0.9,-0.6 -0.2,0 -0.4,0.2 -0.3,0.8 0,0.1 0,0.2 0,0.3 0,0.2 0,0.3 0,0.3 0,0.3 0,0.6 0,1 0,0.4 -0.1,0.8 -0.1,1 0,0.2 -0.2,0.3 -0.4,0.3 -0.1,0.2 -0.2,0.2 -0.3,0.1 z" />
			<path
   id="path218"
   d="m 195.4,76.9 c -0.5,-0.3 -0.7,-0.6 -0.7,-0.9 0,-0.1 0,-0.2 0.1,-0.3 0.1,-0.1 0.2,-0.1 0.2,-0.1 0.1,0 0.2,0.1 0.3,0.3 0.1,0.2 0.3,0.3 0.6,0.4 0.2,0.1 0.5,0.1 0.6,0.1 0.3,0 0.5,-0.1 0.8,-0.2 0.2,-0.1 0.4,-0.3 0.5,-0.6 -0.5,-0.3 -1,-0.6 -1.5,-0.9 -0.4,-0.2 -0.7,-0.4 -0.9,-0.5 -0.3,-0.3 -0.5,-0.5 -0.5,-0.8 0,-0.4 0.1,-0.7 0.5,-0.9 0.3,-0.2 0.6,-0.2 1.1,-0.2 0.6,0 1.1,0.4 1.5,0.9 0.4,0.5 0.5,1.2 0.6,1.9 0,0.7 -0.2,1.2 -0.5,1.5 -0.4,0.3 -0.8,0.5 -1.4,0.5 -0.5,0.1 -0.9,0 -1.3,-0.2 z m 0.2,-3.5 c 0.2,0.2 0.6,0.5 1,0.7 0.4,0.2 0.8,0.5 1.2,0.7 -0.1,-0.6 -0.3,-1 -0.5,-1.3 -0.2,-0.3 -0.5,-0.4 -0.8,-0.5 -0.4,0 -0.7,0.1 -0.9,0.4 z" />
			<path
   id="path220"
   d="m 188.7,76.5 c -0.3,-0.5 -0.5,-1.1 -0.5,-1.9 0,-0.7 0.1,-1.2 0.3,-1.7 0.3,-0.6 0.6,-0.9 1.2,-0.9 0.7,0 1.2,0.3 1.6,1 0.3,0.5 0.5,1.2 0.5,1.9 0,0.7 -0.2,1.4 -0.5,1.8 -0.3,0.4 -0.7,0.6 -1.1,0.6 -0.7,0 -1.2,-0.2 -1.5,-0.8 z m 0.2,-1.6 c 0,0.5 0.2,0.8 0.4,1.1 0.2,0.2 0.4,0.4 0.7,0.4 0.2,0 0.4,-0.1 0.6,-0.3 0.2,-0.3 0.3,-0.6 0.3,-1.1 0,-0.5 -0.1,-0.9 -0.3,-1.2 -0.2,-0.4 -0.5,-0.7 -0.9,-0.7 -0.6,-0.1 -0.9,0.5 -0.8,1.8 z" />
			<path
   id="path222"
   d="m 184.2,72.9 c -0.1,-0.1 -0.1,-0.2 -0.1,-0.3 0,-0.2 0.1,-0.4 0.2,-0.5 0.1,0 0.3,-0.1 0.5,-0.1 0,0 0.2,0 0.6,0.1 0,-0.1 0,-0.2 0,-0.3 0,-0.1 0,-0.2 0,-0.3 0,-0.2 0,-0.3 0,-0.4 0,-0.5 0.2,-0.7 0.4,-0.7 0.1,0 0.2,0 0.3,0.1 0.1,0.1 0.1,0.2 0.1,0.3 0,0.1 0,0.3 0,0.6 0,0.3 0,0.5 0,0.6 0.3,0 0.6,-0.1 0.8,-0.1 0.1,0 0.2,0 0.3,0.1 0.1,0.1 0.1,0.2 0.1,0.3 0,0.3 -0.1,0.4 -0.3,0.5 -0.4,0.1 -0.7,0.1 -0.9,0.1 0,0.9 0,1.9 0,2.9 0,0.1 0,0.3 0,0.6 0,0.3 0,0.4 0,0.6 0,0.1 0,0.2 -0.1,0.3 -0.1,0.1 -0.2,0.1 -0.3,0.1 -0.3,0 -0.4,-0.4 -0.4,-1.1 0,-0.1 0,-0.2 0,-0.3 0,-0.1 0,-0.1 0,-0.2 0,-1 0,-2 0,-2.9 -0.3,0 -0.5,-0.1 -0.5,-0.1 -0.1,0 -0.1,0 -0.2,0 -0.1,0 -0.1,0 -0.2,0 -0.1,0.2 -0.2,0.1 -0.3,0.1 z" />
			<path
   id="path224"
   d="m 179.8,77.6 c -0.1,-0.1 -0.1,-0.2 -0.1,-0.3 0,0 0,-0.1 0,-0.1 0,-0.3 0.1,-0.6 0.1,-1 0,-0.3 0,-0.7 0.1,-1 0,-0.3 0,-0.6 0,-0.9 0,-0.6 0.1,-1 0.2,-1.2 0.2,-0.4 0.5,-0.5 0.9,-0.6 0.3,0 0.5,0.1 0.8,0.2 0.3,0.2 0.5,0.4 0.7,0.8 0,-0.1 0,-0.3 0,-0.4 0,-0.4 0,-0.7 0,-1 0,-0.4 0,-0.7 -0.1,-1 0,-0.2 0,-0.5 0,-0.8 0,-0.3 0.2,-0.4 0.4,-0.4 0.1,0 0.2,0 0.3,0.1 0.1,0.1 0.1,0.2 0.1,0.3 0,0.1 0,0.3 0,0.4 0,0.1 0,0.3 0,0.4 0,0.1 0,0.4 0,0.8 0,1.2 0.1,2.3 0.1,3.5 0,0.2 0,0.5 0,0.7 0,0.4 0,0.6 0.1,0.7 0,0.1 0,0.2 0,0.2 0,0.1 0,0.3 -0.1,0.4 -0.1,0.1 -0.2,0.2 -0.3,0.2 -0.2,0 -0.3,-0.1 -0.4,-0.3 -0.1,-0.2 -0.1,-1 -0.2,-2.2 -0.2,-0.5 -0.4,-0.9 -0.6,-1.1 -0.3,-0.4 -0.6,-0.5 -0.9,-0.5 -0.2,0 -0.4,0.3 -0.4,0.9 0,0.1 0,0.2 0,0.4 0,0.2 0,0.3 0,0.4 0,0.3 0,0.7 0,1.2 0,0.5 -0.1,0.9 -0.1,1.2 -0.1,0.3 -0.2,0.4 -0.4,0.4 0,-0.3 -0.1,-0.3 -0.2,-0.4 z" />
			<path
   id="path226"
   d="M 175.7,77.5 C 175.2,77.3 175,77 175,76.6 c 0,-0.1 0,-0.2 0.1,-0.3 0.1,-0.1 0.2,-0.1 0.2,-0.1 0.1,0 0.2,0.1 0.3,0.2 0.1,0.2 0.3,0.3 0.6,0.4 0.2,0.1 0.5,0.1 0.6,0.1 0.3,0 0.5,-0.1 0.8,-0.3 0.2,-0.2 0.4,-0.4 0.5,-0.7 -0.5,-0.3 -1,-0.5 -1.5,-0.8 -0.4,-0.2 -0.7,-0.4 -0.8,-0.5 -0.3,-0.2 -0.5,-0.5 -0.5,-0.8 0,-0.4 0.2,-0.8 0.5,-1 0.3,-0.2 0.6,-0.3 1.1,-0.4 0.6,0 1.1,0.2 1.5,0.8 0.3,0.5 0.5,1.2 0.5,2.1 0,0.7 -0.2,1.3 -0.6,1.8 -0.4,0.4 -0.8,0.6 -1.4,0.6 -0.4,0.1 -0.8,0 -1.2,-0.2 z m 0.3,-3.7 c 0.2,0.2 0.6,0.4 1,0.6 0.4,0.2 0.8,0.4 1.2,0.6 -0.1,-0.6 -0.3,-1.1 -0.5,-1.3 -0.2,-0.3 -0.5,-0.4 -0.8,-0.4 -0.4,0.1 -0.7,0.3 -0.9,0.5 z" />
			<path
   id="path228"
   d="m 171.1,74.2 c 0,-0.4 0,-0.7 0.1,-0.9 0.1,-0.2 0.3,-0.3 0.5,-0.3 0.6,-0.1 1.2,0.2 1.7,0.7 0,-0.5 0.1,-0.8 0.4,-0.8 0.2,0 0.3,0.1 0.4,0.4 0,0.1 0,0.3 0,0.5 0,0.2 0,0.4 0,0.5 0,1.1 0,2.2 0.1,3.4 0,0.3 -0.1,0.5 -0.3,0.5 -0.3,0 -0.4,-0.1 -0.4,-0.5 0,-0.9 0,-1.8 0,-2.6 -0.2,-0.4 -0.4,-0.7 -0.6,-0.9 -0.3,-0.2 -0.6,-0.3 -1,-0.3 0,0.1 0,0.3 0,0.4 0,0.2 0,0.3 0,0.3 0,0.3 -0.1,0.5 -0.3,0.5 -0.2,0 -0.4,-0.2 -0.4,-0.5 -0.2,-0.2 -0.2,-0.3 -0.2,-0.4 z" />
			<path
   id="path230"
   d="m 163.1,74.5 c 0,-0.1 0,-0.2 0.1,-0.3 0.1,-0.1 0.2,-0.1 0.3,-0.2 0.2,0 0.3,0 0.3,0.2 0.2,0.7 0.4,1.5 0.5,2.3 0.1,0.4 0.2,0.8 0.3,1.2 0.1,-0.4 0.2,-1 0.3,-1.7 0.1,-0.7 0.2,-1.2 0.2,-1.6 0.1,-0.4 0.2,-0.6 0.4,-0.6 0.2,0 0.4,0.1 0.5,0.4 0.3,1.1 0.6,2.1 0.9,3.1 0.1,-0.7 0.1,-1.4 0.2,-2 0,-0.2 0,-0.4 0.1,-0.7 0,-0.3 0,-0.5 0.1,-0.7 0,-0.2 0.2,-0.4 0.4,-0.4 0.1,0 0.2,0 0.3,0.1 0.1,0.1 0.1,0.2 0.1,0.3 0,0.2 0,0.4 0,0.7 0,0.2 -0.1,0.5 -0.1,0.7 -0.1,0.8 -0.2,1.4 -0.3,1.9 -0.2,0.9 -0.4,1.4 -0.6,1.4 -0.2,0 -0.3,-0.1 -0.4,-0.2 -0.1,-0.1 -0.1,-0.1 -0.2,-0.3 -0.2,-0.6 -0.4,-1.2 -0.6,-1.8 -0.1,-0.3 -0.2,-0.5 -0.3,-0.8 0,0.3 -0.1,0.7 -0.1,1 -0.1,0.4 -0.1,0.8 -0.2,1 -0.2,0.8 -0.4,1.2 -0.7,1.3 -0.2,0 -0.3,-0.1 -0.4,-0.2 -0.2,-0.3 -0.3,-0.5 -0.4,-0.8 -0.3,-1.2 -0.6,-2.2 -0.8,-3.1 0.2,-0.1 0.1,-0.2 0.1,-0.2 z" />
			<path
   id="path232"
   d="m 159,79 c -0.1,-0.1 -0.1,-0.2 -0.1,-0.3 0,0 0,0 0,-0.1 0,-0.1 0.1,-0.2 0.1,-0.2 0.1,-0.4 0.2,-0.6 0.2,-0.7 0,-0.2 0.1,-0.5 0.1,-0.8 0,-0.4 0,-0.7 0,-0.9 0,-0.2 0,-0.4 -0.1,-0.5 -0.1,0 -0.1,-0.1 -0.1,-0.2 0,-0.2 0.2,-0.4 0.5,-0.6 0.3,-0.2 0.5,-0.3 0.8,-0.3 0.6,-0.1 1.1,0.1 1.6,0.5 0.4,0.4 0.7,1 0.7,1.7 0,0.7 -0.1,1.3 -0.4,1.7 -0.3,0.4 -0.7,0.6 -1.3,0.7 -0.1,0 -0.3,0 -0.5,-0.1 -0.2,-0.1 -0.4,-0.1 -0.7,-0.3 -0.1,0.1 -0.1,0.2 -0.3,0.3 -0.1,0.1 -0.2,0.2 -0.3,0.2 0,0 -0.1,0 -0.2,-0.1 z m 1,-1.2 c 0.2,0.1 0.3,0.2 0.4,0.3 0.2,0.1 0.4,0.1 0.6,0.1 0.3,0 0.5,-0.2 0.7,-0.4 0.2,-0.2 0.2,-0.6 0.2,-1.1 0,-0.5 -0.2,-0.9 -0.5,-1.2 -0.3,-0.3 -0.7,-0.4 -1.1,-0.4 0,0 -0.1,0 -0.2,0.1 -0.1,0 -0.2,0.1 -0.3,0.1 0,0.2 0.1,0.3 0.1,0.4 0,0.1 0,0.3 0,0.4 0.2,0.4 0.2,1 0.1,1.7 z" />
			<path
   id="path234"
   d="m 154.7,75.6 c 0,-0.1 0,-0.2 0.1,-0.3 0.1,-0.1 0.2,-0.1 0.3,-0.2 0.1,0 0.2,0 0.3,0.2 0.2,0.3 0.4,0.7 0.6,1.1 0.2,0.4 0.4,0.8 0.6,1.3 0.5,-1.2 1,-2.1 1.4,-2.8 0.1,-0.1 0.2,-0.2 0.3,-0.2 0.1,0 0.2,0 0.3,0.1 0.1,0.1 0.1,0.2 0.1,0.3 0,0.1 0,0.2 -0.1,0.3 -0.1,0.1 -0.1,0.2 -0.2,0.3 -0.5,1 -0.9,1.9 -1.4,2.9 0.6,1.2 0.9,2 0.9,2.2 0,0.1 0,0.2 -0.1,0.3 -0.1,0.1 -0.2,0.1 -0.3,0.1 -0.2,0 -0.3,-0.1 -0.4,-0.3 -0.1,-0.3 -0.2,-0.5 -0.3,-0.7 -0.2,-0.5 -0.4,-1 -0.8,-1.7 -0.5,-0.9 -0.9,-1.8 -1.4,-2.7 0.1,0 0.1,-0.1 0.1,-0.2 z" />
			<path
   id="path236"
   d="m 153.2,79.5 c -0.1,-0.1 -0.1,-0.2 -0.1,-0.3 0,-0.1 0,-0.2 0.1,-0.3 0.1,-0.1 0.2,-0.2 0.3,-0.2 0.1,0 0.3,0 0.3,0.1 0.1,0.1 0.1,0.2 0.1,0.3 0,0.1 0,0.2 -0.1,0.3 -0.1,0.1 -0.2,0.1 -0.3,0.2 -0.1,0.1 -0.2,0 -0.3,-0.1 z" />
		</g>
	</g>
	<g
   id="g241">
	</g>
	<g
   id="g243">
	</g>
	<g
   id="g245">
	</g>
	<g
   id="g247">
	</g>
	<g
   id="g249">
	</g>
	<g
   id="g251">
	</g>
</g></g><g
   style="display:inline"
   inkscape:label="F.Cu"
   id="layer4"
   inkscape:groupmode="layer"><g
     id="F.Cu">
	<g
   id="g39">
		<path
   d="m 234.1,54.4 c 0,5 -2.4,9.1 -5.4,9.1 2.9,0 5.4,4.1 5.4,9.1 0,-5 2.4,-9.1 5.4,-9.1 -3.1,0 -5.4,-4.1 -5.4,-9.1 z"
   class="st2"
   id="sparkle_00000094620413317945553940000013653982232516652955_" />
		<path
   d="m 242.2,61.7 c 0,3.4 -1.9,6.3 -4.4,6.3 2.4,0 4.4,2.8 4.4,6.3 0,-3.4 1.9,-6.3 4.4,-6.3 -2.4,0 -4.4,-2.8 -4.4,-6.3 z"
   class="st2"
   id="sparkle_00000016792752226841287610000015896931371732710575_" />
		<path
   d="m 228,65.6 c 0,1.9 -1.2,3.5 -2.6,3.5 1.5,0 2.6,1.5 2.6,3.5 0,-1.9 1.2,-3.5 2.6,-3.5 -1.4,0 -2.6,-1.6 -2.6,-3.5 z"
   class="st2"
   id="sparkle_00000074416348754522713770000011424244871922890147_" />
		<path
   d="m 42.8,23.6 c 0,5 -2.4,9.1 -5.4,9.1 2.9,0 5.4,4.1 5.4,9.1 0,-5 2.4,-9.1 5.4,-9.1 -3.1,0 -5.4,-4.1 -5.4,-9.1 z"
   class="st2"
   id="sparkle_00000074407089255064613140000015229098018463071658_" />
		<path
   d="m 38.5,35.8 c 0,3.4 -1.9,6.3 -4.4,6.3 2.4,0 4.4,2.8 4.4,6.3 0,-3.4 1.9,-6.3 4.4,-6.3 -2.4,0 -4.4,-2.8 -4.4,-6.3 z"
   class="st2"
   id="sparkle_00000055666637513547420570000012902965338539643565_" />
		<path
   d="m 34.1,32.7 c 0,1.9 -1.2,3.5 -2.6,3.5 1.5,0 2.6,1.5 2.6,3.5 0,-1.9 1.2,-3.5 2.6,-3.5 -1.4,0 -2.6,-1.6 -2.6,-3.5 z"
   class="st2"
   id="sparkle_00000183954794287525759520000017358901324574573245_" />
		<path
   d="m 145.8,103.7 c 0,5 -2.4,9.1 -5.4,9.1 2.9,0 5.4,4.1 5.4,9.1 0,-5 2.4,-9.1 5.4,-9.1 -3.1,0 -5.4,-4.1 -5.4,-9.1 z"
   class="st2"
   id="sparkle_00000114033819982892734090000007843146746563227796_" />
		<path
   d="m 152.3,112.8 c 0,2.1 -1.2,3.9 -2.7,3.9 1.5,0 2.7,1.7 2.7,3.9 0,-2.1 1.2,-3.9 2.7,-3.9 -1.4,0 -2.7,-1.7 -2.7,-3.9 z"
   class="st2"
   id="sparkle_00000137105126019696312440000000425707676783927449_" />
		<path
   d="m 140.2,114.9 c 0,1.9 -1.2,3.5 -2.6,3.5 1.5,0 2.6,1.5 2.6,3.5 0,-1.9 1.2,-3.5 2.6,-3.5 -1.4,0 -2.6,-1.6 -2.6,-3.5 z"
   class="st2"
   id="sparkle_00000065048991051615148130000012681469672928668333_" />
		<path
   d="m 111.8,40.8 c 0,5 -2.4,9.1 -5.4,9.1 2.9,0 5.4,4.1 5.4,9.1 0,-5 2.4,-9.1 5.4,-9.1 -3.1,0 -5.4,-4.1 -5.4,-9.1 z"
   class="st2"
   id="sparkle_00000018214292654284255020000016770760607951060129_" />
		<path
   d="m 192.2,50.8 c 0,2.1 -1.2,3.9 -2.7,3.9 1.5,0 2.7,1.7 2.7,3.9 0,-2.1 1.2,-3.9 2.7,-3.9 -1.4,0 -2.7,-1.8 -2.7,-3.9 z"
   class="st2"
   id="sparkle_00000101811118281655740870000009291371209136461990_" />
		<path
   d="m 156.5,38.3 c 0,1.9 -1.2,3.5 -2.6,3.5 1.5,0 2.6,1.5 2.6,3.5 0,-1.9 1.2,-3.5 2.6,-3.5 -1.4,0 -2.6,-1.6 -2.6,-3.5 z"
   class="st2"
   id="sparkle_00000057123294098204907480000000059596148534962567_" />
	</g>
	<g
   id="left">
		<path
   id="path41"
   d="m 31,21.8 c -1.4,1.2 -2.6,2.5 -3.6,3.9 -1,1.4 -1.9,2.8 -2.5,4.2 -0.7,1.4 -1.2,2.9 -1.6,4.6 -0.4,1.7 -0.6,3.3 -0.6,4.7 0,1.4 0.2,2.8 0.5,4.2 0.3,1.4 0.8,2.9 1.5,4.4 0.7,1.5 1.5,2.8 2.4,4 0.9,1.2 15.3,12.6 43.3,34.2 28,21.6 42.7,32.6 44.2,33.1 1.5,0.5 3.2,0.7 5.1,0.6 1.9,-0.1 3.7,-0.5 5.3,-1.2 1.6,-0.7 3,-1.5 4.3,-2.5 1.3,-1 2.6,-2.3 4,-4.1 1.4,-1.8 2.5,-3.8 3.3,-6.1 0.8,-2.3 1.2,-4.4 1.2,-6.1 0,-1.8 -0.5,-3.6 -1.3,-5.6 -0.9,-2 -1.8,-3.4 -2.8,-4.4 -1,-1 -11.4,-9.1 -31.2,-24.3 C 82.7,50.3 72,42.3 70.4,41.7 c -1.6,-0.7 -2.9,-1 -4.1,-1 -1.1,0 -2.2,0 -3.1,0.3 -0.9,0.2 -2.3,0.9 -4.2,2.1 -1.9,1.2 -3.4,2.6 -4.4,4.1 -1.1,1.5 -1.8,2.9 -2.2,4.3 -0.4,1.4 -0.6,2.8 -0.5,4.3 0.1,1.5 0.4,2.8 0.8,3.9 0.5,1.1 1.2,2.1 2.1,3.1 0.9,1 9.6,7.8 26,20.4 16.4,12.6 25,19.1 25.9,19.4 0.8,0.3 1.5,0.3 2.2,0.1 0.6,-0.2 1.1,-0.8 1.6,-1.5 0.4,-0.8 0.4,-1.6 0,-2.5 C 110.1,97.8 101.5,90.9 84.7,78 67.8,65 59.2,58.2 58.8,57.4 c -0.4,-0.8 -0.7,-1.5 -0.7,-2 0,-0.6 0.3,-1.6 0.9,-3 0.6,-1.5 1.6,-2.7 2.8,-3.6 1.3,-1 2.4,-1.5 3.3,-1.6 1,-0.1 1.7,-0.1 2.3,0 0.6,0.1 10.9,7.8 30.9,23.2 20,15.4 30.4,23.4 31,24 0.6,0.6 1.2,1.6 1.6,2.7 0.4,1.1 0.5,2.3 0.4,3.7 -0.1,1.4 -0.4,2.6 -0.8,3.7 -0.4,1.1 -1.1,2.2 -2.1,3.5 -0.9,1.2 -1.7,2.1 -2.4,2.7 -0.6,0.5 -1.6,1.1 -2.7,1.7 -1.2,0.6 -2.3,1 -3.5,1.2 -1.1,0.1 -2.2,0.1 -3,-0.2 -0.9,-0.3 -1.9,-0.8 -2.9,-1.5 C 112.8,111.2 99.6,101 74,81.4 48.5,61.8 35,51.2 33.6,49.8 c -1.4,-1.5 -2.6,-3.2 -3.4,-5 -0.8,-1.9 -1.3,-3.4 -1.4,-4.6 -0.1,-1.2 0.1,-2.5 0.4,-4 0.3,-1.5 0.7,-2.7 1.2,-3.7 0.5,-1 1.2,-2.1 2.1,-3.2 0.9,-1.1 1.9,-2.2 3.1,-3.1 1.2,-0.9 2.3,-1.6 3.5,-2.2 1.2,-0.6 2.4,-0.9 3.7,-1.2 1.4,-0.3 2.7,-0.3 4,-0.2 1.3,0.1 3,0.7 5,1.7 2,1 13.1,9.3 33.3,24.9 20.2,15.6 30.7,23.5 31.4,23.7 0.7,0.2 1.4,0.1 2.1,-0.3 0.7,-0.4 1.1,-1 1.4,-1.9 0.3,-0.9 0.2,-1.7 -0.1,-2.3 C 119.5,67.7 108.8,59.3 87.7,43.2 66.6,26.9 55,18.4 53,17.6 c -2,-0.8 -4.2,-1.2 -6.6,-1.4 -2.4,-0.1 -4.5,0.1 -6.2,0.5 -1.7,0.5 -3.3,1.1 -4.9,1.9 -1.5,0.9 -2.9,2 -4.3,3.2 z"
   class="st3" />
		<path
   id="path43"
   d="m 27.1,30.6 c 0.4,-0.1 0.7,0 0.9,0.4 0.2,0.4 0,1.3 -0.6,2.8 -0.6,1.5 -0.9,2.7 -1,3.6 -0.1,0.9 -0.2,1.4 -0.5,1.5 -0.2,0.1 -0.5,0 -0.8,-0.3 -0.3,-0.3 -0.5,-0.7 -0.5,-1.1 0,-0.4 0.3,-1.7 0.9,-3.7 0.7,-2 1.2,-3.1 1.6,-3.2 z"
   class="st4" />
		<path
   id="path45"
   d="m 25.7,42.1 c 0.4,0 0.8,0.5 1.1,1.5 0.3,1.1 0.8,2.2 1.4,3.4 0.7,1.2 1.5,2.4 2.4,3.5 1,1.1 2,2 3,2.7 1.1,0.7 1.6,1.3 1.7,1.8 0,0.2 0,0.4 0.1,0.7 -0.2,0 -0.4,0 -0.7,0.1 -0.4,0 -0.9,-0.1 -1.3,-0.4 -0.5,-0.3 -1.5,-1.3 -3.2,-3.1 -1.7,-1.7 -2.9,-3.4 -3.7,-5.1 -0.8,-1.7 -1.3,-3 -1.3,-3.8 -0.1,-0.8 0.1,-1.2 0.5,-1.3 z"
   class="st4" />
		<path
   id="path47"
   d="m 55.5,50 c 0.4,-0.2 0.7,-0.1 0.9,0.2 0.3,0.3 0.2,0.9 -0.1,1.6 -0.3,0.7 -0.5,1.4 -0.5,2 0,0.6 -0.1,1 -0.5,1.2 -0.3,0.3 -0.6,0.3 -0.9,0.1 -0.3,-0.2 -0.5,-0.5 -0.5,-0.9 0,-0.4 0.2,-1.1 0.5,-2.2 0.4,-1.2 0.8,-1.8 1.1,-2 z"
   class="st4" />
		<path
   id="path49"
   d="m 54.9,56.2 c 0.4,0 1,0.6 1.6,1.9 0.6,1.3 1.5,2.4 2.6,3.2 1.1,0.8 1.7,1.5 1.9,1.9 0.1,0.2 0.2,0.5 0.2,0.7 -0.3,0 -0.5,0.1 -0.8,0.1 -0.5,0.1 -1.4,-0.4 -2.6,-1.4 -1.2,-1 -2.1,-2.1 -2.7,-3.2 -0.6,-1.1 -0.9,-1.9 -0.9,-2.5 0.1,-0.3 0.3,-0.6 0.7,-0.7 z"
   class="st4" />
		<path
   id="path51"
   d="m 127.1,88.9 c 0.3,-0.1 1.3,0.5 2.8,1.7 1.5,1.2 2.6,2.5 3.4,3.7 0.7,1.2 1.1,2.1 1.1,2.6 0,0.6 -0.2,0.9 -0.6,0.9 -0.4,0 -0.9,-0.5 -1.5,-1.7 -0.6,-1.2 -1.6,-2.4 -3.1,-3.7 -1.5,-1.3 -2.3,-2.1 -2.4,-2.6 -0.1,-0.5 0,-0.8 0.3,-0.9 z"
   class="st4" />
		<path
   id="path53"
   d="m 133.9,99.1 c 0.4,0 0.7,0.1 0.9,0.4 0.2,0.3 0.1,1.1 -0.2,2.5 -0.3,1.4 -0.6,2.2 -1,2.4 -0.4,0.2 -0.7,0.1 -0.9,-0.2 -0.3,-0.3 -0.2,-0.9 0.1,-1.7 0.3,-0.8 0.5,-1.6 0.5,-2.2 -0.1,-0.8 0.2,-1.1 0.6,-1.2 z"
   class="st4" />
	</g>
	<g
   id="right">
		<path
   id="path56"
   d="m 118.5,108.3 c 0,1.9 0.2,3.6 0.6,5.3 0.4,1.7 0.9,3.2 1.5,4.6 0.6,1.4 1.4,2.8 2.5,4.2 1,1.4 2.1,2.6 3.1,3.5 1.1,0.9 2.2,1.7 3.5,2.4 1.3,0.7 2.7,1.3 4.3,1.7 1.6,0.4 3.1,0.7 4.6,0.8 1.5,0.1 19.6,-3.4 54.2,-10.4 34.6,-7 52.6,-10.9 54,-11.7 1.4,-0.8 2.6,-1.9 3.8,-3.4 1.2,-1.5 2,-3.1 2.6,-4.7 0.6,-1.6 0.9,-3.3 1,-4.9 0.1,-1.6 -0.1,-3.5 -0.5,-5.7 -0.4,-2.2 -1.3,-4.4 -2.5,-6.5 -1.2,-2.1 -2.5,-3.8 -3.8,-4.9 -1.3,-1.1 -3,-2 -5.1,-2.7 -2.1,-0.6 -3.8,-0.9 -5.1,-0.8 -1.4,0.1 -14.3,2.7 -38.7,7.6 -24.4,5 -37.4,7.8 -39,8.6 -1.5,0.8 -2.7,1.6 -3.5,2.4 -0.8,0.8 -1.4,1.7 -1.8,2.5 -0.4,0.8 -0.8,2.3 -1.2,4.6 -0.3,2.2 -0.3,4.2 0.2,6 0.4,1.8 1,3.3 1.8,4.5 0.8,1.2 1.7,2.3 3,3.2 1.2,1 2.4,1.6 3.5,1.9 1.1,0.3 2.3,0.5 3.7,0.5 1.4,0 12.2,-2.1 32.5,-6.2 20.3,-4.1 30.8,-6.4 31.6,-6.8 0.8,-0.4 1.3,-0.9 1.5,-1.6 0.2,-0.6 0.2,-1.4 -0.1,-2.2 -0.3,-0.8 -1,-1.4 -1.9,-1.7 -0.9,-0.3 -11.8,1.7 -32.5,6 -20.7,4.3 -31.6,6.3 -32.4,6.1 -0.9,-0.2 -1.5,-0.5 -2,-0.8 -0.4,-0.4 -1,-1.2 -1.7,-2.7 -0.7,-1.4 -1,-2.9 -0.9,-4.5 0.1,-1.6 0.4,-2.8 0.9,-3.6 0.5,-0.8 1,-1.4 1.5,-1.7 0.5,-0.3 13.1,-3 37.8,-8.1 24.7,-5.1 37.6,-7.6 38.5,-7.7 0.9,0 2,0.1 3,0.6 1.1,0.4 2.1,1.1 3.1,2.1 1,1 1.7,2 2.2,3 0.5,1 1,2.3 1.3,3.8 0.3,1.5 0.5,2.7 0.5,3.5 0,0.8 -0.2,1.9 -0.5,3.2 -0.3,1.3 -0.8,2.4 -1.4,3.4 -0.6,1 -1.4,1.7 -2.1,2.2 -0.8,0.5 -1.8,0.9 -3.1,1.2 -1.3,0.3 -17.6,3.7 -49.2,10.1 -31.5,6.4 -48.3,9.7 -50.4,9.8 -2.1,0.1 -4.1,-0.1 -6,-0.7 -2,-0.6 -3.4,-1.3 -4.4,-2 -1,-0.7 -1.9,-1.7 -2.8,-2.9 -0.9,-1.2 -1.6,-2.3 -2,-3.4 -0.4,-1 -0.8,-2.3 -1.1,-3.7 -0.3,-1.4 -0.4,-2.9 -0.3,-4.4 0.1,-1.5 0.3,-2.8 0.7,-4 0.4,-1.2 0.9,-2.4 1.6,-3.6 0.7,-1.2 1.5,-2.2 2.5,-3.1 1,-0.9 2.5,-1.8 4.5,-2.7 2.1,-0.9 15.6,-3.8 40.7,-8.8 25,-5 37.9,-7.7 38.5,-8.2 0.6,-0.5 1,-1 1.2,-1.8 0.2,-0.7 0,-1.5 -0.5,-2.3 -0.5,-0.8 -1.1,-1.3 -1.8,-1.4 -0.7,-0.2 -14.1,2.4 -40.2,7.8 -26.1,5.4 -40,8.6 -42,9.6 -1.9,1 -3.7,2.4 -5.4,4.1 -1.7,1.7 -2.9,3.4 -3.7,5 -0.8,1.6 -1.4,3.2 -1.7,4.9 -0.5,1.9 -0.7,3.7 -0.7,5.6 z"
   class="st3" />
		<path
   id="path58"
   d="m 155.6,101.4 c 0.2,0.4 0.5,0.5 0.8,0.4 0.3,-0.1 0.5,-0.6 0.5,-1.3 0,-0.8 0.1,-1.4 0.4,-1.8 0.2,-0.4 0.3,-0.8 0.1,-1.2 -0.2,-0.4 -0.4,-0.6 -0.7,-0.6 -0.3,0 -0.6,0.2 -0.7,0.4 -0.2,0.3 -0.3,1 -0.5,2 -0.1,1 -0.1,1.7 0.1,2.1 z"
   class="st4" />
		<path
   id="path60"
   d="m 157.6,96.1 c 0.3,0.3 1,0.1 2.1,-0.7 1,-0.7 2.2,-1.1 3.4,-1.2 1.2,-0.1 2,-0.2 2.3,-0.5 0.2,-0.1 0.3,-0.3 0.5,-0.4 -0.2,-0.2 -0.4,-0.3 -0.6,-0.5 -0.4,-0.3 -1.3,-0.4 -2.6,-0.3 -1.4,0.2 -2.5,0.5 -3.4,1.1 -0.9,0.6 -1.5,1 -1.7,1.5 -0.4,0.4 -0.3,0.7 0,1 z"
   class="st4" />
		<path
   id="path62"
   d="m 232.2,79.6 c 0.2,-0.3 1.2,-0.6 3.1,-0.9 1.9,-0.3 3.6,-0.4 5,-0.1 1.4,0.2 2.3,0.5 2.7,0.9 0.4,0.4 0.5,0.7 0.3,1.1 -0.3,0.4 -1,0.4 -2.3,0 -1.3,-0.4 -2.9,-0.4 -4.8,-0.1 -1.9,0.3 -3.1,0.4 -3.6,0.1 -0.4,-0.4 -0.5,-0.7 -0.4,-1 z"
   class="st4" />
		<path
   id="path64"
   d="m 244.4,81.2 c 0.3,-0.4 0.5,-0.5 0.9,-0.4 0.4,0.1 0.9,0.7 1.8,1.8 0.8,1.1 1.2,1.9 1.1,2.3 -0.1,0.4 -0.3,0.6 -0.8,0.6 -0.4,0 -0.8,-0.4 -1.3,-1.2 -0.4,-0.8 -0.9,-1.4 -1.4,-1.8 -0.4,-0.5 -0.6,-0.9 -0.3,-1.3 z"
   class="st4" />
	</g>
</g></g><g
   inkscape:groupmode="layer"
   id="g1279"
   inkscape:label="F.Mask"
   style="display:inline"><g
     id="g1277">
	<g
   id="g1247">
		<path
   id="path1223"
   class="st2"
   d="m 234.1,54.4 c 0,5 -2.4,9.1 -5.4,9.1 2.9,0 5.4,4.1 5.4,9.1 0,-5 2.4,-9.1 5.4,-9.1 -3.1,0 -5.4,-4.1 -5.4,-9.1 z" />
		<path
   id="path1225"
   class="st2"
   d="m 242.2,61.7 c 0,3.4 -1.9,6.3 -4.4,6.3 2.4,0 4.4,2.8 4.4,6.3 0,-3.4 1.9,-6.3 4.4,-6.3 -2.4,0 -4.4,-2.8 -4.4,-6.3 z" />
		<path
   id="path1227"
   class="st2"
   d="m 228,65.6 c 0,1.9 -1.2,3.5 -2.6,3.5 1.5,0 2.6,1.5 2.6,3.5 0,-1.9 1.2,-3.5 2.6,-3.5 -1.4,0 -2.6,-1.6 -2.6,-3.5 z" />
		<path
   id="path1229"
   class="st2"
   d="m 42.8,23.6 c 0,5 -2.4,9.1 -5.4,9.1 2.9,0 5.4,4.1 5.4,9.1 0,-5 2.4,-9.1 5.4,-9.1 -3.1,0 -5.4,-4.1 -5.4,-9.1 z" />
		<path
   id="path1231"
   class="st2"
   d="m 38.5,35.8 c 0,3.4 -1.9,6.3 -4.4,6.3 2.4,0 4.4,2.8 4.4,6.3 0,-3.4 1.9,-6.3 4.4,-6.3 -2.4,0 -4.4,-2.8 -4.4,-6.3 z" />
		<path
   id="path1233"
   class="st2"
   d="m 34.1,32.7 c 0,1.9 -1.2,3.5 -2.6,3.5 1.5,0 2.6,1.5 2.6,3.5 0,-1.9 1.2,-3.5 2.6,-3.5 -1.4,0 -2.6,-1.6 -2.6,-3.5 z" />
		<path
   id="path1235"
   class="st2"
   d="m 145.8,103.7 c 0,5 -2.4,9.1 -5.4,9.1 2.9,0 5.4,4.1 5.4,9.1 0,-5 2.4,-9.1 5.4,-9.1 -3.1,0 -5.4,-4.1 -5.4,-9.1 z" />
		<path
   id="path1237"
   class="st2"
   d="m 152.3,112.8 c 0,2.1 -1.2,3.9 -2.7,3.9 1.5,0 2.7,1.7 2.7,3.9 0,-2.1 1.2,-3.9 2.7,-3.9 -1.4,0 -2.7,-1.7 -2.7,-3.9 z" />
		<path
   id="path1239"
   class="st2"
   d="m 140.2,114.9 c 0,1.9 -1.2,3.5 -2.6,3.5 1.5,0 2.6,1.5 2.6,3.5 0,-1.9 1.2,-3.5 2.6,-3.5 -1.4,0 -2.6,-1.6 -2.6,-3.5 z" />
		<path
   id="path1241"
   class="st2"
   d="m 111.8,40.8 c 0,5 -2.4,9.1 -5.4,9.1 2.9,0 5.4,4.1 5.4,9.1 0,-5 2.4,-9.1 5.4,-9.1 -3.1,0 -5.4,-4.1 -5.4,-9.1 z" />
		<path
   id="path1243"
   class="st2"
   d="m 192.2,50.8 c 0,2.1 -1.2,3.9 -2.7,3.9 1.5,0 2.7,1.7 2.7,3.9 0,-2.1 1.2,-3.9 2.7,-3.9 -1.4,0 -2.7,-1.8 -2.7,-3.9 z" />
		<path
   id="path1245"
   class="st2"
   d="m 156.5,38.3 c 0,1.9 -1.2,3.5 -2.6,3.5 1.5,0 2.6,1.5 2.6,3.5 0,-1.9 1.2,-3.5 2.6,-3.5 -1.4,0 -2.6,-1.6 -2.6,-3.5 z" />
	</g>
	<g
   id="g1263">
		<path
   class="st3"
   d="m 31,21.8 c -1.4,1.2 -2.6,2.5 -3.6,3.9 -1,1.4 -1.9,2.8 -2.5,4.2 -0.7,1.4 -1.2,2.9 -1.6,4.6 -0.4,1.7 -0.6,3.3 -0.6,4.7 0,1.4 0.2,2.8 0.5,4.2 0.3,1.4 0.8,2.9 1.5,4.4 0.7,1.5 1.5,2.8 2.4,4 0.9,1.2 15.3,12.6 43.3,34.2 28,21.6 42.7,32.6 44.2,33.1 1.5,0.5 3.2,0.7 5.1,0.6 1.9,-0.1 3.7,-0.5 5.3,-1.2 1.6,-0.7 3,-1.5 4.3,-2.5 1.3,-1 2.6,-2.3 4,-4.1 1.4,-1.8 2.5,-3.8 3.3,-6.1 0.8,-2.3 1.2,-4.4 1.2,-6.1 0,-1.8 -0.5,-3.6 -1.3,-5.6 -0.9,-2 -1.8,-3.4 -2.8,-4.4 -1,-1 -11.4,-9.1 -31.2,-24.3 C 82.7,50.3 72,42.3 70.4,41.7 c -1.6,-0.7 -2.9,-1 -4.1,-1 -1.1,0 -2.2,0 -3.1,0.3 -0.9,0.2 -2.3,0.9 -4.2,2.1 -1.9,1.2 -3.4,2.6 -4.4,4.1 -1.1,1.5 -1.8,2.9 -2.2,4.3 -0.4,1.4 -0.6,2.8 -0.5,4.3 0.1,1.5 0.4,2.8 0.8,3.9 0.5,1.1 1.2,2.1 2.1,3.1 0.9,1 9.6,7.8 26,20.4 16.4,12.6 25,19.1 25.9,19.4 0.8,0.3 1.5,0.3 2.2,0.1 0.6,-0.2 1.1,-0.8 1.6,-1.5 0.4,-0.8 0.4,-1.6 0,-2.5 C 110.1,97.8 101.5,90.9 84.7,78 67.8,65 59.2,58.2 58.8,57.4 c -0.4,-0.8 -0.7,-1.5 -0.7,-2 0,-0.6 0.3,-1.6 0.9,-3 0.6,-1.5 1.6,-2.7 2.8,-3.6 1.3,-1 2.4,-1.5 3.3,-1.6 1,-0.1 1.7,-0.1 2.3,0 0.6,0.1 10.9,7.8 30.9,23.2 20,15.4 30.4,23.4 31,24 0.6,0.6 1.2,1.6 1.6,2.7 0.4,1.1 0.5,2.3 0.4,3.7 -0.1,1.4 -0.4,2.6 -0.8,3.7 -0.4,1.1 -1.1,2.2 -2.1,3.5 -0.9,1.2 -1.7,2.1 -2.4,2.7 -0.6,0.5 -1.6,1.1 -2.7,1.7 -1.2,0.6 -2.3,1 -3.5,1.2 -1.1,0.1 -2.2,0.1 -3,-0.2 -0.9,-0.3 -1.9,-0.8 -2.9,-1.5 C 112.8,111.2 99.6,101 74,81.4 48.5,61.8 35,51.2 33.6,49.8 c -1.4,-1.5 -2.6,-3.2 -3.4,-5 -0.8,-1.9 -1.3,-3.4 -1.4,-4.6 -0.1,-1.2 0.1,-2.5 0.4,-4 0.3,-1.5 0.7,-2.7 1.2,-3.7 0.5,-1 1.2,-2.1 2.1,-3.2 0.9,-1.1 1.9,-2.2 3.1,-3.1 1.2,-0.9 2.3,-1.6 3.5,-2.2 1.2,-0.6 2.4,-0.9 3.7,-1.2 1.4,-0.3 2.7,-0.3 4,-0.2 1.3,0.1 3,0.7 5,1.7 2,1 13.1,9.3 33.3,24.9 20.2,15.6 30.7,23.5 31.4,23.7 0.7,0.2 1.4,0.1 2.1,-0.3 0.7,-0.4 1.1,-1 1.4,-1.9 0.3,-0.9 0.2,-1.7 -0.1,-2.3 C 119.5,67.7 108.8,59.3 87.7,43.2 66.6,26.9 55,18.4 53,17.6 c -2,-0.8 -4.2,-1.2 -6.6,-1.4 -2.4,-0.1 -4.5,0.1 -6.2,0.5 -1.7,0.5 -3.3,1.1 -4.9,1.9 -1.5,0.9 -2.9,2 -4.3,3.2 z"
   id="path1249" />
		<path
   class="st4"
   d="m 27.1,30.6 c 0.4,-0.1 0.7,0 0.9,0.4 0.2,0.4 0,1.3 -0.6,2.8 -0.6,1.5 -0.9,2.7 -1,3.6 -0.1,0.9 -0.2,1.4 -0.5,1.5 -0.2,0.1 -0.5,0 -0.8,-0.3 -0.3,-0.3 -0.5,-0.7 -0.5,-1.1 0,-0.4 0.3,-1.7 0.9,-3.7 0.7,-2 1.2,-3.1 1.6,-3.2 z"
   id="path1251" />
		<path
   class="st4"
   d="m 25.7,42.1 c 0.4,0 0.8,0.5 1.1,1.5 0.3,1.1 0.8,2.2 1.4,3.4 0.7,1.2 1.5,2.4 2.4,3.5 1,1.1 2,2 3,2.7 1.1,0.7 1.6,1.3 1.7,1.8 0,0.2 0,0.4 0.1,0.7 -0.2,0 -0.4,0 -0.7,0.1 -0.4,0 -0.9,-0.1 -1.3,-0.4 -0.5,-0.3 -1.5,-1.3 -3.2,-3.1 -1.7,-1.7 -2.9,-3.4 -3.7,-5.1 -0.8,-1.7 -1.3,-3 -1.3,-3.8 -0.1,-0.8 0.1,-1.2 0.5,-1.3 z"
   id="path1253" />
		<path
   class="st4"
   d="m 55.5,50 c 0.4,-0.2 0.7,-0.1 0.9,0.2 0.3,0.3 0.2,0.9 -0.1,1.6 -0.3,0.7 -0.5,1.4 -0.5,2 0,0.6 -0.1,1 -0.5,1.2 -0.3,0.3 -0.6,0.3 -0.9,0.1 -0.3,-0.2 -0.5,-0.5 -0.5,-0.9 0,-0.4 0.2,-1.1 0.5,-2.2 0.4,-1.2 0.8,-1.8 1.1,-2 z"
   id="path1255" />
		<path
   class="st4"
   d="m 54.9,56.2 c 0.4,0 1,0.6 1.6,1.9 0.6,1.3 1.5,2.4 2.6,3.2 1.1,0.8 1.7,1.5 1.9,1.9 0.1,0.2 0.2,0.5 0.2,0.7 -0.3,0 -0.5,0.1 -0.8,0.1 -0.5,0.1 -1.4,-0.4 -2.6,-1.4 -1.2,-1 -2.1,-2.1 -2.7,-3.2 -0.6,-1.1 -0.9,-1.9 -0.9,-2.5 0.1,-0.3 0.3,-0.6 0.7,-0.7 z"
   id="path1257" />
		<path
   class="st4"
   d="m 127.1,88.9 c 0.3,-0.1 1.3,0.5 2.8,1.7 1.5,1.2 2.6,2.5 3.4,3.7 0.7,1.2 1.1,2.1 1.1,2.6 0,0.6 -0.2,0.9 -0.6,0.9 -0.4,0 -0.9,-0.5 -1.5,-1.7 -0.6,-1.2 -1.6,-2.4 -3.1,-3.7 -1.5,-1.3 -2.3,-2.1 -2.4,-2.6 -0.1,-0.5 0,-0.8 0.3,-0.9 z"
   id="path1259" />
		<path
   class="st4"
   d="m 133.9,99.1 c 0.4,0 0.7,0.1 0.9,0.4 0.2,0.3 0.1,1.1 -0.2,2.5 -0.3,1.4 -0.6,2.2 -1,2.4 -0.4,0.2 -0.7,0.1 -0.9,-0.2 -0.3,-0.3 -0.2,-0.9 0.1,-1.7 0.3,-0.8 0.5,-1.6 0.5,-2.2 -0.1,-0.8 0.2,-1.1 0.6,-1.2 z"
   id="path1261" />
	</g>
	<g
   id="g1275">
		<path
   class="st3"
   d="m 118.5,108.3 c 0,1.9 0.2,3.6 0.6,5.3 0.4,1.7 0.9,3.2 1.5,4.6 0.6,1.4 1.4,2.8 2.5,4.2 1,1.4 2.1,2.6 3.1,3.5 1.1,0.9 2.2,1.7 3.5,2.4 1.3,0.7 2.7,1.3 4.3,1.7 1.6,0.4 3.1,0.7 4.6,0.8 1.5,0.1 19.6,-3.4 54.2,-10.4 34.6,-7 52.6,-10.9 54,-11.7 1.4,-0.8 2.6,-1.9 3.8,-3.4 1.2,-1.5 2,-3.1 2.6,-4.7 0.6,-1.6 0.9,-3.3 1,-4.9 0.1,-1.6 -0.1,-3.5 -0.5,-5.7 -0.4,-2.2 -1.3,-4.4 -2.5,-6.5 -1.2,-2.1 -2.5,-3.8 -3.8,-4.9 -1.3,-1.1 -3,-2 -5.1,-2.7 -2.1,-0.6 -3.8,-0.9 -5.1,-0.8 -1.4,0.1 -14.3,2.7 -38.7,7.6 -24.4,5 -37.4,7.8 -39,8.6 -1.5,0.8 -2.7,1.6 -3.5,2.4 -0.8,0.8 -1.4,1.7 -1.8,2.5 -0.4,0.8 -0.8,2.3 -1.2,4.6 -0.3,2.2 -0.3,4.2 0.2,6 0.4,1.8 1,3.3 1.8,4.5 0.8,1.2 1.7,2.3 3,3.2 1.2,1 2.4,1.6 3.5,1.9 1.1,0.3 2.3,0.5 3.7,0.5 1.4,0 12.2,-2.1 32.5,-6.2 20.3,-4.1 30.8,-6.4 31.6,-6.8 0.8,-0.4 1.3,-0.9 1.5,-1.6 0.2,-0.6 0.2,-1.4 -0.1,-2.2 -0.3,-0.8 -1,-1.4 -1.9,-1.7 -0.9,-0.3 -11.8,1.7 -32.5,6 -20.7,4.3 -31.6,6.3 -32.4,6.1 -0.9,-0.2 -1.5,-0.5 -2,-0.8 -0.4,-0.4 -1,-1.2 -1.7,-2.7 -0.7,-1.4 -1,-2.9 -0.9,-4.5 0.1,-1.6 0.4,-2.8 0.9,-3.6 0.5,-0.8 1,-1.4 1.5,-1.7 0.5,-0.3 13.1,-3 37.8,-8.1 24.7,-5.1 37.6,-7.6 38.5,-7.7 0.9,0 2,0.1 3,0.6 1.1,0.4 2.1,1.1 3.1,2.1 1,1 1.7,2 2.2,3 0.5,1 1,2.3 1.3,3.8 0.3,1.5 0.5,2.7 0.5,3.5 0,0.8 -0.2,1.9 -0.5,3.2 -0.3,1.3 -0.8,2.4 -1.4,3.4 -0.6,1 -1.4,1.7 -2.1,2.2 -0.8,0.5 -1.8,0.9 -3.1,1.2 -1.3,0.3 -17.6,3.7 -49.2,10.1 -31.5,6.4 -48.3,9.7 -50.4,9.8 -2.1,0.1 -4.1,-0.1 -6,-0.7 -2,-0.6 -3.4,-1.3 -4.4,-2 -1,-0.7 -1.9,-1.7 -2.8,-2.9 -0.9,-1.2 -1.6,-2.3 -2,-3.4 -0.4,-1 -0.8,-2.3 -1.1,-3.7 -0.3,-1.4 -0.4,-2.9 -0.3,-4.4 0.1,-1.5 0.3,-2.8 0.7,-4 0.4,-1.2 0.9,-2.4 1.6,-3.6 0.7,-1.2 1.5,-2.2 2.5,-3.1 1,-0.9 2.5,-1.8 4.5,-2.7 2.1,-0.9 15.6,-3.8 40.7,-8.8 25,-5 37.9,-7.7 38.5,-8.2 0.6,-0.5 1,-1 1.2,-1.8 0.2,-0.7 0,-1.5 -0.5,-2.3 -0.5,-0.8 -1.1,-1.3 -1.8,-1.4 -0.7,-0.2 -14.1,2.4 -40.2,7.8 -26.1,5.4 -40,8.6 -42,9.6 -1.9,1 -3.7,2.4 -5.4,4.1 -1.7,1.7 -2.9,3.4 -3.7,5 -0.8,1.6 -1.4,3.2 -1.7,4.9 -0.5,1.9 -0.7,3.7 -0.7,5.6 z"
   id="path1265" />
		<path
   class="st4"
   d="m 155.6,101.4 c 0.2,0.4 0.5,0.5 0.8,0.4 0.3,-0.1 0.5,-0.6 0.5,-1.3 0,-0.8 0.1,-1.4 0.4,-1.8 0.2,-0.4 0.3,-0.8 0.1,-1.2 -0.2,-0.4 -0.4,-0.6 -0.7,-0.6 -0.3,0 -0.6,0.2 -0.7,0.4 -0.2,0.3 -0.3,1 -0.5,2 -0.1,1 -0.1,1.7 0.1,2.1 z"
   id="path1267" />
		<path
   class="st4"
   d="m 157.6,96.1 c 0.3,0.3 1,0.1 2.1,-0.7 1,-0.7 2.2,-1.1 3.4,-1.2 1.2,-0.1 2,-0.2 2.3,-0.5 0.2,-0.1 0.3,-0.3 0.5,-0.4 -0.2,-0.2 -0.4,-0.3 -0.6,-0.5 -0.4,-0.3 -1.3,-0.4 -2.6,-0.3 -1.4,0.2 -2.5,0.5 -3.4,1.1 -0.9,0.6 -1.5,1 -1.7,1.5 -0.4,0.4 -0.3,0.7 0,1 z"
   id="path1269" />
		<path
   class="st4"
   d="m 232.2,79.6 c 0.2,-0.3 1.2,-0.6 3.1,-0.9 1.9,-0.3 3.6,-0.4 5,-0.1 1.4,0.2 2.3,0.5 2.7,0.9 0.4,0.4 0.5,0.7 0.3,1.1 -0.3,0.4 -1,0.4 -2.3,0 -1.3,-0.4 -2.9,-0.4 -4.8,-0.1 -1.9,0.3 -3.1,0.4 -3.6,0.1 -0.4,-0.4 -0.5,-0.7 -0.4,-1 z"
   id="path1271" />
		<path
   class="st4"
   d="m 244.4,81.2 c 0.3,-0.4 0.5,-0.5 0.9,-0.4 0.4,0.1 0.9,0.7 1.8,1.8 0.8,1.1 1.2,1.9 1.1,2.3 -0.1,0.4 -0.3,0.6 -0.8,0.6 -0.4,0 -0.8,-0.4 -1.3,-1.2 -0.4,-0.8 -0.9,-1.4 -1.4,-1.8 -0.4,-0.5 -0.6,-0.9 -0.3,-1.3 z"
   id="path1273" />
	</g>
</g></g></svg>
