<?xml version="1.0" encoding="UTF-8"?>
<svg xmlns="http://www.w3.org/2000/svg" version="1.1" viewBox="0 0 595.3 841.9">
  <!-- Generator: Adobe Illustrator 29.0.1, SVG Export Plug-In . SVG Version: 2.1.0 Build 192)  -->
  <defs>
    <style>
      .st0 {
        font-size: 36px;
      }

      .st0, .st1, .st2, .st3, .st4 {
        fill: #eab41c;
        font-family: FootlightMTLight, 'Footlight MT Light';
      }

      .st5 {
        fill: #fff;
      }

      .st1 {
        font-size: 41.5px;
      }

      .st6, .st7 {
        fill: #231f20;
      }

      .st6, .st8, .st9 {
        display: none;
      }

      .st10 {
        fill: #c49a6c;
      }

      .st8 {
        fill: #721f37;
      }

      .st2 {
        font-size: 35.6px;
      }

      .st3 {
        font-size: 37.4px;
      }

      .st11 {
        fill: none;
        stroke: #231f20;
        stroke-miterlimit: 10;
      }

      .st4 {
        font-size: 39.9px;
      }
    </style>
  </defs>
  <g id="Layer_1">
    <g id="Background" class="st9">
      <rect class="st7" x="87.7" y="190.7" width="460.2" height="534.3"/>
    </g>
    <g id="Layer_11" data-name="Layer_1">
      <g class="st9">
        <path class="st7" d="M284.9,355.5c.3-.4.3-.7,0-.9,1.2-1.8-.2-4-2.1-5.2-1-.8-2.3-1.2-3.6-1-.2,0-.5,0-.7.1-2.6.2-5.3,1.4-5.9,3.6,0,.1.1,0,.2,0,0,0,0,0,0-.1,0,.2-.1.4,0,.6,0,.1.2.2.3.2,0,0,.1,0,.1,0,.3,0,1-.5.5-.7,0,0,1.6-1.4,1.7-1.5.8-.6,1.8-.9,2.8-1.1,1.1,0,2.1.2,2.9.6.7.6,1,1.5,1.1,2.4,0,.3.1.4.4.5-.3,0-.6,0-1,.1-.6,0-1.3-.4-1.7-.6-.4-.1-.8-.2-1.1-.3-.3-.1-.5-.2-.8-.3-1-.4-2.6-.4-3.6,0-.3.1-.6.4-.3.7,0,0,.2.1.3.2-.1,0-.2.1-.4.2-.2,0-.4.2-.6.3,0-.1-.1-.2-.2-.3,0-.1-.2-.2-.4-.2h0s0,0,0,0c0,0-.2,0-.3,0,0,0,0,0,0,0-.3.1-.7.4-.6.7,1.8,4.5,9.5,6.5,12.8,2h0Z"/>
        <path class="st7" d="M300.8,377.5c2,.6,3.7.6,5.6.5,0,0-.2,0-.2,0,0,0-.1,0-.2,0-3.8-1.2-6.4-3.8-9.5-5.2,0,0,0,0,0,0,1,1.5,2.5,4.2,4.3,4.7h0Z"/>
        <path class="st7" d="M304,348.6c.6-.2,1-.4,1.4-.5.6.3,1.4.3,2,0,.9-.5,1.5-1,1.9-1.9.5-1.1,0-2.7-1.6-2.4-2.3.3-4.7,1.5-5.5,3.5-.4,1,.8,1.6,1.8,1.3h0Z"/>
        <path class="st7" d="M284.4,369.1c.8-.3,1.7-.6,2.5-1,.1,0,.2-.3,0-.2-.9.2-1.7.5-2.6.8-.3.1-.2.5.1.4h0Z"/>
        <path class="st7" d="M287.6,368.9c.2,0,.8,0,1.1-.1.1,0,.2-.2.2-.3-.3-.5-1-.2-1.4,0-.2.1,0,.4.1.3Z"/>
        <path class="st7" d="M498.7,664.7c-2.8-5.1-7.3-8.9-11.1-13.2-6-6.9-11.7-13.9-17.5-21-7.8-9.6-14.9-20.5-23.2-30,0,0,0-.1,0-.2-1.1-2-2.4-3.8-3.7-5.6-.8-1.1-1.5-2.2-2.3-3.3,0,0,0-.2,0-.2-2.4-5.5-5.4-10.7-8.6-15.8-.8-1.2-2.3-3-3.4-4.7-.3-.7-.6-1.3-1-1.9,0-.3-.1-.5-.1-.7-.2-2.6,1.7-1.3,3-1,.9.3,1.6,1.2,1.9-.5.1-1-1.1-2.1-1.5-2.9-1.6-2.7-3.2-5.3-4.8-7.9-2.8-4.4-5.6-8.8-8.5-13.2-.7-2.3-2.5-4.3-4.3-6.2-1.9-2.7-3.8-5.4-5.8-8.1-.8-1-5.8-8.4-7.1-7.9,1.6-.7,2.9-2.6,2.6-4.2-.2-1.3-.6-2.5-1-3.8.7-.2,1.2-.9,1.1-1.7-1.4-7-7.8-13.1-12.1-18.5-5.1-6.4-10.6-12.5-16.2-18.4-10.5-11-22.1-22-35.1-30.1-1.4-1.8-2.9-3.7-4.4-5.1.6.2,1.5-.2,1.6-.9,1.4-7.8-5-14.6-10.3-19.6-1.2-1.1-2.9-2.7-4.9-4.1-3.4-1.1-6.8-2.4-8.7-5.2-1.8-2.7-1.5-6.3.1-9,.5-.9,1.1-1.6,1.6-2.5.5-.8.6-4.6,2.3-3.3.7.6,1.2,1.2,1.6,1.8,0-.3-.1-.6-.2-.8-.4-2.5-1.7-5.1-3.7-6.8-.9-.8.2-1.9,1.2-1.5,1.5.6,2.7,1.4,3.9,2.3-.9-1.9-2.5-3.5-4.2-4.9,7.6.5,15.5.7,23.1.9,5.7.2,12.4-.3,17.4-3.4,1.3-.7,2.5-1.7,3.4-2.9-.5,0-1,0-1.5-.1,0,0,0,0,0,0-8.5-.9-17-2.8-25-4.5-1.5-.3-3-.7-4.5-1.1-3.5-.6-7.1-1.4-10.5-2.2-5.1-1.3-11.4-1.5-16-4.1-.3-.2-.4-.4-.4-.7,3-.6,6.1-1.5,9-2.3,2-.5,4-1,6-1.6,0,0,0,0,.1,0,2.9-.5,5.8-1,8.7-1.8,5.7-1.4,11.4-2.9,17.2-3.8,5.2-.9,10.4-.9,15.6-1.4,2.9.3,5.7.8,8.2,1.8,0-3-2.9-7.6-4-8.9-3.3-3.9-8.4-6.3-13.7-7.7-12.8-3.4-27.2-2.5-40.5-1.2-.4-.8-1-1.5-1.8-2-.2-.2-.4-.5-.7-.6-4.9-2.9-10.6-3.6-16.2-3.8-5.5-.2-10.9.6-16.2,1.8-10.8,2.5-20.8,7.6-29.6,14.3-8.8,6.7-16.1,15.2-22,24.5-3,4.7-5.6,9.7-7.9,14.8-.9,2-1.8,4-2.6,6.1-2,4-3.6,8.3-3.7,12.3,0,.2.3.2.4,0,0,0,0-.1.1-.2,0,.2.3.3.5.3-1.3.5-2.4,9.7-3,11.3-2.5,6.6-8.4,11.2-11.1,17.9-2.9,7.5-3.6,17.9-.7,25.4.6-.1,1.9,0,2,.8.1,7.2.6,14,3.8,20.6,1.4,2.8,2.9,5.7,3.8,8.7.4,1.2,1.5,7.8,2.9,6.9.6-.3,1.4-.1,1.5.6,0,.6,0,1.1,0,1.7,5,14.4,14.8,28.5,23.8,38.8,6.4,7.3,16.9,11,25.3,15.2,2.6,1.3,5.2,2.4,7.8,3.2,2.7,3.3,5.3,6.2,7.3,9.9.9,1.6,1.5,3.2,1.9,4.7.7,8.9-6.3,17.4-10.2,25.2-3.1,6.1-6.8,11.3-10.6,16.7h0s0,0-.1.1c0,0,0,0,0,0-.3.3-.6.6-1,.6,0,0-.1,0-.2,0,0,0,0,0,0,0h-.2c-1.1-.9-2.4-1.5-3.2-1.7-3.9-.8-6.5,1.9-7.3,5.3-.4.6-.6,1.3-.7,2-1-1.5-1.7-1.9-3.1-2.9-1.7-1.2-3.3-2.2-5.4-2.5-3.1-.3-5.4,2.7-6.7,5.5-.1-.3-.4-.6-.8-.7-5.5-1.4-10-1.5-10.5,5.1-.4,4.9,2.2,9.5,5,13.4,1.6,2.3,3.4,4.5,5.5,6.3,1.1.9,2.2,1.8,3.5,2.4.6.3,3.6,1.8,3.2.2,0-.3-.3-.6-.4-.9-.8-1.4-1.2-3.1-.9-4.8.1-.8.9-2.7,1.9-1.7.3.3.4,1,.7,1.4.4.6.9,1.1,1.4,1.6.8.9,1.5,1.8,2.3,2.7.9,1,2.1,1.9,3.3,2.4,1.1.5,3.6,1.2,2.8-.9-.6-1.9-1.6-3.5-1.9-5.5-.1-.8-.2-1.7,0-2.5.1-.5.9-2.5,1.7-1.9.5.4.8,1.3,1.1,1.9.4.7.8,1.4,1.2,2,.9,1.3,2,2.5,3.2,3.5,1.4,1.1,2.9,2.1,4.6,2.7.9.3,1.8.6,2.7.8.4,0,1.3.4,1.5,0,.3-.5-.8-1.8-1-2.2-1.8-3.6-2-7.8-1-11.7.6-2.2,1.7-4.2,3.9-5,2.6-1,5.4-.3,8-.2,2.5,0,5-.2,7.6-.3,3.3-.2,8.9-1.5,10.9,2.1-.6,1.1-1.4,2.2-2.3,3.1-.3.3.1.7.4.5,2.3-1.6,4.3-3.1,5.7-5.6,1.3-2.4,2.1-5.4,2.1-8.1,0,0,0-.1,0-.2,0,0,0-.2,0-.3.1-.8,0-2-1.1-2.2-5-.8-9.8-1.9-14.7-3-.1,0-.2-.1-.4-.2-.4-.2-.7-.5-1-.8-.3-.3-.5-.6-.7-.8-1.1-1.8-1.1-4.1-.4-6.6,4.4-9.5,12.7-17.8,20.9-24.5.7-1,1.4-1.9,2-2.9.6-1,1.8,0,1.5.9,0,.1,0,.3-.1.4,2.4-1.7,4.9-3.7,4.5-6.8-.4-2.8-1.2-6.5,2.5-7.1,5.3-.8,11.1-.3,15.9,2.1,1.9,1,3.4,2.6,4.8,4,0,.5.2,1.1.3,1.6.7,2.9,1.6,3.5,3.6,5.8,2.5,2.9,2.9,6.6,2.5,10.4-.6,2-1.2,3.9-1.9,5.8-2.1,6.3-4.2,13.8-9,18.8-.3.4-.7,1-1.3,1.5-.3-.2-.6-.4-.9-.6-2-1.4-4.9-2.8-7.5-2.8-2,0-3.4.8-4.7,2-.2.1-.3.3-.5.5-.2.2-.5.5-.7.7-.6.7-1.2,1.6-1.4,2.5,0,.2-.1.3-.2.5-2.6-.8-6.2-1.6-8.2.4-3.6,3.7-1.5,9.5.2,13.6,1.5,3.4,3.4,6.5,5.9,9.3.6.7,1.2,1.3,1.9,2,.8.8,1.1,1.2,1.4.2,0-1.5.7-2.9,1.9-4,0,0,.3,0,.4,0,0,0,0,0,0,0,0,0,0,.2.1.2.7,1.5,1.6,3.6,2.8,5.3.1.2.2.5.4.7.4.7.9,1.4,1.5,2,.5.8,1.2,1.5,2,2,.5.3,1.2.7,1.8.9,1.1.2.5-.6.3-1.4-.9-5.8.8-12.1,4.5-16.7.6-.7,1.2-1.4,2-1.7.1,1.3.3,2.7.5,4,1.1,6.1,3.7,11.3,7.9,15.8.3.3.9,0,.9-.4-.2-1.1-.2-2.2-.1-3.3.8-4,1.8-7.9,3.7-11.5,2.3-4.6,6.4-7.9,11.3-9.2,3.8-1.1,12-2,14.7,1.6,1.4,2-1.7,3.3-2.6,4.7-.1.2,0,.4.2.4,2.1,0,5.1-3,6.3-4.5.9-1.2,1.4-2.8,1.2-4.3-.3-1.8-1.9-2.9-3.2-4.1-1.7-1.6-2.2-3.6-3.7-5.3-1.1-1.2-2.8-1.7-4.4-1.2-3.1,1-6.7,1.8-9.9,1.3-.7,0-1.3-.2-1.9-.6-2.3-1.2-1.4-5-.8-7,0-.2.1-.3.2-.5-.3-5.4-.5-10.9.8-16.2.9-3.8,3.1-7.8,4.7-11.8.3,0,.6,0,.9,0,2-1,4.1-2.2,6-3.4,1-.6,2.1-1.7,3.2-2.8,3.4,0,6.7-1.1,10.2-.5.5,0,.9.2,1.4.4.2.3.5.7.7,1,9.2,13.8,18.4,27.7,27.5,41.6,5,7.6,9.9,15.3,15,22.9,4.5,6.8,8.2,14,14.4,19.7,5.1,4.7,14.7,7.5,21.9,5.4.9.7,1.9,1.5,2.9,2.2,0,0,.1,0,.2.1.3.2.5.4.7.5,2.1,1.6,4.4,2.7,6.9,3.5,5.8,1.8,12.2,1.1,17.8-.9.6-.2.9-.6,1-1.1.3.2.7.3,1,.3,4.4,2.4,9.7,3.4,14.5,2.3,2.7-.6,5.3-1.5,5.8-3.5.2-.8,0-1.8-.6-3h0ZM219.8,631.1c-.2-.3-.4-.8-.6-1.2-.2-.6-.3-1.2-.4-1.8.3,0,.6,0,.9,0,1.2.1,2.1.8,3,1.5,1.7,1.5,2.2,3.6,3.1,5.6,0,0,0,0,0,.1,0,1.5,0,2.9.1,4.4-2.2-2.7-4.4-5.6-6.1-8.6h0ZM223.4,627.5c-1.6-.6-3.1-.9-4.8-.8,0-.7-.3-1.2,0-1.9.6-1,2-1.1,3.1-.9.8.2,3.7,1.3,3.9,2.6,0,0,0,0,0,0,.2,1.1.6,2.2,1,3.2-1-.9-2.1-1.7-3.3-2.1h0ZM234.8,637.8c-.2,0-.4,0-.5-.3-.1-.3-.2-.5-.3-.8-.9-1.3-1.8-2.7-2.5-4.1-.2-1.2-.6-2.3-.9-3.5-.5-1.9-2.3-7.1,1.8-7.4.8,0,1.3,0,1.8,0,.4.3.7.6,1.1.8.4.7.4,1.6.6,3.1.4,4.2,0,8.9.1,13.4-.4-.5-.8-.9-1.1-1.4h0ZM247.8,640.4c-.7-.9-1.4-1.9-2-3-.1-.2-.3-.5-.4-.7-1.4-2.5-2.5-5.2-3.1-8.1-.4-1.9-.7-4.1,0-6,.8-2,3,.3,4.1,1.1.5.4,1.2.8,1.6,1.2.4.5.3.8.3,1.3-1.7,2.2-.5,6.9-.1,9.2.4,2,.6,5,1.6,7.3-.7-.8-1.3-1.7-1.9-2.5h0ZM249.4,623.4c-1.7-.8-3.1-2.1-4.8-2.8-.3-.2-.7-.3-1.1-.4.4-.5.8-.9,1.3-1.3,2.1-1.6,3.5.7,4.6,2.1.4.5.7.9,1.1,1.3-.4.3-.8.7-1.1,1.1h0ZM300.4,626.8s0,0,0,0c0,0-.1,0-.1-.2-.3-1.1.2-2.3,1.5-2.5h0c.1,0,.2,0,.4,0h.2c0,1.1.1,2.2.3,3.3-.6-.1-1.2-.2-1.9-.2,0,0,0,0,0-.1-.1,0-.2-.2-.2-.3h0ZM303.9,636.2c-1-1.8-2-3.6-3-5.4-.2-.3-.4-.7-.4-1.1,0-1.2,1.4-.9,2.2-.7.2.9.3,1.9.5,2.8.3,1.3.6,2.6,1,3.9-.2.1-.3.3-.4.5h0ZM311.8,641.6c-1.3-2.9-2.4-5.8-3.2-8.9-.5-1.7-.7-3.4-1-5.2.7.2,1.5.2,2.2.2.9.1,1.8.4,2.5.9,0,.2,0,.3,0,.5,0,3.6.3,8.4-.5,12.4h0ZM313.3,626.5c0,.2-.1.4-.2.6-.8-.4-1.7-.6-2.6-.8-1-.1-1.7,0-2.7.1-.1,0-.3,0-.4,0,0-.9,0-1.8.1-2.8,1.9,0,6,2.2,5.8,2.8h0ZM315.8,624.2c0,0,0,.2-.1.2-.2.3-.6.3-1,.5,0,0-2.8-1.5-3.2-1.7-1.1-.4-2.3-.7-3.5-.5-.1,0-.3,0-.5.1.1-.8.3-1.6.5-2.4.4-.5.8-1,1.3-1.3,1.2-.8,2.5.2,3.8.6.6.6,1.1,1.3,1.6,2.1.4.6,1.2,1.7.9,2.4h0ZM434.1,592.7c3,1.5,5.6,3.8,8.1,5.9,8.4,9.5,15.5,20.3,23.3,30.3-.1,0-.3-.2-.4-.2-.8-.8-1.5-1.6-2.2-2.4-3.9-4.3-7.9-8.5-11.6-13-3.5-4.2-7.1-8.3-10.8-12.3-2.6-2.9-5.3-6.2-8.3-9,.6.1,1.2.3,1.9.7h0ZM451.2,615.9l-.4-.2-1.9-1.9c.3.2.5.5.8.7.5.5,1,.9,1.5,1.4h0ZM430.4,597.9c-.4-.4-.9-.8-1.3-1.2-2-1.8-4-3.9-6.2-5.8.4.2.8.4,1.3.6,2.1,2.2,4.1,4.3,6.2,6.4ZM381.3,529.2c7.6,7,15.9,13.3,23.9,19.9.7.5,1.4,1.1,2,1.7h0s0,0,.1,0c2.5,2,5.1,4.1,7.6,6.2h0c3.7,3.1,7.4,6.3,10.7,9.8.5.8.9,1.5,1.2,2.4,0,.2.1.4.2.6-3.8-3.3-7.4-6.9-11.2-10.3-.1-.1-.3-.3-.4-.4h0c0,0-.1-.1-.2-.2-1.6-1.4-3.2-2.8-4.8-4.1-.5-.5-1-.9-1.6-1.3-.3-.2-.5-.5-.8-.7h0c-1.4-1.1-2.7-2.3-4.1-3.5-7.8-6.5-15.4-13.1-22.9-20,0,0,0-.2,0,0h0ZM393.9,551.5c5.6,4.5,11.2,8.8,16.8,13.3,2.9,2.3,5.8,4.6,8.7,6.9,2.7,2.1,5.6,4.1,8,6.5.5.5,0,1.2-.7.9-3.1-1.9-6-4.5-8.8-6.7-1.4-1.1-2.7-2.2-4.1-3.3-1.5-1.2-3-2.5-4.6-3.7-2-1.6-3.9-3.2-5.9-4.8-.5-.4-1-.8-1.5-1.2-1.8-1.5-3.7-3.1-5.5-4.6-1.2-1-2.4-2-3.6-3-10.9-9.1-21.7-18.4-32.5-27.7,0,0,0,0,0,0,11.1,9.3,22.4,18.5,33.6,27.5h0ZM391.2,559.8c-1.2-.9-2.3-1.8-3.5-2.7-.2-.2-.5-.4-.7-.6-1-.8-2.1-1.7-3.1-2.5,0,0-.2-.1-.2-.2-1.2-1-2.4-2-3.5-3,0,0,0,0-.1-.1-1.2-1-2.3-2-3.5-3-.3-.2-.5-.5-.8-.7-1.5-1.3-3-2.6-4.5-3.9h0c-1.2-1.1-2.5-2.2-3.7-3.3h0c-3.7-3.3-7.4-6.6-11.1-10-6-5.4-11.7-11.1-16-18,0,0,0,0,0,0,4.7,7.1,10.8,13.1,17.2,18.6,5.6,4.8,11.2,9.6,16.9,14.4h0c.6.5,1.2,1,1.8,1.5,2,1.7,4,3.3,6.1,5,0,0,0,0,.1.1,1.8,1.5,3.7,2.9,5.5,4.3.3.2.5.4.8.6.4.3.8.6,1.2.9.4.3.8.6,1.3.9.4.3.7.5,1.1.8.5.4,1,.8,1.5,1.1.3.2.6.4.9.6.8.6,1.6,1.2,2.5,1.8,7.3,5.1,14.9,9.5,22.6,14,.5.3.2,1.2-.4.9-.9-.4-1.8-.8-2.7-1.3-.2,0-.3-.2-.5-.2-.8-.4-1.5-.8-2.3-1.2-.3-.2-.6-.3-1-.5-.6-.3-1.2-.7-1.9-1-.5-.3-1-.5-1.5-.8l-.4-.2c-1-.6-1.9-1.2-2.9-1.7h0c-5.3-3.2-10.4-6.8-15.3-10.6h0ZM340.3,451.4c.3.2.6.3,1,.3,4.3,3.8,8.6,7.5,12.9,11.2-3.6-1.9-7.3-3.7-11.1-5.4,0,.5,0,.9,0,1.4,7,5.2,13.7,11.1,20.1,17.2-2.5-1.9-5.1-3.8-7.8-5.5-3.1-2-7.6-3.7-9.9-6.7-.5-.9-1-1.8-1.6-2.7-1.2-2.5-2-5.2-3.5-7.5-.1-.2-.2-.4-.3-.6-.4-.9-.9-1.8-1.3-2.7.4.4.9.7,1.3,1.1h0ZM308.4,387c-.3-.3-1,.2-.8.5,1.9,2.4,2.5,5.8,2,8.8-.4-1.1-.8-2.2-1.1-3-.4-1.1-2.1-.3-2,.6.1,1.5.2,3,.1,4.5,0,0,0,0,.1,0-.2,1.1.1,2.3.3,3.4,0,.4.4.6.8.5,0,0,0,.2,0,.3,0,.1-.1.3-.2.4-.4,1-.5,2.1-.5,3.2-.6,0-1.5.5-1.6,1.2-.5,3.2-.2,6.5,1.4,9.4,1.6,2.8,3.5,6.3,6.9,6.7.8.1,1.8-.8,1.8-1.6,0,0,0-.1,0-.2,2,1.5,4.4,2.8,6.5,1.7-1.5-1.5-3.1-2.8-4.9-3.8-.1,0,0-.3,0-.2,3,.9,5.5,2.8,7.7,4.9.2,0,.4,0,.6,0,.9,1,1.6,2.1,2.4,3.2.4.5.9,1.1,1.3,1.6,2.9,3.9,6.7,9.1,6.9,14.1,0,.3-.2.6-.4.7,0,0,0,0-.1,0h0s0,0-.1,0h-.2s0,0,0,0c0,0,0,0,0,0,0,0,0,0,0,0,0,0,0,0,0,0,0,0,0,0,0,0s0,0,0,0c0,0,0,0,0,0,0,0,0,0,0,0,0,0,0,0,0-.1-.3-.6-.6-1.2-.9-1.9,0-.1,0-.2-.1-.3h0c-.8-1.7-1.6-3.3-2.4-5h0c-.7,0-1.3.5-1.4,1.2,0,0,0,.1,0,.2,0,.3.2.5.4.6,0,0,.1,0,.2,0h-.2c.4.7.7,1.2,1.1,1.8-.5,0-1,0-1.5.3-.4.2-.7.4-.8.7-.3-.6-.7-1.1-1-1.6-1.3-2.2-2.8-4.1-4.5-6.1-1.7-2-3.6-3.5-5.5-5.2-.8-.7-2,.3-1.4,1.2,1.7,2.5,3.2,5.1,4.7,7.8-.3-.2-.6-.4-.9-.6-.4-.6-.9-1.3-1.3-1.9-.1-.2-.2-.5-.4-.8-.9-1.5-2.1-2.8-3.4-3.9-1-.8-2.1-1.4-3.2-1.9-1.6-1.1-3.3-2.1-5-3.1-1-.9-1.8-1.8-2.6-2.8-1.3-2.1-2.3-4.5-3.2-6.9.2-.3.4-.6.5-.9.5,2.1,1.6,4,3.7,4.9.5.2,1-.4.9-.8-.4-2.1-1.7-3.7-2.5-5.7-.9-2.2-1.3-5-.8-7.3,0-.4-.5-.3-.6,0-.4,1.2-.8,2.8-.9,4.4-.3-1.5-.6-3-1-4.5.2-.4.3-.8.4-1.2.5-1.8.6-3.5.5-5.1.7.8,2.4.6,3-.2,1.4-1.9.9-3.8.5-6,0-.4-.2-.8-.3-1.2,1-1.9.5-4.2-1.1-5.6h0c-1.2-1.1-2.5-2.2-3.9-3.3,3.2,1.2,6.6,1.8,9.8,3.1,0,.2.1.4.3.6,1.4,1.9,2.6,3.7,2.7,6-1-2.1-2.8-4.1-4.4-5.8h0ZM317.6,501.8c-.3-.4-.7-.8-1-1.1s-.3-.3-.4-.4c-.1-.1-.3-.2-.4-.4-.3-.3-.6-.6-1-.9,0,0,0-.2.1-.1.9.7,1.7,1.5,2.5,2.2.1.2.2.5.3.7h0ZM308,341.7c.4.1.9.2,1.4.3,11.7-.9,24-2,35.4.8,6.7,1.6,14.3,4.2,18,9.5.6,1,.8,2,1,3-9.9-5.4-24.1-3-35.2-2.5-2.6.1-5.1.3-7.6.5-4.4.8-8.7,1.6-13,2.8-5.9,1.5-11.1,3.9-16.8,5.9-3.5,1.3-7.1,1.8-10.7,2.5.1.2.3.5.5.7,0,0,.1,0,.2.1.2.7.7,1.2,1.4,1.4,1,0,2.1.1,3.2.4.6,0,1.2,0,1.7-.1.3,0,.6.1.9.2.9.2,1.8.5,2.8.6,2.7.8,5.5,1.4,8,2.2,5.6,1.9,11.3,3.4,17.1,4.7,6,1.4,12,2.5,18.1,3.4,3.6.2,7.2.7,10.8,1.2.2,0,.4,0,.6,0,2.5.5,5.1.8,7.7,1.1-5.1,1.4-10,2.1-15.4,2-2.3-.3-4.5-.7-6.8-.8-7.6-.5-15.4-1.7-23-1.5-1.8,0-3.5,0-5-.1-1.2-.3-2.3-.6-3.4-1.2-1.7-.9-2.6-2.7-4.1-3.8-.2-.2-.4-.3-.6-.4-1-1.2-2.2-2.2-3.5-3.1,0,0-.2,0-.3,0-.5,0-1,0-1.5,0-1.2-1-3.2-1.3-4.6-1.5-2-.3-4.5-.7-6.7-.4-.1-.1-.2-.2-.3-.4.1,0,.2-.1.3-.2.2-.1.3-.6,0-.6-.2,0-.4,0-.6.1,0-.1-.1-.3-.2-.4.4-.3.8-.5,1.2-.7,0,0,0,0,0,0-.3,0-.7.1-1,.1.6-.3,1.1-.6,1.5-1.2,0-.1.2-.3,0-.4-.8-.5-1.7-.3-2.6,0-.2-.6-.5-1.2-.7-1.8.3-.2.6-.4.9-.5.3-.1.5-.3.8-.4,0,0,0,.1,0,.2,0-.1,0-.2,0-.3.5-.3,1.1-.6,1.6-.9.6,0,1.2.1,1.8.1,4.2-.9,8.1-2,12.2-3.5,1.1-.7,2.2-1.5,3-2.4.3-.3.3-.6.1-.9.2,0,.3,0,.5-.1,0,0,0,0,0,0,.1-.1.3-.1.5-.2,0,0,.2,0,.2,0s0,0,0,0c1-.3,2-.6,2.9-1,1.7-.2,3.1-.6,4.8-1.4.6-.3.5-1.1-.2-1-1.2.1-2.4.1-3.5,0-.2-.1-.5-.2-.9-.1-.3,0-.7,0-1,0-.5,0-1,.4-1.3.8,0,0,0,0-.1,0-.5-.4-1.5-.5-2.3.1-.3.2-.6.4-.8.6,0,0-.1,0-.2,0,.1-.1.3-.3.4-.5.2-.2.3-.5.3-.7.2-.3.5-.6.6-.9.3-.9-.6-1.3-1.5-1-.4.1-.9.3-1.3.4-.1,0-.3,0-.4.1,0,0,0,0,0,0-.5.2-.9.5-1,.9,0,0,0,.1-.1.1.1-.7.3-1.4.6-2.1.2-.5.1-.8-.1-1,.4-.3.8-.5,1.2-.8-.2.3-.5.6-.7,1,0,.1,0,.2.2,0,2.1-1.7,3.9-3.6,6.2-5.1,2.4-1.5,5.4-1.9,8.3-1.9h0ZM285.3,545.5s0,0,0,0c0-.2-.2-.3-.2-.4,0,0,0,0,0,0,0-.1-.1-.2-.2-.4-.3-.5-.6-1.1-.9-1.7-.3-.5-.5-1.1-.8-1.6-.2-.3-.3-.7-.5-1h0c-.5-1.2-1-2.3-1.4-3.5-1.9-5.3-3.4-10.8-4-16.4,0,0,.1,0,.1,0,.6,5.3,2.3,10.6,4.3,15.6,1.1,2.8,2.3,5.5,3.9,8.1.2.3.4.5.5.8,0,0,.1.2.2.2.1.2.3.4.4.5.5.6,1,1.2,1.5,1.8.4.5.7,1,1.1,1.5.1.2,0,.5-.3.4-.6-.2-1.1-.6-1.5-1-.3-.3-.5-.5-.8-.9,0,0,0,0,0,0-.2-.3-.5-.6-.7-.9,0,0,0,0,0,0-.1-.2-.2-.3-.3-.5h0c-.1-.2-.2-.3-.3-.5h0ZM285.3,558.9c-.2,0-.5-.2-.7-.3-.4-.2-.7-.5-1-.7.3.2.7.5,1,.7.2.2.5.3.7.3ZM271.9,505c0,0,.1-.1.1,0,0,8.9,1.6,17.5,3.7,26h0s0,0,0,.1c.2,1,.5,1.9.7,2.8h0s0,0,0,.1h0c.1.5.3,1,.4,1.6h0c.1.4.2.8.3,1.1h0s0,0,0,0c.3,1.1.6,2.2.9,3.3,0,.3-.3.5-.5.2-.2-.5-.4-1-.5-1.4-.1-.3-.2-.5-.3-.8-.6-1.6-1.1-3.2-1.5-4.8-2.6-9.2-3.5-18.8-3.6-28.2h0ZM274.1,532.1s0,0,0,0c-.3-.2-.5-.5-.8-.7,0,0,.1,0,.2,0,.2.3.4.6.6.8h0ZM280.9,471.1c-3.5-7.1-5.2-14.8-5.3-22.9,0-2.3.2-4.5.5-6.7.5-1.4,1.1-2.8,1.7-4.2-2,8.8-.3,18.6,2.9,26.7,3.8,9.8,9.4,18.4,17.1,25.4-5.4-3.9-10.2-8.6-14.1-14-1-1.4-2-2.8-2.9-4.3h0ZM290,333.3c.5-.1.8.3.7.6,2.1-.2,4.7-.2,5.9,1.6.2.3,0,.7-.5.6-2.3-1.1-4.1-1.4-6.7-1.1-.2,0-.4-.1-.5-.3-1.8.6-3.7,1.1-5.5,1.7-.4.1-.5-.4-.2-.5,2.2-1,4.5-1.9,6.8-2.7h0ZM287.8,333c.4,0,.5.6,0,.7-3.6,1-7.2,1.3-10.5,3.2-.4.2-.7-.4-.4-.6,3.1-1.9,7.1-3.5,10.8-3.3h0ZM281.8,333.6c-1.9.9-4,1.3-6,2.2-1.8.9-3.6,1.9-5.4,3-.2.1-.5-.2-.2-.3,3.2-2.1,7.5-5.3,11.4-5.4.3,0,.5.4.1.5h0ZM247.6,350.7c.1-.1.3,0,.2.1-1.3,1.6-2.6,3.1-4,4.7h-.4c1.4-1.6,2.7-3.2,4.1-4.9h0ZM211.8,414.3c0-.2,0-.5,0-.7,0-.3,0-.6,0-.9,0-.2,0-.3,0-.5,0-.4,0-.8,0-1.2,0,0,0-.1,0-.2,0-1,.1-2,.2-3h0c.5-4.8,1.4-9.6,2.5-14.1,1.8-7.2,4.5-15.7,11.1-19.9.1,0,.2,0,.1.2-6.4,5.1-9.1,13.8-10.6,21.5-.6,3.1-1,6.3-1.3,9.4h0c-.4,3.8-.6,7.6-.8,11.4,0,0,0,.2,0,.3,0,.4,0,.9,0,1.3,0,.6,0,1.2-.1,1.8,0,.6-1,.6-1.1,0,0-1.2-.1-2.5-.1-3.8v-1.5h0ZM219.5,429.7h0c0-.8-.1-1.5-.2-2.2v-.2c0-.4,0-.8,0-1.2v-1.8c0-.2,0-.4,0-.6.1-2.6.4-5.3.7-7.9,0-.3,0-.5.1-.8,0,0,0,0,0,0,0,.3,0,.6-.1.9h0c-.4,3.5-.7,7.1-.5,10.6,0,.3,0,.6,0,1,0,.1,0,.3,0,.4,0,.3,0,.6,0,.8,0,.2,0,.3,0,.5,0,.2,0,.5,0,.7,0,.1,0,.3,0,.5,0,.3.1.6.1.9,0,.1,0,.3,0,.5,0,.2,0,.4.1.6.2.9.5,1.9.8,2.8,0,.1-.1.2-.2,0,0-.2-.1-.4-.2-.6h0c-.6-1.7-.9-3.4-1.1-5.1h0ZM204.2,438.6c0,.2-.1.4-.2.5-.1.4-.2.7-.3,1h-.2c-.1.5-.3,1.1-.5,1.6.1-.4.2-.9.4-1.3.2-.6.5-1.2.8-1.9h0ZM197.5,441.7c-.4.9-.8,1.8-1.1,2.8-.4,1.1-.9,3.3-.9,5.3,0,0,0,.1,0,.2-2-9.6,2.8-14.8,7.7-20.8-.5.9-.9,1.8-1.4,2.7-1.7,3.1-3.1,6.5-4.2,9.9h0ZM204.5,441c-2.8,10.4-2.9,20.9-1.9,31.5h0c0,0,0,.1,0,.2h0s0,0,0,0h0s0,0,0,0h-.2s0,0,0,0c0,0,0,0,0,0,0,0,0,0,0,0,0,0,0,0,0,0,0,0,0,0,0-.1-.1-.5-.2-1.1-.3-1.6,0-.2,0-.4,0-.6,0-.3-.1-.6-.1-1,0-.3,0-.5,0-.8,0-.3,0-.5,0-.8,0-.3,0-.6,0-.8,0-.8-.1-1.5-.1-2.3,0-.6,0-1.2,0-1.8v-.2c0-1.4,0-2.8.1-4.2,0-.1,0-.2,0-.4,0-.6,0-1.2.1-1.8,0-.1,0-.3,0-.4,0-.7.1-1.4.2-2h0c0-.7.2-1.5.3-2.2,0,0,0-.1,0-.2.1-.6.2-1.3.3-1.9,0-.1,0-.3,0-.4.1-.6.2-1.2.3-1.8.2-.8.3-1.6.5-2.4,0,0,0,0-.1.1,0-.2,0-.4.1-.7v.5c.3-1.4.7-2.7,1-4.1,0-.1.3-.1.2,0h0ZM206.9,486.1c-.1-.3-.2-.6-.3-.9,0-.1,0-.2,0-.3,0-.2-.1-.4-.2-.6,0-.1,0-.2-.1-.4,0-.2,0-.4-.1-.5,0-.1,0-.3,0-.4,0-.2,0-.3-.1-.5,0-.1,0-.3,0-.5,0-.1,0-.3,0-.5,0-.2,0-.3,0-.5,0-.1,0-.2,0-.4,0-.5-.1-.9-.2-1.4-.4-3.1-.5-6.2-.6-9.2-.1-5.4,0-10.8.1-16.2,0-.3.5-.3.5,0,0,5.4,0,10.7.3,16.1.2,4.4.9,8.7,1.5,13.1.1.9.2,1.8.4,2.8,0,.4-.6.6-.7.2h0ZM211.4,492.9c-3.4-9.2-4.3-19.9-3.4-29.7,0,0,.1,0,.1,0-.3,5.1,0,10.2.8,15.2.8,4.8,2.1,9.5,3.1,14.2,0,.4-.5.5-.6.2h0ZM218.2,503.1c-1.9-4.5-3.6-9.1-5.2-13.7-1.5-4.1-2.6-8.4-2.6-12.8,0,0,.1,0,.1,0,.2,4.8,1.9,9.4,3.7,13.8,1.7,4,3.9,8.1,4.7,12.4,0,.4-.5.5-.7.2h0ZM225.6,509.2c-4.7-5.2-9.6-12.3-10-19.6,0,0,.1-.1.1,0,.8,7.3,6,13.6,10.3,19.3.2.3-.2.6-.4.3ZM226.7,448c-.2-.6-.4-1.1-.6-1.7,0-.2-.1-.5-.2-.7-.1-.3-.2-.7-.4-1-.1-.3-.2-.6-.3-1,0-.3-.2-.5-.2-.8-.1-.4-.2-.8-.3-1.2,0-.2-.1-.4-.2-.6-.1-.4-.2-.9-.4-1.3,0-.1,0-.3-.1-.4-.1-.5-.2-1-.4-1.5,0,0,0-.2,0-.2-.1-.5-.2-1.1-.4-1.6,0,0,0-.1,0-.1-.1-.6-.2-1.2-.4-1.7,0,0,0,0,0,0-.9-4.4-1.4-8.8-1.1-13.3,0,0,.1,0,.1,0,0,4.1.7,8,1.6,12,0,0,0,0,0,0,.1.6.3,1.2.4,1.8,1.1,4.4,2.8,8.7,3.5,13.2,0,.4-.6.6-.7.2h0ZM232.8,451.5c0,.2-.1.4-.3.4,0,0-.1,0-.2,0h0c0,0-.1,0-.2,0,0,0,0,0,0,0,0,0,0,0-.1,0,0,0,0,0-.1-.1-.2-.4-.4-.7-.6-1.1,0-.1-.1-.2-.2-.4-.1-.3-.3-.6-.4-.9,0-.1-.1-.2-.2-.4-.2-.4-.3-.7-.5-1.1,0-.1-.1-.3-.2-.4-.1-.3-.2-.5-.3-.8,0-.2-.1-.4-.2-.5,0-.2-.2-.4-.2-.6,0-.2-.2-.4-.2-.6-.4-1-.8-2.1-1.1-3.1h0c0-.3-.2-.5-.3-.8-1.1-3.1-1.7-6.2-1.6-9.4,0,0,.1,0,.1,0,0,.3,0,.6,0,.8,0,0,0,.2,0,.2,0,.2,0,.4,0,.6,0,0,0,.2,0,.3,0,.2,0,.4.1.6,0,0,0,.1,0,.2,0,.3.1.6.2.8,0,0,0,0,0,0,0,.3.1.5.2.8,0,0,0,.1,0,.2,0,.2.1.5.2.7,0,0,0,0,0,.1.4,1.5,1,3,1.6,4.4,0,0,0,0,0,0,.2.4.3.7.5,1.1,1.3,2.9,3.1,5.7,3.8,8.8h0c0,0,0,.1,0,.1ZM247.9,461.8c-1.3-.5-2.6-1.2-3.8-2h0c-.2-.1-.4-.2-.6-.4,0,0-.1,0-.2-.1-.1,0-.2-.2-.4-.3,0,0-.1-.1-.2-.2-.1,0-.2-.2-.3-.3,0,0-.1-.1-.2-.2-.1,0-.2-.2-.3-.3,0,0-.1-.1-.2-.2-.1,0-.2-.2-.3-.3,0,0-.1-.1-.2-.2-.1-.1-.2-.2-.3-.3,0,0-.1-.1-.2-.2-.1-.1-.2-.2-.3-.3,0,0-.1-.1-.1-.2-.1-.2-.3-.3-.4-.5,0,.1,0,.2.1.4,1.4,1.5,2.7,2.9,3.9,4.4.5.7-.4,1.5-1,1-1-.7-1.7-1.6-2.2-2.5-1.2-1.3-2.4-2.6-3.6-4-.3-.4-.7-.8-1-1.2-.2-.2-.4-.5-.5-.7,0,0,0,0,0,0-.4-.5-.7-.9-1.1-1.4,0,0,0,0,0-.1-.1-.2-.3-.4-.4-.6,0,0,0,0,0-.1-.3-.5-.6-1-.9-1.4,0,0,0-.1,0-.2-.1-.2-.2-.4-.3-.6,0,0,0,0,0-.1-.1-.2-.3-.5-.4-.7,0,0,0,0,0,0-.1-.2-.2-.4-.3-.6,0,0,0-.1,0-.2,0-.2-.2-.4-.3-.6,0,0,0-.1,0-.1-.1-.2-.2-.5-.3-.8,0,0,0-.1,0-.2,0-.2-.1-.4-.2-.6,0,0,0-.1,0-.2,0-.2-.1-.5-.2-.7,0,0,0,0,0-.1,0-.3-.1-.5-.1-.8,0,0,0-.1,0-.2,0-.2,0-.4,0-.6,0,0,0-.2,0-.2,0-.3,0-.5,0-.8,0-.3.4-.3.4,0,0,.3,0,.7.1,1,0,0,0,.1,0,.2,0,.3.1.6.2.9,0,0,0,.1,0,.2,0,.3.1.6.2.8,0,0,0,0,0,.1,0,.3.2.5.3.8,0,0,0,.2.1.3.1.2.2.5.3.7s.1.2.1.3c0,.2.2.4.3.5,0,.2.2.3.3.5,0,.1.2.3.2.4s.2.3.2.4c0,.1.1.2.2.3.1.2.3.5.5.7,0,0,0,.1.1.2,1.5,2.2,3.4,4.2,5.2,6.1-.1-.3-.2-.7-.3-1-.1-.4.3-.7.6-.4.2.1.4.3.6.4,0,0,.1.1.2.2.1.1.2.2.3.3,0,0,.2.2.3.3,0,0,.2.1.2.2.8.8,1.6,1.6,2.5,2.2,1.5,1.1,3.1,2.1,4.7,3,.7.4.2,1.4-.5,1.1h0ZM249,351.2c0,.1-.3,0-.2-.1,2.7-3.6,5.9-7.3,9.7-9.8.3-.2.5.2.3.4-3.4,3.1-6.8,6-9.8,9.6h0ZM254.3,347.6c-.1.1-.4,0-.3-.2,3.2-3.3,6.4-7.7,11-9,.3,0,.5.3.2.5-4.4,2.2-7.4,5.4-10.9,8.8h0ZM261,343.4c3.7-3.1,8-7.5,13-8.3.4,0,.5.5.2.6-2.5,1-4.8,1.9-7,3.4-2.1,1.4-4,3-6,4.5-.1.1-.3-.1-.2-.2h0ZM269.7,353.6c-.1.5-.1,1.1,0,1.6-.1-.1-.2-.2-.4-.4,0,0-.2,0-.2.1.1.3.3.5.4.8-.1-.1-.2-.3-.3-.4-.3-.3-.7-.3-1-.1-.6-.4-1.3-.8-2-1,1-.5,1.9-1.2,2.7-1.9.7-.6.2-1.3-.5-1.3.1,0,.2-.2.4-.3.2-.1.4-.2.6-.3-.2.5.4.9,1,.5,3.6-2.5,6.9-3.1,10.5-3.7.1,0,.2,0,.4.1,1,.4,1.9.9,2.9,1.2,0,.1.1.2.3.3,0,0,0,0,0,0,0,0,0,.2,0,.3.5.8,1,1.5,1.5,2.3,0,.4.2.6.4.9,0,.4.1.7.2,1.1,0,.6.3.9.8.9,0,.1.2.2.3.3,0,.3.3.5.9.6.5,0,1,.1,1.5,0-.4.4-.7.8-1.1,1.1-2.4-.2-5.3,1-7.2,1.8-.3.1-.7.5-.9.9-.1,0-.2,0-.4,0-.4,0-.9,0-1.3,0-1.2,0-2.2-.3-3.4-.8-2.5-1.2-3.3-3.7-5.4-5-.2-.1-.4,0-.5.2h0ZM271.6,527.2s0,0,0,0c-.5-1.4-.8-2.8-1.6-4,0,0,0,0,0,0,.8,1.2,1.2,2.7,1.6,4.1h0ZM272.3,621.3c2.6.4,5.3.5,8,.7,1.2,0,3.8-.2,4.9.6.5.4.7,1,.2,2-.2.4-.6.8-1,.8-.5,0-1.5-1-2-1.3-1-.4-2.2-.7-3.3-1-2.3-.7-4.6-1.4-7-1.6-5.6-.5-11.2-.7-16.8.2,0,0,0,0,0,0,0-.7-.3-1.3-.6-2-.3-.6-1.6-3.3-1-3.6,1-.7,3.6,1.9,4.1,2.6.7.8,1.7,2.5,3,1.8,1.3-.6.6-2-.1-2.8-.2-.2-1.7-2.3-1.6-2.3h.1s0,0-.1,0c0-.3,0-.7.1-1,.5,0,1,.2,1.4.2.5,0,1.1.2,1.7.3h-.5c1.3,4.5,6.5,5.9,10.6,6.5h0ZM271,596c-1.6,2.6-3.2,5.3-4.2,8.3,0,.2-.1.5-.2.7-.7,2.2-1.3,5.3-.4,7.2,0,0,0,0,0,.1-1.9-.4-4.2-.9-6.1-.6.8-1.7,1.6-3.3,2.4-4.9,5.7-7.9,10.8-16.4,15.1-24.8,0,0,0,0,0,0,1.3.4,2.6.8,3.8,1.5-3.9,3.8-7.6,8-10.5,12.7h0ZM283.4,581.5c-1.5-.9-3.2-1.3-4.9-1,.3-.5.5-1,.8-1.5h7.1c-1,.7-2,1.6-3,2.6h0ZM295.9,566.2c-4.3.6-9.2-1.7-12.9-3.6-4.4-2.3-8.5-5.1-13.1-7,0,0,0-.1,0,0,4.4,1.8,8.5,4,12.8,5.9,2.1.9,4.2,1.8,6.4,2.4,2.2.7,4.5.9,6.8,1.3.6.1.6,1,0,1h0ZM309.8,564.1c-2.8-.9-5.4-3.2-7.6-5.1-2.1-1.9-4.2-3.9-6-6-1.2-1.4-2.4-2.8-3.5-4.3-.5-.7-1.1-1.4-1.6-2.1-.1-.2-.2-.3-.4-.5-.3-.4-.6-.8-.9-1.3-.5-.7-1-1.5-1.6-2.2-.2-.3-.4-.6-.6-.9-.7-1-1.4-2-2.1-3-.3-.4.3-.8.6-.5.4.6.8,1.1,1.2,1.7.1.1.2.3.3.4.3.5.6.9,1,1.4.1.2.2.3.3.4.4.5.8,1,1.1,1.5,0,0,0,.1.1.2.4.5.8,1.1,1.2,1.6,0,0,.1.1.1.2.2.2.4.5.5.7.1.2.3.3.4.5.3.4.6.7.9,1.1,0,0,.1.2.2.2.3.4.7.8,1,1.2,0,0,0,0,0,0h0c.7.8,1.3,1.5,2,2.3,2.1,2.3,4.4,4.6,6.9,6.5,2.2,1.7,4.7,3,6.9,4.8.5.4,0,1.1-.5.9h0ZM316.3,564.8c-3.1-1-5.7-3.2-8.1-5.4-.3-.3,0-.8.4-.5,2.6,1.9,5.3,3.5,8.1,5.1.5.3.2.9-.3.8h0ZM321.7,626.4c-.1,0-.3,0-.5,0-.4,0-.7-.2-.7-.7,0-.8.1-1.6.3-2.4.1-.5.2-1,.4-1.5.1-.5.4-.9.8-1.1.4-.2.8,0,1.1.2-1.1,1.6-1.3,3.5-1.5,5.5h0ZM327.7,638.5c0-.3-.2-.5-.2-.8-.2-.8-.4-1.7-.5-2.6,1.1.4,2.4.6,3.6.5-.6,1.5-1.2,2.8-2.9,2.9h0ZM331.3,633.5c-.7,0-1.4.2-2.1.3-.8.1-1.6.2-2.4.1-.1-1-.2-1.9-.3-2.9.9.2,1.7.2,2.6.2.8,0,1.8.2,2.7.1-.2.7-.3,1.4-.5,2.1h0ZM332.2,629.7c0,0,0,.1,0,.2-.6,0-1.2.2-1.7.3-1.4,0-2.7,0-4,0v-.2c0-1,0-2.1,0-3.1,1.9.7,4.2.6,6.1.2-.1.9-.2,1.8-.4,2.7h0ZM332.9,624.1c0,.1,0,.2,0,.3,0,.3,0,.6,0,.9,0,0,0,.1,0,.2-.8,0-1.6.4-2.3.5-1.4.1-2.8.3-4,0,0-1.1.2-2.3.3-3.4.3-1.7,1-2.9,1.8-4.3.1-.2.3-.3.5-.5.6-.2,1.3-.1,2.1.3,2.2,1,2,4.1,1.8,6.1h0ZM335,613.2c-.9-.2-1.8-.3-2.7-.4-1.4-.3-2.9-.3-4.2,0,.2-.8.4-1.5.7-2.3,1.3-.2,2.6-.4,3.6,0,1,.5,1.8.8,2.8,1,0,.5,0,1-.1,1.5h0ZM331.6,609.2c-.9,0-1.7.2-2.6.3h0c3.2-5.1,5.3-11.4,7-17.6.5,0,1,0,1.5.3.5.3.9.8,1.2,1.3.1.2.2.4.3.6-1.7,5.5-3.1,10.6-3.7,16-1.2-.3-2.4-1.1-3.6-1h0ZM336.4,590.6c.2-1,.5-1.9.7-2.9.7.2,1.3.5,1.9.9.5.3.9.7,1.4,1-.2.7-.4,1.5-.7,2.2,0,0,0,0,0,0-.6-.7-1.5-1.2-2.1-1.3-.4,0-.8,0-1.1,0h0ZM342.2,620.6c.3,0,.6.2.9.3.7.2,1.6.3,2.4.5.9.2,2,.4,2.9.8.3.2.3.7-.1.7-2,.1-4,0-6,0-1,0-2,.1-3,.3-.4,0-2.8.4-2.9.7,0,0,0-.1.1-.2,0,0,0,0-.1,0,0-1,.4-2.3.9-3.1.5-.7,2.2-.5,3-.4.7,0,1.3.2,1.9.4h0ZM340.9,587.8c-.3-.3-.7-.5-1-.7-.8-.5-1.6-.7-2.4-.7.2-.9.4-1.8.6-2.6,1,0,2.1-.3,3.1-.6,0,.6.2,1.1.6,1.6-.3,1-.6,2-.9,3ZM343,581c-.3-.2-.7-.1-1,0-1.2.4-2.3.7-3.5.9.1-.6.3-1.2.4-1.8.2,0,.4-.2.6-.3.8-.4,1.4-1,1.9-1.7.7.5,1.1,1.3,1.6,2.1,0,.1.2.2.4.2,0,.2-.1.4-.2.6h0ZM362.8,548.5h0c-.8-.7-1.6-1.4-2.4-2.1-1.2-1.1-2.4-2.1-3.6-3.2-1-.9-2-1.8-3-2.6-.3-.3-.7-.6-1-.9-1.1-1-2.3-2-3.4-3,0,0-.2-.2-.3-.2-1-.9-2-1.8-3-2.7-1.5-1.3-3-2.7-4.4-4-.3-.3-.6-.6-1-.9-.5-.5-1-.9-1.5-1.4-.3-.3-.6-.6-1-.9-.5-.5-1.1-1-1.6-1.5-.2-.2-.5-.5-.8-.7-.8-.7-1.5-1.5-2.3-2.2-.2-.2-.4-.4-.6-.6-.6-.6-1.1-1.1-1.7-1.7-.2-.3-.5-.5-.8-.8-.6-.6-1.1-1.2-1.7-1.8-.2-.2-.4-.4-.6-.6-.8-.8-1.5-1.6-2.3-2.4-.1-.1-.2-.2-.3-.3-.6-.7-1.3-1.4-1.9-2.1-.2-.2-.4-.5-.6-.7-.6-.6-1.1-1.3-1.7-1.9-.2-.2-.4-.4-.5-.6-.7-.9-1.5-1.7-2.2-2.6-1.6-1.9-3.1-3.9-4.6-5.8-.7-1-1.4-1.9-2.1-2.9,0,0,0-.1,0,0,0,0,.1.1.1.2h0c.9,1.1,1.8,2.1,2.7,3.2,0,0,0,0,0,0h0c1,1.2,2.1,2.5,3.2,3.7,0,0,.1.1.2.2h0c0,0,.1.1.2.2,8.2,9.4,17.4,18,26.7,26.2,0,0,.2.2.3.2h0s0,0,.1,0c-3.6-3.6-7.2-7.4-10.7-11.2,0,0,0,0,0,0-1.6-1.7-3.1-3.5-4.7-5.3h0c-1.8-2.1-3.6-4.2-5.3-6.3,0,0,0-.1,0,0,1,1.1,2,2.3,2.9,3.4.2.2.4.5.7.8,1,1.1,2,2.2,3,3.3h0c2.7,3,5.5,5.9,8.3,8.8.1.1.3.3.4.4,2.1,2.2,4.3,4.3,6.5,6.5.2.2.4.4.6.6,1.8,1.7,3.6,3.4,5.4,5h0c1.7,1.6,3.5,3.1,5.2,4.7,0,0,0,0,.1,0,.8.7,1.6,1.4,2.4,2.1.1,0,.2.2.3.3.9.8,1.8,1.5,2.7,2.3.9.7,1.8,1.5,2.7,2.2,0,0,.2.1.2.2.8.7,1.7,1.3,2.5,2h0c1.8,1.4,3.6,2.8,5.5,4.2h0c3.4,2.5,6.8,5,10.4,7.4,2.7,1.8,5.4,3.5,8.1,5.1h0c2.6,1.5,5.1,3,7.7,4.5.6.4,1.2.7,1.9,1.1.5.3,1,.6,1.4.8,1.1.7,2.2,1.3,3.3,2,.4.2,0,.8-.4.6-.6-.3-1.3-.6-1.9-.9-.1,0-.3-.1-.5-.2-.6-.3-1.1-.5-1.7-.8,0,0-.1,0-.2,0-1.4-.7-2.7-1.4-4-2.2-5-2.8-9.8-6.1-14.5-9.2-1.8-1.2-3.5-2.4-5.3-3.7,4.9,3.9,10,7.6,15.3,10.9,2.1,1.3,4.2,2.5,6.4,3.6h0c5.5,2.8,11.2,5,17.2,6.5h0s0,0,0,0c.5.1,1.1.3,1.7.4.2,0,.4,0,.5.1.4,0,.9.2,1.3.3.2,0,.4,0,.5.1.6.1,1.2.2,1.8.3.7.1.8,1.3,0,1.3s-.8,0-1.2,0c-.2,0-.3,0-.5,0-.2,0-.4,0-.5,0-.4,0-.8,0-1.2,0-2.6-.3-5.2-.8-7.7-1.6-19.3-5.9-35-19.8-49.9-33h0ZM456.8,663.2c-6.4-3.6-11.2-10.6-15.9-16.2-5.1-6-10.2-12.2-15.2-18.4s-10-12.4-15-18.5c-4-4.9-8.7-9.7-12.6-14.6-.3-.5-.6-.9-1-1.4-1.5-2.2-3.2-4.2-4.9-6.2.1,0,.2,0,.4.1,1.5,1.4,2.9,3,4.2,4.4.8.8,1.7,1.6,2.5,2.5.5.5.9,1.1,1.4,1.6,3.2,3.7,6.5,7.3,9.6,10.9,3.1,3.6,6.3,7.2,9.4,10.8,0-.2-.1-.3-.2-.5.1.2.3.3.4.4,0,0,0,.2,0,.2,0,0,0,0,0,0,3.2,3.7,6.4,7.5,9.5,11.3,6.1,7.4,12.1,15,18,22.6,3.1,4,6.4,8.2,10.5,11.4-.4-.2-.7-.4-1.1-.6h0ZM473.2,652.5c-6.8-6.9-13.6-13.8-20.4-20.6-6.6-6.6-13.2-13.2-19.9-19.7-1.2-1.2-2.3-2.3-3.5-3.5-4.5-5.1-9-10.2-13.5-15.3,1.3.6,2.6,1.2,3.9,1.7,2,.8,4.1,1.9,6.2,2.2.2,0,.4,0,.6-.3.2.2.4.4.6.5,3.5,3.4,7.1,6.6,10.6,9.9,7.1,6.5,14.2,13,21.1,19.7,1.2,1.2,2.4,2.3,3.6,3.5,3.5,3.9,6.9,7.7,10.5,11.5,1.5,1.9,3.1,3.8,4.7,5.5,1.5,1.7,3.1,3.4,4.6,5.2,1.6,1.8,2.8,3.9,4.4,5.7,1,1.3,2.1,2.7,3.3,3.9.7,1,1.5,2,2.2,3-7.9-1.2-13.5-7.5-18.9-13h0Z"/>
      </g>
      <g>
        <path class="st7" d="M284.9,355.5c.3-.4.3-.7,0-.9,1.2-1.8-.2-4-2.1-5.2-1-.8-2.3-1.2-3.6-1-.2,0-.5,0-.7.1-2.6.2-5.3,1.4-5.9,3.6,0,.1.1,0,.2,0,0,0,0,0,0-.1,0,.2-.1.4,0,.6,0,.1.2.2.3.2,0,0,.1,0,.1,0,.3,0,1-.5.5-.7,0,0,1.6-1.4,1.7-1.5.8-.6,1.8-.9,2.8-1.1,1.1,0,2.1.2,2.9.6.7.6,1,1.5,1.1,2.4,0,.3.1.4.4.5-.3,0-.6,0-1,.1-.6,0-1.3-.4-1.7-.6-.4-.1-.8-.2-1.1-.3-.3-.1-.5-.2-.8-.3-1-.4-2.6-.4-3.6,0-.3.1-.6.4-.3.7,0,0,.2.1.3.2-.1,0-.2.1-.4.2-.2,0-.4.2-.6.3,0-.1-.1-.2-.2-.3,0-.1-.2-.2-.4-.2h0s0,0,0,0c0,0-.2,0-.3,0,0,0,0,0,0,0-.3.1-.7.4-.6.7,1.8,4.5,9.5,6.5,12.8,2h0Z"/>
        <path class="st7" d="M300.8,377.5c2,.6,3.7.6,5.6.5,0,0-.2,0-.2,0,0,0-.1,0-.2,0-3.8-1.2-6.4-3.8-9.5-5.2,0,0,0,0,0,0,1,1.5,2.5,4.2,4.3,4.7h0Z"/>
        <path class="st7" d="M304,348.6c.6-.2,1-.4,1.4-.5.6.3,1.4.3,2,0,.9-.5,1.5-1,1.9-1.9.5-1.1,0-2.7-1.6-2.4-2.3.3-4.7,1.5-5.5,3.5-.4,1,.8,1.6,1.8,1.3h0Z"/>
        <path class="st7" d="M284.4,369.1c.8-.3,1.7-.6,2.5-1,.1,0,.2-.3,0-.2-.9.2-1.7.5-2.6.8-.3.1-.2.5.1.4h0Z"/>
        <path class="st7" d="M287.6,368.9c.2,0,.8,0,1.1-.1.1,0,.2-.2.2-.3-.3-.5-1-.2-1.4,0-.2.1,0,.4.1.3Z"/>
      </g>
      <path class="st7" d="M498.7,664.7c-2.8-5.1-7.3-8.9-11.1-13.2-6-6.9-11.7-13.9-17.5-21-7.8-9.6-14.9-20.5-23.2-30,0,0,0-.1,0-.2-1.1-2-2.4-3.8-3.7-5.6-.8-1.1-1.5-2.2-2.3-3.3,0,0,0-.2,0-.2-2.4-5.5-5.4-10.7-8.6-15.8-.8-1.2-2.3-3-3.4-4.7-.3-.7-.6-1.3-1-1.9,0-.3-.1-.5-.1-.7-.2-2.6,1.7-1.3,3-1,.9.3,1.6,1.2,1.9-.5.1-1-1.1-2.1-1.5-2.9-1.6-2.7-3.2-5.3-4.8-7.9-2.8-4.4-5.6-8.8-8.5-13.2-.7-2.3-2.5-4.3-4.3-6.2-1.9-2.7-3.8-5.4-5.8-8.1-.8-1-5.8-8.4-7.1-7.9,1.6-.7,2.9-2.6,2.6-4.2-.2-1.3-.6-2.5-1-3.8.7-.2,1.2-.9,1.1-1.7-1.4-7-7.8-13.1-12.1-18.5-5.1-6.4-10.6-12.5-16.2-18.4-10.5-11-22.1-22-35.1-30.1-1.4-1.8-2.9-3.7-4.4-5.1.6.2,1.5-.2,1.6-.9,1.4-7.8-5-14.6-10.3-19.6-1.2-1.1-2.9-2.7-4.9-4.1-3.4-1.1-6.8-2.4-8.7-5.2-1.8-2.7-1.5-6.3.1-9,.5-.9,1.1-1.6,1.6-2.5.5-.8.6-4.6,2.3-3.3.7.6,1.2,1.2,1.6,1.8,0-.3-.1-.6-.2-.8-.4-2.5-1.7-5.1-3.7-6.8-.9-.8.2-1.9,1.2-1.5,1.5.6,2.7,1.4,3.9,2.3-.9-1.9-2.5-3.5-4.2-4.9,7.6.5,15.5.7,23.1.9,5.7.2,12.4-.3,17.4-3.4,1.3-.7,2.5-1.7,3.4-2.9-.5,0-1,0-1.5-.1,0,0,0,0,0,0-8.5-.9-17-2.8-25-4.5-1.5-.3-3-.7-4.5-1.1-3.5-.6-7.1-1.4-10.5-2.2-5.1-1.3-11.4-1.5-16-4.1-.3-.2-.4-.4-.4-.7,3-.6,6.1-1.5,9-2.3,2-.5,4-1,6-1.6,0,0,0,0,.1,0,2.9-.5,5.8-1,8.7-1.8,5.7-1.4,11.4-2.9,17.2-3.8,5.2-.9,10.4-.9,15.6-1.4,2.9.3,5.7.8,8.2,1.8,0-3-2.9-7.6-4-8.9-3.3-3.9-8.4-6.3-13.7-7.7-12.8-3.4-27.2-2.5-40.5-1.2-.4-.8-1-1.5-1.8-2,0,0,0,0-.1-.1h-1c-1,0-2.2,0-3.3-.1-2.4-.1-4.9-.2-7.2-.2s-3,0-4.2.2c-.2,0-.5.1-.7.2-.3.1-.6.3-1,.3-.4,0-.7,0-1.1,0-1.1,0-2.2-.2-3.4-.3-1.1-.1-2.2-.3-3.1-.3s-.5,0-.7.1c-.1,0-.3,0-.5,0h0c0,.1-.8.7-.8.7-.2,0-.5,0-.8,0-.4,0-.9,0-1.3,0-.4,0-.8,0-1.2,0s-.7,0-.9,0c-.2,0-.8.3-1.1.5-.5.2-.9.4-1.2.5-.6.2-1.3.2-1.9.3-.7,0-1.4.1-1.9.3-.1,0-.4.2-.7.3-.7.4-1.3.7-2,.7s-.3,0-.4,0c-1.5,1.1-3,2.3-4.5,3.5-.1.1-.3-.1-.2-.2,1-.8,2.1-1.8,3.2-2.7-.6.4-1.2.8-1.6,1.2-.5.6-1,.7-1.4.7s-.5,0-.6-.1h0s0,0,0,0c-.3.3-.6.6-1.1.7-.2,0-.3,0-.5,0-1.5,1.4-3,2.8-4.5,4.3-.1.1-.4,0-.3-.2,1.2-1.3,2.4-2.7,3.8-4-.2,0-.4,0-.5,0,0,0-.2.1-.3.2-.2.1-.4.3-.7.4,0,0-.2,0-.3,0-2.4,2.2-4.9,4.5-7,7.1,0,.1-.3,0-.2-.1,1.4-1.9,3-3.8,4.7-5.6-.1.1-.2.2-.3.3,0,0-1.9,1-2.2,1.1-.4.1-.8.2-1.1.2h-.4c-.3,0-.4,0-.6.3,0,0,0,.1-.1.2-.1.3-.3.7-.7.9-.2.1-.6.2-1.1.4-.4.1-.8.2-1,.3-.5.2-1.1.7-1.4,1v.2c0,.2,0,.3,0,.4,0,0,.2.2.2.2.2.2.5.5.6,1,0,.4-.1.6-.2.8,0,0,0,.1,0,.2,0,.1,0,.2,0,.4.8-.9,1.6-1.9,2.4-2.8.1-.1.3,0,.2.1-.8,1-1.7,2-2.5,3,0,.2.1.3.2.5.2.5.4,1.1.4,1.6.2,2.7.6,5.5,1.1,8.1.4,2.2.7,4.5,1,6.8.2,2.2-.7,4.2-1.5,6.2-.5,1.2-1,2.3-1.2,3.4l-.2.2c0,.5-.1.9-.2,1.3.2,0,.6.1.8.1.5,0,.9.1,1.4.3.9.4,2.5,2.5,2.6,2.6.4.6.7,1.3.9,2,.1.4.3.9.4,1h0s0,0,0,0c.2,0,.5.2.7.5.4.4.6,1.3,1,3.5v.2c.3,1.6.4,3.2.4,4.6,0,.1,0,.3,0,.5,0,.2.1.5.1.8,0,.6-.4,1.3-.7,2-.2.4-.5.9-.5,1.1,0,.1,0,.6,0,.8,0,.5,0,.7,0,1-.2.5-1.3,1.5-1.5,1.6-.4.2-.7.2-1,.3h0s0,0,0,0c0,.2-.2.5-.4.7-.9,1.2-2.1,1.9-3.3,2.5-.3.2-.7.4-1,.6-.1.2-.3.5-.7.7-.4.2-.8.3-1.2.3s-.6,0-.8,0c0,0-.1,0-.2,0,0,0-.2.1-.3.2-.3.2-.7.5-1.1.6-.2,0-.5,0-.8,0s-.3,0-.5,0c-.1,0-.2,0-.4,0s-.2,0-.3,0c-.3,0-.5.1-.7.2-.4.1-.8.2-1.3.3h0s0,0,0,0c-.2.1-.4.3-.7.3-.1,0-.2,0-.3,0-.9,0-1.9-.6-2.8-1.1-.5-.3-1-.6-1.3-.7,0,0,0,0-.1,0-.1,0-.2,0-.3,0-.2,0-.4,0-.7,0s-.6,0-1-.2c-1.9-.8-2.5-1.9-3.1-2.9-.3-.5-.5-1-.9-1.4-.1-.2-.4-.4-.7-.5-.4-.3-.9-.6-1.3-1.2-.4-.5-.4-1-.5-1.4,0,0,0-.1,0-.2-.2-.1-.4-.2-.6-.5-.5-.7-.6-2.1-.6-6.2s0-2.5,0-3v-.3c0-.6.4-1,.6-1.4,0,0,.2-.2.2-.3,0,0,0,0,0-.2h0s0,0-.1,0c-.2-.2-.5-.5-.6-.9,0-.5.1-.9.3-1.1,0-.2,0-.4,0-.6,0-.5-.1-1.1,0-1.9,0-.2.9-2.2,1.1-2.5.3-.4.7-.5,1-.5,0,0,0,0,.1,0h0c.1-.2.3-.6.9-.8.1,0,.2,0,.4,0s.1,0,.2,0c.2-.4.7-1.1,1.8-1.4.4,0,.8-.1,1-.1,0,0,0-.2,0-.3v-.7c0-.1,0-.2,0-.4-.7-4.4-1.1-8.7-1.4-13-1.8,2.3-3.4,4.7-5,7.2-3,4.7-5.6,9.7-7.9,14.8-.9,2-1.8,4-2.6,6.1-2,4-3.6,8.3-3.7,12.3,0,.2.3.2.4,0,0,0,0-.1.1-.2,0,.2.3.3.5.3-1.3.5-2.4,9.7-3,11.3-2.5,6.6-8.4,11.2-11.1,17.9-2.9,7.5-3.6,17.9-.7,25.4.6-.1,1.9,0,2,.8.1,7.2.6,14,3.8,20.6,1.4,2.8,2.9,5.7,3.8,8.7.4,1.2,1.5,7.8,2.9,6.9.6-.3,1.4-.1,1.5.6,0,.6,0,1.1,0,1.7,5,14.4,14.8,28.5,23.8,38.8,6.4,7.3,16.9,11,25.3,15.2,2.6,1.3,5.2,2.4,7.8,3.2,2.7,3.3,5.3,6.2,7.3,9.9.9,1.6,1.5,3.2,1.9,4.7.7,8.9-6.3,17.4-10.2,25.2-3.1,6.1-6.8,11.3-10.6,16.7h0s0,0-.1.1c0,0,0,0,0,0-.3.3-.6.6-1,.6,0,0-.1,0-.2,0,0,0,0,0,0,0h-.2c-1.1-.9-2.4-1.5-3.2-1.7-3.9-.8-6.5,1.9-7.3,5.3-.4.6-.6,1.3-.7,2-1-1.5-1.7-1.9-3.1-2.9-1.7-1.2-3.3-2.2-5.4-2.5-3.1-.3-5.4,2.7-6.7,5.5-.1-.3-.4-.6-.8-.7-5.5-1.4-10-1.5-10.5,5.1-.4,4.9,2.2,9.5,5,13.4,1.6,2.3,3.4,4.5,5.5,6.3,1.1.9,2.2,1.8,3.5,2.4.6.3,3.6,1.8,3.2.2,0-.3-.3-.6-.4-.9-.8-1.4-1.2-3.1-.9-4.8.1-.8.9-2.7,1.9-1.7.3.3.4,1,.7,1.4.4.6.9,1.1,1.4,1.6.8.9,1.5,1.8,2.3,2.7.9,1,2.1,1.9,3.3,2.4,1.1.5,3.6,1.2,2.8-.9-.6-1.9-1.6-3.5-1.9-5.5-.1-.8-.2-1.7,0-2.5.1-.5.9-2.5,1.7-1.9.5.4.8,1.3,1.1,1.9.4.7.8,1.4,1.2,2,.9,1.3,2,2.5,3.2,3.5,1.4,1.1,2.9,2.1,4.6,2.7.9.3,1.8.6,2.7.8.4,0,1.3.4,1.5,0,.3-.5-.8-1.8-1-2.2-1.8-3.6-2-7.8-1-11.7.6-2.2,1.7-4.2,3.9-5,2.6-1,5.4-.3,8-.2,2.5,0,5-.2,7.6-.3,3.3-.2,8.9-1.5,10.9,2.1-.6,1.1-1.4,2.2-2.3,3.1-.3.3.1.7.4.5,2.3-1.6,4.3-3.1,5.7-5.6,1.3-2.4,2.1-5.4,2.1-8.1,0,0,0-.1,0-.2,0,0,0-.2,0-.3.1-.8,0-2-1.1-2.2-5-.8-9.8-1.9-14.7-3-.1,0-.2-.1-.4-.2-.4-.2-.7-.5-1-.8-.3-.3-.5-.6-.7-.8-1.1-1.8-1.1-4.1-.4-6.6,4.4-9.5,12.7-17.8,20.9-24.5.7-1,1.4-1.9,2-2.9.6-1,1.8,0,1.5.9,0,.1,0,.3-.1.4,2.4-1.7,4.9-3.7,4.5-6.8-.4-2.8-1.2-6.5,2.5-7.1,5.3-.8,11.1-.3,15.9,2.1,1.9,1,3.4,2.6,4.8,4,0,.5.2,1.1.3,1.6.7,2.9,1.6,3.5,3.6,5.8,2.5,2.9,2.9,6.6,2.5,10.4-.6,2-1.2,3.9-1.9,5.8-2.1,6.3-4.2,13.8-9,18.8-.3.4-.7,1-1.3,1.5-.3-.2-.6-.4-.9-.6-2-1.4-4.9-2.8-7.5-2.8-2,0-3.4.8-4.7,2-.2.1-.3.3-.5.5-.2.2-.5.5-.7.7-.6.7-1.2,1.6-1.4,2.5,0,.2-.1.3-.2.5-2.6-.8-6.2-1.6-8.2.4-3.6,3.7-1.5,9.5.2,13.6,1.5,3.4,3.4,6.5,5.9,9.3.6.7,1.2,1.3,1.9,2,.8.8,1.1,1.2,1.4.2,0-1.5.7-2.9,1.9-4,0,0,.3,0,.4,0,0,0,0,0,0,0,0,0,0,.2.1.2.7,1.5,1.6,3.6,2.8,5.3.1.2.2.5.4.7.4.7.9,1.4,1.5,2,.5.8,1.2,1.5,2,2,.5.3,1.2.7,1.8.9,1.1.2.5-.6.3-1.4-.9-5.8.8-12.1,4.5-16.7.6-.7,1.2-1.4,2-1.7.1,1.3.3,2.7.5,4,1.1,6.1,3.7,11.3,7.9,15.8.3.3.9,0,.9-.4-.2-1.1-.2-2.2-.1-3.3.8-4,1.8-7.9,3.7-11.5,2.3-4.6,6.4-7.9,11.3-9.2,3.8-1.1,12-2,14.7,1.6,1.4,2-1.7,3.3-2.6,4.7-.1.2,0,.4.2.4,2.1,0,5.1-3,6.3-4.5.9-1.2,1.4-2.8,1.2-4.3-.3-1.8-1.9-2.9-3.2-4.1-1.7-1.6-2.2-3.6-3.7-5.3-1.1-1.2-2.8-1.7-4.4-1.2-3.1,1-6.7,1.8-9.9,1.3-.7,0-1.3-.2-1.9-.6-2.3-1.2-1.4-5-.8-7,0-.2.1-.3.2-.5-.3-5.4-.5-10.9.8-16.2.9-3.8,3.1-7.8,4.7-11.8.3,0,.6,0,.9,0,2-1,4.1-2.2,6-3.4,1-.6,2.1-1.7,3.2-2.8,3.4,0,6.7-1.1,10.2-.5.5,0,.9.2,1.4.4.2.3.5.7.7,1,9.2,13.8,18.4,27.7,27.5,41.6,5,7.6,9.9,15.3,15,22.9,4.5,6.8,8.2,14,14.4,19.7,5.1,4.7,14.7,7.5,21.9,5.4.9.7,1.9,1.5,2.9,2.2,0,0,.1,0,.2.1.3.2.5.4.7.5,2.1,1.6,4.4,2.7,6.9,3.5,5.8,1.8,12.2,1.1,17.8-.9.6-.2.9-.6,1-1.1.3.2.7.3,1,.3,4.4,2.4,9.7,3.4,14.5,2.3,2.7-.6,5.3-1.5,5.8-3.5.2-.8,0-1.8-.6-3h-.1ZM211.8,414.3c0-.2,0-.5,0-.7,0-.3,0-.6,0-.9,0-.2,0-.3,0-.5,0-.4,0-.8,0-1.2,0,0,0-.1,0-.2,0-1,.1-2,.2-3h0c.5-4.8,1.4-9.6,2.5-14.1,1.8-7.2,4.5-15.7,11.1-19.9.1,0,.2,0,.1.2-6.4,5.1-9.1,13.8-10.6,21.5-.6,3.1-1,6.3-1.3,9.4h0c-.4,3.8-.6,7.6-.8,11.4,0,0,0,.2,0,.3,0,.4,0,.9,0,1.3,0,.6,0,1.2-.1,1.8,0,.6-1,.6-1.1,0,0-1.2-.1-2.5-.1-3.8v-1.5h0ZM219.5,429.7h0c0-.8-.1-1.5-.2-2.2v-.2c0-.4,0-.8,0-1.2v-1.8c0-.2,0-.4,0-.6.1-2.6.4-5.3.7-7.9,0-.3,0-.5.1-.8,0,0,0,0,0,0,0,.3,0,.6-.1.9-.4,3.5-.7,7.1-.5,10.6,0,.3,0,.6,0,1,0,.1,0,.3,0,.4,0,.3,0,.6,0,.8,0,.2,0,.3,0,.5,0,.2,0,.5,0,.7,0,.1,0,.3,0,.5,0,.3.1.6.1.9,0,.1,0,.3,0,.5,0,.2,0,.4.1.6.2.9.5,1.9.8,2.8,0,.1-.1.2-.2,0,0-.2-.1-.4-.2-.6h0c-.6-1.7-.9-3.4-1.1-5.1h0ZM204.2,438.6c0,.2-.1.4-.2.5-.1.4-.2.7-.3,1h-.2c-.1.5-.3,1.1-.5,1.6.1-.4.2-.9.4-1.3.2-.6.5-1.2.8-1.9h0ZM197.5,441.7c-.4.9-.8,1.8-1.1,2.8-.4,1.1-.9,3.3-.9,5.3,0,0,0,.1,0,.2-2-9.6,2.8-14.8,7.7-20.8-.5.9-.9,1.8-1.4,2.7-1.7,3.1-3.1,6.5-4.2,9.9h0ZM202.6,472.5h0c0,.1,0,.1,0,.2h0s0,0,0,0h0s0,0,0,0h-.2s0,0,0,0c0,0,0,0,0,0,0,0,0,0,0,0,0,0,0,0,0,0,0,0,0,0,0-.1-.1-.5-.2-1.1-.3-1.6,0-.2,0-.4,0-.6,0-.3-.1-.6-.1-1,0-.3,0-.5,0-.8,0-.3,0-.5,0-.8,0-.3,0-.6,0-.8,0-.8-.1-1.5-.1-2.3,0-.6,0-1.2,0-1.8v-.2c0-1.4,0-2.8.1-4.2,0-.1,0-.2,0-.4,0-.6,0-1.2.1-1.8,0-.1,0-.3,0-.4,0-.7.1-1.4.2-2h0c0-.7.2-1.5.3-2.2,0,0,0-.1,0-.2.1-.6.2-1.3.3-1.9,0-.1,0-.3,0-.4.1-.6.2-1.2.3-1.8.2-.8.3-1.6.5-2.4,0,0,0,0-.1.1,0-.2,0-.4.1-.7v.5c.3-1.4.7-2.7,1-4.1,0-.1.3-.1.2,0-2.8,10.4-2.9,20.9-1.9,31.5h0ZM206.9,486.1c-.1-.3-.2-.6-.3-.9,0-.1,0-.2,0-.3,0-.2-.1-.4-.2-.6,0-.1,0-.2-.1-.4,0-.2,0-.4-.1-.5,0-.1,0-.3,0-.4,0-.2,0-.3-.1-.5,0-.1,0-.3,0-.5,0-.1,0-.3,0-.5,0-.2,0-.3,0-.5,0-.1,0-.2,0-.4,0-.5-.1-.9-.2-1.4-.4-3.1-.5-6.2-.6-9.2-.1-5.4,0-10.8.1-16.2,0-.3.5-.3.5,0,0,5.4,0,10.7.3,16.1.2,4.4.9,8.7,1.5,13.1.1.9.2,1.8.4,2.8,0,.4-.6.6-.7.2h0ZM211.4,492.9c-3.4-9.2-4.3-19.9-3.4-29.7,0,0,.1,0,.1,0-.3,5.1,0,10.2.8,15.2.8,4.8,2.1,9.5,3.1,14.2,0,.4-.5.5-.6.2h0ZM218.2,503.1c-1.9-4.5-3.6-9.1-5.2-13.7-1.5-4.1-2.6-8.4-2.6-12.8,0,0,.1,0,.1,0,.2,4.8,1.9,9.4,3.7,13.8,1.7,4,3.9,8.1,4.7,12.4,0,.4-.5.5-.7.2h0ZM225.6,509.2c-4.7-5.2-9.6-12.3-10-19.6,0,0,.1-.1.1,0,.8,7.3,6,13.6,10.3,19.3.2.3-.2.6-.4.3ZM226.7,448c-.2-.6-.4-1.1-.6-1.7,0-.2-.1-.5-.2-.7-.1-.3-.2-.7-.4-1-.1-.3-.2-.6-.3-1,0-.3-.2-.5-.2-.8-.1-.4-.2-.8-.3-1.2,0-.2-.1-.4-.2-.6-.1-.4-.2-.9-.4-1.3,0-.1,0-.3-.1-.4-.1-.5-.2-1-.4-1.5,0,0,0-.2,0-.2-.1-.5-.2-1.1-.4-1.6,0,0,0-.1,0-.1-.1-.6-.2-1.2-.4-1.7,0,0,0,0,0,0-.9-4.4-1.4-8.8-1.1-13.3,0,0,.1,0,.1,0,0,4.1.7,8,1.6,12,0,0,0,0,0,0,.1.6.3,1.2.4,1.8,1.1,4.4,2.8,8.7,3.5,13.2,0,.4-.6.6-.7.2h0ZM232.5,452c0,0-.1,0-.2,0h0c0,0-.1,0-.2,0,0,0,0,0,0,0,0,0,0,0-.1,0,0,0,0,0-.1-.1-.2-.4-.4-.7-.6-1.1,0-.1-.1-.2-.2-.4-.1-.3-.3-.6-.4-.9,0-.1-.1-.2-.2-.4-.2-.4-.3-.7-.5-1.1,0-.1-.1-.3-.2-.4-.1-.3-.2-.5-.3-.8,0-.2-.1-.4-.2-.5,0-.2-.2-.4-.2-.6,0-.2-.2-.4-.2-.6-.4-1-.8-2.1-1.1-3.1h0c0-.3-.2-.5-.3-.8-1.1-3.1-1.7-6.2-1.6-9.4,0,0,.1,0,.1,0,0,.3,0,.6,0,.8,0,0,0,.2,0,.2,0,.2,0,.4,0,.6,0,0,0,.2,0,.3,0,.2,0,.4.1.6,0,0,0,.1,0,.2,0,.3.1.6.2.8,0,0,0,0,0,0,0,.3.1.5.2.8,0,0,0,.1,0,.2,0,.2.1.5.2.7,0,0,0,0,0,.1.4,1.5,1,3,1.6,4.4,0,0,0,0,0,0,.2.4.3.7.5,1.1,1.3,2.9,3.1,5.7,3.8,8.8h0c0,.3-.1.5-.3.5h0ZM247.9,461.8c-1.3-.5-2.6-1.2-3.8-2h0c-.2-.1-.4-.2-.6-.4,0,0-.1,0-.2-.1-.1,0-.2-.2-.4-.3,0,0-.1-.1-.2-.2-.1,0-.2-.2-.3-.3,0,0-.1-.1-.2-.2-.1,0-.2-.2-.3-.3,0,0-.1-.1-.2-.2-.1,0-.2-.2-.3-.3,0,0-.1-.1-.2-.2-.1-.1-.2-.2-.3-.3,0,0-.1-.1-.2-.2-.1-.1-.2-.2-.3-.3,0,0-.1-.1-.1-.2-.1-.2-.3-.3-.4-.5,0,.1,0,.2.1.4,1.4,1.5,2.7,2.9,3.9,4.4.5.7-.4,1.5-1,1-1-.7-1.7-1.6-2.2-2.5-1.2-1.3-2.4-2.6-3.6-4-.3-.4-.7-.8-1-1.2-.2-.2-.4-.5-.5-.7,0,0,0,0,0,0-.4-.5-.7-.9-1.1-1.4,0,0,0,0,0-.1-.1-.2-.3-.4-.4-.6,0,0,0,0,0-.1-.3-.5-.6-1-.9-1.4,0,0,0-.1,0-.2-.1-.2-.2-.4-.3-.6,0,0,0,0,0-.1-.1-.2-.3-.5-.4-.7,0,0,0,0,0,0-.1-.2-.2-.4-.3-.6,0,0,0-.1,0-.2,0-.2-.2-.4-.3-.6,0,0,0-.1,0-.1-.1-.2-.2-.5-.3-.8,0,0,0-.1,0-.2,0-.2-.1-.4-.2-.6,0,0,0-.1,0-.2,0-.2-.1-.5-.2-.7,0,0,0,0,0-.1,0-.3-.1-.5-.1-.8,0,0,0-.1,0-.2,0-.2,0-.4,0-.6,0,0,0-.2,0-.2,0-.3,0-.5,0-.8,0-.3.4-.3.4,0,0,.3,0,.7.1,1,0,0,0,.1,0,.2,0,.3.1.6.2.9,0,0,0,.1,0,.2,0,.3.1.6.2.8,0,0,0,0,0,.1,0,.3.2.5.3.8,0,0,0,.2.1.3.1.2.2.5.3.7s.1.2.1.3c0,.2.2.4.3.5,0,.2.2.3.3.5,0,.1.2.3.2.4s.2.3.2.4c0,.1.1.2.2.3.1.2.3.5.5.7,0,0,0,.1.1.2,1.5,2.2,3.4,4.2,5.2,6.1-.1-.3-.2-.7-.3-1-.1-.4.3-.7.6-.4.2.1.4.3.6.4,0,0,.1.1.2.2.1.1.2.2.3.3,0,0,.2.2.3.3,0,0,.2.1.2.2.8.8,1.6,1.6,2.5,2.2,1.5,1.1,3.1,2.1,4.7,3,.7.4.2,1.4-.5,1.1h0ZM219.8,631.1c-.2-.3-.4-.8-.6-1.2-.2-.6-.3-1.2-.4-1.8.3,0,.6,0,.9,0,1.2.1,2.1.8,3,1.5,1.7,1.5,2.2,3.6,3.1,5.6,0,0,0,0,0,.1,0,1.5,0,2.9.1,4.4-2.2-2.7-4.4-5.6-6.1-8.6h0ZM223.4,627.5c-1.6-.6-3.1-.9-4.8-.8,0-.7-.3-1.2,0-1.9.6-1,2-1.1,3.1-.9.8.2,3.7,1.3,3.9,2.6,0,0,0,0,0,0,.2,1.1.6,2.2,1,3.2-1-.9-2.1-1.7-3.3-2.1h0ZM234.8,637.8c-.2,0-.4,0-.5-.3-.1-.3-.2-.5-.3-.8-.9-1.3-1.8-2.7-2.5-4.1-.2-1.2-.6-2.3-.9-3.5-.5-1.9-2.3-7.1,1.8-7.4.8,0,1.3,0,1.8,0,.4.3.7.6,1.1.8.4.7.4,1.6.6,3.1.4,4.2,0,8.9.1,13.4-.4-.5-.8-.9-1.1-1.4h0ZM247.8,640.4c-.7-.9-1.4-1.9-2-3-.1-.2-.3-.5-.4-.7-1.4-2.5-2.5-5.2-3.1-8.1-.4-1.9-.7-4.1,0-6,.8-2,3,.3,4.1,1.1.5.4,1.2.8,1.6,1.2.4.5.3.8.3,1.3-1.7,2.2-.5,6.9-.1,9.2.4,2,.6,5,1.6,7.3-.7-.8-1.3-1.7-1.9-2.5h0ZM249.4,623.4c-1.7-.8-3.1-2.1-4.8-2.8-.3-.2-.7-.3-1.1-.4.4-.5.8-.9,1.3-1.3,2.1-1.6,3.5.7,4.6,2.1.4.5.7.9,1.1,1.3-.4.3-.8.7-1.1,1.1h0ZM300.4,626.8s0,0,0,0c0,0-.1,0-.1-.2-.3-1.1.2-2.3,1.5-2.5h0c.1,0,.2,0,.4,0h.2c0,1.1.1,2.2.3,3.3-.6-.1-1.2-.2-1.9-.2,0,0,0,0,0-.1-.1,0-.2-.2-.2-.3h0ZM303.9,636.2c-1-1.8-2-3.6-3-5.4-.2-.3-.4-.7-.4-1.1,0-1.2,1.4-.9,2.2-.7.2.9.3,1.9.5,2.8.3,1.3.6,2.6,1,3.9-.2.1-.3.3-.4.5h0ZM311.8,641.6c-1.3-2.9-2.4-5.8-3.2-8.9-.5-1.7-.7-3.4-1-5.2.7.2,1.5.2,2.2.2.9.1,1.8.4,2.5.9,0,.2,0,.3,0,.5,0,3.6.3,8.4-.5,12.4h0ZM313.1,627.1c-.8-.4-1.7-.6-2.6-.8-1-.1-1.7,0-2.7.1-.1,0-.3,0-.4,0,0-.9,0-1.8.1-2.8,1.9,0,6,2.2,5.8,2.8,0,.2-.1.4-.2.6h0ZM315.8,624.2c0,0,0,.2-.1.2-.2.3-.6.3-1,.5,0,0-2.8-1.5-3.2-1.7-1.1-.4-2.3-.7-3.5-.5-.1,0-.3,0-.5.1.1-.8.3-1.6.5-2.4.4-.5.8-1,1.3-1.3,1.2-.8,2.5.2,3.8.6.6.6,1.1,1.3,1.6,2.1.4.6,1.2,1.7.9,2.4h0ZM434.1,592.7c3,1.5,5.6,3.8,8.1,5.9,8.4,9.5,15.5,20.3,23.3,30.3-.1,0-.3-.2-.4-.2-.8-.8-1.5-1.6-2.2-2.4-3.9-4.3-7.9-8.5-11.6-13-3.5-4.2-7.1-8.3-10.8-12.3-2.6-2.9-5.3-6.2-8.3-9,.6.1,1.2.3,1.9.7h0ZM451.2,615.9l-.4-.2-1.9-1.9c.3.2.5.5.8.7.5.5,1,.9,1.5,1.4h0ZM430.4,597.9c-.4-.4-.9-.8-1.3-1.2-2-1.8-4-3.9-6.2-5.8.4.2.8.4,1.3.6,2.1,2.2,4.1,4.3,6.2,6.4ZM381.3,529.2c7.6,7,15.9,13.3,23.9,19.9.7.5,1.4,1.1,2,1.7h0s0,0,.1,0c2.5,2,5.1,4.1,7.6,6.2h0c3.7,3.1,7.4,6.3,10.7,9.8.5.8.9,1.5,1.2,2.4,0,.2.1.4.2.6-3.8-3.3-7.4-6.9-11.2-10.3-.1-.1-.3-.3-.4-.4h0c0,0-.1-.1-.2-.2-1.6-1.4-3.2-2.8-4.8-4.1-.5-.5-1-.9-1.6-1.3-.3-.2-.5-.5-.8-.7h0c-1.4-1.1-2.7-2.3-4.1-3.5-7.8-6.5-15.4-13.1-22.9-20,0,0,0-.2,0,0h0ZM393.9,551.5c5.6,4.5,11.2,8.8,16.8,13.3,2.9,2.3,5.8,4.6,8.7,6.9,2.7,2.1,5.6,4.1,8,6.5.5.5,0,1.2-.7.9-3.1-1.9-6-4.5-8.8-6.7-1.4-1.1-2.7-2.2-4.1-3.3-1.5-1.2-3-2.5-4.6-3.7-2-1.6-3.9-3.2-5.9-4.8-.5-.4-1-.8-1.5-1.2-1.8-1.5-3.7-3.1-5.5-4.6-1.2-1-2.4-2-3.6-3-10.9-9.1-21.7-18.4-32.5-27.7,0,0,0,0,0,0,11.1,9.3,22.4,18.5,33.6,27.5h0ZM391.2,559.8c-1.2-.9-2.3-1.8-3.5-2.7-.2-.2-.5-.4-.7-.6-1-.8-2.1-1.7-3.1-2.5,0,0-.2-.1-.2-.2-1.2-1-2.4-2-3.5-3,0,0,0,0-.1-.1-1.2-1-2.3-2-3.5-3-.3-.2-.5-.5-.8-.7-1.5-1.3-3-2.6-4.5-3.9-1.2-1.1-2.5-2.2-3.7-3.3-3.7-3.3-7.4-6.6-11.1-10-6-5.4-11.7-11.1-16-18,0,0,0,0,0,0,4.7,7.1,10.8,13.1,17.2,18.6,5.6,4.8,11.2,9.6,16.9,14.4h0c.6.5,1.2,1,1.8,1.5,2,1.7,4,3.3,6.1,5,0,0,0,0,.1.1,1.8,1.5,3.7,2.9,5.5,4.3.3.2.5.4.8.6.4.3.8.6,1.2.9.4.3.8.6,1.3.9.4.3.7.5,1.1.8.5.4,1,.8,1.5,1.1.3.2.6.4.9.6.8.6,1.6,1.2,2.5,1.8,7.3,5.1,14.9,9.5,22.6,14,.5.3.2,1.2-.4.9-.9-.4-1.8-.8-2.7-1.3-.2,0-.3-.2-.5-.2-.8-.4-1.5-.8-2.3-1.2-.3-.2-.6-.3-1-.5-.6-.3-1.2-.7-1.9-1-.5-.3-1-.5-1.5-.8l-.4-.2c-1-.6-1.9-1.2-2.9-1.7h0c-5.3-3.2-10.4-6.8-15.3-10.6h0ZM340.3,451.4c.3.2.6.3,1,.3,4.3,3.8,8.6,7.5,12.9,11.2-3.6-1.9-7.3-3.7-11.1-5.4,0,.5,0,.9,0,1.4,7,5.2,13.7,11.1,20.1,17.2-2.5-1.9-5.1-3.8-7.8-5.5-3.1-2-7.6-3.7-9.9-6.7-.5-.9-1-1.8-1.6-2.7-1.2-2.5-2-5.2-3.5-7.5-.1-.2-.2-.4-.3-.6-.4-.9-.9-1.8-1.3-2.7.4.4.9.7,1.3,1.1h0ZM308.4,387c-.3-.3-1,.2-.8.5,1.9,2.4,2.5,5.8,2,8.8-.4-1.1-.8-2.2-1.1-3-.4-1.1-2.1-.3-2,.6.1,1.5.2,3,.1,4.5,0,0,0,0,.1,0-.2,1.1.1,2.3.3,3.4,0,.4.4.6.8.5,0,0,0,.2,0,.3,0,.1-.1.3-.2.4-.4,1-.5,2.1-.5,3.2-.6,0-1.5.5-1.6,1.2-.5,3.2-.2,6.5,1.4,9.4,1.6,2.8,3.5,6.3,6.9,6.7.8.1,1.8-.8,1.8-1.6,0,0,0-.1,0-.2,2,1.5,4.4,2.8,6.5,1.7-1.5-1.5-3.1-2.8-4.9-3.8-.1,0,0-.3,0-.2,3,.9,5.5,2.8,7.7,4.9.2,0,.4,0,.6,0,.9,1,1.6,2.1,2.4,3.2.4.5.9,1.1,1.3,1.6,2.9,3.9,6.7,9.1,6.9,14.1,0,.3-.2.6-.4.7,0,0,0,0-.1,0h0s0,0-.1,0h-.2s0,0,0,0c0,0,0,0,0,0,0,0,0,0,0,0,0,0,0,0,0,0,0,0,0,0,0,0s0,0,0,0c0,0,0,0,0,0,0,0,0,0,0,0,0,0,0,0,0-.1-.3-.6-.6-1.2-.9-1.9,0-.1,0-.2-.1-.3h0c-.8-1.7-1.6-3.3-2.4-5h0c-.7,0-1.3.5-1.4,1.2,0,0,0,.1,0,.2,0,.3.2.5.4.6,0,0,.1,0,.2,0h-.2c.4.7.7,1.2,1.1,1.8-.5,0-1,0-1.5.3-.4.2-.7.4-.8.7-.3-.6-.7-1.1-1-1.6-1.3-2.2-2.8-4.1-4.5-6.1-1.7-2-3.6-3.5-5.5-5.2-.8-.7-2,.3-1.4,1.2,1.7,2.5,3.2,5.1,4.7,7.8-.3-.2-.6-.4-.9-.6-.4-.6-.9-1.3-1.3-1.9-.1-.2-.2-.5-.4-.8-.9-1.5-2.1-2.8-3.4-3.9-1-.8-2.1-1.4-3.2-1.9-1.6-1.1-3.3-2.1-5-3.1-1-.9-1.8-1.8-2.6-2.8-1.3-2.1-2.3-4.5-3.2-6.9.2-.3.4-.6.5-.9.5,2.1,1.6,4,3.7,4.9.5.2,1-.4.9-.8-.4-2.1-1.7-3.7-2.5-5.7-.9-2.2-1.3-5-.8-7.3,0-.4-.5-.3-.6,0-.4,1.2-.8,2.8-.9,4.4-.3-1.5-.6-3-1-4.5.2-.4.3-.8.4-1.2.5-1.8.6-3.5.5-5.1.7.8,2.4.6,3-.2,1.4-1.9.9-3.8.5-6,0-.4-.2-.8-.3-1.2,1-1.9.5-4.2-1.1-5.6h0c-1.2-1.1-2.5-2.2-3.9-3.3,3.2,1.2,6.6,1.8,9.8,3.1,0,.2.1.4.3.6,1.4,1.9,2.6,3.7,2.7,6-1-2.1-2.8-4.1-4.4-5.8h0ZM317.6,501.8c-.3-.4-.7-.8-1-1.1s-.3-.3-.4-.4c-.1-.1-.3-.2-.4-.4-.3-.3-.6-.6-1-.9,0,0,0-.2.1-.1.9.7,1.7,1.5,2.5,2.2.1.2.2.5.3.7h0ZM296.8,355.3c.2,0,.3,0,.5-.1,0,0,0,0,0,0,.1-.1.3-.1.5-.2,0,0,.2,0,.2,0s0,0,0,0c1-.3,2-.6,2.9-1,1.7-.2,3.1-.6,4.8-1.4.6-.3.5-1.1-.2-1-1.2.1-2.4.1-3.5,0-.2-.1-.5-.2-.9-.1-.3,0-.7,0-1,0-.5,0-1,.4-1.3.8,0,0,0,0-.1,0-.5-.4-1.5-.5-2.3.1-.3.2-.6.4-.8.6,0,0-.1,0-.2,0,.1-.1.3-.3.4-.5.2-.2.3-.5.3-.7.2-.3.5-.6.6-.9.3-.9-.6-1.3-1.5-1-.4.1-.9.3-1.3.4-.1,0-.3,0-.4.1,0,0,0,0,0,0-.5.2-.9.5-1,.9,0,0,0,.1-.1.1.1-.7.3-1.4.6-2.1.2-.5.1-.8-.1-1,.4-.3.8-.5,1.2-.8-.2.3-.5.6-.7,1,0,.1,0,.2.2,0,2.1-1.7,3.9-3.6,6.2-5.1,2.4-1.5,5.4-1.9,8.3-1.9.4.1.9.2,1.4.3,11.7-.9,24-2,35.4.8,6.7,1.6,14.3,4.2,18,9.5.6,1,.8,2,1,3-9.9-5.4-24.1-3-35.2-2.5-2.6.1-5.1.3-7.6.5-4.4.8-8.7,1.6-13,2.8-5.9,1.5-11.1,3.9-16.8,5.9-3.5,1.3-7.1,1.8-10.7,2.5.1.2.3.5.5.7,0,0,.1,0,.2.1.2.7.7,1.2,1.4,1.4,1,0,2.1.1,3.2.4.6,0,1.2,0,1.7-.1.3,0,.6.1.9.2.9.2,1.8.5,2.8.6,2.7.8,5.5,1.4,8,2.2,5.6,1.9,11.3,3.4,17.1,4.7,6,1.4,12,2.5,18.1,3.4,3.6.2,7.2.7,10.8,1.2.2,0,.4,0,.6,0,2.5.5,5.1.8,7.7,1.1-5.1,1.4-10,2.1-15.4,2-2.3-.3-4.5-.7-6.8-.8-7.6-.5-15.4-1.7-23-1.5-1.8,0-3.5,0-5-.1-1.2-.3-2.3-.6-3.4-1.2-1.7-.9-2.6-2.7-4.1-3.8-.2-.2-.4-.3-.6-.4-1-1.2-2.2-2.2-3.5-3.1,0,0-.2,0-.3,0-.5,0-1,0-1.5,0-1.2-1-3.2-1.3-4.6-1.5-2-.3-4.5-.7-6.7-.4-.1-.1-.2-.2-.3-.4.1,0,.2-.1.3-.2.2-.1.3-.6,0-.6-.2,0-.4,0-.6.1,0-.1-.1-.3-.2-.4.4-.3.8-.5,1.2-.7,0,0,0,0,0,0-.3,0-.7.1-1,.1.6-.3,1.1-.6,1.5-1.2,0-.1.2-.3,0-.4-.8-.5-1.7-.3-2.6,0-.2-.6-.5-1.2-.7-1.8.3-.2.6-.4.9-.5.3-.1.5-.3.8-.4,0,0,0,.1,0,.2,0-.1,0-.2,0-.3.5-.3,1.1-.6,1.6-.9.6,0,1.2.1,1.8.1,4.2-.9,8.1-2,12.2-3.5,1.1-.7,2.2-1.5,3-2.4.3-.3.3-.6.1-.9h0ZM285.3,545.5s0,0,0,0c0-.2-.2-.3-.2-.4,0,0,0,0,0,0,0-.1-.1-.2-.2-.4-.3-.5-.6-1.1-.9-1.7-.3-.5-.5-1.1-.8-1.6-.2-.3-.3-.7-.5-1h0c-.5-1.2-1-2.3-1.4-3.5-1.9-5.3-3.4-10.8-4-16.4,0,0,.1,0,.1,0,.6,5.3,2.3,10.6,4.3,15.6,1.1,2.8,2.3,5.5,3.9,8.1.2.3.4.5.5.8,0,0,.1.2.2.2.1.2.3.4.4.5.5.6,1,1.2,1.5,1.8.4.5.7,1,1.1,1.5.1.2,0,.5-.3.4-.6-.2-1.1-.6-1.5-1-.3-.3-.5-.5-.8-.9,0,0,0,0,0,0-.2-.3-.5-.6-.7-.9,0,0,0,0,0,0-.1-.2-.2-.3-.3-.5h0c-.1-.2-.2-.3-.3-.5h0ZM285.3,558.9c-.2,0-.5-.2-.7-.3-.4-.2-.7-.5-1-.7.3.2.7.5,1,.7.2.2.5.3.7.3ZM271.9,505c0,0,.1-.1.1,0,0,8.9,1.6,17.5,3.7,26h0s0,0,0,.1c.2,1,.5,1.9.7,2.8h0s0,0,0,.1h0c.1.5.3,1,.4,1.6h0c.1.4.2.8.3,1.1h0s0,0,0,0c.3,1.1.6,2.2.9,3.3,0,.3-.3.5-.5.2-.2-.5-.4-1-.5-1.4-.1-.3-.2-.5-.3-.8-.6-1.6-1.1-3.2-1.5-4.8-2.6-9.2-3.5-18.8-3.6-28.2h0ZM274.1,532.1s0,0,0,0c-.3-.2-.5-.5-.8-.7,0,0,.1,0,.2,0,.2.3.4.6.6.8h0ZM280.9,471.1c-3.5-7.1-5.2-14.8-5.3-22.9,0-2.3.2-4.5.5-6.7.5-1.4,1.1-2.8,1.7-4.2-2,8.8-.3,18.6,2.9,26.7,3.8,9.8,9.4,18.4,17.1,25.4-5.4-3.9-10.2-8.6-14.1-14-1-1.4-2-2.8-2.9-4.3h0ZM269.7,353.6c-.1.5-.1,1.1,0,1.6-.1-.1-.2-.2-.4-.4,0,0-.2,0-.2.1.1.3.3.5.4.8-.1-.1-.2-.3-.3-.4-.3-.3-.7-.3-1-.1-.6-.4-1.3-.8-2-1,1-.5,1.9-1.2,2.7-1.9.7-.6.2-1.3-.5-1.3.1,0,.2-.2.4-.3.2-.1.4-.2.6-.3-.2.5.4.9,1,.5,3.6-2.5,6.9-3.1,10.5-3.7.1,0,.2,0,.4.1,1,.4,1.9.9,2.9,1.2,0,.1.1.2.3.3,0,0,0,0,0,0,0,0,0,.2,0,.3.5.8,1,1.5,1.5,2.3,0,.4.2.6.4.9,0,.4.1.7.2,1.1,0,.6.3.9.8.9,0,.1.2.2.3.3,0,.3.3.5.9.6.5,0,1,.1,1.5,0-.4.4-.7.8-1.1,1.1-2.4-.2-5.3,1-7.2,1.8-.3.1-.7.5-.9.9-.1,0-.2,0-.4,0-.4,0-.9,0-1.3,0-1.2,0-2.2-.3-3.4-.8-2.5-1.2-3.3-3.7-5.4-5-.2-.1-.4,0-.5.2h0ZM271.6,527.2s0,0,0,0c-.5-1.4-.8-2.8-1.6-4,0,0,0,0,0,0,.8,1.2,1.2,2.7,1.6,4.1h0ZM272.3,621.3c2.6.4,5.3.5,8,.7,1.2,0,3.8-.2,4.9.6.5.4.7,1,.2,2-.2.4-.6.8-1,.8-.5,0-1.5-1-2-1.3-1-.4-2.2-.7-3.3-1-2.3-.7-4.6-1.4-7-1.6-5.6-.5-11.2-.7-16.8.2,0,0,0,0,0,0,0-.7-.3-1.3-.6-2-.3-.6-1.6-3.3-1-3.6,1-.7,3.6,1.9,4.1,2.6.7.8,1.7,2.5,3,1.8,1.3-.6.6-2-.1-2.8-.2-.2-1.7-2.3-1.6-2.3h.1s0,0-.1,0c0-.3,0-.7.1-1,.5,0,1,.2,1.4.2.5,0,1.1.2,1.7.3h-.5c1.3,4.5,6.5,5.9,10.6,6.5h0ZM271,596c-1.6,2.6-3.2,5.3-4.2,8.3,0,.2-.1.5-.2.7-.7,2.2-1.3,5.3-.4,7.2,0,0,0,0,0,.1-1.9-.4-4.2-.9-6.1-.6.8-1.7,1.6-3.3,2.4-4.9,5.7-7.9,10.8-16.4,15.1-24.8,0,0,0,0,0,0,1.3.4,2.6.8,3.8,1.5-3.9,3.8-7.6,8-10.5,12.7h0ZM283.4,581.5c-1.5-.9-3.2-1.3-4.9-1,.3-.5.5-1,.8-1.5h7.1c-1,.7-2,1.6-3,2.6h0ZM295.9,566.2c-4.3.6-9.2-1.7-12.9-3.6-4.4-2.3-8.5-5.1-13.1-7,0,0,0-.1,0,0,4.4,1.8,8.5,4,12.8,5.9,2.1.9,4.2,1.8,6.4,2.4,2.2.7,4.5.9,6.8,1.3.6.1.6,1,0,1h0ZM309.8,564.1c-2.8-.9-5.4-3.2-7.6-5.1-2.1-1.9-4.2-3.9-6-6-1.2-1.4-2.4-2.8-3.5-4.3-.5-.7-1.1-1.4-1.6-2.1-.1-.2-.2-.3-.4-.5-.3-.4-.6-.8-.9-1.3-.5-.7-1-1.5-1.6-2.2-.2-.3-.4-.6-.6-.9-.7-1-1.4-2-2.1-3-.3-.4.3-.8.6-.5.4.6.8,1.1,1.2,1.7.1.1.2.3.3.4.3.5.6.9,1,1.4.1.2.2.3.3.4.4.5.8,1,1.1,1.5,0,0,0,.1.1.2.4.5.8,1.1,1.2,1.6,0,0,.1.1.1.2.2.2.4.5.5.7.1.2.3.3.4.5.3.4.6.7.9,1.1,0,0,.1.2.2.2.3.4.7.8,1,1.2,0,0,0,0,0,0h0c.7.8,1.3,1.5,2,2.3,2.1,2.3,4.4,4.6,6.9,6.5,2.2,1.7,4.7,3,6.9,4.8.5.4,0,1.1-.5.9h0ZM316.3,564.8c-3.1-1-5.7-3.2-8.1-5.4-.3-.3,0-.8.4-.5,2.6,1.9,5.3,3.5,8.1,5.1.5.3.2.9-.3.8h0ZM321.7,626.4c-.1,0-.3,0-.5,0-.4,0-.7-.2-.7-.7,0-.8.1-1.6.3-2.4.1-.5.2-1,.4-1.5.1-.5.4-.9.8-1.1.4-.2.8,0,1.1.2-1.1,1.6-1.3,3.5-1.5,5.5h0ZM327.7,638.5c0-.3-.2-.5-.2-.8-.2-.8-.4-1.7-.5-2.6,1.1.4,2.4.6,3.6.5-.6,1.5-1.2,2.8-2.9,2.9h0ZM331.3,633.5c-.7,0-1.4.2-2.1.3-.8.1-1.6.2-2.4.1-.1-1-.2-1.9-.3-2.9.9.2,1.7.2,2.6.2.8,0,1.8.2,2.7.1-.2.7-.3,1.4-.5,2.1h0ZM332.2,629.7c0,0,0,.1,0,.2-.6,0-1.2.2-1.7.3-1.4,0-2.7,0-4,0v-.2c0-1,0-2.1,0-3.1,1.9.7,4.2.6,6.1.2-.1.9-.2,1.8-.4,2.7h0ZM332.9,624.1c0,.1,0,.2,0,.3,0,.3,0,.6,0,.9,0,0,0,.1,0,.2-.8,0-1.6.4-2.3.5-1.4.1-2.8.3-4,0,0-1.1.2-2.3.3-3.4.3-1.7,1-2.9,1.8-4.3.1-.2.3-.3.5-.5.6-.2,1.3-.1,2.1.3,2.2,1,2,4.1,1.8,6.1h0ZM335,613.2c-.9-.2-1.8-.3-2.7-.4-1.4-.3-2.9-.3-4.2,0,.2-.8.4-1.5.7-2.3,1.3-.2,2.6-.4,3.6,0,1,.5,1.8.8,2.8,1,0,.5,0,1-.1,1.5h0ZM331.6,609.2c-.9,0-1.7.2-2.6.3h0c3.2-5.1,5.3-11.4,7-17.6.5,0,1,0,1.5.3.5.3.9.8,1.2,1.3.1.2.2.4.3.6-1.7,5.5-3.1,10.6-3.7,16-1.2-.3-2.4-1-3.6-1h0ZM336.4,590.6c.2-1,.5-1.9.7-2.9.7.2,1.3.5,1.9.9.5.3.9.7,1.4,1-.2.7-.4,1.5-.7,2.2,0,0,0,0,0,0-.6-.7-1.5-1.2-2.1-1.3-.4,0-.8,0-1.1,0h0ZM342.2,620.6c.3,0,.6.2.9.3.7.2,1.6.3,2.4.5.9.2,2,.4,2.9.8.3.2.3.7-.1.7-2,.1-4,0-6,0-1,0-2,.1-3,.3-.4,0-2.8.4-2.9.7,0,0,0-.1.1-.2,0,0,0,0-.1,0,0-1,.4-2.3.9-3.1.5-.7,2.2-.5,3-.4.7,0,1.3.2,1.9.4h0ZM340.9,587.8c-.3-.3-.7-.5-1-.7-.8-.5-1.6-.7-2.4-.7.2-.9.4-1.8.6-2.6,1,0,2.1-.3,3.1-.6,0,.6.2,1.1.6,1.6-.3,1-.6,2-.9,3ZM343,581c-.3-.2-.7-.1-1,0-1.2.4-2.3.7-3.5.9.1-.6.3-1.2.4-1.8.2,0,.4-.2.6-.3.8-.4,1.4-1,1.9-1.7.7.5,1.1,1.3,1.6,2.1,0,.1.2.2.4.2,0,.2-.1.4-.2.6h0ZM362.8,548.5h0c-.8-.7-1.6-1.4-2.4-2.1-1.2-1.1-2.4-2.1-3.6-3.2-1-.9-2-1.8-3-2.6-.3-.3-.7-.6-1-.9-1.1-1-2.3-2-3.4-3,0,0-.2-.2-.3-.2-1-.9-2-1.8-3-2.7-1.5-1.3-3-2.7-4.4-4-.3-.3-.6-.6-1-.9-.5-.5-1-.9-1.5-1.4-.3-.3-.6-.6-1-.9-.5-.5-1.1-1-1.6-1.5-.2-.2-.5-.5-.8-.7-.8-.7-1.5-1.5-2.3-2.2-.2-.2-.4-.4-.6-.6-.6-.6-1.1-1.1-1.7-1.7-.2-.3-.5-.5-.8-.8-.6-.6-1.1-1.2-1.7-1.8-.2-.2-.4-.4-.6-.6-.8-.8-1.5-1.6-2.3-2.4-.1-.1-.2-.2-.3-.3-.6-.7-1.3-1.4-1.9-2.1-.2-.2-.4-.5-.6-.7-.6-.6-1.1-1.3-1.7-1.9-.2-.2-.4-.4-.5-.6-.7-.9-1.5-1.7-2.2-2.6-1.6-1.9-3.1-3.9-4.6-5.8-.7-1-1.4-1.9-2.1-2.9,0,0,0-.1,0,0,0,0,.1.1.1.2h0c.9,1.1,1.8,2.1,2.7,3.2,0,0,0,0,0,0h0c1,1.2,2.1,2.5,3.2,3.7,0,0,.1.1.2.2h0c0,0,.1.1.2.2,8.2,9.4,17.4,18,26.7,26.2,0,0,.2.2.3.2h0s0,0,.1,0c-3.6-3.6-7.2-7.4-10.7-11.2,0,0,0,0,0,0-1.6-1.7-3.1-3.5-4.7-5.3h0c-1.8-2.1-3.6-4.2-5.3-6.3,0,0,0-.1,0,0,1,1.1,2,2.3,2.9,3.4.2.2.4.5.7.8,1,1.1,2,2.2,3,3.3h0c2.7,3,5.5,5.9,8.3,8.8.1.1.3.3.4.4,2.1,2.2,4.3,4.3,6.5,6.5.2.2.4.4.6.6,1.8,1.7,3.6,3.4,5.4,5h0c1.7,1.6,3.5,3.1,5.2,4.7,0,0,0,0,.1,0,.8.7,1.6,1.4,2.4,2.1.1,0,.2.2.3.3.9.8,1.8,1.5,2.7,2.3.9.7,1.8,1.5,2.7,2.2,0,0,.2.1.2.2.8.7,1.7,1.3,2.5,2h0c1.8,1.4,3.6,2.8,5.5,4.2h0c3.4,2.5,6.8,5,10.4,7.4,2.7,1.8,5.4,3.5,8.1,5.1h0c2.6,1.5,5.1,3,7.7,4.5.6.4,1.2.7,1.9,1.1.5.3,1,.6,1.4.8,1.1.7,2.2,1.3,3.3,2,.4.2,0,.8-.4.6-.6-.3-1.3-.6-1.9-.9-.1,0-.3-.1-.5-.2-.6-.3-1.1-.5-1.7-.8,0,0-.1,0-.2,0-1.4-.7-2.7-1.4-4-2.2-5-2.8-9.8-6.1-14.5-9.2-1.8-1.2-3.5-2.4-5.3-3.7,4.9,3.9,10,7.6,15.3,10.9,2.1,1.3,4.2,2.5,6.4,3.6h0c5.5,2.8,11.2,5,17.2,6.5h0s0,0,0,0c.5.1,1.1.3,1.7.4.2,0,.4,0,.5.1.4,0,.9.2,1.3.3.2,0,.4,0,.5.1.6.1,1.2.2,1.8.3.7.1.8,1.3,0,1.3s-.8,0-1.2,0c-.2,0-.3,0-.5,0-.2,0-.4,0-.5,0-.4,0-.8,0-1.2,0-2.6-.3-5.2-.8-7.7-1.6-19.3-5.9-35-19.8-49.9-33h0ZM456.8,663.2c-6.4-3.6-11.2-10.6-15.9-16.2-5.1-6-10.2-12.2-15.2-18.4s-10-12.4-15-18.5c-4-4.9-8.7-9.7-12.6-14.6-.3-.5-.6-.9-1-1.4-1.5-2.2-3.2-4.2-4.9-6.2.1,0,.2,0,.4.1,1.5,1.4,2.9,3,4.2,4.4.8.8,1.7,1.6,2.5,2.5.5.5.9,1.1,1.4,1.6,3.2,3.7,6.5,7.3,9.6,10.9,3.1,3.6,6.3,7.2,9.4,10.8,0-.2-.1-.3-.2-.5.1.2.3.3.4.4,0,0,0,.2,0,.2,0,0,0,0,0,0,3.2,3.7,6.4,7.5,9.5,11.3,6.1,7.4,12.1,15,18,22.6,3.1,4,6.4,8.2,10.5,11.4-.4-.2-.7-.4-1.1-.6h0ZM473.2,652.5c-6.8-6.9-13.6-13.8-20.4-20.6-6.6-6.6-13.2-13.2-19.9-19.7-1.2-1.2-2.3-2.3-3.5-3.5-4.5-5.1-9-10.2-13.5-15.3,1.3.6,2.6,1.2,3.9,1.7,2,.8,4.1,1.9,6.2,2.2.2,0,.4,0,.6-.3.2.2.4.4.6.5,3.5,3.4,7.1,6.6,10.6,9.9,7.1,6.5,14.2,13,21.1,19.7,1.2,1.2,2.4,2.3,3.6,3.5,3.5,3.9,6.9,7.7,10.5,11.5,1.5,1.9,3.1,3.8,4.7,5.5,1.5,1.7,3.1,3.4,4.6,5.2,1.6,1.8,2.8,3.9,4.4,5.7,1,1.3,2.1,2.7,3.3,3.9.7,1,1.5,2,2.2,3-7.9-1.2-13.5-7.5-18.9-13h0Z"/>
    </g>
    <g id="hat">
      <path id="back" class="st8" d="M308.2,328.8c-.3-4.3-.7-10.9-3-14.5-.4-.6-3.4-4-3.9-4.2-3.2-1.5-6.9-2.2-10.4-2.5-1,0-2.2,0-3.2,0-.7-.3-1-1-1.5-1.4-.1-.1-.4-.1-.5-.2-1.5-1.5-2.7-3.5-4.1-5-2.1-2.4-4.8-4.6-7.1-7-1.9-1.9-3.6-4-5.4-5.9-2.4-.9-6.1-1.9-8.3-.3-3.3,2.4-5.6,7.8-8.2,11.2-3.3,4.4-7.5,7.9-11.2,12-2.3,2.5-4.3,5.4-6.5,8-2.4,2.8-3.9,3.5-5.1,7.2-1.2,3.7-1.4,7.1-1.7,10.9-.2,2.6-1.1,5.5-1.2,8.2-.2,3.7.1,8.1.3,11.8.3,7.4.6,14.6,1.8,22,0,.1.5.5,0,.7,0,.2,0,.4,0,.5-.1,1.7-.6,1-1.9,1.3-1.1.2-1.1,1.2-1.4,1.4-.3.1-.6,0-.9,0-.2,0-.2.5-.5.6-.2.1-.8.2-.9.3,0,0-.9,2-.9,2.1-.2.9.1,1.7,0,2.5,0,.2-.3.5-.3.7,0,.2.4.4.6.7.7,1.2-.5,1.5-.6,2.4.2,1.5-.2,7.9.5,8.8.2.2.6.3.7.6.2.4,0,1,.5,1.5.5.7,1.4,1,2,1.6,1.4,1.6,1.3,3.1,3.7,4.1.8.3,1.2-.1,1.9,0,1,.2,3,1.9,4,1.8.3,0,.5-.3.8-.4.9-.2,1.3-.4,2-.5.6-.1,1.3,0,1.9,0,.4,0,1-.8,1.3-.8.5,0,1.2.4,1.9,0,.2-.1.3-.5.5-.6,1.4-.9,3.1-1.5,4.2-2.9.2-.2.2-.8.4-1,.3-.3.8-.1,1.2-.4,0,0,1-.9,1-1,0-.2,0-1.3,0-1.7.2-.9,1.2-2.2,1.2-2.9,0-.4-.2-.8-.2-1.3,0-1.5-.1-3-.4-4.5-.1-.7-.4-2.8-.8-3.2-.2-.2-.5-.2-.8-.5-.4-.5-.8-2.2-1.4-3.1-.3-.5-1.7-2.1-2.2-2.3-1-.4-2.9,0-2.9-1.4.1-.3.6-1.7,0-1.5v-.2h.5c.6-3.1,3.1-6,2.8-9.3-.5-5-1.7-10-2-15,0-1-.8-2.2-.7-3.1,0-.3.3-.6.3-.7,0-.2-.6-.6-.8-1-.1-.5,0-.9,0-1.3.3-.6,1.3-1.3,1.9-1.6.6-.3,1.8-.5,2.1-.7.2-.1.3-.6.5-.9.9-1,1.6-.4,2.5-.7.1,0,1.9-1,1.9-1,.4-.2,1.2-1.3,1.9-1.6.5-.2,1,0,1.4-.2.3,0,.5-.5,1-.6.7-.2,1.5-.1,2.1-.3.4-.1.9-.8,1.2-.8.5-.1,1,.5,1.6-.2.5-.7,1.6-1.2,2.4-1.8.4-.2.8.2.8-.9.5,0,.6.5.9.6.6.3,2-.7,2.7-1,1.2-.4,2.7-.3,3.9-.6.6-.1,1.8-.9,2.4-1,1.2-.3,3,.1,4.3,0l.3-.7c.5,0,1.3-.3,1.7-.3,2.3,0,5.4.8,7.6.5.6,0,1.1-.5,1.8-.5,4.4-.4,10.3,0,14.8.2.9,0,1.8,0,2.6,0-.3-2.3.4-4.8.2-7h0Z"/>
      <g>
        <path class="st10" d="M229.2,378.8c-1.2-7.3-1.6-14.6-1.8-22-.1-3.7-.4-8.1-.3-11.8.1-2.6,1-5.6,1.2-8.2.3-3.8.6-7.2,1.7-10.9s2.7-4.5,5.1-7.2c2.2-2.6,4.2-5.4,6.5-8,3.6-4,7.9-7.6,11.2-12,2.6-3.4,4.9-8.8,8.2-11.2,2.2-1.6,5.9-.5,8.3.3,1.8,2,3.5,4,5.4,5.9,2.2,2.3,4.9,4.6,7.1,7,1.4,1.5,2.6,3.6,4.1,5-.8.4-1.7.5-1.6,1.6l-1.9-.9c-.1,0-.5,1.1-1.5,1.1-.9,0-.7-1.4-2.1-.7-.2.1-.4.6-.8.7-.4-.1-.6-.4-1-.6-1.5-.5-1.1.6-1.8.9-.4.2-.8-.2-.9-.1,0,0,0,.4-.1.5-.2.3-.7.5-.9.9-1,0-1-1.1-2-1.4-.6.3.2,1,0,1.4l-.4.2-1.6-.5c.2,4-2.6,1-4.1,2.2-.3.2-1,.9-1.3,1.1-.5.3-1.5.3-1.6.4-.1,0,0,.5-.3.6-.3.3-1.7,1.1-2.1,1.4-.5.3-1.6,1.1-2,1-.1,0-.3-1-1.1-.4-.5.3-.2.8-.4,1.1l-.2.2c-1.4-.5-2.8-.2-4.1.4.1,2-.6,1.4-1.7,2.3-1.9,1.5-2.1,3-3,4.9s-2.4,4.2-2.6,6.3c-.4,3.4-.6,6.5-.8,9.8s-.6,6.4-.2,9.7c0,.4,0,.8,0,1.3.1.4.8.8.8,1,0,.1-.3.5-.3.7-.1.9.6,2.1.7,3.1.4,5,1.5,10,2,15,.3,3.3-2.1,6.2-2.8,9.3h-.5v.2c.6-.3.1,1.1,0,1.5-.6,1.2-2.8-.1-3.1.2v.9c-1.7,0-3.6.5-5.2-.3-.4-.2-.4-.6-.8-.9-.4-.2-2.2-.9-2.6-.8-.6,0-1.6,1-2.3,0-.2-.4,0-.9-.5-.8,0-.2,0-.4,0-.5.5-.2,0-.6,0-.7h0Z"/>
        <path class="st7" d="M309.1,332.1c0-1.1.2-2.3.1-3.4v-.7c-.4-4.5-.8-10.6-3.2-14.3-.3-.5-3.5-4.2-4.3-4.6-2.8-1.4-6.2-2.2-10.7-2.6-.5,0-1,0-1.5,0,0,0-1.4,0-1.6,0-.2-.1-.3-.3-.5-.5-.2-.2-.3-.4-.5-.6-.3-.3-.7-.4-1-.4h-.3s-.3,0-.3,0c-.1,0-.2,0-.3.1-.4.2-1.1.5-1.5,1l-1.2-.6h-.3c-.4.2-.6.5-.7.7,0,.1-.2.4-.4.5,0,0,0,0,0,0-.2-.3-.7-.8-1.5-.8s-.7,0-1.1.3c-.2,0-.4.2-.5.4-.2-.1-.3-.2-.6-.3-.4-.1-.7-.2-1-.2-1,0-1.4.7-1.6,1-.1,0-.3,0-.5,0h-.4s-.3.3-.3.3l-.3.4v.3s-.2.1-.2.2c0,0,0,0,0,0-.3-.3-.7-.9-1.4-1.1h-.4c0-.1-.4,0-.4,0-.3.2-.7.5-.7,1.1l-1.7-.6v1.4c.1.8,0,1.1,0,1.1s0,0,0,0c-.2,0-.5,0-.7-.1-.4,0-.8-.2-1.3-.2-.6,0-1.2.2-1.6.5-.1,0-.2.2-.4.4-.2.2-.6.6-.7.6-.1,0-.6.1-.8.2-.4,0-.6,0-.9.2-.4.2-.5.6-.5.9-.3.2-1.1.7-1.5.9l-.4.2c0,0-.2.1-.3.2-.2.1-.5.3-.8.5-.3-.3-.6-.4-1-.4s-.7.1-1.1.4c-.3.3-.5.6-.6.9-.3,0-.5,0-.8,0-.9,0-1.9.2-3.1.7l-.7.3v.7c0,.4,0,.6,0,.7,0,0-.1,0-.2,0-.3.1-.7.3-1.1.6-1.7,1.3-2.2,2.7-2.8,4.1-.2.4-.3.8-.5,1.2-.2.5-.5,1.1-.8,1.6-.8,1.6-1.7,3.2-1.9,4.9-.3,2.3-.5,4.6-.6,6.8,0,1-.1,2.1-.2,3.1v.9c-.3,2.9-.6,6-.2,9,.4.4.7.8,1.1,1.2.3-.3.6-.6.8-.9.1-.2.9-.8,1.5-1.1.2-.1.7-.2,1-.3.5-.1.9-.2,1.1-.4.4-.2.5-.6.7-.9,0,0,0-.2,0-.2.2-.3.3-.3.6-.3h.3c.3,0,.7,0,1.1-.2.2,0,2.1-1.1,2.1-1.1.2-.1.5-.4.8-.7.3-.3.7-.8,1-.9,0,0,.2,0,.3,0h.2c.2,0,.5,0,.8,0,.3,0,.5-.3.7-.4.1-.1.2-.2.3-.2.2,0,.6,0,.9-.1.4,0,.7,0,1.1-.1.5-.1.8-.5,1.1-.7,0,0,0,0,0,0h0c.2,0,.4,0,.6,0,.4,0,.9-.1,1.4-.7.3-.4,1.1-.9,1.7-1.3l.3-.2c.3,0,.6-.1.8-.3,0,0,0,0,0,0,.2,0,.4.1.7.1.7,0,1.3-.4,2-.7.3-.1.6-.3.7-.3.6-.2,1.3-.2,1.9-.3.7,0,1.3-.2,1.9-.3.4,0,.8-.3,1.3-.5.4-.2.9-.4,1.1-.5.2,0,.5,0,.9,0s.8,0,1.2,0c.4,0,.9,0,1.3,0s.5,0,.8,0h.6c0,0,.3-.7.3-.7.2,0,.3,0,.4,0,.2,0,.5-.1.6-.1h.1c.9,0,2,.1,3.1.3,1.1.2,2.3.3,3.4.3s.8,0,1.1,0c.4,0,.8-.2,1-.3.3-.1.5-.2.7-.2,1.2-.1,2.6-.2,4.2-.2,2.4,0,4.9.1,7.3.2,1.1,0,2.2.1,3.2.1.2,0,.4,0,.7,0s.5,0,.8,0c.2,0,.5,0,.7,0s.3,0,.5,0h1.2s-.1-1.1-.1-1.1c-.1-1.1,0-2.3,0-3.5ZM308.1,332c-.1,1.3-.2,2.5,0,3.7-.2,0-.3,0-.5,0-.2,0-.5,0-.7,0-.3,0-.6,0-.8,0s-.4,0-.6,0c-1,0-2.1,0-3.2-.1-2.4-.1-4.9-.2-7.3-.2s-3.1,0-4.3.2c-.4,0-.7.2-1,.3-.3.1-.5.2-.8.3-.3,0-.6,0-1,0-1,0-2.1-.2-3.2-.3-1.1-.1-2.2-.3-3.2-.3h-.1c-.2,0-.5,0-.8.1-.1,0-.3,0-.4,0h-.5c0,0-.3.7-.3.7-.2,0-.4,0-.7,0-.4,0-.8,0-1.2,0-.4,0-.8,0-1.3,0s-.8,0-1.1,0c-.3,0-.8.3-1.3.5-.4.2-.8.4-1.1.5-.5.1-1.2.2-1.8.3-.7,0-1.5.2-2.1.4-.2,0-.5.2-.9.4-.6.3-1.1.6-1.5.6s-.2,0-.3,0l-.6-.2-.5.4c0,0-.2,0-.3,0h-.2s-.5.3-.5.3c-.7.4-1.5.9-2,1.5-.2.2-.4.3-.6.3s-.3,0-.4,0h-.5c0-.1-.4.2-.4.2h0c-.2.3-.5.5-.7.6-.3,0-.6,0-.9.1-.4,0-.8,0-1.2.2-.3,0-.5.3-.6.4-.1.1-.2.2-.4.2-.2,0-.3,0-.5,0h-.2c-.2,0-.5,0-.7.1-.4.2-.8.5-1.4,1.1-.2.2-.4.4-.5.5-.2.1-1.7.9-2,1-.3,0-.6.1-.8.1h-.3c-.5,0-.9,0-1.4.6h0c0,0,0,.1,0,.1,0,0,0,.2-.1.3-.1.3-.2.4-.3.5-.1,0-.4.2-.8.3-.5.1-.9.2-1.2.4-.5.2-1.6,1-1.9,1.6h0c-.4-2.9-.2-5.9,0-8.8v-.9c.2-1,.2-2,.3-3,.2-2.3.3-4.5.6-6.8.2-1.5,1-3.1,1.8-4.6.3-.6.6-1.1.8-1.7.2-.4.4-.8.5-1.2.6-1.4,1.1-2.6,2.5-3.7.3-.3.6-.4.9-.5.1,0,.2,0,.3-.1l.4-.2v-.5c.1-.2.1-.5.1-.9,1-.4,1.9-.6,2.7-.6s.5,0,.7,0h.9c0,.1.2-.7.2-.7,0-.1.1-.2.2-.3.1,0,.3-.2.5-.2s.2,0,.3.1l.5.5.7-.4c.3-.2.6-.4.8-.5.1,0,.2-.2.3-.2l.4-.2c.5-.3,1.2-.7,1.5-1l.3-.2v-.4c.1-.1.1-.2.2-.2,0,0,.3,0,.5,0,.6,0,.9-.2,1.2-.3.2-.1.4-.3.9-.8.1-.1.3-.2.4-.3.3-.2.6-.3,1-.3s.7,0,1.1.1c0,0,.1,0,.2,0h0c0,.1,1.2.1,1.2.1l.3-.3c.2-.2.4-.6.4-1.8l1.6.5v-1.3c0,0,0-.2.3-.3.5.1.7.4.9.7l.6.8.8-.6.5-.4v-.5c0,0,0,0,0,0h0s0,0,.1,0l.8.3.4-.7c.2-.3.3-.5.7-.5s.4,0,.6.1c.1,0,.2,0,.3.2l.7.5.6-.7c0,0,0,0,.1-.1.3-.1.5-.2.7-.2.3,0,.5.2.7.5l.5.7.8-.4c.3-.2.6-.5.8-.8,0,0,0-.1.1-.2l1.6.8.5-.7c.2-.3.7-.5,1.1-.7.1,0,.2-.1.3-.2.2,0,.4,0,.5.2.2.2.3.3.4.5.2.3.4.5.7.7l.3.2h.5s1.4,0,1.4,0c.5,0,1,0,1.4,0,4.4.4,7.7,1.2,10.3,2.5.6.4,3.5,3.6,3.9,4.2,2.2,3.5,2.6,9.5,3,13.8v.7c.1,1,0,2.2,0,3.2Z"/>
        <path class="st6" d="M243.6,349.9c-.4-3-.2-5.9,0-8.8v-.9c.2-1,.2-2,.3-3,.2-2.3.3-4.5.6-6.8.2-1.5,1-3.1,1.8-4.6.3-.6.6-1.1.8-1.7.2-.4.4-.8.5-1.2.6-1.4,1.1-2.6,2.5-3.7.3-.3.6-.4.9-.5.1,0,.2,0,.3-.1l.4-.2v-.5c.1-.2.1-.5.1-.9,1-.4,1.9-.6,2.7-.6s.5,0,.7,0h.9c0,.1.2-.7.2-.7,0-.1.1-.2.2-.3.1,0,.3-.2.5-.2s.2,0,.3.1l.5.5.7-.4c.3-.2.6-.4.8-.5.1,0,.2-.2.3-.2l.4-.2c.5-.3,1.2-.7,1.5-1l.3-.2v-.4c.1-.1.1-.2.2-.2,0,0,.3,0,.5,0,.6,0,.9-.2,1.2-.3.2-.1.4-.3.9-.8.1-.1.3-.2.4-.3.3-.2.6-.3,1-.3s.7,0,1.1.1c0,0,.1,0,.2,0h0c0,.1,1.2.1,1.2.1l.3-.3c.2-.2.4-.6.4-1.8l1.6.5v-1.3c0,0,0-.2.3-.3.5.1.7.4.9.7l.6.8.8-.6.5-.4v-.5c0,0,0,0,0,0h0s0,0,.1,0l.8.3.4-.7c.2-.3.3-.5.7-.5s.4,0,.6.1c.1,0,.2,0,.3.2l.7.5.6-.7c0,0,0,0,.1-.1.3-.1.5-.2.7-.2.3,0,.5.2.7.5l.5.7.8-.4c.3-.2.6-.5.8-.8,0,0,0-.1.1-.2l1.6.8.5-.7c.2-.3.7-.5,1.1-.7.1,0,.2-.1.3-.2.2,0,.4,0,.5.2.2.2.3.3.4.5.2.3.4.5.7.7l.3.2h.5s1.4,0,1.4,0c.5,0,1,0,1.4,0,4.4.4,7.7,1.2,10.3,2.5.6.4,3.5,3.6,3.9,4.2,2.2,3.5,2.6,9.5,3,13.8v.7c.1,1,0,2.2,0,3.2-.1,1.3-.2,2.5,0,3.7h0c-.2,0-.3,0-.5,0-.2,0-.5,0-.7,0-.3,0-.6,0-.8,0s-.4,0-.6,0c-1,0-2.1,0-3.2-.1-2.4-.1-4.9-.2-7.3-.2s-3.1,0-4.3.2c-.4,0-.7.2-1,.3-.3.1-.5.2-.8.3-.3,0-.6,0-1,0-1,0-2.1-.2-3.2-.3-1.1-.1-2.2-.3-3.2-.3h-.1c-.2,0-.5,0-.8.1-.1,0-.3,0-.4,0h-.5c0,0-.3.7-.3.7-.2,0-.4,0-.7,0-.4,0-.8,0-1.2,0-.4,0-.8,0-1.3,0s-.8,0-1.1,0c-.3,0-.8.3-1.3.5-.4.2-.8.4-1.1.5-.5.1-1.2.2-1.8.3-.7,0-1.5.2-2.1.4-.2,0-.5.2-.9.4-.6.3-1.1.6-1.5.6s-.2,0-.3,0l-.6-.2-.5.4c0,0-.2,0-.3,0h-.2s-.5.3-.5.3c-.7.4-1.5.9-2,1.5-.2.2-.4.3-.6.3s-.3,0-.4,0h-.5c0-.1-.4.2-.4.2h0c-.2.3-.5.5-.7.6-.3,0-.6,0-.9.1-.4,0-.8,0-1.2.2-.3,0-.5.3-.6.4-.1.1-.2.2-.4.2-.2,0-.3,0-.5,0h-.2c-.2,0-.5,0-.7.1-.4.2-.8.5-1.4,1.1-.2.2-.4.4-.5.5-.2.1-1.7.9-2,1-.3,0-.6.1-.8.1h-.3c-.5,0-.9,0-1.4.6h0c0,0,0,.1,0,.1,0,0,0,.2-.1.3-.1.3-.2.4-.3.5-.1,0-.4.2-.8.3-.5.1-.9.2-1.2.4-.5.2-1.6,1-1.9,1.6h0Z"/>
        <path class="st6" d="M229.2,380.1c.6-.1.3.5.5.8.6,1,1.6.1,2.3,0,.4,0,2.2.6,2.6.8s.4.7.8.9c1.6.9,3.5.2,5.2.3v-.9c.3-.3,2.5,1,3.1-.2,0,1.3,1.9,1,2.9,1.4.5.2,1.9,1.8,2.2,2.3.6.9,1,2.6,1.4,3.1.3.3.6.3.8.5.4.4.7,2.5.8,3.2.3,1.5.3,3,.4,4.5,0,.5.2.9.2,1.3,0,.7-1,2.1-1.2,2.9-.1.5,0,1.5,0,1.7,0,0-.9,1-1,1-.4.2-.9.1-1.2.4-.2.2-.3.7-.4,1-1.1,1.4-2.7,2-4.2,2.9-.2.1-.3.5-.5.6-.7.4-1.4,0-1.9,0-.3,0-1,.7-1.3.8-.6.2-1.3,0-1.9,0-.7.2-1.1.3-2,.5-.3,0-.5.3-.8.4-1,.2-3-1.5-4-1.8-.7-.2-1.1.3-1.9,0-2.4-.9-2.3-2.5-3.7-4.1-.5-.6-1.5-1-2-1.6-.4-.5-.3-1.1-.5-1.5-.1-.3-.5-.3-.7-.6-.6-.9-.3-7.3-.5-8.8.1-.9,1.3-1.2.6-2.4-.1-.2-.6-.5-.6-.7,0-.2.3-.5.3-.7,0-.8-.3-1.5,0-2.5,0-.1.8-2,.9-2.1,0-.1.6-.2.9-.3.3-.2.3-.6.5-.6.3,0,.7.1.9,0,.3-.2.4-1.1,1.4-1.4,1.3-.3,1.8.4,1.9-1.3h0Z"/>
        <path class="st5" d="M235.5,409.5c-.4,0-1.2-.6-1.8-.9-.7-.4-1.3-.7-1.8-.9-.2,0-.4,0-.6,0s-.5,0-.7,0c-.1,0-.2,0-.3,0s-.1,0-.2,0c-1.2-.5-1.6-1.1-2.1-2.1-.3-.5-.6-1.1-1.2-1.8-.3-.4-.7-.6-1.1-.9-.3-.2-.7-.5-.8-.7,0-.1-.1-.3-.2-.5,0-.2,0-.6-.3-.9-.2-.4-.6-.6-.8-.7,0,0,0,0,0,0-.2-.6-.2-3.5-.2-5,0-1.3,0-2.4,0-3,0,0,.1-.2.2-.3.3-.4,1-1.3.3-2.7,0-.1-.2-.3-.3-.4,0-.1.1-.3.1-.5,0-.4,0-.7,0-1.1,0-.4-.1-.8,0-1.1,0-.2.4-1.1.7-1.6.2,0,.5-.1.7-.3.2-.1.4-.3.5-.5,0,0,.1,0,.2,0,.3,0,.5,0,.8-.2.4-.2.5-.5.7-.8.2-.3.2-.4.5-.5.3,0,.5,0,.7,0,.5,0,.9,0,1.2-.3.3.2.7.4,1.1.4s.9-.2,1.2-.3c.1,0,.3-.1.3-.1.3,0,1.7.6,2,.7,0,0,0,0,0,.1.1.2.3.5.7.8.7.4,1.6.6,2.6.6s1,0,1.5,0c.4,0,.9,0,1.3,0s.2,0,.2,0h1s0-.7,0-.7c.3,0,.7.2,1.1.2s.4,0,.6,0c.6.5,1.5.6,2,.7.3,0,.7,0,.9.2.3.2,1.5,1.5,1.8,1.9.3.4.5,1,.7,1.6.2.7.5,1.2.8,1.6.3.3.6.5.8.6,0,.2.2.8.5,2.5.3,1.5.3,2.9.4,4.5,0,.3,0,.6.1.9,0,.1,0,.3,0,.3,0,.2-.3.8-.5,1.1-.3.5-.6,1.1-.7,1.6,0,.4,0,.9,0,1.4,0,0,0,.1,0,.2-.2.2-.4.4-.6.6,0,0,0,0,0,0,0,0-.1,0-.2,0-.3,0-.8.1-1.2.5-.3.3-.4.6-.5.9,0,0,0,.2,0,.2-.6.8-1.6,1.4-2.7,2-.4.2-.8.5-1.2.7-.3.2-.5.5-.6.6,0,0,0,0-.1,0-.2,0-.3,0-.4,0-.2,0-.4,0-.6,0s-.2,0-.3,0c-.4,0-.7.3-1.1.6-.1,0-.3.2-.4.3,0,0-.1,0-.3,0s-.2,0-.4,0c-.2,0-.3,0-.5,0-.3,0-.5,0-.7,0-.3,0-.5.1-.8.2-.3,0-.7.2-1.2.3-.3,0-.6.2-.7.3,0,0,0,0,0,0Z"/>
      </g>
    </g>
  </g>
  <g id="Layer_2">
    <text class="st3" transform="translate(437.1 455.6)"><tspan x="0" y="0">S</tspan></text>
    <text class="st0" transform="translate(333 414.6)"><tspan x="0" y="0">S</tspan></text>
    <text class="st0" transform="translate(350.4 416.4) rotate(-1)"><tspan x="0" y="0">A</tspan></text>
    <text class="st0" transform="translate(375.1 415.1) rotate(-2)"><tspan x="0" y="0">N</tspan></text>
    <text class="st0" transform="translate(399.9 416.4)"><tspan x="0" y="0">T</tspan></text>
    <text class="st0" transform="translate(416.6 419.5) rotate(1)"><tspan x="0" y="0">A</tspan></text>
    <text class="st1" transform="translate(358.6 458.1) rotate(-3.5)"><tspan x="0" y="0">C</tspan></text>
    <text class="st4" transform="translate(381.6 460)"><tspan x="0" y="0">A</tspan></text>
    <text class="st2" transform="translate(404.9 458.1) rotate(-5.5)"><tspan x="0" y="0">W</tspan></text>
  </g>
  <g id="Layer_3">
    <path id="outline" class="st11" d="M284.5,663.7c148.3.1,199.4,38.7,223.9,7.1,9.2-12,6.6-23.5-7.6-96.7-31.7-163.5-30.3-168.3-42.2-192.3-15.3-30.8-53.1-106.9-123.1-120.1-8.2-1.6-36.9-6.6-66.1,7.1-31.5,14.8-45.3,42.6-63.6,79.4-18.4,37-33.3,67.1-32.6,107.4,1,54.7,29.5,61.3,29,122.1-.3,35.6-10.3,50.5,1,66.7,14.8,21.2,48.5,19.3,81.4,19.3Z"/>
  </g>
</svg>