<?xml version="1.0" encoding="UTF-8" standalone="no"?>
<svg
   xmlns:dc="http://purl.org/dc/elements/1.1/"
   xmlns:cc="http://creativecommons.org/ns#"
   xmlns:rdf="http://www.w3.org/1999/02/22-rdf-syntax-ns#"
   xmlns:svg="http://www.w3.org/2000/svg"
   xmlns="http://www.w3.org/2000/svg"
   xmlns:sodipodi="http://sodipodi.sourceforge.net/DTD/sodipodi-0.dtd"
   xmlns:inkscape="http://www.inkscape.org/namespaces/inkscape"
   inkscape:version="1.0 (4035a4fb49, 2020-05-01)"
   sodipodi:docname="santa-caws-footprint-inkscape.svg"
   viewBox="0 0 595.3 841.9"
   version="1.1"
   id="Layer_1">
  <metadata
     id="metadata151">
    <rdf:RDF>
      <cc:Work
         rdf:about="">
        <dc:format>image/svg+xml</dc:format>
        <dc:type
           rdf:resource="http://purl.org/dc/dcmitype/StillImage" />
        <dc:title />
      </cc:Work>
    </rdf:RDF>
  </metadata>
  <sodipodi:namedview
     inkscape:current-layer="layer5"
     inkscape:window-maximized="1"
     inkscape:window-y="-6"
     inkscape:window-x="3833"
     inkscape:cy="424.84555"
     inkscape:cx="219.18259"
     inkscape:zoom="4.0859958"
     showgrid="false"
     id="namedview149"
     inkscape:window-height="1388"
     inkscape:window-width="3440"
     inkscape:pageshadow="2"
     inkscape:pageopacity="0"
     guidetolerance="10"
     gridtolerance="10"
     objecttolerance="10"
     borderopacity="1"
     bordercolor="#666666"
     pagecolor="#ffffff"
     inkscape:document-rotation="0" />
  <!-- Generator: Adobe Illustrator 29.1.0, SVG Export Plug-In . SVG Version: 2.1.0 Build 142)  -->
  <defs
     id="defs4">
    <style
       id="style2">
      .st0 {
        fill: #fee92a;
      }

      .st1 {
        fill: #fff;
      }

      .st2 {
        fill: #ff73c0;
      }

      .st3, .st4 {
        fill: #231f20;
      }

      .st3, .st5, .st6 {
        display: none;
      }

      .st7 {
        fill: #c49a6c;
      }

      .st8 {
        fill: #6adbc6;
      }

      .st5 {
        fill: #721f37;
      }

      .st9 {
        fill: #eab41c;
      }

      .st10 {
        fill: none;
        stroke: #231f20;
        stroke-miterlimit: 10;
      }

      .st11 {
        fill: #6fbe44;
      }

      .st12 {
        fill: #ffe54d;
      }
    </style>
    <clipPath
       clipPathUnits="userSpaceOnUse"
       id="clipPath932">
      <path
         id="path934"
         class="st10"
         d="m 351.2,670.3 c 99.8,2.7 137.5,24.2 157.2,0.5 12.3,-14.8 4.7,-33.1 -7.6,-96.7 C 469.1,410.6 470.5,405.8 458.6,381.8 443.3,351 405.5,274.9 335.5,261.7 c -8.2,-1.6 -36.9,-6.6 -66.1,7.1 -31.5,14.8 -45.3,42.6 -63.6,79.4 -18.4,37 -33.3,67.1 -32.6,107.4 0.9,52.6 24.8,58.2 29,122.1 3.3,50.9 -11.3,63.5 1.5,80.9 18.4,25.1 56.8,9.2 147.5,11.7 z"
         inkscape:label="outline cpy" />
    </clipPath>
  </defs>
  <g
     inkscape:label="Edge.Cuts"
     id="layer4"
     inkscape:groupmode="layer"
     style="display:inline">
    <path
       d="m 351.2,670.3 c 99.8,2.7 137.5,24.2 157.2,0.5 12.3,-14.8 4.7,-33.1 -7.6,-96.7 C 469.1,410.6 470.5,405.8 458.6,381.8 443.3,351 405.5,274.9 335.5,261.7 c -8.2,-1.6 -36.9,-6.6 -66.1,7.1 -31.5,14.8 -45.3,42.6 -63.6,79.4 -18.4,37 -33.3,67.1 -32.6,107.4 0.9,52.6 24.8,58.2 29,122.1 3.3,50.9 -11.3,63.5 1.5,80.9 18.4,25.1 56.8,9.2 147.5,11.7 z"
       class="st10"
       id="outline" />
  </g>
  <g
     inkscape:groupmode="layer"
     id="layer5"
     inkscape:label="B.SilkS">
    <path
       id="outline-7"
       class="st10"
       d="m 351.2,670.3 c 99.8,2.7 137.5,24.2 157.2,0.5 12.3,-14.8 4.7,-33.1 -7.6,-96.7 C 469.1,410.6 470.5,405.8 458.6,381.8 443.3,351 405.5,274.9 335.5,261.7 c -8.2,-1.6 -36.9,-6.6 -66.1,7.1 -31.5,14.8 -45.3,42.6 -63.6,79.4 -18.4,37 -33.3,67.1 -32.6,107.4 0.9,52.6 24.8,58.2 29,122.1 3.3,50.9 -11.3,63.5 1.5,80.9 18.4,25.1 56.8,9.2 147.5,11.7 z"
       style="display:inline;fill:none;stroke:#bb1f20;stroke-width:9.6;stroke-miterlimit:10;stroke-dasharray:none;stroke-opacity:1"
       inkscape:label="inside border"
       clip-path="url(#clipPath932)" />
    <g
       style="font-style:normal;font-variant:normal;font-weight:normal;font-stretch:normal;font-size:54.6366px;line-height:1.25;font-family:'Footlight MT Light';-inkscape-font-specification:'Footlight MT Light, ';fill:#009400;fill-opacity:1;stroke:none;stroke-width:1.18569"
       id="text930"
       transform="matrix(-1,0,0,1,189.69871,-27.82307)"
       aria-label="CAW
CAW">
      <path
         id="path935"
         style="font-size:54.6366px;fill:#009400;fill-opacity:1;stroke-width:1.18569"
         d="m -133.86453,402.87539 q -7.93181,7.85174 -14.87802,8.33435 -5.66876,0.39385 -10.49266,-3.60325 -4.79915,-4.02557 -5.32613,-11.61053 -0.36797,-5.29616 1.68374,-9.63726 2.05172,-4.34109 6.1387,-7.48648 4.1136,-3.14722 10.15496,-3.56696 5.26954,-0.36612 10.06822,0.9585 l 0.55842,8.03739 -1.88958,0.13129 q -0.60855,-3.75513 -3.73538,-5.65054 -3.12868,-1.92201 -7.25383,-1.63541 -5.77521,0.40125 -8.78133,4.86215 -3.00611,4.46088 -2.57898,10.60869 0.46227,6.65347 4.51992,10.78404 4.05765,4.13056 9.93932,3.72192 5.88166,-0.40865 11.75983,-5.87134 z" />
      <path
         id="path937"
         style="font-size:54.6366px;fill:#009400;fill-opacity:1;stroke-width:1.18569"
         d="m -113.09281,378.30744 1.55611,0.2367 5.2366,28.37507 q 0.57126,3.16317 1.49164,5.27307 0.95076,2.08753 2.70583,2.43544 l -0.19256,1.26598 -9.4685,-1.44022 0.19256,-1.26599 0.60661,0.0923 q 0.44838,0.0682 0.58076,-0.80216 0.0401,-0.26374 -0.0172,-0.59629 l -1.76886,-9.65979 -11.52573,-1.75315 q -2.59813,4.83987 -2.97925,7.34547 -0.20059,1.31873 0.51503,2.29109 0.74198,0.97638 2.13984,1.189 l 1.39785,0.21263 -0.19256,1.26599 -11.81585,-1.79728 0.19257,-1.26598 q 2.97802,0.29106 6.33924,-5.48515 z m -2.07851,7.45549 -7.67293,13.18886 10.33886,1.57261 z" />
      <path
         id="path939"
         style="font-size:54.6366px;fill:#009400;fill-opacity:1;stroke-width:1.18569"
         d="m -101.35215,377.26946 9.253477,1.03014 -0.14168,1.27268 q -0.983981,-0.0827 -1.078433,0.76576 -0.02657,0.23863 0.04702,0.54209 l 5.636342,25.80604 5.66758,-10.64305 q 2.478648,-4.66315 2.968626,-9.06451 0.625755,-5.62102 -3.802071,-6.35554 l 0.14168,-1.27267 9.386039,1.04489 -0.14168,1.27268 q -1.143066,-0.10039 -1.234565,0.72153 -0.02657,0.23863 0.04407,0.56861 l 5.742399,25.81784 6.934921,-13.10572 q 3.194836,-6.03293 3.492955,-8.71086 0.230231,-2.06812 -0.6711,-2.89322 -0.871866,-0.84865 -3.225729,-1.16438 l 0.14168,-1.27268 11.931406,1.32825 -0.14168,1.27268 q -1.567293,-0.14761 -3.149698,1.52837 -1.582405,1.67599 -3.477486,5.19618 l -13.557369,25.33356 -1.590854,-0.1771 -5.194963,-23.26051 q -3.082522,4.30065 -5.154448,8.20378 l -6.937871,13.13224 -1.537826,-0.1712 -6.001333,-27.34987 q -0.147178,-0.60692 -1.018636,-3.38822 -0.868508,-2.80781 -1.71091,-3.68003 -0.815883,-0.86927 -1.761543,-1.05508 z" />
      <path
         id="path941"
         style="font-size:54.6366px;fill:#009400;fill-opacity:1;stroke-width:1.18569"
         d="m -102.62283,458.24861 q -7.33812,8.40924 -14.23065,9.3971 -5.62494,0.80618 -10.72748,-2.82851 -5.07992,-3.66489 -6.15862,-11.19122 -0.75319,-5.25523 0.97649,-9.73439 1.7297,-4.47915 5.57643,-7.91418 3.87314,-3.43883 9.86781,-4.298 5.22881,-0.74941 10.11131,0.22175 l 1.14304,7.97527 -1.87498,0.26873 q -0.88077,-3.70076 -4.13748,-5.3631 -3.26051,-1.68875 -7.35378,-1.10209 -5.73057,0.82132 -8.40339,5.48955 -2.67282,4.66822 -1.7985,10.76852 0.94622,6.60205 5.29428,10.42572 4.34805,3.82368 10.18427,2.98721 5.8362,-0.83646 11.30037,-6.71326 z" />
      <path
         id="path943"
         style="font-size:54.6366px;fill:#009400;fill-opacity:1;stroke-width:1.18569"
         d="m -88.747792,431.69247 1.55376,-0.2517 13.68237,25.40393 q 1.51338,2.83578 3.0362,4.56199 1.544886,1.6956 3.322113,1.48877 l 0.20477,1.26407 -9.454163,1.53151 -0.20477,-1.26408 0.60569,-0.0981 q 0.44769,-0.0725 0.30692,-0.94157 -0.0427,-0.26334 -0.1992,-0.5623 l -4.64474,-8.65256 -11.50828,1.86425 q -0.98949,5.40329 -0.58422,7.90509 0.2133,1.31674 1.19253,2.02293 1.00555,0.70194 2.4013,0.47584 l 1.39574,-0.2261 0.20477,1.26407 -11.79796,1.91118 -0.20477,-1.26407 q 2.92389,-0.63581 4.3527,-7.16427 z m 0.30691,7.73372 -3.26077,14.90594 10.32321,-1.67228 z" />
      <path
         id="path945"
         style="font-size:54.6366px;fill:#009400;fill-opacity:1;stroke-width:1.18569"
         d="m -73.271402,434.6502 9.289566,-0.62597 0.08609,1.27764 q -0.983058,0.093 -0.925664,0.94475 0.01614,0.23956 0.142343,0.52518 l 10.120199,24.3988 3.691837,-11.47895 q 1.613066,-5.02859 1.315328,-9.44712 -0.380243,-5.64294 -4.868153,-5.58118 l -0.08609,-1.27764 9.422653,-0.63494 0.08609,1.27764 q -1.142765,0.10377 -1.087164,0.9289 0.01614,0.23955 0.144136,0.55179 l 10.22667,24.39163 4.502712,-14.12723 q 2.075183,-6.5036 1.894029,-9.19199 -0.139902,-2.07618 -1.173182,-2.72848 -1.008457,-0.68073 -3.381016,-0.57434 l -0.08609,-1.27765 11.977949,-0.80712 0.08609,1.27765 q -1.568647,0.13246 -2.829008,2.06233 -1.26036,1.92988 -2.501639,5.73018 l -8.853464,27.3351 -1.597059,0.10762 -9.234718,-21.97178 q -2.27162,4.77884 -3.619083,8.98737 l -4.500918,14.15384 -1.543825,0.10403 -10.752994,-25.85352 q -0.2524,-0.57123 -1.602939,-3.15409 -1.352328,-2.60946 -2.335968,-3.3186 -0.95701,-0.71092 -1.92063,-0.72621 z" />
    </g>
  </g>
  <g
     inkscape:label="F.SilkS"
     id="layer1"
     inkscape:groupmode="layer">
    <path
       clip-path="url(#clipPath932)"
       inkscape:label="inside border"
       style="display:inline;fill:none;stroke:#bbcc20;stroke-width:9.6;stroke-miterlimit:10;stroke-dasharray:none;stroke-opacity:1"
       d="m 351.2,670.3 c 99.8,2.7 137.5,24.2 157.2,0.5 12.3,-14.8 4.7,-33.1 -7.6,-96.7 C 469.1,410.6 470.5,405.8 458.6,381.8 443.3,351 405.5,274.9 335.5,261.7 c -8.2,-1.6 -36.9,-6.6 -66.1,7.1 -31.5,14.8 -45.3,42.6 -63.6,79.4 -18.4,37 -33.3,67.1 -32.6,107.4 0.9,52.6 24.8,58.2 29,122.1 3.3,50.9 -11.3,63.5 1.5,80.9 18.4,25.1 56.8,9.2 147.5,11.7 z"
       class="st10"
       id="path949" />
    <g
       data-name="Layer_1"
       id="Layer_11">
      <path
         style="display:inline"
         id="path41"
         d="m 309.1,332.1 c 0.1,-1.1 0.2,-2.3 0.1,-3.4 V 328 c -0.4,-4.5 -0.9,-10.6 -3.2,-14.3 -0.3,-0.5 -3.5,-4.2 -4.3,-4.6 -2.8,-1.4 -6.2,-2.2 -10.7,-2.6 -0.5,0 -1,-0.1 -1.5,-0.1 h -1.6 c -0.2,-0.1 -0.3,-0.3 -0.5,-0.5 -0.2,-0.2 -0.3,-0.4 -0.5,-0.6 -0.3,-0.3 -0.7,-0.4 -1,-0.4 h -0.6 c -0.1,0.1 -0.2,0.2 -0.3,0.2 -0.4,0.2 -1.1,0.5 -1.5,1 l -1.2,-0.6 H 282 c -0.4,0.2 -0.6,0.5 -0.7,0.7 -0.1,0.1 -0.2,0.4 -0.4,0.5 v 0 c -0.2,-0.3 -0.7,-0.8 -1.5,-0.8 -0.8,0 -0.7,0.1 -1.1,0.3 -0.2,0.1 -0.4,0.2 -0.5,0.4 -0.2,-0.1 -0.3,-0.2 -0.6,-0.3 -0.4,-0.1 -0.7,-0.2 -1,-0.2 -1,0 -1.4,0.7 -1.6,1 -0.1,0 -0.3,-0.1 -0.5,-0.1 h -0.4 l -0.3,0.3 -0.3,0.4 v 0.3 c 0,0 -0.2,0.1 -0.2,0.2 v 0 c -0.3,-0.4 -0.7,-1 -1.4,-1.2 h -0.4 c 0,-0.1 -0.4,0.1 -0.4,0.1 -0.3,0.2 -0.7,0.5 -0.7,1.1 l -1.7,-0.6 v 1.4 c 0.1,0.8 0,1.1 0,1.1 v 0 c -0.2,0 -0.5,-0.1 -0.7,-0.1 -0.4,-0.1 -0.8,-0.2 -1.3,-0.2 -0.5,0 -1.2,0.2 -1.6,0.5 l -0.4,0.4 c -0.2,0.2 -0.6,0.6 -0.7,0.6 -0.1,0.1 -0.6,0.1 -0.8,0.2 -0.4,0 -0.6,0.1 -0.9,0.2 -0.4,0.2 -0.5,0.6 -0.5,0.9 -0.3,0.2 -1.1,0.7 -1.5,0.9 l -0.4,0.2 c -0.1,0.1 -0.2,0.1 -0.3,0.2 -0.2,0.1 -0.5,0.3 -0.8,0.5 -0.3,-0.3 -0.6,-0.4 -1,-0.4 -0.4,0 -0.7,0.1 -1.1,0.4 -0.3,0.3 -0.5,0.6 -0.6,0.9 -0.3,0 -0.5,-0.1 -0.8,-0.1 -0.9,0 -1.9,0.2 -3.1,0.7 l -0.7,0.3 v 1.4 c -0.1,0 -0.1,0.1 -0.2,0.1 -0.3,0.1 -0.7,0.3 -1.1,0.6 -1.7,1.3 -2.2,2.7 -2.8,4.1 -0.2,0.4 -0.3,0.8 -0.5,1.2 -0.2,0.5 -0.5,1.1 -0.8,1.6 -0.8,1.6 -1.7,3.2 -1.9,4.9 -0.3,2.3 -0.5,4.6 -0.6,6.8 -0.1,1 -0.1,2.1 -0.2,3.1 v 0.9 c -0.4,2.9 -0.6,6 -0.2,9 0.4,0.4 0.7,0.8 1.1,1.2 0.3,-0.3 0.6,-0.6 0.8,-0.9 0.1,-0.2 0.9,-0.8 1.5,-1.1 0.2,-0.1 0.7,-0.2 1,-0.3 0.5,-0.1 0.9,-0.2 1.1,-0.4 0.4,-0.2 0.5,-0.6 0.7,-0.9 0,-0.1 0.1,-0.2 0.1,-0.2 0.2,-0.3 0.3,-0.3 0.6,-0.3 h 0.3 c 0.3,0 0.7,0 1.1,-0.2 0.2,-0.1 2.1,-1.1 2.1,-1.1 0.2,-0.1 0.5,-0.4 0.8,-0.7 0.3,-0.3 0.7,-0.8 1,-0.9 h 0.5 c 0.2,0 0.5,0 0.8,-0.1 0.3,-0.1 0.5,-0.3 0.7,-0.4 0.1,-0.1 0.2,-0.2 0.3,-0.2 0.2,-0.1 0.6,-0.1 0.9,-0.1 0.3,0 0.7,0 1.1,-0.1 0.5,-0.1 0.8,-0.5 1.1,-0.7 h 0.1 c 0.2,-0.1 0.4,0 0.6,0 0.4,0 0.9,-0.1 1.4,-0.7 0.3,-0.4 1.1,-0.9 1.7,-1.3 l 0.3,-0.2 c 0.3,0 0.6,-0.1 0.8,-0.3 v 0 c 0.2,0.1 0.4,0.1 0.7,0.1 0.7,0 1.3,-0.4 2,-0.7 0.3,-0.1 0.6,-0.3 0.7,-0.3 0.6,-0.2 1.3,-0.2 1.9,-0.3 0.7,-0.1 1.3,-0.2 1.9,-0.3 0.4,-0.1 0.8,-0.3 1.3,-0.5 0.4,-0.2 0.9,-0.4 1.1,-0.5 0.2,-0.1 0.5,-0.1 0.9,-0.1 h 3.9 c 0,-0.1 0.3,-0.8 0.3,-0.8 0.2,0 0.3,-0.1 0.4,-0.1 0.2,0 0.5,-0.1 0.6,-0.1 h 0.1 c 0.9,0 2,0.1 3.1,0.3 1.1,0.2 2.3,0.3 3.4,0.3 1.1,0 0.8,0 1.1,-0.1 0.4,-0.1 0.8,-0.2 1,-0.3 0.3,-0.1 0.5,-0.2 0.7,-0.2 1.2,-0.1 2.6,-0.2 4.2,-0.2 2.4,0 4.9,0.1 7.3,0.2 1.1,0.1 2.2,0.1 3.2,0.1 h 3.9 v -1.2 c -0.1,-0.7 0,-1.9 0,-3.2 z m -1,-0.1 c -0.1,1.3 -0.2,2.5 -0.1,3.7 h -2.6 c -1,0 -2.1,-0.1 -3.2,-0.1 -2.4,-0.1 -4.9,-0.2 -7.3,-0.2 -2.4,0 -3.1,0.1 -4.3,0.2 -0.4,0 -0.7,0.2 -1,0.3 -0.3,0.1 -0.5,0.2 -0.8,0.3 -0.3,0 -0.6,0.1 -1,0.1 -1,0 -2.1,-0.2 -3.2,-0.3 -1.1,-0.1 -2.2,-0.3 -3.2,-0.3 h -0.1 c -0.2,0 -0.5,0.1 -0.8,0.1 -0.3,0 -0.3,0.1 -0.4,0.1 h -0.5 c 0,0.1 -0.3,0.7 -0.3,0.7 h -3.2 c -0.5,0 -0.8,0 -1.1,0.1 -0.3,0.1 -0.8,0.3 -1.3,0.5 -0.4,0.2 -0.8,0.4 -1.1,0.5 -0.5,0.1 -1.2,0.2 -1.8,0.3 -0.7,0.1 -1.5,0.2 -2.1,0.4 -0.2,0.1 -0.5,0.2 -0.9,0.4 -0.6,0.3 -1.1,0.6 -1.5,0.6 H 266 l -0.6,-0.2 -0.5,0.4 c -0.1,0.1 -0.2,0.1 -0.3,0.1 h -0.2 l -0.5,0.3 c -0.7,0.4 -1.5,0.9 -2,1.5 -0.2,0.2 -0.4,0.3 -0.6,0.3 -0.2,0 -0.3,0 -0.4,-0.1 h -0.5 c 0,-0.1 -0.4,0.3 -0.4,0.3 h -0.1 c -0.2,0.3 -0.5,0.5 -0.7,0.6 -0.3,0.1 -0.6,0.1 -0.9,0.1 -0.3,0 -0.8,0 -1.2,0.2 -0.3,0.1 -0.5,0.3 -0.6,0.4 -0.1,0.1 -0.2,0.2 -0.4,0.2 -0.2,0 -0.3,0.1 -0.5,0.1 h -0.2 c -0.2,0 -0.5,0 -0.7,0.1 -0.4,0.2 -0.8,0.5 -1.4,1.1 -0.2,0.2 -0.4,0.4 -0.5,0.5 -0.2,0.1 -1.7,0.9 -2,1 -0.3,0.1 -0.6,0.1 -0.8,0.1 h -0.3 c -0.5,0 -0.9,0 -1.4,0.6 v 0 0.2 c 0,0.1 -0.1,0.2 -0.1,0.3 -0.1,0.3 -0.2,0.4 -0.3,0.5 -0.1,0.1 -0.4,0.2 -0.8,0.3 -0.5,0.1 -0.9,0.2 -1.2,0.4 -0.5,0.2 -1.6,1 -1.9,1.6 v 0 c -0.4,-3 -0.2,-5.9 0.1,-8.8 v -0.9 c 0.2,-1 0.3,-2 0.3,-3 0.2,-2.3 0.3,-4.5 0.6,-6.8 0.2,-1.5 1,-3.1 1.8,-4.6 0.3,-0.6 0.6,-1.1 0.8,-1.7 0.2,-0.4 0.4,-0.8 0.5,-1.2 0.6,-1.4 1.1,-2.6 2.5,-3.7 0.3,-0.3 0.6,-0.4 0.9,-0.5 0.1,-0.1 0.2,-0.1 0.3,-0.1 l 0.4,-0.2 v -0.5 c 0.1,-0.2 0.2,-0.5 0.1,-0.9 1,-0.4 1.9,-0.6 2.7,-0.6 h 1.6 c 0,0.1 0.2,-0.7 0.2,-0.7 0,-0.1 0.1,-0.2 0.2,-0.3 0.1,-0.1 0.3,-0.2 0.5,-0.2 0.2,0 0.2,0 0.3,0.1 l 0.5,0.5 0.7,-0.4 c 0.3,-0.2 0.6,-0.4 0.8,-0.5 0.1,-0.1 0.2,-0.2 0.3,-0.2 l 0.4,-0.2 c 0.5,-0.3 1.2,-0.7 1.5,-1 l 0.3,-0.2 v -0.4 l 0.2,-0.2 c 0.1,0 0.3,-0.1 0.5,-0.1 0.6,-0.1 0.9,-0.2 1.2,-0.3 0.2,-0.1 0.4,-0.3 0.9,-0.8 0.5,-0.5 0.3,-0.2 0.4,-0.3 0.3,-0.2 0.6,-0.3 1,-0.3 0.4,0 0.7,0.1 1.1,0.1 h 0.2 c 0,0.1 1.2,0.1 1.2,0.1 l 0.3,-0.3 c 0.2,-0.2 0.4,-0.6 0.4,-1.8 l 1.6,0.5 v -1.3 c 0.1,-0.1 0.1,-0.2 0.3,-0.3 0.5,0.1 0.7,0.4 0.9,0.7 l 0.6,0.8 0.8,-0.6 0.5,-0.4 v -0.5 c 0.1,0 0.1,-0.1 0.1,-0.1 h 0.1 l 0.8,0.3 0.4,-0.7 c 0.2,-0.3 0.3,-0.5 0.7,-0.5 0.4,0 0.4,0 0.6,0.1 0.1,0 0.2,0.1 0.3,0.2 l 0.7,0.5 0.6,-0.7 c 0,-0.1 0.1,-0.1 0.1,-0.1 0.3,-0.1 0.5,-0.2 0.7,-0.2 0.3,0 0.5,0.2 0.7,0.5 l 0.5,0.7 0.8,-0.4 c 0.3,-0.2 0.6,-0.5 0.8,-0.8 0,-0.1 0.1,-0.1 0.1,-0.2 l 1.6,0.8 0.5,-0.7 c 0.2,-0.3 0.7,-0.5 1.1,-0.7 0.1,-0.1 0.2,-0.1 0.3,-0.2 0.2,0 0.4,0.1 0.5,0.2 0.2,0.2 0.3,0.3 0.4,0.5 0.2,0.3 0.4,0.5 0.7,0.7 l 0.3,0.2 h 3.3 c 4.4,0.4 7.7,1.2 10.3,2.5 0.6,0.4 3.5,3.6 3.9,4.2 2.2,3.5 2.6,9.5 3,13.8 v 0.7 c 0,0.9 -0.1,2.1 -0.2,3.1 z"
         class="st4" />
      <g
         data-name="Layer_1"
         id="Layer_12">
        <g
           inkscape:label="g33"
           id="g33">
          <path
             id="path23"
             d="m 284.9,355.5 c 0.3,-0.4 0.3,-0.7 0.1,-0.9 1.2,-1.8 -0.2,-4 -2.1,-5.2 -1,-0.8 -2.3,-1.2 -3.6,-1 -0.2,0 -0.5,0.1 -0.7,0.1 -2.6,0.2 -5.3,1.4 -5.9,3.6 0,0.1 0.1,0.1 0.2,0 h 0.1 c -0.1,0.1 -0.1,0.3 -0.1,0.5 0,0.2 0.2,0.2 0.3,0.2 h 0.1 c 0.3,0 1,-0.5 0.5,-0.7 0,0 1.6,-1.4 1.7,-1.5 0.8,-0.6 1.8,-0.9 2.8,-1.1 1.1,0 2.1,0.2 2.9,0.6 0.7,0.6 1,1.5 1.1,2.4 0,0.3 0.1,0.4 0.4,0.5 -0.3,0 -0.6,0.1 -1,0.1 -0.6,-0.1 -1.3,-0.4 -1.7,-0.6 -0.4,-0.1 -0.8,-0.2 -1.1,-0.3 -0.3,-0.1 -0.5,-0.2 -0.8,-0.3 -1,-0.4 -2.6,-0.4 -3.6,0 -0.3,0.1 -0.6,0.4 -0.3,0.7 0.3,0.3 0.2,0.1 0.3,0.2 -0.1,0.1 -0.2,0.1 -0.4,0.2 -0.2,0.1 -0.4,0.2 -0.6,0.3 -0.1,-0.1 -0.1,-0.2 -0.2,-0.3 -0.1,-0.1 -0.2,-0.2 -0.4,-0.2 h -0.4 c -0.3,0.1 -0.7,0.4 -0.6,0.7 1.9,4.5 9.6,6.5 13,2 z"
             class="st4" />
          <path
             id="path25"
             d="m 300.8,377.5 c 2,0.6 3.7,0.6 5.6,0.5 h -0.2 q -0.1,0 -0.2,-0.1 c -3.8,-1.2 -6.4,-3.8 -9.5,-5.2 h 0.1 c 1,1.6 2.5,4.3 4.2,4.8 z"
             class="st4" />
          <path
             id="path27"
             d="m 304,348.6 c 0.6,-0.2 1,-0.4 1.4,-0.5 0.6,0.3 1.4,0.3 2,0 0.9,-0.5 1.5,-1 1.9,-1.9 0.5,-1.1 0.1,-2.7 -1.6,-2.4 -2.3,0.3 -4.7,1.5 -5.5,3.5 -0.4,1 0.8,1.6 1.8,1.3 z"
             class="st4" />
          <path
             id="path29"
             d="m 284.4,369.1 c 0.8,-0.3 1.7,-0.6 2.5,-1 0.1,-0.1 0.2,-0.3 0,-0.2 -0.9,0.2 -1.7,0.5 -2.6,0.8 -0.3,0.1 -0.2,0.5 0.1,0.4 z"
             class="st4" />
          <path
             id="path31"
             d="m 287.6,368.9 c 0.2,-0.1 0.8,-0.1 1.1,-0.1 0.3,0 0.2,-0.2 0.2,-0.3 -0.3,-0.5 -1,-0.2 -1.4,0.1 -0.2,0.2 -0.1,0.4 0,0.3 z"
             class="st4" />
        </g>
        <path
           id="path35"
           d="m 498.7,664.7 c -2.8,-5.1 -7.3,-8.9 -11.1,-13.2 -6,-6.9 -11.7,-13.9 -17.5,-21 -7.8,-9.6 -14.9,-20.5 -23.2,-30 v -0.2 c -1.1,-2 -2.4,-3.8 -3.7,-5.6 -0.8,-1.1 -1.5,-2.2 -2.3,-3.3 0,0 0,-0.2 -0.1,-0.2 -2.4,-5.5 -5.4,-10.7 -8.6,-15.8 -0.8,-1.2 -2.3,-3 -3.4,-4.7 -0.3,-0.7 -0.6,-1.3 -1,-1.9 -0.1,-0.3 -0.1,-0.5 -0.1,-0.7 -0.2,-2.6 1.7,-1.3 3,-1 0.9,0.3 1.6,1.2 1.9,-0.5 0.1,-1 -1.1,-2.1 -1.5,-2.9 -1.6,-2.7 -3.2,-5.3 -4.8,-7.9 -2.8,-4.4 -5.6,-8.8 -8.5,-13.2 -0.7,-2.3 -2.5,-4.3 -4.3,-6.2 -1.9,-2.7 -3.8,-5.4 -5.8,-8.1 -0.8,-1 -5.8,-8.4 -7.1,-7.9 1.6,-0.7 2.9,-2.6 2.6,-4.2 -0.2,-1.3 -0.6,-2.5 -1,-3.8 0.7,-0.2 1.2,-0.9 1.1,-1.7 -1.4,-7 -7.8,-13.1 -12.1,-18.5 -5.1,-6.4 -10.6,-12.5 -16.2,-18.4 -10.5,-11 -22.1,-22 -35.1,-30.1 -1.4,-1.8 -2.9,-3.7 -4.4,-5.1 0.6,0.2 1.5,-0.2 1.6,-0.9 1.4,-7.8 -5,-14.6 -10.3,-19.6 -1.2,-1.1 -2.9,-2.7 -4.9,-4.1 -3.4,-1.1 -6.8,-2.4 -8.7,-5.2 -1.8,-2.7 -1.5,-6.3 0.1,-9 0.5,-0.9 1.1,-1.6 1.6,-2.5 0.5,-0.8 0.6,-4.6 2.3,-3.3 0.7,0.6 1.2,1.2 1.6,1.8 -0.1,-0.3 -0.1,-0.6 -0.2,-0.8 -0.4,-2.5 -1.7,-5.1 -3.7,-6.8 -0.9,-0.8 0.2,-1.9 1.2,-1.5 1.5,0.6 2.7,1.4 3.9,2.3 -0.9,-1.9 -2.5,-3.5 -4.2,-4.9 7.6,0.5 15.5,0.7 23.1,0.9 5.7,0.2 12.4,-0.3 17.4,-3.4 1.3,-0.7 2.5,-1.7 3.4,-2.9 -0.5,0 -1,-0.1 -1.5,-0.1 v 0 c -8.5,-0.9 -17,-2.8 -25,-4.5 -1.5,-0.3 -3,-0.7 -4.5,-1.1 -3.5,-0.6 -7.1,-1.4 -10.5,-2.2 -5.1,-1.3 -11.4,-1.5 -16,-4.1 -0.3,-0.2 -0.4,-0.4 -0.4,-0.7 3,-0.6 6.1,-1.5 9,-2.3 2,-0.5 4,-1 6,-1.6 h 0.1 c 2.9,-0.5 5.8,-1 8.7,-1.8 5.7,-1.4 11.4,-2.9 17.2,-3.8 5.2,-0.9 10.4,-0.9 15.6,-1.4 2.9,0.3 5.7,0.8 8.2,1.8 0,-3 -2.9,-7.6 -4,-8.9 -3.3,-3.9 -8.4,-6.3 -13.7,-7.7 -12.8,-3.4 -27.2,-2.5 -40.5,-1.2 -0.4,-0.8 -1,-1.5 -1.8,-2 h -0.1 C 306.4,337 306.2,337 306,337 h -0.5 c -1,0 -2.2,-0.1 -3.3,-0.1 -2.4,-0.1 -4.9,-0.2 -7.2,-0.2 -2.3,0 -3,0.1 -4.2,0.2 -0.2,0 -0.5,0.1 -0.7,0.2 -0.3,0.1 -0.6,0.3 -1,0.3 -0.4,0 -0.7,0.1 -1.1,0.1 -1.1,0 -2.2,-0.2 -3.4,-0.3 -1.1,-0.1 -2.2,-0.3 -3.1,-0.3 -0.9,0 -0.5,0.1 -0.7,0.1 -0.2,0 -0.3,0.1 -0.5,0.1 v 0 c 0,0.1 -0.8,0.7 -0.8,0.7 h -3.3 c -0.4,0 -0.7,0 -0.9,0.1 -0.2,0 -0.8,0.3 -1.1,0.5 -0.5,0.2 -0.9,0.4 -1.2,0.5 -0.6,0.2 -1.3,0.2 -1.9,0.3 -0.7,0.1 -1.4,0.1 -1.9,0.3 -0.1,0 -0.4,0.2 -0.7,0.3 -0.7,0.4 -1.3,0.7 -2,0.7 -0.7,0 -0.3,0 -0.4,-0.1 -1.5,1.1 -3,2.3 -4.5,3.5 -0.1,0.1 -0.3,-0.1 -0.2,-0.2 1,-0.8 2.1,-1.8 3.2,-2.7 -0.6,0.4 -1.2,0.8 -1.6,1.2 -0.5,0.6 -1,0.7 -1.4,0.7 -0.4,0 -0.5,-0.1 -0.6,-0.1 h -0.1 c -0.3,0.4 -0.6,0.7 -1.1,0.8 -0.2,0 -0.3,0.1 -0.5,0.1 -1.5,1.4 -3,2.8 -4.5,4.3 -1.5,1.5 -0.4,0 -0.3,-0.2 1.2,-1.3 2.4,-2.7 3.8,-4 -0.2,0 -0.4,0 -0.5,0.1 -0.1,0 -0.2,0.1 -0.3,0.2 -0.2,0.1 -0.4,0.3 -0.7,0.4 h -0.3 c -2.4,2.2 -4.9,4.5 -7,7.1 -0.1,0.1 -0.3,0 -0.2,-0.1 1.4,-1.9 3,-3.8 4.7,-5.6 -0.1,0.1 -0.2,0.2 -0.3,0.3 0,0 -1.9,1 -2.2,1.1 -0.4,0.1 -0.8,0.2 -1.1,0.2 H 250 c -0.3,0 -0.4,0 -0.6,0.3 0,0 -0.1,0.1 -0.1,0.2 -0.1,0.3 -0.3,0.7 -0.7,0.9 -0.2,0.1 -0.6,0.2 -1.1,0.4 -0.4,0.1 -0.8,0.2 -1,0.3 -0.5,0.2 -1.1,0.7 -1.4,1 v 0.6 l 0.2,0.2 c 0.2,0.2 0.5,0.5 0.6,1 0,0.4 -0.1,0.6 -0.2,0.8 0,0.1 -0.1,0.1 -0.1,0.2 0,0.1 0,0.2 0.1,0.4 0.8,-0.9 1.6,-1.9 2.4,-2.8 0.1,-0.1 0.3,0 0.2,0.1 -0.8,1 -1.7,2 -2.5,3 0.1,0.2 0.1,0.3 0.2,0.5 0.2,0.5 0.4,1.1 0.4,1.6 0.2,2.7 0.6,5.5 1.1,8.1 0.4,2.2 0.7,4.5 1,6.8 0.2,2.2 -0.7,4.2 -1.5,6.2 -0.5,1.2 -1,2.3 -1.2,3.4 l -0.2,0.2 c 0,0.5 -0.1,0.9 -0.2,1.3 0.2,0.1 0.6,0.1 0.8,0.1 0.5,0.1 0.9,0.1 1.4,0.3 0.9,0.4 2.5,2.5 2.6,2.6 0.4,0.6 0.7,1.3 0.9,2 0.1,0.4 0.3,0.9 0.4,1 h 0.1 c 0.2,0.1 0.5,0.2 0.7,0.5 0.4,0.4 0.6,1.3 1,3.5 v 0.2 c 0.3,1.6 0.3,3.2 0.4,4.6 0,0.1 0,0.3 0.1,0.5 0.1,0.2 0.1,0.5 0.1,0.8 0,0.6 -0.4,1.3 -0.7,2 -0.2,0.4 -0.5,0.9 -0.5,1.1 v 0.8 c 0,0.5 0,0.7 -0.1,1 -0.2,0.5 -1.3,1.5 -1.5,1.6 -0.4,0.2 -0.7,0.2 -1,0.3 H 250 c -0.1,0.2 -0.2,0.5 -0.4,0.7 -0.9,1.2 -2.1,1.9 -3.3,2.5 -0.3,0.2 -0.7,0.4 -1,0.6 -0.1,0.2 -0.3,0.5 -0.7,0.7 -0.4,0.2 -0.8,0.3 -1.2,0.3 -0.4,0 -0.6,0 -0.8,-0.1 h -0.2 c -0.1,0 -0.2,0.1 -0.3,0.2 -0.3,0.2 -0.7,0.5 -1.1,0.6 -0.2,0.1 -0.5,0.1 -0.8,0.1 H 239 c -0.3,0.1 -0.5,0.1 -0.7,0.2 -0.4,0.1 -0.8,0.2 -1.3,0.3 v 0 c -0.2,0.1 -0.4,0.3 -0.7,0.3 H 236 c -0.9,0 -1.9,-0.6 -2.8,-1.1 -0.5,-0.3 -1,-0.6 -1.3,-0.7 h -0.4 c -0.2,0 -0.4,0.1 -0.7,0.1 -0.3,0 -0.6,-0.1 -1,-0.2 -1.9,-0.8 -2.5,-1.9 -3.1,-2.9 -0.6,-1 -0.5,-1 -0.9,-1.4 -0.1,-0.2 -0.4,-0.4 -0.7,-0.5 -0.4,-0.3 -0.9,-0.6 -1.3,-1.2 -0.4,-0.5 -0.4,-1 -0.5,-1.4 V 402 c -0.2,-0.1 -0.4,-0.2 -0.6,-0.5 -0.5,-0.7 -0.6,-2.1 -0.6,-6.2 0,-4.1 0,-2.5 -0.1,-3 V 392 c 0.1,-0.6 0.4,-1 0.6,-1.4 0.1,-0.1 0.2,-0.2 0.2,-0.3 0,0 0,-0.1 -0.1,-0.2 v 0 c 0,0 -0.1,0 -0.1,-0.1 -0.2,-0.2 -0.5,-0.5 -0.6,-0.9 -0.1,-0.5 0.1,-0.9 0.3,-1.1 0,-0.2 0,-0.4 -0.1,-0.6 -0.1,-0.5 -0.1,-1.1 0,-1.9 0.1,-0.2 0.9,-2.2 1.1,-2.5 0.3,-0.4 0.7,-0.5 1,-0.5 h 0.1 c 0.1,-0.2 0.3,-0.6 0.9,-0.8 h 0.6 c 0.2,-0.4 0.7,-1.1 1.8,-1.4 0.4,-0.1 0.8,-0.1 1,-0.1 v -1.4 c -0.7,-4.4 -1.1,-8.7 -1.4,-13 -1.8,2.3 -3.4,4.7 -5,7.2 -3,4.7 -5.6,9.7 -7.9,14.8 -0.9,2 -1.8,4 -2.6,6.1 -2,4 -3.6,8.3 -3.7,12.3 0,0.2 0.3,0.2 0.4,0.1 q 0.1,-0.1 0.1,-0.2 c 0,0.2 0.3,0.3 0.5,0.3 -1.3,0.5 -2.4,9.7 -3,11.3 -2.5,6.6 -8.4,11.2 -11.1,17.9 -2.9,7.5 -3.6,17.9 -0.7,25.4 0.6,-0.1 1.9,-0.1 2,0.8 0.1,7.2 0.6,14 3.8,20.6 1.4,2.8 2.9,5.7 3.8,8.7 0.4,1.2 1.5,7.8 2.9,6.9 0.6,-0.3 1.4,-0.1 1.5,0.6 0,0.6 0,1.1 0.1,1.7 5,14.4 14.8,28.5 23.8,38.8 6.4,7.3 16.9,11 25.3,15.2 2.6,1.3 5.2,2.4 7.8,3.2 2.7,3.3 5.3,6.2 7.3,9.9 0.9,1.6 1.5,3.2 1.9,4.7 0.7,8.9 -6.3,17.4 -10.2,25.2 -3.1,6.1 -6.8,11.3 -10.6,16.7 h -0.2 c -0.3,0.4 -0.6,0.7 -1,0.7 0,0 -0.1,0 -0.2,0 H 252 c -1.1,-0.9 -2.4,-1.5 -3.2,-1.7 -3.9,-0.8 -6.5,1.9 -7.3,5.3 -0.4,0.6 -0.6,1.3 -0.7,2 -1,-1.5 -1.7,-1.9 -3.1,-2.9 -1.7,-1.2 -3.3,-2.2 -5.4,-2.5 -3.1,-0.3 -5.4,2.7 -6.7,5.5 -0.1,-0.3 -0.4,-0.6 -0.8,-0.7 -5.5,-1.4 -10,-1.5 -10.5,5.1 -0.4,4.9 2.2,9.5 5,13.4 1.6,2.3 3.4,4.5 5.5,6.3 1.1,0.9 2.2,1.8 3.5,2.4 0.6,0.3 3.6,1.8 3.2,0.2 -0.1,-0.3 -0.3,-0.6 -0.4,-0.9 -0.8,-1.4 -1.2,-3.1 -0.9,-4.8 0.1,-0.8 0.9,-2.7 1.9,-1.7 0.3,0.3 0.4,1 0.7,1.4 0.4,0.6 0.9,1.1 1.4,1.6 0.8,0.9 1.5,1.8 2.3,2.7 0.9,1 2.1,1.9 3.3,2.4 1.1,0.5 3.6,1.2 2.8,-0.9 -0.6,-1.9 -1.6,-3.5 -1.9,-5.5 -0.1,-0.8 -0.2,-1.7 -0.1,-2.5 0.1,-0.5 0.9,-2.5 1.7,-1.9 0.5,0.4 0.8,1.3 1.1,1.9 0.4,0.7 0.8,1.4 1.2,2 0.9,1.3 2,2.5 3.2,3.5 1.4,1.1 2.9,2.1 4.6,2.7 0.9,0.3 1.8,0.6 2.7,0.8 0.4,0 1.3,0.4 1.5,0 0.3,-0.5 -0.8,-1.8 -1,-2.2 -1.8,-3.6 -2,-7.8 -1,-11.7 0.6,-2.2 1.7,-4.2 3.9,-5 2.6,-1 5.4,-0.3 8,-0.2 2.5,0 5,-0.2 7.6,-0.3 3.3,-0.2 8.9,-1.5 10.9,2.1 -0.6,1.1 -1.4,2.2 -2.3,3.1 -0.3,0.3 0.1,0.7 0.4,0.5 2.3,-1.6 4.3,-3.1 5.7,-5.6 1.3,-2.4 2.1,-5.4 2.1,-8.1 v -0.2 c 0,0 0,-0.2 0.1,-0.3 0.1,-0.8 0,-2 -1.1,-2.2 -5,-0.8 -9.8,-1.9 -14.7,-3 -0.1,0 -0.2,0 -0.4,-0.2 -0.4,-0.2 -0.7,-0.5 -1,-0.8 -0.3,-0.3 -0.5,-0.6 -0.7,-0.8 -1.1,-1.8 -1.1,-4.1 -0.4,-6.6 4.4,-9.5 12.7,-17.8 20.9,-24.5 0.7,-1 1.4,-1.9 2,-2.9 0.6,-1 1.8,0 1.5,0.9 0,0 -0.1,0.3 -0.1,0.4 2.4,-1.7 4.9,-3.7 4.5,-6.8 -0.4,-2.8 -1.2,-6.5 2.5,-7.1 5.3,-0.8 11.1,-0.3 15.9,2.1 1.9,1 3.4,2.6 4.8,4 0.1,0.5 0.2,1.1 0.3,1.6 0.7,2.9 1.6,3.5 3.6,5.8 2.5,2.9 2.9,6.6 2.5,10.4 -0.6,2 -1.2,3.9 -1.9,5.8 -2.1,6.3 -4.2,13.8 -9,18.8 -0.3,0.4 -0.7,1 -1.3,1.5 -0.3,-0.2 -0.6,-0.4 -0.9,-0.6 -2,-1.4 -4.9,-2.8 -7.5,-2.8 -2.6,0 -3.4,0.8 -4.7,2 -0.2,0 -0.3,0.3 -0.5,0.5 l -0.7,0.7 c -0.6,0.7 -1.2,1.6 -1.4,2.5 -0.1,0.2 -0.1,0.3 -0.2,0.5 -2.6,-0.8 -6.2,-1.6 -8.2,0.4 -3.6,3.7 -1.5,9.5 0.2,13.6 1.5,3.4 3.4,6.5 5.9,9.3 0.6,0.7 1.2,1.3 1.9,2 0.8,0.8 1.1,1.2 1.4,0.2 0,-1.5 0.7,-2.9 1.9,-4 0.1,0 0.3,0 0.4,0 h 0.1 c 0,0 0.1,0.2 0.1,0.2 0.7,1.5 1.6,3.6 2.8,5.3 0.1,0.2 0.2,0.5 0.4,0.7 0.4,0.7 0.9,1.4 1.5,2 0.5,0.8 1.2,1.5 2,2 0.5,0.3 1.2,0.7 1.8,0.9 1.1,0.2 0.5,-0.6 0.3,-1.4 -0.9,-5.8 0.8,-12.1 4.5,-16.7 0.6,-0.7 1.2,-1.4 2,-1.7 0.1,1.3 0.3,2.7 0.5,4 1.1,6.1 3.7,11.3 7.9,15.8 0.3,0.3 0.9,0 0.9,-0.4 -0.2,-1.1 -0.2,-2.2 -0.1,-3.3 0.8,-4 1.8,-7.9 3.7,-11.5 2.3,-4.6 6.4,-7.9 11.3,-9.2 3.8,-1.1 12,-2 14.7,1.6 1.4,2 -1.7,3.3 -2.6,4.7 -0.1,0.2 0,0.4 0.2,0.4 2.1,0 5.1,-3 6.3,-4.5 0.9,-1.2 1.4,-2.8 1.2,-4.3 -0.3,-1.8 -1.9,-2.9 -3.2,-4.1 -1.7,-1.6 -2.2,-3.6 -3.7,-5.3 -1.1,-1.2 -2.8,-1.7 -4.4,-1.2 -3.1,1 -6.7,1.8 -9.9,1.3 -0.7,0 -1.3,-0.2 -1.9,-0.6 -2.3,-1.2 -1.4,-5 -0.8,-7 0,-0.2 0.1,-0.3 0.2,-0.5 -0.3,-5.4 -0.5,-10.9 0.8,-16.2 0.9,-3.8 3.1,-7.8 4.7,-11.8 0.3,0 0.6,0 0.9,0 2,-1 4.1,-2.2 6,-3.4 1,-0.6 2.1,-1.7 3.2,-2.8 3.4,0 6.7,-1.1 10.2,-0.5 0.5,0 0.9,0.2 1.4,0.4 0.2,0.3 0.5,0.7 0.7,1 9.2,13.8 18.4,27.7 27.5,41.6 5,7.6 9.9,15.3 15,22.9 4.5,6.8 8.2,14 14.4,19.7 5.1,4.7 14.7,7.5 21.9,5.4 0.9,0.7 1.9,1.5 2.9,2.2 0.1,0 0.1,0 0.2,0 0.3,0.2 0.5,0.4 0.7,0.5 2.1,1.6 4.4,2.7 6.9,3.5 5.8,1.8 12.2,1.1 17.8,-0.9 0.6,-0.2 0.9,-0.6 1,-1.1 0.3,0.2 0.7,0.3 1,0.3 4.4,2.4 9.7,3.4 14.5,2.3 2.7,-0.6 5.3,-1.5 5.8,-3.5 0.2,-0.8 0,-1.8 -0.6,-3 z M 211.8,414.3 v -2.1 c 0,-0.4 0,-0.8 0.1,-1.2 v -0.2 c 0.1,-1 0.1,-2 0.2,-3 v 0 c 0.5,-4.8 1.4,-9.6 2.5,-14.1 1.8,-7.2 4.5,-15.7 11.1,-19.9 0.1,-0.1 0.2,0.1 0.1,0.2 -6.4,5.1 -9.1,13.8 -10.6,21.5 -0.6,3.1 -1,6.3 -1.3,9.4 v 0 c -0.4,3.9 -0.6,7.6 -0.8,11.5 v 0.3 c 0,0.4 -0.1,0.9 -0.1,1.3 0,0.6 -0.1,1.2 -0.1,1.8 0,0.6 -1,0.6 -1.1,0 -0.1,-1.2 -0.1,-2.5 -0.1,-3.8 v -0.9 c 0.1,-0.3 0.1,-0.6 0.1,-0.8 z m 7.7,15.4 v 0 c -0.1,-0.8 -0.1,-1.5 -0.2,-2.2 v -3.8 c 0.1,-2.6 0.4,-5.3 0.7,-7.9 0,-0.3 0.1,-0.5 0.1,-0.8 v 0 c 0,0.3 -0.1,0.6 -0.1,0.9 -0.4,3.5 -0.7,7.1 -0.5,10.6 0,0.3 0,0.6 0.1,1 v 0.4 c 0,0.3 0.1,0.6 0.1,0.8 0,0.2 0,0.3 0.1,0.5 0,0.2 0.1,0.5 0.1,0.7 0,0.2 0,0.3 0.1,0.5 0.1,0.3 0.1,0.6 0.1,0.9 0,0.3 0.1,0.3 0.1,0.5 0,0.2 0.1,0.4 0.1,0.6 0.2,0.9 0.5,1.9 0.8,2.8 0,0.1 -0.1,0.2 -0.2,0.1 -0.1,-0.2 -0.1,-0.4 -0.2,-0.6 v 0 c -0.6,-1.6 -0.9,-3.3 -1.2,-5 z m -15.3,8.9 c -0.1,0.2 -0.1,0.4 -0.2,0.5 -0.1,0.4 -0.2,0.7 -0.3,1 h -0.2 c -0.1,0.5 -0.3,1.1 -0.5,1.6 0.1,-0.4 0.2,-0.9 0.4,-1.3 0.3,-0.6 0.5,-1.2 0.8,-1.8 z m -6.7,3.1 c -0.4,0.9 -0.8,1.8 -1.1,2.8 -0.4,1.1 -0.9,3.3 -0.9,5.3 v 0.2 c -2,-9.6 2.8,-14.8 7.7,-20.8 -0.5,0.9 -0.9,1.8 -1.4,2.7 -1.8,3.1 -3.2,6.4 -4.3,9.8 z m 5.1,30.8 c 0,0 0,0.1 0,0 v 0.2 h -0.4 c -0.1,-0.6 -0.2,-1.2 -0.3,-1.7 0,-0.2 -0.1,-0.4 -0.1,-0.6 -0.1,-0.3 -0.1,-0.6 -0.1,-1 0,-0.4 -0.1,-0.5 -0.1,-0.8 0,-0.3 -0.1,-0.5 -0.1,-0.8 0,-0.3 -0.1,-0.6 -0.1,-0.8 -0.1,-0.8 -0.1,-1.5 -0.1,-2.3 0,-0.8 0,-1.2 -0.1,-1.8 v -0.2 c 0,-1.4 0,-2.8 0.1,-4.2 v -0.4 c 0,-0.6 0.1,-1.2 0.1,-1.8 v -0.4 c 0.1,-0.7 0.1,-1.4 0.2,-2 v 0 c 0.1,-0.7 0.2,-1.5 0.3,-2.2 v -0.2 c 0.1,-0.6 0.2,-1.3 0.3,-1.9 0,-0.1 0.1,-0.3 0.1,-0.4 0.1,-0.6 0.2,-1.2 0.3,-1.8 0.2,-0.8 0.3,-1.6 0.5,-2.4 -0.1,0 -0.1,0.1 -0.1,0.1 0,-0.2 0.1,-0.4 0.1,-0.7 v 0.5 c 0.3,-1.4 0.7,-2.7 1,-4.1 0,-0.1 0.3,-0.1 0.2,0 -2.6,10.6 -2.7,21.1 -1.7,31.7 z m 4.3,13.6 c -0.1,-0.3 -0.2,-0.6 -0.3,-0.9 0,-0.1 -0.1,-0.2 -0.1,-0.3 -0.1,-0.2 -0.1,-0.4 -0.2,-0.6 0,-0.1 -0.1,-0.2 -0.1,-0.4 0,-0.2 -0.1,-0.4 -0.1,-0.5 0,-0.1 -0.1,-0.3 -0.1,-0.4 0,-0.2 -0.1,-0.3 -0.1,-0.5 0,-0.2 -0.1,-0.3 -0.1,-0.5 0,-0.2 -0.1,-0.3 -0.1,-0.5 0,-0.2 -0.1,-0.3 -0.1,-0.5 0,-0.2 0,-0.2 -0.1,-0.4 -0.1,-0.5 -0.1,-0.9 -0.2,-1.4 -0.4,-3.1 -0.5,-6.2 -0.6,-9.2 -0.1,-5.4 0,-10.8 0.1,-16.2 0,-0.3 0.5,-0.3 0.5,0 0.1,5.4 0.1,10.7 0.3,16.1 0.2,4.4 0.9,8.7 1.5,13.1 0.1,0.9 0.2,1.8 0.4,2.8 0.1,0.5 -0.5,0.7 -0.6,0.3 z m 4.5,6.8 c -3.4,-9.2 -4.3,-19.9 -3.4,-29.7 0,-0.1 0.1,-0.1 0.1,0 -0.3,5.1 0,10.2 0.8,15.2 0.8,4.8 2.1,9.5 3.1,14.2 0,0.5 -0.5,0.7 -0.6,0.3 z m 6.8,10.2 c -1.9,-4.5 -3.6,-9.1 -5.2,-13.7 -1.5,-4.1 -2.6,-8.4 -2.6,-12.8 0,-4.4 0.1,-0.1 0.1,0 0.2,4.8 1.9,9.4 3.7,13.8 1.7,4 3.9,8.1 4.7,12.4 0.1,0.5 -0.5,0.6 -0.7,0.3 z m 7.4,6.1 c -4.7,-5.2 -9.6,-12.3 -10,-19.6 0,-0.1 0.1,-0.1 0.1,0 0.8,7.3 6,13.6 10.3,19.3 0.3,0.2 -0.1,0.5 -0.4,0.3 z m 1.1,-61.2 c -0.2,-0.6 -0.4,-1.1 -0.6,-1.7 -0.1,-0.2 -0.1,-0.5 -0.2,-0.7 -0.1,-0.3 -0.2,-0.7 -0.4,-1 -0.1,-0.3 -0.2,-0.6 -0.3,-1 -0.1,-0.3 -0.2,-0.5 -0.2,-0.8 -0.1,-0.4 -0.2,-0.8 -0.3,-1.2 -0.1,-0.2 -0.1,-0.4 -0.2,-0.6 -0.1,-0.4 -0.2,-0.9 -0.4,-1.3 0,-0.1 -0.1,-0.3 -0.1,-0.4 -0.1,-0.5 -0.2,-1 -0.4,-1.5 0,-0.1 0,-0.2 -0.1,-0.2 -0.1,-0.5 -0.2,-1.1 -0.4,-1.6 v 0 c -0.1,-0.7 -0.2,-1.3 -0.4,-1.8 v 0 c -0.9,-4.5 -1.4,-8.9 -1.1,-13.4 0,-0.1 0.1,-0.1 0.1,0 0,4.1 0.7,8 1.6,12 v 0 c 0.1,0.7 0.3,1.3 0.4,1.9 1.1,4.4 2.8,8.7 3.5,13.2 0.3,0.4 -0.3,0.5 -0.5,0.1 z m 5.8,4 H 232 c 0,0 -0.1,0 -0.1,-0.1 h -0.1 c -0.2,-0.5 -0.4,-0.8 -0.6,-1.2 -0.1,-0.1 -0.1,-0.2 -0.2,-0.4 -0.1,-0.3 -0.3,-0.6 -0.4,-0.9 -0.1,-0.1 -0.1,-0.2 -0.2,-0.4 -0.2,-0.4 -0.3,-0.7 -0.5,-1.1 -0.1,-0.1 -0.1,-0.3 -0.2,-0.4 -0.1,-0.3 -0.2,-0.5 -0.3,-0.8 -0.1,-0.2 -0.1,-0.4 -0.2,-0.5 -0.1,-0.2 -0.2,-0.4 -0.2,-0.6 -0.1,-0.2 -0.2,-0.4 -0.2,-0.6 -0.4,-1 -0.8,-2.1 -1.1,-3.1 v 0 c -0.1,-0.3 -0.2,-0.5 -0.3,-0.8 -1.1,-3.1 -1.7,-6.2 -1.6,-9.4 0,-0.1 0.1,-0.1 0.1,0 0,0.3 0,0.6 0.1,0.8 v 0.2 c 0,0.2 0,0.4 0.1,0.6 v 0.3 c 0,0.2 0.1,0.4 0.1,0.6 v 0.2 c 0.1,0.3 0.1,0.6 0.2,0.8 v 0 c 0.1,0.3 0.1,0.5 0.2,0.8 v 0.2 c 0.1,0.2 0.1,0.5 0.2,0.7 v 0 c 0.4,1.6 1,3.1 1.6,4.5 v 0 c 0.2,0.4 0.3,0.7 0.5,1.1 1.3,2.9 3.1,5.7 3.8,8.8 v 0 c 0,0.4 0,0.6 -0.2,0.7 z m 15.4,9.8 c -1.3,-0.5 -2.6,-1.2 -3.8,-2 v 0 c -0.2,-0.1 -0.4,-0.2 -0.6,-0.4 -0.1,0 -0.1,-0.1 -0.2,-0.1 -0.1,-0.1 -0.2,-0.2 -0.4,-0.3 -0.1,0 -0.1,-0.1 -0.2,-0.2 -0.1,-0.1 -0.2,-0.2 -0.3,-0.3 q -0.1,-0.1 -0.2,-0.2 c -0.1,-0.1 -0.2,-0.2 -0.3,-0.3 q -0.1,-0.1 -0.2,-0.2 c -0.1,-0.1 -0.2,-0.2 -0.3,-0.3 q -0.1,-0.1 -0.2,-0.2 c -0.1,-0.1 -0.2,-0.2 -0.3,-0.3 q -0.1,-0.1 -0.2,-0.2 c -0.1,-0.1 -0.2,-0.2 -0.3,-0.3 q -0.1,-0.1 -0.1,-0.2 c -0.1,-0.2 -0.3,-0.3 -0.4,-0.5 0,0.1 0.1,0.2 0.1,0.4 1.4,1.5 2.7,2.9 3.9,4.4 0.5,0.7 -0.4,1.5 -1,1 -1,-0.7 -1.7,-1.6 -2.2,-2.5 -1.2,-1.3 -2.4,-2.6 -3.6,-4 -0.3,-0.4 -0.7,-0.8 -1,-1.2 -0.2,-0.2 -0.4,-0.5 -0.5,-0.7 h -0.1 c -0.4,-0.6 -0.7,-1 -1.1,-1.5 h -0.1 c -0.1,-0.3 -0.3,-0.5 -0.4,-0.7 h -0.1 c -0.3,-0.6 -0.6,-1.1 -0.9,-1.5 0,0 -0.1,-0.1 -0.1,-0.2 l -0.3,-0.6 h -0.1 c -0.1,-0.3 -0.3,-0.6 -0.4,-0.8 v 0 c -0.1,-0.3 -0.2,-0.5 -0.3,-0.7 0,-0.1 -0.1,-0.1 -0.1,-0.2 l -0.3,-0.6 c 0,0 0,-0.1 -0.1,-0.1 -0.1,-0.2 -0.2,-0.5 -0.3,-0.8 0,0 0,-0.1 -0.1,-0.2 -0.1,-0.2 -0.1,-0.4 -0.2,-0.6 q 0,-0.1 -0.1,-0.2 c -0.1,-0.2 -0.1,-0.5 -0.2,-0.7 v 0 c -0.1,-0.4 -0.1,-0.6 -0.1,-0.9 v -0.2 c 0,-0.2 -0.1,-0.4 -0.1,-0.6 v -0.2 c 0,-0.3 -0.1,-0.5 -0.1,-0.8 0,-0.3 0.4,-0.3 0.4,0 0,0.3 0.1,0.7 0.1,1 v 0.2 c 0.1,0.3 0.1,0.6 0.2,0.9 q 0,0.1 0.1,0.2 c 0.1,0.3 0.1,0.6 0.2,0.8 v 0 c 0.1,0.4 0.2,0.6 0.3,0.9 0,0.1 0.1,0.2 0.1,0.3 0.1,0.2 0.2,0.5 0.3,0.7 0.1,0.1 0.1,0.2 0.1,0.3 0.1,0.2 0.2,0.4 0.3,0.5 0.1,0.2 0.2,0.3 0.3,0.5 0.1,0.1 0.2,0.3 0.2,0.4 0,0.1 0.2,0.3 0.2,0.4 0.1,0.1 0.1,0.2 0.2,0.3 0.1,0.2 0.3,0.5 0.5,0.7 0,0 0.1,0.1 0.1,0.2 1.5,2.2 3.4,4.2 5.2,6.1 -0.1,-0.3 -0.2,-0.7 -0.3,-1 -0.1,-0.4 0.3,-0.7 0.6,-0.4 0.2,0.1 0.4,0.3 0.6,0.4 q 0.1,0.1 0.2,0.2 c 0.1,0.1 0.2,0.2 0.3,0.3 0.1,0.1 0.2,0.2 0.3,0.3 0.1,0.1 0.2,0.1 0.2,0.2 0.8,0.8 1.6,1.6 2.5,2.2 1.5,1.1 3.1,2.1 4.7,3 1,0.4 0.6,1.4 0,1.1 z m -28.1,169.3 c -0.2,-0.3 -0.4,-0.8 -0.6,-1.2 -0.2,-0.6 -0.3,-1.2 -0.4,-1.8 0.3,0 0.6,0 0.9,0 1.2,0 2.1,0.8 3,1.5 1.7,1.5 2.2,3.6 3.1,5.6 0,0 0,0 0.1,0 0.1,1.5 0.1,2.9 0.1,4.4 -2.3,-2.6 -4.4,-5.4 -6.2,-8.5 z m 3.6,-3.6 c -1.6,-0.6 -3.1,-0.9 -4.8,-0.8 -0.1,-0.7 -0.3,-1.2 0,-1.9 0.6,-1 2,-1.1 3.1,-0.9 0.8,0.2 3.7,1.3 3.9,2.6 h 0.1 c 0.2,1.1 0.6,2.2 1,3.2 -1,-1 -2.2,-1.7 -3.3,-2.2 z m 11.4,10.3 c -0.2,0 -0.4,0 -0.5,-0.3 -0.1,-0.3 -0.2,-0.5 -0.3,-0.8 -0.9,-1.3 -1.8,-2.7 -2.5,-4.1 -0.2,-1.2 -0.6,-2.3 -0.9,-3.5 -0.5,-1.9 -2.3,-7.1 1.8,-7.4 0.8,0 1.3,0 1.8,0 0.4,0.3 0.7,0.6 1.1,0.8 0.4,0.7 0.4,1.6 0.6,3.1 0.4,4.2 -0.1,8.9 0.1,13.4 -0.4,-0.4 -0.8,-0.8 -1.2,-1.3 v 0 z m 13,2.6 c -0.7,-0.9 -1.4,-1.9 -2,-3 -0.1,-0.2 -0.3,-0.5 -0.4,-0.7 -1.4,-2.5 -2.5,-5.2 -3.1,-8.1 -0.4,-1.9 -0.7,-4.1 0.1,-6 0.8,-2 3,0.3 4.1,1.1 0.5,0.4 1.2,0.8 1.6,1.2 0.4,0.5 0.3,0.8 0.3,1.3 -1.7,2.2 -0.5,6.9 -0.1,9.2 0.4,2 0.6,5 1.6,7.3 -0.8,-0.6 -1.5,-1.6 -2.1,-2.3 z m 1.6,-17 c -1.7,-0.8 -3.1,-2.1 -4.8,-2.8 -0.3,-0.2 -0.7,-0.3 -1.1,-0.4 0.4,-0.5 0.8,-0.9 1.3,-1.3 2.1,-1.6 3.5,0.7 4.6,2.1 0.4,0.5 0.7,0.9 1.1,1.3 -0.4,0.3 -0.8,0.6 -1.1,1.1 z m 51,3.4 v 0 q -0.1,0 -0.2,-0.2 c -0.3,-1.1 0.2,-2.3 1.5,-2.5 v 0 c 0.1,0 0.2,0 0.4,0 h 0.2 c 0,1.1 0.1,2.2 0.3,3.3 -0.6,0 -1.2,-0.2 -1.9,-0.2 v 0 c -0.2,0 -0.3,-0.2 -0.3,-0.3 v 0 z m 3.5,9.4 c -1,-1.8 -2,-3.6 -3,-5.4 -0.2,-0.3 -0.4,-0.7 -0.4,-1.1 0,-1.2 1.4,-0.9 2.2,-0.7 0.2,0.9 0.3,1.9 0.5,2.8 0.3,1.3 0.6,2.6 1,3.9 -0.1,0 -0.2,0.3 -0.3,0.5 z m 7.9,5.4 c -1.3,-2.9 -2.4,-5.8 -3.2,-8.9 -0.5,-1.7 -0.7,-3.4 -1,-5.2 0.7,0.2 1.5,0.2 2.2,0.2 0.9,0 1.8,0.4 2.5,0.9 0,0.2 -0.1,0.3 -0.1,0.5 0.1,3.7 0.4,8.4 -0.4,12.5 z m 1.3,-14.5 c -0.8,-0.4 -1.7,-0.6 -2.6,-0.8 -1,0 -1.7,0 -2.7,0 h -0.4 c 0,-0.9 0,-1.8 0.1,-2.8 1.9,0 6,2.2 5.8,2.8 0,0.3 0,0.5 -0.2,0.7 v 0 z m 2.7,-2.9 c 0,0 -0.1,0.2 -0.1,0.2 -0.2,0.3 -0.6,0.3 -1,0.5 -0.1,0 -2.8,-1.5 -3.2,-1.7 -1.1,-0.4 -2.3,-0.7 -3.5,-0.5 -0.1,0 -0.3,0 -0.5,0 0.1,-0.8 0.3,-1.6 0.5,-2.4 0.4,-0.5 0.8,-1 1.3,-1.3 1.2,-0.8 2.5,0.2 3.8,0.6 0.6,0.6 1.1,1.3 1.6,2.1 0.5,0.6 1.4,1.7 1.1,2.4 v 0 z m 118.3,-31.5 c 3,1.5 5.6,3.8 8.1,5.9 8.4,9.5 15.5,20.3 23.3,30.3 -0.1,0 -0.3,-0.2 -0.4,-0.2 -0.8,-0.8 -1.5,-1.6 -2.2,-2.4 -3.9,-4.3 -7.9,-8.5 -11.6,-13 -3.5,-4.2 -7.1,-8.3 -10.8,-12.3 -2.6,-2.9 -5.3,-6.2 -8.3,-9 0.6,0 1.2,0.3 1.9,0.7 z m 17.1,23.2 c -0.1,0 -0.2,0 -0.4,-0.2 -0.6,-0.6 -1.2,-1.3 -1.9,-1.9 0.3,0.2 0.5,0.5 0.8,0.7 0.6,0.5 1.1,1 1.5,1.4 z m -20.8,-18 c -0.4,-0.4 -0.9,-0.8 -1.3,-1.2 -2,-1.8 -4,-3.9 -6.2,-5.8 0.4,0.2 0.8,0.4 1.3,0.6 2,2.1 4.1,4.3 6.2,6.4 z m -49.1,-68.7 c 7.6,7 15.9,13.3 23.9,19.9 0.7,0.5 1.4,1.1 2,1.7 v 0 c 0,0 0.1,0 0.1,0 2.5,2 5.1,4.1 7.6,6.2 v 0 c 3.7,3.1 7.4,6.3 10.7,9.8 0.5,0.8 0.9,1.5 1.2,2.4 0.1,0.2 0.1,0.4 0.2,0.6 -3.8,-3.3 -7.4,-6.9 -11.2,-10.3 -0.1,0 -0.3,-0.3 -0.4,-0.4 v 0 q -0.1,0 -0.2,-0.2 c -1.6,-1.4 -3.2,-2.8 -4.8,-4.1 -0.5,-0.5 -1,-0.9 -1.6,-1.3 -0.3,-0.2 -0.5,-0.5 -0.8,-0.7 v 0 c -1.4,-1.2 -2.7,-2.3 -4.1,-3.5 -7.5,-6.7 -15.2,-13.3 -22.6,-20.2 -0.2,0 0,-0.1 0,0 v 0 z m 12.6,22.3 c 5.6,4.5 11.2,8.8 16.8,13.3 2.9,2.3 5.8,4.6 8.7,6.9 2.7,2.1 5.6,4.1 8,6.5 0.5,0.5 -0.1,1.2 -0.7,0.9 -3.1,-1.9 -6,-4.5 -8.8,-6.7 -1.4,-1.1 -2.7,-2.2 -4.1,-3.3 -1.5,-1.2 -3,-2.5 -4.6,-3.7 -2,-1.6 -3.9,-3.2 -5.9,-4.8 -0.5,-0.4 -1,-0.8 -1.5,-1.2 -1.8,-1.5 -3.7,-3.1 -5.5,-4.6 -1.2,-1 -2.4,-2 -3.6,-3 -10.9,-9.1 -21.7,-18.4 -32.5,-27.7 v 0 c 11.1,9.2 22.4,18.3 33.7,27.4 z m -2.7,8.3 c -1.2,-0.9 -2.3,-1.8 -3.5,-2.7 -0.2,-0.2 -0.5,-0.4 -0.7,-0.6 -1,-0.8 -2.1,-1.7 -3.1,-2.5 -0.1,0 -0.2,0 -0.2,-0.2 -1.2,-1 -2.4,-2 -3.5,-3 h -0.1 c -1.2,-1.1 -2.3,-2.1 -3.5,-3.1 -0.3,-0.2 -0.5,-0.5 -0.8,-0.7 -1.5,-1.3 -3,-2.6 -4.5,-3.9 -1.2,-1.1 -2.5,-2.2 -3.7,-3.3 -3.7,-3.3 -7.4,-6.6 -11.1,-10 -6,-5.4 -11.7,-11.1 -16,-18 v 0 c 4.7,7.1 10.8,13.1 17.2,18.6 5.6,4.8 11.2,9.6 16.9,14.4 v 0 c 0.6,0.5 1.2,1 1.8,1.5 2,1.7 4,3.3 6.1,5 h 0.1 c 1.8,1.6 3.7,3 5.5,4.4 0.3,0.2 0.5,0.4 0.8,0.6 0.4,0.3 0.8,0.6 1.2,0.9 0.4,0.3 0.8,0.6 1.3,0.9 0.4,0.3 0.7,0.5 1.1,0.8 0.5,0.4 1,0.8 1.5,1.1 0.3,0.2 0.6,0.4 0.9,0.6 0.8,0.6 1.6,1.2 2.5,1.8 7.3,5.1 14.9,9.5 22.6,14 0.5,0.3 0.2,1.2 -0.4,0.9 -0.9,-0.4 -1.8,-0.8 -2.7,-1.3 -0.2,0 -0.3,-0.2 -0.5,-0.2 -0.8,-0.4 -1.5,-0.8 -2.3,-1.2 -0.3,-0.2 -0.6,-0.3 -1,-0.5 -0.6,-0.3 -1.2,-0.7 -1.9,-1 -0.5,-0.3 -1,-0.5 -1.5,-0.8 -0.1,0 -0.2,0 -0.4,-0.2 -1,-0.6 -1.9,-1.2 -2.9,-1.7 v 0 c -5.1,-3.3 -10.2,-6.8 -15.2,-10.6 z M 340.3,451.4 c 0.3,0.2 0.6,0.3 1,0.3 4.3,3.8 8.6,7.5 12.9,11.2 -3.6,-1.9 -7.3,-3.7 -11.1,-5.4 v 1.4 c 7,5.2 13.7,11.1 20.1,17.2 -2.5,-1.9 -5.1,-3.8 -7.8,-5.5 -3.1,-2 -7.6,-3.7 -9.9,-6.7 -0.5,-0.9 -1,-1.8 -1.6,-2.7 -1.2,-2.5 -2,-5.2 -3.5,-7.5 -0.1,-0.2 -0.2,-0.4 -0.3,-0.6 -0.4,-0.9 -0.9,-1.8 -1.3,-2.7 0.6,0.2 1,0.6 1.5,1 z M 308.4,387 c -0.3,-0.3 -1,0.2 -0.8,0.5 1.9,2.4 2.5,5.8 2,8.8 -0.4,-1.1 -0.8,-2.2 -1.1,-3 -0.4,-1.1 -2.1,-0.3 -2,0.6 0.1,1.5 0.2,3 0.1,4.5 h 0.1 c -0.2,1.1 0.1,2.3 0.3,3.4 0.1,0.4 0.4,0.6 0.8,0.5 v 0.3 c -0.1,0.1 -0.1,0.3 -0.2,0.4 -0.4,1 -0.5,2.1 -0.5,3.2 -0.6,-0.1 -1.5,0.5 -1.6,1.2 -0.5,3.2 -0.2,6.5 1.4,9.4 1.6,2.8 3.5,6.3 6.9,6.7 0.8,0.1 1.8,-0.8 1.8,-1.6 v -0.2 c 2,1.5 4.4,2.8 6.5,1.7 -1.5,-1.5 -3.1,-2.8 -4.9,-3.8 -0.1,-0.1 0,-0.3 0.1,-0.2 3,0.9 5.5,2.8 7.7,4.9 h 0.6 c 0.9,1 1.6,2.1 2.4,3.2 0.4,0.5 0.9,1.1 1.3,1.6 2.9,3.9 6.7,9.1 6.9,14.1 0,0.3 -0.2,0.6 -0.4,0.7 h -0.7 c 0,-0.1 0,-0.2 -0.1,-0.2 -0.3,-0.6 -0.6,-1.2 -0.9,-1.9 0,-0.1 -0.1,-0.2 -0.1,-0.3 v 0 c -0.8,-1.7 -1.6,-3.3 -2.4,-5 v 0 c -0.7,0 -1.3,0.5 -1.4,1.2 v 0.2 c 0,0.3 0.2,0.5 0.4,0.6 q 0.1,0 0.2,0.1 h -0.2 c 0.4,0.7 0.7,1.2 1.1,1.8 -0.5,0 -1,0 -1.5,0.3 -0.4,0.2 -0.7,0.4 -0.8,0.7 -0.3,-0.6 -0.7,-1.1 -1,-1.6 -1.3,-2.2 -2.8,-4.1 -4.5,-6.1 -1.7,-2 -3.6,-3.5 -5.5,-5.2 -0.8,-0.7 -2,0.3 -1.4,1.2 1.7,2.5 3.2,5.1 4.7,7.8 -0.3,-0.2 -0.6,-0.4 -0.9,-0.6 -0.4,-0.6 -0.9,-1.3 -1.3,-1.9 -0.1,-0.2 -0.2,-0.5 -0.4,-0.8 -0.9,-1.5 -2.1,-2.8 -3.4,-3.9 -1,-0.8 -2.1,-1.4 -3.2,-1.9 -1.6,-1.1 -3.3,-2.1 -5,-3.1 -1,-0.9 -1.8,-1.8 -2.6,-2.8 -1.3,-2.1 -2.3,-4.5 -3.2,-6.9 0.2,-0.3 0.4,-0.6 0.5,-0.9 0.5,2.1 1.6,4 3.7,4.9 0.5,0.2 1,-0.4 0.9,-0.8 -0.4,-2.1 -1.7,-3.7 -2.5,-5.7 -0.9,-2.2 -1.3,-5 -0.8,-7.3 0.1,-0.4 -0.5,-0.3 -0.6,0 -0.4,1.2 -0.8,2.8 -0.9,4.4 -0.3,-1.5 -0.6,-3 -1,-4.5 0.2,-0.4 0.3,-0.8 0.4,-1.2 0.5,-1.8 0.6,-3.5 0.5,-5.1 0.7,0.8 2.4,0.6 3,-0.2 1.4,-1.9 0.9,-3.8 0.5,-6 -0.1,-0.4 -0.2,-0.8 -0.3,-1.2 1,-1.9 0.5,-4.2 -1.1,-5.6 h 0.1 c -1.2,-1.1 -2.5,-2.2 -3.9,-3.3 3.2,1.2 6.6,1.8 9.8,3.1 0,0.2 0.1,0.4 0.3,0.6 1.4,1.9 2.6,3.7 2.7,6 -1.2,-2.1 -2.9,-4.1 -4.6,-5.8 z m 9.2,114.8 c -0.3,-0.4 -0.7,-0.8 -1,-1.1 l -0.4,-0.4 c -0.1,-0.1 -0.3,-0.2 -0.4,-0.4 -0.3,-0.3 -0.6,-0.6 -1,-0.9 -0.1,-0.1 0,-0.2 0.1,-0.1 0.9,0.7 1.7,1.5 2.5,2.2 0,0.2 0.2,0.4 0.2,0.7 z M 296.8,355.3 c 0.2,0 0.3,-0.1 0.5,-0.1 v 0 c 0.1,-0.1 0.3,-0.1 0.5,-0.2 h 0.3 c 1,-0.3 2,-0.6 2.9,-1 1.7,-0.2 3.1,-0.6 4.8,-1.4 0.6,-0.3 0.5,-1.1 -0.2,-1 -1.2,0.1 -2.4,0.1 -3.5,0.1 -0.2,-0.1 -0.5,-0.2 -0.9,-0.1 -0.3,0 -0.7,0 -1,0.1 -0.5,0 -1,0.4 -1.3,0.8 h -0.1 c -0.5,-0.4 -1.5,-0.5 -2.3,0.1 -0.3,0.2 -0.6,0.4 -0.8,0.6 h -0.2 c 0.1,-0.1 0.3,-0.3 0.4,-0.5 0.2,-0.2 0.3,-0.5 0.3,-0.7 0.2,-0.3 0.5,-0.6 0.6,-0.9 0.3,-0.9 -0.6,-1.3 -1.5,-1 -0.4,0.1 -0.9,0.3 -1.3,0.4 -0.1,0 -0.3,0 -0.4,0.1 v 0 c -0.5,0.2 -0.9,0.5 -1,0.9 h -0.1 c 0.1,-0.6 0.3,-1.3 0.6,-2 0.2,-0.5 0.1,-0.8 -0.1,-1 0.4,-0.3 0.8,-0.5 1.2,-0.8 -0.2,0.3 -0.5,0.6 -0.7,1 -0.1,0.1 0.1,0.2 0.2,0.1 2.1,-1.7 3.9,-3.6 6.2,-5.1 2.4,-1.5 5.4,-1.9 8.3,-1.9 0.4,0.1 0.9,0.2 1.4,0.3 11.7,-0.9 24,-2 35.4,0.8 6.7,1.6 14.3,4.2 18,9.5 0.6,1 0.8,2 1,3 -9.9,-5.4 -24.1,-3 -35.2,-2.5 -2.6,0.1 -5.1,0.3 -7.6,0.5 -4.4,0.8 -8.7,1.6 -13,2.8 -5.9,1.5 -11.1,3.9 -16.8,5.9 -3.5,1.3 -7.1,1.8 -10.7,2.5 0.1,0.2 0.3,0.5 0.5,0.7 0.1,0 0.1,0.1 0.2,0.1 0.2,0.7 0.7,1.2 1.4,1.4 1,0 2.1,0.1 3.2,0.4 0.6,0 1.2,-0.1 1.7,-0.1 0.3,0.1 0.6,0.1 0.9,0.2 0.9,0.2 1.8,0.5 2.8,0.6 2.7,0.8 5.5,1.4 8,2.2 5.6,1.9 11.3,3.4 17.1,4.7 6,1.4 12,2.5 18.1,3.4 3.6,0.2 7.2,0.7 10.8,1.2 h 0.6 c 2.5,0.5 5.1,0.8 7.7,1.1 -5.1,1.4 -10,2.1 -15.4,2 -2.3,-0.3 -4.5,-0.7 -6.8,-0.8 -7.6,-0.5 -15.4,-1.7 -23,-1.5 -1.8,0 -3.5,0 -5,-0.1 -1.2,-0.3 -2.3,-0.6 -3.4,-1.2 -1.7,-0.9 -2.6,-2.7 -4.1,-3.8 -0.2,-0.2 -0.4,-0.3 -0.6,-0.4 -1,-1.2 -2.2,-2.2 -3.5,-3.1 h -0.3 c -0.5,-0.1 -1,-0.1 -1.5,-0.1 -1.2,-1 -3.2,-1.3 -4.6,-1.5 -2,-0.3 -4.5,-0.7 -6.7,-0.4 -0.1,-0.1 -0.2,-0.2 -0.3,-0.4 0.1,-0.1 0.2,-0.1 0.3,-0.2 0.2,-0.1 0.3,-0.6 -0.1,-0.6 -0.4,0 -0.4,0.1 -0.6,0.1 -0.1,-0.1 -0.1,-0.3 -0.2,-0.4 0.4,-0.3 0.8,-0.5 1.2,-0.7 0,0 0,-0.1 0,0 -0.3,0.1 -0.7,0.1 -1,0.1 0.6,-0.3 1.1,-0.6 1.5,-1.2 0.1,-0.1 0.2,-0.3 0,-0.4 -0.8,-0.5 -1.7,-0.3 -2.6,0.1 -0.2,-0.6 -0.5,-1.2 -0.7,-1.8 0.3,-0.2 0.6,-0.4 0.9,-0.5 0.3,-0.1 0.5,-0.3 0.8,-0.4 0,0.1 0.1,0.1 0.1,0.2 0,-0.1 0,-0.2 0.1,-0.3 0.5,-0.3 1.1,-0.6 1.6,-0.9 0.6,0 1.2,0.1 1.8,0.1 4.2,-0.9 8.1,-2 12.2,-3.5 1.1,-0.7 2.2,-1.5 3,-2.4 0.1,-0.6 0.2,-1 0,-1.2 z m -11.5,190.2 c 0,0 0,0 0,0 -0.1,-0.2 -0.2,-0.3 -0.3,-0.5 0,0 0,0 -0.1,0 -0.1,0 -0.1,-0.2 -0.2,-0.4 -0.3,-0.5 -0.6,-1.1 -0.9,-1.7 -0.3,-0.5 -0.5,-1.1 -0.8,-1.6 -0.2,-0.3 -0.3,-0.7 -0.5,-1 v 0 c -0.5,-1.2 -1,-2.3 -1.4,-3.5 -1.9,-5.3 -3.4,-10.8 -4,-16.4 0,0 0.1,0 0.1,0 0.6,5.3 2.3,10.6 4.3,15.6 1.1,2.8 2.3,5.5 3.9,8.1 0.2,0.3 0.4,0.5 0.5,0.8 0.1,0 0.1,0.2 0.2,0.2 0.1,0.2 0.3,0.4 0.4,0.5 0.5,0.6 1,1.2 1.5,1.8 0.4,0.5 0.7,1 1.1,1.5 0.1,0.2 -0.1,0.5 -0.3,0.4 -0.6,-0.2 -1.1,-0.6 -1.5,-1 -0.3,-0.3 -0.5,-0.5 -0.8,-0.9 v 0 c -0.2,-0.3 -0.5,-0.6 -0.7,-0.9 v 0 c -0.1,-0.2 -0.2,-0.3 -0.3,-0.5 v 0 c -0.1,0 -0.1,-0.3 -0.2,-0.4 v 0 z m 0,13.4 c -0.2,0 -0.5,-0.2 -0.7,-0.3 -0.4,-0.2 -0.7,-0.5 -1,-0.7 0.3,0.2 0.7,0.5 1,0.7 0.2,0 0.4,0.2 0.7,0.3 z M 271.9,505 c 0,-0.1 0.1,-0.1 0.1,0 0.1,8.9 1.6,17.5 3.7,26 v 0 c 0.2,1.1 0.5,2 0.7,2.9 v 0 c 0.1,0.6 0.3,1.1 0.4,1.6 v 0 c 0.1,0.4 0.2,0.8 0.3,1.1 v 0 c 0.3,1.1 0.6,2.2 0.9,3.3 0.1,0.3 -0.3,0.5 -0.5,0.2 -0.2,-0.5 -0.4,-1 -0.5,-1.4 -0.1,-0.3 -0.2,-0.5 -0.3,-0.8 -0.6,-1.6 -1.1,-3.2 -1.5,-4.8 -2.3,-9 -3.3,-18.6 -3.3,-28.1 z m 2.2,27.1 c 0,0 0,0 0,0 l -0.8,-0.8 c 0,0 0.1,0 0.2,0 0.2,0.3 0.4,0.6 0.6,0.9 v 0 z m 6.8,-61 c -3.5,-7.1 -5.2,-14.8 -5.3,-22.9 0,-2.3 0.2,-4.5 0.5,-6.7 0.5,-1.4 1.1,-2.8 1.7,-4.2 -2,8.8 -0.3,18.6 2.9,26.7 3.8,9.8 9.4,18.4 17.1,25.4 -5.4,-3.9 -10.2,-8.6 -14.1,-14 -1,-1.4 -1.9,-2.8 -2.8,-4.3 z M 269.7,353.6 c -0.1,0.5 -0.1,1.1 0,1.6 l -0.4,-0.4 c -0.1,-0.1 -0.2,0 -0.2,0.1 0.1,0.3 0.3,0.5 0.4,0.8 -0.1,-0.1 -0.2,-0.3 -0.3,-0.4 -0.3,-0.3 -0.7,-0.3 -1,-0.1 -0.6,-0.4 -1.3,-0.8 -2,-1 1,-0.5 1.9,-1.2 2.7,-1.9 0.7,-0.6 0.2,-1.3 -0.5,-1.3 0.1,-0.1 0.2,-0.2 0.4,-0.3 0.2,-0.1 0.4,-0.2 0.6,-0.3 -0.2,0.5 0.4,0.9 1,0.5 3.6,-2.5 6.9,-3.1 10.5,-3.7 0.1,0 0.2,0.1 0.4,0.1 1,0.4 1.9,0.9 2.9,1.2 0.1,0.1 0.1,0.2 0.3,0.3 h 0.1 c 0,0.1 0,0.2 0.1,0.3 0.5,0.8 1,1.5 1.5,2.3 0,0.4 0.2,0.6 0.4,0.9 0.1,0.4 0.1,0.7 0.2,1.1 -0.1,0.6 0.3,0.9 0.8,0.9 l 0.3,0.3 c 0.1,0.3 0.3,0.5 0.9,0.6 0.5,0.1 1,0.1 1.5,0 -0.4,0.4 -0.7,0.8 -1.1,1.1 -2.4,-0.2 -5.3,1 -7.2,1.8 -0.3,0.1 -0.7,0.5 -0.9,0.9 h -1.7 c -1.2,0 -2.2,-0.3 -3.4,-0.8 -2.5,-1.2 -3.3,-3.7 -5.4,-5 -0.7,0 -0.9,0.3 -0.9,0.4 z m 1.9,173.6 c 0,0 0,0 0,0 -0.5,-1.3 -0.9,-2.8 -1.7,-4 0,0 0,0 0.1,0 0.8,1.2 1.2,2.6 1.6,4 z m 0.7,94.1 c 2.6,0.4 5.3,0.5 8,0.7 1.2,0 3.8,-0.2 4.9,0.6 0.5,0.4 0.7,1 0.2,2 -0.5,1 -0.6,0.8 -1,0.8 -0.4,0 -1.5,-1 -2,-1.3 -1,-0.4 -2.2,-0.7 -3.3,-1 -2.3,-0.7 -4.6,-1.4 -7,-1.6 -5.6,-0.5 -11.2,-0.7 -16.8,0.2 v 0 c -0.1,-0.8 -0.3,-1.4 -0.6,-2.1 -0.3,-0.6 -1.6,-3.3 -1,-3.6 1,-0.7 3.6,1.9 4.1,2.6 0.7,0.8 1.7,2.5 3,1.8 1.3,-0.6 0.6,-2 -0.1,-2.8 -0.2,-0.2 -1.7,-2.3 -1.6,-2.3 h 0.1 -0.1 c -0.1,-0.3 0,-0.7 0.1,-1 0.5,0 1,0.2 1.4,0.2 0.5,0 1.1,0.2 1.7,0.3 h -0.5 c 1.3,4.5 6.4,5.9 10.5,6.5 z M 271,596 c -1.6,2.6 -3.2,5.3 -4.2,8.3 -0.1,0.2 -0.1,0.5 -0.2,0.7 -0.7,2.2 -1.3,5.3 -0.4,7.2 h 0.1 c -1.9,-0.3 -4.2,-0.8 -6.1,-0.5 0.8,-1.7 1.6,-3.3 2.4,-4.9 5.7,-7.9 10.8,-16.4 15.1,-24.8 v 0 c 1.3,0.3 2.6,0.7 3.8,1.4 -3.9,3.7 -7.6,7.9 -10.5,12.6 z m 12.4,-14.5 c -1.5,-0.9 -3.2,-1.3 -4.9,-1 0.3,-0.5 0.5,-1 0.8,-1.5 h 7.1 c -1,0.6 -2,1.5 -3,2.5 z m 12.5,-15.3 c -4.3,0.6 -9.2,-1.7 -12.9,-3.6 -4.4,-2.3 -8.5,-5.1 -13.1,-7 -0.1,0 0,0 0,0 4.4,1.8 8.5,4 12.8,5.9 2.1,0.9 4.2,1.8 6.4,2.4 2.2,0.7 4.5,0.9 6.8,1.3 0.6,0 0.6,1 0,1.1 v 0 z m 13.9,-2.1 c -2.8,-0.9 -5.4,-3.2 -7.6,-5.1 -2.1,-1.9 -4.2,-3.9 -6,-6 -1.2,-1.4 -2.4,-2.8 -3.5,-4.3 -0.5,-0.7 -1.1,-1.4 -1.6,-2.1 -0.1,-0.2 -0.2,-0.3 -0.4,-0.5 -0.3,-0.4 -0.6,-0.8 -0.9,-1.3 -0.5,-0.7 -1,-1.5 -1.6,-2.2 -0.2,-0.3 -0.4,-0.6 -0.6,-0.9 -0.7,-1 -1.4,-2 -2.1,-3 -0.3,-0.4 0.3,-0.8 0.6,-0.5 0.4,0.6 0.8,1.1 1.2,1.7 0.1,0 0.2,0.3 0.3,0.4 0.3,0.5 0.6,0.9 1,1.4 0.1,0.2 0.2,0.3 0.3,0.4 0.4,0.5 0.8,1 1.1,1.5 0,0 0.1,0 0.1,0.2 0.4,0.5 0.8,1.1 1.2,1.6 0,0 0.1,0 0.1,0.2 0.2,0.2 0.4,0.5 0.5,0.7 0.1,0.2 0.3,0.3 0.4,0.5 0.3,0.4 0.6,0.7 0.9,1.1 0.1,0 0.1,0.2 0.2,0.2 0.3,0.4 0.7,0.8 1,1.2 v 0 c 0.7,0.8 1.3,1.5 2,2.3 2.1,2.3 4.4,4.6 6.9,6.5 2.2,1.7 4.7,3 6.9,4.8 0.7,0.7 0.2,1.4 -0.4,1.2 z m 6.5,0.7 c -3.1,-1 -5.7,-3.2 -8.1,-5.4 -0.3,-0.3 0.1,-0.8 0.4,-0.5 2.6,1.9 5.3,3.5 8.1,5.1 0.4,0.3 0.1,1 -0.4,0.8 z m 5.4,61.6 h -0.5 c -0.4,0 -0.7,-0.2 -0.7,-0.7 0,-0.8 0.1,-1.6 0.3,-2.4 0.1,-0.5 0.2,-1 0.4,-1.5 0.1,-0.5 0.4,-0.9 0.8,-1.1 0.4,-0.2 0.8,0 1.1,0.2 -1.1,1.6 -1.3,3.5 -1.4,5.5 z m 6,12.1 c -0.1,-0.3 -0.2,-0.5 -0.2,-0.8 -0.2,-0.8 -0.4,-1.7 -0.5,-2.6 1.1,0.4 2.4,0.6 3.6,0.5 -0.6,1.5 -1.2,2.7 -2.9,2.9 z m 3.6,-5 c -0.7,0 -1.4,0.2 -2.1,0.3 -0.8,0 -1.6,0.2 -2.4,0 -0.1,-1 -0.2,-1.9 -0.3,-2.9 0.9,0.2 1.7,0.2 2.6,0.2 0.9,0 1.8,0.2 2.7,0 -0.1,0.9 -0.3,1.6 -0.5,2.2 v 0 z m 0.9,-3.8 v 0.2 c -0.6,0 -1.2,0.2 -1.7,0.3 -1.4,0 -2.7,0 -4,0 V 630 c 0,-1 -0.1,-2.1 0,-3.1 1.9,0.7 4.2,0.6 6.1,0.2 -0.2,1 -0.3,1.9 -0.4,2.7 v 0 z m 0.7,-5.6 v 1.4 c -0.8,0 -1.6,0.4 -2.3,0.5 -1.4,0 -2.8,0.3 -4,0 0.1,-1.1 0.2,-2.3 0.3,-3.4 0.3,-1.7 1,-2.9 1.8,-4.3 0.1,-0.2 0.3,-0.3 0.5,-0.5 0.6,-0.2 1.3,0 2.1,0.3 1.9,1 1.8,4.1 1.6,6.1 v 0 z m 2.1,-10.9 c -0.9,-0.2 -1.8,-0.3 -2.7,-0.4 -1.4,-0.3 -2.9,-0.3 -4.2,0 0.2,-0.8 0.4,-1.5 0.7,-2.3 1.3,-0.2 2.6,-0.4 3.6,0 1,0.4 1.8,0.8 2.8,1 -0.2,0.6 -0.2,1.1 -0.2,1.5 v 0 z m -3.4,-4 c -0.9,0 -1.7,0.2 -2.6,0.3 v 0 c 3.2,-5.1 5.3,-11.3 7,-17.6 0.5,0 1,0 1.5,0.3 0.5,0.3 0.9,0.8 1.2,1.3 l 0.3,0.6 c -1.7,5.5 -3.1,10.6 -3.7,16 -1.3,-0.2 -2.4,-1 -3.7,-0.9 z m 4.8,-18.6 c 0.2,-1 0.5,-1.9 0.7,-2.9 0.7,0.2 1.3,0.5 1.9,0.9 0.5,0.3 0.9,0.7 1.4,1 -0.2,0.7 -0.4,1.5 -0.7,2.2 v 0 c -0.6,-0.6 -1.5,-1.1 -2.1,-1.2 -0.5,0 -0.9,0 -1.2,0 z m 5.8,30 c 0.3,0 0.6,0.2 0.9,0.3 0.7,0.2 1.6,0.3 2.4,0.5 0.9,0.2 2,0.4 2.9,0.8 0.3,0.2 0.3,0.7 -0.1,0.7 -2,0 -4,0 -6,0 -2,0 -2,0 -3,0.3 -0.4,0 -2.8,0.4 -2.9,0.7 0,0 0.1,0 0.1,-0.2 h -0.1 c 0,-1 0.4,-2.3 0.9,-3.1 0.5,-0.7 2.2,-0.5 3,-0.4 0.8,0.1 1.3,0.3 1.9,0.5 v 0 z m -1.3,-32.8 c -0.3,-0.3 -0.7,-0.5 -1,-0.7 -0.8,-0.5 -1.6,-0.7 -2.4,-0.7 0.2,-0.9 0.4,-1.8 0.6,-2.6 1,0 2.1,-0.3 3.1,-0.6 0,0.6 0.2,1.1 0.6,1.6 -0.3,1 -0.6,2 -0.9,3 z M 343,581 c -0.3,-0.2 -0.7,0 -1,0 -1.2,0.4 -2.3,0.7 -3.5,0.9 0.1,-0.6 0.3,-1.2 0.4,-1.8 0.2,0 0.4,-0.2 0.6,-0.3 0.8,-0.4 1.4,-1 1.9,-1.7 0.7,0.5 1.1,1.3 1.6,2.1 0.1,0 0.2,0.2 0.4,0.2 -0.2,0 -0.3,0.3 -0.4,0.6 z m 19.8,-32.5 v 0 c -0.8,-0.7 -1.6,-1.4 -2.4,-2.1 -1.2,-1.1 -2.4,-2.1 -3.6,-3.2 -1,-0.9 -2,-1.8 -3,-2.6 -0.3,-0.3 -0.7,-0.6 -1,-0.9 -1.1,-1 -2.3,-2 -3.4,-3 -0.1,0 -0.2,-0.2 -0.3,-0.2 -1,-0.9 -2,-1.8 -3,-2.7 -1.5,-1.3 -3,-2.7 -4.4,-4 -0.3,-0.3 -0.6,-0.6 -1,-0.9 -0.5,-0.5 -1,-0.9 -1.5,-1.4 -0.5,-0.5 -0.6,-0.6 -1,-0.9 -0.5,-0.5 -1.1,-1 -1.6,-1.5 -0.5,-0.5 -0.5,-0.5 -0.8,-0.7 -0.8,-0.7 -1.5,-1.5 -2.3,-2.2 -0.2,-0.2 -0.4,-0.4 -0.6,-0.6 -0.6,-0.6 -1.1,-1.1 -1.7,-1.7 -0.2,-0.3 -0.5,-0.5 -0.8,-0.8 -0.6,-0.6 -1.1,-1.2 -1.7,-1.8 -0.2,-0.2 -0.4,-0.4 -0.6,-0.6 -0.8,-0.8 -1.5,-1.6 -2.3,-2.4 -0.1,0 -0.2,-0.2 -0.3,-0.3 -0.6,-0.7 -1.3,-1.4 -1.9,-2.1 -0.2,-0.2 -0.4,-0.5 -0.6,-0.7 -0.6,-0.6 -1.1,-1.3 -1.7,-1.9 -0.6,-0.6 -0.4,-0.4 -0.5,-0.6 -0.7,-0.9 -1.5,-1.7 -2.2,-2.6 -1.6,-1.9 -3.1,-3.9 -4.6,-5.8 -0.7,-1 -1.4,-1.9 -2.1,-2.9 0,0 0,-0.1 0.1,-0.1 0,0.1 0.1,0.1 0.1,0.2 v 0 c 0.9,1.1 1.8,2.1 2.7,3.2 h 0.1 c 1,1.3 2.1,2.6 3.2,3.8 l 0.2,0.2 v 0 l 0.2,0.2 c 8.2,9.4 17.4,18 26.7,26.2 0.1,0 0.2,0.2 0.3,0.2 h 0.1 c -3.6,-3.5 -7.2,-7.3 -10.7,-11.1 v 0 c -1.6,-1.7 -3.1,-3.5 -4.7,-5.3 v 0 c -1.8,-2.1 -3.6,-4.2 -5.3,-6.3 0,0 0,-0.1 0.1,-0.1 1,1.1 2,2.3 2.9,3.4 0.2,0.2 0.4,0.5 0.7,0.8 1,1.1 2,2.2 3,3.3 v 0 c 2.7,3 5.5,5.9 8.3,8.8 0.1,0 0.3,0.3 0.4,0.4 2.1,2.2 4.3,4.3 6.5,6.5 2.2,2.2 0.4,0.4 0.6,0.6 1.8,1.7 3.6,3.4 5.4,5 v 0 c 1.7,1.6 3.5,3.1 5.2,4.7 h 0.1 c 0.8,0.8 1.6,1.5 2.4,2.2 0.1,0 0.2,0.2 0.3,0.3 0.9,0.8 1.8,1.5 2.7,2.3 0.9,0.7 1.8,1.5 2.7,2.2 0.1,0 0.2,0 0.2,0.2 0.8,0.7 1.7,1.3 2.5,2 v 0 c 1.8,1.4 3.6,2.8 5.5,4.2 v 0 c 3.4,2.5 6.8,5 10.4,7.4 2.7,1.8 5.4,3.5 8.1,5.1 v 0 c 2.6,1.5 5.1,3 7.7,4.5 0.6,0.4 1.2,0.7 1.9,1.1 0.5,0.3 1,0.6 1.4,0.8 1.1,0.7 2.2,1.3 3.3,2 0.4,0.2 0,0.8 -0.4,0.6 -0.6,-0.3 -1.3,-0.6 -1.9,-0.9 -0.1,0 -0.3,0 -0.5,-0.2 -0.6,-0.3 -1.1,-0.5 -1.7,-0.8 -0.1,0 -0.1,0 -0.2,0 -1.4,-0.7 -2.7,-1.4 -4,-2.2 -5,-2.8 -9.8,-6.1 -14.5,-9.2 -1.8,-1.2 -3.5,-2.4 -5.3,-3.7 4.9,3.9 10,7.6 15.3,10.9 2.1,1.3 4.2,2.5 6.4,3.6 v 0 c 5.5,2.8 11.2,5 17.2,6.5 h 0.1 c 0.5,0 1.1,0.3 1.7,0.4 0.2,0 0.4,0 0.5,0 0.4,0 0.9,0.2 1.3,0.3 0.2,0 0.4,0 0.5,0 0.6,0 1.2,0.2 1.8,0.3 0.7,0 0.8,1.3 0,1.3 h -2.2 c -0.4,0 -0.8,0 -1.2,0 -2.6,-0.3 -5.2,-0.8 -7.7,-1.6 -19,-6 -34.8,-19.9 -49.6,-33.1 z m 94,114.7 c -6.4,-3.6 -11.2,-10.6 -15.9,-16.2 -5.1,-6 -10.2,-12.2 -15.2,-18.4 -5,-6.2 -10,-12.4 -15,-18.5 -4,-4.9 -8.7,-9.7 -12.6,-14.6 -0.3,-0.5 -0.6,-0.9 -1,-1.4 -1.5,-2.2 -3.2,-4.2 -4.9,-6.2 0.1,0 0.2,0 0.4,0 1.5,1.4 2.9,3 4.2,4.4 0.8,0.8 1.7,1.6 2.5,2.5 0.5,0.5 0.9,1.1 1.4,1.6 3.2,3.7 6.5,7.3 9.6,10.9 3.1,3.6 6.3,7.2 9.4,10.8 -0.1,-0.2 -0.1,-0.3 -0.2,-0.5 0.1,0.2 0.3,0.3 0.4,0.4 0,0 0,0.2 0.1,0.2 v 0 c 3.2,3.7 6.4,7.5 9.5,11.3 6.1,7.4 12.1,15 18,22.6 3.1,4 6.4,8.2 10.5,11.4 -0.4,0 -0.8,-0.2 -1.2,-0.4 v 0 z m 16.4,-10.7 c -6.8,-6.9 -13.6,-13.8 -20.4,-20.6 -6.6,-6.6 -13.2,-13.2 -19.9,-19.7 l -3.5,-3.5 c -4.5,-5.1 -9,-10.2 -13.5,-15.3 1.3,0.6 2.6,1.2 3.9,1.7 2,0.8 4.1,1.9 6.2,2.2 0.2,0 0.4,0 0.6,-0.3 0.2,0.2 0.4,0.4 0.6,0.5 3.5,3.4 7.1,6.6 10.6,9.9 7.1,6.5 14.2,13 21.1,19.7 1.2,1.2 2.4,2.3 3.6,3.5 3.5,3.9 6.9,7.7 10.5,11.5 1.5,1.9 3.1,3.8 4.7,5.5 1.5,1.7 3.1,3.4 4.6,5.2 1.6,1.8 2.8,3.9 4.4,5.7 1,1.3 2.1,2.7 3.3,3.9 0.7,1 1.5,2 2.2,3 -7.9,-1.1 -13.6,-7.4 -19,-12.9 z"
           class="st4" />
      </g>
      <g
         id="hat" />
    </g>
    <g
       id="g144">
      <path
         id="path100"
         d="m 455,474.2 c -5.2,0.7 -10.3,1.3 -15.6,1.3 -5.4,0 -10.7,-0.4 -16,-1.3 -0.2,0 -0.3,0.3 0,0.4 10.4,1.7 21.4,1.9 31.7,-0.3 0,0 0,-0.2 0,-0.2 v 0 z" />
      <path
         id="path102"
         d="m 391.9,474.7 c 5.2,-0.7 10.3,-1.3 15.6,-1.3 5.4,0 10.7,0.4 16,1.3 0.2,0 0.3,-0.3 0,-0.4 -10.4,-1.7 -21.4,-1.9 -31.7,0.3 0,0 0,0.2 0,0.2 v 0 z" />
      <g
         id="g132">
        <path
           id="path104"
           d="m 458.4,473.6 c 0,-0.4 -0.4,-1 -1.9,-0.7 -1.2,0.2 -2.6,1.4 -2.6,1.4 l -0.2,0.2 h 0.2 c 0,0.1 1.7,0.7 2.9,0.5 1.5,-0.3 1.7,-1 1.6,-1.3 z" />
        <path
           id="path106"
           d="m 454.2,475.5 c -1.1,-0.6 -2.8,-0.6 -2.9,-0.6 h -0.2 c 0,0 0.1,0.2 0.1,0.2 0,0 1,1.6 2.1,2.2 0.5,0.3 1,0.4 1.3,0.4 0.4,0 0.6,-0.3 0.7,-0.4 0,-0.2 0.2,-0.5 0,-0.9 -0.2,-0.3 -0.6,-0.6 -1.1,-0.9 z" />
        <path
           id="path108"
           d="m 448.3,476 c -1.1,-0.6 -2.8,-0.5 -2.9,-0.5 h -0.2 c 0,0 0.1,0.2 0.1,0.2 0,0 1,1.6 2.1,2.2 0.5,0.3 1,0.4 1.3,0.4 0.3,0 0.6,-0.2 0.7,-0.5 0.2,-0.3 0.2,-1 -1.2,-1.8 z" />
        <path
           id="path110"
           d="m 442.4,476.3 c -1.1,-0.6 -2.8,-0.6 -2.9,-0.6 h -0.2 c 0,0 0.1,0.2 0.1,0.2 0,0 1,1.6 2.1,2.2 0.5,0.3 1,0.5 1.3,0.4 0.4,0 0.6,-0.2 0.7,-0.4 0,-0.2 0.2,-0.5 0,-0.9 -0.2,-0.3 -0.5,-0.6 -1.1,-0.9 z" />
        <path
           id="path112"
           d="m 435.5,476.7 c -1,-0.8 -2.7,-1.1 -2.8,-1.1 h -0.2 c 0,0 0,0.2 0,0.2 0,0 0.7,1.7 1.7,2.5 0.5,0.4 0.9,0.6 1.2,0.7 0.4,0 0.6,-0.1 0.8,-0.3 0.1,-0.2 0.2,-0.5 0,-0.9 -0.1,-0.3 -0.4,-0.7 -0.9,-1.1 z" />
        <path
           id="path114"
           d="m 451.3,473.9 c 0.4,-0.4 0.7,-0.8 0.8,-1.2 0.1,-0.4 0,-0.7 -0.1,-0.9 -0.2,-0.3 -0.8,-0.6 -2,0.5 -0.9,0.9 -1.5,2.6 -1.5,2.7 v 0.2 c 0,0 0.1,0 0.1,0 0,0 1.7,-0.5 2.7,-1.3 z" />
        <path
           id="path116"
           d="m 445.7,474.5 c 1.2,-1 1,-1.7 0.8,-2 -0.1,-0.2 -0.4,-0.4 -0.8,-0.3 -0.3,0 -0.8,0.3 -1.2,0.7 -1,0.8 -1.7,2.5 -1.7,2.6 v 0.2 c 0,0 0.1,0 0.1,0 0,0 1.8,-0.3 2.7,-1.1 z" />
        <path
           id="path118"
           d="m 440,473.4 c 0.1,-0.3 0,-0.6 0,-0.9 -0.1,-0.2 -0.4,-0.4 -0.8,-0.3 -0.3,0 -0.8,0.3 -1.2,0.7 -1,0.8 -1.7,2.5 -1.7,2.6 v 0.2 c 0,0 0.1,0 0.1,0 0,0 1.8,-0.3 2.7,-1.1 0.5,-0.4 0.8,-0.8 0.9,-1.1 z" />
        <path
           id="path120"
           d="m 433.5,472.8 c -0.2,-0.3 -0.7,-0.8 -2,0 -1.1,0.6 -2.1,2.2 -2.1,2.2 v 0.2 c -0.1,0 0.1,0 0.1,0 0,0 1.8,0 2.9,-0.6 1.4,-0.8 1.3,-1.5 1.1,-1.8 z" />
        <path
           id="path122"
           d="m 390.4,473.9 c -1.5,0.3 -1.7,1 -1.6,1.3 0,0.4 0.4,1 1.9,0.7 1.2,-0.2 2.6,-1.4 2.6,-1.4 l 0.2,-0.2 h -0.2 c 0,-0.1 -1.7,-0.7 -2.9,-0.5 z" />
        <path
           id="path124"
           d="m 393.6,471.6 c -0.5,-0.3 -1,-0.4 -1.3,-0.4 -0.4,0 -0.6,0.3 -0.7,0.4 0,0.2 -0.2,0.5 0,0.9 0.2,0.3 0.6,0.6 1.1,0.9 1.1,0.6 2.8,0.6 2.9,0.6 h 0.2 c 0,0 -0.1,-0.2 -0.1,-0.2 0,0 -1,-1.6 -2.1,-2.2 z" />
        <path
           id="path126"
           d="m 399.5,471 c -0.5,-0.3 -1,-0.4 -1.3,-0.4 -0.3,0 -0.6,0.2 -0.7,0.5 -0.2,0.3 -0.2,1 1.2,1.8 1.1,0.6 2.8,0.5 2.9,0.5 h 0.2 c 0,0 -0.1,-0.2 -0.1,-0.2 0,0 -1,-1.6 -2.1,-2.2 z" />
        <path
           id="path128"
           d="m 405.4,470.7 c -0.5,-0.3 -1,-0.5 -1.3,-0.4 -0.4,0 -0.6,0.2 -0.7,0.4 0,0.2 -0.2,0.5 0,0.9 0.2,0.3 0.5,0.6 1.1,0.9 1.1,0.6 2.8,0.6 2.9,0.6 h 0.2 c 0,0 -0.1,-0.2 -0.1,-0.2 0,0 -1,-1.6 -2.1,-2.2 z" />
        <path
           id="path130"
           d="m 412.6,470.6 c -0.5,-0.4 -0.9,-0.6 -1.2,-0.7 -0.4,0 -0.6,0.1 -0.8,0.3 -0.1,0.2 -0.2,0.5 0,0.9 0.1,0.3 0.4,0.7 0.9,1.1 1,0.8 2.7,1.1 2.8,1.1 h 0.2 c 0,0 0,-0.2 0,-0.2 0,0 -0.7,-1.7 -1.7,-2.5 z" />
      </g>
      <g
         id="g142">
        <path
           id="path134"
           d="m 395.6,474.9 c -0.4,0.4 -0.7,0.8 -0.8,1.2 -0.1,0.4 0,0.7 0.1,0.9 0.2,0.3 0.8,0.6 2,-0.5 0.9,-0.9 1.5,-2.6 1.5,-2.7 v -0.2 c 0,0 -0.1,0 -0.1,0 0,0 -1.7,0.5 -2.7,1.3 z" />
        <path
           id="path136"
           d="m 401.3,474.4 c -1.2,1 -1,1.7 -0.8,2 0.1,0.2 0.4,0.4 0.8,0.3 0.3,0 0.8,-0.3 1.2,-0.7 1,-0.8 1.7,-2.5 1.7,-2.6 v -0.2 c 0,0 -0.1,0 -0.1,0 0,0 -1.8,0.3 -2.7,1.1 z" />
        <path
           id="path138"
           d="m 407.8,474.4 c -0.5,0.4 -0.8,0.8 -0.9,1.1 -0.1,0.3 0,0.6 0,0.9 0.1,0.2 0.4,0.4 0.8,0.3 0.3,0 0.8,-0.3 1.2,-0.7 1,-0.8 1.7,-2.5 1.7,-2.6 v -0.2 c 0,0 -0.1,0 -0.1,0 0,0 -1.8,0.3 -2.7,1.1 z" />
        <path
           id="path140"
           d="m 417.4,473.6 c 0,0 -1.8,0 -2.9,0.6 -1.4,0.8 -1.3,1.5 -1.1,1.8 0.2,0.3 0.7,0.8 2,0 1.1,-0.6 2.1,-2.2 2.1,-2.2 v -0.2 c 0.1,0 -0.1,0 -0.1,0 z" />
      </g>
    </g>
  </g>
  <g
     inkscape:label="F.Cu"
     id="layer2"
     inkscape:groupmode="layer">
    <g
       id="g1061">
      <path
         class="st7"
         d="m 229.2,378.8 c -1.2,-7.3 -1.6,-14.6 -1.8,-22 -0.1,-3.7 -0.4,-8.1 -0.3,-11.8 0.1,-2.6 1,-5.6 1.2,-8.2 0.3,-3.8 0.6,-7.2 1.7,-10.9 1.1,-3.7 2.7,-4.5 5.1,-7.2 2.2,-2.6 4.2,-5.4 6.5,-8 3.6,-4 7.9,-7.6 11.2,-12 2.6,-3.4 4.9,-8.8 8.2,-11.2 2.2,-1.6 5.9,-0.5 8.3,0.3 1.8,2 3.5,4 5.4,5.9 2.2,2.3 4.9,4.6 7.1,7 1.4,1.5 2.6,3.6 4.1,5 -0.8,0.4 -1.7,0.5 -1.6,1.6 l -1.9,-0.9 c -0.1,0 -0.5,1.1 -1.5,1.1 -1,0 -0.7,-1.4 -2.1,-0.7 -0.2,0.1 -0.4,0.6 -0.8,0.7 -0.4,-0.1 -0.6,-0.4 -1,-0.6 -1.5,-0.5 -1.1,0.6 -1.8,0.9 -0.4,0.2 -0.8,-0.2 -0.9,-0.1 0,0 0,0.4 -0.1,0.5 -0.2,0.3 -0.7,0.5 -0.9,0.9 -1,-0.1 -1,-1.1 -2,-1.4 -0.6,0.3 0.2,1 0.1,1.4 l -0.4,0.2 -1.6,-0.5 c 0.2,4 -2.6,1 -4.1,2.2 -0.3,0.2 -1,0.9 -1.3,1.1 -0.5,0.3 -1.5,0.3 -1.6,0.4 -0.1,0.1 -0.1,0.5 -0.3,0.6 -0.3,0.3 -1.7,1.1 -2.1,1.4 -0.5,0.3 -1.6,1.1 -2,1 -0.1,0 -0.3,-1 -1.1,-0.4 -0.5,0.3 -0.2,0.8 -0.4,1.1 l -0.2,0.2 c -1.4,-0.5 -2.8,-0.2 -4.1,0.4 0.1,2 -0.6,1.4 -1.7,2.3 -1.9,1.5 -2.1,3 -3,4.9 -0.9,1.9 -2.4,4.2 -2.6,6.3 -0.4,3.4 -0.6,6.5 -0.8,9.8 -0.2,3.3 -0.6,6.4 -0.2,9.7 0.1,0.4 -0.1,0.8 0.1,1.3 0.1,0.4 0.8,0.8 0.8,1 0,0.2 -0.3,0.5 -0.3,0.7 -0.1,0.9 0.6,2.1 0.7,3.1 0.4,5 1.5,10 2,15 0.3,3.3 -2.1,6.2 -2.8,9.3 h -0.5 v 0.2 c 0.6,-0.3 0.1,1.1 0,1.5 -0.6,1.2 -2.8,-0.1 -3.1,0.2 v 0.9 c -1.7,-0.1 -3.6,0.5 -5.2,-0.3 -0.4,-0.2 -0.4,-0.6 -0.8,-0.9 -0.4,-0.2 -2.2,-0.9 -2.6,-0.8 -0.6,0.1 -1.6,1 -2.3,-0.1 -0.2,-0.4 0,-0.9 -0.5,-0.8 v -0.5 c 0.2,-0.2 -0.2,-0.6 -0.2,-0.8 z"
         id="path39" />
      <path
         id="sparkle14"
         data-name="sparkle"
         class="st0"
         d="m 483.2,621.1 c 0,2.8 -1.7,5 -3.8,5 2.1,0 3.8,2.2 3.8,5 0,-2.8 1.7,-5 3.8,-5 -2.1,0 -3.8,-2.2 -3.8,-5 z" />
      <path
         id="sparkle13"
         data-name="sparkle"
         class="st0"
         d="m 498.9,639 c 0,3.9 -2.2,7.1 -5,7.1 2.7,0 5,3.2 5,7.1 0,-3.9 2.2,-7.1 5,-7.1 -2.8,0.1 -5,-3.1 -5,-7.1 z" />
      <path
         id="sparkle12"
         data-name="sparkle"
         class="st0"
         d="m 493.9,620.2 c 0,6 -4.9,10.9 -10.9,10.9 6,0 10.9,4.9 10.9,10.9 0,-6 4.9,-10.9 10.9,-10.9 -6,0 -10.9,-4.8 -10.9,-10.9 z" />
      <path
         id="sparkle11"
         data-name="sparkle"
         class="st0"
         d="m 285.7,290.6 c 0,2.8 -1.7,5 -3.8,5 2.1,0 3.8,2.2 3.8,5 0,-2.8 1.7,-5 3.8,-5 -2.1,0 -3.8,-2.2 -3.8,-5 z" />
      <path
         id="sparkle10"
         data-name="sparkle"
         class="st0"
         d="m 298.5,290.6 c 0,3.9 -2.2,7.1 -5,7.1 2.7,0 5,3.2 5,7.1 0,-3.9 2.2,-7.1 5,-7.1 -2.8,0 -5,-3.1 -5,-7.1 z" />
      <path
         id="sparkle9"
         data-name="sparkle"
         class="st0"
         d="m 291.3,275.7 c 0,6.5 -3.8,11.8 -8.4,11.8 4.6,0 8.4,5.3 8.4,11.8 0,-6.5 3.8,-11.8 8.4,-11.8 -4.7,0 -8.4,-5.3 -8.4,-11.8 z" />
      <path
         id="sparkle8"
         data-name="sparkle"
         class="st0"
         d="m 231.8,559.7 c 0,2.8 -1.7,5 -3.8,5 2.1,0 3.8,2.2 3.8,5 0,-2.8 1.7,-5 3.8,-5 -2.1,0 -3.8,-2.2 -3.8,-5 z" />
      <path
         id="sparkle7"
         data-name="sparkle"
         class="st0"
         d="m 233.9,580.8 c 0,3.9 -2.2,7.1 -5,7.1 2.7,0 5,3.2 5,7.1 0,-3.9 2.2,-7.1 5,-7.1 -2.8,0.1 -5,-3.1 -5,-7.1 z" />
      <path
         id="sparkle6"
         data-name="sparkle"
         class="st0"
         d="m 238.9,564.7 c 0,6 -4.9,10.9 -10.9,10.9 6,0 10.9,4.9 10.9,10.9 0,-6 4.9,-10.9 10.9,-10.9 -6,0 -10.9,-4.8 -10.9,-10.9 z" />
      <path
         id="sparkle5"
         data-name="sparkle"
         class="st0"
         d="m 435.8,521.6 c 0,2.8 -1.7,5 -3.8,5 2.1,0 3.8,2.2 3.8,5 0,-2.8 1.7,-5 3.8,-5 -2.2,0 -3.8,-2.2 -3.8,-5 z" />
      <path
         id="sparkle4"
         data-name="sparkle"
         class="st0"
         d="m 428.6,521.2 c 0,3.9 -2.2,7.1 -5,7.1 2.7,0 5,3.2 5,7.1 0,-3.9 2.2,-7.1 5,-7.1 -2.7,0 -5,-3.2 -5,-7.1 z" />
      <path
         id="sparkle3"
         data-name="sparkle"
         class="st0"
         d="m 422.7,505.1 c 0,6 -4.9,10.9 -10.9,10.9 6,0 10.9,4.9 10.9,10.9 0,-6 4.9,-10.9 10.9,-10.9 -6,0 -10.9,-4.9 -10.9,-10.9 z" />
      <path
         class="st9"
         d="m 415.2,441.2 6,-0.6 v 0.8 c -0.3,0.1 -0.5,0.3 -0.5,0.6 0,0.3 0,0.2 0.1,0.3 l 7.1,15.7 2.2,-7.6 c 0.6,-2.2 0.9,-4.3 0.7,-6.2 -0.2,-2.4 -1.3,-3.6 -3.3,-3.5 v -0.8 c -0.1,0 6,-0.6 6,-0.6 v 0.8 c -0.4,0.1 -0.6,0.3 -0.6,0.6 0,0.3 0,0.2 0.1,0.4 l 7.1,15.7 2.7,-9.3 c 0.8,-2.9 1.2,-4.9 1.1,-6 -0.1,-0.9 -0.4,-1.5 -0.8,-1.8 -0.5,-0.3 -1.2,-0.4 -2.2,-0.3 v -0.8 c -0.1,0 7.7,-0.8 7.7,-0.8 v 0.8 c -0.6,0.1 -1.2,0.5 -1.7,1.4 -0.5,0.9 -1,2.1 -1.5,3.8 l -5.3,18 h -1 c 0,0.1 -6.4,-14 -6.4,-14 -0.9,2.1 -1.7,4.1 -2.2,5.9 l -2.7,9.3 h -1 c 0,0.1 -7.5,-16.6 -7.5,-16.6 -0.1,-0.2 -0.5,-0.9 -1.1,-2 -0.6,-1.1 -1.1,-1.8 -1.6,-2.1 -0.4,-0.3 -0.9,-0.4 -1.3,-0.4 v -0.7 z"
         id="path93" />
      <path
         class="st9"
         d="m 405.1,439.4 h 1.2 l 6.9,19.9 c 0.5,1.5 1.1,2.7 1.7,3.6 0.6,0.9 1.3,1.4 2.2,1.5 v 0.9 h -7 v -0.9 h 0.5 c 0.2,0 0.3,-0.2 0.3,-0.6 0,-0.4 0,-0.3 -0.1,-0.4 l -2.3,-6.8 H 400 c -0.9,2.5 -1.3,4.4 -1.3,5.6 0,1.2 0.2,1.2 0.6,1.6 0.4,0.4 1,0.6 1.7,0.6 h 1 v 0.9 h -8.7 v -0.9 c 1.5,-0.1 2.8,-1.6 4,-4.7 z m -0.6,5.6 -4.1,10.4 h 7.6 z"
         id="path91" />
      <path
         class="st9"
         d="m 394.1,457 c -4,3.9 -7.8,6 -11.3,6.2 -2.9,0.2 -5.5,-0.8 -7.9,-2.8 -2.4,-2.1 -3.7,-5 -4,-8.8 -0.2,-2.7 0.3,-5.1 1.3,-7.3 1.1,-2.2 2.6,-4.1 4.7,-5.6 2.1,-1.6 4.7,-2.5 7.7,-2.6 2.7,-0.2 5.2,0.1 7.6,0.8 l 0.4,6.1 h -1.4 c -0.3,-1.8 -1.2,-3.2 -2.8,-4.2 -1.6,-1 -3.4,-1.4 -5.5,-1.3 -2.9,0.2 -5.2,1.4 -6.7,3.6 -1.5,2.2 -2.2,4.9 -2,8 0.2,3.4 1.3,6.1 3.4,8.2 2,2.1 4.5,3.1 7.5,2.9 3,-0.2 6,-1.6 9,-4.4 z"
         id="path89" />
      <path
         class="st9"
         d="m 447.1,408.4 h 1 l 5.9,18.1 c 0.4,1.3 0.9,2.4 1.4,3.3 0.5,0.9 1.2,1.3 2,1.4 v 0.8 h -6.3 v -0.9 h 0.4 c 0.2,0 0.3,-0.2 0.3,-0.6 0,-0.4 0,-0.2 -0.1,-0.4 l -2,-6.2 H 442 c -0.8,2.2 -1.3,3.8 -1.3,5 0,1.2 0.2,1.1 0.5,1.5 0.4,0.4 0.9,0.6 1.5,0.6 h 0.9 v 0.8 h -7.9 v -0.9 c 1.3,0 2.5,-1.4 3.7,-4.1 z m -0.7,5 -3.8,9.3 h 6.9 c 0,0.1 -3.1,-9.3 -3.1,-9.3 z"
         id="path87" />
      <path
         class="st9"
         d="m 419.5,405.2 h 0.8 c 0.2,0.5 0.4,0.8 0.7,0.8 h 15.4 c 0.4,0 0.6,-0.3 0.6,-0.8 h 0.8 v 6.7 h -1.2 c 0,-3.4 -1.8,-5 -5.3,-5 h -1.1 v 18 c 0,1.8 0.9,2.7 2.7,2.8 v 0.8 h -8.6 v -0.8 c 1.1,0 1.8,-0.2 2.1,-0.6 0.3,-0.4 0.5,-1.1 0.5,-2.2 v -18 h -1.2 c -3.2,0 -4.9,1.7 -5,5 h -1.2 z"
         id="path85" />
      <path
         class="st9"
         d="m 394.6,404.7 5.8,-0.2 13.4,16.7 -0.2,-5.2 c -0.1,-3.4 -0.5,-6 -1,-8 -0.6,-2 -1.4,-3 -2.6,-3 v -0.8 l 7.7,-0.3 v 0.8 c -2.1,0.3 -3.1,3.8 -2.8,10.7 l 0.4,11.9 h -0.8 l -15.9,-20 0.2,6.5 c 0.1,4.1 0.5,7.2 1.1,9.1 0.6,1.9 1.4,3 2.6,3.1 v 0.8 l -7.6,0.3 v -0.8 c 2.1,-0.4 3.1,-4.5 2.8,-12.2 l -0.2,-6.1 c 0,-1 -0.3,-1.7 -0.7,-2.1 -0.4,-0.3 -1.1,-0.5 -2,-0.5 z"
         id="path83" />
      <path
         class="st9"
         d="m 380.1,404.9 h 1 l 6.5,17.9 c 0.5,1.3 1,2.4 1.6,3.2 0.6,0.8 1.2,1.3 2,1.3 v 0.8 h -6.3 c 0,0.1 0,-0.7 0,-0.7 h 0.4 c 0.2,0 0.3,-0.2 0.3,-0.6 0,-0.4 0,-0.2 -0.1,-0.4 l -2.2,-6.1 h -7.7 c -0.8,2.4 -1.1,4.1 -1.1,5.2 0,1.1 0.2,1.1 0.6,1.4 0.4,0.4 0.9,0.5 1.5,0.5 h 0.9 v 0.8 h -7.9 c 0,0.1 0,-0.7 0,-0.7 1.3,-0.1 2.5,-1.5 3.5,-4.3 z m -0.5,5 -3.5,9.4 h 6.9 c 0,-0.1 -3.4,-9.4 -3.4,-9.4 z"
         id="path81" />
      <path
         class="st9"
         d="m 356.1,413.5 c -0.5,-0.5 -1,-1.1 -1.2,-1.7 -0.2,-0.6 -0.4,-1.2 -0.4,-1.8 0,-1.7 0.8,-3.2 2.3,-4.4 1.5,-1.2 3.4,-1.9 5.4,-1.9 2,0 2.4,0.3 4.2,0.9 v 5.5 h -1.3 c -0.1,-1.5 -0.6,-2.8 -1.4,-3.7 -0.8,-1 -1.9,-1.5 -3.1,-1.5 -1.2,0 -1.8,0.3 -2.5,0.9 -0.7,0.6 -1,1.4 -1,2.3 0,0.9 0.3,1.7 1,2.5 0.6,0.8 2.2,2 4.6,3.6 1.8,1.2 3.1,2.2 3.7,3 0.6,0.8 0.9,1.7 0.9,2.9 0,1.8 -0.8,3.5 -2.5,4.9 -1.7,1.4 -3.6,2.2 -5.8,2.2 -2.2,0 -3.3,-0.4 -5.2,-1.1 v -6.3 h 1.2 c 0,1.8 0.5,3.3 1.5,4.5 1,1.2 2.3,1.8 3.7,1.8 1.4,0 2.3,-0.4 3.1,-1.1 0.8,-0.8 1.1,-1.7 1.1,-2.9 0,-1.2 -0.3,-1.9 -0.9,-2.7 -0.6,-0.8 -2,-1.9 -4.3,-3.3 -1,-1 -2.1,-1.8 -3.1,-2.6 z"
         id="path79" />
      <path
         class="st9"
         d="m 452.5,447.3 c -0.6,-0.5 -1,-1.1 -1.3,-1.7 -0.3,-0.6 -0.4,-1.2 -0.4,-1.9 0,-1.8 0.8,-3.3 2.4,-4.6 1.6,-1.3 3.5,-2 5.7,-2 2.2,0 2.5,0.3 4.3,0.9 v 5.7 h -1.3 c -0.1,-1.6 -0.6,-2.9 -1.5,-3.9 -0.9,-1 -2,-1.5 -3.2,-1.5 -1.2,0 -1.9,0.3 -2.6,1 -0.7,0.6 -1,1.4 -1,2.4 0,1 0.3,1.8 1,2.6 0.7,0.8 2.3,2.1 4.8,3.8 1.9,1.3 3.2,2.3 3.9,3.1 0.7,0.8 1,1.8 1,3 0,1.9 -0.9,3.6 -2.6,5.1 -1.8,1.5 -3.8,2.2 -6,2.2 -2.2,0 -3.4,-0.4 -5.4,-1.1 v -6.6 h 1.3 c 0,1.9 0.5,3.4 1.6,4.6 1.1,1.2 2.4,1.9 3.8,1.9 1.4,0 2.4,-0.4 3.2,-1.2 0.8,-0.8 1.2,-1.8 1.2,-3 0,-1.2 -0.3,-2 -1,-2.8 -0.6,-0.8 -2.1,-2 -4.4,-3.5 -1.2,-0.8 -2.4,-1.7 -3.5,-2.5 z"
         id="path77" />
    </g>
  </g>
  <g
     inkscape:label="F.Mask"
     id="layer3"
     inkscape:groupmode="layer">
    <g
       id="g1107">
      <path
         id="path1063"
         d="m 229.2,378.8 c -1.2,-7.3 -1.6,-14.6 -1.8,-22 -0.1,-3.7 -0.4,-8.1 -0.3,-11.8 0.1,-2.6 1,-5.6 1.2,-8.2 0.3,-3.8 0.6,-7.2 1.7,-10.9 1.1,-3.7 2.7,-4.5 5.1,-7.2 2.2,-2.6 4.2,-5.4 6.5,-8 3.6,-4 7.9,-7.6 11.2,-12 2.6,-3.4 4.9,-8.8 8.2,-11.2 2.2,-1.6 5.9,-0.5 8.3,0.3 1.8,2 3.5,4 5.4,5.9 2.2,2.3 4.9,4.6 7.1,7 1.4,1.5 2.6,3.6 4.1,5 -0.8,0.4 -1.7,0.5 -1.6,1.6 l -1.9,-0.9 c -0.1,0 -0.5,1.1 -1.5,1.1 -1,0 -0.7,-1.4 -2.1,-0.7 -0.2,0.1 -0.4,0.6 -0.8,0.7 -0.4,-0.1 -0.6,-0.4 -1,-0.6 -1.5,-0.5 -1.1,0.6 -1.8,0.9 -0.4,0.2 -0.8,-0.2 -0.9,-0.1 0,0 0,0.4 -0.1,0.5 -0.2,0.3 -0.7,0.5 -0.9,0.9 -1,-0.1 -1,-1.1 -2,-1.4 -0.6,0.3 0.2,1 0.1,1.4 l -0.4,0.2 -1.6,-0.5 c 0.2,4 -2.6,1 -4.1,2.2 -0.3,0.2 -1,0.9 -1.3,1.1 -0.5,0.3 -1.5,0.3 -1.6,0.4 -0.1,0.1 -0.1,0.5 -0.3,0.6 -0.3,0.3 -1.7,1.1 -2.1,1.4 -0.5,0.3 -1.6,1.1 -2,1 -0.1,0 -0.3,-1 -1.1,-0.4 -0.5,0.3 -0.2,0.8 -0.4,1.1 l -0.2,0.2 c -1.4,-0.5 -2.8,-0.2 -4.1,0.4 0.1,2 -0.6,1.4 -1.7,2.3 -1.9,1.5 -2.1,3 -3,4.9 -0.9,1.9 -2.4,4.2 -2.6,6.3 -0.4,3.4 -0.6,6.5 -0.8,9.8 -0.2,3.3 -0.6,6.4 -0.2,9.7 0.1,0.4 -0.1,0.8 0.1,1.3 0.1,0.4 0.8,0.8 0.8,1 0,0.2 -0.3,0.5 -0.3,0.7 -0.1,0.9 0.6,2.1 0.7,3.1 0.4,5 1.5,10 2,15 0.3,3.3 -2.1,6.2 -2.8,9.3 h -0.5 v 0.2 c 0.6,-0.3 0.1,1.1 0,1.5 -0.6,1.2 -2.8,-0.1 -3.1,0.2 v 0.9 c -1.7,-0.1 -3.6,0.5 -5.2,-0.3 -0.4,-0.2 -0.4,-0.6 -0.8,-0.9 -0.4,-0.2 -2.2,-0.9 -2.6,-0.8 -0.6,0.1 -1.6,1 -2.3,-0.1 -0.2,-0.4 0,-0.9 -0.5,-0.8 v -0.5 c 0.2,-0.2 -0.2,-0.6 -0.2,-0.8 z"
         class="st7" />
      <path
         d="m 483.2,621.1 c 0,2.8 -1.7,5 -3.8,5 2.1,0 3.8,2.2 3.8,5 0,-2.8 1.7,-5 3.8,-5 -2.1,0 -3.8,-2.2 -3.8,-5 z"
         class="st0"
         data-name="sparkle"
         id="path1065" />
      <path
         d="m 498.9,639 c 0,3.9 -2.2,7.1 -5,7.1 2.7,0 5,3.2 5,7.1 0,-3.9 2.2,-7.1 5,-7.1 -2.8,0.1 -5,-3.1 -5,-7.1 z"
         class="st0"
         data-name="sparkle"
         id="path1067" />
      <path
         d="m 493.9,620.2 c 0,6 -4.9,10.9 -10.9,10.9 6,0 10.9,4.9 10.9,10.9 0,-6 4.9,-10.9 10.9,-10.9 -6,0 -10.9,-4.8 -10.9,-10.9 z"
         class="st0"
         data-name="sparkle"
         id="path1069" />
      <path
         d="m 285.7,290.6 c 0,2.8 -1.7,5 -3.8,5 2.1,0 3.8,2.2 3.8,5 0,-2.8 1.7,-5 3.8,-5 -2.1,0 -3.8,-2.2 -3.8,-5 z"
         class="st0"
         data-name="sparkle"
         id="path1071" />
      <path
         d="m 298.5,290.6 c 0,3.9 -2.2,7.1 -5,7.1 2.7,0 5,3.2 5,7.1 0,-3.9 2.2,-7.1 5,-7.1 -2.8,0 -5,-3.1 -5,-7.1 z"
         class="st0"
         data-name="sparkle"
         id="path1073" />
      <path
         d="m 291.3,275.7 c 0,6.5 -3.8,11.8 -8.4,11.8 4.6,0 8.4,5.3 8.4,11.8 0,-6.5 3.8,-11.8 8.4,-11.8 -4.7,0 -8.4,-5.3 -8.4,-11.8 z"
         class="st0"
         data-name="sparkle"
         id="path1075" />
      <path
         d="m 231.8,559.7 c 0,2.8 -1.7,5 -3.8,5 2.1,0 3.8,2.2 3.8,5 0,-2.8 1.7,-5 3.8,-5 -2.1,0 -3.8,-2.2 -3.8,-5 z"
         class="st0"
         data-name="sparkle"
         id="path1077" />
      <path
         d="m 233.9,580.8 c 0,3.9 -2.2,7.1 -5,7.1 2.7,0 5,3.2 5,7.1 0,-3.9 2.2,-7.1 5,-7.1 -2.8,0.1 -5,-3.1 -5,-7.1 z"
         class="st0"
         data-name="sparkle"
         id="path1079" />
      <path
         d="m 238.9,564.7 c 0,6 -4.9,10.9 -10.9,10.9 6,0 10.9,4.9 10.9,10.9 0,-6 4.9,-10.9 10.9,-10.9 -6,0 -10.9,-4.8 -10.9,-10.9 z"
         class="st0"
         data-name="sparkle"
         id="path1081" />
      <path
         d="m 435.8,521.6 c 0,2.8 -1.7,5 -3.8,5 2.1,0 3.8,2.2 3.8,5 0,-2.8 1.7,-5 3.8,-5 -2.2,0 -3.8,-2.2 -3.8,-5 z"
         class="st0"
         data-name="sparkle"
         id="path1083" />
      <path
         d="m 428.6,521.2 c 0,3.9 -2.2,7.1 -5,7.1 2.7,0 5,3.2 5,7.1 0,-3.9 2.2,-7.1 5,-7.1 -2.7,0 -5,-3.2 -5,-7.1 z"
         class="st0"
         data-name="sparkle"
         id="path1085" />
      <path
         d="m 422.7,505.1 c 0,6 -4.9,10.9 -10.9,10.9 6,0 10.9,4.9 10.9,10.9 0,-6 4.9,-10.9 10.9,-10.9 -6,0 -10.9,-4.9 -10.9,-10.9 z"
         class="st0"
         data-name="sparkle"
         id="path1087" />
      <path
         id="path1089"
         d="m 415.2,441.2 6,-0.6 v 0.8 c -0.3,0.1 -0.5,0.3 -0.5,0.6 0,0.3 0,0.2 0.1,0.3 l 7.1,15.7 2.2,-7.6 c 0.6,-2.2 0.9,-4.3 0.7,-6.2 -0.2,-2.4 -1.3,-3.6 -3.3,-3.5 v -0.8 c -0.1,0 6,-0.6 6,-0.6 v 0.8 c -0.4,0.1 -0.6,0.3 -0.6,0.6 0,0.3 0,0.2 0.1,0.4 l 7.1,15.7 2.7,-9.3 c 0.8,-2.9 1.2,-4.9 1.1,-6 -0.1,-0.9 -0.4,-1.5 -0.8,-1.8 -0.5,-0.3 -1.2,-0.4 -2.2,-0.3 v -0.8 c -0.1,0 7.7,-0.8 7.7,-0.8 v 0.8 c -0.6,0.1 -1.2,0.5 -1.7,1.4 -0.5,0.9 -1,2.1 -1.5,3.8 l -5.3,18 h -1 c 0,0.1 -6.4,-14 -6.4,-14 -0.9,2.1 -1.7,4.1 -2.2,5.9 l -2.7,9.3 h -1 c 0,0.1 -7.5,-16.6 -7.5,-16.6 -0.1,-0.2 -0.5,-0.9 -1.1,-2 -0.6,-1.1 -1.1,-1.8 -1.6,-2.1 -0.4,-0.3 -0.9,-0.4 -1.3,-0.4 v -0.7 z"
         class="st9" />
      <path
         id="path1091"
         d="m 405.1,439.4 h 1.2 l 6.9,19.9 c 0.5,1.5 1.1,2.7 1.7,3.6 0.6,0.9 1.3,1.4 2.2,1.5 v 0.9 h -7 v -0.9 h 0.5 c 0.2,0 0.3,-0.2 0.3,-0.6 0,-0.4 0,-0.3 -0.1,-0.4 l -2.3,-6.8 H 400 c -0.9,2.5 -1.3,4.4 -1.3,5.6 0,1.2 0.2,1.2 0.6,1.6 0.4,0.4 1,0.6 1.7,0.6 h 1 v 0.9 h -8.7 v -0.9 c 1.5,-0.1 2.8,-1.6 4,-4.7 z m -0.6,5.6 -4.1,10.4 h 7.6 z"
         class="st9" />
      <path
         id="path1093"
         d="m 394.1,457 c -4,3.9 -7.8,6 -11.3,6.2 -2.9,0.2 -5.5,-0.8 -7.9,-2.8 -2.4,-2.1 -3.7,-5 -4,-8.8 -0.2,-2.7 0.3,-5.1 1.3,-7.3 1.1,-2.2 2.6,-4.1 4.7,-5.6 2.1,-1.6 4.7,-2.5 7.7,-2.6 2.7,-0.2 5.2,0.1 7.6,0.8 l 0.4,6.1 h -1.4 c -0.3,-1.8 -1.2,-3.2 -2.8,-4.2 -1.6,-1 -3.4,-1.4 -5.5,-1.3 -2.9,0.2 -5.2,1.4 -6.7,3.6 -1.5,2.2 -2.2,4.9 -2,8 0.2,3.4 1.3,6.1 3.4,8.2 2,2.1 4.5,3.1 7.5,2.9 3,-0.2 6,-1.6 9,-4.4 z"
         class="st9" />
      <path
         id="path1095"
         d="m 447.1,408.4 h 1 l 5.9,18.1 c 0.4,1.3 0.9,2.4 1.4,3.3 0.5,0.9 1.2,1.3 2,1.4 v 0.8 h -6.3 v -0.9 h 0.4 c 0.2,0 0.3,-0.2 0.3,-0.6 0,-0.4 0,-0.2 -0.1,-0.4 l -2,-6.2 H 442 c -0.8,2.2 -1.3,3.8 -1.3,5 0,1.2 0.2,1.1 0.5,1.5 0.4,0.4 0.9,0.6 1.5,0.6 h 0.9 v 0.8 h -7.9 v -0.9 c 1.3,0 2.5,-1.4 3.7,-4.1 z m -0.7,5 -3.8,9.3 h 6.9 c 0,0.1 -3.1,-9.3 -3.1,-9.3 z"
         class="st9" />
      <path
         id="path1097"
         d="m 419.5,405.2 h 0.8 c 0.2,0.5 0.4,0.8 0.7,0.8 h 15.4 c 0.4,0 0.6,-0.3 0.6,-0.8 h 0.8 v 6.7 h -1.2 c 0,-3.4 -1.8,-5 -5.3,-5 h -1.1 v 18 c 0,1.8 0.9,2.7 2.7,2.8 v 0.8 h -8.6 v -0.8 c 1.1,0 1.8,-0.2 2.1,-0.6 0.3,-0.4 0.5,-1.1 0.5,-2.2 v -18 h -1.2 c -3.2,0 -4.9,1.7 -5,5 h -1.2 z"
         class="st9" />
      <path
         id="path1099"
         d="m 394.6,404.7 5.8,-0.2 13.4,16.7 -0.2,-5.2 c -0.1,-3.4 -0.5,-6 -1,-8 -0.6,-2 -1.4,-3 -2.6,-3 v -0.8 l 7.7,-0.3 v 0.8 c -2.1,0.3 -3.1,3.8 -2.8,10.7 l 0.4,11.9 h -0.8 l -15.9,-20 0.2,6.5 c 0.1,4.1 0.5,7.2 1.1,9.1 0.6,1.9 1.4,3 2.6,3.1 v 0.8 l -7.6,0.3 v -0.8 c 2.1,-0.4 3.1,-4.5 2.8,-12.2 l -0.2,-6.1 c 0,-1 -0.3,-1.7 -0.7,-2.1 -0.4,-0.3 -1.1,-0.5 -2,-0.5 z"
         class="st9" />
      <path
         id="path1101"
         d="m 380.1,404.9 h 1 l 6.5,17.9 c 0.5,1.3 1,2.4 1.6,3.2 0.6,0.8 1.2,1.3 2,1.3 v 0.8 h -6.3 c 0,0.1 0,-0.7 0,-0.7 h 0.4 c 0.2,0 0.3,-0.2 0.3,-0.6 0,-0.4 0,-0.2 -0.1,-0.4 l -2.2,-6.1 h -7.7 c -0.8,2.4 -1.1,4.1 -1.1,5.2 0,1.1 0.2,1.1 0.6,1.4 0.4,0.4 0.9,0.5 1.5,0.5 h 0.9 v 0.8 h -7.9 c 0,0.1 0,-0.7 0,-0.7 1.3,-0.1 2.5,-1.5 3.5,-4.3 z m -0.5,5 -3.5,9.4 h 6.9 c 0,-0.1 -3.4,-9.4 -3.4,-9.4 z"
         class="st9" />
      <path
         id="path1103"
         d="m 356.1,413.5 c -0.5,-0.5 -1,-1.1 -1.2,-1.7 -0.2,-0.6 -0.4,-1.2 -0.4,-1.8 0,-1.7 0.8,-3.2 2.3,-4.4 1.5,-1.2 3.4,-1.9 5.4,-1.9 2,0 2.4,0.3 4.2,0.9 v 5.5 h -1.3 c -0.1,-1.5 -0.6,-2.8 -1.4,-3.7 -0.8,-1 -1.9,-1.5 -3.1,-1.5 -1.2,0 -1.8,0.3 -2.5,0.9 -0.7,0.6 -1,1.4 -1,2.3 0,0.9 0.3,1.7 1,2.5 0.6,0.8 2.2,2 4.6,3.6 1.8,1.2 3.1,2.2 3.7,3 0.6,0.8 0.9,1.7 0.9,2.9 0,1.8 -0.8,3.5 -2.5,4.9 -1.7,1.4 -3.6,2.2 -5.8,2.2 -2.2,0 -3.3,-0.4 -5.2,-1.1 v -6.3 h 1.2 c 0,1.8 0.5,3.3 1.5,4.5 1,1.2 2.3,1.8 3.7,1.8 1.4,0 2.3,-0.4 3.1,-1.1 0.8,-0.8 1.1,-1.7 1.1,-2.9 0,-1.2 -0.3,-1.9 -0.9,-2.7 -0.6,-0.8 -2,-1.9 -4.3,-3.3 -1,-1 -2.1,-1.8 -3.1,-2.6 z"
         class="st9" />
      <path
         id="path1105"
         d="m 452.5,447.3 c -0.6,-0.5 -1,-1.1 -1.3,-1.7 -0.3,-0.6 -0.4,-1.2 -0.4,-1.9 0,-1.8 0.8,-3.3 2.4,-4.6 1.6,-1.3 3.5,-2 5.7,-2 2.2,0 2.5,0.3 4.3,0.9 v 5.7 h -1.3 c -0.1,-1.6 -0.6,-2.9 -1.5,-3.9 -0.9,-1 -2,-1.5 -3.2,-1.5 -1.2,0 -1.9,0.3 -2.6,1 -0.7,0.6 -1,1.4 -1,2.4 0,1 0.3,1.8 1,2.6 0.7,0.8 2.3,2.1 4.8,3.8 1.9,1.3 3.2,2.3 3.9,3.1 0.7,0.8 1,1.8 1,3 0,1.9 -0.9,3.6 -2.6,5.1 -1.8,1.5 -3.8,2.2 -6,2.2 -2.2,0 -3.4,-0.4 -5.4,-1.1 v -6.6 h 1.3 c 0,1.9 0.5,3.4 1.6,4.6 1.1,1.2 2.4,1.9 3.8,1.9 1.4,0 2.4,-0.4 3.2,-1.2 0.8,-0.8 1.2,-1.8 1.2,-3 0,-1.2 -0.3,-2 -1,-2.8 -0.6,-0.8 -2.1,-2 -4.4,-3.5 -1.2,-0.8 -2.4,-1.7 -3.5,-2.5 z"
         class="st9" />
    </g>
  </g>
</svg>
