<?xml version="1.0" encoding="UTF-8"?>
<svg id="Layer_1" xmlns="http://www.w3.org/2000/svg" version="1.1" viewBox="0 0 595.3 841.9">
  <!-- Generator: Adobe Illustrator 29.1.0, SVG Export Plug-In . SVG Version: 2.1.0 Build 142)  -->
  <defs>
    <style>
      .st0 {
        fill: #fee92a;
      }

      .st1 {
        fill: #fff;
      }

      .st2 {
        fill: #ff73c0;
      }

      .st3, .st4 {
        fill: #231f20;
      }

      .st3, .st5, .st6 {
        display: none;
      }

      .st7 {
        fill: #c49a6c;
      }

      .st8 {
        fill: #6adbc6;
      }

      .st5 {
        fill: #721f37;
      }

      .st9 {
        fill-rule: evenodd;
      }

      .st10 {
        fill: #eab41c;
      }

      .st11 {
        fill: none;
        stroke: #231f20;
        stroke-miterlimit: 10;
      }

      .st12 {
        fill: #6fbe44;
      }

      .st13 {
        fill: #ffe54d;
      }
    </style>
  </defs>
  <g id="Layer_11" data-name="Layer_1">
    <g id="Background" class="st6">
      <rect class="st4" x="87.7" y="190.7" width="460.2" height="534.3"/>
    </g>
    <g id="Layer_12" data-name="Layer_1">
      <g class="st6">
        <path class="st4" d="M284.9,355.5c.3-.4.3-.7.1-.9,1.2-1.8-.2-4-2.1-5.2-1-.8-2.3-1.2-3.6-1-.2,0-.5.1-.7.1-2.6.2-5.3,1.4-5.9,3.6,0,.1.1.1.2,0h.1c-.1.1-.1.3-.1.5s.2.2.3.2h.1c.3,0,1-.5.5-.7,0,0,1.6-1.4,1.7-1.5.8-.6,1.8-.9,2.8-1.1,1.1,0,2.1.2,2.9.6.7.6,1,1.5,1.1,2.4,0,.3.1.4.4.5-.3,0-.6.1-1,.1-.6-.1-1.3-.4-1.7-.6-.4-.1-.8-.2-1.1-.3-.3-.1-.5-.2-.8-.3-1-.4-2.6-.4-3.6,0-.3.1-.6.4-.3.7s.2.1.3.2c-.1.1-.2.1-.4.2-.2.1-.4.2-.6.3-.1-.1-.1-.2-.2-.3-.1-.1-.2-.2-.4-.2h-.4c-.3.1-.7.4-.6.7,1.9,4.5,9.6,6.5,13,2h0Z"/>
        <path class="st4" d="M300.8,377.5c2,.6,3.7.6,5.6.5h-.2q-.1,0-.2-.1c-3.8-1.2-6.4-3.8-9.5-5.2h.1c1,1.6,2.5,4.3,4.2,4.8h0Z"/>
        <path class="st4" d="M304,348.6c.6-.2,1-.4,1.4-.5.6.3,1.4.3,2,0,.9-.5,1.5-1,1.9-1.9.5-1.1.1-2.7-1.6-2.4-2.3.3-4.7,1.5-5.5,3.5-.4,1,.8,1.6,1.8,1.3h0Z"/>
        <path class="st4" d="M284.4,369.1c.8-.3,1.7-.6,2.5-1,.1-.1.2-.3,0-.2-.9.2-1.7.5-2.6.8-.3.1-.2.5.1.4h0Z"/>
        <path class="st4" d="M287.6,368.9c.2-.1.8-.1,1.1-.1s.2-.2.2-.3c-.3-.5-1-.2-1.4.1-.2.2-.1.4,0,.3Z"/>
        <path class="st4" d="M498.7,664.7c-2.8-5.1-7.3-8.9-11.1-13.2-6-6.9-11.7-13.9-17.5-21-7.8-9.6-14.9-20.5-23.2-30v-.2c-1.1-2-2.4-3.8-3.7-5.6-.8-1.1-1.5-2.2-2.3-3.3,0,0,0-.2-.1-.2-2.4-5.5-5.4-10.7-8.6-15.8-.8-1.2-2.3-3-3.4-4.7-.3-.7-.6-1.3-1-1.9-.1-.3-.1-.5-.1-.7-.2-2.6,1.7-1.3,3-1,.9.3,1.6,1.2,1.9-.5.1-1-1.1-2.1-1.5-2.9-1.6-2.7-3.2-5.3-4.8-7.9-2.8-4.4-5.6-8.8-8.5-13.2-.7-2.3-2.5-4.3-4.3-6.2-1.9-2.7-3.8-5.4-5.8-8.1-.8-1-5.8-8.4-7.1-7.9,1.6-.7,2.9-2.6,2.6-4.2-.2-1.3-.6-2.5-1-3.8.7-.2,1.2-.9,1.1-1.7-1.4-7-7.8-13.1-12.1-18.5-5.1-6.4-10.6-12.5-16.2-18.4-10.5-11-22.1-22-35.1-30.1-1.4-1.8-2.9-3.7-4.4-5.1.6.2,1.5-.2,1.6-.9,1.4-7.8-5-14.6-10.3-19.6-1.2-1.1-2.9-2.7-4.9-4.1-3.4-1.1-6.8-2.4-8.7-5.2-1.8-2.7-1.5-6.3.1-9,.5-.9,1.1-1.6,1.6-2.5.5-.8.6-4.6,2.3-3.3.7.6,1.2,1.2,1.6,1.8-.1-.3-.1-.6-.2-.8-.4-2.5-1.7-5.1-3.7-6.8-.9-.8.2-1.9,1.2-1.5,1.5.6,2.7,1.4,3.9,2.3-.9-1.9-2.5-3.5-4.2-4.9,7.6.5,15.5.7,23.1.9,5.7.2,12.4-.3,17.4-3.4,1.3-.7,2.5-1.7,3.4-2.9-.5,0-1-.1-1.5-.1h0c-8.5-.9-17-2.8-25-4.5-1.5-.3-3-.7-4.5-1.1-3.5-.6-7.1-1.4-10.5-2.2-5.1-1.3-11.4-1.5-16-4.1-.3-.2-.4-.4-.4-.7,3-.6,6.1-1.5,9-2.3,2-.5,4-1,6-1.6h.1c2.9-.5,5.8-1,8.7-1.8,5.7-1.4,11.4-2.9,17.2-3.8,5.2-.9,10.4-.9,15.6-1.4,2.9.3,5.7.8,8.2,1.8,0-3-2.9-7.6-4-8.9-3.3-3.9-8.4-6.3-13.7-7.7-12.8-3.4-27.2-2.5-40.5-1.2-.4-.8-1-1.5-1.8-2-.2-.2-.4-.5-.7-.6-4.9-2.9-10.6-3.6-16.2-3.8-5.5-.2-10.9.6-16.2,1.8-10.8,2.5-20.8,7.6-29.6,14.3-8.8,6.7-16.1,15.2-22,24.5-3,4.7-5.6,9.7-7.9,14.8-.9,2-1.8,4-2.6,6.1-2,4-3.6,8.3-3.7,12.3,0,.2.3.2.4.1q.1-.1.1-.2c0,.2.3.3.5.3-1.3.5-2.4,9.7-3,11.3-2.5,6.6-8.4,11.2-11.1,17.9-2.9,7.5-3.6,17.9-.7,25.4.6-.1,1.9-.1,2,.8.1,7.2.6,14,3.8,20.6,1.4,2.8,2.9,5.7,3.8,8.7.4,1.2,1.5,7.8,2.9,6.9.6-.3,1.4-.1,1.5.6,0,.6,0,1.1.1,1.7,5,14.4,14.8,28.5,23.8,38.8,6.4,7.3,16.9,11,25.3,15.2,2.6,1.3,5.2,2.4,7.8,3.2,2.7,3.3,5.3,6.2,7.3,9.9.9,1.6,1.5,3.2,1.9,4.7.7,8.9-6.3,17.4-10.2,25.2-3.1,6.1-6.8,11.3-10.6,16.7h-.2c-.3.4-.6.7-1,.7,0,0-.1,0-.2,0h-.3c-1.1-.9-2.4-1.5-3.2-1.7-3.9-.8-6.5,1.9-7.3,5.3-.4.6-.6,1.3-.7,2-1-1.5-1.7-1.9-3.1-2.9-1.7-1.2-3.3-2.2-5.4-2.5-3.1-.3-5.4,2.7-6.7,5.5-.1-.3-.4-.6-.8-.7-5.5-1.4-10-1.5-10.5,5.1-.4,4.9,2.2,9.5,5,13.4,1.6,2.3,3.4,4.5,5.5,6.3,1.1.9,2.2,1.8,3.5,2.4.6.3,3.6,1.8,3.2.2-.1-.3-.3-.6-.4-.9-.8-1.4-1.2-3.1-.9-4.8.1-.8.9-2.7,1.9-1.7.3.3.4,1,.7,1.4.4.6.9,1.1,1.4,1.6.8.9,1.5,1.8,2.3,2.7.9,1,2.1,1.9,3.3,2.4,1.1.5,3.6,1.2,2.8-.9-.6-1.9-1.6-3.5-1.9-5.5-.1-.8-.2-1.7-.1-2.5.1-.5.9-2.5,1.7-1.9.5.4.8,1.3,1.1,1.9.4.7.8,1.4,1.2,2,.9,1.3,2,2.5,3.2,3.5,1.4,1.1,2.9,2.1,4.6,2.7.9.3,1.8.6,2.7.8.4,0,1.3.4,1.5,0,.3-.5-.8-1.8-1-2.2-1.8-3.6-2-7.8-1-11.7.6-2.2,1.7-4.2,3.9-5,2.6-1,5.4-.3,8-.2,2.5,0,5-.2,7.6-.3,3.3-.2,8.9-1.5,10.9,2.1-.6,1.1-1.4,2.2-2.3,3.1-.3.3.1.7.4.5,2.3-1.6,4.3-3.1,5.7-5.6,1.3-2.4,2.1-5.4,2.1-8.1v-.2c0,0,0-.2.1-.3.1-.8,0-2-1.1-2.2-5-.8-9.8-1.9-14.7-3-.1,0-.2,0-.4-.2-.4-.2-.7-.5-1-.8s-.5-.6-.7-.8c-1.1-1.8-1.1-4.1-.4-6.6,4.4-9.5,12.7-17.8,20.9-24.5.7-1,1.4-1.9,2-2.9s1.8,0,1.5.9c0,0-.1.3-.1.4,2.4-1.7,4.9-3.7,4.5-6.8-.4-2.8-1.2-6.5,2.5-7.1,5.3-.8,11.1-.3,15.9,2.1,1.9,1,3.4,2.6,4.8,4,.1.5.2,1.1.3,1.6.7,2.9,1.6,3.5,3.6,5.8,2.5,2.9,2.9,6.6,2.5,10.4-.6,2-1.2,3.9-1.9,5.8-2.1,6.3-4.2,13.8-9,18.8-.3.4-.7,1-1.3,1.5-.3-.2-.6-.4-.9-.6-2-1.4-4.9-2.8-7.5-2.8s-3.4.8-4.7,2c-.2,0-.3.3-.5.5l-.7.7c-.6.7-1.2,1.6-1.4,2.5-.1.2-.1.3-.2.5-2.6-.8-6.2-1.6-8.2.4-3.6,3.7-1.5,9.5.2,13.6,1.5,3.4,3.4,6.5,5.9,9.3.6.7,1.2,1.3,1.9,2,.8.8,1.1,1.2,1.4.2,0-1.5.7-2.9,1.9-4,.1,0,.3,0,.4,0h.1c0,0,.1.2.1.2.7,1.5,1.6,3.6,2.8,5.3.1.2.2.5.4.7.4.7.9,1.4,1.5,2,.5.8,1.2,1.5,2,2,.5.3,1.2.7,1.8.9,1.1.2.5-.6.3-1.4-.9-5.8.8-12.1,4.5-16.7.6-.7,1.2-1.4,2-1.7.1,1.3.3,2.7.5,4,1.1,6.1,3.7,11.3,7.9,15.8.3.3.9,0,.9-.4-.2-1.1-.2-2.2-.1-3.3.8-4,1.8-7.9,3.7-11.5,2.3-4.6,6.4-7.9,11.3-9.2,3.8-1.1,12-2,14.7,1.6,1.4,2-1.7,3.3-2.6,4.7-.1.2,0,.4.2.4,2.1,0,5.1-3,6.3-4.5.9-1.2,1.4-2.8,1.2-4.3-.3-1.8-1.9-2.9-3.2-4.1-1.7-1.6-2.2-3.6-3.7-5.3-1.1-1.2-2.8-1.7-4.4-1.2-3.1,1-6.7,1.8-9.9,1.3-.7,0-1.3-.2-1.9-.6-2.3-1.2-1.4-5-.8-7,0-.2.1-.3.2-.5-.3-5.4-.5-10.9.8-16.2.9-3.8,3.1-7.8,4.7-11.8.3,0,.6,0,.9,0,2-1,4.1-2.2,6-3.4,1-.6,2.1-1.7,3.2-2.8,3.4,0,6.7-1.1,10.2-.5.5,0,.9.2,1.4.4.2.3.5.7.7,1,9.2,13.8,18.4,27.7,27.5,41.6,5,7.6,9.9,15.3,15,22.9,4.5,6.8,8.2,14,14.4,19.7,5.1,4.7,14.7,7.5,21.9,5.4.9.7,1.9,1.5,2.9,2.2.1,0,.1,0,.2,0,.3.2.5.4.7.5,2.1,1.6,4.4,2.7,6.9,3.5,5.8,1.8,12.2,1.1,17.8-.9.6-.2.9-.6,1-1.1.3.2.7.3,1,.3,4.4,2.4,9.7,3.4,14.5,2.3,2.7-.6,5.3-1.5,5.8-3.5.2-.9,0-1.9-.7-3.1h0ZM219.8,631.1c-.2-.3-.4-.8-.6-1.2-.2-.6-.3-1.2-.4-1.8.3,0,.6,0,.9,0,1.2,0,2.1.8,3,1.5,1.7,1.5,2.2,3.6,3.1,5.6,0,0,0,0,.1,0,.1,1.5.1,2.9.1,4.4-2.3-2.6-4.4-5.4-6.2-8.5h0ZM223.4,627.5c-1.6-.6-3.1-.9-4.8-.8-.1-.7-.3-1.2,0-1.9.6-1,2-1.1,3.1-.9.8.2,3.7,1.3,3.9,2.6h.1c.2,1.1.6,2.2,1,3.2-1-1-2.2-1.7-3.3-2.2h0ZM234.8,637.8c-.2,0-.4,0-.5-.3-.1-.3-.2-.5-.3-.8-.9-1.3-1.8-2.7-2.5-4.1-.2-1.2-.6-2.3-.9-3.5-.5-1.9-2.3-7.1,1.8-7.4.8,0,1.3,0,1.8,0,.4.3.7.6,1.1.8.4.7.4,1.6.6,3.1.4,4.2-.1,8.9.1,13.4-.4-.4-.8-.8-1.2-1.3h0ZM247.8,640.4c-.7-.9-1.4-1.9-2-3-.1-.2-.3-.5-.4-.7-1.4-2.5-2.5-5.2-3.1-8.1-.4-1.9-.7-4.1.1-6,.8-2,3,.3,4.1,1.1.5.4,1.2.8,1.6,1.2.4.5.3.8.3,1.3-1.7,2.2-.5,6.9-.1,9.2.4,2,.6,5,1.6,7.3-.8-.6-1.5-1.6-2.1-2.3h0ZM249.4,623.4c-1.7-.8-3.1-2.1-4.8-2.8-.3-.2-.7-.3-1.1-.4.4-.5.8-.9,1.3-1.3,2.1-1.6,3.5.7,4.6,2.1.4.5.7.9,1.1,1.3-.4.3-.8.6-1.1,1.1h0ZM300.4,626.8h0q-.1,0-.2-.2c-.3-1.1.2-2.3,1.5-2.5h0c.1,0,.2,0,.4,0h.2c0,1.1.1,2.2.3,3.3-.6,0-1.2-.2-1.9-.2h0c-.2,0-.3-.2-.3-.3h0ZM303.9,636.2c-1-1.8-2-3.6-3-5.4-.2-.3-.4-.7-.4-1.1,0-1.2,1.4-.9,2.2-.7.2.9.3,1.9.5,2.8.3,1.3.6,2.6,1,3.9-.1,0-.2.3-.3.5h0ZM311.8,641.6c-1.3-2.9-2.4-5.8-3.2-8.9-.5-1.7-.7-3.4-1-5.2.7.2,1.5.2,2.2.2.9,0,1.8.4,2.5.9,0,.2-.1.3-.1.5.1,3.7.4,8.4-.4,12.5h0ZM313.3,626.5c-.1.2-.1.4-.2.6-.8-.4-1.7-.6-2.6-.8-1,0-1.7,0-2.7,0h-.4c0-.9,0-1.8.1-2.8,2,.2,6.1,2.3,5.8,2.9h0ZM315.8,624.2c0,0-.1.2-.1.2-.2.3-.6.3-1,.5-.1,0-2.8-1.5-3.2-1.7-1.1-.4-2.3-.7-3.5-.5-.1,0-.3,0-.5,0,.1-.8.3-1.6.5-2.4.4-.5.8-1,1.3-1.3,1.2-.8,2.5.2,3.8.6.6.6,1.1,1.3,1.6,2.1.5.6,1.4,1.7,1.1,2.4h0ZM434.1,592.7c3,1.5,5.6,3.8,8.1,5.9,8.4,9.5,15.5,20.3,23.3,30.3-.1,0-.3-.2-.4-.2-.8-.8-1.5-1.6-2.2-2.4-3.9-4.3-7.9-8.5-11.6-13-3.5-4.2-7.1-8.3-10.8-12.3-2.6-2.9-5.3-6.2-8.3-9,.6,0,1.2.3,1.9.7h0ZM451.2,615.9c-.1,0-.2,0-.4-.2-.6-.6-1.2-1.3-1.9-1.9.3.2.5.5.8.7.6.5,1.1,1,1.5,1.4h0ZM430.4,597.9c-.4-.4-.9-.8-1.3-1.2-2-1.8-4-3.9-6.2-5.8.4.2.8.4,1.3.6,2,2.1,4.1,4.3,6.2,6.4ZM381.3,529.2c7.6,7,15.9,13.3,23.9,19.9.7.5,1.4,1.1,2,1.7h0s.1,0,.1,0c2.5,2,5.1,4.1,7.6,6.2h0c3.7,3.1,7.4,6.3,10.7,9.8.5.8.9,1.5,1.2,2.4.1.2.1.4.2.6-3.8-3.3-7.4-6.9-11.2-10.3-.1,0-.3-.3-.4-.4h0q-.1,0-.2-.2c-1.6-1.4-3.2-2.8-4.8-4.1-.5-.5-1-.9-1.6-1.3-.3-.2-.5-.5-.8-.7h0c-1.4-1.2-2.7-2.3-4.1-3.5-7.5-6.7-15.2-13.3-22.6-20.2-.2,0,0-.1,0,0h0ZM393.9,551.5c5.6,4.5,11.2,8.8,16.8,13.3,2.9,2.3,5.8,4.6,8.7,6.9,2.7,2.1,5.6,4.1,8,6.5.5.5-.1,1.2-.7.9-3.1-1.9-6-4.5-8.8-6.7-1.4-1.1-2.7-2.2-4.1-3.3-1.5-1.2-3-2.5-4.6-3.7-2-1.6-3.9-3.2-5.9-4.8-.5-.4-1-.8-1.5-1.2-1.8-1.5-3.7-3.1-5.5-4.6-1.2-1-2.4-2-3.6-3-10.9-9.1-21.7-18.4-32.5-27.7h0c11.1,9.2,22.4,18.3,33.7,27.4h0ZM391.2,559.8c-1.2-.9-2.3-1.8-3.5-2.7-.2-.2-.5-.4-.7-.6-1-.8-2.1-1.7-3.1-2.5-.1,0-.2,0-.2-.2-1.2-1-2.4-2-3.5-3h-.1c-1.2-1.1-2.3-2.1-3.5-3.1-.3-.2-.5-.5-.8-.7-1.5-1.3-3-2.6-4.5-3.9h0c-1.2-1.1-2.5-2.2-3.7-3.3h0c-3.7-3.3-7.4-6.6-11.1-10-6-5.4-11.7-11.1-16-18h0c4.7,7.1,10.8,13.1,17.2,18.6,5.6,4.8,11.2,9.6,16.9,14.4h0c.6.5,1.2,1,1.8,1.5,2,1.7,4,3.3,6.1,5h.1c1.8,1.6,3.7,3,5.5,4.4.3.2.5.4.8.6.4.3.8.6,1.2.9.4.3.8.6,1.3.9.4.3.7.5,1.1.8.5.4,1,.8,1.5,1.1.3.2.6.4.9.6.8.6,1.6,1.2,2.5,1.8,7.3,5.1,14.9,9.5,22.6,14,.5.3.2,1.2-.4.9-.9-.4-1.8-.8-2.7-1.3-.2,0-.3-.2-.5-.2-.8-.4-1.5-.8-2.3-1.2-.3-.2-.6-.3-1-.5-.6-.3-1.2-.7-1.9-1-.5-.3-1-.5-1.5-.8-.1,0-.2,0-.4-.2-1-.6-1.9-1.2-2.9-1.7h0c-5.1-3.3-10.2-6.8-15.2-10.6h0ZM340.3,451.4c.3.2.6.3,1,.3,4.3,3.8,8.6,7.5,12.9,11.2-3.6-1.9-7.3-3.7-11.1-5.4v1.4c7,5.2,13.7,11.1,20.1,17.2-2.5-1.9-5.1-3.8-7.8-5.5-3.1-2-7.6-3.7-9.9-6.7-.5-.9-1-1.8-1.6-2.7-1.2-2.5-2-5.2-3.5-7.5-.1-.2-.2-.4-.3-.6-.4-.9-.9-1.8-1.3-2.7.6.2,1,.6,1.5,1h0ZM308.4,387c-.3-.3-1,.2-.8.5,1.9,2.4,2.5,5.8,2,8.8-.4-1.1-.8-2.2-1.1-3-.4-1.1-2.1-.3-2,.6.1,1.5.2,3,.1,4.5h.1c-.2,1.1.1,2.3.3,3.4.1.4.4.6.8.5v.3c-.1.1-.1.3-.2.4-.4,1-.5,2.1-.5,3.2-.6-.1-1.5.5-1.6,1.2-.5,3.2-.2,6.5,1.4,9.4,1.6,2.8,3.5,6.3,6.9,6.7.8.1,1.8-.8,1.8-1.6v-.2c2,1.5,4.4,2.8,6.5,1.7-1.5-1.5-3.1-2.8-4.9-3.8-.1-.1,0-.3.1-.2,3,.9,5.5,2.8,7.7,4.9h.6c.9,1,1.6,2.1,2.4,3.2.4.5.9,1.1,1.3,1.6,2.9,3.9,6.7,9.1,6.9,14.1,0,.3-.2.6-.4.7h-.7c0-.1,0-.2-.1-.2-.3-.6-.6-1.2-.9-1.9,0-.1-.1-.2-.1-.3h0c-.8-1.7-1.6-3.3-2.4-5h0c-.7,0-1.3.5-1.4,1.2v.2c0,.3.2.5.4.6q.1,0,.2.1h-.2c.4.7.7,1.2,1.1,1.8-.5,0-1,0-1.5.3-.4.2-.7.4-.8.7-.3-.6-.7-1.1-1-1.6-1.3-2.2-2.8-4.1-4.5-6.1s-3.6-3.5-5.5-5.2c-.8-.7-2,.3-1.4,1.2,1.7,2.5,3.2,5.1,4.7,7.8-.3-.2-.6-.4-.9-.6-.4-.6-.9-1.3-1.3-1.9-.1-.2-.2-.5-.4-.8-.9-1.5-2.1-2.8-3.4-3.9-1-.8-2.1-1.4-3.2-1.9-1.6-1.1-3.3-2.1-5-3.1-1-.9-1.8-1.8-2.6-2.8-1.3-2.1-2.3-4.5-3.2-6.9.2-.3.4-.6.5-.9.5,2.1,1.6,4,3.7,4.9.5.2,1-.4.9-.8-.4-2.1-1.7-3.7-2.5-5.7-.9-2.2-1.3-5-.8-7.3.1-.4-.5-.3-.6,0-.4,1.2-.8,2.8-.9,4.4-.3-1.5-.6-3-1-4.5.2-.4.3-.8.4-1.2.5-1.8.6-3.5.5-5.1.7.8,2.4.6,3-.2,1.4-1.9.9-3.8.5-6-.1-.4-.2-.8-.3-1.2,1-1.9.5-4.2-1.1-5.6h.1c-1.2-1.1-2.5-2.2-3.9-3.3,3.2,1.2,6.6,1.8,9.8,3.1,0,.2.1.4.3.6,1.4,1.9,2.6,3.7,2.7,6-1.2-2.1-2.9-4.1-4.6-5.8h0ZM317.6,501.8c-.3-.4-.7-.8-1-1.1l-.4-.4c-.1-.1-.3-.2-.4-.4-.3-.3-.6-.6-1-.9-.1-.1,0-.2.1-.1.9.7,1.7,1.5,2.5,2.2,0,.2.2.4.2.7h0ZM308,341.7c.4.1.9.2,1.4.3,11.7-.9,24-2,35.4.8,6.7,1.6,14.3,4.2,18,9.5.6,1,.8,2,1,3-9.9-5.4-24.1-3-35.2-2.5-2.6.1-5.1.3-7.6.5-4.4.8-8.7,1.6-13,2.8-5.9,1.5-11.1,3.9-16.8,5.9-3.5,1.3-7.1,1.8-10.7,2.5.1.2.3.5.5.7.1,0,.1.1.2.1.2.7.7,1.2,1.4,1.4,1,0,2.1.1,3.2.4.6,0,1.2-.1,1.7-.1.3.1.6.1.9.2.9.2,1.8.5,2.8.6,2.7.8,5.5,1.4,8,2.2,5.6,1.9,11.3,3.4,17.1,4.7,6,1.4,12,2.5,18.1,3.4,3.6.2,7.2.7,10.8,1.2h.6c2.5.5,5.1.8,7.7,1.1-5.1,1.4-10,2.1-15.4,2-2.3-.3-4.5-.7-6.8-.8-7.6-.5-15.4-1.7-23-1.5-1.8,0-3.5,0-5-.1-1.2-.3-2.3-.6-3.4-1.2-1.7-.9-2.6-2.7-4.1-3.8-.2-.2-.4-.3-.6-.4-1-1.2-2.2-2.2-3.5-3.1h-.3c-.5-.1-1-.1-1.5-.1-1.2-1-3.2-1.3-4.6-1.5-2-.3-4.5-.7-6.7-.4-.1-.1-.2-.2-.3-.4.1-.1.2-.1.3-.2.2-.1.3-.6-.1-.6s-.4.1-.6.1c-.1-.1-.1-.3-.2-.4.4-.3.8-.5,1.2-.7,0,0,0-.1,0,0-.3.1-.7.1-1,.1.6-.3,1.1-.6,1.5-1.2.1-.1.2-.3,0-.4-.8-.5-1.7-.3-2.6.1-.2-.6-.5-1.2-.7-1.8.3-.2.6-.4.9-.5s.5-.3.8-.4c0,.1.1.1.1.2,0-.1,0-.2.1-.3.5-.3,1.1-.6,1.6-.9.6,0,1.2.1,1.8.1,4.2-.9,8.1-2,12.2-3.5,1.1-.7,2.2-1.5,3-2.4.3-.3.3-.6.1-.9.2,0,.3-.1.5-.1h0c.1-.1.3-.1.5-.2h.3c1-.3,2-.6,2.9-1,1.7-.2,3.1-.6,4.8-1.4.6-.3.5-1.1-.2-1-1.2.1-2.4.1-3.5.1-.2-.1-.5-.2-.9-.1-.3,0-.7,0-1,.1-.5,0-1,.4-1.3.8h-.1c-.5-.4-1.5-.5-2.3.1-.3.2-.6.4-.8.6h-.2c.1-.1.3-.3.4-.5.2-.2.3-.5.3-.7.2-.3.5-.6.6-.9.3-.9-.6-1.3-1.5-1-.4.1-.9.3-1.3.4-.1,0-.3,0-.4.1h0c-.5.2-.9.5-1,.9h-.1c.1-.6.3-1.3.6-2,.2-.5.1-.8-.1-1,.4-.3.8-.5,1.2-.8-.2.3-.5.6-.7,1-.1.1.1.2.2.1,2.1-1.7,3.9-3.6,6.2-5.1,2.4-1.8,5.3-2.2,8.2-2.2h0ZM285.3,545.5s0,0,0,0c-.1-.2-.2-.3-.3-.5,0,0,0,0-.1,0-.1,0-.1-.2-.2-.4-.3-.5-.6-1.1-.9-1.7-.3-.5-.5-1.1-.8-1.6-.2-.3-.3-.7-.5-1h0c-.5-1.2-1-2.3-1.4-3.5-1.9-5.3-3.4-10.8-4-16.4,0,0,.1,0,.1,0,.6,5.3,2.3,10.6,4.3,15.6,1.1,2.8,2.3,5.5,3.9,8.1.2.3.4.5.5.8.1,0,.1.2.2.2.1.2.3.4.4.5.5.6,1,1.2,1.5,1.8.4.5.7,1,1.1,1.5.1.2-.1.5-.3.4-.6-.2-1.1-.6-1.5-1-.3-.3-.5-.5-.8-.9h0c-.2-.3-.5-.6-.7-.9h0c-.1-.2-.2-.3-.3-.5h0c-.1,0-.1-.3-.2-.4h0ZM285.3,558.9c-.2,0-.5-.2-.7-.3-.4-.2-.7-.5-1-.7.3.2.7.5,1,.7.2,0,.4.2.7.3ZM271.9,505c0-.1.1-.1.1,0,.1,8.9,1.6,17.5,3.7,26h0c.2,1.1.5,2,.7,2.9h0c.1.6.3,1.1.4,1.6h0c.1.4.2.8.3,1.1h0c.3,1.1.6,2.2.9,3.3.1.3-.3.5-.5.2-.2-.5-.4-1-.5-1.4-.1-.3-.2-.5-.3-.8-.6-1.6-1.1-3.2-1.5-4.8-2.3-9-3.3-18.6-3.3-28.1h0ZM274.1,532.1s0,0,0,0l-.8-.8s.1,0,.2,0c.2.3.4.6.6.9h0ZM280.9,471.1c-3.5-7.1-5.2-14.8-5.3-22.9,0-2.3.2-4.5.5-6.7.5-1.4,1.1-2.8,1.7-4.2-2,8.8-.3,18.6,2.9,26.7,3.8,9.8,9.4,18.4,17.1,25.4-5.4-3.9-10.2-8.6-14.1-14-1-1.4-1.9-2.8-2.8-4.3h0ZM290,333.3c.5-.1.8.3.7.6,2.1-.2,4.7-.2,5.9,1.6.2.3-.1.7-.5.6-2.3-1.1-4.1-1.4-6.7-1.1-.2,0-.4-.1-.5-.3-1.8.6-3.7,1.1-5.5,1.7-.4.1-.5-.4-.2-.5,2.2-1,4.5-1.9,6.8-2.6h0ZM287.8,333c.4,0,.5.6.1.7-3.6,1-7.2,1.3-10.5,3.2-.4.2-.7-.4-.4-.6,3.1-1.9,7.1-3.5,10.8-3.3h0ZM281.8,333.6c-1.9.9-4,1.3-6,2.2-1.8.9-3.6,1.9-5.4,3-.2.1-.5-.2-.2-.3,3.2-2.1,7.5-5.3,11.4-5.4.4,0,.5.4.2.5h0ZM247.6,350.7c.1-.1.3,0,.2.1-1.3,1.6-2.6,3.1-4,4.7h-.4c1.4-1.6,2.8-3.2,4.2-4.8h0ZM211.8,414.3v-2.1c0-.4,0-.8.1-1.2v-.2c.1-1,.1-2,.2-3h0c.5-4.8,1.4-9.6,2.5-14.1,1.8-7.2,4.5-15.7,11.1-19.9.1-.1.2.1.1.2-6.4,5.1-9.1,13.8-10.6,21.5-.6,3.1-1,6.3-1.3,9.4h0c-.4,3.9-.6,7.6-.8,11.5v.3c0,.4-.1.9-.1,1.3,0,.6-.1,1.2-.1,1.8s-1,.6-1.1,0c-.1-1.2-.1-2.5-.1-3.8v-.9c.1-.3.1-.6.1-.8h0ZM219.5,429.7h0c-.1-.8-.1-1.5-.2-2.2v-3.8c.1-2.6.4-5.3.7-7.9,0-.3.1-.5.1-.8h0c0,.3-.1.6-.1.9h0c-.4,3.5-.7,7.1-.5,10.6,0,.3,0,.6.1,1v.4c0,.3.1.6.1.8s0,.3.1.5c0,.2.1.5.1.7s0,.3.1.5c.1.3.1.6.1.9s.1.3.1.5.1.4.1.6c.2.9.5,1.9.8,2.8,0,.1-.1.2-.2.1-.1-.2-.1-.4-.2-.6h0c-.6-1.6-.9-3.3-1.2-5h0ZM204.2,438.6c-.1.2-.1.4-.2.5-.1.4-.2.7-.3,1h-.2c-.1.5-.3,1.1-.5,1.6.1-.4.2-.9.4-1.3.3-.6.5-1.2.8-1.8h0ZM197.5,441.7c-.4.9-.8,1.8-1.1,2.8-.4,1.1-.9,3.3-.9,5.3v.2c-2-9.6,2.8-14.8,7.7-20.8-.5.9-.9,1.8-1.4,2.7-1.8,3.1-3.2,6.4-4.3,9.8h0ZM204.5,441c-2.8,10.4-2.9,20.9-1.9,31.5h0v.2h-.4c-.1-.6-.2-1.2-.3-1.7,0-.2-.1-.4-.1-.6-.1-.3-.1-.6-.1-1s-.1-.5-.1-.8-.1-.5-.1-.8-.1-.6-.1-.8c-.1-.8-.1-1.5-.1-2.3s0-1.2-.1-1.8v-.2c0-1.4,0-2.8.1-4.2v-.4c0-.6.1-1.2.1-1.8v-.4c.1-.7.1-1.4.2-2h0c.1-.7.2-1.5.3-2.2v-.2c.1-.6.2-1.3.3-1.9,0-.1.1-.3.1-.4.1-.6.2-1.2.3-1.8.2-.8.3-1.6.5-2.4-.1,0-.1.1-.1.1,0-.2.1-.4.1-.7v.5c.3-1.4.7-2.7,1-4.1.2,0,.5,0,.4.2h0ZM206.9,486.1c-.1-.3-.2-.6-.3-.9,0-.1-.1-.2-.1-.3-.1-.2-.1-.4-.2-.6,0-.1-.1-.2-.1-.4s-.1-.4-.1-.5-.1-.3-.1-.4c0-.2-.1-.3-.1-.5s-.1-.3-.1-.5-.1-.3-.1-.5-.1-.3-.1-.5,0-.2-.1-.4c-.1-.5-.1-.9-.2-1.4-.4-3.1-.5-6.2-.6-9.2-.1-5.4,0-10.8.1-16.2,0-.3.5-.3.5,0,.1,5.4.1,10.7.3,16.1.2,4.4.9,8.7,1.5,13.1.1.9.2,1.8.4,2.8.1.5-.5.7-.6.3h0ZM211.4,492.9c-3.4-9.2-4.3-19.9-3.4-29.7,0-.1.1-.1.1,0-.3,5.1,0,10.2.8,15.2.8,4.8,2.1,9.5,3.1,14.2,0,.5-.5.7-.6.3h0ZM218.2,503.1c-1.9-4.5-3.6-9.1-5.2-13.7-1.5-4.1-2.6-8.4-2.6-12.8s.1-.1.1,0c.2,4.8,1.9,9.4,3.7,13.8,1.7,4,3.9,8.1,4.7,12.4.1.5-.5.6-.7.3h0ZM225.6,509.2c-4.7-5.2-9.6-12.3-10-19.6,0-.1.1-.1.1,0,.8,7.3,6,13.6,10.3,19.3.3.2-.1.5-.4.3ZM226.7,448c-.2-.6-.4-1.1-.6-1.7-.1-.2-.1-.5-.2-.7-.1-.3-.2-.7-.4-1-.1-.3-.2-.6-.3-1-.1-.3-.2-.5-.2-.8-.1-.4-.2-.8-.3-1.2-.1-.2-.1-.4-.2-.6-.1-.4-.2-.9-.4-1.3,0-.1-.1-.3-.1-.4-.1-.5-.2-1-.4-1.5,0-.1,0-.2-.1-.2-.1-.5-.2-1.1-.4-1.6h0c-.1-.7-.2-1.3-.4-1.8h0c-.9-4.5-1.4-8.9-1.1-13.4,0-.1.1-.1.1,0,0,4.1.7,8,1.6,12h0c.1.7.3,1.3.4,1.9,1.1,4.4,2.8,8.7,3.5,13.2.3.4-.3.5-.5.1h0ZM232.8,451.5c0,.2-.1.4-.3.4h-.5s-.1,0-.1-.1h-.1c-.2-.5-.4-.8-.6-1.2-.1-.1-.1-.2-.2-.4-.1-.3-.3-.6-.4-.9-.1-.1-.1-.2-.2-.4-.2-.4-.3-.7-.5-1.1-.1-.1-.1-.3-.2-.4-.1-.3-.2-.5-.3-.8-.1-.2-.1-.4-.2-.5-.1-.2-.2-.4-.2-.6-.1-.2-.2-.4-.2-.6-.4-1-.8-2.1-1.1-3.1h0c-.1-.3-.2-.5-.3-.8-1.1-3.1-1.7-6.2-1.6-9.4,0-.1.1-.1.1,0,0,.3,0,.6.1.8v.2c0,.2,0,.4.1.6v.3c0,.2.1.4.1.6v.2c.1.3.1.6.2.8h0c.1.3.1.5.2.8v.2c.1.2.1.5.2.7h0c.4,1.6,1,3.1,1.6,4.5h0c.2.4.3.7.5,1.1,1.3,2.9,3.1,5.7,3.8,8.8v.3h0ZM247.9,461.8c-1.3-.5-2.6-1.2-3.8-2h0c-.2-.1-.4-.2-.6-.4-.1,0-.1-.1-.2-.1-.1-.1-.2-.2-.4-.3-.1,0-.1-.1-.2-.2-.1-.1-.2-.2-.3-.3q-.1-.1-.2-.2c-.1-.1-.2-.2-.3-.3q-.1-.1-.2-.2c-.1-.1-.2-.2-.3-.3q-.1-.1-.2-.2c-.1-.1-.2-.2-.3-.3q-.1-.1-.2-.2c-.1-.1-.2-.2-.3-.3q-.1-.1-.1-.2c-.1-.2-.3-.3-.4-.5,0,.1.1.2.1.4,1.4,1.5,2.7,2.9,3.9,4.4.5.7-.4,1.5-1,1-1-.7-1.7-1.6-2.2-2.5-1.2-1.3-2.4-2.6-3.6-4-.3-.4-.7-.8-1-1.2-.2-.2-.4-.5-.5-.7h-.1c-.4-.6-.7-1-1.1-1.5h-.1c-.1-.3-.3-.5-.4-.7h-.1c-.3-.6-.6-1.1-.9-1.5,0,0-.1-.1-.1-.2l-.3-.6h-.1c-.1-.3-.3-.6-.4-.8h0c-.1-.3-.2-.5-.3-.7,0-.1-.1-.1-.1-.2l-.3-.6s0-.1-.1-.1c-.1-.2-.2-.5-.3-.8,0,0,0-.1-.1-.2-.1-.2-.1-.4-.2-.6q0-.1-.1-.2c-.1-.2-.1-.5-.2-.7h0c-.1-.4-.1-.6-.1-.9v-.2c0-.2-.1-.4-.1-.6v-.2c0-.3-.1-.5-.1-.8s.4-.3.4,0,.1.7.1,1v.2c.1.3.1.6.2.9q0,.1.1.2c.1.3.1.6.2.8h0c.1.4.2.6.3.9,0,.1.1.2.1.3.1.2.2.5.3.7.1.1.1.2.1.3.1.2.2.4.3.5.1.2.2.3.3.5.1.1.2.3.2.4s.2.3.2.4c.1.1.1.2.2.3.1.2.3.5.5.7,0,0,.1.1.1.2,1.5,2.2,3.4,4.2,5.2,6.1-.1-.3-.2-.7-.3-1-.1-.4.3-.7.6-.4.2.1.4.3.6.4q.1.1.2.2c.1.1.2.2.3.3.1.1.2.2.3.3.1.1.2.1.2.2.8.8,1.6,1.6,2.5,2.2,1.5,1.1,3.1,2.1,4.7,3,1,.4.6,1.4,0,1.1h0ZM249,351.2c-.1.1-.3,0-.2-.1,2.7-3.6,5.9-7.3,9.7-9.8.3-.2.5.2.3.4-3.4,3.1-6.9,5.9-9.8,9.5h0ZM254.3,347.6c-.1.1-.4,0-.3-.2,3.2-3.3,6.4-7.7,11-9,.3-.1.5.3.2.5-4.4,2.1-7.5,5.3-10.9,8.7h0ZM261,343.4c3.7-3.1,8-7.5,13-8.3.4,0,.5.5.2.6-2.5,1-4.8,1.9-7,3.4-2.1,1.4-4,3-6,4.5-.2.1-.4-.1-.2-.2h0ZM269.7,353.6c-.1.5-.1,1.1,0,1.6l-.4-.4c-.1-.1-.2,0-.2.1.1.3.3.5.4.8-.1-.1-.2-.3-.3-.4-.3-.3-.7-.3-1-.1-.6-.4-1.3-.8-2-1,1-.5,1.9-1.2,2.7-1.9.7-.6.2-1.3-.5-1.3.1-.1.2-.2.4-.3.2-.1.4-.2.6-.3-.2.5.4.9,1,.5,3.6-2.5,6.9-3.1,10.5-3.7.1,0,.2.1.4.1,1,.4,1.9.9,2.9,1.2.1.1.1.2.3.3h.1c0,.1,0,.2.1.3.5.8,1,1.5,1.5,2.3,0,.4.2.6.4.9.1.4.1.7.2,1.1-.1.6.3.9.8.9l.3.3c.1.3.3.5.9.6.5.1,1,.1,1.5,0-.4.4-.7.8-1.1,1.1-2.4-.2-5.3,1-7.2,1.8-.3.1-.7.5-.9.9h-1.7c-1.2,0-2.2-.3-3.4-.8-2.5-1.2-3.3-3.7-5.4-5-.7,0-.9.3-.9.4h0ZM271.6,527.2s0,0,0,0c-.5-1.3-.9-2.8-1.7-4,0,0,0,0,.1,0,.8,1.2,1.2,2.6,1.6,4h0ZM272.3,621.3c2.6.4,5.3.5,8,.7,1.2,0,3.8-.2,4.9.6.5.4.7,1,.2,2s-.6.8-1,.8-1.5-1-2-1.3c-1-.4-2.2-.7-3.3-1-2.3-.7-4.6-1.4-7-1.6-5.6-.5-11.2-.7-16.8.2h0c-.1-.8-.3-1.4-.6-2.1-.3-.6-1.6-3.3-1-3.6,1-.7,3.6,1.9,4.1,2.6.7.8,1.7,2.5,3,1.8,1.3-.6.6-2-.1-2.8-.2-.2-1.7-2.3-1.6-2.3h.1-.1c-.1-.3,0-.7.1-1,.5,0,1,.2,1.4.2.5,0,1.1.2,1.7.3h-.5c1.3,4.5,6.4,5.9,10.5,6.5h0ZM271,596c-1.6,2.6-3.2,5.3-4.2,8.3-.1.2-.1.5-.2.7-.7,2.2-1.3,5.3-.4,7.2h.1c-1.9-.3-4.2-.8-6.1-.5.8-1.7,1.6-3.3,2.4-4.9,5.7-7.9,10.8-16.4,15.1-24.8h0c1.3.3,2.6.7,3.8,1.4-3.9,3.7-7.6,7.9-10.5,12.6h0ZM283.4,581.5c-1.5-.9-3.2-1.3-4.9-1,.3-.5.5-1,.8-1.5h7.1c-1,.6-2,1.5-3,2.5h0ZM295.9,566.2c-4.3.6-9.2-1.7-12.9-3.6-4.4-2.3-8.5-5.1-13.1-7-.1,0,0,0,0,0,4.4,1.8,8.5,4,12.8,5.9,2.1.9,4.2,1.8,6.4,2.4,2.2.7,4.5.9,6.8,1.3.6,0,.6,1,0,1.1h0ZM309.8,564.1c-2.8-.9-5.4-3.2-7.6-5.1-2.1-1.9-4.2-3.9-6-6-1.2-1.4-2.4-2.8-3.5-4.3-.5-.7-1.1-1.4-1.6-2.1-.1-.2-.2-.3-.4-.5-.3-.4-.6-.8-.9-1.3-.5-.7-1-1.5-1.6-2.2-.2-.3-.4-.6-.6-.9-.7-1-1.4-2-2.1-3-.3-.4.3-.8.6-.5.4.6.8,1.1,1.2,1.7.1,0,.2.3.3.4.3.5.6.9,1,1.4.1.2.2.3.3.4.4.5.8,1,1.1,1.5,0,0,.1,0,.1.2.4.5.8,1.1,1.2,1.6,0,0,.1,0,.1.2.2.2.4.5.5.7s.3.3.4.5c.3.4.6.7.9,1.1.1,0,.1.2.2.2.3.4.7.8,1,1.2h0c.7.8,1.3,1.5,2,2.3,2.1,2.3,4.4,4.6,6.9,6.5,2.2,1.7,4.7,3,6.9,4.8.7.7.2,1.4-.4,1.2h0ZM316.3,564.8c-3.1-1-5.7-3.2-8.1-5.4-.3-.3.1-.8.4-.5,2.6,1.9,5.3,3.5,8.1,5.1.4.3.1,1-.4.8h0ZM321.7,626.4h-.5c-.4,0-.7-.2-.7-.7,0-.8.1-1.6.3-2.4.1-.5.2-1,.4-1.5.1-.5.4-.9.8-1.1.4-.2.8,0,1.1.2-1.1,1.6-1.3,3.5-1.4,5.5h0ZM327.7,638.5c-.1-.3-.2-.5-.2-.8-.2-.8-.4-1.7-.5-2.6,1.1.4,2.4.6,3.6.5-.6,1.5-1.2,2.7-2.9,2.9h0ZM331.3,633.5c-.7,0-1.4.2-2.1.3-.8,0-1.6.2-2.4,0-.1-1-.2-1.9-.3-2.9.9.2,1.7.2,2.6.2s1.8.2,2.7,0c-.1.9-.3,1.6-.5,2.2h0ZM332.2,629.7v.2c-.6,0-1.2.2-1.7.3-1.4,0-2.7,0-4,0v-.2c0-1-.1-2.1,0-3.1,1.9.7,4.2.6,6.1.2-.2,1-.3,1.9-.4,2.7h0ZM332.9,624.1v1.4c-.8,0-1.6.4-2.3.5-1.4,0-2.8.3-4,0,.1-1.1.2-2.3.3-3.4.3-1.7,1-2.9,1.8-4.3.1-.2.3-.3.5-.5.6-.2,1.3,0,2.1.3,1.9,1,1.8,4.1,1.6,6.1h0ZM335,613.2c-.9-.2-1.8-.3-2.7-.4-1.4-.3-2.9-.3-4.2,0,.2-.8.4-1.5.7-2.3,1.3-.2,2.6-.4,3.6,0s1.8.8,2.8,1c-.2.6-.2,1.1-.2,1.5h0ZM331.6,609.2c-.9,0-1.7.2-2.6.3h0c3.2-5.1,5.3-11.3,7-17.6.5,0,1,0,1.5.3s.9.8,1.2,1.3l.3.6c-1.7,5.5-3.1,10.6-3.7,16-1.3-.2-2.4-1-3.7-.9h0ZM336.4,590.6c.2-1,.5-1.9.7-2.9.7.2,1.3.5,1.9.9.5.3.9.7,1.4,1-.2.7-.4,1.5-.7,2.2h0c-.6-.6-1.5-1.1-2.1-1.2-.5,0-.8,0-1.2,0h0ZM342.2,620.6c.3,0,.6.2.9.3.7.2,1.6.3,2.4.5.9.2,2,.4,2.9.8.3.2.3.7-.1.7-2,0-4,0-6,0s-2,0-3,.3c-.4,0-2.8.4-2.9.7,0,0,.1,0,.1-.2h-.1c0-1,.4-2.3.9-3.1.5-.7,2.2-.5,3-.4.8.1,1.3.3,1.9.5h0ZM340.9,587.8c-.3-.3-.7-.5-1-.7-.8-.5-1.6-.7-2.4-.7.2-.9.4-1.8.6-2.6,1,0,2.1-.3,3.1-.6,0,.6.2,1.1.6,1.6-.3,1-.6,2-.9,3ZM343,581c-.3-.2-.7,0-1,0-1.2.4-2.3.7-3.5.9.1-.6.3-1.2.4-1.8.2,0,.4-.2.6-.3.8-.4,1.4-1,1.9-1.7.7.5,1.1,1.3,1.6,2.1.1,0,.2.2.4.2-.2,0-.3.3-.4.6h0ZM362.8,548.5h0c-.8-.7-1.6-1.4-2.4-2.1-1.2-1.1-2.4-2.1-3.6-3.2-1-.9-2-1.8-3-2.6-.3-.3-.7-.6-1-.9-1.1-1-2.3-2-3.4-3-.1,0-.2-.2-.3-.2-1-.9-2-1.8-3-2.7-1.5-1.3-3-2.7-4.4-4-.3-.3-.6-.6-1-.9-.5-.5-1-.9-1.5-1.4s-.6-.6-1-.9c-.5-.5-1.1-1-1.6-1.5s-.5-.5-.8-.7c-.8-.7-1.5-1.5-2.3-2.2-.2-.2-.4-.4-.6-.6-.6-.6-1.1-1.1-1.7-1.7-.2-.3-.5-.5-.8-.8-.6-.6-1.1-1.2-1.7-1.8-.2-.2-.4-.4-.6-.6-.8-.8-1.5-1.6-2.3-2.4-.1,0-.2-.2-.3-.3-.6-.7-1.3-1.4-1.9-2.1-.2-.2-.4-.5-.6-.7-.6-.6-1.1-1.3-1.7-1.9s-.4-.4-.5-.6c-.7-.9-1.5-1.7-2.2-2.6-1.6-1.9-3.1-3.9-4.6-5.8-.7-1-1.4-1.9-2.1-2.9,0,0,0-.1.1-.1,0,.1.1.1.1.2h0c.9,1.1,1.8,2.1,2.7,3.2h.1c1,1.3,2.1,2.6,3.2,3.8l.2.2h0l.2.2c8.2,9.4,17.4,18,26.7,26.2.1,0,.2.2.3.2h.1c-3.6-3.5-7.2-7.3-10.7-11.1h0c-1.6-1.7-3.1-3.5-4.7-5.3h0c-1.8-2.1-3.6-4.2-5.3-6.3,0,0,0-.1.1-.1,1,1.1,2,2.3,2.9,3.4.2.2.4.5.7.8,1,1.1,2,2.2,3,3.3h0c2.7,3,5.5,5.9,8.3,8.8.1,0,.3.3.4.4,2.1,2.2,4.3,4.3,6.5,6.5s.4.4.6.6c1.8,1.7,3.6,3.4,5.4,5h0c1.7,1.6,3.5,3.1,5.2,4.7h.1c.8.8,1.6,1.5,2.4,2.2.1,0,.2.2.3.3.9.8,1.8,1.5,2.7,2.3.9.7,1.8,1.5,2.7,2.2.1,0,.2,0,.2.2.8.7,1.7,1.3,2.5,2h0c1.8,1.4,3.6,2.8,5.5,4.2h0c3.4,2.5,6.8,5,10.4,7.4,2.7,1.8,5.4,3.5,8.1,5.1h0c2.6,1.5,5.1,3,7.7,4.5.6.4,1.2.7,1.9,1.1.5.3,1,.6,1.4.8,1.1.7,2.2,1.3,3.3,2,.4.2,0,.8-.4.6-.6-.3-1.3-.6-1.9-.9-.1,0-.3,0-.5-.2-.6-.3-1.1-.5-1.7-.8-.1,0-.1,0-.2,0-1.4-.7-2.7-1.4-4-2.2-5-2.8-9.8-6.1-14.5-9.2-1.8-1.2-3.5-2.4-5.3-3.7,4.9,3.9,10,7.6,15.3,10.9,2.1,1.3,4.2,2.5,6.4,3.6h0c5.5,2.8,11.2,5,17.2,6.5h.1c.5,0,1.1.3,1.7.4.2,0,.4,0,.5,0,.4,0,.9.2,1.3.3.2,0,.4,0,.5,0,.6,0,1.2.2,1.8.3.7,0,.8,1.3,0,1.3h-2.2c-.4,0-.8,0-1.2,0-2.6-.3-5.2-.8-7.7-1.6-19-6-34.8-19.9-49.6-33.1h0ZM456.8,663.2c-6.4-3.6-11.2-10.6-15.9-16.2-5.1-6-10.2-12.2-15.2-18.4s-10-12.4-15-18.5c-4-4.9-8.7-9.7-12.6-14.6-.3-.5-.6-.9-1-1.4-1.5-2.2-3.2-4.2-4.9-6.2.1,0,.2,0,.4,0,1.5,1.4,2.9,3,4.2,4.4.8.8,1.7,1.6,2.5,2.5.5.5.9,1.1,1.4,1.6,3.2,3.7,6.5,7.3,9.6,10.9,3.1,3.6,6.3,7.2,9.4,10.8-.1-.2-.1-.3-.2-.5.1.2.3.3.4.4,0,0,0,.2.1.2h0c3.2,3.7,6.4,7.5,9.5,11.3,6.1,7.4,12.1,15,18,22.6,3.1,4,6.4,8.2,10.5,11.4-.4,0-.8-.2-1.2-.4h0ZM473.2,652.5c-6.8-6.9-13.6-13.8-20.4-20.6-6.6-6.6-13.2-13.2-19.9-19.7l-3.5-3.5c-4.5-5.1-9-10.2-13.5-15.3,1.3.6,2.6,1.2,3.9,1.7,2,.8,4.1,1.9,6.2,2.2.2,0,.4,0,.6-.3.2.2.4.4.6.5,3.5,3.4,7.1,6.6,10.6,9.9,7.1,6.5,14.2,13,21.1,19.7,1.2,1.2,2.4,2.3,3.6,3.5,3.5,3.9,6.9,7.7,10.5,11.5,1.5,1.9,3.1,3.8,4.7,5.5,1.5,1.7,3.1,3.4,4.6,5.2,1.6,1.8,2.8,3.9,4.4,5.7,1,1.3,2.1,2.7,3.3,3.9.7,1,1.5,2,2.2,3-7.9-1.1-13.6-7.4-19-12.9h0Z"/>
      </g>
      <g>
        <path class="st4" d="M284.9,355.5c.3-.4.3-.7.1-.9,1.2-1.8-.2-4-2.1-5.2-1-.8-2.3-1.2-3.6-1-.2,0-.5.1-.7.1-2.6.2-5.3,1.4-5.9,3.6,0,.1.1.1.2,0h.1c-.1.1-.1.3-.1.5s.2.2.3.2h.1c.3,0,1-.5.5-.7,0,0,1.6-1.4,1.7-1.5.8-.6,1.8-.9,2.8-1.1,1.1,0,2.1.2,2.9.6.7.6,1,1.5,1.1,2.4,0,.3.1.4.4.5-.3,0-.6.1-1,.1-.6-.1-1.3-.4-1.7-.6-.4-.1-.8-.2-1.1-.3-.3-.1-.5-.2-.8-.3-1-.4-2.6-.4-3.6,0-.3.1-.6.4-.3.7s.2.1.3.2c-.1.1-.2.1-.4.2-.2.1-.4.2-.6.3-.1-.1-.1-.2-.2-.3-.1-.1-.2-.2-.4-.2h-.4c-.3.1-.7.4-.6.7,1.9,4.5,9.6,6.5,13,2h0Z"/>
        <path class="st4" d="M300.8,377.5c2,.6,3.7.6,5.6.5h-.2q-.1,0-.2-.1c-3.8-1.2-6.4-3.8-9.5-5.2h.1c1,1.6,2.5,4.3,4.2,4.8h0Z"/>
        <path class="st4" d="M304,348.6c.6-.2,1-.4,1.4-.5.6.3,1.4.3,2,0,.9-.5,1.5-1,1.9-1.9.5-1.1.1-2.7-1.6-2.4-2.3.3-4.7,1.5-5.5,3.5-.4,1,.8,1.6,1.8,1.3h0Z"/>
        <path class="st4" d="M284.4,369.1c.8-.3,1.7-.6,2.5-1,.1-.1.2-.3,0-.2-.9.2-1.7.5-2.6.8-.3.1-.2.5.1.4h0Z"/>
        <path class="st4" d="M287.6,368.9c.2-.1.8-.1,1.1-.1s.2-.2.2-.3c-.3-.5-1-.2-1.4.1-.2.2-.1.4,0,.3Z"/>
      </g>
      <path class="st4" d="M498.7,664.7c-2.8-5.1-7.3-8.9-11.1-13.2-6-6.9-11.7-13.9-17.5-21-7.8-9.6-14.9-20.5-23.2-30v-.2c-1.1-2-2.4-3.8-3.7-5.6-.8-1.1-1.5-2.2-2.3-3.3,0,0,0-.2-.1-.2-2.4-5.5-5.4-10.7-8.6-15.8-.8-1.2-2.3-3-3.4-4.7-.3-.7-.6-1.3-1-1.9-.1-.3-.1-.5-.1-.7-.2-2.6,1.7-1.3,3-1,.9.3,1.6,1.2,1.9-.5.1-1-1.1-2.1-1.5-2.9-1.6-2.7-3.2-5.3-4.8-7.9-2.8-4.4-5.6-8.8-8.5-13.2-.7-2.3-2.5-4.3-4.3-6.2-1.9-2.7-3.8-5.4-5.8-8.1-.8-1-5.8-8.4-7.1-7.9,1.6-.7,2.9-2.6,2.6-4.2-.2-1.3-.6-2.5-1-3.8.7-.2,1.2-.9,1.1-1.7-1.4-7-7.8-13.1-12.1-18.5-5.1-6.4-10.6-12.5-16.2-18.4-10.5-11-22.1-22-35.1-30.1-1.4-1.8-2.9-3.7-4.4-5.1.6.2,1.5-.2,1.6-.9,1.4-7.8-5-14.6-10.3-19.6-1.2-1.1-2.9-2.7-4.9-4.1-3.4-1.1-6.8-2.4-8.7-5.2-1.8-2.7-1.5-6.3.1-9,.5-.9,1.1-1.6,1.6-2.5.5-.8.6-4.6,2.3-3.3.7.6,1.2,1.2,1.6,1.8-.1-.3-.1-.6-.2-.8-.4-2.5-1.7-5.1-3.7-6.8-.9-.8.2-1.9,1.2-1.5,1.5.6,2.7,1.4,3.9,2.3-.9-1.9-2.5-3.5-4.2-4.9,7.6.5,15.5.7,23.1.9,5.7.2,12.4-.3,17.4-3.4,1.3-.7,2.5-1.7,3.4-2.9-.5,0-1-.1-1.5-.1h0c-8.5-.9-17-2.8-25-4.5-1.5-.3-3-.7-4.5-1.1-3.5-.6-7.1-1.4-10.5-2.2-5.1-1.3-11.4-1.5-16-4.1-.3-.2-.4-.4-.4-.7,3-.6,6.1-1.5,9-2.3,2-.5,4-1,6-1.6h.1c2.9-.5,5.8-1,8.7-1.8,5.7-1.4,11.4-2.9,17.2-3.8,5.2-.9,10.4-.9,15.6-1.4,2.9.3,5.7.8,8.2,1.8,0-3-2.9-7.6-4-8.9-3.3-3.9-8.4-6.3-13.7-7.7-12.8-3.4-27.2-2.5-40.5-1.2-.4-.8-1-1.5-1.8-2h-.1c-.1-.1-.3-.1-.5-.1h-.5c-1,0-2.2-.1-3.3-.1-2.4-.1-4.9-.2-7.2-.2s-3,.1-4.2.2c-.2,0-.5.1-.7.2-.3.1-.6.3-1,.3s-.7.1-1.1.1c-1.1,0-2.2-.2-3.4-.3-1.1-.1-2.2-.3-3.1-.3s-.5.1-.7.1-.3.1-.5.1h0c0,.1-.8.7-.8.7h-3.3c-.4,0-.7,0-.9.1-.2,0-.8.3-1.1.5-.5.2-.9.4-1.2.5-.6.2-1.3.2-1.9.3-.7.1-1.4.1-1.9.3-.1,0-.4.2-.7.3-.7.4-1.3.7-2,.7s-.3,0-.4-.1c-1.5,1.1-3,2.3-4.5,3.5-.1.1-.3-.1-.2-.2,1-.8,2.1-1.8,3.2-2.7-.6.4-1.2.8-1.6,1.2-.5.6-1,.7-1.4.7s-.5-.1-.6-.1h-.1c-.3.4-.6.7-1.1.8-.2,0-.3.1-.5.1-1.5,1.4-3,2.8-4.5,4.3s-.4,0-.3-.2c1.2-1.3,2.4-2.7,3.8-4-.2,0-.4,0-.5.1-.1,0-.2.1-.3.2-.2.1-.4.3-.7.4h-.3c-2.4,2.2-4.9,4.5-7,7.1-.1.1-.3,0-.2-.1,1.4-1.9,3-3.8,4.7-5.6-.1.1-.2.2-.3.3,0,0-1.9,1-2.2,1.1-.4.1-.8.2-1.1.2h-.4c-.3,0-.4,0-.6.3,0,0-.1.1-.1.2-.1.3-.3.7-.7.9-.2.1-.6.2-1.1.4-.4.1-.8.2-1,.3-.5.2-1.1.7-1.4,1v.6l.2.2c.2.2.5.5.6,1,0,.4-.1.6-.2.8,0,.1-.1.1-.1.2s0,.2.1.4c.8-.9,1.6-1.9,2.4-2.8.1-.1.3,0,.2.1-.8,1-1.7,2-2.5,3,.1.2.1.3.2.5.2.5.4,1.1.4,1.6.2,2.7.6,5.5,1.1,8.1.4,2.2.7,4.5,1,6.8.2,2.2-.7,4.2-1.5,6.2-.5,1.2-1,2.3-1.2,3.4l-.2.2c0,.5-.1.9-.2,1.3.2.1.6.1.8.1.5.1.9.1,1.4.3.9.4,2.5,2.5,2.6,2.6.4.6.7,1.3.9,2,.1.4.3.9.4,1h.1c.2.1.5.2.7.5.4.4.6,1.3,1,3.5v.2c.3,1.6.3,3.2.4,4.6,0,.1,0,.3.1.5s.1.5.1.8c0,.6-.4,1.3-.7,2-.2.4-.5.9-.5,1.1v.8c0,.5,0,.7-.1,1-.2.5-1.3,1.5-1.5,1.6-.4.2-.7.2-1,.3h-.1c-.1.2-.2.5-.4.7-.9,1.2-2.1,1.9-3.3,2.5-.3.2-.7.4-1,.6-.1.2-.3.5-.7.7s-.8.3-1.2.3-.6,0-.8-.1h-.2c-.1,0-.2.1-.3.2-.3.2-.7.5-1.1.6-.2.1-.5.1-.8.1h-1.2c-.3.1-.5.1-.7.2-.4.1-.8.2-1.3.3h0c-.2.1-.4.3-.7.3h-.3c-.9,0-1.9-.6-2.8-1.1-.5-.3-1-.6-1.3-.7h-.4c-.2,0-.4.1-.7.1s-.6-.1-1-.2c-1.9-.8-2.5-1.9-3.1-2.9s-.5-1-.9-1.4c-.1-.2-.4-.4-.7-.5-.4-.3-.9-.6-1.3-1.2-.4-.5-.4-1-.5-1.4v-.2c-.2-.1-.4-.2-.6-.5-.5-.7-.6-2.1-.6-6.2s0-2.5-.1-3v-.3c.1-.6.4-1,.6-1.4.1-.1.2-.2.2-.3,0,0,0-.1-.1-.2h0s-.1,0-.1-.1c-.2-.2-.5-.5-.6-.9-.1-.5.1-.9.3-1.1,0-.2,0-.4-.1-.6-.1-.5-.1-1.1,0-1.9.1-.2.9-2.2,1.1-2.5.3-.4.7-.5,1-.5h.1c.1-.2.3-.6.9-.8h.6c.2-.4.7-1.1,1.8-1.4.4-.1.8-.1,1-.1v-1.4c-.7-4.4-1.1-8.7-1.4-13-1.8,2.3-3.4,4.7-5,7.2-3,4.7-5.6,9.7-7.9,14.8-.9,2-1.8,4-2.6,6.1-2,4-3.6,8.3-3.7,12.3,0,.2.3.2.4.1q.1-.1.1-.2c0,.2.3.3.5.3-1.3.5-2.4,9.7-3,11.3-2.5,6.6-8.4,11.2-11.1,17.9-2.9,7.5-3.6,17.9-.7,25.4.6-.1,1.9-.1,2,.8.1,7.2.6,14,3.8,20.6,1.4,2.8,2.9,5.7,3.8,8.7.4,1.2,1.5,7.8,2.9,6.9.6-.3,1.4-.1,1.5.6,0,.6,0,1.1.1,1.7,5,14.4,14.8,28.5,23.8,38.8,6.4,7.3,16.9,11,25.3,15.2,2.6,1.3,5.2,2.4,7.8,3.2,2.7,3.3,5.3,6.2,7.3,9.9.9,1.6,1.5,3.2,1.9,4.7.7,8.9-6.3,17.4-10.2,25.2-3.1,6.1-6.8,11.3-10.6,16.7h-.2c-.3.4-.6.7-1,.7,0,0-.1,0-.2,0h-.3c-1.1-.9-2.4-1.5-3.2-1.7-3.9-.8-6.5,1.9-7.3,5.3-.4.6-.6,1.3-.7,2-1-1.5-1.7-1.9-3.1-2.9-1.7-1.2-3.3-2.2-5.4-2.5-3.1-.3-5.4,2.7-6.7,5.5-.1-.3-.4-.6-.8-.7-5.5-1.4-10-1.5-10.5,5.1-.4,4.9,2.2,9.5,5,13.4,1.6,2.3,3.4,4.5,5.5,6.3,1.1.9,2.2,1.8,3.5,2.4.6.3,3.6,1.8,3.2.2-.1-.3-.3-.6-.4-.9-.8-1.4-1.2-3.1-.9-4.8.1-.8.9-2.7,1.9-1.7.3.3.4,1,.7,1.4.4.6.9,1.1,1.4,1.6.8.9,1.5,1.8,2.3,2.7.9,1,2.1,1.9,3.3,2.4,1.1.5,3.6,1.2,2.8-.9-.6-1.9-1.6-3.5-1.9-5.5-.1-.8-.2-1.7-.1-2.5.1-.5.9-2.5,1.7-1.9.5.4.8,1.3,1.1,1.9.4.7.8,1.4,1.2,2,.9,1.3,2,2.5,3.2,3.5,1.4,1.1,2.9,2.1,4.6,2.7.9.3,1.8.6,2.7.8.4,0,1.3.4,1.5,0,.3-.5-.8-1.8-1-2.2-1.8-3.6-2-7.8-1-11.7.6-2.2,1.7-4.2,3.9-5,2.6-1,5.4-.3,8-.2,2.5,0,5-.2,7.6-.3,3.3-.2,8.9-1.5,10.9,2.1-.6,1.1-1.4,2.2-2.3,3.1-.3.3.1.7.4.5,2.3-1.6,4.3-3.1,5.7-5.6,1.3-2.4,2.1-5.4,2.1-8.1v-.2c0,0,0-.2.1-.3.1-.8,0-2-1.1-2.2-5-.8-9.8-1.9-14.7-3-.1,0-.2,0-.4-.2-.4-.2-.7-.5-1-.8s-.5-.6-.7-.8c-1.1-1.8-1.1-4.1-.4-6.6,4.4-9.5,12.7-17.8,20.9-24.5.7-1,1.4-1.9,2-2.9s1.8,0,1.5.9c0,0-.1.3-.1.4,2.4-1.7,4.9-3.7,4.5-6.8-.4-2.8-1.2-6.5,2.5-7.1,5.3-.8,11.1-.3,15.9,2.1,1.9,1,3.4,2.6,4.8,4,.1.5.2,1.1.3,1.6.7,2.9,1.6,3.5,3.6,5.8,2.5,2.9,2.9,6.6,2.5,10.4-.6,2-1.2,3.9-1.9,5.8-2.1,6.3-4.2,13.8-9,18.8-.3.4-.7,1-1.3,1.5-.3-.2-.6-.4-.9-.6-2-1.4-4.9-2.8-7.5-2.8s-3.4.8-4.7,2c-.2,0-.3.3-.5.5l-.7.7c-.6.7-1.2,1.6-1.4,2.5-.1.2-.1.3-.2.5-2.6-.8-6.2-1.6-8.2.4-3.6,3.7-1.5,9.5.2,13.6,1.5,3.4,3.4,6.5,5.9,9.3.6.7,1.2,1.3,1.9,2,.8.8,1.1,1.2,1.4.2,0-1.5.7-2.9,1.9-4,.1,0,.3,0,.4,0h.1c0,0,.1.2.1.2.7,1.5,1.6,3.6,2.8,5.3.1.2.2.5.4.7.4.7.9,1.4,1.5,2,.5.8,1.2,1.5,2,2,.5.3,1.2.7,1.8.9,1.1.2.5-.6.3-1.4-.9-5.8.8-12.1,4.5-16.7.6-.7,1.2-1.4,2-1.7.1,1.3.3,2.7.5,4,1.1,6.1,3.7,11.3,7.9,15.8.3.3.9,0,.9-.4-.2-1.1-.2-2.2-.1-3.3.8-4,1.8-7.9,3.7-11.5,2.3-4.6,6.4-7.9,11.3-9.2,3.8-1.1,12-2,14.7,1.6,1.4,2-1.7,3.3-2.6,4.7-.1.2,0,.4.2.4,2.1,0,5.1-3,6.3-4.5.9-1.2,1.4-2.8,1.2-4.3-.3-1.8-1.9-2.9-3.2-4.1-1.7-1.6-2.2-3.6-3.7-5.3-1.1-1.2-2.8-1.7-4.4-1.2-3.1,1-6.7,1.8-9.9,1.3-.7,0-1.3-.2-1.9-.6-2.3-1.2-1.4-5-.8-7,0-.2.1-.3.2-.5-.3-5.4-.5-10.9.8-16.2.9-3.8,3.1-7.8,4.7-11.8.3,0,.6,0,.9,0,2-1,4.1-2.2,6-3.4,1-.6,2.1-1.7,3.2-2.8,3.4,0,6.7-1.1,10.2-.5.5,0,.9.2,1.4.4.2.3.5.7.7,1,9.2,13.8,18.4,27.7,27.5,41.6,5,7.6,9.9,15.3,15,22.9,4.5,6.8,8.2,14,14.4,19.7,5.1,4.7,14.7,7.5,21.9,5.4.9.7,1.9,1.5,2.9,2.2.1,0,.1,0,.2,0,.3.2.5.4.7.5,2.1,1.6,4.4,2.7,6.9,3.5,5.8,1.8,12.2,1.1,17.8-.9.6-.2.9-.6,1-1.1.3.2.7.3,1,.3,4.4,2.4,9.7,3.4,14.5,2.3,2.7-.6,5.3-1.5,5.8-3.5.2-.8,0-1.8-.6-3l-.5.2ZM211.8,414.3v-2.1c0-.4,0-.8.1-1.2v-.2c.1-1,.1-2,.2-3h0c.5-4.8,1.4-9.6,2.5-14.1,1.8-7.2,4.5-15.7,11.1-19.9.1-.1.2.1.1.2-6.4,5.1-9.1,13.8-10.6,21.5-.6,3.1-1,6.3-1.3,9.4h0c-.4,3.9-.6,7.6-.8,11.5v.3c0,.4-.1.9-.1,1.3,0,.6-.1,1.2-.1,1.8s-1,.6-1.1,0c-.1-1.2-.1-2.5-.1-3.8v-.9c.1-.3.1-.6.1-.8h0ZM219.5,429.7h0c-.1-.8-.1-1.5-.2-2.2v-3.8c.1-2.6.4-5.3.7-7.9,0-.3.1-.5.1-.8h0c0,.3-.1.6-.1.9-.4,3.5-.7,7.1-.5,10.6,0,.3,0,.6.1,1v.4c0,.3.1.6.1.8s0,.3.1.5c0,.2.1.5.1.7s0,.3.1.5c.1.3.1.6.1.9s.1.3.1.5.1.4.1.6c.2.9.5,1.9.8,2.8,0,.1-.1.2-.2.1-.1-.2-.1-.4-.2-.6h0c-.6-1.6-.9-3.3-1.2-5h0ZM204.2,438.6c-.1.2-.1.4-.2.5-.1.4-.2.7-.3,1h-.2c-.1.5-.3,1.1-.5,1.6.1-.4.2-.9.4-1.3.3-.6.5-1.2.8-1.8h0ZM197.5,441.7c-.4.9-.8,1.8-1.1,2.8-.4,1.1-.9,3.3-.9,5.3v.2c-2-9.6,2.8-14.8,7.7-20.8-.5.9-.9,1.8-1.4,2.7-1.8,3.1-3.2,6.4-4.3,9.8h0ZM202.6,472.5s0,.1,0,0v.2h-.4c-.1-.6-.2-1.2-.3-1.7,0-.2-.1-.4-.1-.6-.1-.3-.1-.6-.1-1s-.1-.5-.1-.8-.1-.5-.1-.8-.1-.6-.1-.8c-.1-.8-.1-1.5-.1-2.3s0-1.2-.1-1.8v-.2c0-1.4,0-2.8.1-4.2v-.4c0-.6.1-1.2.1-1.8v-.4c.1-.7.1-1.4.2-2h0c.1-.7.2-1.5.3-2.2v-.2c.1-.6.2-1.3.3-1.9,0-.1.1-.3.1-.4.1-.6.2-1.2.3-1.8.2-.8.3-1.6.5-2.4-.1,0-.1.1-.1.1,0-.2.1-.4.1-.7v.5c.3-1.4.7-2.7,1-4.1,0-.1.3-.1.2,0-2.6,10.6-2.7,21.1-1.7,31.7h0ZM206.9,486.1c-.1-.3-.2-.6-.3-.9,0-.1-.1-.2-.1-.3-.1-.2-.1-.4-.2-.6,0-.1-.1-.2-.1-.4s-.1-.4-.1-.5-.1-.3-.1-.4c0-.2-.1-.3-.1-.5s-.1-.3-.1-.5-.1-.3-.1-.5-.1-.3-.1-.5,0-.2-.1-.4c-.1-.5-.1-.9-.2-1.4-.4-3.1-.5-6.2-.6-9.2-.1-5.4,0-10.8.1-16.2,0-.3.5-.3.5,0,.1,5.4.1,10.7.3,16.1.2,4.4.9,8.7,1.5,13.1.1.9.2,1.8.4,2.8.1.5-.5.7-.6.3h0ZM211.4,492.9c-3.4-9.2-4.3-19.9-3.4-29.7,0-.1.1-.1.1,0-.3,5.1,0,10.2.8,15.2.8,4.8,2.1,9.5,3.1,14.2,0,.5-.5.7-.6.3h0ZM218.2,503.1c-1.9-4.5-3.6-9.1-5.2-13.7-1.5-4.1-2.6-8.4-2.6-12.8s.1-.1.1,0c.2,4.8,1.9,9.4,3.7,13.8,1.7,4,3.9,8.1,4.7,12.4.1.5-.5.6-.7.3h0ZM225.6,509.2c-4.7-5.2-9.6-12.3-10-19.6,0-.1.1-.1.1,0,.8,7.3,6,13.6,10.3,19.3.3.2-.1.5-.4.3ZM226.7,448c-.2-.6-.4-1.1-.6-1.7-.1-.2-.1-.5-.2-.7-.1-.3-.2-.7-.4-1-.1-.3-.2-.6-.3-1-.1-.3-.2-.5-.2-.8-.1-.4-.2-.8-.3-1.2-.1-.2-.1-.4-.2-.6-.1-.4-.2-.9-.4-1.3,0-.1-.1-.3-.1-.4-.1-.5-.2-1-.4-1.5,0-.1,0-.2-.1-.2-.1-.5-.2-1.1-.4-1.6h0c-.1-.7-.2-1.3-.4-1.8h0c-.9-4.5-1.4-8.9-1.1-13.4,0-.1.1-.1.1,0,0,4.1.7,8,1.6,12h0c.1.7.3,1.3.4,1.9,1.1,4.4,2.8,8.7,3.5,13.2.3.4-.3.5-.5.1h0ZM232.5,452h-.5s-.1,0-.1-.1h-.1c-.2-.5-.4-.8-.6-1.2-.1-.1-.1-.2-.2-.4-.1-.3-.3-.6-.4-.9-.1-.1-.1-.2-.2-.4-.2-.4-.3-.7-.5-1.1-.1-.1-.1-.3-.2-.4-.1-.3-.2-.5-.3-.8-.1-.2-.1-.4-.2-.5-.1-.2-.2-.4-.2-.6-.1-.2-.2-.4-.2-.6-.4-1-.8-2.1-1.1-3.1h0c-.1-.3-.2-.5-.3-.8-1.1-3.1-1.7-6.2-1.6-9.4,0-.1.1-.1.1,0,0,.3,0,.6.1.8v.2c0,.2,0,.4.1.6v.3c0,.2.1.4.1.6v.2c.1.3.1.6.2.8h0c.1.3.1.5.2.8v.2c.1.2.1.5.2.7h0c.4,1.6,1,3.1,1.6,4.5h0c.2.4.3.7.5,1.1,1.3,2.9,3.1,5.7,3.8,8.8h0c0,.4,0,.6-.2.7h0ZM247.9,461.8c-1.3-.5-2.6-1.2-3.8-2h0c-.2-.1-.4-.2-.6-.4-.1,0-.1-.1-.2-.1-.1-.1-.2-.2-.4-.3-.1,0-.1-.1-.2-.2-.1-.1-.2-.2-.3-.3q-.1-.1-.2-.2c-.1-.1-.2-.2-.3-.3q-.1-.1-.2-.2c-.1-.1-.2-.2-.3-.3q-.1-.1-.2-.2c-.1-.1-.2-.2-.3-.3q-.1-.1-.2-.2c-.1-.1-.2-.2-.3-.3q-.1-.1-.1-.2c-.1-.2-.3-.3-.4-.5,0,.1.1.2.1.4,1.4,1.5,2.7,2.9,3.9,4.4.5.7-.4,1.5-1,1-1-.7-1.7-1.6-2.2-2.5-1.2-1.3-2.4-2.6-3.6-4-.3-.4-.7-.8-1-1.2-.2-.2-.4-.5-.5-.7h-.1c-.4-.6-.7-1-1.1-1.5h-.1c-.1-.3-.3-.5-.4-.7h-.1c-.3-.6-.6-1.1-.9-1.5,0,0-.1-.1-.1-.2l-.3-.6h-.1c-.1-.3-.3-.6-.4-.8h0c-.1-.3-.2-.5-.3-.7,0-.1-.1-.1-.1-.2l-.3-.6s0-.1-.1-.1c-.1-.2-.2-.5-.3-.8,0,0,0-.1-.1-.2-.1-.2-.1-.4-.2-.6q0-.1-.1-.2c-.1-.2-.1-.5-.2-.7h0c-.1-.4-.1-.6-.1-.9v-.2c0-.2-.1-.4-.1-.6v-.2c0-.3-.1-.5-.1-.8s.4-.3.4,0,.1.7.1,1v.2c.1.3.1.6.2.9q0,.1.1.2c.1.3.1.6.2.8h0c.1.4.2.6.3.9,0,.1.1.2.1.3.1.2.2.5.3.7.1.1.1.2.1.3.1.2.2.4.3.5.1.2.2.3.3.5.1.1.2.3.2.4s.2.3.2.4c.1.1.1.2.2.3.1.2.3.5.5.7,0,0,.1.1.1.2,1.5,2.2,3.4,4.2,5.2,6.1-.1-.3-.2-.7-.3-1-.1-.4.3-.7.6-.4.2.1.4.3.6.4q.1.1.2.2c.1.1.2.2.3.3.1.1.2.2.3.3.1.1.2.1.2.2.8.8,1.6,1.6,2.5,2.2,1.5,1.1,3.1,2.1,4.7,3,1,.4.6,1.4,0,1.1h0ZM219.8,631.1c-.2-.3-.4-.8-.6-1.2-.2-.6-.3-1.2-.4-1.8.3,0,.6,0,.9,0,1.2,0,2.1.8,3,1.5,1.7,1.5,2.2,3.6,3.1,5.6,0,0,0,0,.1,0,.1,1.5.1,2.9.1,4.4-2.3-2.6-4.4-5.4-6.2-8.5h0ZM223.4,627.5c-1.6-.6-3.1-.9-4.8-.8-.1-.7-.3-1.2,0-1.9.6-1,2-1.1,3.1-.9.8.2,3.7,1.3,3.9,2.6h.1c.2,1.1.6,2.2,1,3.2-1-1-2.2-1.7-3.3-2.2h0ZM234.8,637.8c-.2,0-.4,0-.5-.3-.1-.3-.2-.5-.3-.8-.9-1.3-1.8-2.7-2.5-4.1-.2-1.2-.6-2.3-.9-3.5-.5-1.9-2.3-7.1,1.8-7.4.8,0,1.3,0,1.8,0,.4.3.7.6,1.1.8.4.7.4,1.6.6,3.1.4,4.2-.1,8.9.1,13.4-.4-.4-.8-.8-1.2-1.3h0ZM247.8,640.4c-.7-.9-1.4-1.9-2-3-.1-.2-.3-.5-.4-.7-1.4-2.5-2.5-5.2-3.1-8.1-.4-1.9-.7-4.1.1-6,.8-2,3,.3,4.1,1.1.5.4,1.2.8,1.6,1.2.4.5.3.8.3,1.3-1.7,2.2-.5,6.9-.1,9.2.4,2,.6,5,1.6,7.3-.8-.6-1.5-1.6-2.1-2.3h0ZM249.4,623.4c-1.7-.8-3.1-2.1-4.8-2.8-.3-.2-.7-.3-1.1-.4.4-.5.8-.9,1.3-1.3,2.1-1.6,3.5.7,4.6,2.1.4.5.7.9,1.1,1.3-.4.3-.8.6-1.1,1.1h0ZM300.4,626.8h0q-.1,0-.2-.2c-.3-1.1.2-2.3,1.5-2.5h0c.1,0,.2,0,.4,0h.2c0,1.1.1,2.2.3,3.3-.6,0-1.2-.2-1.9-.2h0c-.2,0-.3-.2-.3-.3h0ZM303.9,636.2c-1-1.8-2-3.6-3-5.4-.2-.3-.4-.7-.4-1.1,0-1.2,1.4-.9,2.2-.7.2.9.3,1.9.5,2.8.3,1.3.6,2.6,1,3.9-.1,0-.2.3-.3.5h0ZM311.8,641.6c-1.3-2.9-2.4-5.8-3.2-8.9-.5-1.7-.7-3.4-1-5.2.7.2,1.5.2,2.2.2.9,0,1.8.4,2.5.9,0,.2-.1.3-.1.5.1,3.7.4,8.4-.4,12.5h0ZM313.1,627.1c-.8-.4-1.7-.6-2.6-.8-1,0-1.7,0-2.7,0h-.4c0-.9,0-1.8.1-2.8,1.9,0,6,2.2,5.8,2.8,0,.3,0,.5-.2.7h0ZM315.8,624.2c0,0-.1.2-.1.2-.2.3-.6.3-1,.5-.1,0-2.8-1.5-3.2-1.7-1.1-.4-2.3-.7-3.5-.5-.1,0-.3,0-.5,0,.1-.8.3-1.6.5-2.4.4-.5.8-1,1.3-1.3,1.2-.8,2.5.2,3.8.6.6.6,1.1,1.3,1.6,2.1.5.6,1.4,1.7,1.1,2.4h0ZM434.1,592.7c3,1.5,5.6,3.8,8.1,5.9,8.4,9.5,15.5,20.3,23.3,30.3-.1,0-.3-.2-.4-.2-.8-.8-1.5-1.6-2.2-2.4-3.9-4.3-7.9-8.5-11.6-13-3.5-4.2-7.1-8.3-10.8-12.3-2.6-2.9-5.3-6.2-8.3-9,.6,0,1.2.3,1.9.7h0ZM451.2,615.9c-.1,0-.2,0-.4-.2-.6-.6-1.2-1.3-1.9-1.9.3.2.5.5.8.7.6.5,1.1,1,1.5,1.4h0ZM430.4,597.9c-.4-.4-.9-.8-1.3-1.2-2-1.8-4-3.9-6.2-5.8.4.2.8.4,1.3.6,2,2.1,4.1,4.3,6.2,6.4ZM381.3,529.2c7.6,7,15.9,13.3,23.9,19.9.7.5,1.4,1.1,2,1.7h0s.1,0,.1,0c2.5,2,5.1,4.1,7.6,6.2h0c3.7,3.1,7.4,6.3,10.7,9.8.5.8.9,1.5,1.2,2.4.1.2.1.4.2.6-3.8-3.3-7.4-6.9-11.2-10.3-.1,0-.3-.3-.4-.4h0q-.1,0-.2-.2c-1.6-1.4-3.2-2.8-4.8-4.1-.5-.5-1-.9-1.6-1.3-.3-.2-.5-.5-.8-.7h0c-1.4-1.2-2.7-2.3-4.1-3.5-7.5-6.7-15.2-13.3-22.6-20.2-.2,0,0-.1,0,0h0ZM393.9,551.5c5.6,4.5,11.2,8.8,16.8,13.3,2.9,2.3,5.8,4.6,8.7,6.9,2.7,2.1,5.6,4.1,8,6.5.5.5-.1,1.2-.7.9-3.1-1.9-6-4.5-8.8-6.7-1.4-1.1-2.7-2.2-4.1-3.3-1.5-1.2-3-2.5-4.6-3.7-2-1.6-3.9-3.2-5.9-4.8-.5-.4-1-.8-1.5-1.2-1.8-1.5-3.7-3.1-5.5-4.6-1.2-1-2.4-2-3.6-3-10.9-9.1-21.7-18.4-32.5-27.7h0c11.1,9.2,22.4,18.3,33.7,27.4h0ZM391.2,559.8c-1.2-.9-2.3-1.8-3.5-2.7-.2-.2-.5-.4-.7-.6-1-.8-2.1-1.7-3.1-2.5-.1,0-.2,0-.2-.2-1.2-1-2.4-2-3.5-3h-.1c-1.2-1.1-2.3-2.1-3.5-3.1-.3-.2-.5-.5-.8-.7-1.5-1.3-3-2.6-4.5-3.9-1.2-1.1-2.5-2.2-3.7-3.3-3.7-3.3-7.4-6.6-11.1-10-6-5.4-11.7-11.1-16-18h0c4.7,7.1,10.8,13.1,17.2,18.6,5.6,4.8,11.2,9.6,16.9,14.4h0c.6.5,1.2,1,1.8,1.5,2,1.7,4,3.3,6.1,5h.1c1.8,1.6,3.7,3,5.5,4.4.3.2.5.4.8.6.4.3.8.6,1.2.9.4.3.8.6,1.3.9.4.3.7.5,1.1.8.5.4,1,.8,1.5,1.1.3.2.6.4.9.6.8.6,1.6,1.2,2.5,1.8,7.3,5.1,14.9,9.5,22.6,14,.5.3.2,1.2-.4.9-.9-.4-1.8-.8-2.7-1.3-.2,0-.3-.2-.5-.2-.8-.4-1.5-.8-2.3-1.2-.3-.2-.6-.3-1-.5-.6-.3-1.2-.7-1.9-1-.5-.3-1-.5-1.5-.8-.1,0-.2,0-.4-.2-1-.6-1.9-1.2-2.9-1.7h0c-5.1-3.3-10.2-6.8-15.2-10.6h0ZM340.3,451.4c.3.2.6.3,1,.3,4.3,3.8,8.6,7.5,12.9,11.2-3.6-1.9-7.3-3.7-11.1-5.4v1.4c7,5.2,13.7,11.1,20.1,17.2-2.5-1.9-5.1-3.8-7.8-5.5-3.1-2-7.6-3.7-9.9-6.7-.5-.9-1-1.8-1.6-2.7-1.2-2.5-2-5.2-3.5-7.5-.1-.2-.2-.4-.3-.6-.4-.9-.9-1.8-1.3-2.7.6.2,1,.6,1.5,1h0ZM308.4,387c-.3-.3-1,.2-.8.5,1.9,2.4,2.5,5.8,2,8.8-.4-1.1-.8-2.2-1.1-3-.4-1.1-2.1-.3-2,.6.1,1.5.2,3,.1,4.5h.1c-.2,1.1.1,2.3.3,3.4.1.4.4.6.8.5v.3c-.1.1-.1.3-.2.4-.4,1-.5,2.1-.5,3.2-.6-.1-1.5.5-1.6,1.2-.5,3.2-.2,6.5,1.4,9.4,1.6,2.8,3.5,6.3,6.9,6.7.8.1,1.8-.8,1.8-1.6v-.2c2,1.5,4.4,2.8,6.5,1.7-1.5-1.5-3.1-2.8-4.9-3.8-.1-.1,0-.3.1-.2,3,.9,5.5,2.8,7.7,4.9h.6c.9,1,1.6,2.1,2.4,3.2.4.5.9,1.1,1.3,1.6,2.9,3.9,6.7,9.1,6.9,14.1,0,.3-.2.6-.4.7h-.7c0-.1,0-.2-.1-.2-.3-.6-.6-1.2-.9-1.9,0-.1-.1-.2-.1-.3h0c-.8-1.7-1.6-3.3-2.4-5h0c-.7,0-1.3.5-1.4,1.2v.2c0,.3.2.5.4.6q.1,0,.2.1h-.2c.4.7.7,1.2,1.1,1.8-.5,0-1,0-1.5.3-.4.2-.7.4-.8.7-.3-.6-.7-1.1-1-1.6-1.3-2.2-2.8-4.1-4.5-6.1s-3.6-3.5-5.5-5.2c-.8-.7-2,.3-1.4,1.2,1.7,2.5,3.2,5.1,4.7,7.8-.3-.2-.6-.4-.9-.6-.4-.6-.9-1.3-1.3-1.9-.1-.2-.2-.5-.4-.8-.9-1.5-2.1-2.8-3.4-3.9-1-.8-2.1-1.4-3.2-1.9-1.6-1.1-3.3-2.1-5-3.1-1-.9-1.8-1.8-2.6-2.8-1.3-2.1-2.3-4.5-3.2-6.9.2-.3.4-.6.5-.9.5,2.1,1.6,4,3.7,4.9.5.2,1-.4.9-.8-.4-2.1-1.7-3.7-2.5-5.7-.9-2.2-1.3-5-.8-7.3.1-.4-.5-.3-.6,0-.4,1.2-.8,2.8-.9,4.4-.3-1.5-.6-3-1-4.5.2-.4.3-.8.4-1.2.5-1.8.6-3.5.5-5.1.7.8,2.4.6,3-.2,1.4-1.9.9-3.8.5-6-.1-.4-.2-.8-.3-1.2,1-1.9.5-4.2-1.1-5.6h.1c-1.2-1.1-2.5-2.2-3.9-3.3,3.2,1.2,6.6,1.8,9.8,3.1,0,.2.1.4.3.6,1.4,1.9,2.6,3.7,2.7,6-1.2-2.1-2.9-4.1-4.6-5.8h0ZM317.6,501.8c-.3-.4-.7-.8-1-1.1l-.4-.4c-.1-.1-.3-.2-.4-.4-.3-.3-.6-.6-1-.9-.1-.1,0-.2.1-.1.9.7,1.7,1.5,2.5,2.2,0,.2.2.4.2.7h0ZM296.8,355.3c.2,0,.3-.1.5-.1h0c.1-.1.3-.1.5-.2h.3c1-.3,2-.6,2.9-1,1.7-.2,3.1-.6,4.8-1.4.6-.3.5-1.1-.2-1-1.2.1-2.4.1-3.5.1-.2-.1-.5-.2-.9-.1-.3,0-.7,0-1,.1-.5,0-1,.4-1.3.8h-.1c-.5-.4-1.5-.5-2.3.1-.3.2-.6.4-.8.6h-.2c.1-.1.3-.3.4-.5.2-.2.3-.5.3-.7.2-.3.5-.6.6-.9.3-.9-.6-1.3-1.5-1-.4.1-.9.3-1.3.4-.1,0-.3,0-.4.1h0c-.5.2-.9.5-1,.9h-.1c.1-.6.3-1.3.6-2,.2-.5.1-.8-.1-1,.4-.3.8-.5,1.2-.8-.2.3-.5.6-.7,1-.1.1.1.2.2.1,2.1-1.7,3.9-3.6,6.2-5.1,2.4-1.5,5.4-1.9,8.3-1.9.4.1.9.2,1.4.3,11.7-.9,24-2,35.4.8,6.7,1.6,14.3,4.2,18,9.5.6,1,.8,2,1,3-9.9-5.4-24.1-3-35.2-2.5-2.6.1-5.1.3-7.6.5-4.4.8-8.7,1.6-13,2.8-5.9,1.5-11.1,3.9-16.8,5.9-3.5,1.3-7.1,1.8-10.7,2.5.1.2.3.5.5.7.1,0,.1.1.2.1.2.7.7,1.2,1.4,1.4,1,0,2.1.1,3.2.4.6,0,1.2-.1,1.7-.1.3.1.6.1.9.2.9.2,1.8.5,2.8.6,2.7.8,5.5,1.4,8,2.2,5.6,1.9,11.3,3.4,17.1,4.7,6,1.4,12,2.5,18.1,3.4,3.6.2,7.2.7,10.8,1.2h.6c2.5.5,5.1.8,7.7,1.1-5.1,1.4-10,2.1-15.4,2-2.3-.3-4.5-.7-6.8-.8-7.6-.5-15.4-1.7-23-1.5-1.8,0-3.5,0-5-.1-1.2-.3-2.3-.6-3.4-1.2-1.7-.9-2.6-2.7-4.1-3.8-.2-.2-.4-.3-.6-.4-1-1.2-2.2-2.2-3.5-3.1h-.3c-.5-.1-1-.1-1.5-.1-1.2-1-3.2-1.3-4.6-1.5-2-.3-4.5-.7-6.7-.4-.1-.1-.2-.2-.3-.4.1-.1.2-.1.3-.2.2-.1.3-.6-.1-.6s-.4.1-.6.1c-.1-.1-.1-.3-.2-.4.4-.3.8-.5,1.2-.7,0,0,0-.1,0,0-.3.1-.7.1-1,.1.6-.3,1.1-.6,1.5-1.2.1-.1.2-.3,0-.4-.8-.5-1.7-.3-2.6.1-.2-.6-.5-1.2-.7-1.8.3-.2.6-.4.9-.5s.5-.3.8-.4c0,.1.1.1.1.2,0-.1,0-.2.1-.3.5-.3,1.1-.6,1.6-.9.6,0,1.2.1,1.8.1,4.2-.9,8.1-2,12.2-3.5,1.1-.7,2.2-1.5,3-2.4.1-.6.2-1,0-1.2h0ZM285.3,545.5s0,0,0,0c-.1-.2-.2-.3-.3-.5,0,0,0,0-.1,0-.1,0-.1-.2-.2-.4-.3-.5-.6-1.1-.9-1.7-.3-.5-.5-1.1-.8-1.6-.2-.3-.3-.7-.5-1h0c-.5-1.2-1-2.3-1.4-3.5-1.9-5.3-3.4-10.8-4-16.4,0,0,.1,0,.1,0,.6,5.3,2.3,10.6,4.3,15.6,1.1,2.8,2.3,5.5,3.9,8.1.2.3.4.5.5.8.1,0,.1.2.2.2.1.2.3.4.4.5.5.6,1,1.2,1.5,1.8.4.5.7,1,1.1,1.5.1.2-.1.5-.3.4-.6-.2-1.1-.6-1.5-1-.3-.3-.5-.5-.8-.9h0c-.2-.3-.5-.6-.7-.9h0c-.1-.2-.2-.3-.3-.5h0c-.1,0-.1-.3-.2-.4h0ZM285.3,558.9c-.2,0-.5-.2-.7-.3-.4-.2-.7-.5-1-.7.3.2.7.5,1,.7.2,0,.4.2.7.3ZM271.9,505c0-.1.1-.1.1,0,.1,8.9,1.6,17.5,3.7,26h0c.2,1.1.5,2,.7,2.9h0c.1.6.3,1.1.4,1.6h0c.1.4.2.8.3,1.1h0c.3,1.1.6,2.2.9,3.3.1.3-.3.5-.5.2-.2-.5-.4-1-.5-1.4-.1-.3-.2-.5-.3-.8-.6-1.6-1.1-3.2-1.5-4.8-2.3-9-3.3-18.6-3.3-28.1h0ZM274.1,532.1s0,0,0,0l-.8-.8s.1,0,.2,0c.2.3.4.6.6.9h0ZM280.9,471.1c-3.5-7.1-5.2-14.8-5.3-22.9,0-2.3.2-4.5.5-6.7.5-1.4,1.1-2.8,1.7-4.2-2,8.8-.3,18.6,2.9,26.7,3.8,9.8,9.4,18.4,17.1,25.4-5.4-3.9-10.2-8.6-14.1-14-1-1.4-1.9-2.8-2.8-4.3h0ZM269.7,353.6c-.1.5-.1,1.1,0,1.6l-.4-.4c-.1-.1-.2,0-.2.1.1.3.3.5.4.8-.1-.1-.2-.3-.3-.4-.3-.3-.7-.3-1-.1-.6-.4-1.3-.8-2-1,1-.5,1.9-1.2,2.7-1.9.7-.6.2-1.3-.5-1.3.1-.1.2-.2.4-.3.2-.1.4-.2.6-.3-.2.5.4.9,1,.5,3.6-2.5,6.9-3.1,10.5-3.7.1,0,.2.1.4.1,1,.4,1.9.9,2.9,1.2.1.1.1.2.3.3h.1c0,.1,0,.2.1.3.5.8,1,1.5,1.5,2.3,0,.4.2.6.4.9.1.4.1.7.2,1.1-.1.6.3.9.8.9l.3.3c.1.3.3.5.9.6.5.1,1,.1,1.5,0-.4.4-.7.8-1.1,1.1-2.4-.2-5.3,1-7.2,1.8-.3.1-.7.5-.9.9h-1.7c-1.2,0-2.2-.3-3.4-.8-2.5-1.2-3.3-3.7-5.4-5-.7,0-.9.3-.9.4h0ZM271.6,527.2s0,0,0,0c-.5-1.3-.9-2.8-1.7-4,0,0,0,0,.1,0,.8,1.2,1.2,2.6,1.6,4h0ZM272.3,621.3c2.6.4,5.3.5,8,.7,1.2,0,3.8-.2,4.9.6.5.4.7,1,.2,2s-.6.8-1,.8-1.5-1-2-1.3c-1-.4-2.2-.7-3.3-1-2.3-.7-4.6-1.4-7-1.6-5.6-.5-11.2-.7-16.8.2h0c-.1-.8-.3-1.4-.6-2.1-.3-.6-1.6-3.3-1-3.6,1-.7,3.6,1.9,4.1,2.6.7.8,1.7,2.5,3,1.8,1.3-.6.6-2-.1-2.8-.2-.2-1.7-2.3-1.6-2.3h.1-.1c-.1-.3,0-.7.1-1,.5,0,1,.2,1.4.2.5,0,1.1.2,1.7.3h-.5c1.3,4.5,6.4,5.9,10.5,6.5h0ZM271,596c-1.6,2.6-3.2,5.3-4.2,8.3-.1.2-.1.5-.2.7-.7,2.2-1.3,5.3-.4,7.2h.1c-1.9-.3-4.2-.8-6.1-.5.8-1.7,1.6-3.3,2.4-4.9,5.7-7.9,10.8-16.4,15.1-24.8h0c1.3.3,2.6.7,3.8,1.4-3.9,3.7-7.6,7.9-10.5,12.6h0ZM283.4,581.5c-1.5-.9-3.2-1.3-4.9-1,.3-.5.5-1,.8-1.5h7.1c-1,.6-2,1.5-3,2.5h0ZM295.9,566.2c-4.3.6-9.2-1.7-12.9-3.6-4.4-2.3-8.5-5.1-13.1-7-.1,0,0,0,0,0,4.4,1.8,8.5,4,12.8,5.9,2.1.9,4.2,1.8,6.4,2.4,2.2.7,4.5.9,6.8,1.3.6,0,.6,1,0,1.1h0ZM309.8,564.1c-2.8-.9-5.4-3.2-7.6-5.1-2.1-1.9-4.2-3.9-6-6-1.2-1.4-2.4-2.8-3.5-4.3-.5-.7-1.1-1.4-1.6-2.1-.1-.2-.2-.3-.4-.5-.3-.4-.6-.8-.9-1.3-.5-.7-1-1.5-1.6-2.2-.2-.3-.4-.6-.6-.9-.7-1-1.4-2-2.1-3-.3-.4.3-.8.6-.5.4.6.8,1.1,1.2,1.7.1,0,.2.3.3.4.3.5.6.9,1,1.4.1.2.2.3.3.4.4.5.8,1,1.1,1.5,0,0,.1,0,.1.2.4.5.8,1.1,1.2,1.6,0,0,.1,0,.1.2.2.2.4.5.5.7s.3.3.4.5c.3.4.6.7.9,1.1.1,0,.1.2.2.2.3.4.7.8,1,1.2h0c.7.8,1.3,1.5,2,2.3,2.1,2.3,4.4,4.6,6.9,6.5,2.2,1.7,4.7,3,6.9,4.8.7.7.2,1.4-.4,1.2h0ZM316.3,564.8c-3.1-1-5.7-3.2-8.1-5.4-.3-.3.1-.8.4-.5,2.6,1.9,5.3,3.5,8.1,5.1.4.3.1,1-.4.8h0ZM321.7,626.4h-.5c-.4,0-.7-.2-.7-.7,0-.8.1-1.6.3-2.4.1-.5.2-1,.4-1.5.1-.5.4-.9.8-1.1.4-.2.8,0,1.1.2-1.1,1.6-1.3,3.5-1.4,5.5h0ZM327.7,638.5c-.1-.3-.2-.5-.2-.8-.2-.8-.4-1.7-.5-2.6,1.1.4,2.4.6,3.6.5-.6,1.5-1.2,2.7-2.9,2.9h0ZM331.3,633.5c-.7,0-1.4.2-2.1.3-.8,0-1.6.2-2.4,0-.1-1-.2-1.9-.3-2.9.9.2,1.7.2,2.6.2s1.8.2,2.7,0c-.1.9-.3,1.6-.5,2.2h0ZM332.2,629.7v.2c-.6,0-1.2.2-1.7.3-1.4,0-2.7,0-4,0v-.2c0-1-.1-2.1,0-3.1,1.9.7,4.2.6,6.1.2-.2,1-.3,1.9-.4,2.7h0ZM332.9,624.1v1.4c-.8,0-1.6.4-2.3.5-1.4,0-2.8.3-4,0,.1-1.1.2-2.3.3-3.4.3-1.7,1-2.9,1.8-4.3.1-.2.3-.3.5-.5.6-.2,1.3,0,2.1.3,1.9,1,1.8,4.1,1.6,6.1h0ZM335,613.2c-.9-.2-1.8-.3-2.7-.4-1.4-.3-2.9-.3-4.2,0,.2-.8.4-1.5.7-2.3,1.3-.2,2.6-.4,3.6,0s1.8.8,2.8,1c-.2.6-.2,1.1-.2,1.5h0ZM331.6,609.2c-.9,0-1.7.2-2.6.3h0c3.2-5.1,5.3-11.3,7-17.6.5,0,1,0,1.5.3s.9.8,1.2,1.3l.3.6c-1.7,5.5-3.1,10.6-3.7,16-1.3-.2-2.4-1-3.7-.9h0ZM336.4,590.6c.2-1,.5-1.9.7-2.9.7.2,1.3.5,1.9.9.5.3.9.7,1.4,1-.2.7-.4,1.5-.7,2.2h0c-.6-.6-1.5-1.1-2.1-1.2-.5,0-.9,0-1.2,0h0ZM342.2,620.6c.3,0,.6.2.9.3.7.2,1.6.3,2.4.5.9.2,2,.4,2.9.8.3.2.3.7-.1.7-2,0-4,0-6,0s-2,0-3,.3c-.4,0-2.8.4-2.9.7,0,0,.1,0,.1-.2h-.1c0-1,.4-2.3.9-3.1.5-.7,2.2-.5,3-.4.8.1,1.3.3,1.9.5h0ZM340.9,587.8c-.3-.3-.7-.5-1-.7-.8-.5-1.6-.7-2.4-.7.2-.9.4-1.8.6-2.6,1,0,2.1-.3,3.1-.6,0,.6.2,1.1.6,1.6-.3,1-.6,2-.9,3ZM343,581c-.3-.2-.7,0-1,0-1.2.4-2.3.7-3.5.9.1-.6.3-1.2.4-1.8.2,0,.4-.2.6-.3.8-.4,1.4-1,1.9-1.7.7.5,1.1,1.3,1.6,2.1.1,0,.2.2.4.2-.2,0-.3.3-.4.6h0ZM362.8,548.5h0c-.8-.7-1.6-1.4-2.4-2.1-1.2-1.1-2.4-2.1-3.6-3.2-1-.9-2-1.8-3-2.6-.3-.3-.7-.6-1-.9-1.1-1-2.3-2-3.4-3-.1,0-.2-.2-.3-.2-1-.9-2-1.8-3-2.7-1.5-1.3-3-2.7-4.4-4-.3-.3-.6-.6-1-.9-.5-.5-1-.9-1.5-1.4s-.6-.6-1-.9c-.5-.5-1.1-1-1.6-1.5s-.5-.5-.8-.7c-.8-.7-1.5-1.5-2.3-2.2-.2-.2-.4-.4-.6-.6-.6-.6-1.1-1.1-1.7-1.7-.2-.3-.5-.5-.8-.8-.6-.6-1.1-1.2-1.7-1.8-.2-.2-.4-.4-.6-.6-.8-.8-1.5-1.6-2.3-2.4-.1,0-.2-.2-.3-.3-.6-.7-1.3-1.4-1.9-2.1-.2-.2-.4-.5-.6-.7-.6-.6-1.1-1.3-1.7-1.9s-.4-.4-.5-.6c-.7-.9-1.5-1.7-2.2-2.6-1.6-1.9-3.1-3.9-4.6-5.8-.7-1-1.4-1.9-2.1-2.9,0,0,0-.1.1-.1,0,.1.1.1.1.2h0c.9,1.1,1.8,2.1,2.7,3.2h.1c1,1.3,2.1,2.6,3.2,3.8l.2.2h0l.2.2c8.2,9.4,17.4,18,26.7,26.2.1,0,.2.2.3.2h.1c-3.6-3.5-7.2-7.3-10.7-11.1h0c-1.6-1.7-3.1-3.5-4.7-5.3h0c-1.8-2.1-3.6-4.2-5.3-6.3,0,0,0-.1.1-.1,1,1.1,2,2.3,2.9,3.4.2.2.4.5.7.8,1,1.1,2,2.2,3,3.3h0c2.7,3,5.5,5.9,8.3,8.8.1,0,.3.3.4.4,2.1,2.2,4.3,4.3,6.5,6.5s.4.4.6.6c1.8,1.7,3.6,3.4,5.4,5h0c1.7,1.6,3.5,3.1,5.2,4.7h.1c.8.8,1.6,1.5,2.4,2.2.1,0,.2.2.3.3.9.8,1.8,1.5,2.7,2.3.9.7,1.8,1.5,2.7,2.2.1,0,.2,0,.2.2.8.7,1.7,1.3,2.5,2h0c1.8,1.4,3.6,2.8,5.5,4.2h0c3.4,2.5,6.8,5,10.4,7.4,2.7,1.8,5.4,3.5,8.1,5.1h0c2.6,1.5,5.1,3,7.7,4.5.6.4,1.2.7,1.9,1.1.5.3,1,.6,1.4.8,1.1.7,2.2,1.3,3.3,2,.4.2,0,.8-.4.6-.6-.3-1.3-.6-1.9-.9-.1,0-.3,0-.5-.2-.6-.3-1.1-.5-1.7-.8-.1,0-.1,0-.2,0-1.4-.7-2.7-1.4-4-2.2-5-2.8-9.8-6.1-14.5-9.2-1.8-1.2-3.5-2.4-5.3-3.7,4.9,3.9,10,7.6,15.3,10.9,2.1,1.3,4.2,2.5,6.4,3.6h0c5.5,2.8,11.2,5,17.2,6.5h.1c.5,0,1.1.3,1.7.4.2,0,.4,0,.5,0,.4,0,.9.2,1.3.3.2,0,.4,0,.5,0,.6,0,1.2.2,1.8.3.7,0,.8,1.3,0,1.3h-2.2c-.4,0-.8,0-1.2,0-2.6-.3-5.2-.8-7.7-1.6-19-6-34.8-19.9-49.6-33.1h0ZM456.8,663.2c-6.4-3.6-11.2-10.6-15.9-16.2-5.1-6-10.2-12.2-15.2-18.4s-10-12.4-15-18.5c-4-4.9-8.7-9.7-12.6-14.6-.3-.5-.6-.9-1-1.4-1.5-2.2-3.2-4.2-4.9-6.2.1,0,.2,0,.4,0,1.5,1.4,2.9,3,4.2,4.4.8.8,1.7,1.6,2.5,2.5.5.5.9,1.1,1.4,1.6,3.2,3.7,6.5,7.3,9.6,10.9,3.1,3.6,6.3,7.2,9.4,10.8-.1-.2-.1-.3-.2-.5.1.2.3.3.4.4,0,0,0,.2.1.2h0c3.2,3.7,6.4,7.5,9.5,11.3,6.1,7.4,12.1,15,18,22.6,3.1,4,6.4,8.2,10.5,11.4-.4,0-.8-.2-1.2-.4h0ZM473.2,652.5c-6.8-6.9-13.6-13.8-20.4-20.6-6.6-6.6-13.2-13.2-19.9-19.7l-3.5-3.5c-4.5-5.1-9-10.2-13.5-15.3,1.3.6,2.6,1.2,3.9,1.7,2,.8,4.1,1.9,6.2,2.2.2,0,.4,0,.6-.3.2.2.4.4.6.5,3.5,3.4,7.1,6.6,10.6,9.9,7.1,6.5,14.2,13,21.1,19.7,1.2,1.2,2.4,2.3,3.6,3.5,3.5,3.9,6.9,7.7,10.5,11.5,1.5,1.9,3.1,3.8,4.7,5.5,1.5,1.7,3.1,3.4,4.6,5.2,1.6,1.8,2.8,3.9,4.4,5.7,1,1.3,2.1,2.7,3.3,3.9.7,1,1.5,2,2.2,3-7.9-1.1-13.6-7.4-19-12.9h0Z"/>
    </g>
    <g id="hat">
      <path id="back" class="st5" d="M308.2,328.8c-.3-4.3-.7-10.9-3-14.5-.4-.6-3.4-4-3.9-4.2-3.2-1.5-6.9-2.2-10.4-2.5-1-.1-2.2,0-3.2,0-.7-.3-1-1-1.5-1.4-.1-.1-.4-.1-.5-.2-1.5-1.5-2.7-3.5-4.1-5-2.1-2.4-4.8-4.6-7.1-7-1.9-1.9-3.6-4-5.4-5.9-2.4-.9-6.1-1.9-8.3-.3-3.3,2.4-5.6,7.8-8.2,11.2-3.3,4.4-7.5,7.9-11.2,12-2.3,2.5-4.3,5.4-6.5,8-2.4,2.8-3.9,3.5-5.1,7.2-1.2,3.7-1.4,7.1-1.7,10.9-.2,2.6-1.1,5.5-1.2,8.2-.2,3.7.1,8.1.3,11.8.3,7.4.6,14.6,1.8,22,0,.1.5.5,0,.7v.5c-.1,1.7-.6,1-1.9,1.3-1.1.2-1.1,1.2-1.4,1.4-.3.1-.6,0-.9,0s-.2.5-.5.6c-.2.1-.8.2-.9.3-.1.1-.9,2-.9,2.1-.2.9.1,1.7.1,2.5s-.3.5-.3.7.4.4.6.7c.7,1.2-.5,1.5-.6,2.4.2,1.5-.2,7.9.5,8.8.2.2.6.3.7.6.2.4.1,1,.5,1.5.5.7,1.4,1,2,1.6,1.4,1.6,1.3,3.1,3.7,4.1.8.3,1.2-.1,1.9,0,1,.2,3,1.9,4,1.8.3,0,.5-.3.8-.4.9-.2,1.3-.4,2-.5.6-.1,1.3.1,1.9-.1.4-.1,1-.8,1.3-.8.5-.1,1.2.4,1.9,0,.2-.1.3-.5.5-.6,1.4-.9,3.1-1.5,4.2-2.9.2-.2.2-.8.4-1,.3-.3.8-.1,1.2-.4.1,0,1-.9,1-1,.1-.2-.1-1.3.1-1.7.2-.9,1.2-2.2,1.2-2.9s-.2-.8-.2-1.3c0-1.5-.1-3-.4-4.5-.1-.7-.4-2.8-.8-3.2-.2-.2-.5-.2-.8-.5-.4-.5-.8-2.2-1.4-3.1-.3-.5-1.7-2.1-2.2-2.3-1-.4-2.9,0-2.9-1.4.1-.3.6-1.7,0-1.5v-.2h.5c.6-3.1,3.1-6,2.8-9.3-.5-5-1.7-10-2-15-.1-1-.8-2.2-.7-3.1,0-.3.3-.6.3-.7,0-.2-.6-.6-.8-1-.1-.5,0-.9-.1-1.3.3-.6,1.3-1.3,1.9-1.6.6-.3,1.8-.5,2.1-.7.2-.1.3-.6.5-.9.9-1,1.6-.4,2.5-.7.1,0,1.9-1,1.9-1,.4-.2,1.2-1.3,1.9-1.6.5-.2,1,0,1.4-.2.3-.1.5-.5,1-.6.7-.2,1.5-.1,2.1-.3.4-.1.9-.8,1.2-.8.5-.1,1,.5,1.6-.2.5-.7,1.6-1.2,2.4-1.8.4-.2.8.2.8-.9.5-.1.6.5.9.6.6.3,2-.7,2.7-1,1.2-.4,2.7-.3,3.9-.6.6-.1,1.8-.9,2.4-1,1.2-.3,3,.1,4.3,0l.3-.7c.5,0,1.3-.3,1.7-.3,2.3,0,5.4.8,7.6.5.6-.1,1.1-.5,1.8-.5,4.4-.4,10.3,0,14.8.2h2.6c0-2.5.6-4.9.5-7.1h0Z"/>
      <g>
        <path class="st7" d="M229.2,378.8c-1.2-7.3-1.6-14.6-1.8-22-.1-3.7-.4-8.1-.3-11.8.1-2.6,1-5.6,1.2-8.2.3-3.8.6-7.2,1.7-10.9s2.7-4.5,5.1-7.2c2.2-2.6,4.2-5.4,6.5-8,3.6-4,7.9-7.6,11.2-12,2.6-3.4,4.9-8.8,8.2-11.2,2.2-1.6,5.9-.5,8.3.3,1.8,2,3.5,4,5.4,5.9,2.2,2.3,4.9,4.6,7.1,7,1.4,1.5,2.6,3.6,4.1,5-.8.4-1.7.5-1.6,1.6l-1.9-.9c-.1,0-.5,1.1-1.5,1.1s-.7-1.4-2.1-.7c-.2.1-.4.6-.8.7-.4-.1-.6-.4-1-.6-1.5-.5-1.1.6-1.8.9-.4.2-.8-.2-.9-.1,0,0,0,.4-.1.5-.2.3-.7.5-.9.9-1-.1-1-1.1-2-1.4-.6.3.2,1,.1,1.4l-.4.2-1.6-.5c.2,4-2.6,1-4.1,2.2-.3.2-1,.9-1.3,1.1-.5.3-1.5.3-1.6.4s-.1.5-.3.6c-.3.3-1.7,1.1-2.1,1.4-.5.3-1.6,1.1-2,1-.1,0-.3-1-1.1-.4-.5.3-.2.8-.4,1.1l-.2.2c-1.4-.5-2.8-.2-4.1.4.1,2-.6,1.4-1.7,2.3-1.9,1.5-2.1,3-3,4.9s-2.4,4.2-2.6,6.3c-.4,3.4-.6,6.5-.8,9.8s-.6,6.4-.2,9.7c.1.4-.1.8.1,1.3.1.4.8.8.8,1s-.3.5-.3.7c-.1.9.6,2.1.7,3.1.4,5,1.5,10,2,15,.3,3.3-2.1,6.2-2.8,9.3h-.5v.2c.6-.3.1,1.1,0,1.5-.6,1.2-2.8-.1-3.1.2v.9c-1.7-.1-3.6.5-5.2-.3-.4-.2-.4-.6-.8-.9-.4-.2-2.2-.9-2.6-.8-.6.1-1.6,1-2.3-.1-.2-.4,0-.9-.5-.8v-.5c.2-.2-.2-.6-.2-.8h0Z"/>
        <path class="st4" d="M309.1,332.1c.1-1.1.2-2.3.1-3.4v-.7c-.4-4.5-.9-10.6-3.2-14.3-.3-.5-3.5-4.2-4.3-4.6-2.8-1.4-6.2-2.2-10.7-2.6-.5,0-1-.1-1.5-.1h-1.6c-.2-.1-.3-.3-.5-.5s-.3-.4-.5-.6c-.3-.3-.7-.4-1-.4h-.6c-.1.1-.2.2-.3.2-.4.2-1.1.5-1.5,1l-1.2-.6h-.3c-.4.2-.6.5-.7.7-.1.1-.2.4-.4.5h0c-.2-.3-.7-.8-1.5-.8s-.7.1-1.1.3c-.2.1-.4.2-.5.4-.2-.1-.3-.2-.6-.3-.4-.1-.7-.2-1-.2-1,0-1.4.7-1.6,1-.1,0-.3-.1-.5-.1h-.4l-.3.3-.3.4v.3s-.2.1-.2.2h0c-.3-.4-.7-1-1.4-1.2h-.4c0-.1-.4.1-.4.1-.3.2-.7.5-.7,1.1l-1.7-.6v1.4c.1.8,0,1.1,0,1.1h0c-.2,0-.5-.1-.7-.1-.4-.1-.8-.2-1.3-.2s-1.2.2-1.6.5l-.4.4c-.2.2-.6.6-.7.6-.1.1-.6.1-.8.2-.4,0-.6.1-.9.2-.4.2-.5.6-.5.9-.3.2-1.1.7-1.5.9l-.4.2c-.1.1-.2.1-.3.2-.2.1-.5.3-.8.5-.3-.3-.6-.4-1-.4s-.7.1-1.1.4c-.3.3-.5.6-.6.9-.3,0-.5-.1-.8-.1-.9,0-1.9.2-3.1.7l-.7.3v1.4c-.1,0-.1.1-.2.1-.3.1-.7.3-1.1.6-1.7,1.3-2.2,2.7-2.8,4.1-.2.4-.3.8-.5,1.2-.2.5-.5,1.1-.8,1.6-.8,1.6-1.7,3.2-1.9,4.9-.3,2.3-.5,4.6-.6,6.8-.1,1-.1,2.1-.2,3.1v.9c-.4,2.9-.6,6-.2,9,.4.4.7.8,1.1,1.2.3-.3.6-.6.8-.9.1-.2.9-.8,1.5-1.1.2-.1.7-.2,1-.3.5-.1.9-.2,1.1-.4.4-.2.5-.6.7-.9,0-.1.1-.2.1-.2.2-.3.3-.3.6-.3h.3c.3,0,.7,0,1.1-.2.2-.1,2.1-1.1,2.1-1.1.2-.1.5-.4.8-.7.3-.3.7-.8,1-.9h.5c.2,0,.5,0,.8-.1s.5-.3.7-.4c.1-.1.2-.2.3-.2.2-.1.6-.1.9-.1s.7,0,1.1-.1c.5-.1.8-.5,1.1-.7h.1c.2-.1.4,0,.6,0,.4,0,.9-.1,1.4-.7.3-.4,1.1-.9,1.7-1.3l.3-.2c.3,0,.6-.1.8-.3h0c.2.1.4.1.7.1.7,0,1.3-.4,2-.7.3-.1.6-.3.7-.3.6-.2,1.3-.2,1.9-.3.7-.1,1.3-.2,1.9-.3.4-.1.8-.3,1.3-.5.4-.2.9-.4,1.1-.5s.5-.1.9-.1h3.9c0-.1.3-.8.3-.8.2,0,.3-.1.4-.1.2,0,.5-.1.6-.1h.1c.9,0,2,.1,3.1.3,1.1.2,2.3.3,3.4.3s.8,0,1.1-.1c.4-.1.8-.2,1-.3.3-.1.5-.2.7-.2,1.2-.1,2.6-.2,4.2-.2,2.4,0,4.9.1,7.3.2,1.1.1,2.2.1,3.2.1h3.9v-1.2c-.1-.7,0-1.9,0-3.2ZM308.1,332c-.1,1.3-.2,2.5-.1,3.7h-2.6c-1,0-2.1-.1-3.2-.1-2.4-.1-4.9-.2-7.3-.2s-3.1.1-4.3.2c-.4,0-.7.2-1,.3-.3.1-.5.2-.8.3-.3,0-.6.1-1,.1-1,0-2.1-.2-3.2-.3-1.1-.1-2.2-.3-3.2-.3h-.1c-.2,0-.5.1-.8.1s-.3.1-.4.1h-.5c0,.1-.3.7-.3.7h-3.2c-.5,0-.8,0-1.1.1-.3.1-.8.3-1.3.5-.4.2-.8.4-1.1.5-.5.1-1.2.2-1.8.3-.7.1-1.5.2-2.1.4-.2.1-.5.2-.9.4-.6.3-1.1.6-1.5.6h-.3l-.6-.2-.5.4c-.1.1-.2.1-.3.1h-.2l-.5.3c-.7.4-1.5.9-2,1.5-.2.2-.4.3-.6.3s-.3,0-.4-.1h-.5c0-.1-.4.3-.4.3h-.1c-.2.3-.5.5-.7.6-.3.1-.6.1-.9.1s-.8,0-1.2.2c-.3.1-.5.3-.6.4s-.2.2-.4.2-.3.1-.5.1h-.2c-.2,0-.5,0-.7.1-.4.2-.8.5-1.4,1.1-.2.2-.4.4-.5.5-.2.1-1.7.9-2,1s-.6.1-.8.1h-.3c-.5,0-.9,0-1.4.6h0v.2c0,.1-.1.2-.1.3-.1.3-.2.4-.3.5s-.4.2-.8.3c-.5.1-.9.2-1.2.4-.5.2-1.6,1-1.9,1.6h0c-.4-3-.2-5.9.1-8.8v-.9c.2-1,.3-2,.3-3,.2-2.3.3-4.5.6-6.8.2-1.5,1-3.1,1.8-4.6.3-.6.6-1.1.8-1.7.2-.4.4-.8.5-1.2.6-1.4,1.1-2.6,2.5-3.7.3-.3.6-.4.9-.5.1-.1.2-.1.3-.1l.4-.2v-.5c.1-.2.2-.5.1-.9,1-.4,1.9-.6,2.7-.6h1.6c0,.1.2-.7.2-.7,0-.1.1-.2.2-.3.1-.1.3-.2.5-.2s.2,0,.3.1l.5.5.7-.4c.3-.2.6-.4.8-.5.1-.1.2-.2.3-.2l.4-.2c.5-.3,1.2-.7,1.5-1l.3-.2v-.4l.2-.2c.1,0,.3-.1.5-.1.6-.1.9-.2,1.2-.3.2-.1.4-.3.9-.8s.3-.2.4-.3c.3-.2.6-.3,1-.3s.7.1,1.1.1h.2c0,.1,1.2.1,1.2.1l.3-.3c.2-.2.4-.6.4-1.8l1.6.5v-1.3c.1-.1.1-.2.3-.3.5.1.7.4.9.7l.6.8.8-.6.5-.4v-.5c.1,0,.1-.1.1-.1h.1l.8.3.4-.7c.2-.3.3-.5.7-.5s.4,0,.6.1c.1,0,.2.1.3.2l.7.5.6-.7c0-.1.1-.1.1-.1.3-.1.5-.2.7-.2.3,0,.5.2.7.5l.5.7.8-.4c.3-.2.6-.5.8-.8,0-.1.1-.1.1-.2l1.6.8.5-.7c.2-.3.7-.5,1.1-.7.1-.1.2-.1.3-.2.2,0,.4.1.5.2.2.2.3.3.4.5.2.3.4.5.7.7l.3.2h3.3c4.4.4,7.7,1.2,10.3,2.5.6.4,3.5,3.6,3.9,4.2,2.2,3.5,2.6,9.5,3,13.8v.7c0,.9-.1,2.1-.2,3.1Z"/>
        <path class="st3" d="M243.6,349.9c-.4-3-.2-5.9.1-8.8v-.9c.2-1,.3-2,.3-3,.2-2.3.3-4.5.6-6.8.2-1.5,1-3.1,1.8-4.6.3-.6.6-1.1.8-1.7.2-.4.4-.8.5-1.2.6-1.4,1.1-2.6,2.5-3.7.3-.3.6-.4.9-.5.1-.1.2-.1.3-.1l.4-.2v-.5c.1-.2.2-.5.1-.9,1-.4,1.9-.6,2.7-.6h1.6c0,.1.2-.7.2-.7,0-.1.1-.2.2-.3.1-.1.3-.2.5-.2s.2,0,.3.1l.5.5.7-.4c.3-.2.6-.4.8-.5.1-.1.2-.2.3-.2l.4-.2c.5-.3,1.2-.7,1.5-1l.3-.2v-.4l.2-.2c.1,0,.3-.1.5-.1.6-.1.9-.2,1.2-.3.2-.1.4-.3.9-.8s.3-.2.4-.3c.3-.2.6-.3,1-.3s.7.1,1.1.1h.2c0,.1,1.2.1,1.2.1l.3-.3c.2-.2.4-.6.4-1.8l1.6.5v-1.3c.1-.1.1-.2.3-.3.5.1.7.4.9.7l.6.8.8-.6.5-.4v-.5c.1,0,.1-.1.1-.1h.1l.8.3.4-.7c.2-.3.3-.5.7-.5s.4,0,.6.1c.1,0,.2.1.3.2l.7.5.6-.7c0-.1.1-.1.1-.1.3-.1.5-.2.7-.2.3,0,.5.2.7.5l.5.7.8-.4c.3-.2.6-.5.8-.8,0-.1.1-.1.1-.2l1.6.8.5-.7c.2-.3.7-.5,1.1-.7.1-.1.2-.1.3-.2.2,0,.4.1.5.2.2.2.3.3.4.5.2.3.4.5.7.7l.3.2h3.3c4.4.4,7.7,1.2,10.3,2.5.6.4,3.5,3.6,3.9,4.2,2.2,3.5,2.6,9.5,3,13.8v.7c.2,1,.1,2.2,0,3.2-.1,1.3-.2,2.5-.1,3.7h-2.6c-1,0-2.1-.1-3.2-.1-2.4-.1-4.9-.2-7.3-.2s-3.1.1-4.3.2c-.4,0-.7.2-1,.3-.3.1-.5.2-.8.3-.3,0-.6.1-1,.1-1,0-2.1-.2-3.2-.3-1.1-.1-2.2-.3-3.2-.3h-.1c-.2,0-.5.1-.8.1s-.3.1-.4.1h-.5c0,.1-.3.7-.3.7h-3.2c-.5,0-.8,0-1.1.1-.3.1-.8.3-1.3.5-.4.2-.8.4-1.1.5-.5.1-1.2.2-1.8.3-.7.1-1.5.2-2.1.4-.2.1-.5.2-.9.4-.6.3-1.1.6-1.5.6h-.3l-.6-.2-.5.4c-.1.1-.2.1-.3.1h-.2l-.5.3c-.7.4-1.5.9-2,1.5-.2.2-.4.3-.6.3s-.3,0-.4-.1h-.5c0-.1-.4.3-.4.3h-.1c-.2.3-.5.5-.7.6-.3.1-.6.1-.9.1s-.8,0-1.2.2c-.3.1-.5.3-.6.4s-.2.2-.4.2-.3.1-.5.1h-.2c-.2,0-.5,0-.7.1-.4.2-.8.5-1.4,1.1-.2.2-.4.4-.5.5-.2.1-1.7.9-2,1s-.6.1-.8.1h-.3c-.5,0-.9,0-1.4.6h0v.2c0,.1-.1.2-.1.3-.1.3-.2.4-.3.5s-.4.2-.8.3c-.5.1-.9.2-1.2.4-.6,0-1.7.9-2.1,1.5h0Z"/>
        <path class="st3" d="M229.2,380.1c.6-.1.3.5.5.8.6,1,1.6.1,2.3.1s2.2.6,2.6.8.4.7.8.9c1.6.9,3.5.2,5.2.3v-.9c.3-.3,2.5,1,3.1-.2,0,1.3,1.9,1,2.9,1.4.5.2,1.9,1.8,2.2,2.3.6.9,1,2.6,1.4,3.1.3.3.6.3.8.5.4.4.7,2.5.8,3.2.3,1.5.3,3,.4,4.5,0,.5.2.9.2,1.3,0,.7-1,2.1-1.2,2.9-.1.5,0,1.5-.1,1.7,0,.1-.9,1-1,1-.4.2-.9.1-1.2.4-.2.2-.3.7-.4,1-1.1,1.4-2.7,2-4.2,2.9-.2.1-.3.5-.5.6-.7.4-1.4,0-1.9,0s-1,.7-1.3.8c-.6.2-1.3-.1-1.9.1-.7.2-1.1.3-2,.5-.3,0-.5.3-.8.4-1,.2-3-1.5-4-1.8-.7-.2-1.1.3-1.9,0-2.4-.9-2.3-2.5-3.7-4.1-.5-.6-1.5-1-2-1.6-.4-.5-.3-1.1-.5-1.5-.1-.3-.5-.3-.7-.6-.6-.9-.3-7.3-.5-8.8.1-.9,1.3-1.2.6-2.4-.1-.2-.6-.5-.6-.7s.3-.5.3-.7c0-.8-.3-1.5-.1-2.5,0-.1.8-2,.9-2.1.1-.1.6-.2.9-.3.3-.2.3-.6.5-.6.3-.1.7.1.9,0,.3-.2.4-1.1,1.4-1.4,1.2-.3,1.6.4,1.8-1.3h0Z"/>
        <path class="st1" d="M235.5,409.5c-.4,0-1.2-.6-1.8-.9-.7-.4-1.3-.7-1.8-.9-.2,0-.4-.1-.6-.1-.3,0-.5,0-.7.1h-.5c-1.2-.5-1.6-1.1-2.1-2.1-.3-.5-.6-1.1-1.2-1.8-.3-.4-.7-.6-1.1-.9-.3-.2-.7-.5-.8-.7-.1-.1-.1-.3-.2-.5,0-.2-.1-.6-.3-.9-.2-.4-.6-.6-.8-.7h0c-.2-.6-.2-3.5-.2-5s0-2.4-.1-3c0-.1.1-.2.2-.3.3-.4,1-1.3.3-2.7-.1-.1-.2-.3-.3-.4.1-.1.1-.3.1-.5,0-.4,0-.7-.1-1.1s-.1-.8,0-1.1c.1-.2.4-1.1.7-1.6.2-.1.5-.1.7-.3.2-.1.4-.3.5-.5h.2c.3,0,.5-.1.8-.2.4-.2.5-.5.7-.8s.2-.4.5-.5.5-.1.7-.1c.5,0,.9-.1,1.2-.3.3.2.7.4,1.1.4s.9-.2,1.2-.3c.1,0,.3-.1.3-.1.3,0,1.7.6,2,.7,0,0,0,.1.1.1.1.2.3.5.7.8.7.4,1.6.6,2.6.6s1,0,1.5-.1c.4,0,.9-.1,1.3-.1h1.2v-.8c.3.1.7.2,1.1.2s.4,0,.6-.1c.6.5,1.5.6,2,.7.3,0,.7.1.9.2.3.2,1.5,1.5,1.8,1.9s.5,1,.7,1.6c.2.7.5,1.2.8,1.6.3.3.6.5.8.6.1.2.2.8.5,2.5.3,1.5.3,2.9.4,4.5,0,.3.1.6.1.9s.1.3.1.3c0,.2-.3.8-.5,1.1-.3.5-.6,1.1-.7,1.6-.1.4-.1.9-.1,1.4v.2c-.2.2-.4.4-.6.6h-.2c-.3,0-.8.1-1.2.5-.3.3-.4.6-.5.9,0,.1,0,.2-.1.2-.6.8-1.6,1.4-2.7,2-.4.2-.8.5-1.2.7-.3.2-.5.5-.6.6h-.1c-.2,0-.3,0-.4-.1-.2,0-.4-.1-.6-.1h-.3c-.4.1-.7.3-1.1.6-.1.1-.3.2-.4.3h-1.2c-.3,0-.5,0-.7.1-.3.1-.5.1-.8.2s-.7.2-1.2.3c0,.3-.4.5-.6.6h0Z"/>
      </g>
    </g>
  </g>
  <g id="pizzaz">
    <g>
      <path class="st13" d="M474.5,293.2c0,9.5-5.1,18-12.4,18,7.2,0,12.4,8.5,12.4,18,0-9.5,5.1-18,12.4-18-7.3,0-12.4-8.5-12.4-18Z"/>
      <path class="st8" d="M491.9,293.2c0,4.8-2.6,9-6.2,9,3.6,0,6.2,4.3,6.2,9,0-4.7,2.6-9,6.2-9-3.6,0-6.2-4.3-6.2-9Z"/>
      <path class="st2" d="M489.1,311.2c0,4.8-2.6,9-6.2,9,3.6,0,6.2,4.3,6.2,9,0-4.7,2.6-9,6.2-9-3.6,0-6.2-4.3-6.2-9Z"/>
    </g>
    <path id="sparkle" class="st12" d="M530,350c0,11-9,20-20,20,11,0,20,9,20,20,0-11,9-20,20-20-11,0-20-9-20-20Z"/>
    <path id="sparkle1" data-name="sparkle" class="st12" d="M540.9,379.5c0,7.2-4.1,13.1-9.1,13.1,5,0,9.1,5.9,9.1,13.1,0-7.2,4.1-13.1,9.1-13.1-5,0-9.1-5.9-9.1-13.1Z"/>
    <path id="sparkle2" data-name="sparkle" class="st12" d="M553.9,380.3c0,5.1-3.1,9.2-6.9,9.2,3.8,0,6.9,4.1,6.9,9.2,0-5.1,3.1-9.2,6.9-9.2-3.8-.1-6.9-4.2-6.9-9.2Z"/>
    <path id="sparkle3" data-name="sparkle" class="st0" d="M422.7,505.1c0,6-4.9,10.9-10.9,10.9,6,0,10.9,4.9,10.9,10.9,0-6,4.9-10.9,10.9-10.9-6,0-10.9-4.9-10.9-10.9Z"/>
    <path id="sparkle4" data-name="sparkle" class="st0" d="M428.6,521.2c0,3.9-2.2,7.1-5,7.1,2.7,0,5,3.2,5,7.1,0-3.9,2.2-7.1,5-7.1-2.7,0-5-3.2-5-7.1Z"/>
    <path id="sparkle5" data-name="sparkle" class="st0" d="M435.8,521.6c0,2.8-1.7,5-3.8,5,2.1,0,3.8,2.2,3.8,5,0-2.8,1.7-5,3.8-5-2.2,0-3.8-2.2-3.8-5Z"/>
    <path id="sparkle6" data-name="sparkle" class="st0" d="M238.9,564.7c0,6-4.9,10.9-10.9,10.9,6,0,10.9,4.9,10.9,10.9,0-6,4.9-10.9,10.9-10.9-6,0-10.9-4.8-10.9-10.9Z"/>
    <path id="sparkle7" data-name="sparkle" class="st0" d="M233.9,580.8c0,3.9-2.2,7.1-5,7.1,2.7,0,5,3.2,5,7.1,0-3.9,2.2-7.1,5-7.1-2.8.1-5-3.1-5-7.1Z"/>
    <path id="sparkle8" data-name="sparkle" class="st0" d="M231.8,559.7c0,2.8-1.7,5-3.8,5,2.1,0,3.8,2.2,3.8,5,0-2.8,1.7-5,3.8-5-2.1,0-3.8-2.2-3.8-5Z"/>
    <path id="sparkle9" data-name="sparkle" class="st0" d="M291.3,275.7c0,6.5-3.8,11.8-8.4,11.8,4.6,0,8.4,5.3,8.4,11.8,0-6.5,3.8-11.8,8.4-11.8-4.7,0-8.4-5.3-8.4-11.8Z"/>
    <path id="sparkle10" data-name="sparkle" class="st0" d="M298.5,290.6c0,3.9-2.2,7.1-5,7.1,2.7,0,5,3.2,5,7.1,0-3.9,2.2-7.1,5-7.1-2.8,0-5-3.1-5-7.1Z"/>
    <path id="sparkle11" data-name="sparkle" class="st0" d="M285.7,290.6c0,2.8-1.7,5-3.8,5,2.1,0,3.8,2.2,3.8,5,0-2.8,1.7-5,3.8-5-2.1,0-3.8-2.2-3.8-5Z"/>
    <path id="sparkle12" data-name="sparkle" class="st0" d="M493.9,620.2c0,6-4.9,10.9-10.9,10.9,6,0,10.9,4.9,10.9,10.9,0-6,4.9-10.9,10.9-10.9-6,0-10.9-4.8-10.9-10.9Z"/>
    <path id="sparkle13" data-name="sparkle" class="st0" d="M498.9,639c0,3.9-2.2,7.1-5,7.1,2.7,0,5,3.2,5,7.1,0-3.9,2.2-7.1,5-7.1-2.8.1-5-3.1-5-7.1Z"/>
    <path id="sparkle14" data-name="sparkle" class="st0" d="M483.2,621.1c0,2.8-1.7,5-3.8,5,2.1,0,3.8,2.2,3.8,5,0-2.8,1.7-5,3.8-5-2.1,0-3.8-2.2-3.8-5Z"/>
  </g>
  <g id="Layer_2">
    <path class="st10" d="M452.5,447.3c-.6-.5-1-1.1-1.3-1.7s-.4-1.2-.4-1.9c0-1.8.8-3.3,2.4-4.6,1.6-1.3,3.5-2,5.7-2s2.5.3,4.3.9v5.7h-1.3c-.1-1.6-.6-2.9-1.5-3.9s-2-1.5-3.2-1.5-1.9.3-2.6,1c-.7.6-1,1.4-1,2.4s.3,1.8,1,2.6c.7.8,2.3,2.1,4.8,3.8,1.9,1.3,3.2,2.3,3.9,3.1.7.8,1,1.8,1,3,0,1.9-.9,3.6-2.6,5.1-1.8,1.5-3.8,2.2-6,2.2s-3.4-.4-5.4-1.1v-6.6h1.3c0,1.9.5,3.4,1.6,4.6s2.4,1.9,3.8,1.9,2.4-.4,3.2-1.2,1.2-1.8,1.2-3-.3-2-1-2.8c-.6-.8-2.1-2-4.4-3.5-1.2-.8-2.4-1.7-3.5-2.5Z"/>
    <path class="st10" d="M356.1,413.5c-.5-.5-1-1.1-1.2-1.7s-.4-1.2-.4-1.8c0-1.7.8-3.2,2.3-4.4s3.4-1.9,5.4-1.9,2.4.3,4.2.9v5.5h-1.3c-.1-1.5-.6-2.8-1.4-3.7-.8-1-1.9-1.5-3.1-1.5s-1.8.3-2.5.9-1,1.4-1,2.3.3,1.7,1,2.5c.6.8,2.2,2,4.6,3.6,1.8,1.2,3.1,2.2,3.7,3s.9,1.7.9,2.9c0,1.8-.8,3.5-2.5,4.9s-3.6,2.2-5.8,2.2-3.3-.4-5.2-1.1v-6.3h1.2c0,1.8.5,3.3,1.5,4.5s2.3,1.8,3.7,1.8,2.3-.4,3.1-1.1c.8-.8,1.1-1.7,1.1-2.9s-.3-1.9-.9-2.7c-.6-.8-2-1.9-4.3-3.3-1-1-2.1-1.8-3.1-2.6Z"/>
    <path class="st10" d="M380.1,404.9h1l6.5,17.9c.5,1.3,1,2.4,1.6,3.2.6.8,1.2,1.3,2,1.3v.8h-6.3c0,.1,0-.7,0-.7h.4c.2,0,.3-.2.3-.6s0-.2-.1-.4l-2.2-6.1h-7.7c-.8,2.4-1.1,4.1-1.1,5.2s.2,1.1.6,1.4c.4.4.9.5,1.5.5h.9v.8h-7.9c0,.1,0-.7,0-.7,1.3-.1,2.5-1.5,3.5-4.3l7-18.3ZM379.6,409.9l-3.5,9.4h6.9c0-.1-3.4-9.4-3.4-9.4Z"/>
    <path class="st10" d="M394.6,404.7l5.8-.2,13.4,16.7-.2-5.2c-.1-3.4-.5-6-1-8-.6-2-1.4-3-2.6-3v-.8l7.7-.3v.8c-2.1.3-3.1,3.8-2.8,10.7l.4,11.9h-.8l-15.9-20,.2,6.5c.1,4.1.5,7.2,1.1,9.1s1.4,3,2.6,3.1v.8l-7.6.3v-.8c2.1-.4,3.1-4.5,2.8-12.2l-.2-6.1c0-1-.3-1.7-.7-2.1-.4-.3-1.1-.5-2-.5l-.2-.7Z"/>
    <path class="st10" d="M419.5,405.2h.8c.2.5.4.8.7.8h15.4c.4,0,.6-.3.6-.8h.8v6.7h-1.2c0-3.4-1.8-5-5.3-5h-1.1v18c0,1.8.9,2.7,2.7,2.8v.8h-8.6v-.8c1.1,0,1.8-.2,2.1-.6s.5-1.1.5-2.2v-18h-1.2c-3.2,0-4.9,1.7-5,5h-1.2v-6.7Z"/>
    <path class="st10" d="M447.1,408.4h1l5.9,18.1c.4,1.3.9,2.4,1.4,3.3s1.2,1.3,2,1.4v.8h-6.3v-.9h.4c.2,0,.3-.2.3-.6s0-.2-.1-.4l-2-6.2h-7.7c-.8,2.2-1.3,3.8-1.3,5s.2,1.1.5,1.5c.4.4.9.6,1.5.6h.9v.8h-7.9v-.9c1.3,0,2.5-1.4,3.7-4.1l7.7-18.4ZM446.4,413.4l-3.8,9.3h6.9c0,.1-3.1-9.3-3.1-9.3Z"/>
    <path class="st10" d="M394.1,457c-4,3.9-7.8,6-11.3,6.2-2.9.2-5.5-.8-7.9-2.8-2.4-2.1-3.7-5-4-8.8-.2-2.7.3-5.1,1.3-7.3,1.1-2.2,2.6-4.1,4.7-5.6,2.1-1.6,4.7-2.5,7.7-2.6,2.7-.2,5.2.1,7.6.8l.4,6.1h-1.4c-.3-1.8-1.2-3.2-2.8-4.2s-3.4-1.4-5.5-1.3c-2.9.2-5.2,1.4-6.7,3.6s-2.2,4.9-2,8c.2,3.4,1.3,6.1,3.4,8.2,2,2.1,4.5,3.1,7.5,2.9s6-1.6,9-4.4v1.2Z"/>
    <path class="st10" d="M405.1,439.4h1.2l6.9,19.9c.5,1.5,1.1,2.7,1.7,3.6s1.3,1.4,2.2,1.5v.9h-7v-.9h.5c.2,0,.3-.2.3-.6s0-.3-.1-.4l-2.3-6.8h-8.5c-.9,2.5-1.3,4.4-1.3,5.6s.2,1.2.6,1.6,1,.6,1.7.6h1v.9h-8.7v-.9c1.5-.1,2.8-1.6,4-4.7l7.8-20.3ZM404.5,445l-4.1,10.4h7.6l-3.5-10.4Z"/>
    <path class="st10" d="M415.2,441.2l6-.6v.8c-.3.1-.5.3-.5.6s0,.2.1.3l7.1,15.7,2.2-7.6c.6-2.2.9-4.3.7-6.2-.2-2.4-1.3-3.6-3.3-3.5v-.8c-.1,0,6-.6,6-.6v.8c-.4.1-.6.3-.6.6s0,.2.1.4l7.1,15.7,2.7-9.3c.8-2.9,1.2-4.9,1.1-6-.1-.9-.4-1.5-.8-1.8-.5-.3-1.2-.4-2.2-.3v-.8c-.1,0,7.7-.8,7.7-.8v.8c-.6.1-1.2.5-1.7,1.4s-1,2.1-1.5,3.8l-5.3,18h-1c0,.1-6.4-14-6.4-14-.9,2.1-1.7,4.1-2.2,5.9l-2.7,9.3h-1c0,.1-7.5-16.6-7.5-16.6-.1-.2-.5-.9-1.1-2s-1.1-1.8-1.6-2.1c-.4-.3-.9-.4-1.3-.4v-.7Z"/>
  </g>
  <g id="Layer_3">
    <path id="outline" class="st11" d="M351.2,670.3c99.8,2.7,137.5,24.2,157.2.5,12.3-14.8,4.7-33.1-7.6-96.7-31.7-163.5-30.3-168.3-42.2-192.3-15.3-30.8-53.1-106.9-123.1-120.1-8.2-1.6-36.9-6.6-66.1,7.1-31.5,14.8-45.3,42.6-63.6,79.4-18.4,37-33.3,67.1-32.6,107.4.9,52.6,24.8,58.2,29,122.1,3.3,50.9-11.3,63.5,1.5,80.9,18.4,25.1,56.8,9.2,147.5,11.7Z"/>
    <path class="st11" d="M171,617.4"/>
  </g>
  <g>
    <path d="M455,474.2c-5.2.7-10.3,1.3-15.6,1.3-5.4,0-10.7-.4-16-1.3-.2,0-.3.3,0,.4,10.4,1.7,21.4,1.9,31.7-.3,0,0,0-.2,0-.2h0Z"/>
    <path d="M391.9,474.7c5.2-.7,10.3-1.3,15.6-1.3,5.4,0,10.7.4,16,1.3.2,0,.3-.3,0-.4-10.4-1.7-21.4-1.9-31.7.3,0,0,0,.2,0,.2h0Z"/>
    <g>
      <path d="M458.4,473.6c0-.4-.4-1-1.9-.7-1.2.2-2.6,1.4-2.6,1.4l-.2.2h.2c0,.1,1.7.7,2.9.5,1.5-.3,1.7-1,1.6-1.3Z"/>
      <path d="M454.2,475.5c-1.1-.6-2.8-.6-2.9-.6h-.2s.1.2.1.2c0,0,1,1.6,2.1,2.2.5.3,1,.4,1.3.4.4,0,.6-.3.7-.4,0-.2.2-.5,0-.9-.2-.3-.6-.6-1.1-.9Z"/>
      <path d="M448.3,476c-1.1-.6-2.8-.5-2.9-.5h-.2s.1.2.1.2c0,0,1,1.6,2.1,2.2.5.3,1,.4,1.3.4.3,0,.6-.2.7-.5.2-.3.2-1-1.2-1.8Z"/>
      <path d="M442.4,476.3c-1.1-.6-2.8-.6-2.9-.6h-.2s.1.2.1.2c0,0,1,1.6,2.1,2.2.5.3,1,.5,1.3.4.4,0,.6-.2.7-.4,0-.2.2-.5,0-.9-.2-.3-.5-.6-1.1-.9Z"/>
      <path d="M435.5,476.7c-1-.8-2.7-1.1-2.8-1.1h-.2s0,.2,0,.2c0,0,.7,1.7,1.7,2.5.5.4.9.6,1.2.7.4,0,.6-.1.8-.3.1-.2.2-.5,0-.9-.1-.3-.4-.7-.9-1.1Z"/>
      <path d="M451.3,473.9c.4-.4.7-.8.8-1.2.1-.4,0-.7-.1-.9-.2-.3-.8-.6-2,.5-.9.9-1.5,2.6-1.5,2.7v.2c0,0,.1,0,.1,0,0,0,1.7-.5,2.7-1.3Z"/>
      <path d="M445.7,474.5c1.2-1,1-1.7.8-2-.1-.2-.4-.4-.8-.3-.3,0-.8.3-1.2.7-1,.8-1.7,2.5-1.7,2.6v.2c0,0,.1,0,.1,0,0,0,1.8-.3,2.7-1.1Z"/>
      <path d="M440,473.4c.1-.3,0-.6,0-.9-.1-.2-.4-.4-.8-.3-.3,0-.8.3-1.2.7-1,.8-1.7,2.5-1.7,2.6v.2c0,0,.1,0,.1,0,0,0,1.8-.3,2.7-1.1.5-.4.8-.8.9-1.1Z"/>
      <path d="M433.5,472.8c-.2-.3-.7-.8-2,0-1.1.6-2.1,2.2-2.1,2.2v.2c-.1,0,.1,0,.1,0,0,0,1.8,0,2.9-.6,1.4-.8,1.3-1.5,1.1-1.8Z"/>
      <path d="M390.4,473.9c-1.5.3-1.7,1-1.6,1.3,0,.4.4,1,1.9.7,1.2-.2,2.6-1.4,2.6-1.4l.2-.2h-.2c0-.1-1.7-.7-2.9-.5Z"/>
      <path d="M393.6,471.6c-.5-.3-1-.4-1.3-.4-.4,0-.6.3-.7.4,0,.2-.2.5,0,.9.2.3.6.6,1.1.9,1.1.6,2.8.6,2.9.6h.2s-.1-.2-.1-.2c0,0-1-1.6-2.1-2.2Z"/>
      <path d="M399.5,471c-.5-.3-1-.4-1.3-.4-.3,0-.6.2-.7.5-.2.3-.2,1,1.2,1.8,1.1.6,2.8.5,2.9.5h.2s-.1-.2-.1-.2c0,0-1-1.6-2.1-2.2Z"/>
      <path d="M405.4,470.7c-.5-.3-1-.5-1.3-.4-.4,0-.6.2-.7.4,0,.2-.2.5,0,.9.2.3.5.6,1.1.9,1.1.6,2.8.6,2.9.6h.2s-.1-.2-.1-.2c0,0-1-1.6-2.1-2.2Z"/>
      <path d="M412.6,470.6c-.5-.4-.9-.6-1.2-.7-.4,0-.6.1-.8.3-.1.2-.2.5,0,.9.1.3.4.7.9,1.1,1,.8,2.7,1.1,2.8,1.1h.2s0-.2,0-.2c0,0-.7-1.7-1.7-2.5Z"/>
    </g>
    <g>
      <path d="M395.6,474.9c-.4.4-.7.8-.8,1.2-.1.4,0,.7.1.9.2.3.8.6,2-.5.9-.9,1.5-2.6,1.5-2.7v-.2c0,0-.1,0-.1,0,0,0-1.7.5-2.7,1.3Z"/>
      <path d="M401.3,474.4c-1.2,1-1,1.7-.8,2,.1.2.4.4.8.3.3,0,.8-.3,1.2-.7,1-.8,1.7-2.5,1.7-2.6v-.2c0,0-.1,0-.1,0,0,0-1.8.3-2.7,1.1Z"/>
      <path d="M407.8,474.4c-.5.4-.8.8-.9,1.1-.1.3,0,.6,0,.9.1.2.4.4.8.3.3,0,.8-.3,1.2-.7,1-.8,1.7-2.5,1.7-2.6v-.2c0,0-.1,0-.1,0,0,0-1.8.3-2.7,1.1Z"/>
      <path d="M417.4,473.6c0,0-1.8,0-2.9.6-1.4.8-1.3,1.5-1.1,1.8.2.3.7.8,2,0,1.1-.6,2.1-2.2,2.1-2.2v-.2c.1,0-.1,0-.1,0Z"/>
    </g>
  </g>
  <circle cx="330.4" cy="278.8" r="13.8"/>
  <g>
    <path class="st9" d="M624.5,436.8c-6.4-1.4-9.5-2.9-11.3-5.8-.4-.6-.8-1.4-.9-1.8-.2-.9-.8-1-1.4-.3-2.5,2.8-4.8,3.9-6.6,3.4-.3-.1-.9-.7-1.3-1.3s-.9-1.1-1.1-1.1c-.2,0-.6.5-1,1.4-.4.8-1.2,1.9-1.8,2.4-1,.9-1.3,1.1-2.6,1.5s-1.8.4-2.6.2c-.5-.1-1-.3-.9-.4.1-.5,1.4-1.1,2.6-1.3,1.4-.2,1.5-.3,1.5-1.7.1-3.1,3.1-5.6,6.4-5.3,1.3.1,1.4,0,1.4-1.8,0-3.7,1.8-8.2,5-11.9.7-.8,1-1.3.9-1.6-.1-.3-.5-.2-3.3.6-4.8,1.4-7.8,1.7-10.7.8-1.8-.5-1.9-.4-3.2,2.5-1.9,4.1-3.9,5.5-7.1,4.8-1.7-.3-1.8-.2-2.3,1.8-.4,2.2-1.7,4.8-2.9,5.8-.7.6-1,.8-2.3,1-.8.2-1.9.2-2.5.1q-1.6-.3-1.2,2.1c.3,1.7,0,4-.8,7.9-.8,3.7-.8,3.6-3.2,5.9-1.2,1.1-1.3,1.1-4.5,2.2-1.8.6-4.7,1.6-6.6,2.2-1.2.4-2.3.8-2.9,1-.2,0-.5-.2-.4-.4.1-.4.3-.9.6-1.5.9-2.3,1.9-5.8,2-7.4v-1.1c0,0,.1,0,.1,0-.6,0-1.3,0-1.9,0h.1c.1.1.2.3.2.4l-.4,2c-.5,2.4-.7,2.8-2.3,6.7l-1.1,2.6c0,0,0,.1-.2.2l-1.3.6c-7.7,3.6-13.5,7-24.8,14.7-2.6,1.8-4.7,3.2-4.8,3.2s.3-.5.9-1.2c1.1-1.3,2.4-3.3,4.1-6,2.5-4.1,6.7-7.8,9.7-8.7s1.8-1.2.9-1.9c-.2-.2-.7-.9-1.1-1.5-.8-1.3-.9-2.4-.5-4,.6-2.1,2.9-5.2,4.3-5.6s.5-.3.6-.5c.1-.3,0-.5-.7-.9-1.5-1-2.1-1.9-2.5-3.5-.4-1.8-.1-3.8.9-5.9.8-1.6.7-1.8-1.2-2-3.5-.4-7-4-8.8-9.1-1-2.9-1.4-2.6-1.4,1.3,0,5.1-1.2,8.4-3.4,9.8-.4.3-.8.5-1,.7-.1,0-.2.3,0,.4.2.3.5.7,1,1.2,1.1,1.2,1.3,1.5,1.6,2.8s.4,1.7.1,2.6c-.4,1.5-1.2,2.6-2.3,3.4-.5.3-1.1.8-1.4,1-.7.5-.5,1,.6,1.6,3.3,1.8,3.2,7.5,0,8.5s-.7.8.1,1.5c1.9,1.6,2.8,4,2.6,7.2-.1,1.9-.2,2.1-1.2,3.8-1.3,2.1-3.4,4.8-5.6,7-1.2,1.2-2.6,2.2-6.8,5-12.4,8.1-21.9,15.2-23.1,17.4-.4.8-.3,1.4.3,1.6.3,0,.9-.3,2.5-1.6,1.1-1,3.8-3.1,6-4.8,4.4-3.4,4-3.2,9.3-4.2l3-.6c0,0,.2,0,.2,0l2.2,1.4c2.7,1.7,4,3,4.9,5.2.4,1,.8,1.5,1,1.5.2,0,.6-.4,1-.9,1.5-2.2,3-2.6,4.9-1.7,1.5.8,2.2,1.8,2.6,3.7.3,1.3.6,1.9,1,1.7s.6-.7,1.1-1.5c1.1-1.7,1.9-2.3,3.3-2.6,1.5-.3,2.8.3,4.3,2.1.8.9,1.4,1.4,1.6,1.3.2,0,.7-.4,1.1-.8,2.5-2.5,6.8-3.4,12.5-2.7,2,.3,3,.2,2.9,0s-1.1-.9-2.5-1.9c-2.7-2-4.6-3.9-6-6.2-.8-1.3-1-1.9-1.5-4.1-.3-1.4-.7-2.5-.7-2.5s-.2.2-.4.5c-.4.6-3.4,1.6-4.7,1.6-1.3,0-2.8-.5-3.4-1.2,0,0,0,0,0,0-.3-.3-.6-.9-.7-1.4s-.3-.9-.6-.9c-.2,0-.8.3-1.4.7-2.8,1.9-6.2,2-7.4,0-.2-.3-.4-.6-.6-.7,0,0-.2,0-.3,0-.2.1-.6.4-1,.8-1.9,2-3.5,3-8.4,5.2-3.6,1.6-4.2,1.8-8,2.6l-.8.2c-.3,0-.5-.4-.2-.6l4.6-3c11.6-7.7,17.3-11.5,23.6-15.8l6.4-4.4s0,0,.1,0l1.8-.2c1-.1,2.8-.2,4-.2h2c0,0,.1,0,.2,0l2.2,1.4c1.2.8,2.8,1.8,3.3,2.3l.8.7c0,0,.2,0,.3,0,.2,0,.4-.2.5-.2.2,0,.3-.4.1-.5l-.6-.5c-.6-.5-1.8-1.5-2.7-2l-.6-.4c-.3-.2-.1-.6.2-.6h.4c2.4.2,9.3,1.5,11.5,2.2,1,.3,2.3.9,3,1.2.4.2.7.3.8.5.2.1.4,0,.5,0l.4-.7c0-.2,0-.4-.2-.4-.3-.1-.8-.3-1.2-.6-1.8-.9-4.3-1.8-7-2.5-2.4-.6-2.4-.5.6-1.8,1.5-.6,2.1-.9,2.5-.8.2,0,.4-.2.3-.4,0-.3-.1-.5-.1-.8,0-.2-.2-.3-.4-.3l-1.8.6c-1.2.4-3,1.1-4,1.6-1.7.8-1.8.8-2.9.7-2.6-.3-5.2-.5-7.7-.5h-1.4c-.3,0-.4-.4-.2-.6l1-.6c6.5-3.5,13.5-6.4,22.9-9.3l4.2-1.3s0,0,.1,0l2.8.4c5.4.7,7.2,1.2,9.7,2.5,1.8.9,2.9,1.8,3.9,3.3,1,1.5,1.6,1.5,2.2.1,1-2,2.3-3.1,3.8-3.2,1.7,0,3.2.8,4.2,2.6.7,1.1,1.2.9,1.5-.7.3-1.6,1.3-3.3,2.4-3.9,1-.6,2.5-.9,3.7-.6,1.1.2,2.9,1.4,2.8,1.8,0,.2.1.4.3.5.5.2.9-.2,1.9-1.7,1.4-2.3,4.4-5,7.6-6.8,1.6-.9,2.2-1.1,4.3-1.7,3.5-.9,3.4-1.1-.8-2ZM512.3,484.3c1.4-.4,6.9-.9,10.9-.9,6.6,0,9.8.3,18.3,2.3,2.8.7,2.4,0-.8-1-.8-.3-3.1-.9-5-1.3-5.4-1.2-10.9-1.7-16.3-1.3h-1.4c-.3.1-.5-.3-.2-.5h0c2.2-1,4.6-2.5,5.9-3.7l.8-.8c.1-.1.4-.1.5,0h0c.4.8,1.6,1.4,2.8,1.6,2,.3,3.7-.2,5.8-1.5.2-.2.4,0,.8.6,1.3,2.3,6,3,8.6,1.3l.9-.6v.6c0,.9.9,3.8,1.4,4.6,1.3,2,2.8,3.8,4.2,4.9.9.7,1.4,1.2,1.2,1.2-4-.4-8.1.5-10.6,2.2-.4.3-1,.8-1.3,1-.5.5-.5.5-.7,0-.3-1.2-2.4-2.8-4.1-3.2-1.8-.4-4.2.7-5.3,2.5l-.4.5-.2-.7c-.5-1.9-2.6-3.7-4.5-3.9-1.6-.2-3.6.7-4.4,1.9-.3.4-.3.4-.5-.1-1.3-2.5-2.6-3.8-4.9-5.1-1-.5-1.8-1-1.7-1ZM525,453.4c-.1-.1,0-.4,0-.5l.4-.3c1-.7,2-2.5,2-3.9,0-2.1-.9-4.4-2.2-5.3l-.2-.2c-.2-.1-.2-.4,0-.5l.7-.6c1.2-1.1,2-2.5,2.3-3.9.2-.8.1-1.4-.2-2.7-.5-1.6-.6-1.9-2.5-3.9,0,0,.2-.2.6-.3,1.9-.5,3.6-3.9,3.8-7.6,0-.7.2-1,.3-.9,0,.2.5.8.9,1.4,1.7,2.8,4.6,5,6.7,5.3h.8c.2.1.3.4.2.5l-.3.7c-.8,1.5-1.1,3.8-.8,5.4.3,1.8.8,2.6,1.9,3.6l.7.6c.2.1.1.4,0,.5l-.5.4c-1.2.8-3,3.1-3.4,4.5-.4,1.3-.5,3.1-.2,4.1.1.4.5,1.2.9,1.8.3.4.5.7.6.9,0,.2,0,.4-.1.4-.1,0-.3.1-.4.2-1.8.5-4.8,2.6-6.1,4.1-.3.4-.5.6-.5.4,0-.1.4-1.2.8-2.3,1.8-5.6,2.6-13.8,1.8-19.9-.6-4.5-1-4.7-.7-.3.5,6.6-.4,13.7-2.3,19.4-.4,1.2-1,2.8-1.4,3.7-.7,1.6-.7,1.6-.8.9,0-.4-.2-1.4-.4-2.3-.4-1.2-.6-1.7-1.4-2.6l-.8-.9ZM577.5,441h.4c.3-.2.5.2.3.4v.2c-.6.5-1.7,1.4-2.6,2.1-.9.7-2,1.4-2.5,1.6l-.9.3.9-.9c.5-.5,1.3-1.4,1.9-2.1,1-1.2,1.1-1.3,2.5-1.6ZM592,433.6l-.3.3c-.1.1-.3.1-.5,0l-.2-.3c-.2-.3-.6-.7-.7-.9-.5-.7-.9-.4-1.8,1.1-1.3,2.1-2.3,2.9-4.3,3.5s-2,.5-2.5.5c-.7,0-.9.1-1.4.8-.6.7-1.2,1-2.3,1-.4,0-.3-.2,1.3-1.9,2.2-2.3,3.9-3.7,8.7-7.4,4.4-3.3,10.2-8.5,12.4-11,1.3-1.6,1.8-2.3,1.3-2.2s-2.4,2-5.1,4.4c-2.7,2.4-6.9,5.9-9.4,7.8-5.6,4.4-7.6,6.1-9.8,8.6-1,1.1-1.8,1.9-1.8,1.8s.2-.9.4-1.8c.5-1.9.7-5.2.5-6.8v-.6c0-.2,0-.4.3-.3h.7c1.6.4,3.7-.3,4.9-1.4,1.2-1.1,2.5-3.6,2.8-5.7.2-1,.4-1.8.4-1.8s.4,0,.9.2c2,.5,4.1,0,5.9-1.6,1.1-1,2.7-3.6,3-5.1q.3-1.3.8-1c.9.5,3.1.8,4.7.8,1,0,2.5-.3,4.4-.9l2-.6c.3,0,.5.3.3.5l-.7,1c-2.2,2.9-3.7,6.8-3.5,9.8,0,.9,0,1.1-.3,1.1-.8-.1-3.8.7-4.8,1.4-1.5.9-2.5,2.7-2.5,4.3v.8c0,.1,0,.3-.2.3l-1.4.4c-1.1.3-1.7.6-2.2,1ZM622,437.8c.3,0,.3.5,0,.6h-.2c-3,1.3-7.6,4.9-9.5,7.5-.9,1.2-1,1.4-1.2,1-.4-.6-2.2-1.3-3.6-1.5-1.6-.1-3.3.4-4.4,1.4-.7.6-2,2.8-1.9,3.2s-.3.2-1.2-.6c-1.3-1.3-3.1-1.8-4.8-1.3s-2,.9-3,2.3c-.4.5-.7,1-.7.9,0,0-.4-.5-.9-1-.9-1.1-4.5-3.1-6.5-3.8-.8-.3-2.3-.6-3.2-.8l-1.8-.4,1.4-.2c.8-.1,4.1-.8,7.5-1.4,6.3-1.2,10.1-1.7,15.9-2.4,3.5-.4,5.4-.8,5.3-1.1s-.3-.3-2.3-.2c-1,0-3.8.3-6.3.5-8,.7-13.6,1.5-21.6,3.4q-3.5.8-2.5.2c1.8-1,2.6-1.8,4.8-5,.4-.5.4-.5,1.5-.5,2.1,0,4.4-1.2,6-3.4.6-.7,1-1.1,1.1-1,.6.9,2.1,1.8,3.4,2.1,1.2.3,1.6.2,3.3-.2s2-.6,2.9-1.4c.6-.5,1.3-1.4,1.7-2,.2-.3.4-.6.5-.8.1-.2.3-.2.5,0s.3.3.5.5c.4.4,1,.8,1.6,1,.8.2,1.2.2,2.7-.3,1.5-.5,1.9-.7,3-1.7l.9-.8c.2-.1.4,0,.5,0l.4.7c1.5,3,4.2,4.7,9.1,5.9l1.1.3Z"/>
    <path class="st9" d="M557.5,439.7s.1,0,.2,0c.6,0,1.2,0,1.8,0,0,0,0,0,0,0l.9-.3c2.3-.6,3.4-2.4,2.8-4.7-1.1-4.2-7-4.6-8.2-.6-.7,2.2,0,4.2,1.9,5.2l.6.3ZM559.2,433.2c.7,0,1.9.8,2.3,1.5.1.3.2.8.3,1.2,0,.4-.1.7-.2.8-.2.1-.2,0-.2-.3,0-.7-.8-2-1.8-2.6-.8-.5-.8-.6-.3-.6Z"/>
    <path class="st9" d="M564.5,457.3s0,0,0,.1c0,0,.2.2.3.3.9,1.1,2.1,1.5,3.8,1.4,1,0,1.3-.2,2-.7,1.1-.8,1.8-2.2,1.8-3.4,0-2.8-2.4-4.4-5.3-3.6-1.1.3-1.4.5-2,1.2-.4.5-.8,1.3-.9,1.8l-.2,1h0c0,.7.2,1.3.4,1.9ZM568.7,457.4c.5-.1.9-.2.8,0,0,.3-.9.5-1.3.4-.3,0-.1-.2.5-.4Z"/>
    <path class="st9" d="M569.5,462.7l-.8,1.4s0,.1,0,.2c0,0,0,.2,0,.3-.2,1.6.8,3.2,2.6,4.1,1.3.6,2.3.7,3.7.3s2.3-1.1,2.8-2.4c.8-1.8-.3-4.6-2.2-5.5-2-.9-4.2-.6-5.3.8-.3.4-.6.8-.7.8s0,0,0,0ZM572.6,466.5c1.3.1,2.2,0,2.9-.6.6-.5.7,0,0,.6-.9.8-2.5.9-3.7.3-.7-.3-.5-.4.8-.3Z"/>
    <path class="st9" d="M556.8,463.9c-.4.1-.8.3-1.2.5h0s-.5.7-.5.7c-.7,1-.8,1.9-.4,3.3.8,2.8,3.2,4.2,5.9,3.5,2.2-.6,3-1.7,2.9-3.9-.2-2.2-1.7-4.1-3.6-4.4-.5,0-1.3,0-2,.2l-1.1.3h0ZM558.1,469.5c1,.3,1.8.4,2.5.3.6-.1.9,0,.7,0-.3.4-1.6.7-2.4.5-.7,0-2.1-.9-2.2-1.3s.6,0,1.4.3Z"/>
  </g>
</svg>