<?xml version="1.0" encoding="UTF-8" standalone="no"?>
<svg
   xmlns:dc="http://purl.org/dc/elements/1.1/"
   xmlns:cc="http://creativecommons.org/ns#"
   xmlns:rdf="http://www.w3.org/1999/02/22-rdf-syntax-ns#"
   xmlns:svg="http://www.w3.org/2000/svg"
   xmlns="http://www.w3.org/2000/svg"
   xmlns:sodipodi="http://sodipodi.sourceforge.net/DTD/sodipodi-0.dtd"
   xmlns:inkscape="http://www.inkscape.org/namespaces/inkscape"
   inkscape:version="1.0 (4035a4fb49, 2020-05-01)"
   sodipodi:docname="trinket-bottlecap-inkscape.svg"
   id="svg60"
   xml:space="preserve"
   style="enable-background:new 0 0 595.3 841.9;"
   viewBox="0 0 595.3 841.9"
   y="0px"
   x="0px"
   version="1.1"><metadata
   id="metadata66"><rdf:RDF><cc:Work
       rdf:about=""><dc:format>image/svg+xml</dc:format><dc:type
         rdf:resource="http://purl.org/dc/dcmitype/StillImage" /><dc:title></dc:title></cc:Work></rdf:RDF></metadata><defs
   id="defs64" /><sodipodi:namedview
   inkscape:current-layer="g1182"
   inkscape:window-maximized="1"
   inkscape:window-y="-6"
   inkscape:window-x="-6"
   inkscape:cy="129.83457"
   inkscape:cx="94.479491"
   inkscape:zoom="4.0859958"
   showgrid="false"
   id="namedview62"
   inkscape:window-height="1028"
   inkscape:window-width="1920"
   inkscape:pageshadow="2"
   inkscape:pageopacity="0"
   guidetolerance="10"
   gridtolerance="10"
   objecttolerance="10"
   borderopacity="1"
   bordercolor="#666666"
   pagecolor="#ffffff" />
<style
   id="style2"
   type="text/css">
	.st0{fill:#3E4E53;}
	.st1{fill:#FFFFFF;}
	.st2{fill:none;stroke:#000000;stroke-miterlimit:10;}
	.st3{fill:#FCE828;}
	.st4{fill:#F7941D;}
</style>


<g
   style="display:inline"
   inkscape:groupmode="layer"
   id="g952"
   inkscape:label="F.SilkS" /><g
   style="display:inline"
   inkscape:label="F.Mask"
   id="layer2"
   inkscape:groupmode="layer"><g
     transform="translate(0.58154055,8.5105232)"
     id="g18"
     style="display:inline"><path
       class="st0"
       d="m 71.6,108 c -1,-0.4 -2.2,-1 -3.3,-1.3 -0.7,-0.2 -1.5,-0.3 -2.2,-0.6 0.7,1 2.1,1.7 3,2.5 0.5,0.4 0.9,0.7 1.4,0.9 0.2,0.1 0.6,0.3 0.8,0.4 0.5,0.1 0.5,0.1 0.7,0.2 0.6,0.1 1.2,-0.2 1,-0.9 -0.1,-0.7 -0.9,-1 -1.4,-1.2 z"
       id="path4" /><path
       class="st0"
       d="m 66.2,100.4 c 1.3,-0.5 2.6,-1 3.8,-1.5 1.5,-0.7 2.8,-1.4 4.2,-2.2 1.3,-0.7 2.8,-1.2 4.1,-1.9 1.4,-0.8 2.8,-1.5 4.3,-2.3 1.6,-0.8 2.9,-1.8 3,-3.7 -0.9,0.1 -1.9,1.4 -2.7,1.8 -1.1,0.6 -2.4,1.6 -3.5,2.1 -1.3,0.6 -2,0.9 -3.3,1.4 -0.6,0.2 -1.8,0.2 -2.3,0.7 -0.7,0.4 -0.9,0.2 -1.7,0.5 -0.4,0.2 -0.8,0.3 -1.2,0.3 -0.5,0.1 -1,-0.2 -1.5,-0.2 -0.8,0 -1.2,0.8 -1.6,1.4 -0.4,0.6 -1,1.1 -1.5,1.6 -0.5,0.5 -1.2,0.8 -1.6,1.5 0.4,0.2 1,0.4 1.4,0.5 0.1,-0.1 0.2,-0.1 0.1,0 z m 1.1,-0.7 -0.5,0.3 c 0.2,-0.1 0.3,-0.3 0.5,-0.3 z"
       id="path6" /><path
       class="st0"
       d="M 58,99.3 C 57.6,98.9 57.1,98.4 56.6,98.2 56.3,98.1 56.1,98 55.8,98 c 0.2,0.7 0.7,1.2 1.1,1.8 0.3,0.4 0.8,1.4 1.2,1.4 0,0 0,0.1 0,0.1 0.2,0 0.3,-0.1 0.4,-0.3 0,-0.1 0.1,-0.3 0,-0.4 0.1,-0.5 -0.1,-0.9 -0.5,-1.3 z"
       id="path8" /><path
       class="st0"
       d="m 117.4,115.1 c -0.3,-0.3 -1.1,0 -1.6,0.2 0,0.5 0.3,0.8 0.5,1.2 0.2,0.3 0.3,0.8 0.7,1.1 0,0 0.6,1.5 1.1,1.4 0.7,-0.1 0.1,-2.4 0,-2.7 -0.2,-0.5 -0.4,-0.9 -0.7,-1.2 z"
       id="path10" /><path
       class="st0"
       d="m 55.2,84.3 c 0,0 0,0 0,0 0,0.1 0,0.1 0,0.1 0,-0.1 0,-0.1 0,-0.1 z"
       id="path12" /><path
       class="st0"
       d="m 114.5,74.3 c -0.7,0 -3.1,1.6 -3.4,2.2 -1,1.5 -2.2,2.5 -3.5,3.6 -1.8,1.5 -3.7,2.7 -5.5,4.1 -0.8,0.6 -2.4,2.1 -3.4,2 1,-1.5 2.7,-2.1 3.9,-3.3 0.7,-0.7 1.2,-1.5 1.9,-2.2 0.5,-0.5 1.2,-1 1.2,-1.8 -0.6,-0.1 -1.8,0.8 -2.3,1.2 -0.7,0.4 -1.1,0.8 -1.7,1.3 -0.4,0.3 -1.8,1 -3.2,1.7 -9,7.8 -21.9,15 -29.9,18 -0.9,0.3 -0.5,0.9 0.8,1.6 0.9,-0.2 1.9,-0.4 2.7,-0.7 1,-0.5 1.8,-1.1 2.9,-1.5 1,-0.4 2.1,-0.6 3,-1.3 0.8,-0.6 1.5,-1 2.3,-1.5 0.7,-0.4 1.8,-0.8 2.3,-1.5 0.3,-0.1 0.6,-0.4 0.9,-0.6 0.3,-0.2 0.6,-0.3 0.9,-0.4 0.7,-0.4 1.3,-1.1 2,-1.6 0.6,-0.3 1.3,-0.6 1.9,-0.9 1.1,-0.6 2.7,-2.7 4.2,-2.5 -0.5,0.6 -1,1.1 -1.6,1.6 -0.5,0.4 -1.1,0.9 -1.7,1.3 -0.1,0.1 -0.4,0.3 -0.4,0.4 -1.1,0.5 -2.2,1.5 -3.2,2.3 -1.1,0.8 -2.4,2.1 -3.6,2.5 -0.5,0.6 -1.6,0.9 -2.3,1.3 -2.7,1.5 -6,2.4 -8.8,3.8 0,0.1 0,0.2 -0.1,0.3 5.2,2.3 16,5.2 19.9,6.1 5.6,1.3 23.2,0.6 35.4,-5.9 12.1,-6.5 10.8,-15.9 7.5,-21.1 -2.9,-4.8 -11.4,-8.1 -19.1,-8.5 z"
       id="path14" /><path
       class="st0"
       d="m 148,103.3 c -0.6,-0.8 -1.2,-1.5 -1.8,-2.2 -0.3,-0.4 -0.6,-0.8 -0.9,-1.2 0.3,-0.2 0.7,-0.6 0.9,-1.1 0.2,-0.4 0.3,-0.7 0.5,-0.9 0.6,-0.6 0.8,-1.3 0.8,-2 -0.1,-1.1 -0.9,-1.9 -1.2,-2.1 -0.4,-0.3 -0.7,-0.5 -1,-0.6 -0.1,-0.1 -0.2,-0.1 -0.3,-0.2 -0.3,-0.5 -0.7,-0.9 -1.1,-1.3 -0.5,-0.5 -0.9,-1 -1.1,-1.5 -0.1,-0.2 -0.2,-0.5 -0.3,-0.7 -0.4,-0.8 -0.7,-1.7 -1.2,-2.6 0,-0.1 -0.1,-0.3 -0.2,-0.5 -0.3,-0.8 -0.4,-1.3 -0.6,-1.7 -0.1,-0.1 -0.2,-0.5 -0.4,-0.8 -0.6,-1.4 -1.1,-2.4 -1.6,-2.9 -0.3,-0.3 -0.6,-0.6 -0.9,-0.9 -0.5,-0.5 -1.2,-1.1 -1.4,-1.3 -1,-1.2 -2.3,-2 -3.5,-2.8 -0.1,-0.1 -0.3,-0.2 -0.4,-0.3 l -0.1,-0.1 -0.1,-0.1 -0.3,-0.1 -0.2,-0.1 c -4,-2.5 -7.7,-4.1 -11.3,-4.9 -2.7,-0.6 -5.5,-0.8 -8.3,-0.9 -2.3,-0.1 -3.6,-0.7 -5.6,-1.5 -0.5,-0.2 -1,-0.4 -1.5,-0.6 -3.8,-1.5 -11.9,-3.3 -16.3,-3.9 -1.8,-0.2 -3.8,-0.4 -5.8,-0.4 -4.7,0 -9.1,0.6 -11.4,1.1 -4.4,0.9 -8.2,2.3 -11.7,4.2 -5.1,2.7 -9.2,7.9 -10,9.4 -0.2,0.4 -0.6,0.8 -1,1 -0.7,0.3 -1.2,0.7 -1.7,1.2 -0.3,0.4 -0.7,0.6 -1,0.9 -0.7,0.5 -1.1,1.1 -1.3,1.8 -0.1,0.7 0.1,1.4 0.6,2.1 0.1,0.1 0.2,0.2 0.2,0.3 0,0.1 0.1,0.1 0.1,0.2 0.2,0.6 0.5,1.1 0.8,1.5 -0.1,0.1 -0.2,0.2 -0.3,0.3 -0.3,0.3 -0.7,0.6 -1,0.9 -0.2,0 -0.3,-0.1 -0.3,-0.1 -1,0.2 -2.1,0.4 -3.1,0.7 -1.8,0.5 -1.3,1.4 -0.5,2.4 -0.4,0.3 -0.6,0.6 -0.9,1 -2.8,0.4 -6,1.3 -6.2,4.5 -0.1,2.3 4.5,6.5 -0.1,7.2 -4.6,0.7 -2.1,6.3 0.4,8.6 1.7,1.5 5,2.2 8.3,2.5 2,0.1 2.7,0.3 4.2,1.7 2.8,2.5 2,4.3 0.5,6.6 -1.4,2.3 0.6,2.7 1.4,2.9 0.8,0.2 2.7,-0.5 4.5,0.1 1.9,0.6 3.2,1.9 5.2,2.4 3,0.6 7.4,1.4 10.4,1.2 0.6,1.7 -4.2,4.2 2.5,4.7 4.8,0.2 9.7,-0.1 14.4,0.4 3.5,0.3 7.8,0.7 11.6,0.1 0,0 0.1,0 0.1,0 0,0 0.1,0 0.1,0 2,-0.1 4,-0.5 5.8,-1.3 0.9,-0.4 1.4,-1.1 1.7,-2 2.6,-0.1 5.4,-0.7 8,-0.7 1.7,0 5.6,0.3 7.7,-0.9 0.1,0 0.3,0 0.4,0 0.5,0 0.9,-0.1 1.3,-0.2 1.4,-0.4 2.7,-1 3.7,-1.8 0.7,-0.5 1,-1.3 0.9,-2.1 1.3,-0.5 2.3,-1.2 3.6,-1.9 3.2,-1.6 5.9,-2.1 9.1,-4 0,0 -0.2,-0.1 -0.6,-0.2 0.1,0 0.2,0 0.3,-0.1 0.2,0 0.4,-0.1 0.6,-0.1 1.1,-0.2 2,-0.9 2.5,-1.9 0.4,-0.9 0.4,-2.1 -0.1,-3.1 -0.2,-0.4 -0.5,-0.8 -0.7,-1.1 v 0 c 0,0 0,0 0,0 l 0.4,-0.9 c 0.1,-0.3 0.2,-0.5 0.3,-0.7 0.2,-0.5 0.4,-0.9 0.5,-1.3 0,-0.1 0.1,-0.2 0.1,-0.3 0,-0.1 0.1,-0.2 0.2,-0.3 1.1,-0.1 1.9,-0.7 2.5,-1.1 0.5,-0.4 1.1,-0.9 1.7,-1.3 0.5,-0.3 1.2,-0.9 1.4,-1.8 0,-1.2 -0.6,-2.1 -0.9,-2.5 z m -1.7,2.9 c -0.6,0.4 -1.2,0.9 -1.8,1.3 -0.5,0.4 -1,0.7 -1.8,0.8 -0.8,0 -1.1,0.9 -1.4,1.5 -0.4,0.7 -0.6,1.4 -0.9,2.2 -1.9,-1.1 -2.6,-3.1 -3.4,-5 -0.1,-0.3 -0.1,-0.6 0.2,-0.8 0.3,-0.3 0.7,-0.4 1.1,-0.2 0.6,0.2 1,0.7 1.7,0.9 0.6,-0.1 1.1,0.2 1.6,0.3 0.3,0.1 0.7,-0.4 0.8,-0.7 0.1,-0.3 0.2,-0.6 -0.3,-0.8 -0.2,-0.1 -0.3,-0.1 -0.4,-0.3 -1.2,-2.7 -1.3,-5.9 -2.2,-6.1 -0.5,-0.1 -2.6,3.2 -2.9,3.6 -0.2,0.2 -0.4,0.4 -0.7,0.5 -1,0.5 -1.2,1.2 -0.8,2.3 0.5,1.1 1,2.1 1.5,3.2 1,2 2.3,3.9 3.6,5.7 0.2,0.3 0.4,0.6 0.6,0.9 0.6,1.2 0.1,2.2 -1.2,2.5 -0.9,0.2 -1.8,0.5 -2.7,0.4 -0.3,0 -0.5,-0.1 -0.7,-0.5 -0.8,-2 -2,-3.7 -3,-5.6 -1.1,-1.9 -2.8,-2.1 -4.6,-2.2 -0.7,-0.1 -1.2,0.5 -1.9,0.7 -1,0.3 -1.6,1 -2.3,1.7 -0.6,0.7 -0.8,1.6 -1.5,2.2 -0.3,0.2 -0.2,0.6 -0.2,1 -0.2,2.4 0.4,4.6 1.2,6.8 0.1,0.3 0.3,0.6 0.6,0.5 0.5,-0.2 1,-0.5 1,-1.2 0,-0.2 -0.1,-0.3 -0.1,-0.5 -0.6,-1.8 -0.7,-3.6 -0.6,-5.4 0,-0.6 0.3,-0.8 0.9,-0.9 1.3,-0.3 2.4,0.2 3.5,0.5 0.1,0.3 0.5,0.4 0.6,0.7 0.2,0.4 -0.6,0.5 -0.8,0.6 0,0.1 0,0.1 0,0.2 0,0 0,0.1 0,0.1 0.5,0 0.9,0 1.3,-0.1 0.5,-0.1 2.1,-0.3 1.4,0.7 -0.2,0.3 -0.5,0.6 -0.8,0.9 -0.2,0.3 -0.4,0.6 -0.7,0.9 0.3,-0.1 0.6,-0.3 0.9,-0.4 0.5,-0.3 1.1,-0.4 1.6,-0.5 0.5,-0.1 1,-0.1 1.5,0 0.2,0.9 0,1.1 -1.2,1.4 -2.6,0.6 -4.6,2.2 -6.6,3.8 -0.7,0.6 -1.5,1.3 -1,2.4 0.1,0.3 0,0.6 -0.3,0.7 -0.9,0.7 -2,1.2 -3.1,1.5 -1.4,0.4 -2.5,-0.3 -3.6,-0.7 -0.6,-0.3 -0.4,-0.9 -0.5,-1.3 0,-0.3 0,-0.6 0.1,-1 0,-1.3 -0.1,-2.6 -0.3,-4 -0.2,-1.1 -0.5,-2 -1.1,-2.9 -0.4,-0.6 -0.7,-1.2 -1.1,-1.9 -0.5,-0.8 -1.3,-1.4 -2.4,-1.4 -1,0 -2,0.2 -3,0.1 -2,-0.1 -3.9,0.4 -5.7,1.2 -0.2,0.1 -0.4,0.2 -0.8,0.1 -0.8,-0.3 -1.6,0.1 -1.9,0.9 -0.6,1.4 -0.6,2.9 -0.7,4.4 -0.1,1.7 -0.1,3.4 0.1,5.1 0.1,0.6 0.4,0.9 1,0.8 0.6,-0.1 0.6,-0.5 0.7,-1.1 0.3,-2.4 -0.5,-4.9 0.4,-7.4 0.2,-0.7 0.5,-1.3 0.9,-1.8 0.4,-0.4 1.2,-0.3 1.8,0 0.4,0.2 0.8,0.4 1.1,0.7 0.8,0.6 1.5,1.1 2.3,1.6 -0.6,0.1 -1.2,0.4 -1.7,0.9 -0.9,0.5 -0.6,0.6 0.3,0.7 0.6,0.1 3.8,-0.1 3.3,1 -0.2,0.5 -1.1,0.5 -1.4,0.7 -0.4,0.3 -0.7,0.8 -1.2,1 1.1,0 2.2,-0.1 3.3,-0.1 0.6,0 1.2,0 1.7,0.2 0.3,0.1 0.7,0.3 1,0.5 0.2,0.2 0.3,0.4 0.5,0.6 0.2,0.2 0.2,0.5 0.2,0.8 -3,-0.7 -5.9,0.2 -8.9,0.5 -0.9,0.1 -1.8,0.5 -2.6,0.8 -0.8,0.4 -1.2,0.9 -0.8,1.7 0.3,0.7 0.5,1.3 0.4,2.1 -0.1,0.5 -0.3,0.8 -0.7,0.9 -1.7,0.7 -3.4,1.1 -5.2,1.2 -0.2,0 -0.5,0 -0.7,-0.1 -1,-0.3 -2,-0.6 -3,-0.9 -0.6,-0.2 -0.9,-0.5 -0.8,-1.2 0.2,-1.2 0.4,-2.3 0.3,-3.5 -0.3,-2.3 0,-4.7 -0.1,-7 -0.1,-1.3 -0.7,-2.4 -1.5,-3.4 -0.3,-0.2 -0.6,-0.4 -0.8,-0.7 -1.2,-1.1 -2.7,-1.4 -4.3,-1.7 -1.6,-0.3 -3.2,-0.3 -4.8,-0.2 -1,0.1 -1.8,0.5 -2.4,1.3 -1.8,2.5 -2.7,5.4 -2.8,8.5 0,0.3 -0.1,0.6 -0.1,0.9 -0.1,0.7 0.2,1.1 0.9,1 0,0 0,0 0.1,0 0.6,0 0.9,-0.3 0.8,-0.5 -0.1,-0.2 -0.2,-0.4 -0.2,-0.6 0.3,-2.4 0.7,-4.9 2,-7.1 0.4,-0.7 0.5,-1.4 1.1,-2 0.3,-0.3 0.5,-0.3 0.8,-0.1 0.6,0.7 1.5,1.1 2,1.9 0.4,0.6 0.9,1 1.4,1.5 0.1,0.1 0.1,0.1 0.2,0.2 -0.6,0.1 -1.3,0.1 -2,0 0,0.9 1,2 1.5,2.8 0.5,0.7 2.3,0.8 2.5,1.9 -0.5,0 -2.3,-0.9 -3.4,0.2 1.1,0.4 4.9,0.8 7,3 0,0.4 0,0.8 0,1.1 0,0.2 0,0.4 -0.3,0.2 -1,-0.8 -2.1,-1.6 -3.2,-2.2 -1,-0.4 -2.1,-0.5 -3.1,-0.6 -1.3,-0.1 -2.5,-0.2 -3.8,-0.1 -0.4,0 -0.9,0 -1.3,0.2 -0.3,0.1 -0.6,0.1 -0.8,-0.1 -0.3,0.1 -0.4,0.2 -0.6,0.5 0,0.1 0,0.2 0,0.4 0,0.1 0,0.1 0,0.2 -0.1,1.2 -0.1,1.2 -1.2,1 -0.9,-0.2 -1.7,0.2 -2.6,0.3 -0.6,0.1 -1.1,0.2 -1.7,0.3 -1.4,0.2 -2.6,-0.2 -3.6,-1.2 -0.6,-0.6 -1.1,-1.2 -1.8,-1.7 -0.4,-0.4 -0.5,-0.8 -0.2,-1.3 0.4,-0.5 0.7,-1 1.2,-1.5 1.2,-1.2 2.1,-2.6 3,-3.9 0.3,-0.5 0.4,-1.1 0.5,-1.7 0.3,-1.5 0.4,-2.9 0.7,-4.4 0.3,-1.1 -0.5,-1.7 -1.2,-2.1 -2,-1.3 -4.3,-2.2 -6.4,-3.6 -0.4,-0.2 -0.8,-0.4 -1.2,-0.5 -0.6,-0.2 -1.2,0.1 -1.5,0.5 -1.8,2.1 -2.6,4.7 -3.1,7.4 0,0.8 0.6,0.9 1.2,0.9 0.8,-0.5 0.8,-1.3 1,-2 0.5,-1.7 0.7,-1.7 1.5,-3.3 0.2,-0.5 0.6,-0.5 1.1,0.2 0.7,1.1 1.8,0.4 2.2,1.7 0.1,0.5 0.3,0.9 0.5,1.4 -0.7,0.1 -1.4,0.6 -2.1,0.8 0.2,0.5 0.5,0.6 0.9,0.8 0.5,0.1 2,1 1.5,1.6 -0.2,0.3 -0.9,0.3 -1.2,0.4 -0.4,0.1 -0.8,0.2 -1.2,0.3 0.2,0.3 0.6,0.4 0.9,0.5 0.3,0.1 0.7,0.3 1,0.3 0.5,0.1 0.9,0 1.3,0.2 0.6,0.2 1.2,0.7 1.9,0.8 0,0.1 -0.1,0.2 -0.1,0.3 -0.1,0.4 -0.3,0.9 -0.2,1.3 0,0.7 -0.3,0.7 -0.8,0.6 -0.6,-0.2 -1.3,-0.3 -1.9,-0.6 -1.4,-0.7 -3,-1.2 -4.2,-2.2 -0.6,-0.5 -1.4,-0.3 -2.2,-0.2 -1.2,0.2 -2.4,0.5 -3.6,0.6 -1.5,0.2 -2.9,-0.5 -4.2,-1.1 -0.6,-0.2 -1,-0.6 -1.3,-1.2 -0.2,-0.4 -0.2,-0.7 0.1,-1 2.6,-2.9 4.3,-6.4 5.9,-9.9 0.3,-0.7 0.6,-1.5 1,-2.2 0.2,-0.4 0.2,-0.8 0,-1.2 -0.9,-1.4 -1.8,-2.7 -3.1,-3.8 C 54.6,98.5 54.3,98.3 54.1,98.1 54,98 53.8,98 53.7,98 53,97.6 52.1,97.3 51.5,97.8 51,98.3 51.1,99 51.1,99.6 c 0,0.4 0.2,1.6 0,1.9 -0.2,0.2 -0.8,-0.6 -0.9,-0.3 -0.3,0.6 1.8,3 1.7,3.6 -0.3,0.1 -2.7,-1.3 -2.9,-1.1 0.1,0.5 0.5,0.7 0.7,1 0.4,0.1 0.7,0.4 1,0.8 0.2,0.3 0.7,0.7 0.8,1.1 0.2,0.2 0.7,0.9 0.7,1.2 0.1,0.1 0.1,0.1 0.2,0.2 0.1,0.4 0.7,1 1.1,1.1 0,0 0,0 0,0.1 0.2,0.1 0.3,0.2 0.5,0.2 -0.1,0.2 -0.2,0.4 0,0.6 0.1,0.1 -0.1,0.2 -0.2,0.3 -0.3,0.1 -0.5,0 -0.7,-0.2 -0.6,-0.6 -1.1,-1.3 -1.6,-2.1 -0.3,-0.6 -0.8,-0.9 -1.4,-1.1 -1.8,-0.5 -3.6,-1.1 -5.3,-1.9 -0.6,-0.2 -0.7,-0.5 -0.5,-1.3 0.3,-1.1 1.2,-1.6 1.7,-2.4 1.8,-2.9 2.8,-3.3 4.1,-6.5 0.3,-0.8 0.9,-1.1 1.7,-1.1 0.2,0 0.6,0.2 0.7,-0.2 -0.7,-1.8 -1.4,-3.5 -1.7,-5.5 -0.7,0.2 -1.1,0.7 -1.2,1.4 0,0.1 0,0.3 -0.1,0.4 -0.5,0.7 -0.6,1.5 -0.7,2.3 C 48.5,92 48.2,92 47.9,92 47.7,92.7 47.8,93.5 47.8,94.3 46.8,94 46.3,94 45.7,94 c -0.3,1.2 1.5,1.8 2.5,1.5 -0.1,0.3 -0.4,0.6 -0.8,0.8 -0.1,0.1 -0.2,0.1 -0.3,0.2 -1.2,0.9 -2.1,0.8 -3.3,-0.2 -0.6,-0.5 -1.3,-0.8 -1.8,-1.4 -0.7,-0.8 -0.6,-1.8 0.2,-2.4 1.7,-1.2 3.4,-2.5 5,-4 1.3,-1.3 2.6,-2.6 3.5,-4.2 0.5,-0.8 0.5,-1.6 0.3,-2.5 -0.1,-0.2 -0.1,-0.4 -0.3,-0.4 -0.2,0 -0.3,0.1 -0.5,0.3 -0.7,1 -1.2,2.1 -1.3,3.4 -0.1,0.4 0,1 -0.5,1.1 -0.6,0.1 -1.1,-0.4 -1.2,-1 -0.1,-0.4 -0.4,-0.7 -0.6,-1 -0.5,-0.6 -0.4,-1 0.2,-1.4 0.5,-0.3 0.9,-0.7 1.3,-1.1 0.4,-0.4 0.8,-0.7 1.2,-0.9 0.7,-0.4 1.4,-1 1.7,-1.8 0.3,-0.6 1.5,-2.2 3.2,-3.9 -1.7,3 -1,7.3 -0.9,10.6 0,1.3 0.4,1.8 1.7,1.2 0.1,-0.8 0.4,-1.6 0.4,-2.4 C 54.9,84 55,82.8 55,82.2 c 0,-0.7 0.1,-1.5 0.1,-2.2 -0.5,0.1 -0.8,-0.2 -0.7,-0.7 0.1,0 0.1,0 0.2,0 0.8,-1.6 0.9,-3.4 1.9,-4.9 0.7,-1.1 1.6,-2.6 2.6,-3.6 0.4,-0.2 0.8,-0.5 1.2,-0.7 3.6,-1.9 7.3,-3.2 11.3,-4.1 2.6,-0.6 9.9,-1.6 16.7,-0.7 4.1,0.5 12.1,2.3 15.9,3.8 2.9,1.1 4.5,2.1 7.7,2.2 2.7,0.1 5.4,0.3 8,0.9 3.9,0.8 7.5,2.6 10.9,4.7 0.2,0.1 0.4,0.2 0.6,0.3 1.3,0.8 2.5,1.6 3.6,2.8 0.4,0.5 1.6,1.5 2.4,2.3 0.5,0.5 1.3,2.7 1.7,3.3 0.2,0.4 0.6,1.9 0.7,2.1 0.6,1.1 1,2.2 1.5,3.3 0.5,1.2 1.6,2 2.4,3.1 0.4,0.6 1.1,0.6 1.6,1.1 0.7,0.6 0.8,1 0.2,1.7 -0.4,0.4 -0.6,0.9 -0.8,1.3 -0.2,0.4 -0.4,0.6 -0.9,0.6 -0.4,-0.1 -0.6,-0.4 -0.6,-0.8 0,-0.5 -0.1,-1 0.3,-1.5 0.4,-0.4 0.3,-0.9 -0.1,-1.3 -0.9,-0.8 -1.5,-1.3 -2.1,-2.2 -0.2,-0.3 -0.5,-0.5 -0.9,-0.4 -0.2,0.1 -0.6,0.2 -0.5,0.4 0,0.4 -0.1,0.4 0,0.9 0.5,1.3 1.2,2.5 1.9,3.7 0,0.1 0.1,0.2 0.1,0.3 1.3,2.4 3.2,4.4 4.9,6.6 0.3,0.7 0.3,1.1 -0.5,1.7 z"
       id="path16" /></g><g
     style="display:inline"
     id="Layer_2">
	<path
   d="m 64.5,57.4 c 0,4.5 -2.6,8.2 -5.8,8.2 3.2,0 5.8,3.7 5.8,8.2 0,-4.5 2.6,-8.2 5.8,-8.2 -3.2,0 -5.8,-3.7 -5.8,-8.2 z"
   class="st3"
   id="sparkle_00000003099830088997354660000002833343681004937881_" />
	<path
   d="m 58.7,55.8 c 0,2.7 -1.5,4.9 -3.5,4.9 1.9,0 3.5,2.2 3.5,4.9 0,-2.7 1.5,-4.9 3.5,-4.9 -2,0 -3.5,-2.2 -3.5,-4.9 z"
   class="st3"
   id="sparkle_00000142175515507555666960000013313974303418452106_" />
	<path
   d="m 70.942093,55.855262 c 0,1.9 -1.2,3.5 -2.6,3.5 1.5,0 2.6,1.5 2.6,3.5 0,-1.9 1.2,-3.5 2.6,-3.5 -1.4,0 -2.6,-1.6 -2.6,-3.5 z"
   class="st3"
   id="sparkle_00000021821040328082188010000015547479114352220082_" />
	<path
   d="m 149.48154,114.31052 c 0,5 -2.4,9.1 -5.4,9.1 2.9,0 5.4,4.1 5.4,9.1 0,-5 2.4,-9.1 5.4,-9.1 -3.1,0 -5.4,-4.1 -5.4,-9.1 z"
   class="st3"
   id="sparkle_00000094620413317945553940000013653982232516652955_" />
	<path
   d="m 143.15791,126.93951 c 0,3.4 -1.9,6.3 -4.4,6.3 2.4,0 4.4,2.8 4.4,6.3 0,-3.4 1.9,-6.3 4.4,-6.3 -2.4,0 -4.4,-2.8 -4.4,-6.3 z"
   class="st3"
   id="sparkle_00000016792752226841287610000015896931371732710575_" />
	<path
   d="m 136.15791,129.73951 c 0,1.9 -1.2,3.5 -2.6,3.5 1.5,0 2.6,1.5 2.6,3.5 0,-1.9 1.2,-3.5 2.6,-3.5 -1.4,0 -2.6,-1.6 -2.6,-3.5 z"
   class="st3"
   id="sparkle_00000074416348754522713770000011424244871922890147_" />
	<path
   id="path37"
   d="m 87.947384,58.300059 c -0.3,-0.3 -0.6,-0.6 -0.8,-0.9 -0.2,-0.3 -0.3,-0.7 -0.3,-1.1 -0.1,-1 0.3,-1.9 1.2,-2.7 0.9,-0.8 1.9,-1.2 3.1,-1.3 0.6,0 1.4,0.1 2.5,0.4 l 0.2,3.2 h -0.7 c -0.1,-0.9 -0.4,-1.6 -1,-2.1 -0.5,-0.5 -1.2,-0.8 -1.9,-0.7 -0.6,0 -1.1,0.2 -1.4,0.6 -0.4,0.4 -0.5,0.8 -0.5,1.4 0,0.5 0.3,1 0.7,1.4 0.4,0.4 1.3,1.1 2.8,1.9 1.1,0.6 1.9,1.2 2.3,1.6 0.4,0.4 0.6,1 0.7,1.6 0.1,1.1 -0.4,2.1 -1.3,3 -0.9,0.9 -2,1.4 -3.3,1.5 -0.9,0.1 -1.9,-0.1 -3.1,-0.4 l -0.2,-3.7 h 0.7 c 0.1,1 0.4,1.9 1.1,2.5 0.6,0.7 1.4,1 2.2,0.9 0.8,-0.1 1.3,-0.3 1.8,-0.8 0.5,-0.5 0.6,-1 0.5,-1.7 0,-0.6 -0.3,-1.1 -0.6,-1.5 -0.4,-0.4 -1.3,-1 -2.6,-1.8 -0.8,-0.5 -1.5,-0.9 -2.1,-1.3 z"
   class="st4" />
	<path
   id="path39"
   d="m 96.147384,54.900059 4.999996,0.2 v 0.5 c -0.6,0 -1,0.1 -1.299998,0.3 -0.199998,0.2 -0.299998,0.6 -0.399998,1.2 l -0.2,3.5 6.199996,0.3 0.2,-3.5 c 0,-0.7 -0.1,-1.1 -0.3,-1.3 -0.2,-0.2 -0.6,-0.3 -1.2,-0.4 v -0.5 l 5,0.2 v 0.5 c -0.6,0 -1,0.1 -1.3,0.3 -0.2,0.2 -0.3,0.6 -0.4,1.2 l -0.4,8.9 c 0,0.7 0.1,1.1 0.3,1.3 0.2,0.2 0.6,0.3 1.2,0.4 v 0.5 l -5,-0.2 v -0.5 c 0.6,0 1,-0.1 1.2,-0.3 0.2,-0.2 0.4,-0.6 0.4,-1.3 l 0.2,-4.7 -5.999996,-0.2 -0.2,4.7 c 0,1.1 0.4,1.6 1.499996,1.7 v 0.5 l -4.999996,-0.2 v -0.5 c 0.6,0 1,-0.1 1.3,-0.3 0.2,-0.2 0.4,-0.6 0.4,-1.3 l 0.4,-8.9 c 0,-0.7 -0.1,-1.1 -0.3,-1.3 -0.2,-0.2 -0.6,-0.3 -1.2,-0.4 z"
   class="st4" />
	<path
   id="path41"
   d="m 116.24738,57.100059 c -0.6,0 -1,0.1 -1.2,0.4 -0.2,0.3 -0.3,0.6 -0.3,1.3 v 8.9 c 0,1 0.5,1.6 1.6,1.6 v 0.5 h -5 v -0.5 c 0.6,0 1,-0.1 1.2,-0.4 0.2,-0.3 0.3,-0.7 0.3,-1.3 v -8.9 c 0,-0.7 -0.1,-1.1 -0.3,-1.3 -0.2,-0.2 -0.6,-0.3 -1.2,-0.3 v -0.5 h 5 v 0.5 z"
   class="st4" />
	<path
   id="path43"
   d="m 119.04738,59.200059 3.3,0.3 6.5,10.7 0.3,-3 c 0.2,-1.9 0.2,-3.5 0,-4.7 -0.2,-1.2 -0.6,-1.8 -1.2,-2 v -0.5 l 4.5,0.4 v 0.5 c -1.3,0 -2.1,2 -2.5,6 l -0.7,6.9 h -0.5 l -7.7,-12.7 -0.4,3.8 c -0.2,2.4 -0.2,4.2 -0.1,5.4 0.2,1.2 0.6,1.8 1.3,2 v 0.5 l -4.4,-0.4 v -0.5 c 1.3,-0.1 2.1,-2.4 2.5,-6.9 l 0.3,-3.5 c 0.1,-0.6 0,-1 -0.2,-1.2 -0.2,-0.2 -0.6,-0.4 -1.1,-0.4 z"
   class="st4" />
	<path
   id="path45"
   d="m 132.64738,63.800059 h 3.7 v 0.5 c -0.3,0 -0.4,0.1 -0.4,0.3 0,0.1 0,0.1 0,0.2 l 3.2,6.4 c 1.7,-2.6 2.5,-4.5 2.5,-5.7 0,-0.4 -0.1,-0.7 -0.4,-0.9 -0.3,-0.2 -0.7,-0.3 -1.3,-0.3 v -0.5 h 4.9 v 0.5 c -0.4,0 -0.8,0.2 -1.2,0.5 -0.4,0.3 -0.8,0.9 -1.3,1.8 l -3.1,5.3 v 2.9 c 0,1 0.5,1.6 1.6,1.6 v 0.5 h -5 v -0.5 c 0.6,0 1,-0.1 1.2,-0.4 0.2,-0.2 0.3,-0.7 0.3,-1.3 v -2.9 l -2.6,-5.1 c -0.4,-0.8 -0.8,-1.4 -1.1,-1.8 -0.4,-0.4 -0.7,-0.6 -1.2,-0.6 v -0.5 z"
   class="st4" />
	<g
   id="g47">
	</g>
	<g
   id="g49">
	</g>
	<g
   id="g51">
	</g>
	<g
   id="g53">
	</g>
	<g
   id="g55">
	</g>
	<g
   id="g57">
	</g>
</g></g><g
   inkscape:groupmode="layer"
   id="g1182"
   inkscape:label="F.Cu"
   style="display:inline"><g
     style="display:inline"
     id="g1144"
     transform="translate(0.58154055,8.5105232)"><path
       id="path1130"
       d="m 71.6,108 c -1,-0.4 -2.2,-1 -3.3,-1.3 -0.7,-0.2 -1.5,-0.3 -2.2,-0.6 0.7,1 2.1,1.7 3,2.5 0.5,0.4 0.9,0.7 1.4,0.9 0.2,0.1 0.6,0.3 0.8,0.4 0.5,0.1 0.5,0.1 0.7,0.2 0.6,0.1 1.2,-0.2 1,-0.9 -0.1,-0.7 -0.9,-1 -1.4,-1.2 z"
       class="st0" /><path
       id="path1132"
       d="m 66.2,100.4 c 1.3,-0.5 2.6,-1 3.8,-1.5 1.5,-0.7 2.8,-1.4 4.2,-2.2 1.3,-0.7 2.8,-1.2 4.1,-1.9 1.4,-0.8 2.8,-1.5 4.3,-2.3 1.6,-0.8 2.9,-1.8 3,-3.7 -0.9,0.1 -1.9,1.4 -2.7,1.8 -1.1,0.6 -2.4,1.6 -3.5,2.1 -1.3,0.6 -2,0.9 -3.3,1.4 -0.6,0.2 -1.8,0.2 -2.3,0.7 -0.7,0.4 -0.9,0.2 -1.7,0.5 -0.4,0.2 -0.8,0.3 -1.2,0.3 -0.5,0.1 -1,-0.2 -1.5,-0.2 -0.8,0 -1.2,0.8 -1.6,1.4 -0.4,0.6 -1,1.1 -1.5,1.6 -0.5,0.5 -1.2,0.8 -1.6,1.5 0.4,0.2 1,0.4 1.4,0.5 0.1,-0.1 0.2,-0.1 0.1,0 z m 1.1,-0.7 -0.5,0.3 c 0.2,-0.1 0.3,-0.3 0.5,-0.3 z"
       class="st0" /><path
       id="path1134"
       d="M 58,99.3 C 57.6,98.9 57.1,98.4 56.6,98.2 56.3,98.1 56.1,98 55.8,98 c 0.2,0.7 0.7,1.2 1.1,1.8 0.3,0.4 0.8,1.4 1.2,1.4 0,0 0,0.1 0,0.1 0.2,0 0.3,-0.1 0.4,-0.3 0,-0.1 0.1,-0.3 0,-0.4 0.1,-0.5 -0.1,-0.9 -0.5,-1.3 z"
       class="st0" /><path
       id="path1136"
       d="m 117.4,115.1 c -0.3,-0.3 -1.1,0 -1.6,0.2 0,0.5 0.3,0.8 0.5,1.2 0.2,0.3 0.3,0.8 0.7,1.1 0,0 0.6,1.5 1.1,1.4 0.7,-0.1 0.1,-2.4 0,-2.7 -0.2,-0.5 -0.4,-0.9 -0.7,-1.2 z"
       class="st0" /><path
       id="path1138"
       d="m 55.2,84.3 c 0,0 0,0 0,0 0,0.1 0,0.1 0,0.1 0,-0.1 0,-0.1 0,-0.1 z"
       class="st0" /><path
       id="path1140"
       d="m 114.5,74.3 c -0.7,0 -3.1,1.6 -3.4,2.2 -1,1.5 -2.2,2.5 -3.5,3.6 -1.8,1.5 -3.7,2.7 -5.5,4.1 -0.8,0.6 -2.4,2.1 -3.4,2 1,-1.5 2.7,-2.1 3.9,-3.3 0.7,-0.7 1.2,-1.5 1.9,-2.2 0.5,-0.5 1.2,-1 1.2,-1.8 -0.6,-0.1 -1.8,0.8 -2.3,1.2 -0.7,0.4 -1.1,0.8 -1.7,1.3 -0.4,0.3 -1.8,1 -3.2,1.7 -9,7.8 -21.9,15 -29.9,18 -0.9,0.3 -0.5,0.9 0.8,1.6 0.9,-0.2 1.9,-0.4 2.7,-0.7 1,-0.5 1.8,-1.1 2.9,-1.5 1,-0.4 2.1,-0.6 3,-1.3 0.8,-0.6 1.5,-1 2.3,-1.5 0.7,-0.4 1.8,-0.8 2.3,-1.5 0.3,-0.1 0.6,-0.4 0.9,-0.6 0.3,-0.2 0.6,-0.3 0.9,-0.4 0.7,-0.4 1.3,-1.1 2,-1.6 0.6,-0.3 1.3,-0.6 1.9,-0.9 1.1,-0.6 2.7,-2.7 4.2,-2.5 -0.5,0.6 -1,1.1 -1.6,1.6 -0.5,0.4 -1.1,0.9 -1.7,1.3 -0.1,0.1 -0.4,0.3 -0.4,0.4 -1.1,0.5 -2.2,1.5 -3.2,2.3 -1.1,0.8 -2.4,2.1 -3.6,2.5 -0.5,0.6 -1.6,0.9 -2.3,1.3 -2.7,1.5 -6,2.4 -8.8,3.8 0,0.1 0,0.2 -0.1,0.3 5.2,2.3 16,5.2 19.9,6.1 5.6,1.3 23.2,0.6 35.4,-5.9 12.1,-6.5 10.8,-15.9 7.5,-21.1 -2.9,-4.8 -11.4,-8.1 -19.1,-8.5 z"
       class="st0" /><path
       id="path1142"
       d="m 148,103.3 c -0.6,-0.8 -1.2,-1.5 -1.8,-2.2 -0.3,-0.4 -0.6,-0.8 -0.9,-1.2 0.3,-0.2 0.7,-0.6 0.9,-1.1 0.2,-0.4 0.3,-0.7 0.5,-0.9 0.6,-0.6 0.8,-1.3 0.8,-2 -0.1,-1.1 -0.9,-1.9 -1.2,-2.1 -0.4,-0.3 -0.7,-0.5 -1,-0.6 -0.1,-0.1 -0.2,-0.1 -0.3,-0.2 -0.3,-0.5 -0.7,-0.9 -1.1,-1.3 -0.5,-0.5 -0.9,-1 -1.1,-1.5 -0.1,-0.2 -0.2,-0.5 -0.3,-0.7 -0.4,-0.8 -0.7,-1.7 -1.2,-2.6 0,-0.1 -0.1,-0.3 -0.2,-0.5 -0.3,-0.8 -0.4,-1.3 -0.6,-1.7 -0.1,-0.1 -0.2,-0.5 -0.4,-0.8 -0.6,-1.4 -1.1,-2.4 -1.6,-2.9 -0.3,-0.3 -0.6,-0.6 -0.9,-0.9 -0.5,-0.5 -1.2,-1.1 -1.4,-1.3 -1,-1.2 -2.3,-2 -3.5,-2.8 -0.1,-0.1 -0.3,-0.2 -0.4,-0.3 l -0.1,-0.1 -0.1,-0.1 -0.3,-0.1 -0.2,-0.1 c -4,-2.5 -7.7,-4.1 -11.3,-4.9 -2.7,-0.6 -5.5,-0.8 -8.3,-0.9 -2.3,-0.1 -3.6,-0.7 -5.6,-1.5 -0.5,-0.2 -1,-0.4 -1.5,-0.6 -3.8,-1.5 -11.9,-3.3 -16.3,-3.9 -1.8,-0.2 -3.8,-0.4 -5.8,-0.4 -4.7,0 -9.1,0.6 -11.4,1.1 -4.4,0.9 -8.2,2.3 -11.7,4.2 -5.1,2.7 -9.2,7.9 -10,9.4 -0.2,0.4 -0.6,0.8 -1,1 -0.7,0.3 -1.2,0.7 -1.7,1.2 -0.3,0.4 -0.7,0.6 -1,0.9 -0.7,0.5 -1.1,1.1 -1.3,1.8 -0.1,0.7 0.1,1.4 0.6,2.1 0.1,0.1 0.2,0.2 0.2,0.3 0,0.1 0.1,0.1 0.1,0.2 0.2,0.6 0.5,1.1 0.8,1.5 -0.1,0.1 -0.2,0.2 -0.3,0.3 -0.3,0.3 -0.7,0.6 -1,0.9 -0.2,0 -0.3,-0.1 -0.3,-0.1 -1,0.2 -2.1,0.4 -3.1,0.7 -1.8,0.5 -1.3,1.4 -0.5,2.4 -0.4,0.3 -0.6,0.6 -0.9,1 -2.8,0.4 -6,1.3 -6.2,4.5 -0.1,2.3 4.5,6.5 -0.1,7.2 -4.6,0.7 -2.1,6.3 0.4,8.6 1.7,1.5 5,2.2 8.3,2.5 2,0.1 2.7,0.3 4.2,1.7 2.8,2.5 2,4.3 0.5,6.6 -1.4,2.3 0.6,2.7 1.4,2.9 0.8,0.2 2.7,-0.5 4.5,0.1 1.9,0.6 3.2,1.9 5.2,2.4 3,0.6 7.4,1.4 10.4,1.2 0.6,1.7 -4.2,4.2 2.5,4.7 4.8,0.2 9.7,-0.1 14.4,0.4 3.5,0.3 7.8,0.7 11.6,0.1 0,0 0.1,0 0.1,0 0,0 0.1,0 0.1,0 2,-0.1 4,-0.5 5.8,-1.3 0.9,-0.4 1.4,-1.1 1.7,-2 2.6,-0.1 5.4,-0.7 8,-0.7 1.7,0 5.6,0.3 7.7,-0.9 0.1,0 0.3,0 0.4,0 0.5,0 0.9,-0.1 1.3,-0.2 1.4,-0.4 2.7,-1 3.7,-1.8 0.7,-0.5 1,-1.3 0.9,-2.1 1.3,-0.5 2.3,-1.2 3.6,-1.9 3.2,-1.6 5.9,-2.1 9.1,-4 0,0 -0.2,-0.1 -0.6,-0.2 0.1,0 0.2,0 0.3,-0.1 0.2,0 0.4,-0.1 0.6,-0.1 1.1,-0.2 2,-0.9 2.5,-1.9 0.4,-0.9 0.4,-2.1 -0.1,-3.1 -0.2,-0.4 -0.5,-0.8 -0.7,-1.1 v 0 c 0,0 0,0 0,0 l 0.4,-0.9 c 0.1,-0.3 0.2,-0.5 0.3,-0.7 0.2,-0.5 0.4,-0.9 0.5,-1.3 0,-0.1 0.1,-0.2 0.1,-0.3 0,-0.1 0.1,-0.2 0.2,-0.3 1.1,-0.1 1.9,-0.7 2.5,-1.1 0.5,-0.4 1.1,-0.9 1.7,-1.3 0.5,-0.3 1.2,-0.9 1.4,-1.8 0,-1.2 -0.6,-2.1 -0.9,-2.5 z m -1.7,2.9 c -0.6,0.4 -1.2,0.9 -1.8,1.3 -0.5,0.4 -1,0.7 -1.8,0.8 -0.8,0 -1.1,0.9 -1.4,1.5 -0.4,0.7 -0.6,1.4 -0.9,2.2 -1.9,-1.1 -2.6,-3.1 -3.4,-5 -0.1,-0.3 -0.1,-0.6 0.2,-0.8 0.3,-0.3 0.7,-0.4 1.1,-0.2 0.6,0.2 1,0.7 1.7,0.9 0.6,-0.1 1.1,0.2 1.6,0.3 0.3,0.1 0.7,-0.4 0.8,-0.7 0.1,-0.3 0.2,-0.6 -0.3,-0.8 -0.2,-0.1 -0.3,-0.1 -0.4,-0.3 -1.2,-2.7 -1.3,-5.9 -2.2,-6.1 -0.5,-0.1 -2.6,3.2 -2.9,3.6 -0.2,0.2 -0.4,0.4 -0.7,0.5 -1,0.5 -1.2,1.2 -0.8,2.3 0.5,1.1 1,2.1 1.5,3.2 1,2 2.3,3.9 3.6,5.7 0.2,0.3 0.4,0.6 0.6,0.9 0.6,1.2 0.1,2.2 -1.2,2.5 -0.9,0.2 -1.8,0.5 -2.7,0.4 -0.3,0 -0.5,-0.1 -0.7,-0.5 -0.8,-2 -2,-3.7 -3,-5.6 -1.1,-1.9 -2.8,-2.1 -4.6,-2.2 -0.7,-0.1 -1.2,0.5 -1.9,0.7 -1,0.3 -1.6,1 -2.3,1.7 -0.6,0.7 -0.8,1.6 -1.5,2.2 -0.3,0.2 -0.2,0.6 -0.2,1 -0.2,2.4 0.4,4.6 1.2,6.8 0.1,0.3 0.3,0.6 0.6,0.5 0.5,-0.2 1,-0.5 1,-1.2 0,-0.2 -0.1,-0.3 -0.1,-0.5 -0.6,-1.8 -0.7,-3.6 -0.6,-5.4 0,-0.6 0.3,-0.8 0.9,-0.9 1.3,-0.3 2.4,0.2 3.5,0.5 0.1,0.3 0.5,0.4 0.6,0.7 0.2,0.4 -0.6,0.5 -0.8,0.6 0,0.1 0,0.1 0,0.2 0,0 0,0.1 0,0.1 0.5,0 0.9,0 1.3,-0.1 0.5,-0.1 2.1,-0.3 1.4,0.7 -0.2,0.3 -0.5,0.6 -0.8,0.9 -0.2,0.3 -0.4,0.6 -0.7,0.9 0.3,-0.1 0.6,-0.3 0.9,-0.4 0.5,-0.3 1.1,-0.4 1.6,-0.5 0.5,-0.1 1,-0.1 1.5,0 0.2,0.9 0,1.1 -1.2,1.4 -2.6,0.6 -4.6,2.2 -6.6,3.8 -0.7,0.6 -1.5,1.3 -1,2.4 0.1,0.3 0,0.6 -0.3,0.7 -0.9,0.7 -2,1.2 -3.1,1.5 -1.4,0.4 -2.5,-0.3 -3.6,-0.7 -0.6,-0.3 -0.4,-0.9 -0.5,-1.3 0,-0.3 0,-0.6 0.1,-1 0,-1.3 -0.1,-2.6 -0.3,-4 -0.2,-1.1 -0.5,-2 -1.1,-2.9 -0.4,-0.6 -0.7,-1.2 -1.1,-1.9 -0.5,-0.8 -1.3,-1.4 -2.4,-1.4 -1,0 -2,0.2 -3,0.1 -2,-0.1 -3.9,0.4 -5.7,1.2 -0.2,0.1 -0.4,0.2 -0.8,0.1 -0.8,-0.3 -1.6,0.1 -1.9,0.9 -0.6,1.4 -0.6,2.9 -0.7,4.4 -0.1,1.7 -0.1,3.4 0.1,5.1 0.1,0.6 0.4,0.9 1,0.8 0.6,-0.1 0.6,-0.5 0.7,-1.1 0.3,-2.4 -0.5,-4.9 0.4,-7.4 0.2,-0.7 0.5,-1.3 0.9,-1.8 0.4,-0.4 1.2,-0.3 1.8,0 0.4,0.2 0.8,0.4 1.1,0.7 0.8,0.6 1.5,1.1 2.3,1.6 -0.6,0.1 -1.2,0.4 -1.7,0.9 -0.9,0.5 -0.6,0.6 0.3,0.7 0.6,0.1 3.8,-0.1 3.3,1 -0.2,0.5 -1.1,0.5 -1.4,0.7 -0.4,0.3 -0.7,0.8 -1.2,1 1.1,0 2.2,-0.1 3.3,-0.1 0.6,0 1.2,0 1.7,0.2 0.3,0.1 0.7,0.3 1,0.5 0.2,0.2 0.3,0.4 0.5,0.6 0.2,0.2 0.2,0.5 0.2,0.8 -3,-0.7 -5.9,0.2 -8.9,0.5 -0.9,0.1 -1.8,0.5 -2.6,0.8 -0.8,0.4 -1.2,0.9 -0.8,1.7 0.3,0.7 0.5,1.3 0.4,2.1 -0.1,0.5 -0.3,0.8 -0.7,0.9 -1.7,0.7 -3.4,1.1 -5.2,1.2 -0.2,0 -0.5,0 -0.7,-0.1 -1,-0.3 -2,-0.6 -3,-0.9 -0.6,-0.2 -0.9,-0.5 -0.8,-1.2 0.2,-1.2 0.4,-2.3 0.3,-3.5 -0.3,-2.3 0,-4.7 -0.1,-7 -0.1,-1.3 -0.7,-2.4 -1.5,-3.4 -0.3,-0.2 -0.6,-0.4 -0.8,-0.7 -1.2,-1.1 -2.7,-1.4 -4.3,-1.7 -1.6,-0.3 -3.2,-0.3 -4.8,-0.2 -1,0.1 -1.8,0.5 -2.4,1.3 -1.8,2.5 -2.7,5.4 -2.8,8.5 0,0.3 -0.1,0.6 -0.1,0.9 -0.1,0.7 0.2,1.1 0.9,1 0,0 0,0 0.1,0 0.6,0 0.9,-0.3 0.8,-0.5 -0.1,-0.2 -0.2,-0.4 -0.2,-0.6 0.3,-2.4 0.7,-4.9 2,-7.1 0.4,-0.7 0.5,-1.4 1.1,-2 0.3,-0.3 0.5,-0.3 0.8,-0.1 0.6,0.7 1.5,1.1 2,1.9 0.4,0.6 0.9,1 1.4,1.5 0.1,0.1 0.1,0.1 0.2,0.2 -0.6,0.1 -1.3,0.1 -2,0 0,0.9 1,2 1.5,2.8 0.5,0.7 2.3,0.8 2.5,1.9 -0.5,0 -2.3,-0.9 -3.4,0.2 1.1,0.4 4.9,0.8 7,3 0,0.4 0,0.8 0,1.1 0,0.2 0,0.4 -0.3,0.2 -1,-0.8 -2.1,-1.6 -3.2,-2.2 -1,-0.4 -2.1,-0.5 -3.1,-0.6 -1.3,-0.1 -2.5,-0.2 -3.8,-0.1 -0.4,0 -0.9,0 -1.3,0.2 -0.3,0.1 -0.6,0.1 -0.8,-0.1 -0.3,0.1 -0.4,0.2 -0.6,0.5 0,0.1 0,0.2 0,0.4 0,0.1 0,0.1 0,0.2 -0.1,1.2 -0.1,1.2 -1.2,1 -0.9,-0.2 -1.7,0.2 -2.6,0.3 -0.6,0.1 -1.1,0.2 -1.7,0.3 -1.4,0.2 -2.6,-0.2 -3.6,-1.2 -0.6,-0.6 -1.1,-1.2 -1.8,-1.7 -0.4,-0.4 -0.5,-0.8 -0.2,-1.3 0.4,-0.5 0.7,-1 1.2,-1.5 1.2,-1.2 2.1,-2.6 3,-3.9 0.3,-0.5 0.4,-1.1 0.5,-1.7 0.3,-1.5 0.4,-2.9 0.7,-4.4 0.3,-1.1 -0.5,-1.7 -1.2,-2.1 -2,-1.3 -4.3,-2.2 -6.4,-3.6 -0.4,-0.2 -0.8,-0.4 -1.2,-0.5 -0.6,-0.2 -1.2,0.1 -1.5,0.5 -1.8,2.1 -2.6,4.7 -3.1,7.4 0,0.8 0.6,0.9 1.2,0.9 0.8,-0.5 0.8,-1.3 1,-2 0.5,-1.7 0.7,-1.7 1.5,-3.3 0.2,-0.5 0.6,-0.5 1.1,0.2 0.7,1.1 1.8,0.4 2.2,1.7 0.1,0.5 0.3,0.9 0.5,1.4 -0.7,0.1 -1.4,0.6 -2.1,0.8 0.2,0.5 0.5,0.6 0.9,0.8 0.5,0.1 2,1 1.5,1.6 -0.2,0.3 -0.9,0.3 -1.2,0.4 -0.4,0.1 -0.8,0.2 -1.2,0.3 0.2,0.3 0.6,0.4 0.9,0.5 0.3,0.1 0.7,0.3 1,0.3 0.5,0.1 0.9,0 1.3,0.2 0.6,0.2 1.2,0.7 1.9,0.8 0,0.1 -0.1,0.2 -0.1,0.3 -0.1,0.4 -0.3,0.9 -0.2,1.3 0,0.7 -0.3,0.7 -0.8,0.6 -0.6,-0.2 -1.3,-0.3 -1.9,-0.6 -1.4,-0.7 -3,-1.2 -4.2,-2.2 -0.6,-0.5 -1.4,-0.3 -2.2,-0.2 -1.2,0.2 -2.4,0.5 -3.6,0.6 -1.5,0.2 -2.9,-0.5 -4.2,-1.1 -0.6,-0.2 -1,-0.6 -1.3,-1.2 -0.2,-0.4 -0.2,-0.7 0.1,-1 2.6,-2.9 4.3,-6.4 5.9,-9.9 0.3,-0.7 0.6,-1.5 1,-2.2 0.2,-0.4 0.2,-0.8 0,-1.2 -0.9,-1.4 -1.8,-2.7 -3.1,-3.8 C 54.6,98.5 54.3,98.3 54.1,98.1 54,98 53.8,98 53.7,98 53,97.6 52.1,97.3 51.5,97.8 51,98.3 51.1,99 51.1,99.6 c 0,0.4 0.2,1.6 0,1.9 -0.2,0.2 -0.8,-0.6 -0.9,-0.3 -0.3,0.6 1.8,3 1.7,3.6 -0.3,0.1 -2.7,-1.3 -2.9,-1.1 0.1,0.5 0.5,0.7 0.7,1 0.4,0.1 0.7,0.4 1,0.8 0.2,0.3 0.7,0.7 0.8,1.1 0.2,0.2 0.7,0.9 0.7,1.2 0.1,0.1 0.1,0.1 0.2,0.2 0.1,0.4 0.7,1 1.1,1.1 0,0 0,0 0,0.1 0.2,0.1 0.3,0.2 0.5,0.2 -0.1,0.2 -0.2,0.4 0,0.6 0.1,0.1 -0.1,0.2 -0.2,0.3 -0.3,0.1 -0.5,0 -0.7,-0.2 -0.6,-0.6 -1.1,-1.3 -1.6,-2.1 -0.3,-0.6 -0.8,-0.9 -1.4,-1.1 -1.8,-0.5 -3.6,-1.1 -5.3,-1.9 -0.6,-0.2 -0.7,-0.5 -0.5,-1.3 0.3,-1.1 1.2,-1.6 1.7,-2.4 1.8,-2.9 2.8,-3.3 4.1,-6.5 0.3,-0.8 0.9,-1.1 1.7,-1.1 0.2,0 0.6,0.2 0.7,-0.2 -0.7,-1.8 -1.4,-3.5 -1.7,-5.5 -0.7,0.2 -1.1,0.7 -1.2,1.4 0,0.1 0,0.3 -0.1,0.4 -0.5,0.7 -0.6,1.5 -0.7,2.3 C 48.5,92 48.2,92 47.9,92 47.7,92.7 47.8,93.5 47.8,94.3 46.8,94 46.3,94 45.7,94 c -0.3,1.2 1.5,1.8 2.5,1.5 -0.1,0.3 -0.4,0.6 -0.8,0.8 -0.1,0.1 -0.2,0.1 -0.3,0.2 -1.2,0.9 -2.1,0.8 -3.3,-0.2 -0.6,-0.5 -1.3,-0.8 -1.8,-1.4 -0.7,-0.8 -0.6,-1.8 0.2,-2.4 1.7,-1.2 3.4,-2.5 5,-4 1.3,-1.3 2.6,-2.6 3.5,-4.2 0.5,-0.8 0.5,-1.6 0.3,-2.5 -0.1,-0.2 -0.1,-0.4 -0.3,-0.4 -0.2,0 -0.3,0.1 -0.5,0.3 -0.7,1 -1.2,2.1 -1.3,3.4 -0.1,0.4 0,1 -0.5,1.1 -0.6,0.1 -1.1,-0.4 -1.2,-1 -0.1,-0.4 -0.4,-0.7 -0.6,-1 -0.5,-0.6 -0.4,-1 0.2,-1.4 0.5,-0.3 0.9,-0.7 1.3,-1.1 0.4,-0.4 0.8,-0.7 1.2,-0.9 0.7,-0.4 1.4,-1 1.7,-1.8 0.3,-0.6 1.5,-2.2 3.2,-3.9 -1.7,3 -1,7.3 -0.9,10.6 0,1.3 0.4,1.8 1.7,1.2 0.1,-0.8 0.4,-1.6 0.4,-2.4 C 54.9,84 55,82.8 55,82.2 c 0,-0.7 0.1,-1.5 0.1,-2.2 -0.5,0.1 -0.8,-0.2 -0.7,-0.7 0.1,0 0.1,0 0.2,0 0.8,-1.6 0.9,-3.4 1.9,-4.9 0.7,-1.1 1.6,-2.6 2.6,-3.6 0.4,-0.2 0.8,-0.5 1.2,-0.7 3.6,-1.9 7.3,-3.2 11.3,-4.1 2.6,-0.6 9.9,-1.6 16.7,-0.7 4.1,0.5 12.1,2.3 15.9,3.8 2.9,1.1 4.5,2.1 7.7,2.2 2.7,0.1 5.4,0.3 8,0.9 3.9,0.8 7.5,2.6 10.9,4.7 0.2,0.1 0.4,0.2 0.6,0.3 1.3,0.8 2.5,1.6 3.6,2.8 0.4,0.5 1.6,1.5 2.4,2.3 0.5,0.5 1.3,2.7 1.7,3.3 0.2,0.4 0.6,1.9 0.7,2.1 0.6,1.1 1,2.2 1.5,3.3 0.5,1.2 1.6,2 2.4,3.1 0.4,0.6 1.1,0.6 1.6,1.1 0.7,0.6 0.8,1 0.2,1.7 -0.4,0.4 -0.6,0.9 -0.8,1.3 -0.2,0.4 -0.4,0.6 -0.9,0.6 -0.4,-0.1 -0.6,-0.4 -0.6,-0.8 0,-0.5 -0.1,-1 0.3,-1.5 0.4,-0.4 0.3,-0.9 -0.1,-1.3 -0.9,-0.8 -1.5,-1.3 -2.1,-2.2 -0.2,-0.3 -0.5,-0.5 -0.9,-0.4 -0.2,0.1 -0.6,0.2 -0.5,0.4 0,0.4 -0.1,0.4 0,0.9 0.5,1.3 1.2,2.5 1.9,3.7 0,0.1 0.1,0.2 0.1,0.3 1.3,2.4 3.2,4.4 4.9,6.6 0.3,0.7 0.3,1.1 -0.5,1.7 z"
       class="st0" /></g><g
     id="g1180"
     style="display:inline">
	<path
   id="path1146"
   class="st3"
   d="m 64.5,57.4 c 0,4.5 -2.6,8.2 -5.8,8.2 3.2,0 5.8,3.7 5.8,8.2 0,-4.5 2.6,-8.2 5.8,-8.2 -3.2,0 -5.8,-3.7 -5.8,-8.2 z" />
	<path
   id="path1148"
   class="st3"
   d="m 58.7,55.8 c 0,2.7 -1.5,4.9 -3.5,4.9 1.9,0 3.5,2.2 3.5,4.9 0,-2.7 1.5,-4.9 3.5,-4.9 -2,0 -3.5,-2.2 -3.5,-4.9 z" />
	<path
   id="path1150"
   class="st3"
   d="m 70.942093,55.855262 c 0,1.9 -1.2,3.5 -2.6,3.5 1.5,0 2.6,1.5 2.6,3.5 0,-1.9 1.2,-3.5 2.6,-3.5 -1.4,0 -2.6,-1.6 -2.6,-3.5 z" />
	<path
   id="path1152"
   class="st3"
   d="m 149.48154,114.31052 c 0,5 -2.4,9.1 -5.4,9.1 2.9,0 5.4,4.1 5.4,9.1 0,-5 2.4,-9.1 5.4,-9.1 -3.1,0 -5.4,-4.1 -5.4,-9.1 z" />
	<path
   id="path1154"
   class="st3"
   d="m 143.15791,126.93951 c 0,3.4 -1.9,6.3 -4.4,6.3 2.4,0 4.4,2.8 4.4,6.3 0,-3.4 1.9,-6.3 4.4,-6.3 -2.4,0 -4.4,-2.8 -4.4,-6.3 z" />
	<path
   id="path1156"
   class="st3"
   d="m 136.15791,129.73951 c 0,1.9 -1.2,3.5 -2.6,3.5 1.5,0 2.6,1.5 2.6,3.5 0,-1.9 1.2,-3.5 2.6,-3.5 -1.4,0 -2.6,-1.6 -2.6,-3.5 z" />
	<path
   class="st4"
   d="m 87.947384,58.300059 c -0.3,-0.3 -0.6,-0.6 -0.8,-0.9 -0.2,-0.3 -0.3,-0.7 -0.3,-1.1 -0.1,-1 0.3,-1.9 1.2,-2.7 0.9,-0.8 1.9,-1.2 3.1,-1.3 0.6,0 1.4,0.1 2.5,0.4 l 0.2,3.2 h -0.7 c -0.1,-0.9 -0.4,-1.6 -1,-2.1 -0.5,-0.5 -1.2,-0.8 -1.9,-0.7 -0.6,0 -1.1,0.2 -1.4,0.6 -0.4,0.4 -0.5,0.8 -0.5,1.4 0,0.5 0.3,1 0.7,1.4 0.4,0.4 1.3,1.1 2.8,1.9 1.1,0.6 1.9,1.2 2.3,1.6 0.4,0.4 0.6,1 0.7,1.6 0.1,1.1 -0.4,2.1 -1.3,3 -0.9,0.9 -2,1.4 -3.3,1.5 -0.9,0.1 -1.9,-0.1 -3.1,-0.4 l -0.2,-3.7 h 0.7 c 0.1,1 0.4,1.9 1.1,2.5 0.6,0.7 1.4,1 2.2,0.9 0.8,-0.1 1.3,-0.3 1.8,-0.8 0.5,-0.5 0.6,-1 0.5,-1.7 0,-0.6 -0.3,-1.1 -0.6,-1.5 -0.4,-0.4 -1.3,-1 -2.6,-1.8 -0.8,-0.5 -1.5,-0.9 -2.1,-1.3 z"
   id="path1158" />
	<path
   class="st4"
   d="m 96.147384,54.900059 4.999996,0.2 v 0.5 c -0.6,0 -1,0.1 -1.299998,0.3 -0.199998,0.2 -0.299998,0.6 -0.399998,1.2 l -0.2,3.5 6.199996,0.3 0.2,-3.5 c 0,-0.7 -0.1,-1.1 -0.3,-1.3 -0.2,-0.2 -0.6,-0.3 -1.2,-0.4 v -0.5 l 5,0.2 v 0.5 c -0.6,0 -1,0.1 -1.3,0.3 -0.2,0.2 -0.3,0.6 -0.4,1.2 l -0.4,8.9 c 0,0.7 0.1,1.1 0.3,1.3 0.2,0.2 0.6,0.3 1.2,0.4 v 0.5 l -5,-0.2 v -0.5 c 0.6,0 1,-0.1 1.2,-0.3 0.2,-0.2 0.4,-0.6 0.4,-1.3 l 0.2,-4.7 -5.999996,-0.2 -0.2,4.7 c 0,1.1 0.4,1.6 1.499996,1.7 v 0.5 l -4.999996,-0.2 v -0.5 c 0.6,0 1,-0.1 1.3,-0.3 0.2,-0.2 0.4,-0.6 0.4,-1.3 l 0.4,-8.9 c 0,-0.7 -0.1,-1.1 -0.3,-1.3 -0.2,-0.2 -0.6,-0.3 -1.2,-0.4 z"
   id="path1160" />
	<path
   class="st4"
   d="m 116.24738,57.100059 c -0.6,0 -1,0.1 -1.2,0.4 -0.2,0.3 -0.3,0.6 -0.3,1.3 v 8.9 c 0,1 0.5,1.6 1.6,1.6 v 0.5 h -5 v -0.5 c 0.6,0 1,-0.1 1.2,-0.4 0.2,-0.3 0.3,-0.7 0.3,-1.3 v -8.9 c 0,-0.7 -0.1,-1.1 -0.3,-1.3 -0.2,-0.2 -0.6,-0.3 -1.2,-0.3 v -0.5 h 5 v 0.5 z"
   id="path1162" />
	<path
   class="st4"
   d="m 119.04738,59.200059 3.3,0.3 6.5,10.7 0.3,-3 c 0.2,-1.9 0.2,-3.5 0,-4.7 -0.2,-1.2 -0.6,-1.8 -1.2,-2 v -0.5 l 4.5,0.4 v 0.5 c -1.3,0 -2.1,2 -2.5,6 l -0.7,6.9 h -0.5 l -7.7,-12.7 -0.4,3.8 c -0.2,2.4 -0.2,4.2 -0.1,5.4 0.2,1.2 0.6,1.8 1.3,2 v 0.5 l -4.4,-0.4 v -0.5 c 1.3,-0.1 2.1,-2.4 2.5,-6.9 l 0.3,-3.5 c 0.1,-0.6 0,-1 -0.2,-1.2 -0.2,-0.2 -0.6,-0.4 -1.1,-0.4 z"
   id="path1164" />
	<path
   class="st4"
   d="m 132.64738,63.800059 h 3.7 v 0.5 c -0.3,0 -0.4,0.1 -0.4,0.3 0,0.1 0,0.1 0,0.2 l 3.2,6.4 c 1.7,-2.6 2.5,-4.5 2.5,-5.7 0,-0.4 -0.1,-0.7 -0.4,-0.9 -0.3,-0.2 -0.7,-0.3 -1.3,-0.3 v -0.5 h 4.9 v 0.5 c -0.4,0 -0.8,0.2 -1.2,0.5 -0.4,0.3 -0.8,0.9 -1.3,1.8 l -3.1,5.3 v 2.9 c 0,1 0.5,1.6 1.6,1.6 v 0.5 h -5 v -0.5 c 0.6,0 1,-0.1 1.2,-0.4 0.2,-0.2 0.3,-0.7 0.3,-1.3 v -2.9 l -2.6,-5.1 c -0.4,-0.8 -0.8,-1.4 -1.1,-1.8 -0.4,-0.4 -0.7,-0.6 -1.2,-0.6 v -0.5 z"
   id="path1166" />
	<g
   id="g1168">
	</g>
	<g
   id="g1170">
	</g>
	<g
   id="g1172">
	</g>
	<g
   id="g1174">
	</g>
	<g
   id="g1176">
	</g>
	<g
   id="g1178">
	</g>
</g></g><g
   inkscape:label="Edge.Cuts"
   id="layer3"
   inkscape:groupmode="layer"><circle
     id="circle28"
     r="73"
     cy="99.199997"
     cx="94.199997"
     class="st2" /></g></svg>
