<?xml version="1.0" encoding="UTF-8" standalone="no"?>
<svg
   xmlns:dc="http://purl.org/dc/elements/1.1/"
   xmlns:cc="http://creativecommons.org/ns#"
   xmlns:rdf="http://www.w3.org/1999/02/22-rdf-syntax-ns#"
   xmlns:svg="http://www.w3.org/2000/svg"
   xmlns="http://www.w3.org/2000/svg"
   xmlns:sodipodi="http://sodipodi.sourceforge.net/DTD/sodipodi-0.dtd"
   xmlns:inkscape="http://www.inkscape.org/namespaces/inkscape"
   inkscape:version="1.0 (4035a4fb49, 2020-05-01)"
   sodipodi:docname="trinket-bottlecap.svg"
   id="svg52"
   xml:space="preserve"
   style="enable-background:new 0 0 595.3 841.9;"
   viewBox="0 0 595.3 841.9"
   y="0px"
   x="0px"
   version="1.1"><metadata
   id="metadata58"><rdf:RDF><cc:Work
       rdf:about=""><dc:format>image/svg+xml</dc:format><dc:type
         rdf:resource="http://purl.org/dc/dcmitype/StillImage" /></cc:Work></rdf:RDF></metadata><defs
   id="defs56" /><sodipodi:namedview
   inkscape:current-layer="Layer_1"
   inkscape:window-maximized="0"
   inkscape:window-y="70"
   inkscape:window-x="429"
   inkscape:cy="106.4123"
   inkscape:cx="58.035704"
   inkscape:zoom="4.0859958"
   showgrid="false"
   id="namedview54"
   inkscape:window-height="892"
   inkscape:window-width="1321"
   inkscape:pageshadow="2"
   inkscape:pageopacity="0"
   guidetolerance="10"
   gridtolerance="10"
   objecttolerance="10"
   borderopacity="1"
   bordercolor="#666666"
   pagecolor="#ffffff" />
<style
   id="style2"
   type="text/css">
	.st0{fill:#3E4E53;}
	.st1{fill:none;stroke:#000000;stroke-miterlimit:10;}
	.st2{fill:#FCE828;}
	.st3{fill:#F7941D;}
</style>
<g
   style="display:inline"
   id="Layer_1">
	<g
   style="display:inline"
   id="g18">
		<path
   id="path4"
   d="m 71.6,108 c -1,-0.4 -2.2,-1 -3.3,-1.3 -0.7,-0.2 -1.5,-0.3 -2.2,-0.6 0.7,1 2.1,1.7 3,2.5 0.5,0.4 0.9,0.7 1.4,0.9 0.2,0.1 0.6,0.3 0.8,0.4 0.5,0.1 0.5,0.1 0.7,0.2 0.6,0.1 1.2,-0.2 1,-0.9 -0.1,-0.7 -0.9,-1 -1.4,-1.2 z"
   class="st0" />
		<path
   id="path6"
   d="m 66.2,100.4 c 1.3,-0.5 2.6,-1 3.8,-1.5 1.5,-0.7 2.8,-1.4 4.2,-2.2 1.3,-0.7 2.8,-1.2 4.1,-1.9 1.4,-0.8 2.8,-1.5 4.3,-2.3 1.6,-0.8 2.9,-1.8 3,-3.7 -0.9,0.1 -1.9,1.4 -2.7,1.8 -1.1,0.6 -2.4,1.6 -3.5,2.1 -1.3,0.6 -2,0.9 -3.3,1.4 -0.6,0.2 -1.8,0.2 -2.3,0.7 -0.7,0.4 -0.9,0.2 -1.7,0.5 -0.4,0.2 -0.8,0.3 -1.2,0.3 -0.5,0.1 -1,-0.2 -1.5,-0.2 -0.8,0 -1.2,0.8 -1.6,1.4 -0.4,0.6 -1,1.1 -1.5,1.6 -0.5,0.5 -1.2,0.8 -1.6,1.5 0.4,0.2 1,0.4 1.4,0.5 0.1,-0.1 0.2,-0.1 0.1,0 z m 1.1,-0.7 -0.5,0.3 c 0.2,-0.1 0.3,-0.3 0.5,-0.3 z"
   class="st0" />
		<path
   id="path8"
   d="M 58,99.3 C 57.6,98.9 57.1,98.4 56.6,98.2 56.3,98.1 56.1,98 55.8,98 c 0.2,0.7 0.7,1.2 1.1,1.8 0.3,0.4 0.8,1.4 1.2,1.4 0,0 0,0.1 0,0.1 0.2,0 0.3,-0.1 0.4,-0.3 0,-0.1 0.1,-0.3 0,-0.4 0.1,-0.5 -0.1,-0.9 -0.5,-1.3 z"
   class="st0" />
		<path
   id="path10"
   d="m 117.4,115.1 c -0.3,-0.3 -1.1,0 -1.6,0.2 0,0.5 0.3,0.8 0.5,1.2 0.2,0.3 0.3,0.8 0.7,1.1 0,0 0.6,1.5 1.1,1.4 0.7,-0.1 0.1,-2.4 0,-2.7 -0.2,-0.5 -0.4,-0.9 -0.7,-1.2 z"
   class="st0" />
		<path
   id="path12"
   d="m 55.2,84.3 c 0,0 0,0 0,0 0,0.1 0,0.1 0,0.1 0,-0.1 0,-0.1 0,-0.1 z"
   class="st0" />
		<path
   id="path14"
   d="m 114.5,74.3 c -0.7,0 -3.1,1.6 -3.4,2.2 -1,1.5 -2.2,2.5 -3.5,3.6 -1.8,1.5 -3.7,2.7 -5.5,4.1 -0.8,0.6 -2.4,2.1 -3.4,2 1,-1.5 2.7,-2.1 3.9,-3.3 0.7,-0.7 1.2,-1.5 1.9,-2.2 0.5,-0.5 1.2,-1 1.2,-1.8 -0.6,-0.1 -1.8,0.8 -2.3,1.2 -0.7,0.4 -1.1,0.8 -1.7,1.3 -0.4,0.3 -1.8,1 -3.2,1.7 -9,7.8 -21.9,15 -29.9,18 -0.9,0.3 -0.5,0.9 0.8,1.6 0.9,-0.2 1.9,-0.4 2.7,-0.7 1,-0.5 1.8,-1.1 2.9,-1.5 1,-0.4 2.1,-0.6 3,-1.3 0.8,-0.6 1.5,-1 2.3,-1.5 0.7,-0.4 1.8,-0.8 2.3,-1.5 0.3,-0.1 0.6,-0.4 0.9,-0.6 0.3,-0.2 0.6,-0.3 0.9,-0.4 0.7,-0.4 1.3,-1.1 2,-1.6 0.6,-0.3 1.3,-0.6 1.9,-0.9 1.1,-0.6 2.7,-2.7 4.2,-2.5 -0.5,0.6 -1,1.1 -1.6,1.6 -0.5,0.4 -1.1,0.9 -1.7,1.3 -0.1,0.1 -0.4,0.3 -0.4,0.4 -1.1,0.5 -2.2,1.5 -3.2,2.3 -1.1,0.8 -2.4,2.1 -3.6,2.5 -0.5,0.6 -1.6,0.9 -2.3,1.3 -2.7,1.5 -6,2.4 -8.8,3.8 0,0.1 0,0.2 -0.1,0.3 5.2,2.3 16,5.2 19.9,6.1 5.6,1.3 23.2,0.6 35.4,-5.9 12.1,-6.5 10.8,-15.9 7.5,-21.1 -2.9,-4.8 -11.4,-8.1 -19.1,-8.5 z"
   class="st0" />
		<path
   id="path16"
   d="m 148,103.3 c -0.6,-0.8 -1.2,-1.5 -1.8,-2.2 -0.3,-0.4 -0.6,-0.8 -0.9,-1.2 0.3,-0.2 0.7,-0.6 0.9,-1.1 0.2,-0.4 0.3,-0.7 0.5,-0.9 0.6,-0.6 0.8,-1.3 0.8,-2 -0.1,-1.1 -0.9,-1.9 -1.2,-2.1 -0.4,-0.3 -0.7,-0.5 -1,-0.6 -0.1,-0.1 -0.2,-0.1 -0.3,-0.2 -0.3,-0.5 -0.7,-0.9 -1.1,-1.3 -0.5,-0.5 -0.9,-1 -1.1,-1.5 -0.1,-0.2 -0.2,-0.5 -0.3,-0.7 -0.4,-0.8 -0.7,-1.7 -1.2,-2.6 0,-0.1 -0.1,-0.3 -0.2,-0.5 -0.3,-0.8 -0.4,-1.3 -0.6,-1.7 -0.1,-0.1 -0.2,-0.5 -0.4,-0.8 -0.6,-1.4 -1.1,-2.4 -1.6,-2.9 -0.3,-0.3 -0.6,-0.6 -0.9,-0.9 -0.5,-0.5 -1.2,-1.1 -1.4,-1.3 -1,-1.2 -2.3,-2 -3.5,-2.8 -0.1,-0.1 -0.3,-0.2 -0.4,-0.3 l -0.1,-0.1 -0.1,-0.1 -0.3,-0.1 -0.2,-0.1 c -4,-2.5 -7.7,-4.1 -11.3,-4.9 -2.7,-0.6 -5.5,-0.8 -8.3,-0.9 -2.3,-0.1 -3.6,-0.7 -5.6,-1.5 -0.5,-0.2 -1,-0.4 -1.5,-0.6 -3.8,-1.5 -11.9,-3.3 -16.3,-3.9 -1.8,-0.2 -3.8,-0.4 -5.8,-0.4 -4.7,0 -9.1,0.6 -11.4,1.1 -4.4,0.9 -8.2,2.3 -11.7,4.2 -5.1,2.7 -9.2,7.9 -10,9.4 -0.2,0.4 -0.6,0.8 -1,1 -0.7,0.3 -1.2,0.7 -1.7,1.2 -0.3,0.4 -0.7,0.6 -1,0.9 -0.7,0.5 -1.1,1.1 -1.3,1.8 -0.1,0.7 0.1,1.4 0.6,2.1 0.1,0.1 0.2,0.2 0.2,0.3 0,0.1 0.1,0.1 0.1,0.2 0.2,0.6 0.5,1.1 0.8,1.5 -0.1,0.1 -0.2,0.2 -0.3,0.3 -0.3,0.3 -0.7,0.6 -1,0.9 -0.2,0 -0.3,-0.1 -0.3,-0.1 -1,0.2 -2.1,0.4 -3.1,0.7 -1.8,0.5 -1.3,1.4 -0.5,2.4 -0.4,0.3 -0.6,0.6 -0.9,1 -2.8,0.4 -6,1.3 -6.2,4.5 -0.1,2.3 4.5,6.5 -0.1,7.2 -4.6,0.7 -2.1,6.3 0.4,8.6 1.7,1.5 5,2.2 8.3,2.5 2,0.1 2.7,0.3 4.2,1.7 2.8,2.5 2,4.3 0.5,6.6 -1.4,2.3 0.6,2.7 1.4,2.9 0.8,0.2 2.7,-0.5 4.5,0.1 1.9,0.6 3.2,1.9 5.2,2.4 3,0.6 7.4,1.4 10.4,1.2 0.6,1.7 -4.2,4.2 2.5,4.7 4.8,0.2 9.7,-0.1 14.4,0.4 3.5,0.3 7.8,0.7 11.6,0.1 0,0 0.1,0 0.1,0 0,0 0.1,0 0.1,0 2,-0.1 4,-0.5 5.8,-1.3 0.9,-0.4 1.4,-1.1 1.7,-2 2.6,-0.1 5.4,-0.7 8,-0.7 1.7,0 5.6,0.3 7.7,-0.9 0.1,0 0.3,0 0.4,0 0.5,0 0.9,-0.1 1.3,-0.2 1.4,-0.4 2.7,-1 3.7,-1.8 0.7,-0.5 1,-1.3 0.9,-2.1 1.3,-0.5 2.3,-1.2 3.6,-1.9 3.2,-1.6 5.9,-2.1 9.1,-4 0,0 -0.2,-0.1 -0.6,-0.2 0.1,0 0.2,0 0.3,-0.1 0.2,0 0.4,-0.1 0.6,-0.1 1.1,-0.2 2,-0.9 2.5,-1.9 0.4,-0.9 0.4,-2.1 -0.1,-3.1 -0.2,-0.4 -0.5,-0.8 -0.7,-1.1 v 0 c 0,0 0,0 0,0 l 0.4,-0.9 c 0.1,-0.3 0.2,-0.5 0.3,-0.7 0.2,-0.5 0.4,-0.9 0.5,-1.3 0,-0.1 0.1,-0.2 0.1,-0.3 0,-0.1 0.1,-0.2 0.2,-0.3 1.1,-0.1 1.9,-0.7 2.5,-1.1 0.5,-0.4 1.1,-0.9 1.7,-1.3 0.5,-0.3 1.2,-0.9 1.4,-1.8 0,-1.2 -0.6,-2.1 -0.9,-2.5 z m -1.7,2.9 c -0.6,0.4 -1.2,0.9 -1.8,1.3 -0.5,0.4 -1,0.7 -1.8,0.8 -0.8,0 -1.1,0.9 -1.4,1.5 -0.4,0.7 -0.6,1.4 -0.9,2.2 -1.9,-1.1 -2.6,-3.1 -3.4,-5 -0.1,-0.3 -0.1,-0.6 0.2,-0.8 0.3,-0.3 0.7,-0.4 1.1,-0.2 0.6,0.2 1,0.7 1.7,0.9 0.6,-0.1 1.1,0.2 1.6,0.3 0.3,0.1 0.7,-0.4 0.8,-0.7 0.1,-0.3 0.2,-0.6 -0.3,-0.8 -0.2,-0.1 -0.3,-0.1 -0.4,-0.3 -1.2,-2.7 -1.3,-5.9 -2.2,-6.1 -0.5,-0.1 -2.6,3.2 -2.9,3.6 -0.2,0.2 -0.4,0.4 -0.7,0.5 -1,0.5 -1.2,1.2 -0.8,2.3 0.5,1.1 1,2.1 1.5,3.2 1,2 2.3,3.9 3.6,5.7 0.2,0.3 0.4,0.6 0.6,0.9 0.6,1.2 0.1,2.2 -1.2,2.5 -0.9,0.2 -1.8,0.5 -2.7,0.4 -0.3,0 -0.5,-0.1 -0.7,-0.5 -0.8,-2 -2,-3.7 -3,-5.6 -1.1,-1.9 -2.8,-2.1 -4.6,-2.2 -0.7,-0.1 -1.2,0.5 -1.9,0.7 -1,0.3 -1.6,1 -2.3,1.7 -0.6,0.7 -0.8,1.6 -1.5,2.2 -0.3,0.2 -0.2,0.6 -0.2,1 -0.2,2.4 0.4,4.6 1.2,6.8 0.1,0.3 0.3,0.6 0.6,0.5 0.5,-0.2 1,-0.5 1,-1.2 0,-0.2 -0.1,-0.3 -0.1,-0.5 -0.6,-1.8 -0.7,-3.6 -0.6,-5.4 0,-0.6 0.3,-0.8 0.9,-0.9 1.3,-0.3 2.4,0.2 3.5,0.5 0.1,0.3 0.5,0.4 0.6,0.7 0.2,0.4 -0.6,0.5 -0.8,0.6 0,0.1 0,0.1 0,0.2 0,0 0,0.1 0,0.1 0.5,0 0.9,0 1.3,-0.1 0.5,-0.1 2.1,-0.3 1.4,0.7 -0.2,0.3 -0.5,0.6 -0.8,0.9 -0.2,0.3 -0.4,0.6 -0.7,0.9 0.3,-0.1 0.6,-0.3 0.9,-0.4 0.5,-0.3 1.1,-0.4 1.6,-0.5 0.5,-0.1 1,-0.1 1.5,0 0.2,0.9 0,1.1 -1.2,1.4 -2.6,0.6 -4.6,2.2 -6.6,3.8 -0.7,0.6 -1.5,1.3 -1,2.4 0.1,0.3 0,0.6 -0.3,0.7 -0.9,0.7 -2,1.2 -3.1,1.5 -1.4,0.4 -2.5,-0.3 -3.6,-0.7 -0.6,-0.3 -0.4,-0.9 -0.5,-1.3 0,-0.3 0,-0.6 0.1,-1 0,-1.3 -0.1,-2.6 -0.3,-4 -0.2,-1.1 -0.5,-2 -1.1,-2.9 -0.4,-0.6 -0.7,-1.2 -1.1,-1.9 -0.5,-0.8 -1.3,-1.4 -2.4,-1.4 -1,0 -2,0.2 -3,0.1 -2,-0.1 -3.9,0.4 -5.7,1.2 -0.2,0.1 -0.4,0.2 -0.8,0.1 -0.8,-0.3 -1.6,0.1 -1.9,0.9 -0.6,1.4 -0.6,2.9 -0.7,4.4 -0.1,1.7 -0.1,3.4 0.1,5.1 0.1,0.6 0.4,0.9 1,0.8 0.6,-0.1 0.6,-0.5 0.7,-1.1 0.3,-2.4 -0.5,-4.9 0.4,-7.4 0.2,-0.7 0.5,-1.3 0.9,-1.8 0.4,-0.4 1.2,-0.3 1.8,0 0.4,0.2 0.8,0.4 1.1,0.7 0.8,0.6 1.5,1.1 2.3,1.6 -0.6,0.1 -1.2,0.4 -1.7,0.9 -0.9,0.5 -0.6,0.6 0.3,0.7 0.6,0.1 3.8,-0.1 3.3,1 -0.2,0.5 -1.1,0.5 -1.4,0.7 -0.4,0.3 -0.7,0.8 -1.2,1 1.1,0 2.2,-0.1 3.3,-0.1 0.6,0 1.2,0 1.7,0.2 0.3,0.1 0.7,0.3 1,0.5 0.2,0.2 0.3,0.4 0.5,0.6 0.2,0.2 0.2,0.5 0.2,0.8 -3,-0.7 -5.9,0.2 -8.9,0.5 -0.9,0.1 -1.8,0.5 -2.6,0.8 -0.8,0.4 -1.2,0.9 -0.8,1.7 0.3,0.7 0.5,1.3 0.4,2.1 -0.1,0.5 -0.3,0.8 -0.7,0.9 -1.7,0.7 -3.4,1.1 -5.2,1.2 -0.2,0 -0.5,0 -0.7,-0.1 -1,-0.3 -2,-0.6 -3,-0.9 -0.6,-0.2 -0.9,-0.5 -0.8,-1.2 0.2,-1.2 0.4,-2.3 0.3,-3.5 -0.3,-2.3 0,-4.7 -0.1,-7 -0.1,-1.3 -0.7,-2.4 -1.5,-3.4 -0.3,-0.2 -0.6,-0.4 -0.8,-0.7 -1.2,-1.1 -2.7,-1.4 -4.3,-1.7 -1.6,-0.3 -3.2,-0.3 -4.8,-0.2 -1,0.1 -1.8,0.5 -2.4,1.3 -1.8,2.5 -2.7,5.4 -2.8,8.5 0,0.3 -0.1,0.6 -0.1,0.9 -0.1,0.7 0.2,1.1 0.9,1 0,0 0,0 0.1,0 0.6,0 0.9,-0.3 0.8,-0.5 -0.1,-0.2 -0.2,-0.4 -0.2,-0.6 0.3,-2.4 0.7,-4.9 2,-7.1 0.4,-0.7 0.5,-1.4 1.1,-2 0.3,-0.3 0.5,-0.3 0.8,-0.1 0.6,0.7 1.5,1.1 2,1.9 0.4,0.6 0.9,1 1.4,1.5 0.1,0.1 0.1,0.1 0.2,0.2 -0.6,0.1 -1.3,0.1 -2,0 0,0.9 1,2 1.5,2.8 0.5,0.7 2.3,0.8 2.5,1.9 -0.5,0 -2.3,-0.9 -3.4,0.2 1.1,0.4 4.9,0.8 7,3 0,0.4 0,0.8 0,1.1 0,0.2 0,0.4 -0.3,0.2 -1,-0.8 -2.1,-1.6 -3.2,-2.2 -1,-0.4 -2.1,-0.5 -3.1,-0.6 -1.3,-0.1 -2.5,-0.2 -3.8,-0.1 -0.4,0 -0.9,0 -1.3,0.2 -0.3,0.1 -0.6,0.1 -0.8,-0.1 -0.3,0.1 -0.4,0.2 -0.6,0.5 0,0.1 0,0.2 0,0.4 0,0.1 0,0.1 0,0.2 -0.1,1.2 -0.1,1.2 -1.2,1 -0.9,-0.2 -1.7,0.2 -2.6,0.3 -0.6,0.1 -1.1,0.2 -1.7,0.3 -1.4,0.2 -2.6,-0.2 -3.6,-1.2 -0.6,-0.6 -1.1,-1.2 -1.8,-1.7 -0.4,-0.4 -0.5,-0.8 -0.2,-1.3 0.4,-0.5 0.7,-1 1.2,-1.5 1.2,-1.2 2.1,-2.6 3,-3.9 0.3,-0.5 0.4,-1.1 0.5,-1.7 0.3,-1.5 0.4,-2.9 0.7,-4.4 0.3,-1.1 -0.5,-1.7 -1.2,-2.1 -2,-1.3 -4.3,-2.2 -6.4,-3.6 -0.4,-0.2 -0.8,-0.4 -1.2,-0.5 -0.6,-0.2 -1.2,0.1 -1.5,0.5 -1.8,2.1 -2.6,4.7 -3.1,7.4 0,0.8 0.6,0.9 1.2,0.9 0.8,-0.5 0.8,-1.3 1,-2 0.5,-1.7 0.7,-1.7 1.5,-3.3 0.2,-0.5 0.6,-0.5 1.1,0.2 0.7,1.1 1.8,0.4 2.2,1.7 0.1,0.5 0.3,0.9 0.5,1.4 -0.7,0.1 -1.4,0.6 -2.1,0.8 0.2,0.5 0.5,0.6 0.9,0.8 0.5,0.1 2,1 1.5,1.6 -0.2,0.3 -0.9,0.3 -1.2,0.4 -0.4,0.1 -0.8,0.2 -1.2,0.3 0.2,0.3 0.6,0.4 0.9,0.5 0.3,0.1 0.7,0.3 1,0.3 0.5,0.1 0.9,0 1.3,0.2 0.6,0.2 1.2,0.7 1.9,0.8 0,0.1 -0.1,0.2 -0.1,0.3 -0.1,0.4 -0.3,0.9 -0.2,1.3 0,0.7 -0.3,0.7 -0.8,0.6 -0.6,-0.2 -1.3,-0.3 -1.9,-0.6 -1.4,-0.7 -3,-1.2 -4.2,-2.2 -0.6,-0.5 -1.4,-0.3 -2.2,-0.2 -1.2,0.2 -2.4,0.5 -3.6,0.6 -1.5,0.2 -2.9,-0.5 -4.2,-1.1 -0.6,-0.2 -1,-0.6 -1.3,-1.2 -0.2,-0.4 -0.2,-0.7 0.1,-1 2.6,-2.9 4.3,-6.4 5.9,-9.9 0.3,-0.7 0.6,-1.5 1,-2.2 0.2,-0.4 0.2,-0.8 0,-1.2 -0.9,-1.4 -1.8,-2.7 -3.1,-3.8 C 54.6,98.5 54.3,98.3 54.1,98.1 54,98 53.8,98 53.7,98 53,97.6 52.1,97.3 51.5,97.8 51,98.3 51.1,99 51.1,99.6 c 0,0.4 0.2,1.6 0,1.9 -0.2,0.2 -0.8,-0.6 -0.9,-0.3 -0.3,0.6 1.8,3 1.7,3.6 -0.3,0.1 -2.7,-1.3 -2.9,-1.1 0.1,0.5 0.5,0.7 0.7,1 0.4,0.1 0.7,0.4 1,0.8 0.2,0.3 0.7,0.7 0.8,1.1 0.2,0.2 0.7,0.9 0.7,1.2 0.1,0.1 0.1,0.1 0.2,0.2 0.1,0.4 0.7,1 1.1,1.1 0,0 0,0 0,0.1 0.2,0.1 0.3,0.2 0.5,0.2 -0.1,0.2 -0.2,0.4 0,0.6 0.1,0.1 -0.1,0.2 -0.2,0.3 -0.3,0.1 -0.5,0 -0.7,-0.2 -0.6,-0.6 -1.1,-1.3 -1.6,-2.1 -0.3,-0.6 -0.8,-0.9 -1.4,-1.1 -1.8,-0.5 -3.6,-1.1 -5.3,-1.9 -0.6,-0.2 -0.7,-0.5 -0.5,-1.3 0.3,-1.1 1.2,-1.6 1.7,-2.4 1.8,-2.9 2.8,-3.3 4.1,-6.5 0.3,-0.8 0.9,-1.1 1.7,-1.1 0.2,0 0.6,0.2 0.7,-0.2 -0.7,-1.8 -1.4,-3.5 -1.7,-5.5 -0.7,0.2 -1.1,0.7 -1.2,1.4 0,0.1 0,0.3 -0.1,0.4 -0.5,0.7 -0.6,1.5 -0.7,2.3 C 48.5,92 48.2,92 47.9,92 47.7,92.7 47.8,93.5 47.8,94.3 46.8,94 46.3,94 45.7,94 c -0.3,1.2 1.5,1.8 2.5,1.5 -0.1,0.3 -0.4,0.6 -0.8,0.8 -0.1,0.1 -0.2,0.1 -0.3,0.2 -1.2,0.9 -2.1,0.8 -3.3,-0.2 -0.6,-0.5 -1.3,-0.8 -1.8,-1.4 -0.7,-0.8 -0.6,-1.8 0.2,-2.4 1.7,-1.2 3.4,-2.5 5,-4 1.3,-1.3 2.6,-2.6 3.5,-4.2 0.5,-0.8 0.5,-1.6 0.3,-2.5 -0.1,-0.2 -0.1,-0.4 -0.3,-0.4 -0.2,0 -0.3,0.1 -0.5,0.3 -0.7,1 -1.2,2.1 -1.3,3.4 -0.1,0.4 0,1 -0.5,1.1 -0.6,0.1 -1.1,-0.4 -1.2,-1 -0.1,-0.4 -0.4,-0.7 -0.6,-1 -0.5,-0.6 -0.4,-1 0.2,-1.4 0.5,-0.3 0.9,-0.7 1.3,-1.1 0.4,-0.4 0.8,-0.7 1.2,-0.9 0.7,-0.4 1.4,-1 1.7,-1.8 0.3,-0.6 1.5,-2.2 3.2,-3.9 -1.7,3 -1,7.3 -0.9,10.6 0,1.3 0.4,1.8 1.7,1.2 0.1,-0.8 0.4,-1.6 0.4,-2.4 C 54.9,84 55,82.8 55,82.2 c 0,-0.7 0.1,-1.5 0.1,-2.2 -0.5,0.1 -0.8,-0.2 -0.7,-0.7 0.1,0 0.1,0 0.2,0 0.8,-1.6 0.9,-3.4 1.9,-4.9 0.7,-1.1 1.6,-2.6 2.6,-3.6 0.4,-0.2 0.8,-0.5 1.2,-0.7 3.6,-1.9 7.3,-3.2 11.3,-4.1 2.6,-0.6 9.9,-1.6 16.7,-0.7 4.1,0.5 12.1,2.3 15.9,3.8 2.9,1.1 4.5,2.1 7.7,2.2 2.7,0.1 5.4,0.3 8,0.9 3.9,0.8 7.5,2.6 10.9,4.7 0.2,0.1 0.4,0.2 0.6,0.3 1.3,0.8 2.5,1.6 3.6,2.8 0.4,0.5 1.6,1.5 2.4,2.3 0.5,0.5 1.3,2.7 1.7,3.3 0.2,0.4 0.6,1.9 0.7,2.1 0.6,1.1 1,2.2 1.5,3.3 0.5,1.2 1.6,2 2.4,3.1 0.4,0.6 1.1,0.6 1.6,1.1 0.7,0.6 0.8,1 0.2,1.7 -0.4,0.4 -0.6,0.9 -0.8,1.3 -0.2,0.4 -0.4,0.6 -0.9,0.6 -0.4,-0.1 -0.6,-0.4 -0.6,-0.8 0,-0.5 -0.1,-1 0.3,-1.5 0.4,-0.4 0.3,-0.9 -0.1,-1.3 -0.9,-0.8 -1.5,-1.3 -2.1,-2.2 -0.2,-0.3 -0.5,-0.5 -0.9,-0.4 -0.2,0.1 -0.6,0.2 -0.5,0.4 0,0.4 -0.1,0.4 0,0.9 0.5,1.3 1.2,2.5 1.9,3.7 0,0.1 0.1,0.2 0.1,0.3 1.3,2.4 3.2,4.4 4.9,6.6 0.3,0.7 0.3,1.1 -0.5,1.7 z"
   class="st0" />
	</g>
	<circle
   id="circle20"
   r="73"
   cy="99.199997"
   cx="94.199997"
   class="st1" />
</g>
<g
   id="Layer_2">
	<path
   d="M64.6,47.6c0,4.5-2.6,8.2-5.8,8.2   c3.2,0,5.8,3.7,5.8,8.2c0-4.5,2.6-8.2,5.8-8.2C67.2,55.8,64.6,52.1,64.6,47.6z"
   class="st2"
   id="sparkle_00000003099830088997354660000002833343681004937881_" />
	<path
   d="M58.7,55.8c0,2.7-1.5,4.9-3.5,4.9   c1.9,0,3.5,2.2,3.5,4.9c0-2.7,1.5-4.9,3.5-4.9C60.2,60.7,58.7,58.5,58.7,55.8z"
   class="st2"
   id="sparkle_00000142175515507555666960000013313974303418452106_" />
	<path
   d="M72.9,56.1c0,1.9-1.2,3.5-2.6,3.5   c1.5,0,2.6,1.5,2.6,3.5c0-1.9,1.2-3.5,2.6-3.5C74.1,59.6,72.9,58,72.9,56.1z"
   class="st2"
   id="sparkle_00000021821040328082188010000015547479114352220082_" />
	<path
   d="M150.7,109.8c0,5-2.4,9.1-5.4,9.1   c2.9,0,5.4,4.1,5.4,9.1c0-5,2.4-9.1,5.4-9.1C153,118.9,150.7,114.8,150.7,109.8z"
   class="st2"
   id="sparkle_00000094620413317945553940000013653982232516652955_" />
	<path
   d="M142.5,121c0,3.4-1.9,6.3-4.4,6.3   c2.4,0,4.4,2.8,4.4,6.3c0-3.4,1.9-6.3,4.4-6.3C144.5,127.3,142.5,124.5,142.5,121z"
   class="st2"
   id="sparkle_00000016792752226841287610000015896931371732710575_" />
	<path
   d="M134.2,124.6c0,1.9-1.2,3.5-2.6,3.5   c1.5,0,2.6,1.5,2.6,3.5c0-1.9,1.2-3.5,2.6-3.5C135.4,128.1,134.2,126.5,134.2,124.6z"
   class="st2"
   id="sparkle_00000074416348754522713770000011424244871922890147_" />
	<path
   id="path29"
   d="M85.5,49c-0.3-0.3-0.6-0.6-0.8-0.9c-0.2-0.3-0.3-0.7-0.3-1.1c-0.1-1,0.3-1.9,1.2-2.7c0.9-0.8,1.9-1.2,3.1-1.3   c0.6,0,1.4,0.1,2.5,0.4l0.2,3.2l-0.7,0c-0.1-0.9-0.4-1.6-1-2.1c-0.5-0.5-1.2-0.8-1.9-0.7c-0.6,0-1.1,0.2-1.4,0.6   c-0.4,0.4-0.5,0.8-0.5,1.4c0,0.5,0.3,1,0.7,1.4c0.4,0.4,1.3,1.1,2.8,1.9c1.1,0.6,1.9,1.2,2.3,1.6c0.4,0.4,0.6,1,0.7,1.6   c0.1,1.1-0.4,2.1-1.3,3c-0.9,0.9-2,1.4-3.3,1.5c-0.9,0.1-1.9-0.1-3.1-0.4l-0.2-3.7l0.7,0c0.1,1,0.4,1.9,1.1,2.5   c0.6,0.7,1.4,1,2.2,0.9c0.8-0.1,1.3-0.3,1.8-0.8s0.6-1,0.5-1.7c0-0.6-0.3-1.1-0.6-1.5c-0.4-0.4-1.3-1-2.6-1.8   C86.8,49.8,86.1,49.4,85.5,49z"
   class="st3" />
	<path
   id="path31"
   d="M93.7,45.6l5,0.2l0,0.5c-0.6,0-1,0.1-1.3,0.3c-0.2,0.2-0.3,0.6-0.4,1.2l-0.2,3.5l6.2,0.3l0.2-3.5   c0-0.7-0.1-1.1-0.3-1.3c-0.2-0.2-0.6-0.3-1.2-0.4l0-0.5l5,0.2l0,0.5c-0.6,0-1,0.1-1.3,0.3c-0.2,0.2-0.3,0.6-0.4,1.2l-0.4,8.9   c0,0.7,0.1,1.1,0.3,1.3c0.2,0.2,0.6,0.3,1.2,0.4l0,0.5l-5-0.2l0-0.5c0.6,0,1-0.1,1.2-0.3c0.2-0.2,0.4-0.6,0.4-1.3l0.2-4.7L96.9,52   l-0.2,4.7c0,1.1,0.4,1.6,1.5,1.7l0,0.5l-5-0.2l0-0.5c0.6,0,1-0.1,1.3-0.3c0.2-0.2,0.4-0.6,0.4-1.3l0.4-8.9c0-0.7-0.1-1.1-0.3-1.3   c-0.2-0.2-0.6-0.3-1.2-0.4L93.7,45.6z"
   class="st3" />
	<path
   id="path33"
   d="M113.8,47.8c-0.6,0-1,0.1-1.2,0.4s-0.3,0.6-0.3,1.3v8.9c0,1,0.5,1.6,1.6,1.6v0.5h-5v-0.5c0.6,0,1-0.1,1.2-0.4   s0.3-0.7,0.3-1.3v-8.9c0-0.7-0.1-1.1-0.3-1.3c-0.2-0.2-0.6-0.3-1.2-0.3v-0.5h5V47.8z"
   class="st3" />
	<path
   id="path35"
   d="M116.6,49.9l3.3,0.3l6.5,10.7l0.3-3c0.2-1.9,0.2-3.5,0-4.7c-0.2-1.2-0.6-1.8-1.2-2l0-0.5l4.5,0.4l0,0.5   c-1.3,0-2.1,2-2.5,6l-0.7,6.9l-0.5,0l-7.7-12.7l-0.4,3.8c-0.2,2.4-0.2,4.2-0.1,5.4c0.2,1.2,0.6,1.8,1.3,2l0,0.5l-4.4-0.4l0-0.5   c1.3-0.1,2.1-2.4,2.5-6.9l0.3-3.5c0.1-0.6,0-1-0.2-1.2c-0.2-0.2-0.6-0.4-1.1-0.4L116.6,49.9z"
   class="st3" />
	<path
   id="path37"
   d="M130.2,54.5h3.7V55c-0.3,0-0.4,0.1-0.4,0.3c0,0.1,0,0.1,0,0.2l3.2,6.4c1.7-2.6,2.5-4.5,2.5-5.7   c0-0.4-0.1-0.7-0.4-0.9s-0.7-0.3-1.3-0.3v-0.5h4.9V55c-0.4,0-0.8,0.2-1.2,0.5s-0.8,0.9-1.3,1.8l-3.1,5.3v2.9c0,1,0.5,1.6,1.6,1.6   v0.5h-5v-0.5c0.6,0,1-0.1,1.2-0.4c0.2-0.2,0.3-0.7,0.3-1.3v-2.9l-2.6-5.1c-0.4-0.8-0.8-1.4-1.1-1.8c-0.4-0.4-0.7-0.6-1.2-0.6V54.5z   "
   class="st3" />
	<g
   id="g39">
	</g>
	<g
   id="g41">
	</g>
	<g
   id="g43">
	</g>
	<g
   id="g45">
	</g>
	<g
   id="g47">
	</g>
	<g
   id="g49">
	</g>
</g>
</svg>
